<svg xmlns="http://www.w3.org/2000/svg" xmlns:xlink="http://www.w3.org/1999/xlink" width="60" height="56" version="1.1" viewBox="0 0 60 56"><title>187 - Airdrop (Flat)</title><desc>Created with Sketch.</desc><g id="Page-1" fill="none" fill-rule="evenodd" stroke="none" stroke-width="1"><g id="187---Airdrop-(Flat)" stroke="#ECBA16" stroke-width="2" transform="translate(1.000000, 1.000000)"><path id="Stroke-891" d="M32.013,29 C32.013,30.657 30.67,32 29.013,32 C27.356,32 26.013,30.657 26.013,29 C26.013,27.343 27.356,26 29.013,26 C30.67,26 32.013,27.343 32.013,29 L32.013,29 Z"/><path id="Stroke-892" stroke-linecap="round" d="M33.068,35.884 C35.424,34.491 37.013,31.931 37.013,29 C37.013,24.589 33.424,21 29.013,21 C24.602,21 21.013,24.589 21.013,29 C21.013,31.931 22.602,34.491 24.958,35.884"/><path id="Stroke-893"/><path id="Stroke-894" stroke-linecap="round" d="M43.73,53.986 C52.276,48.942 58.013,39.643 58.013,29 C58.013,12.984 45.029,0 29.013,0 C12.997,0 0.013,12.984 0.013,29 C0.013,39.643 5.75,48.942 14.296,53.986"/><path id="Stroke-895"/><path id="Stroke-896" stroke-linecap="round" d="M40.173,47.948 C46.654,44.116 51.013,37.059 51.013,29 C51.013,16.869 41.144,7 29.013,7 C16.882,7 7.013,16.869 7.013,29 C7.013,37.059 11.372,44.116 17.853,47.948"/><path id="Stroke-897"/><path id="Stroke-898" stroke-linecap="round" d="M36.616,41.908 C41.034,39.296 44.013,34.495 44.013,29 C44.013,20.729 37.284,14 29.013,14 C20.742,14 14.013,20.729 14.013,29 C14.013,34.495 16.992,39.296 21.41,41.908"/></g></g></svg>