<svg xmlns="http://www.w3.org/2000/svg" xmlns:xlink="http://www.w3.org/1999/xlink" width="47" height="53" version="1.1" viewBox="0 0 47 53"><title>89 - Alarm (Flat)</title><desc>Created with Sketch.</desc><g id="Page-1" fill="none" fill-rule="evenodd" stroke="none" stroke-width="1"><g id="Icons" transform="translate(-247.000000, -3841.000000)"><g id="89---Alarm-(Flat)" transform="translate(247.000000, 3841.000000)"><path id="Fill-1312" fill="#E8EDEE" d="M9.491,46.639 C20.192,48.486 26.15,48.486 36.851,46.639 L46.341,45 C41.656,40.343 39.024,34.586 39.024,28 L39.024,19 C39.063,12.954 35.067,8.523 31.079,6.699 C26.079,4.415 20.264,4.406 15.272,6.707 C11.319,8.53 7.038,12.958 7,19 L7,28 C7,34.586 4.685,40.343 0,45 L9.491,46.639"/><path id="Fill-1313" fill="#FFF" d="M12,20 L11.994,20 C11.441,19.996 10.997,19.546 11,18.994 C11.03,14.313 14.752,11.352 16.948,10.34 C20.796,8.565 25.541,8.568 29.416,10.338 C29.918,10.568 30.14,11.16 29.91,11.663 C29.68,12.165 29.087,12.387 28.584,12.156 C25.231,10.623 21.116,10.619 17.785,12.156 C16.019,12.971 13.023,15.329 13,19.006 C12.997,19.557 12.549,20 12,20"/><path id="Fill-1314" fill="#C7CBC7" d="M27,5.381 L27,4 C27,1.791 25.209,0 23,0 C20.791,0 19,1.791 19,4 L19,5.453 C21.629,4.862 24.36,4.841 27,5.381"/><path id="Fill-1315" fill="#C7CBC7" d="M14.905,47.46 C16.35,50.728 19.508,53 23.183,53 C26.859,53 30.017,50.727 31.461,47.457 C25.533,48.209 20.83,48.211 14.905,47.46"/></g></g></g></svg>