<svg xmlns="http://www.w3.org/2000/svg" xmlns:xlink="http://www.w3.org/1999/xlink" width="58" height="50" version="1.1" viewBox="0 0 58 50"><title>262 - Album (Flat)</title><desc>Created with Sketch.</desc><g id="Page-1" fill="none" fill-rule="evenodd" stroke="none" stroke-width="1"><g id="262---Album-(Flat)"><path id="Fill-706" fill="#DD691D" d="M8,0 L58,0 L58,50 L8,50 L8,0 Z"/><path id="Fill-707" fill="#424A60" d="M0,0 L8,0 L8,50 L0,50 L0,0 Z"/><path id="Fill-743" fill="#ECBA16" d="M45,15 L26,18 L26,12 L45,9 L45,15 L45,15 Z"/><path id="Stroke-744" stroke="#FFF" stroke-linecap="round" stroke-linejoin="round" stroke-width="2" d="M45,15 L26,18 L26,12 L45,9 L45,15 L45,15 Z"/><path id="Fill-745" fill="#23A24D" d="M26,36.102 L26,15.286"/><path id="Stroke-746" stroke="#FFF" stroke-linecap="round" stroke-linejoin="round" stroke-width="2" d="M26,36.102 L26,15.286"/><path id="Fill-747" fill="#23A24D"/><path id="Stroke-748" stroke="#FFF" stroke-linecap="round" stroke-linejoin="round" stroke-width="2"/><path id="Fill-749" fill="#23A24D" d="M45,30 L45,10"/><path id="Stroke-750" stroke="#FFF" stroke-linecap="round" stroke-linejoin="round" stroke-width="2" d="M45,30 L45,10"/><path id="Fill-751" fill="#23A24D"/><path id="Stroke-752" stroke="#FFF" stroke-linecap="round" stroke-linejoin="round" stroke-width="2"/><path id="Fill-753" fill="#ECBA16" d="M45,30 C45,32.761 42.537,35 39.5,35 C36.462,35 34,32.761 34,30 C34,27.239 36.462,25 39.5,25 C42.537,25 45,27.239 45,30 L45,30 Z"/><path id="Stroke-754" stroke="#FFF" stroke-linecap="round" stroke-linejoin="round" stroke-width="2" d="M45,30 C45,32.761 42.537,35 39.5,35 C36.462,35 34,32.761 34,30 C34,27.239 36.462,25 39.5,25 C42.537,25 45,27.239 45,30 L45,30 Z"/><path id="Fill-755" fill="#ECBA16" d="M26,36 C26,38.761 23.538,41 20.5,41 C17.462,41 15,38.761 15,36 C15,33.239 17.462,31 20.5,31 C23.538,31 26,33.239 26,36 L26,36 Z"/><path id="Stroke-756" stroke="#FFF" stroke-linecap="round" stroke-linejoin="round" stroke-width="2" d="M26,36 C26,38.761 23.538,41 20.5,41 C17.462,41 15,38.761 15,36 C15,33.239 17.462,31 20.5,31 C23.538,31 26,33.239 26,36 L26,36 Z"/></g></g></svg>