<svg xmlns="http://www.w3.org/2000/svg" xmlns:xlink="http://www.w3.org/1999/xlink" width="58" height="46" version="1.1" viewBox="0 0 58 46"><title>266 - Albums (Flat)</title><desc>Created with Sketch.</desc><g id="Page-1" fill="none" fill-rule="evenodd" stroke="none" stroke-width="1"><g id="266---Albums-(Flat)"><path id="Stroke-703" stroke="#0F81E0" stroke-linecap="round" stroke-linejoin="round" stroke-width="2"/><path id="Fill-738" fill="#EF6129" d="M8,0 L50,0 L50,46 L8,46 L8,0 Z"/><path id="Fill-739" fill="#ECBA16" d="M50,4 L54,4 L54,42 L50,42 L50,4 Z"/><path id="Fill-740" fill="#ECBA16" d="M4,4 L8,4 L8,42 L4,42 L4,4 Z"/><path id="Fill-741" fill="#F0CE49" d="M54,8 L58,8 L58,38 L54,38 L54,8 Z"/><path id="Fill-742" fill="#F0CE49" d="M0,8 L4,8 L4,38 L0,38 L0,8 Z"/><path id="Stroke-1873" stroke="#0F81E0" stroke-linecap="round" stroke-linejoin="round" stroke-width="2"/><path id="Fill-1874" fill="#FFF" d="M43.649,6.24 C43.427,6.05 43.134,5.967 42.844,6.013 L23.844,9.013 C23.358,9.089 23,9.508 23,10 L23,29.681 C21.831,28.643 20.246,28 18.5,28 C14.916,28 12,30.691 12,34 C12,37.309 14.916,40 18.5,40 C22.033,40 24.911,37.383 24.992,34.14 C24.993,34.126 25,34.115 25,34.102 L25,16.854 L42,14.17 L42,23.681 C40.831,22.643 39.246,22 37.5,22 C33.916,22 31,24.691 31,28 C31,31.309 33.916,34 37.5,34 C41.084,34 44,31.309 44,28 L44,7 C44,6.708 43.872,6.43 43.649,6.24"/></g></g></svg>