<?xml version="1.0" encoding="UTF-8" standalone="no"?>
<svg width="58px" height="54px" viewBox="0 0 58 54" version="1.1" xmlns="http://www.w3.org/2000/svg" xmlns:xlink="http://www.w3.org/1999/xlink" xmlns:sketch="http://www.bohemiancoding.com/sketch/ns">
    <!-- Generator: Sketch 3.2.2 (9983) - http://www.bohemiancoding.com/sketch -->
    <title>61 - Archive (Flat)</title>
    <desc>Created with Sketch.</desc>
    <defs></defs>
    <g id="Page-1" stroke="none" stroke-width="1" fill="none" fill-rule="evenodd" sketch:type="MSPage">
        <g id="Icons" sketch:type="MSArtboardGroup" transform="translate(-1201.000000, -4080.000000)">
            <g id="61---Archive-(Flat)" sketch:type="MSLayerGroup" transform="translate(1200.000000, 4080.000000)">
                <path d="M55,21 L55,5.768 C55,5.344 54.656,5 54.232,5 L23.435,5 C23.165,5 22.915,4.858 22.776,4.627 L20.224,0.373 C20.085,0.142 19.835,0 19.565,0 L5.768,0 C5.344,0 5,0.344 5,0.768 L5,21 L55,21" id="Fill-104" fill="#B5885B" sketch:type="MSShapeGroup"></path>
                <path d="M8,17 L52,17 L52,21 L8,21 L8,17 Z" id="Fill-105" fill="#FFFFFF" sketch:type="MSShapeGroup"></path>
                <path d="M9,14 L51,14 L51,17 L9,17 L9,14 Z" id="Fill-106" fill="#E8EDEE" sketch:type="MSShapeGroup"></path>
                <path d="M10,11 L50,11 L50,14 L10,14 L10,11 Z" id="Fill-107" fill="#C7CBC7" sketch:type="MSShapeGroup"></path>
                <path d="M53.723,54 L6.189,54 C6.055,54 5.941,53.902 5.921,53.77 L1.003,21.312 C0.978,21.148 1.105,21 1.271,21 L58.641,21 C58.807,21 58.933,21.148 58.909,21.312 L53.991,53.77 C53.971,53.902 53.857,54 53.723,54" id="Fill-1425" fill="#F8B563" sketch:type="MSShapeGroup"></path>
                <path d="M27.956,35 L46.956,35 L46.956,47 L27.956,47 L27.956,35 Z" id="Fill-1439" fill="#EDEBDA" sketch:type="MSShapeGroup"></path>
                <path d="M31.956,40 L35.956,40 C36.509,40 36.956,39.553 36.956,39 C36.956,38.448 36.509,38 35.956,38 L31.956,38 C31.403,38 30.956,38.448 30.956,39 C30.956,39.553 31.403,40 31.956,40" id="Fill-1440" fill="#CEC9AE" sketch:type="MSShapeGroup"></path>
                <path d="M39.956,40 L40.956,40 C41.509,40 41.956,39.553 41.956,39 C41.956,38.448 41.509,38 40.956,38 L39.956,38 C39.403,38 38.956,38.448 38.956,39 C38.956,39.553 39.403,40 39.956,40" id="Fill-1441" fill="#CEC9AE" sketch:type="MSShapeGroup"></path>
                <path d="M42.956,42 L31.956,42 C31.403,42 30.956,42.448 30.956,43 C30.956,43.553 31.403,44 31.956,44 L42.956,44 C43.509,44 43.956,43.553 43.956,43 C43.956,42.448 43.509,42 42.956,42" id="Fill-1442" fill="#CEC9AE" sketch:type="MSShapeGroup"></path>
            </g>
        </g>
    </g>
</svg>