<?xml version="1.0" encoding="UTF-8" standalone="no"?>
<svg width="58px" height="58px" viewBox="0 0 58 58" version="1.1" xmlns="http://www.w3.org/2000/svg" xmlns:xlink="http://www.w3.org/1999/xlink" xmlns:sketch="http://www.bohemiancoding.com/sketch/ns">
    <!-- Generator: Sketch 3.2.2 (9983) - http://www.bohemiancoding.com/sketch -->
    <title>249 - Backward (Flat)</title>
    <desc>Created with Sketch.</desc>
    <defs></defs>
    <g id="Page-1" stroke="none" stroke-width="1" fill="none" fill-rule="evenodd" sketch:type="MSPage">
        <g id="249---Backward-(Flat)" sketch:type="MSLayerGroup">
            <path d="M0,29 C0,45.017 12.984,58 29,58 C45.016,58 58,45.017 58,29 C58,12.984 45.016,0 29,0 C12.984,0 0,12.984 0,29" id="Fill-788" fill="#3083C9" sketch:type="MSShapeGroup"></path>
            <path d="M22,29 L44,44 L44,14 L22,29" id="Fill-1895" fill="#FFFFFF" sketch:type="MSShapeGroup"></path>
            <path d="M44,45 C43.803,45 43.606,44.942 43.436,44.826 L21.436,29.826 C21.164,29.64 21,29.331 21,29 C21,28.669 21.164,28.36 21.436,28.174 L43.436,13.174 C43.744,12.966 44.142,12.942 44.467,13.116 C44.795,13.289 45,13.629 45,14 L45,44 C45,44.371 44.795,44.711 44.467,44.884 C44.321,44.962 44.16,45 44,45 L44,45 Z M23.775,29 L43,42.107 L43,15.893 L23.775,29 L23.775,29 Z" id="Fill-1896" fill="#FFFFFF" sketch:type="MSShapeGroup"></path>
            <path d="M13,14 L18,14 L18,44 L13,44 L13,14 Z" id="Fill-1897" fill="#FFFFFF" sketch:type="MSShapeGroup"></path>
            <path d="M12,13 L19,13 L19,45 L12,45 L12,13 Z M14,43 L17,43 L17,15 L14,15 L14,43 Z" id="Fill-1898" fill="#FFFFFF" sketch:type="MSShapeGroup"></path>
        </g>
    </g>
</svg>