<svg xmlns="http://www.w3.org/2000/svg" xmlns:xlink="http://www.w3.org/1999/xlink" width="57" height="57" version="1.1" viewBox="0 0 57 57"><title>35 - Blueprint (Flat)</title><desc>Created with Sketch.</desc><g id="Page-1" fill="none" fill-rule="evenodd" stroke="none" stroke-width="1"><g id="Icons" transform="translate(-721.000000, -4439.000000)"><g id="35---Blueprint-(Flat)" transform="translate(721.000000, 4439.000000)"><path id="Fill-158" fill="#226BAC" d="M6,0 C2.686,0 0,2.687 0,6 L0,51 C0,47.687 2.686,45 6,45 C9.314,45 12,47.687 12,51 L12,6 C12,2.687 9.314,0 6,0"/><path id="Fill-159" fill="#3083C9" d="M12,7 L12,51 C12,47.687 9.314,45 6,45 C2.686,45 0,47.687 0,51 L0,51.06 C0,54.34 2.66,57 5.94,57 L57,57 L57,7 L12,7"/><path id="Fill-1685" fill="#7FABDA" d="M52,41 L49,41 C48.447,41 48,40.553 48,40 C48,39.447 48.447,39 49,39 L50,39 L50,38.383 C50,37.83 50.447,37.383 51,37.383 C51.553,37.383 52,37.83 52,38.383 L52,41 L52,41 Z M45,41 L43,41 C42.447,41 42,40.553 42,40 C42,39.447 42.447,39 43,39 L45,39 C45.553,39 46,39.447 46,40 C46,40.553 45.553,41 45,41 L45,41 Z M39,41 L37,41 C36.447,41 36,40.553 36,40 C36,39.447 36.447,39 37,39 L39,39 C39.553,39 40,39.447 40,40 C40,40.553 39.553,41 39,41 L39,41 Z M33,41 L31,41 C30.447,41 30,40.553 30,40 C30,39.447 30.447,39 31,39 L33,39 C33.553,39 34,39.447 34,40 C34,40.553 33.553,41 33,41 L33,41 Z M27,41 L25,41 C24.447,41 24,40.553 24,40 C24,39.447 24.447,39 25,39 L27,39 C27.553,39 28,39.447 28,40 C28,40.553 27.553,41 27,41 L27,41 Z M21,41 L19,41 C18.447,41 18,40.553 18,40 C18,39.447 18.447,39 19,39 L21,39 C21.553,39 22,39.447 22,40 C22,40.553 21.553,41 21,41 L21,41 Z M17,39 C16.447,39 16,38.553 16,38 L16,36 C16,35.447 16.447,35 17,35 C17.553,35 18,35.447 18,36 L18,38 C18,38.553 17.553,39 17,39 L17,39 Z M51,35.383 C50.447,35.383 50,34.935 50,34.383 L50,32.383 C50,31.83 50.447,31.383 51,31.383 C51.553,31.383 52,31.83 52,32.383 L52,34.383 C52,34.935 51.553,35.383 51,35.383 L51,35.383 Z M17,33 C16.447,33 16,32.553 16,32 L16,30 C16,29.447 16.447,29 17,29 C17.553,29 18,29.447 18,30 L18,32 C18,32.553 17.553,33 17,33 L17,33 Z M51,29.383 C50.447,29.383 50,28.935 50,28.383 L50,26.383 C50,25.83 50.447,25.383 51,25.383 C51.553,25.383 52,25.83 52,26.383 L52,28.383 C52,28.935 51.553,29.383 51,29.383 L51,29.383 Z M17,27 C16.447,27 16,26.553 16,26 L16,24 C16,23.447 16.447,23 17,23 C17.553,23 18,23.447 18,24 L18,26 C18,26.553 17.553,27 17,27 L17,27 Z M50.495,23.644 C50.296,23.644 50.095,23.584 49.92,23.461 L48.285,22.308 C47.834,21.99 47.726,21.365 48.044,20.914 C48.363,20.463 48.986,20.355 49.437,20.673 L51.072,21.826 C51.523,22.145 51.632,22.769 51.313,23.22 C51.118,23.496 50.81,23.644 50.495,23.644 L50.495,23.644 Z M19.452,22.27 C19.138,22.27 18.829,22.122 18.634,21.847 C18.315,21.396 18.423,20.772 18.874,20.453 L20.508,19.299 C20.961,18.982 21.584,19.089 21.902,19.539 C22.221,19.99 22.113,20.614 21.662,20.934 L20.028,22.087 C19.852,22.21 19.651,22.27 19.452,22.27 L19.452,22.27 Z M45.593,20.184 C45.394,20.184 45.192,20.124 45.017,20.001 L43.383,18.848 C42.932,18.528 42.824,17.904 43.143,17.453 C43.462,17.003 44.084,16.896 44.537,17.213 L46.171,18.367 C46.622,18.686 46.729,19.31 46.411,19.761 C46.216,20.036 45.907,20.184 45.593,20.184 L45.593,20.184 Z M24.354,18.81 C24.039,18.81 23.73,18.662 23.535,18.387 C23.217,17.936 23.324,17.312 23.775,16.992 L25.409,15.839 C25.862,15.523 26.484,15.63 26.804,16.079 C27.122,16.531 27.015,17.154 26.563,17.474 L24.93,18.627 C24.754,18.75 24.553,18.81 24.354,18.81 L24.354,18.81 Z M40.691,16.724 C40.492,16.724 40.291,16.664 40.115,16.541 L38.481,15.388 C38.03,15.068 37.923,14.445 38.241,13.993 C38.56,13.543 39.183,13.436 39.636,13.753 L41.269,14.906 C41.721,15.226 41.828,15.85 41.51,16.301 C41.314,16.576 41.006,16.724 40.691,16.724 L40.691,16.724 Z M29.256,15.35 C28.941,15.35 28.633,15.203 28.437,14.927 C28.119,14.476 28.227,13.852 28.678,13.532 L30.312,12.379 C30.766,12.06 31.387,12.17 31.706,12.619 C32.024,13.071 31.917,13.695 31.466,14.014 L29.832,15.167 C29.656,15.29 29.455,15.35 29.256,15.35 L29.256,15.35 Z M35.789,13.264 C35.59,13.264 35.389,13.204 35.213,13.081 L33.579,11.928 C33.128,11.609 33.02,10.985 33.339,10.533 C33.658,10.084 34.28,9.977 34.733,10.293 L36.367,11.446 C36.818,11.766 36.926,12.39 36.607,12.841 C36.412,13.117 36.104,13.264 35.789,13.264 L35.789,13.264 Z"/><path id="Stroke-1686" stroke="#F0CE49" stroke-linecap="round" stroke-width="2" d="M41,46 L52,46 L52,52 L41,52 L41,46 Z"/><path id="Fill-1687" fill="#7FABDA" d="M30,36 L28,36 C27.447,36 27,35.553 27,35 C27,34.448 27.447,34 28,34 L29,34 L29,33 C29,32.447 29.447,32 30,32 C30.553,32 31,32.447 31,33 L31,35 C31,35.553 30.553,36 30,36 L30,36 Z M24,36 L22,36 C21.447,36 21,35.553 21,35 C21,34.448 21.447,34 22,34 L24,34 C24.553,34 25,34.448 25,35 C25,35.553 24.553,36 24,36 L24,36 Z M22,32 C21.447,32 21,31.553 21,31 L21,29 C21,28.448 21.447,28 22,28 C22.553,28 23,28.448 23,29 L23,31 C23,31.553 22.553,32 22,32 L22,32 Z M30,30 C29.447,30 29,29.553 29,29 L29,27 C29,26.447 29.447,26 30,26 C30.553,26 31,26.447 31,27 L31,29 C31,29.553 30.553,30 30,30 L30,30 Z M26,28 L24,28 C23.447,28 23,27.553 23,27 C23,26.447 23.447,26 24,26 L26,26 C26.553,26 27,26.447 27,27 C27,27.553 26.553,28 26,28 L26,28 Z"/><path id="Fill-1688" fill="#7FABDA" d="M46,36 L44,36 C43.447,36 43,35.553 43,35 C43,34.448 43.447,34 44,34 L45,34 L45,33 C45,32.447 45.447,32 46,32 C46.553,32 47,32.447 47,33 L47,35 C47,35.553 46.553,36 46,36 L46,36 Z M40,36 L38,36 C37.447,36 37,35.553 37,35 C37,34.448 37.447,34 38,34 L40,34 C40.553,34 41,34.448 41,35 C41,35.553 40.553,36 40,36 L40,36 Z M38,32 C37.447,32 37,31.553 37,31 L37,29 C37,28.448 37.447,28 38,28 C38.553,28 39,28.448 39,29 L39,31 C39,31.553 38.553,32 38,32 L38,32 Z M46,30 C45.447,30 45,29.553 45,29 L45,27 C45,26.447 45.447,26 46,26 C46.553,26 47,26.447 47,27 L47,29 C47,29.553 46.553,30 46,30 L46,30 Z M42,28 L40,28 C39.447,28 39,27.553 39,27 C39,26.447 39.447,26 40,26 L42,26 C42.553,26 43,26.447 43,27 C43,27.553 42.553,28 42,28 L42,28 Z"/><path id="Stroke-1689" stroke="#C6E3F8" stroke-linecap="round" stroke-width="2" d="M37,46 L32,46 M37,49 L30,49 M37,52 L27,52"/></g></g></g></svg>