<svg xmlns="http://www.w3.org/2000/svg" xmlns:xlink="http://www.w3.org/1999/xlink" width="34" height="55" version="1.1" viewBox="0 0 34 55"><title>338 - Bluettoth (Flat)</title><desc>Created with Sketch.</desc><g id="Page-1" fill="none" fill-rule="evenodd" stroke="none" stroke-width="1"><g id="Icons" transform="translate(-373.000000, -840.000000)"><g id="338---Bluettoth-(Flat)" transform="translate(373.000000, 840.000000)"><path id="Fill-537" fill="#093C91" d="M17,55 L17,55 C7.611,55 0,47.389 0,38 L0,17 C0,7.611 7.611,0 17,0 C26.389,0 34,7.611 34,17 L34,38 C34,47.389 26.389,55 17,55"/><path id="Stroke-1837" stroke="#FFF" stroke-width="2" d="M17.035,27 L17,18 L17,10 L25,18 L17.035,27 L17.035,27 Z M17,45 L17,36 L17.035,27.606 L25,36 L17,45 L17,45 Z M7.073,18.013 L17.035,27.013 L7.073,18.013 Z M17.073,27.013 L7,36.013 L17.073,27.013 Z"/></g></g></g></svg>