<svg xmlns="http://www.w3.org/2000/svg" xmlns:xlink="http://www.w3.org/1999/xlink" width="49" height="58" version="1.1" viewBox="0 0 49 58"><title>32 - Bookmark FIle (Flat)</title><desc>Created with Sketch.</desc><g id="Page-1" fill="none" fill-rule="evenodd" stroke="none" stroke-width="1"><g id="Icons" transform="translate(-1086.000000, -4438.000000)"><g id="32---Bookmark-FIle-(Flat)" transform="translate(1086.000000, 4438.000000)"><path id="Fill-281" fill="#EDEBDA" d="M23,4 L23,28 L15,22 L7,28 L7,4 L0,4 L0,58 L49,58 L49,4 L23,4"/><path id="Fill-1634" fill="#CEC9AE" d="M42,35 L7,35 C6.447,35 6,35.448 6,36 C6,36.553 6.447,37 7,37 L42,37 C42.553,37 43,36.553 43,36 C43,35.448 42.553,35 42,35"/><path id="Fill-1635" fill="#CEC9AE" d="M42,28 L29,28 C28.447,28 28,28.447 28,29 C28,29.553 28.447,30 29,30 L42,30 C42.553,30 43,29.553 43,29 C43,28.447 42.553,28 42,28"/><path id="Fill-1636" fill="#CEC9AE" d="M42,21 L29,21 C28.447,21 28,21.447 28,22 C28,22.553 28.447,23 29,23 L42,23 C42.553,23 43,22.553 43,22 C43,21.447 42.553,21 42,21"/><path id="Fill-1637" fill="#CEC9AE" d="M29,16 L42,16 C42.553,16 43,15.553 43,15 C43,14.448 42.553,14 42,14 L29,14 C28.447,14 28,14.448 28,15 C28,15.553 28.447,16 29,16"/><path id="Fill-1638" fill="#CEC9AE" d="M42,47 L7,47 C6.447,47 6,47.448 6,48 C6,48.553 6.447,49 7,49 L42,49 C42.553,49 43,48.553 43,48 C43,47.448 42.553,47 42,47"/><path id="Fill-1639" fill="#CEC9AE" d="M7,43 L21,43 C21.553,43 22,42.553 22,42 C22,41.448 21.553,41 21,41 L7,41 C6.447,41 6,41.448 6,42 C6,42.553 6.447,43 7,43"/><path id="Fill-1640" fill="#CEC9AE" d="M42,41 L29,41 C28.447,41 28,41.448 28,42 C28,42.553 28.447,43 29,43 L42,43 C42.553,43 43,42.553 43,42 C43,41.448 42.553,41 42,41"/><path id="Fill-1641" fill="#CEC9AE" d="M25.71,42.71 C25.89,42.52 26,42.26 26,42 C26,41.74 25.89,41.48 25.71,41.3 C25.34,40.92 24.649,40.92 24.29,41.29 C24.109,41.48 24,41.74 24,42 C24,42.26 24.109,42.52 24.29,42.71 C24.479,42.89 24.729,43 25,43 C25.26,43 25.519,42.89 25.71,42.71"/><path id="Fill-1642" fill="#D75A4A" d="M23,28 L15,22 L7,28 L7,0 L23,0 L23,28"/></g></g></g></svg>