<?xml version="1.0" encoding="UTF-8" standalone="no"?>
<svg width="58px" height="54px" viewBox="0 0 58 54" version="1.1" xmlns="http://www.w3.org/2000/svg" xmlns:xlink="http://www.w3.org/1999/xlink" xmlns:sketch="http://www.bohemiancoding.com/sketch/ns">
    <!-- Generator: Sketch 3.2.2 (9983) - http://www.bohemiancoding.com/sketch -->
    <title>3 - Box (Flat)</title>
    <desc>Created with Sketch.</desc>
    <defs></defs>
    <g id="Page-1" stroke="none" stroke-width="1" fill="none" fill-rule="evenodd" sketch:type="MSPage">
        <g id="Icons" sketch:type="MSArtboardGroup" transform="translate(-961.000000, -4802.000000)">
            <g id="3---Box-(Flat)" sketch:type="MSLayerGroup" transform="translate(961.000000, 4802.000000)">
                <path d="M58,12 L0,12 L0,1.412 C0,0.632 0.632,0 1.412,0 L56.588,0 C57.368,0 58,0.632 58,1.412 L58,12" id="Fill-1735" fill="#4B5F99" sketch:type="MSShapeGroup"></path>
                <path d="M3,12 L3,50.59 C3,52.474 4.527,54 6.41,54 L51.59,54 C53.473,54 55,52.474 55,50.59 L55,12 L3,12" id="Fill-1736" fill="#6379B7" sketch:type="MSShapeGroup"></path>
                <path d="M13,54 L6.41,54 C4.527,54 3,52.474 3,50.59 L3,44 C8.523,44 13,48.477 13,54" id="Fill-1737" fill="#4B5F99" sketch:type="MSShapeGroup"></path>
                <path d="M51.59,54 L45,54 C45,48.477 49.477,44 55,44 L55,50.59 C55,52.474 53.473,54 51.59,54" id="Fill-1738" fill="#4B5F99" sketch:type="MSShapeGroup"></path>
                <path d="M34.495,28 L23.505,28 C21.572,28 20,26.428 20,24.495 L20,23 C20,22.448 20.447,22 21,22 C21.553,22 22,22.448 22,23 L22,24.495 C22,25.325 22.675,26 23.505,26 L34.495,26 C35.325,26 36,25.325 36,24.495 L36,23 C36,22.448 36.447,22 37,22 C37.553,22 38,22.448 38,23 L38,24.495 C38,26.428 36.428,28 34.495,28" id="Fill-1824" fill="#E8EDEE" sketch:type="MSShapeGroup"></path>
                <path d="M3,12 L55,12 L55,18 L3,18 L3,12 Z" id="Fill-3169" fill="#5F77AA" sketch:type="MSShapeGroup"></path>
            </g>
        </g>
    </g>
</svg>