<svg xmlns="http://www.w3.org/2000/svg" xmlns:xlink="http://www.w3.org/1999/xlink" width="58" height="54" version="1.1" viewBox="0 0 58 54"><title>3 - Box (Flat)</title><desc>Created with Sketch.</desc><g id="Page-1" fill="none" fill-rule="evenodd" stroke="none" stroke-width="1"><g id="Icons" transform="translate(-961.000000, -4802.000000)"><g id="3---Box-(Flat)" transform="translate(961.000000, 4802.000000)"><path id="Fill-1735" fill="#4B5F99" d="M58,12 L0,12 L0,1.412 C0,0.632 0.632,0 1.412,0 L56.588,0 C57.368,0 58,0.632 58,1.412 L58,12"/><path id="Fill-1736" fill="#6379B7" d="M3,12 L3,50.59 C3,52.474 4.527,54 6.41,54 L51.59,54 C53.473,54 55,52.474 55,50.59 L55,12 L3,12"/><path id="Fill-1737" fill="#4B5F99" d="M13,54 L6.41,54 C4.527,54 3,52.474 3,50.59 L3,44 C8.523,44 13,48.477 13,54"/><path id="Fill-1738" fill="#4B5F99" d="M51.59,54 L45,54 C45,48.477 49.477,44 55,44 L55,50.59 C55,52.474 53.473,54 51.59,54"/><path id="Fill-1824" fill="#E8EDEE" d="M34.495,28 L23.505,28 C21.572,28 20,26.428 20,24.495 L20,23 C20,22.448 20.447,22 21,22 C21.553,22 22,22.448 22,23 L22,24.495 C22,25.325 22.675,26 23.505,26 L34.495,26 C35.325,26 36,25.325 36,24.495 L36,23 C36,22.448 36.447,22 37,22 C37.553,22 38,22.448 38,23 L38,24.495 C38,26.428 36.428,28 34.495,28"/><path id="Fill-3169" fill="#5F77AA" d="M3,12 L55,12 L55,18 L3,18 L3,12 Z"/></g></g></g></svg>