<svg xmlns="http://www.w3.org/2000/svg" xmlns:xlink="http://www.w3.org/1999/xlink" width="58" height="56" version="1.1" viewBox="0 0 58 56"><title>4 - Box Archive (Flat)</title><desc>Created with Sketch.</desc><g id="Page-1" fill="none" fill-rule="evenodd" stroke="none" stroke-width="1"><g id="Icons" transform="translate(-841.000000, -4800.000000)"><g id="4---Box-Archive-(Flat)" transform="translate(841.000000, 4800.000000)"><path id="Fill-1732" fill="#B1B7BC" d="M58,16.01 L0,16.01 L0,2.046 C0,0.916 0.916,0 2.046,0 L55.954,0 C57.084,0 58,0.916 58,2.046 L58,16.01"/><path id="Fill-1733" fill="#E8EDEE" d="M3,16.01 L55,16.01 L55,55.94 L3,55.94 L3,16.01 Z"/><path id="Fill-1734" fill="#424A60" d="M38,12.01 L20,12.01 C17.791,12.01 16,10.219 16,8.01 C16,5.801 17.791,4.01 20,4.01 L38,4.01 C40.209,4.01 42,5.801 42,8.01 C42,10.219 40.209,12.01 38,12.01"/><path id="Fill-1739" fill="#57ABC1" d="M3,51 L55,51 L55,55.94 L3,55.94 L3,51 Z"/><path id="Fill-2242" fill="#FFF" d="M15,24 L43,24 L43,38 L15,38 L15,24 Z"/><path id="Fill-2243" fill="#C7CBC7" d="M19,30 L25,30 C25.553,30 26,29.553 26,29 C26,28.447 25.553,28 25,28 L19,28 C18.447,28 18,28.447 18,29 C18,29.553 18.447,30 19,30"/><path id="Fill-2244" fill="#C7CBC7" d="M29,30 C29.26,30 29.519,29.89 29.71,29.71 C29.89,29.52 30,29.26 30,29 C30,28.74 29.89,28.48 29.71,28.29 C29.33,27.92 28.66,27.92 28.29,28.29 C28.109,28.48 28,28.74 28,29 C28,29.27 28.109,29.52 28.29,29.71 C28.479,29.89 28.729,30 29,30"/><path id="Fill-2245" fill="#C7CBC7" d="M39,32 L23,32 C22.447,32 22,32.447 22,33 C22,33.553 22.447,34 23,34 L39,34 C39.553,34 40,33.553 40,33 C40,32.447 39.553,32 39,32"/><path id="Fill-2246" fill="#C7CBC7" d="M18.29,32.29 C18.109,32.479 18,32.739 18,33 C18,33.26 18.109,33.52 18.29,33.71 C18.479,33.89 18.729,34 19,34 C19.269,34 19.519,33.89 19.71,33.71 C19.89,33.52 20,33.26 20,33 C20,32.739 19.89,32.479 19.71,32.29 C19.34,31.92 18.67,31.92 18.29,32.29"/><path id="Fill-3168" fill="#D7D7E2" d="M3,16 L55,16 L55,21 L3,21 L3,16 Z"/></g></g></g></svg>