<svg xmlns="http://www.w3.org/2000/svg" xmlns:xlink="http://www.w3.org/1999/xlink" width="58" height="58" version="1.1" viewBox="0 0 58 58"><title>6 - Box Archive (Flat)</title><desc>Created with Sketch.</desc><g id="Page-1" fill="none" fill-rule="evenodd" stroke="none" stroke-width="1"><g id="Icons" transform="translate(-601.000000, -4798.000000)"><g id="6---Box-Archive-(Flat)" transform="translate(601.000000, 4798.000000)"><path id="Fill-1812" fill="#996B52" d="M58,17 L0,17 L0,7.311 C0,7.139 0.139,7 0.311,7 L57.689,7 C57.861,7 58,7.139 58,7.311 L58,17"/><path id="Fill-1813" fill="#6C4126" d="M57.778,7 L0.222,7 C0.135,7 0.088,6.898 0.145,6.831 L6,0 L52,0 L57.855,6.831 C57.912,6.898 57.865,7 57.778,7"/><path id="Fill-1814" fill="#935F42" d="M3,17 L55,17 L55,57.94 L3,57.94 L3,17 Z"/><path id="Fill-1815" fill="#6C4126" d="M18,23 L40,23 L40,31 L18,31 L18,23 Z"/><path id="Fill-1816" fill="#EDEBDA" d="M15,38 L43,38 L43,50 L15,50 L15,38 Z"/><path id="Fill-1817" fill="#CEC9AE" d="M26,45 L21,45 C20.448,45 20,45.447 20,46 C20,46.553 20.448,47 21,47 L26,47 C26.552,47 27,46.553 27,46 C27,45.447 26.552,45 26,45"/><path id="Fill-1818" fill="#CEC9AE" d="M26,43 L37,43 C37.552,43 38,42.553 38,42 C38,41.448 37.552,41 37,41 L26,41 C25.448,41 25,41.448 25,42 C25,42.553 25.448,43 26,43"/><path id="Fill-1819" fill="#CEC9AE" d="M21,43 C21.26,43 21.52,42.89 21.71,42.71 C21.89,42.52 22,42.26 22,42 C22,41.74 21.89,41.48 21.71,41.29 C21.33,40.92 20.67,40.92 20.29,41.29 C20.11,41.48 20,41.74 20,42 C20,42.27 20.11,42.52 20.29,42.71 C20.48,42.89 20.73,43 21,43"/><path id="Fill-1820" fill="#CEC9AE" d="M30.29,45.29 C30.11,45.48 30,45.74 30,46 C30,46.26 30.11,46.52 30.29,46.71 C30.48,46.89 30.74,47 31,47 C31.26,47 31.52,46.89 31.71,46.71 C31.89,46.52 32,46.26 32,46 C32,45.74 31.89,45.48 31.71,45.29 C31.34,44.92 30.66,44.92 30.29,45.29"/><path id="Fill-1821" fill="#CEC9AE" d="M37,45 L36,45 C35.448,45 35,45.447 35,46 C35,46.553 35.448,47 36,47 L37,47 C37.552,47 38,46.553 38,46 C38,45.447 37.552,45 37,45"/></g></g></g></svg>