<?xml version="1.0" encoding="UTF-8" standalone="no"?>
<svg width="53px" height="53px" viewBox="0 0 53 53" version="1.1" xmlns="http://www.w3.org/2000/svg" xmlns:xlink="http://www.w3.org/1999/xlink" xmlns:sketch="http://www.bohemiancoding.com/sketch/ns">
    <!-- Generator: Sketch 3.2.2 (9983) - http://www.bohemiancoding.com/sketch -->
    <title>344 - Broken Link (Flat)</title>
    <desc>Created with Sketch.</desc>
    <defs></defs>
    <g id="Page-1" stroke="none" stroke-width="1" fill="none" fill-rule="evenodd" sketch:type="MSPage">
        <g id="Icons" sketch:type="MSArtboardGroup" transform="translate(-844.000000, -722.000000)" stroke-linecap="round" stroke="#D5354E" stroke-width="2">
            <g id="344---Broken-Link-(Flat)" sketch:type="MSLayerGroup" transform="translate(844.000000, 723.000000)">
                <path d="M24.008,12.401 L33.2,3.208 C37.478,-1.069 44.478,-1.069 48.756,3.208 C53.034,7.486 53.034,14.487 48.756,18.765 L36.735,30.786 C32.457,35.064 25.457,35.064 21.179,30.786 M27.543,39.978 L19.765,47.756 C15.487,52.034 8.487,52.034 4.208,47.756 C-0.07,43.479 -0.07,36.478 4.208,32.2 L15.522,20.886 C19.8,16.608 26.801,16.608 31.078,20.886 L31.079,20.886 M33.965,44 L33.965,50 M37.722,42 L41.965,46.243 M38.965,38 L44.965,38 M15.965,9 L15.965,3 M12.207,11 L7.965,6.758 M10.965,15 L4.965,15" id="Stroke-500" sketch:type="MSShapeGroup"></path>
            </g>
        </g>
    </g>
</svg>