<svg xmlns="http://www.w3.org/2000/svg" xmlns:xlink="http://www.w3.org/1999/xlink" width="56" height="57" version="1.1" viewBox="0 0 56 57"><title>34 - Calendar Date (Flat)</title><desc>Created with Sketch.</desc><g id="Page-1" fill="none" fill-rule="evenodd" stroke="none" stroke-width="1"><g id="Icons" transform="translate(-842.000000, -4439.000000)"><g id="34---Calendar-Date-(Flat)" transform="translate(842.000000, 4439.000000)"><path id="Fill-1659" fill="#E8EDEE" d="M0,18 L56,18 L56,57 L0,57 L0,18 Z"/><path id="Fill-1678" fill="#424A60" d="M22,50 L19,50 L19,25 C19,24.87 18.973,24.74 18.923,24.618 C18.822,24.373 18.627,24.179 18.382,24.077 C18.138,23.976 17.862,23.976 17.618,24.077 C17.495,24.128 17.384,24.202 17.292,24.294 L11.293,30.293 C10.902,30.684 10.902,31.317 11.293,31.707 C11.488,31.903 11.744,32 12,32 C12.256,32 12.512,31.903 12.707,31.707 L17,27.414 L17,50 L14,50 C13.447,50 13,50.447 13,51 C13,51.553 13.447,52 14,52 L22,52 C22.553,52 23,51.553 23,51 C23,50.447 22.553,50 22,50"/><path id="Fill-1679" fill="#424A60" d="M40.716,36.922 C42.685,35.681 44,33.494 44,31 C44,27.141 40.859,24 37,24 C33.141,24 30,27.141 30,31 C30,33.494 31.315,35.681 33.284,36.922 C30.74,38.262 29,40.93 29,44 C29,48.411 32.589,52 37,52 C41.411,52 45,48.411 45,44 C45,40.93 43.26,38.262 40.716,36.922 L40.716,36.922 Z M32,31 C32,28.243 34.243,26 37,26 C39.757,26 42,28.243 42,31 C42,33.757 39.757,36 37,36 C34.243,36 32,33.757 32,31 L32,31 Z M37,50 C33.691,50 31,47.309 31,44 C31,40.692 33.691,38 37,38 C40.309,38 43,40.692 43,44 C43,47.309 40.309,50 37,50 L37,50 Z"/><path id="Fill-3087" fill="#424A60" d="M41,5 L0,5 L0,18 L56,18 L56,5 L41,5"/><path id="Fill-3088" fill="#38454F" d="M21,9 C21,10.105 20.105,11 19,11 C17.895,11 17,10.105 17,9 C17,7.896 17.895,7 19,7 C20.105,7 21,7.896 21,9"/><path id="Fill-3089" fill="#38454F" d="M27,9 C27,10.105 26.105,11 25,11 C23.895,11 23,10.105 23,9 C23,7.896 23.895,7 25,7 C26.105,7 27,7.896 27,9"/><path id="Fill-3090" fill="#38454F" d="M33,9 C33,10.105 32.105,11 31,11 C29.895,11 29,10.105 29,9 C29,7.896 29.895,7 31,7 C32.105,7 33,7.896 33,9"/><path id="Fill-3091" fill="#38454F" d="M39,9 C39,10.105 38.105,11 37,11 C35.895,11 35,10.105 35,9 C35,7.896 35.895,7 37,7 C38.105,7 39,7.896 39,9"/><path id="Fill-3092" fill="#B0B6BB" d="M37,0 C35.87,0 34.838,0.391 34,1.026 C34.534,1.43 34.979,1.937 35.315,2.52 C35.796,2.192 36.376,2 37,2 C38.654,2 40,3.346 40,5 C40,6.654 38.654,8 37,8 C36.447,8 36,8.447 36,9 C36,9.553 36.447,10 37,10 C39.757,10 42,7.757 42,5 C42,2.243 39.757,0 37,0"/><path id="Fill-3093" fill="#839494" d="M32.685,2.52 C32.261,3.254 32,4.094 32,5 L34,5 C34,3.97 33.478,3.06 32.685,2.52"/><path id="Fill-3094" fill="#839494" d="M26.685,2.52 C26.261,3.254 26,4.094 26,5 L28,5 C28,3.97 27.478,3.06 26.685,2.52"/><path id="Fill-3095" fill="#B0B6BB" d="M35.315,2.52 C34.979,1.937 34.534,1.43 34,1.026 C33.162,0.391 32.13,0 31,0 C29.87,0 28.838,0.391 28,1.026 C28.534,1.43 28.979,1.937 29.315,2.52 C29.796,2.192 30.376,2 31,2 C31.624,2 32.204,2.192 32.685,2.52 C33.478,3.06 34,3.97 34,5 C34,6.654 32.654,8 31,8 C30.447,8 30,8.447 30,9 C30,9.553 30.447,10 31,10 C33.757,10 36,7.757 36,5 C36,4.094 35.739,3.254 35.315,2.52"/><path id="Fill-3096" fill="#839494" d="M20.685,2.52 C20.261,3.254 20,4.094 20,5 L22,5 C22,3.97 21.478,3.06 20.685,2.52"/><path id="Fill-3097" fill="#B0B6BB" d="M29.315,2.52 C28.979,1.937 28.534,1.43 28,1.026 C27.162,0.391 26.13,0 25,0 C23.87,0 22.838,0.391 22,1.026 C22.534,1.43 22.979,1.937 23.315,2.52 C23.796,2.192 24.376,2 25,2 C25.624,2 26.204,2.192 26.685,2.52 C27.478,3.06 28,3.97 28,5 C28,6.654 26.654,8 25,8 C24.447,8 24,8.447 24,9 C24,9.553 24.447,10 25,10 C27.757,10 30,7.757 30,5 C30,4.094 29.739,3.254 29.315,2.52"/><path id="Fill-3098" fill="#B0B6BB" d="M23.315,2.52 C22.979,1.937 22.534,1.43 22,1.026 C21.162,0.391 20.13,0 19,0 C16.243,0 14,2.243 14,5 L16,5 C16,3.346 17.346,2 19,2 C19.624,2 20.204,2.192 20.685,2.52 C21.478,3.06 22,3.97 22,5 C22,6.654 20.654,8 19,8 C18.447,8 18,8.447 18,9 C18,9.553 18.447,10 19,10 C21.757,10 24,7.757 24,5 C24,4.094 23.739,3.254 23.315,2.52"/></g></g></g></svg>