<?xml version="1.0" encoding="UTF-8" standalone="no"?>
<svg width="58px" height="59px" viewBox="0 0 58 59" version="1.1" xmlns="http://www.w3.org/2000/svg" xmlns:xlink="http://www.w3.org/1999/xlink" xmlns:sketch="http://www.bohemiancoding.com/sketch/ns">
    <!-- Generator: Sketch 3.2.2 (9983) - http://www.bohemiancoding.com/sketch -->
    <title>21 - Calendar (Flat)</title>
    <desc>Created with Sketch.</desc>
    <defs></defs>
    <g id="Page-1" stroke="none" stroke-width="1" fill="none" fill-rule="evenodd" sketch:type="MSPage">
        <g id="21---Calendar-(Flat)" sketch:type="MSLayerGroup" transform="translate(0.000000, 1.000000)">
            <path d="M0,11 L58,11 L58,58 L0,58 L0,11 Z" id="Fill-1757" fill="#E8EDEE" sketch:type="MSShapeGroup"></path>
            <path d="M32.513,0.508 L31.446,2.201 C37.268,5.865 48.417,11.823 48.529,11.882 L49.471,10.118 C49.359,10.059 38.272,4.135 32.513,0.508" id="Fill-1758" fill="#7383BF" sketch:type="MSShapeGroup"></path>
            <path d="M8.529,10.118 L9.471,11.882 C9.583,11.823 20.732,5.865 26.554,2.201 L25.487,0.508 C19.728,4.134 8.641,10.059 8.529,10.118" id="Fill-1759" fill="#7383BF" sketch:type="MSShapeGroup"></path>
            <path d="M23,27 C23,27.552 22.552,28 22,28 C21.448,28 21,27.552 21,27 C21,26.448 21.448,26 22,26 C22.552,26 23,26.448 23,27" id="Fill-1784" fill="#424A60" sketch:type="MSShapeGroup"></path>
            <path d="M30,27 C30,27.552 29.552,28 29,28 C28.448,28 28,27.552 28,27 C28,26.448 28.448,26 29,26 C29.552,26 30,26.448 30,27" id="Fill-1785" fill="#424A60" sketch:type="MSShapeGroup"></path>
            <path d="M37,27 C37,27.552 36.552,28 36,28 C35.448,28 35,27.552 35,27 C35,26.448 35.448,26 36,26 C36.552,26 37,26.448 37,27" id="Fill-1786" fill="#424A60" sketch:type="MSShapeGroup"></path>
            <path d="M44,27 C44,27.552 43.552,28 43,28 C42.448,28 42,27.552 42,27 C42,26.448 42.448,26 43,26 C43.552,26 44,26.448 44,27" id="Fill-1787" fill="#424A60" sketch:type="MSShapeGroup"></path>
            <path d="M51,27 C51,27.552 50.552,28 50,28 C49.448,28 49,27.552 49,27 C49,26.448 49.448,26 50,26 C50.552,26 51,26.448 51,27" id="Fill-1788" fill="#424A60" sketch:type="MSShapeGroup"></path>
            <path d="M9,35 C9,35.552 8.552,36 8,36 C7.448,36 7,35.552 7,35 C7,34.448 7.448,34 8,34 C8.552,34 9,34.448 9,35" id="Fill-1789" fill="#F0CE49" sketch:type="MSShapeGroup"></path>
            <path d="M16,35 C16,35.552 15.552,36 15,36 C14.448,36 14,35.552 14,35 C14,34.448 14.448,34 15,34 C15.552,34 16,34.448 16,35" id="Fill-1790" fill="#ED7161" sketch:type="MSShapeGroup"></path>
            <path d="M9,27 C9,27.552 8.552,28 8,28 C7.448,28 7,27.552 7,27 C7,26.448 7.448,26 8,26 C8.552,26 9,26.448 9,27" id="Fill-1791" fill="#949493" sketch:type="MSShapeGroup"></path>
            <path d="M16,27 C16,27.552 15.552,28 15,28 C14.448,28 14,27.552 14,27 C14,26.448 14.448,26 15,26 C15.552,26 16,26.448 16,27" id="Fill-1792" fill="#949493" sketch:type="MSShapeGroup"></path>
            <path d="M23,35 C23,35.552 22.552,36 22,36 C21.448,36 21,35.552 21,35 C21,34.448 21.448,34 22,34 C22.552,34 23,34.448 23,35" id="Fill-1793" fill="#424A60" sketch:type="MSShapeGroup"></path>
            <path d="M30,35 C30,35.552 29.552,36 29,36 C28.448,36 28,35.552 28,35 C28,34.448 28.448,34 29,34 C29.552,34 30,34.448 30,35" id="Fill-1794" fill="#424A60" sketch:type="MSShapeGroup"></path>
            <path d="M37,35 C37,35.552 36.552,36 36,36 C35.448,36 35,35.552 35,35 C35,34.448 35.448,34 36,34 C36.552,34 37,34.448 37,35" id="Fill-1795" fill="#424A60" sketch:type="MSShapeGroup"></path>
            <path d="M44,35 C44,35.552 43.552,36 43,36 C42.448,36 42,35.552 42,35 C42,34.448 42.448,34 43,34 C43.552,34 44,34.448 44,35" id="Fill-1796" fill="#424A60" sketch:type="MSShapeGroup"></path>
            <path d="M51,35 C51,35.552 50.552,36 50,36 C49.448,36 49,35.552 49,35 C49,34.448 49.448,34 50,34 C50.552,34 51,34.448 51,35" id="Fill-1797" fill="#424A60" sketch:type="MSShapeGroup"></path>
            <path d="M9,42 C9,42.552 8.552,43 8,43 C7.448,43 7,42.552 7,42 C7,41.448 7.448,41 8,41 C8.552,41 9,41.448 9,42" id="Fill-1798" fill="#F0CE49" sketch:type="MSShapeGroup"></path>
            <path d="M16,42 C16,42.552 15.552,43 15,43 C14.448,43 14,42.552 14,42 C14,41.448 14.448,41 15,41 C15.552,41 16,41.448 16,42" id="Fill-1799" fill="#ED7161" sketch:type="MSShapeGroup"></path>
            <path d="M23,42 C23,42.552 22.552,43 22,43 C21.448,43 21,42.552 21,42 C21,41.448 21.448,41 22,41 C22.552,41 23,41.448 23,42" id="Fill-1800" fill="#424A60" sketch:type="MSShapeGroup"></path>
            <path d="M30,42 C30,42.552 29.552,43 29,43 C28.448,43 28,42.552 28,42 C28,41.448 28.448,41 29,41 C29.552,41 30,41.448 30,42" id="Fill-1801" fill="#424A60" sketch:type="MSShapeGroup"></path>
            <path d="M37,42 C37,42.552 36.552,43 36,43 C35.448,43 35,42.552 35,42 C35,41.448 35.448,41 36,41 C36.552,41 37,41.448 37,42" id="Fill-1802" fill="#424A60" sketch:type="MSShapeGroup"></path>
            <path d="M44,42 C44,42.552 43.552,43 43,43 C42.448,43 42,42.552 42,42 C42,41.448 42.448,41 43,41 C43.552,41 44,41.448 44,42" id="Fill-1803" fill="#424A60" sketch:type="MSShapeGroup"></path>
            <path d="M51,42 C51,42.552 50.552,43 50,43 C49.448,43 49,42.552 49,42 C49,41.448 49.448,41 50,41 C50.552,41 51,41.448 51,42" id="Fill-1804" fill="#424A60" sketch:type="MSShapeGroup"></path>
            <path d="M44,50 C44,50.552 43.552,51 43,51 C42.448,51 42,50.552 42,50 C42,49.448 42.448,49 43,49 C43.552,49 44,49.448 44,50" id="Fill-1805" fill="#949493" sketch:type="MSShapeGroup"></path>
            <path d="M51,50 C51,50.552 50.552,51 50,51 C49.448,51 49,50.552 49,50 C49,49.448 49.448,49 50,49 C50.552,49 51,49.448 51,50" id="Fill-1806" fill="#949493" sketch:type="MSShapeGroup"></path>
            <path d="M9,50 C9,50.552 8.552,51 8,51 C7.448,51 7,50.552 7,50 C7,49.448 7.448,49 8,49 C8.552,49 9,49.448 9,50" id="Fill-1807" fill="#F0CE49" sketch:type="MSShapeGroup"></path>
            <path d="M16,50 C16,50.552 15.552,51 15,51 C14.448,51 14,50.552 14,50 C14,49.448 14.448,49 15,49 C15.552,49 16,49.448 16,50" id="Fill-1808" fill="#ED7161" sketch:type="MSShapeGroup"></path>
            <path d="M23,50 C23,50.552 22.552,51 22,51 C21.448,51 21,50.552 21,50 C21,49.448 21.448,49 22,49 C22.552,49 23,49.448 23,50" id="Fill-1809" fill="#424A60" sketch:type="MSShapeGroup"></path>
            <path d="M30,50 C30,50.552 29.552,51 29,51 C28.448,51 28,50.552 28,50 C28,49.448 28.448,49 29,49 C29.552,49 30,49.448 30,50" id="Fill-1810" fill="#424A60" sketch:type="MSShapeGroup"></path>
            <path d="M37,50 C37,50.552 36.552,51 36,51 C35.448,51 35,50.552 35,50 C35,49.448 35.448,49 36,49 C36.552,49 37,49.448 37,50" id="Fill-1811" fill="#424A60" sketch:type="MSShapeGroup"></path>
            <path d="M33,4 C33,6.209 31.209,8 29,8 C26.791,8 25,6.209 25,4 C25,1.791 26.791,0 29,0 C31.209,0 33,1.791 33,4 L33,4 Z" id="Fill-3099" fill="#F8E7A1" sketch:type="MSShapeGroup"></path>
            <path d="M33,4 C33,6.209 31.209,8 29,8 C26.791,8 25,6.209 25,4 C25,1.791 26.791,0 29,0 C31.209,0 33,1.791 33,4 L33,4 Z" id="Stroke-3100" stroke="#D8A852" stroke-width="2" stroke-linejoin="round" sketch:type="MSShapeGroup"></path>
            <path d="M0,11 L58,11 L58,18 L0,18 L0,11 Z" id="Fill-3101" fill="#424A60" sketch:type="MSShapeGroup"></path>
        </g>
    </g>
</svg>