<svg xmlns="http://www.w3.org/2000/svg" xmlns:xlink="http://www.w3.org/1999/xlink" width="54" height="58" version="1.1" viewBox="0 0 54 58"><title>33 - Calendar (Flat)</title><desc>Created with Sketch.</desc><g id="Page-1" fill="none" fill-rule="evenodd" stroke="none" stroke-width="1"><g id="Icons" transform="translate(-963.000000, -4438.000000)"><g id="33---Calendar-(Flat)" transform="translate(963.000000, 4438.000000)"><path id="Fill-1690" fill="#FC3951" d="M46,4 L46,8 L39,8 L39,4 L15,4 L15,8 L8,8 L8,4 L0,4 L0,15 L54,15 L54,4 L46,4"/><path id="Fill-1691" fill="#EDEBDA" d="M8,15 L0,15 L0,58 L54,58 L54,15 L8,15"/><path id="Fill-1692" fill="#CEC9AE" d="M37,22 L8,22 L8,51 L46,51 L46,22 L37,22 L37,22 Z M28,24 L35,24 L35,31 L28,31 L28,24 Z M28,33 L35,33 L35,40 L28,40 L28,33 Z M19,33 L26,33 L26,40 L19,40 L19,33 Z M19,24 L26,24 L26,31 L19,31 L19,24 Z M10,24 L17,24 L17,31 L10,31 L10,24 Z M10,33 L17,33 L17,40 L10,40 L10,33 Z M10,42 L17,42 L17,49 L10,49 L10,42 Z M19,42 L26,42 L26,49 L19,49 L19,42 Z M28,42 L35,42 L35,49 L28,49 L28,42 Z M37,42 L44,42 L44,49 L37,49 L37,42 Z M37,33 L44,33 L44,40 L37,40 L37,33 Z M37,24 L44,24 L44,31 L37,31 L37,24 Z"/><path id="Fill-3129" fill="#28384B" d="M8,0 L15,0 L15,8 L8,8 L8,0 Z"/><path id="Fill-3130" fill="#28384B" d="M39,0 L46,0 L46,8 L39,8 L39,0 Z"/><path id="Fill-3131" fill="#25B99A" d="M28,33 L35,33 L35,40 L28,40 L28,33 Z"/></g></g></g></svg>