<svg xmlns="http://www.w3.org/2000/svg" xmlns:xlink="http://www.w3.org/1999/xlink" width="56" height="56" version="1.1" viewBox="0 0 56 56"><title>22 - Calendar (Flat)</title><desc>Created with Sketch.</desc><g id="Page-1" fill="none" fill-rule="evenodd" stroke="none" stroke-width="1"><g id="22---Calendar-(Flat)"><path id="Fill-77" fill="#61B972" d="M41,5 L0,5 L0,16 L56,16 L56,5 L41,5"/><path id="Fill-78" fill="#50965C" d="M21,9 C21,10.104 20.105,11 19,11 C17.895,11 17,10.104 17,9 C17,7.896 17.895,7 19,7 C20.105,7 21,7.896 21,9"/><path id="Fill-79" fill="#50965C" d="M27,9 C27,10.104 26.105,11 25,11 C23.895,11 23,10.104 23,9 C23,7.896 23.895,7 25,7 C26.105,7 27,7.896 27,9"/><path id="Fill-80" fill="#50965C" d="M33,9 C33,10.104 32.105,11 31,11 C29.895,11 29,10.104 29,9 C29,7.896 29.895,7 31,7 C32.105,7 33,7.896 33,9"/><path id="Fill-81" fill="#50965C" d="M39,9 C39,10.104 38.105,11 37,11 C35.895,11 35,10.104 35,9 C35,7.896 35.895,7 37,7 C38.105,7 39,7.896 39,9"/><path id="Fill-1756" fill="#EDEBDA" d="M0,16 L56,16 L56,56 L0,56 L0,16 Z"/><path id="Fill-1760" fill="#424A60" d="M22,24 C22,24.552 21.552,25 21,25 C20.448,25 20,24.552 20,24 C20,23.448 20.448,23 21,23 C21.552,23 22,23.448 22,24"/><path id="Fill-1761" fill="#424A60" d="M29,24 C29,24.552 28.552,25 28,25 C27.448,25 27,24.552 27,24 C27,23.448 27.448,23 28,23 C28.552,23 29,23.448 29,24"/><path id="Fill-1762" fill="#424A60" d="M36,24 C36,24.552 35.552,25 35,25 C34.448,25 34,24.552 34,24 C34,23.448 34.448,23 35,23 C35.552,23 36,23.448 36,24"/><path id="Fill-1763" fill="#424A60" d="M43,24 C43,24.552 42.552,25 42,25 C41.448,25 41,24.552 41,24 C41,23.448 41.448,23 42,23 C42.552,23 43,23.448 43,24"/><path id="Fill-1764" fill="#424A60" d="M50,24 C50,24.552 49.552,25 49,25 C48.448,25 48,24.552 48,24 C48,23.448 48.448,23 49,23 C49.552,23 50,23.448 50,24"/><path id="Fill-1765" fill="#424A60" d="M8,32 C8,32.552 7.552,33 7,33 C6.448,33 6,32.552 6,32 C6,31.448 6.448,31 7,31 C7.552,31 8,31.448 8,32"/><path id="Fill-1766" fill="#424A60" d="M15,32 C15,32.552 14.552,33 14,33 C13.448,33 13,32.552 13,32 C13,31.448 13.448,31 14,31 C14.552,31 15,31.448 15,32"/><path id="Fill-1767" fill="#424A60" d="M22,32 C22,32.552 21.552,33 21,33 C20.448,33 20,32.552 20,32 C20,31.448 20.448,31 21,31 C21.552,31 22,31.448 22,32"/><path id="Fill-1768" fill="#424A60" d="M29,32 C29,32.552 28.552,33 28,33 C27.448,33 27,32.552 27,32 C27,31.448 27.448,31 28,31 C28.552,31 29,31.448 29,32"/><path id="Fill-1769" fill="#424A60" d="M36,32 C36,32.552 35.552,33 35,33 C34.448,33 34,32.552 34,32 C34,31.448 34.448,31 35,31 C35.552,31 36,31.448 36,32"/><path id="Fill-1770" fill="#424A60" d="M43,32 C43,32.552 42.552,33 42,33 C41.448,33 41,32.552 41,32 C41,31.448 41.448,31 42,31 C42.552,31 43,31.448 43,32"/><path id="Fill-1771" fill="#424A60" d="M50,32 C50,32.552 49.552,33 49,33 C48.448,33 48,32.552 48,32 C48,31.448 48.448,31 49,31 C49.552,31 50,31.448 50,32"/><path id="Fill-1772" fill="#424A60" d="M8,39 C8,39.552 7.552,40 7,40 C6.448,40 6,39.552 6,39 C6,38.448 6.448,38 7,38 C7.552,38 8,38.448 8,39"/><path id="Fill-1773" fill="#424A60" d="M15,39 C15,39.552 14.552,40 14,40 C13.448,40 13,39.552 13,39 C13,38.448 13.448,38 14,38 C14.552,38 15,38.448 15,39"/><path id="Fill-1774" fill="#424A60" d="M22,39 C22,39.552 21.552,40 21,40 C20.448,40 20,39.552 20,39 C20,38.448 20.448,38 21,38 C21.552,38 22,38.448 22,39"/><path id="Fill-1775" fill="#424A60" d="M29,39 C29,39.552 28.552,40 28,40 C27.448,40 27,39.552 27,39 C27,38.448 27.448,38 28,38 C28.552,38 29,38.448 29,39"/><path id="Fill-1776" fill="#424A60" d="M36,39 C36,39.552 35.552,40 35,40 C34.448,40 34,39.552 34,39 C34,38.448 34.448,38 35,38 C35.552,38 36,38.448 36,39"/><path id="Fill-1777" fill="#424A60" d="M43,39 C43,39.552 42.552,40 42,40 C41.448,40 41,39.552 41,39 C41,38.448 41.448,38 42,38 C42.552,38 43,38.448 43,39"/><path id="Fill-1778" fill="#424A60" d="M50,39 C50,39.552 49.552,40 49,40 C48.448,40 48,39.552 48,39 C48,38.448 48.448,38 49,38 C49.552,38 50,38.448 50,39"/><path id="Fill-1779" fill="#424A60" d="M8,47 C8,47.552 7.552,48 7,48 C6.448,48 6,47.552 6,47 C6,46.448 6.448,46 7,46 C7.552,46 8,46.448 8,47"/><path id="Fill-1780" fill="#424A60" d="M15,47 C15,47.552 14.552,48 14,48 C13.448,48 13,47.552 13,47 C13,46.448 13.448,46 14,46 C14.552,46 15,46.448 15,47"/><path id="Fill-1781" fill="#424A60" d="M22,47 C22,47.552 21.552,48 21,48 C20.448,48 20,47.552 20,47 C20,46.448 20.448,46 21,46 C21.552,46 22,46.448 22,47"/><path id="Fill-1782" fill="#424A60" d="M29,47 C29,47.552 28.552,48 28,48 C27.448,48 27,47.552 27,47 C27,46.448 27.448,46 28,46 C28.552,46 29,46.448 29,47"/><path id="Fill-1783" fill="#424A60" d="M36,47 C36,47.552 35.552,48 35,48 C34.448,48 34,47.552 34,47 C34,46.448 34.448,46 35,46 C35.552,46 36,46.448 36,47"/><path id="Fill-3080" fill="#D8A852" d="M37,0 C35.87,0 34.838,0.391 34,1.025 C34.534,1.43 34.979,1.937 35.315,2.52 C35.796,2.193 36.376,2 37,2 C38.654,2 40,3.346 40,5 C40,6.655 38.654,8 37,8 C36.447,8 36,8.448 36,9 C36,9.553 36.447,10 37,10 C39.757,10 42,7.757 42,5 C42,2.243 39.757,0 37,0"/><path id="Fill-3081" fill="#A37F46" d="M32.685,2.52 C32.261,3.254 32,4.093 32,5 L34,5 C34,3.97 33.478,3.061 32.685,2.52"/><path id="Fill-3082" fill="#A37F46" d="M26.685,2.52 C26.261,3.254 26,4.093 26,5 L28,5 C28,3.97 27.478,3.061 26.685,2.52"/><path id="Fill-3083" fill="#D8A852" d="M35.315,2.52 C34.979,1.937 34.534,1.43 34,1.025 C33.162,0.391 32.13,0 31,0 C29.87,0 28.838,0.391 28,1.025 C28.534,1.43 28.979,1.937 29.315,2.52 C29.796,2.193 30.376,2 31,2 C31.624,2 32.204,2.193 32.685,2.52 C33.478,3.061 34,3.97 34,5 C34,6.655 32.654,8 31,8 C30.447,8 30,8.448 30,9 C30,9.553 30.447,10 31,10 C33.757,10 36,7.757 36,5 C36,4.093 35.739,3.254 35.315,2.52"/><path id="Fill-3084" fill="#A37F46" d="M20.685,2.52 C20.261,3.254 20,4.093 20,5 L22,5 C22,3.97 21.478,3.061 20.685,2.52"/><path id="Fill-3085" fill="#D8A852" d="M29.315,2.52 C28.979,1.937 28.534,1.43 28,1.025 C27.162,0.391 26.13,0 25,0 C23.87,0 22.838,0.391 22,1.025 C22.534,1.43 22.979,1.937 23.315,2.52 C23.796,2.193 24.376,2 25,2 C25.624,2 26.204,2.193 26.685,2.52 C27.478,3.061 28,3.97 28,5 C28,6.655 26.654,8 25,8 C24.447,8 24,8.448 24,9 C24,9.553 24.447,10 25,10 C27.757,10 30,7.757 30,5 C30,4.093 29.739,3.254 29.315,2.52"/><path id="Fill-3086" fill="#D8A852" d="M23.315,2.52 C22.979,1.937 22.534,1.43 22,1.025 C21.162,0.391 20.13,0 19,0 C16.243,0 14,2.243 14,5 L16,5 C16,3.346 17.346,2 19,2 C19.624,2 20.204,2.193 20.685,2.52 C21.478,3.061 22,3.97 22,5 C22,6.655 20.654,8 19,8 C18.447,8 18,8.448 18,9 C18,9.553 18.447,10 19,10 C21.757,10 24,7.757 24,5 C24,4.093 23.739,3.254 23.315,2.52"/></g></g></svg>