<svg xmlns="http://www.w3.org/2000/svg" xmlns:xlink="http://www.w3.org/1999/xlink" width="56" height="57" version="1.1" viewBox="0 0 56 57"><title>36 - Calendar Date (Flat)</title><desc>Created with Sketch.</desc><g id="Page-1" fill="none" fill-rule="evenodd" stroke="none" stroke-width="1"><g id="Icons" transform="translate(-602.000000, -4439.000000)"><g id="36---Calendar-Date-(Flat)" transform="translate(602.000000, 4439.000000)"><path id="Fill-16" fill="#E8EDEE" d="M0,18 L56,18 L56,57 L0,57 L0,18 Z"/><path id="Fill-17" fill="#23A24D" d="M41,5 L0,5 L0,18 L56,18 L56,5 L41,5"/><path id="Fill-18" fill="#38454F" d="M21,9 C21,10.105 20.105,11 19,11 C17.895,11 17,10.105 17,9 C17,7.896 17.895,7 19,7 C20.105,7 21,7.896 21,9"/><path id="Fill-19" fill="#38454F" d="M27,9 C27,10.105 26.105,11 25,11 C23.895,11 23,10.105 23,9 C23,7.896 23.895,7 25,7 C26.105,7 27,7.896 27,9"/><path id="Fill-20" fill="#38454F" d="M33,9 C33,10.105 32.105,11 31,11 C29.895,11 29,10.105 29,9 C29,7.896 29.895,7 31,7 C32.105,7 33,7.896 33,9"/><path id="Fill-21" fill="#38454F" d="M39,9 C39,10.105 38.105,11 37,11 C35.895,11 35,10.105 35,9 C35,7.896 35.895,7 37,7 C38.105,7 39,7.896 39,9"/><path id="Fill-22" fill="#B0B6BB" d="M37,0 C35.87,0 34.838,0.391 34,1.026 C34.534,1.43 34.979,1.937 35.315,2.52 C35.796,2.192 36.376,2 37,2 C38.654,2 40,3.346 40,5 C40,6.654 38.654,8 37,8 C36.447,8 36,8.447 36,9 C36,9.553 36.447,10 37,10 C39.757,10 42,7.757 42,5 C42,2.243 39.757,0 37,0"/><path id="Fill-23" fill="#839494" d="M32.685,2.52 C32.261,3.254 32,4.094 32,5 L34,5 C34,3.97 33.478,3.06 32.685,2.52"/><path id="Fill-24" fill="#839494" d="M26.685,2.52 C26.261,3.254 26,4.094 26,5 L28,5 C28,3.97 27.478,3.06 26.685,2.52"/><path id="Fill-25" fill="#B0B6BB" d="M35.315,2.52 C34.979,1.937 34.534,1.43 34,1.026 C33.162,0.391 32.13,0 31,0 C29.87,0 28.838,0.391 28,1.026 C28.534,1.43 28.979,1.937 29.315,2.52 C29.796,2.192 30.376,2 31,2 C31.624,2 32.204,2.192 32.685,2.52 C33.478,3.06 34,3.97 34,5 C34,6.654 32.654,8 31,8 C30.447,8 30,8.447 30,9 C30,9.553 30.447,10 31,10 C33.757,10 36,7.757 36,5 C36,4.094 35.739,3.254 35.315,2.52"/><path id="Fill-26" fill="#839494" d="M20.685,2.52 C20.261,3.254 20,4.094 20,5 L22,5 C22,3.97 21.478,3.06 20.685,2.52"/><path id="Fill-27" fill="#B0B6BB" d="M29.315,2.52 C28.979,1.937 28.534,1.43 28,1.026 C27.162,0.391 26.13,0 25,0 C23.87,0 22.838,0.391 22,1.026 C22.534,1.43 22.979,1.937 23.315,2.52 C23.796,2.192 24.376,2 25,2 C25.624,2 26.204,2.192 26.685,2.52 C27.478,3.06 28,3.97 28,5 C28,6.654 26.654,8 25,8 C24.447,8 24,8.447 24,9 C24,9.553 24.447,10 25,10 C27.757,10 30,7.757 30,5 C30,4.094 29.739,3.254 29.315,2.52"/><path id="Fill-28" fill="#B0B6BB" d="M23.315,2.52 C22.979,1.937 22.534,1.43 22,1.026 C21.162,0.391 20.13,0 19,0 C16.243,0 14,2.243 14,5 L16,5 C16,3.346 17.346,2 19,2 C19.624,2 20.204,2.192 20.685,2.52 C21.478,3.06 22,3.97 22,5 C22,6.654 20.654,8 19,8 C18.447,8 18,8.447 18,9 C18,9.553 18.447,10 19,10 C21.757,10 24,7.757 24,5 C24,4.094 23.739,3.254 23.315,2.52"/><path id="Fill-1653" fill="#556080" d="M18,51 C17.448,51 17,50.553 17,50 L17,24 C17,23.447 17.448,23 18,23 C18.552,23 19,23.447 19,24 L19,50 C19,50.553 18.552,51 18,51"/><path id="Fill-1654" fill="#556080" d="M22,51 L14,51 C13.448,51 13,50.553 13,50 C13,49.448 13.448,49 14,49 L22,49 C22.552,49 23,49.448 23,50 C23,50.553 22.552,51 22,51"/><path id="Fill-1655" fill="#556080" d="M12,31 C11.744,31 11.488,30.902 11.293,30.707 C10.902,30.316 10.902,29.684 11.293,29.293 L17.293,23.293 C17.684,22.903 18.316,22.903 18.707,23.293 C19.098,23.684 19.098,24.316 18.707,24.707 L12.707,30.707 C12.512,30.902 12.256,31 12,31"/><path id="Fill-1656" fill="#556080" d="M37,37 C33.14,37 30,33.86 30,30 C30,26.141 33.14,23 37,23 C40.86,23 44,26.141 44,30 C44,33.86 40.86,37 37,37 L37,37 Z M37,25 C34.243,25 32,27.243 32,30 C32,32.757 34.243,35 37,35 C39.757,35 42,32.757 42,30 C42,27.243 39.757,25 37,25 L37,25 Z"/><path id="Fill-1657" fill="#556080" d="M37,51 C33.14,51 30,47.859 30,44 C30,43.448 30.448,43 31,43 C31.552,43 32,43.448 32,44 C32,46.757 34.243,49 37,49 C39.757,49 42,46.757 42,44 L42,30 C42,29.447 42.448,29 43,29 C43.552,29 44,29.447 44,30 L44,44 C44,47.859 40.86,51 37,51"/></g></g></g></svg>