<?xml version="1.0" encoding="UTF-8" standalone="no"?>
<svg width="58px" height="50px" viewBox="0 0 58 50" version="1.1" xmlns="http://www.w3.org/2000/svg" xmlns:xlink="http://www.w3.org/1999/xlink" xmlns:sketch="http://www.bohemiancoding.com/sketch/ns">
    <!-- Generator: Sketch 3.2.2 (9983) - http://www.bohemiancoding.com/sketch -->
    <title>1 - Briefcase (Flat)</title>
    <desc>Created with Sketch.</desc>
    <defs></defs>
    <g id="Page-1" stroke="none" stroke-width="1" fill="none" fill-rule="evenodd" sketch:type="MSPage">
        <g id="1---Briefcase-(Flat)" sketch:type="MSLayerGroup" transform="translate(0.000000, 1.000000)">
            <path d="M19,12 L19,2.207 C19,0.988 19.988,0 21.206,0 L36.794,0 C38.012,0 39,0.988 39,2.207 L39,12" id="Stroke-5" stroke="#556080" stroke-width="2" stroke-linecap="round" sketch:type="MSShapeGroup"></path>
            <path d="M55.99,49 L2.01,49 C0.9,49 0,48.1 0,46.99 L0,11.01 C0,9.9 0.9,9 2.01,9 L55.99,9 C57.1,9 58,9.9 58,11.01 L58,46.99 C58,48.1 57.1,49 55.99,49" id="Fill-1740" fill="#A97C50" sketch:type="MSShapeGroup"></path>
            <path d="M8,9 L2.01,9 C0.9,9 0,9.9 0,11.01 L0,46.99 C0,48.1 0.9,49 2.01,49 L8,49 L8,9" id="Fill-3170" fill="#997046" sketch:type="MSShapeGroup"></path>
            <path d="M55.99,9 L50,9 L50,49 L55.99,49 C57.1,49 58,48.1 58,46.99 L58,11.01 C58,9.9 57.1,9 55.99,9" id="Fill-3171" fill="#997046" sketch:type="MSShapeGroup"></path>
            <path d="M7,9 L9,9 L9,49 L7,49 L7,9 Z" id="Fill-3172" fill="#D1A074" sketch:type="MSShapeGroup"></path>
            <path d="M49,9 L51,9 L51,49 L49,49 L49,9 Z" id="Fill-3173" fill="#D1A074" sketch:type="MSShapeGroup"></path>
            <path d="M5,6 L13,6 L13,9 L5,9 L5,6 Z" id="Fill-3174" fill="#C7CBC7" sketch:type="MSShapeGroup"></path>
            <path d="M45,6 L53,6 L53,9 L45,9 L45,6 Z" id="Fill-3175" fill="#C7CBC7" sketch:type="MSShapeGroup"></path>
        </g>
    </g>
</svg>