<?xml version="1.0" encoding="UTF-8" standalone="no"?>
<svg width="60px" height="60px" viewBox="0 0 60 60" version="1.1" xmlns="http://www.w3.org/2000/svg" xmlns:xlink="http://www.w3.org/1999/xlink" xmlns:sketch="http://www.bohemiancoding.com/sketch/ns">
    <!-- Generator: Sketch 3.2.2 (9983) - http://www.bohemiancoding.com/sketch -->
    <title>263 - CD (Flat)</title>
    <desc>Created with Sketch.</desc>
    <defs></defs>
    <g id="Page-1" stroke="none" stroke-width="1" fill="none" fill-rule="evenodd" sketch:type="MSPage">
        <g id="263---CD-(Flat)" sketch:type="MSLayerGroup">
            <path d="M30,1 C13.984,1 1,13.984 1,30 C1,46.016 13.984,59 30,59 C46.016,59 59,46.016 59,30 C59,13.984 46.016,1 30,1 L30,1 Z M30,39 C25.03,39 21,34.971 21,30 C21,25.03 25.03,21 30,21 C34.971,21 39,25.03 39,30 C39,34.971 34.971,39 30,39 L30,39 Z" id="Fill-237" fill="#E8EDEE" sketch:type="MSShapeGroup"></path>
            <path d="M4.373,16.425 L19.181,24.52 C19.716,23.543 20.389,22.622 21.216,21.795 C22.043,20.968 22.965,20.294 23.942,19.76 L15.738,4.753 C10.926,7.477 6.97,11.533 4.373,16.425" id="Fill-2594" fill="#BDCAEF" sketch:type="MSShapeGroup"></path>
            <path d="M55.259,44.243 L40.182,36.001 C39.648,36.978 38.975,37.899 38.148,38.726 C37.32,39.553 36.399,40.227 35.422,40.761 L43.555,55.638 C48.462,53.037 52.531,49.07 55.259,44.243" id="Fill-2595" fill="#BDCAEF" sketch:type="MSShapeGroup"></path>
            <path d="M30,15 C21.716,15 15,21.716 15,30 C15,38.284 21.716,45 30,45 C38.284,45 45,38.284 45,30 C45,21.716 38.284,15 30,15 L30,15 Z M30,37.5 C25.858,37.5 22.5,34.142 22.5,30 C22.5,25.858 25.858,22.5 30,22.5 C34.142,22.5 37.5,25.858 37.5,30 C37.5,34.142 34.142,37.5 30,37.5 L30,37.5 Z" id="Fill-2596" fill="#FFFFFF" sketch:type="MSShapeGroup"></path>
            <path d="M30,19.167 C24.017,19.167 19.167,24.017 19.167,30 C19.167,35.983 24.017,40.833 30,40.833 C35.983,40.833 40.833,35.983 40.833,30 C40.833,24.017 35.983,19.167 30,19.167 L30,19.167 Z M30,35.833 C26.778,35.833 24.167,33.222 24.167,30 C24.167,26.779 26.778,24.167 30,24.167 C33.222,24.167 35.833,26.779 35.833,30 C35.833,33.222 33.222,35.833 30,35.833 L30,35.833 Z" id="Fill-2597" fill="#E8EDEE" sketch:type="MSShapeGroup"></path>
            <path d="M30,0 C13.458,0 0,13.458 0,30 C0,46.542 13.458,60 30,60 C46.542,60 60,46.542 60,30 C60,13.458 46.542,0 30,0 L30,0 Z M30,58 C14.56,58 2,45.439 2,30 C2,14.561 14.56,2 30,2 C45.439,2 58,14.561 58,30 C58,45.439 45.439,58 30,58 L30,58 Z" id="Fill-2598" fill="#7383BF" sketch:type="MSShapeGroup"></path>
        </g>
    </g>
</svg>