<?xml version="1.0" encoding="UTF-8" standalone="no"?>
<svg width="56px" height="56px" viewBox="0 0 56 56" version="1.1" xmlns="http://www.w3.org/2000/svg" xmlns:xlink="http://www.w3.org/1999/xlink" xmlns:sketch="http://www.bohemiancoding.com/sketch/ns">
    <!-- Generator: Sketch 3.2.2 (9983) - http://www.bohemiancoding.com/sketch -->
    <title>265 - CD (Flat)</title>
    <desc>Created with Sketch.</desc>
    <defs></defs>
    <g id="Page-1" stroke="none" stroke-width="1" fill="none" fill-rule="evenodd" sketch:type="MSPage">
        <g id="265---CD-(Flat)" sketch:type="MSLayerGroup" transform="translate(-1.000000, 0.000000)">
            <path d="M48.799,8.201 C37.864,-2.733 20.136,-2.733 9.201,8.201 C-1.734,19.136 -1.734,36.864 9.201,47.799 C20.136,58.734 37.864,58.734 48.799,47.799 C59.734,36.864 59.734,19.136 48.799,8.201 L48.799,8.201 Z M33.95,32.95 C31.216,35.684 26.784,35.684 24.05,32.95 C21.317,30.216 21.317,25.784 24.05,23.05 C26.784,20.317 31.216,20.317 33.95,23.05 C36.683,25.784 36.683,30.216 33.95,32.95 L33.95,32.95 Z" id="Fill-238" fill="#424A60" sketch:type="MSShapeGroup"></path>
            <path d="M36.778,20.222 C32.482,15.926 25.518,15.926 21.222,20.222 C16.926,24.518 16.926,31.482 21.222,35.778 C25.518,40.074 32.482,40.074 36.778,35.778 C41.074,31.482 41.074,24.518 36.778,20.222 L36.778,20.222 Z M31.121,30.122 C29.95,31.293 28.05,31.293 26.879,30.122 C25.707,28.95 25.707,27.05 26.879,25.879 C28.05,24.707 29.95,24.707 31.121,25.879 C32.293,27.05 32.293,28.95 31.121,30.122 L31.121,30.122 Z" id="Fill-728" fill="#E8EDEE" sketch:type="MSShapeGroup"></path>
            <path d="M36.778,35.778 C36.018,36.538 35.172,37.157 34.274,37.648 L42.431,52.568 C44.715,51.318 46.865,49.733 48.799,47.799 C50.733,45.865 52.318,43.715 53.568,41.431 L38.648,33.274 C38.157,34.172 37.538,35.018 36.778,35.778" id="Fill-729" fill="#7383BF" sketch:type="MSShapeGroup"></path>
            <path d="M21.222,20.222 C21.982,19.462 22.828,18.843 23.726,18.352 L15.569,3.432 C13.285,4.682 11.135,6.267 9.201,8.201 C7.267,10.135 5.682,12.285 4.432,14.57 L19.352,22.726 C19.843,21.829 20.462,20.982 21.222,20.222" id="Fill-730" fill="#7383BF" sketch:type="MSShapeGroup"></path>
        </g>
    </g>
</svg>