<svg xmlns="http://www.w3.org/2000/svg" xmlns:xlink="http://www.w3.org/1999/xlink" width="45" height="58" version="1.1" viewBox="0 0 45 58"><title>48 - Checklist (Flat)</title><desc>Created with Sketch.</desc><g id="Page-1" fill="none" fill-rule="evenodd" stroke="none" stroke-width="1"><g id="Icons" transform="translate(-368.000000, -4318.000000)"><g id="48---Checklist-(Flat)" transform="translate(368.000000, 4318.000000)"><path id="Fill-1630" fill="#EDEBDA" d="M45,14 L31,0 L0,0 L0,58 L45,58 L45,14"/><path id="Fill-2161" fill="#CEC9AE" d="M31,0 L31,14 L45,14 L31,0"/><path id="Fill-2162" fill="#CEC9AE" d="M35,22 L19,22 C18.448,22 18,21.553 18,21 C18,20.448 18.448,20 19,20 L35,20 C35.552,20 36,20.448 36,21 C36,21.553 35.552,22 35,22"/><path id="Fill-2163" fill="#13A085" d="M11,23 C10.743,23 10.487,22.901 10.293,22.707 L8.293,20.707 C7.902,20.317 7.902,19.684 8.293,19.293 C8.684,18.902 9.316,18.902 9.707,19.293 L11.074,20.66 L15.375,17.219 C15.806,16.874 16.436,16.944 16.781,17.375 C17.126,17.807 17.056,18.436 16.624,18.781 L11.625,22.781 C11.441,22.928 11.22,23 11,23"/><path id="Fill-2164" fill="#CEC9AE" d="M35,33 L19,33 C18.448,33 18,32.553 18,32 C18,31.447 18.448,31 19,31 L35,31 C35.552,31 36,31.447 36,32 C36,32.553 35.552,33 35,33"/><path id="Fill-2165" fill="#13A085" d="M11,34 C10.743,34 10.487,33.902 10.293,33.707 L8.293,31.707 C7.902,31.316 7.902,30.684 8.293,30.293 C8.684,29.903 9.316,29.903 9.707,30.293 L11.074,31.66 L15.375,28.219 C15.806,27.874 16.436,27.943 16.781,28.375 C17.126,28.807 17.056,29.436 16.624,29.781 L11.625,33.781 C11.441,33.928 11.22,34 11,34"/><path id="Fill-2166" fill="#CEC9AE" d="M35,44 L19,44 C18.448,44 18,43.553 18,43 C18,42.447 18.448,42 19,42 L35,42 C35.552,42 36,42.447 36,43 C36,43.553 35.552,44 35,44"/><path id="Fill-2167" fill="#13A085" d="M11,45 C10.743,45 10.487,44.902 10.293,44.707 L8.293,42.707 C7.902,42.317 7.902,41.684 8.293,41.293 C8.684,40.902 9.316,40.902 9.707,41.293 L11.074,42.66 L15.375,39.219 C15.806,38.874 16.436,38.943 16.781,39.375 C17.126,39.807 17.056,40.435 16.624,40.781 L11.625,44.781 C11.441,44.928 11.22,45 11,45"/></g></g></g></svg>