<?xml version="1.0" encoding="UTF-8" standalone="no"?>
<svg width="60px" height="60px" viewBox="0 0 60 60" version="1.1" xmlns="http://www.w3.org/2000/svg" xmlns:xlink="http://www.w3.org/1999/xlink" xmlns:sketch="http://www.bohemiancoding.com/sketch/ns">
    <!-- Generator: Sketch 3.2.2 (9983) - http://www.bohemiancoding.com/sketch -->
    <title>80 - Clock (Flat)</title>
    <desc>Created with Sketch.</desc>
    <defs></defs>
    <g id="Page-1" stroke="none" stroke-width="1" fill="none" fill-rule="evenodd" sketch:type="MSPage">
        <g id="Icons" sketch:type="MSArtboardGroup" transform="translate(-120.000000, -3957.000000)">
            <g id="80---Clock-(Flat)" sketch:type="MSLayerGroup" transform="translate(120.000000, 3957.000000)">
                <path d="M0,0 L60,0 L60,60 L0,60 L0,0 Z" id="Fill-1400" fill="#E8EDEE" sketch:type="MSShapeGroup"></path>
                <path d="M4,4 L56,4 L56,56 L4,56 L4,4 Z M0,60 L60,60 L60,0 L0,0 L0,60 Z" id="Fill-1410" fill="#556080" sketch:type="MSShapeGroup"></path>
                <path d="M30,7 C29.448,7 29,7.447 29,8 L29,9 C29,9.553 29.448,10 30,10 C30.552,10 31,9.553 31,9 L31,8 C31,7.447 30.552,7 30,7" id="Fill-2121" fill="#7383BF" sketch:type="MSShapeGroup"></path>
                <path d="M30,50 C29.448,50 29,50.448 29,51 L29,52 C29,52.553 29.448,53 30,53 C30.552,53 31,52.553 31,52 L31,51 C31,50.448 30.552,50 30,50" id="Fill-2122" fill="#7383BF" sketch:type="MSShapeGroup"></path>
                <path d="M52,29 L51,29 C50.448,29 50,29.447 50,30 C50,30.553 50.448,31 51,31 L52,31 C52.552,31 53,30.553 53,30 C53,29.447 52.552,29 52,29" id="Fill-2123" fill="#7383BF" sketch:type="MSShapeGroup"></path>
                <path d="M10,30 C10,29.447 9.552,29 9,29 L8,29 C7.448,29 7,29.447 7,30 C7,30.553 7.448,31 8,31 L9,31 C9.552,31 10,30.553 10,30" id="Fill-2124" fill="#7383BF" sketch:type="MSShapeGroup"></path>
                <path d="M50.293,10.707 C50.549,10.707 50.805,10.609 51,10.414 L51.707,9.707 C52.098,9.316 52.098,8.684 51.707,8.293 C51.316,7.902 50.684,7.902 50.293,8.293 L49.586,9 C49.195,9.391 49.195,10.024 49.586,10.414 C49.781,10.609 50.037,10.707 50.293,10.707" id="Fill-2125" fill="#7383BF" sketch:type="MSShapeGroup"></path>
                <path d="M9.146,49.44 L8.439,50.147 C8.049,50.537 8.049,51.17 8.439,51.561 C8.635,51.756 8.891,51.854 9.146,51.854 C9.402,51.854 9.658,51.756 9.853,51.561 L10.56,50.854 C10.951,50.463 10.951,49.83 10.56,49.44 C10.17,49.049 9.537,49.049 9.146,49.44" id="Fill-2126" fill="#7383BF" sketch:type="MSShapeGroup"></path>
                <path d="M50.854,49.44 C50.463,49.049 49.83,49.049 49.439,49.44 C49.049,49.83 49.049,50.463 49.439,50.854 L50.146,51.561 C50.342,51.756 50.598,51.854 50.854,51.854 C51.109,51.854 51.365,51.756 51.56,51.561 C51.951,51.17 51.951,50.537 51.56,50.147 L50.854,49.44" id="Fill-2127" fill="#7383BF" sketch:type="MSShapeGroup"></path>
                <path d="M8.793,10.207 C8.988,10.403 9.244,10.5 9.5,10.5 C9.756,10.5 10.012,10.403 10.207,10.207 C10.598,9.817 10.598,9.184 10.207,8.793 L9.5,8.086 C9.109,7.696 8.477,7.696 8.086,8.086 C7.695,8.477 7.695,9.109 8.086,9.5 L8.793,10.207" id="Fill-2128" fill="#7383BF" sketch:type="MSShapeGroup"></path>
                <path d="M27,30 L19,30" id="Stroke-2129" stroke="#F0CE49" stroke-width="2" stroke-linecap="round" stroke-linejoin="round" sketch:type="MSShapeGroup"></path>
                <path d="M30,27 L30,16 L30,27 Z M27,30 C27,31.657 28.343,33 30,33 C31.657,33 33,31.657 33,30 C33,28.343 31.657,27 30,27 C28.343,27 27,28.343 27,30 L27,30 Z" id="Stroke-2130" stroke="#556080" stroke-width="2" stroke-linecap="round" stroke-linejoin="round" sketch:type="MSShapeGroup"></path>
            </g>
        </g>
    </g>
</svg>