<svg xmlns="http://www.w3.org/2000/svg" xmlns:xlink="http://www.w3.org/1999/xlink" width="58" height="59" version="1.1" viewBox="0 0 58 59"><title>79 - Clock (Flat)</title><desc>Created with Sketch.</desc><g id="Page-1" fill="none" fill-rule="evenodd" stroke="none" stroke-width="1"><g id="Icons" transform="translate(-241.000000, -3958.000000)"><g id="79---Clock-(Flat)" transform="translate(241.000000, 3958.000000)"><path id="Fill-1233" fill="#E8EDEE" d="M58,29.121 C58,45.138 45.016,58.121 29,58.121 C12.984,58.121 0,45.138 0,29.121 C0,13.105 12.984,0.122 29,0.122 C45.016,0.122 58,13.105 58,29.121"/><path id="Fill-1234" fill="#424A60" d="M29,4.121 C42.785,4.121 54,15.336 54,29.121 C54,42.907 42.785,54.122 29,54.122 C15.215,54.122 4,42.907 4,29.121 C4,15.336 15.215,4.121 29,4.121 M29,0.122 C12.984,0.122 0,13.105 0,29.121 C0,45.138 12.984,58.121 29,58.121 C45.016,58.121 58,45.138 58,29.121 C58,13.105 45.016,0.122 29,0.122"/><path id="Fill-1392" fill="#7383BF" d="M29,6 C28.448,6 28,6.447 28,7 L28,8 C28,8.553 28.448,9 29,9 C29.552,9 30,8.553 30,8 L30,7 C30,6.447 29.552,6 29,6"/><path id="Fill-1393" fill="#7383BF" d="M29,49 C28.448,49 28,49.448 28,50 L28,51 C28,51.553 28.448,52 29,52 C29.552,52 30,51.553 30,51 L30,50 C30,49.448 29.552,49 29,49"/><path id="Fill-1394" fill="#7383BF" d="M51,28 L50,28 C49.448,28 49,28.447 49,29 C49,29.553 49.448,30 50,30 L51,30 C51.552,30 52,29.553 52,29 C52,28.447 51.552,28 51,28"/><path id="Fill-1395" fill="#7383BF" d="M8,28 L7,28 C6.448,28 6,28.447 6,29 C6,29.553 6.448,30 7,30 L8,30 C8.552,30 9,29.553 9,29 C9,28.447 8.552,28 8,28"/><path id="Fill-1396" fill="#7383BF" d="M43.849,12.737 L43.142,13.443 C42.751,13.834 42.751,14.467 43.142,14.858 C43.337,15.053 43.593,15.151 43.849,15.151 C44.105,15.151 44.361,15.053 44.556,14.858 L45.263,14.151 C45.654,13.76 45.654,13.127 45.263,12.737 C44.873,12.346 44.24,12.346 43.849,12.737"/><path id="Fill-1397" fill="#7383BF" d="M13.444,43.143 L12.737,43.85 C12.346,44.24 12.346,44.873 12.737,45.264 C12.932,45.459 13.188,45.557 13.444,45.557 C13.7,45.557 13.956,45.459 14.151,45.264 L14.858,44.557 C15.248,44.166 15.248,43.533 14.858,43.143 C14.467,42.752 13.834,42.752 13.444,43.143"/><path id="Fill-1398" fill="#7383BF" d="M44.556,43.143 C44.165,42.752 43.533,42.752 43.142,43.143 C42.751,43.533 42.751,44.166 43.142,44.557 L43.849,45.264 C44.044,45.459 44.3,45.557 44.556,45.557 C44.812,45.557 45.068,45.459 45.263,45.264 C45.654,44.873 45.654,44.24 45.263,43.85 L44.556,43.143"/><path id="Fill-1399" fill="#7383BF" d="M14.151,12.737 C13.76,12.346 13.127,12.346 12.737,12.737 C12.346,13.127 12.346,13.76 12.737,14.151 L13.444,14.858 C13.639,15.053 13.895,15.151 14.151,15.151 C14.407,15.151 14.663,15.053 14.858,14.858 C15.248,14.467 15.248,13.834 14.858,13.443 L14.151,12.737"/><path id="Stroke-2120" stroke="#424A60" stroke-linecap="round" stroke-linejoin="round" stroke-width="2" d="M26,29 L18,29 L26,29 Z M29,26 L29,15 L29,26 Z M26,29 C26,30.657 27.343,32 29,32 C30.657,32 32,30.657 32,29 C32,27.343 30.657,26 29,26 C27.343,26 26,27.343 26,29 L26,29 Z"/></g></g></g></svg>