<svg xmlns="http://www.w3.org/2000/svg" enable-background="new 0 0 48 48" version="1" viewBox="0 0 48 48"><path fill="#FF5722" d="M6,10v28c0,2.2,1.8,4,4,4h28c2.2,0,4-1.8,4-4V10c0-2.2-1.8-4-4-4H10C7.8,6,6,7.8,6,10z"/><g fill="#BF360C"><rect width="36" height="2" x="6" y="35"/><rect width="36" height="2" x="6" y="31"/><path d="M6.1,39c0.2,0.8,0.6,1.5,1.2,2h33.2c0.6-0.5,1-1.2,1.2-2H6.1z"/><path d="M6.1,9h35.7c-0.2-0.8-0.6-1.5-1.2-2H7.4C6.8,7.5,6.3,8.2,6.1,9z"/><rect width="36" height="2" x="6" y="23"/><rect width="36" height="2" x="6" y="27"/><rect width="36" height="2" x="6" y="15"/><rect width="36" height="2" x="6" y="11"/><rect width="36" height="2" x="6" y="19"/></g><g fill="#FF8A65"><rect width="2" height="5" x="27" y="6"/><rect width="2" height="6" x="27" y="13"/><rect width="2" height="6" x="27" y="29"/><rect width="2" height="1" x="31" y="6"/><rect width="2" height="6" x="19" y="29"/><rect width="2" height="6" x="31" y="9"/><rect width="2" height="1" x="23" y="6"/><rect width="2" height="6" x="23" y="25"/><rect width="2" height="6" x="23" y="9"/><rect width="2" height="6" x="19" y="21"/><rect width="2" height="6" x="23" y="17"/><rect width="2" height="6" x="23" y="33"/><rect width="2" height="6" x="27" y="21"/><rect width="2" height="6" x="39" y="33"/><rect width="2" height="6" x="39" y="17"/><rect width="2" height="6" x="39" y="25"/><path d="M39,6.1V7h1.6C40.2,6.6,39.6,6.3,39,6.1z"/><rect width="2" height="6" x="31" y="17"/><path d="M40.6,41H39v0.9C39.6,41.7,40.2,41.4,40.6,41z"/><rect width="2" height="6" x="35" y="13"/><rect width="2" height="6" x="31" y="33"/><rect width="2" height="6" x="35" y="29"/><rect width="2" height="6" x="39" y="9"/><rect width="2" height="6" x="35" y="21"/><rect width="2" height="6" x="31" y="25"/><rect width="2" height="5" x="35" y="37"/><rect width="2" height="5" x="35" y="6"/><rect width="2" height="1" x="31" y="41"/><rect width="2" height="1" x="23" y="41"/><rect width="2" height="5" x="27" y="37"/><rect width="2" height="5" x="19" y="37"/><rect width="2" height="6" x="7" y="17"/><path d="M9,41H7.4c0.5,0.4,1,0.7,1.6,0.9V41z"/><path d="M7.4,7H9V6.1C8.4,6.3,7.8,6.6,7.4,7z"/><rect width="2" height="6" x="7" y="33"/><rect width="2" height="6" x="7" y="25"/><rect width="2" height="6" x="7" y="9"/><rect width="2" height="6" x="11" y="29"/><rect width="2" height="6" x="15" y="17"/><rect width="2" height="6" x="15" y="33"/><rect width="2" height="6" x="15" y="9"/><rect width="2" height="1" x="15" y="6"/><rect width="2" height="5" x="19" y="6"/><rect width="2" height="6" x="15" y="25"/><rect width="2" height="1" x="15" y="41"/><rect width="2" height="6" x="11" y="21"/><rect width="2" height="5" x="11" y="6"/><rect width="2" height="5" x="11" y="37"/><rect width="2" height="6" x="19" y="13"/><rect width="2" height="6" x="11" y="13"/></g></svg>