<svg xmlns="http://www.w3.org/2000/svg" xmlns:xlink="http://www.w3.org/1999/xlink" width="60" height="51" version="1.1" viewBox="0 0 60 51"><title>169 - Cloud Upload (Flat)</title><desc>Created with Sketch.</desc><g id="Page-1" fill="none" fill-rule="evenodd" stroke="none" stroke-width="1"><g id="169---Cloud-Upload-(Flat)" transform="translate(1.000000, 1.000000)"><path id="Fill-2635" fill="#7FABDA" d="M49.003,16 C48.889,7.301 41.811,0 33.084,0 C27.525,0 22.306,3.006 19.424,7.337 C18.157,6.494 16.636,6 15,6 C10.582,6 7,9.582 7,14 C7,14.153 7.014,14.303 7.023,14.454 C7.013,14.637 7,14.82 7,15 C3.011,16.912 0,21.457 0,26.155 C0,32.67 5.33,38 11.845,38 L36.352,38 C36.49,38 36.624,37.984 36.761,37.979 C36.897,37.985 37.031,38 37.169,38 L46.972,38 C53.037,38 58,33.037 58,26.972 C58,21.601 54.106,16.962 49.003,16 L49.003,16 Z"/><path id="Stroke-2636" stroke="#7383BF" stroke-linecap="round" stroke-width="2" d="M49.003,16 C48.889,7.301 41.811,0 33.084,0 C27.525,0 22.306,3.006 19.424,7.337 C18.157,6.494 16.636,6 15,6 C10.582,6 7,9.582 7,14 C7,14.153 7.014,14.303 7.023,14.454 C7.013,14.637 7,14.82 7,15 C3.011,16.912 0,21.457 0,26.155 C0,32.67 5.33,38 11.845,38 L36.352,38 C36.49,38 36.624,37.984 36.761,37.979 C36.897,37.985 37.031,38 37.169,38 L46.972,38 C53.037,38 58,33.037 58,26.972 C58,21.601 54.106,16.962 49.003,16 L49.003,16 Z"/><path id="Fill-2637" fill="#7FABDA" d="M49.003,16 C49.003,16 46.469,15.625 44,16"/><path id="Stroke-2638" stroke="#7383BF" stroke-linecap="round" stroke-width="2" d="M49.003,16 C49.003,16 46.469,15.625 44,16"/><path id="Fill-2639" fill="#7FABDA" d="M7,14 C7,9.582 10.582,6 15,6 C19.418,6 23,9.582 23,14"/><path id="Stroke-2640" stroke="#7383BF" stroke-linecap="round" stroke-width="2" d="M7,14 C7,9.582 10.582,6 15,6 C19.418,6 23,9.582 23,14"/><path id="Path" stroke="#424A60" stroke-linecap="round" stroke-width="2" d="M30.028,49 L30.028,26"/><path id="Path" stroke="#424A60" stroke-linecap="round" stroke-width="2" d="M30.028,26 L38.028,34"/><path id="Path" stroke="#424A60" stroke-linecap="round" stroke-width="2" d="M22.028,34 L30.028,26"/></g></g></svg>