<?xml version="1.0" encoding="UTF-8" standalone="no"?>
<svg width="58px" height="58px" viewBox="0 0 58 58" version="1.1" xmlns="http://www.w3.org/2000/svg" xmlns:xlink="http://www.w3.org/1999/xlink" xmlns:sketch="http://www.bohemiancoding.com/sketch/ns">
    <!-- Generator: Sketch 3.2.2 (9983) - http://www.bohemiancoding.com/sketch -->
    <title>129 - Compose (Flat)</title>
    <desc>Created with Sketch.</desc>
    <defs></defs>
    <g id="Page-1" stroke="none" stroke-width="1" fill="none" fill-rule="evenodd" sketch:type="MSPage">
        <g id="129---Compose-(Flat)" sketch:type="MSLayerGroup">
            <path d="M58,29 C58,45.017 45.016,58 29,58 C12.984,58 0,45.017 0,29 C0,12.984 12.984,0 29,0 C45.016,0 58,12.984 58,29" id="Fill-165" fill="#23A24D" sketch:type="MSShapeGroup"></path>
            <path d="M29,0 C21.243,0 14.204,3.052 9,8.011 L9,26 L28.951,50.993 C28.971,51.01 29,50.995 29,50.97 C29,50.995 29.029,51.01 29.049,50.993 L49,26 L49,8.011 C43.796,3.052 36.757,0 29,0" id="Fill-166" fill="#ECD6BD" sketch:type="MSShapeGroup"></path>
            <path d="M29,35 C25.252,35 21.907,36.72 19.706,39.412 L28.951,50.993 C28.971,51.01 29,50.995 29,50.97 C29,50.995 29.029,51.01 29.049,50.993 L38.294,39.412 C36.093,36.72 32.748,35 29,35" id="Fill-167" fill="#4C4C4C" sketch:type="MSShapeGroup"></path>
            <path d="M29,0 C25.484,0 22.117,0.633 19,1.78 L19,18 L28.951,25.961 C28.971,25.977 29,25.963 29,25.937 C29,25.963 29.029,25.977 29.049,25.961 L39,18 L39,1.78 C35.883,0.633 32.516,0 29,0" id="Fill-3014" fill="#ECBA16" sketch:type="MSShapeGroup"></path>
            <path d="M9.432,25.654 L19,18 L19,1.78 C15.241,3.164 11.845,5.3 9,8.011 L9,25.446 C9,25.67 9.258,25.793 9.432,25.654" id="Fill-3015" fill="#ED8A19" sketch:type="MSShapeGroup"></path>
            <path d="M39,18 L48.568,25.654 C48.742,25.793 49,25.67 49,25.446 L49,8.011 C46.155,5.3 42.759,3.164 39,1.78 L39,18" id="Fill-3019" fill="#ED8A19" sketch:type="MSShapeGroup"></path>
        </g>
    </g>
</svg>