<svg xmlns="http://www.w3.org/2000/svg" xmlns:xlink="http://www.w3.org/1999/xlink" width="48" height="58" version="1.1" viewBox="0 0 48 58"><title>313 - Compass (Flat)</title><desc>Created with Sketch.</desc><g id="Page-1" fill="none" fill-rule="evenodd" stroke="none" stroke-width="1"><g id="Icons" transform="translate(-966.000000, -1078.000000)"><g id="313---Compass-(Flat)" transform="translate(966.000000, 1079.000000)"><path id="Fill-598" fill="#0F81E0" d="M48,33 C48,46.255 37.255,57 24,57 C10.745,57 0,46.255 0,33 C0,19.745 10.745,9 24,9 C37.255,9 48,19.745 48,33"/><path id="Fill-599" fill="#FFF" d="M27,3 C27,4.657 25.657,6 24,6 C22.343,6 21,4.657 21,3 C21,1.343 22.343,0 24,0 C25.657,0 27,1.343 27,3 L27,3 Z"/><path id="Stroke-600" stroke="#0F81E0" stroke-linecap="round" stroke-width="2" d="M27,3 C27,4.657 25.657,6 24,6 C22.343,6 21,4.657 21,3 C21,1.343 22.343,0 24,0 C25.657,0 27,1.343 27,3 L27,3 Z"/><path id="Stroke-604" stroke="#0F81E0" stroke-linecap="round" stroke-width="2" d="M24,6 L24,9"/><path id="Fill-1843" fill="#FFF" d="M11.272,45.728 L19.757,28.758 L28.243,37.243 L11.272,45.728"/><path id="Fill-1844" fill="#D75A4A" d="M36.728,20.272 L19.757,28.758 L28.243,37.243 L36.728,20.272"/></g></g></g></svg>