<svg xmlns="http://www.w3.org/2000/svg" xmlns:xlink="http://www.w3.org/1999/xlink" width="60" height="57" version="1.1" viewBox="0 0 60 57"><title>177 - Connected Network (Flat)</title><desc>Created with Sketch.</desc><g id="Page-1" fill="none" fill-rule="evenodd" stroke="none" stroke-width="1"><g id="177---Connected-Network-(Flat)"><path id="Fill-1038" fill="#C7CBC7" d="M31.045,56.863 C30.603,56.863 30.2,56.569 30.08,56.122 C29.936,55.589 30.252,55.04 30.785,54.897 C31.037,54.829 31.279,54.729 31.504,54.597 C31.981,54.32 32.593,54.481 32.872,54.957 C33.149,55.435 32.988,56.047 32.511,56.325 C32.133,56.545 31.727,56.714 31.306,56.828 C31.218,56.852 31.131,56.863 31.045,56.863 L31.045,56.863 Z M28.012,56.472 C27.844,56.472 27.673,56.43 27.517,56.34 C27.138,56.123 26.789,55.857 26.479,55.549 C26.087,55.16 26.085,54.526 26.475,54.135 C26.865,53.745 27.498,53.741 27.889,54.131 C28.074,54.315 28.283,54.474 28.51,54.604 C28.989,54.878 29.155,55.489 28.881,55.969 C28.696,56.291 28.359,56.472 28.012,56.472 L28.012,56.472 Z M33.866,54.033 C33.78,54.033 33.694,54.023 33.607,53.999 C33.074,53.857 32.756,53.309 32.899,52.776 C32.966,52.524 33,52.264 33,52 C33,51.448 33.448,50.977 34,50.977 C34.552,50.977 35,51.401 35,51.953 L35,52 C35,52.438 34.943,52.872 34.831,53.291 C34.712,53.739 34.308,54.033 33.866,54.033 L33.866,54.033 Z M26,53.012 C25.448,53.012 25,52.576 25,52.024 L26,52.024 L25,52.022 C25,51.572 25.054,51.147 25.161,50.737 C25.3,50.202 25.846,49.884 26.381,50.022 C26.915,50.161 27.236,50.707 27.097,51.241 C27.033,51.487 27,51.742 27,52 C27,52.553 26.553,53.012 26,53.012 L26,53.012 Z M32.799,50.143 C32.547,50.143 32.294,50.048 32.099,49.856 C31.913,49.674 31.702,49.515 31.473,49.386 C30.993,49.113 30.825,48.503 31.097,48.022 C31.37,47.54 31.977,47.374 32.46,47.646 C32.839,47.862 33.189,48.124 33.5,48.429 C33.894,48.815 33.9,49.448 33.513,49.843 C33.317,50.042 33.059,50.143 32.799,50.143 L32.799,50.143 Z M27.974,49.551 C27.631,49.551 27.297,49.374 27.111,49.058 C26.831,48.581 26.99,47.969 27.466,47.688 C27.843,47.468 28.247,47.296 28.666,47.181 C29.2,47.036 29.75,47.347 29.897,47.879 C30.043,48.411 29.731,48.962 29.199,49.108 C28.947,49.178 28.706,49.281 28.48,49.413 C28.321,49.507 28.146,49.551 27.974,49.551 L27.974,49.551 Z"/><path id="Fill-1039" fill="#C7CBC7" d="M22,53 L21,53 C20.448,53 20,52.553 20,52 C20,51.448 20.448,51 21,51 L22,51 C22.552,51 23,51.448 23,52 C23,52.553 22.552,53 22,53 L22,53 Z M18,53 L17,53 C16.448,53 16,52.553 16,52 C16,51.448 16.448,51 17,51 L18,51 C18.552,51 19,51.448 19,52 C19,52.553 18.552,53 18,53 L18,53 Z M14,53 L13,53 C12.448,53 12,52.553 12,52 C12,51.448 12.448,51 13,51 L14,51 C14.552,51 15,51.448 15,52 C15,52.553 14.552,53 14,53 L14,53 Z M10,53 L9,53 C8.448,53 8,52.553 8,52 C8,51.448 8.448,51 9,51 L10,51 C10.552,51 11,51.448 11,52 C11,52.553 10.552,53 10,53 L10,53 Z M6,53 L5,53 C4.448,53 4,52.553 4,52 C4,51.448 4.448,51 5,51 L6,51 C6.552,51 7,51.448 7,52 C7,52.553 6.552,53 6,53 L6,53 Z M2,53 L1,53 C0.448,53 0,52.553 0,52 C0,51.448 0.448,51 1,51 L2,51 C2.552,51 3,51.448 3,52 C3,52.553 2.552,53 2,53 L2,53 Z"/><path id="Fill-1040" fill="#C7CBC7" d="M59,53 L58,53 C57.448,53 57,52.553 57,52 C57,51.448 57.448,51 58,51 L59,51 C59.552,51 60,51.448 60,52 C60,52.553 59.552,53 59,53 L59,53 Z M55,53 L54,53 C53.448,53 53,52.553 53,52 C53,51.448 53.448,51 54,51 L55,51 C55.552,51 56,51.448 56,52 C56,52.553 55.552,53 55,53 L55,53 Z M51,53 L50,53 C49.448,53 49,52.553 49,52 C49,51.448 49.448,51 50,51 L51,51 C51.552,51 52,51.448 52,52 C52,52.553 51.552,53 51,53 L51,53 Z M47,53 L46,53 C45.448,53 45,52.553 45,52 C45,51.448 45.448,51 46,51 L47,51 C47.552,51 48,51.448 48,52 C48,52.553 47.552,53 47,53 L47,53 Z M43,53 L42,53 C41.448,53 41,52.553 41,52 C41,51.448 41.448,51 42,51 L43,51 C43.552,51 44,51.448 44,52 C44,52.553 43.552,53 43,53 L43,53 Z M39,53 L38,53 C37.448,53 37,52.553 37,52 C37,51.448 37.448,51 38,51 L39,51 C39.552,51 40,51.448 40,52 C40,52.553 39.552,53 39,53 L39,53 Z"/><path id="Fill-1041" fill="#C7CBC7" d="M30,46 C29.448,46 29,45.553 29,45 L29,44 C29,43.447 29.448,43 30,43 C30.552,43 31,43.447 31,44 L31,45 C31,45.553 30.552,46 30,46 L30,46 Z M30,42 C29.448,42 29,41.553 29,41 L29,40 C29,39.448 29.448,39 30,39 C30.552,39 31,39.448 31,40 L31,41 C31,41.553 30.552,42 30,42 L30,42 Z"/><path id="Fill-2042" fill="#CED8DB" d="M4.608,19 L55.392,19 C57.384,19 59,20.616 59,22.609 L59,34.392 C59,36.385 57.384,38 55.392,38 L4.608,38 C2.615,38 1,36.385 1,34.392 L1,22.609 C1,20.616 2.615,19 4.608,19"/><path id="Fill-2043" fill="#E8EDEE" d="M4.608,0 L55.392,0 C57.384,0 59,1.616 59,3.608 L59,15.392 C59,17.385 57.384,19 55.392,19 L4.608,19 C2.615,19 1,17.385 1,15.392 L1,3.608 C1,1.616 2.615,0 4.608,0"/><path id="Fill-2044" fill="#FFF" d="M14,9.5 C14,11.433 12.433,13 10.5,13 C8.567,13 7,11.433 7,9.5 C7,7.567 8.567,6 10.5,6 C12.433,6 14,7.567 14,9.5"/><path id="Fill-2045" fill="#FFF" d="M51,8 C51,8.552 50.552,9 50,9 C49.448,9 49,8.552 49,8 C49,7.448 49.448,7 50,7 C50.552,7 51,7.448 51,8"/><path id="Fill-2046" fill="#FFF" d="M47,8 C47,8.552 46.552,9 46,9 C45.448,9 45,8.552 45,8 C45,7.448 45.448,7 46,7 C46.552,7 47,7.448 47,8"/><path id="Fill-2047" fill="#FFF" d="M53,11 C53,11.552 52.552,12 52,12 C51.448,12 51,11.552 51,11 C51,10.448 51.448,10 52,10 C52.552,10 53,10.448 53,11"/><path id="Fill-2048" fill="#FFF" d="M49,11 C49,11.552 48.552,12 48,12 C47.448,12 47,11.552 47,11 C47,10.448 47.448,10 48,10 C48.552,10 49,10.448 49,11"/><path id="Fill-2049" fill="#FFF" d="M43,8 C43,8.552 42.552,9 42,9 C41.448,9 41,8.552 41,8 C41,7.448 41.448,7 42,7 C42.552,7 43,7.448 43,8"/><path id="Fill-2050" fill="#FFF" d="M45,11 C45,11.552 44.552,12 44,12 C43.448,12 43,11.552 43,11 C43,10.448 43.448,10 44,10 C44.552,10 45,10.448 45,11"/><path id="Fill-2051" fill="#FFF" d="M39,8 C39,8.552 38.552,9 38,9 C37.448,9 37,8.552 37,8 C37,7.448 37.448,7 38,7 C38.552,7 39,7.448 39,8"/><path id="Fill-2052" fill="#FFF" d="M41,11 C41,11.552 40.552,12 40,12 C39.448,12 39,11.552 39,11 C39,10.448 39.448,10 40,10 C40.552,10 41,10.448 41,11"/><path id="Fill-2053" fill="#FFF" d="M35,8 C35,8.552 34.552,9 34,9 C33.448,9 33,8.552 33,8 C33,7.448 33.448,7 34,7 C34.552,7 35,7.448 35,8"/><path id="Fill-2054" fill="#FFF" d="M37,11 C37,11.552 36.552,12 36,12 C35.448,12 35,11.552 35,11 C35,10.448 35.448,10 36,10 C36.552,10 37,10.448 37,11"/><path id="Fill-2055" fill="#FFF" d="M14,28.5 C14,30.433 12.433,32 10.5,32 C8.567,32 7,30.433 7,28.5 C7,26.567 8.567,25 10.5,25 C12.433,25 14,26.567 14,28.5"/><path id="Fill-2056" fill="#FFF" d="M51,27 C51,27.552 50.552,28 50,28 C49.448,28 49,27.552 49,27 C49,26.448 49.448,26 50,26 C50.552,26 51,26.448 51,27"/><path id="Fill-2057" fill="#FFF" d="M47,27 C47,27.552 46.552,28 46,28 C45.448,28 45,27.552 45,27 C45,26.448 45.448,26 46,26 C46.552,26 47,26.448 47,27"/><path id="Fill-2058" fill="#FFF" d="M53,30 C53,30.552 52.552,31 52,31 C51.448,31 51,30.552 51,30 C51,29.448 51.448,29 52,29 C52.552,29 53,29.448 53,30"/><path id="Fill-2059" fill="#FFF" d="M49,30 C49,30.552 48.552,31 48,31 C47.448,31 47,30.552 47,30 C47,29.448 47.448,29 48,29 C48.552,29 49,29.448 49,30"/><path id="Fill-2060" fill="#FFF" d="M43,27 C43,27.552 42.552,28 42,28 C41.448,28 41,27.552 41,27 C41,26.448 41.448,26 42,26 C42.552,26 43,26.448 43,27"/><path id="Fill-2061" fill="#FFF" d="M45,30 C45,30.552 44.552,31 44,31 C43.448,31 43,30.552 43,30 C43,29.448 43.448,29 44,29 C44.552,29 45,29.448 45,30"/><path id="Fill-2062" fill="#FFF" d="M39,27 C39,27.552 38.552,28 38,28 C37.448,28 37,27.552 37,27 C37,26.448 37.448,26 38,26 C38.552,26 39,26.448 39,27"/><path id="Fill-2063" fill="#FFF" d="M41,30 C41,30.552 40.552,31 40,31 C39.448,31 39,30.552 39,30 C39,29.448 39.448,29 40,29 C40.552,29 41,29.448 41,30"/><path id="Fill-2064" fill="#FFF" d="M35,27 C35,27.552 34.552,28 34,28 C33.448,28 33,27.552 33,27 C33,26.448 33.448,26 34,26 C34.552,26 35,26.448 35,27"/><path id="Fill-2065" fill="#FFF" d="M37,30 C37,30.552 36.552,31 36,31 C35.448,31 35,30.552 35,30 C35,29.448 35.448,29 36,29 C36.552,29 37,29.448 37,30"/></g></g></svg>