<?xml version="1.0" encoding="UTF-8" standalone="no"?>
<svg width="54px" height="50px" viewBox="0 0 54 50" version="1.1" xmlns="http://www.w3.org/2000/svg" xmlns:xlink="http://www.w3.org/1999/xlink" xmlns:sketch="http://www.bohemiancoding.com/sketch/ns">
    <!-- Generator: Sketch 3.2.2 (9983) - http://www.bohemiancoding.com/sketch -->
    <title>114 - Controls (Flat)</title>
    <desc>Created with Sketch.</desc>
    <defs></defs>
    <g id="Page-1" stroke="none" stroke-width="1" fill="none" fill-rule="evenodd" sketch:type="MSPage">
        <g id="114---Controls-(Flat)" sketch:type="MSLayerGroup">
            <path d="M53,8 L17,8 C16.447,8 16,7.553 16,7 C16,6.447 16.447,6 17,6 L53,6 C53.553,6 54,6.447 54,7 C54,7.553 53.553,8 53,8" id="Fill-1121" fill="#7383BF" sketch:type="MSShapeGroup"></path>
            <path d="M5,8 L1,8 C0.447,8 0,7.553 0,7 C0,6.447 0.447,6 1,6 L5,6 C5.553,6 6,6.447 6,7 C6,7.553 5.553,8 5,8" id="Fill-1122" fill="#7383BF" sketch:type="MSShapeGroup"></path>
            <path d="M53,27 L33,27 C32.447,27 32,26.553 32,26 C32,25.447 32.447,25 33,25 L53,25 C53.553,25 54,25.447 54,26 C54,26.553 53.553,27 53,27" id="Fill-1123" fill="#7383BF" sketch:type="MSShapeGroup"></path>
            <path d="M21,27 L1,27 C0.447,27 0,26.553 0,26 C0,25.447 0.447,25 1,25 L21,25 C21.553,25 22,25.447 22,26 C22,26.553 21.553,27 21,27" id="Fill-1124" fill="#7383BF" sketch:type="MSShapeGroup"></path>
            <path d="M37,46 L1,46 C0.447,46 0,45.553 0,45 C0,44.448 0.447,44 1,44 L37,44 C37.553,44 38,44.448 38,45 C38,45.553 37.553,46 37,46" id="Fill-1125" fill="#7383BF" sketch:type="MSShapeGroup"></path>
            <path d="M53,46 L49,46 C48.447,46 48,45.553 48,45 C48,44.448 48.447,44 49,44 L53,44 C53.553,44 54,44.448 54,45 C54,45.553 53.553,46 53,46" id="Fill-1126" fill="#7383BF" sketch:type="MSShapeGroup"></path>
            <path d="M5,2 L17,2 L17,12 L5,12 L5,2 Z" id="Fill-3049" fill="#424A60" sketch:type="MSShapeGroup"></path>
            <path d="M21,21 L33,21 L33,31 L21,31 L21,21 Z" id="Fill-3050" fill="#424A60" sketch:type="MSShapeGroup"></path>
            <path d="M37,40 L49,40 L49,50 L37,50 L37,40 Z" id="Fill-3051" fill="#424A60" sketch:type="MSShapeGroup"></path>
            <path d="M5,0 L17,0 L17,10 L5,10 L5,0 Z" id="Fill-3052" fill="#556080" sketch:type="MSShapeGroup"></path>
            <path d="M21,19 L33,19 L33,29 L21,29 L21,19 Z" id="Fill-3053" fill="#556080" sketch:type="MSShapeGroup"></path>
            <path d="M37,38 L49,38 L49,48 L37,48 L37,38 Z" id="Fill-3054" fill="#556080" sketch:type="MSShapeGroup"></path>
        </g>
    </g>
</svg>