<?xml version="1.0" encoding="UTF-8" standalone="no"?>
<svg width="58px" height="58px" viewBox="0 0 58 58" version="1.1" xmlns="http://www.w3.org/2000/svg" xmlns:xlink="http://www.w3.org/1999/xlink" xmlns:sketch="http://www.bohemiancoding.com/sketch/ns">
    <!-- Generator: Sketch 3.2.2 (9983) - http://www.bohemiancoding.com/sketch -->
    <title>113 - Controls (Flat)</title>
    <desc>Created with Sketch.</desc>
    <defs></defs>
    <g id="Page-1" stroke="none" stroke-width="1" fill="none" fill-rule="evenodd" sketch:type="MSPage">
        <g id="113---Controls-(Flat)" sketch:type="MSLayerGroup">
            <path d="M0,0 L58,0 L58,58 L0,58 L0,0 Z" id="Fill-134" fill="#556080" sketch:type="MSShapeGroup"></path>
            <path d="M21,11 L53,11 C53.553,11 54,10.553 54,10 C54,9.447 53.553,9 53,9 L21,9 C20.447,9 20,9.447 20,10 C20,10.553 20.447,11 21,11" id="Fill-135" fill="#424A60" sketch:type="MSShapeGroup"></path>
            <path d="M5,11 L9,11 C9.553,11 10,10.553 10,10 C10,9.447 9.553,9 9,9 L5,9 C4.447,9 4,9.447 4,10 C4,10.553 4.447,11 5,11" id="Fill-136" fill="#424A60" sketch:type="MSShapeGroup"></path>
            <path d="M53,28 L35,28 C34.447,28 34,28.447 34,29 C34,29.553 34.447,30 35,30 L53,30 C53.553,30 54,29.553 54,29 C54,28.447 53.553,28 53,28" id="Fill-137" fill="#424A60" sketch:type="MSShapeGroup"></path>
            <path d="M5,30 L23,30 C23.553,30 24,29.553 24,29 C24,28.447 23.553,28 23,28 L5,28 C4.447,28 4,28.447 4,29 C4,29.553 4.447,30 5,30" id="Fill-138" fill="#424A60" sketch:type="MSShapeGroup"></path>
            <path d="M37,47 L5,47 C4.447,47 4,47.448 4,48 C4,48.553 4.447,49 5,49 L37,49 C37.553,49 38,48.553 38,48 C38,47.448 37.553,47 37,47" id="Fill-139" fill="#424A60" sketch:type="MSShapeGroup"></path>
            <path d="M53,47 L49,47 C48.447,47 48,47.448 48,48 C48,48.553 48.447,49 49,49 L53,49 C53.553,49 54,48.553 54,48 C54,47.448 53.553,47 53,47" id="Fill-140" fill="#424A60" sketch:type="MSShapeGroup"></path>
            <path d="M9,5 L21,5 L21,15 L9,15 L9,5 Z" id="Fill-1127" fill="#424A60" sketch:type="MSShapeGroup"></path>
            <path d="M23,24 L35,24 L35,34 L23,34 L23,24 Z" id="Fill-1128" fill="#424A60" sketch:type="MSShapeGroup"></path>
            <path d="M37,43 L49,43 L49,53 L37,53 L37,43 Z" id="Fill-1129" fill="#424A60" sketch:type="MSShapeGroup"></path>
            <path d="M9,3 L21,3 L21,13 L9,13 L9,3 Z" id="Fill-1130" fill="#E8EDEE" sketch:type="MSShapeGroup"></path>
            <path d="M23,22 L35,22 L35,32 L23,32 L23,22 Z" id="Fill-1131" fill="#E8EDEE" sketch:type="MSShapeGroup"></path>
            <path d="M37,41 L49,41 L49,51 L37,51 L37,41 Z" id="Fill-1132" fill="#E8EDEE" sketch:type="MSShapeGroup"></path>
        </g>
    </g>
</svg>