<?xml version="1.0" encoding="UTF-8" standalone="no"?>
<svg width="58px" height="58px" viewBox="0 0 58 58" version="1.1" xmlns="http://www.w3.org/2000/svg" xmlns:xlink="http://www.w3.org/1999/xlink" xmlns:sketch="http://www.bohemiancoding.com/sketch/ns">
    <!-- Generator: Sketch 3.2.2 (9983) - http://www.bohemiancoding.com/sketch -->
    <title>117 - Controls (Flat)</title>
    <desc>Created with Sketch.</desc>
    <defs></defs>
    <g id="Page-1" stroke="none" stroke-width="1" fill="none" fill-rule="evenodd" sketch:type="MSPage">
        <g id="117---Controls-(Flat)" sketch:type="MSLayerGroup">
            <path d="M0,0 L58,0 L58,58 L0,58 L0,0 Z" id="Fill-151" fill="#424A60" sketch:type="MSShapeGroup"></path>
            <path d="M10,4 C9.448,4 9,4.447 9,5 L9,37 C9,37.553 9.448,38 10,38 C10.552,38 11,37.553 11,37 L11,5 C11,4.447 10.552,4 10,4" id="Fill-152" fill="#7383BF" sketch:type="MSShapeGroup"></path>
            <path d="M10,48 C9.448,48 9,48.447 9,49 L9,53 C9,53.553 9.448,54 10,54 C10.552,54 11,53.553 11,53 L11,49 C11,48.447 10.552,48 10,48" id="Fill-153" fill="#7383BF" sketch:type="MSShapeGroup"></path>
            <path d="M29,4 C28.448,4 28,4.447 28,5 L28,23 C28,23.553 28.448,24 29,24 C29.552,24 30,23.553 30,23 L30,5 C30,4.447 29.552,4 29,4" id="Fill-154" fill="#7383BF" sketch:type="MSShapeGroup"></path>
            <path d="M29,34 C28.448,34 28,34.447 28,35 L28,53 C28,53.553 28.448,54 29,54 C29.552,54 30,53.553 30,53 L30,35 C30,34.447 29.552,34 29,34" id="Fill-155" fill="#7383BF" sketch:type="MSShapeGroup"></path>
            <path d="M48,20 C47.448,20 47,20.448 47,21 L47,53 C47,53.553 47.448,54 48,54 C48.552,54 49,53.553 49,53 L49,21 C49,20.448 48.552,20 48,20" id="Fill-156" fill="#7383BF" sketch:type="MSShapeGroup"></path>
            <path d="M48,4 C47.448,4 47,4.447 47,5 L47,9 C47,9.553 47.448,10 48,10 C48.552,10 49,9.553 49,9 L49,5 C49,4.447 48.552,4 48,4" id="Fill-157" fill="#7383BF" sketch:type="MSShapeGroup"></path>
            <path d="M5,37 L15,37 L15,49 L5,49 L5,37 Z" id="Fill-1114" fill="#C7CBC7" sketch:type="MSShapeGroup"></path>
            <path d="M24,23 L34,23 L34,35 L24,35 L24,23 Z" id="Fill-1115" fill="#C7CBC7" sketch:type="MSShapeGroup"></path>
            <path d="M43,9 L53,9 L53,21 L43,21 L43,9 Z" id="Fill-1116" fill="#C7CBC7" sketch:type="MSShapeGroup"></path>
            <path d="M5,35 L15,35 L15,47 L5,47 L5,35 Z" id="Fill-1118" fill="#E8EDEE" sketch:type="MSShapeGroup"></path>
            <path d="M24,21 L34,21 L34,33 L24,33 L24,21 Z" id="Fill-1119" fill="#E8EDEE" sketch:type="MSShapeGroup"></path>
            <path d="M43,7 L53,7 L53,19 L43,19 L43,7 Z" id="Fill-1120" fill="#E8EDEE" sketch:type="MSShapeGroup"></path>
        </g>
    </g>
</svg>