<?xml version="1.0" encoding="UTF-8" standalone="no"?>
<svg width="48px" height="54px" viewBox="0 0 48 54" version="1.1" xmlns="http://www.w3.org/2000/svg" xmlns:xlink="http://www.w3.org/1999/xlink" xmlns:sketch="http://www.bohemiancoding.com/sketch/ns">
    <!-- Generator: Sketch 3.2.2 (9983) - http://www.bohemiancoding.com/sketch -->
    <title>118 - Controls (Flat)</title>
    <desc>Created with Sketch.</desc>
    <defs></defs>
    <g id="Page-1" stroke="none" stroke-width="1" fill="none" fill-rule="evenodd" sketch:type="MSPage">
        <g id="118---Controls-(Flat)" sketch:type="MSLayerGroup">
            <path d="M5,0 C4.448,0 4,0.448 4,1 L4,37 C4,37.553 4.448,38 5,38 C5.552,38 6,37.553 6,37 L6,1 C6,0.448 5.552,0 5,0" id="Fill-145" fill="#25AE88" sketch:type="MSShapeGroup"></path>
            <path d="M5,48 C4.448,48 4,48.448 4,49 L4,53 C4,53.553 4.448,54 5,54 C5.552,54 6,53.553 6,53 L6,49 C6,48.448 5.552,48 5,48" id="Fill-146" fill="#25AE88" sketch:type="MSShapeGroup"></path>
            <path d="M24,0 C23.448,0 23,0.448 23,1 L23,21 C23,21.553 23.448,22 24,22 C24.552,22 25,21.553 25,21 L25,1 C25,0.448 24.552,0 24,0" id="Fill-147" fill="#25AE88" sketch:type="MSShapeGroup"></path>
            <path d="M24,32 C23.448,32 23,32.447 23,33 L23,53 C23,53.553 23.448,54 24,54 C24.552,54 25,53.553 25,53 L25,33 C25,32.447 24.552,32 24,32" id="Fill-148" fill="#25AE88" sketch:type="MSShapeGroup"></path>
            <path d="M43,16 C42.448,16 42,16.447 42,17 L42,53 C42,53.553 42.448,54 43,54 C43.552,54 44,53.553 44,53 L44,17 C44,16.447 43.552,16 43,16" id="Fill-149" fill="#25AE88" sketch:type="MSShapeGroup"></path>
            <path d="M43,0 C42.448,0 42,0.448 42,1 L42,5 C42,5.553 42.448,6 43,6 C43.552,6 44,5.553 44,5 L44,1 C44,0.448 43.552,0 43,0" id="Fill-150" fill="#25AE88" sketch:type="MSShapeGroup"></path>
            <path d="M0,37 L10,37 L10,49 L0,49 L0,37 Z" id="Fill-1104" fill="#ECBA16" sketch:type="MSShapeGroup"></path>
            <path d="M19,21 L29,21 L29,33 L19,33 L19,21 Z" id="Fill-1105" fill="#23A24D" sketch:type="MSShapeGroup"></path>
            <path d="M38,5 L48,5 L48,17 L38,17 L38,5 Z" id="Fill-1106" fill="#23A24D" sketch:type="MSShapeGroup"></path>
        </g>
    </g>
</svg>