<?xml version="1.0" encoding="UTF-8" standalone="no"?>
<svg width="58px" height="58px" viewBox="0 0 58 58" version="1.1" xmlns="http://www.w3.org/2000/svg" xmlns:xlink="http://www.w3.org/1999/xlink" xmlns:sketch="http://www.bohemiancoding.com/sketch/ns">
    <!-- Generator: Sketch 3.2.2 (9983) - http://www.bohemiancoding.com/sketch -->
    <title>115 - Controls (Flat)</title>
    <desc>Created with Sketch.</desc>
    <defs></defs>
    <g id="Page-1" stroke="none" stroke-width="1" fill="none" fill-rule="evenodd" sketch:type="MSPage">
        <g id="115---Controls-(Flat)" sketch:type="MSLayerGroup">
            <path d="M0,0 L58,0 L58,58 L0,58 L0,0 Z" id="Fill-283" fill="#E8EDEE" sketch:type="MSShapeGroup"></path>
            <path d="M19,12 L51,12 C51.553,12 52,11.553 52,11 C52,10.447 51.553,10 51,10 L19,10 C18.447,10 18,10.447 18,11 C18,11.553 18.447,12 19,12" id="Fill-1100" fill="#556080" sketch:type="MSShapeGroup"></path>
            <path d="M39,46 L7,46 C6.447,46 6,46.447 6,47 C6,47.553 6.447,48 7,48 L39,48 C39.553,48 40,47.553 40,47 C40,46.447 39.553,46 39,46" id="Fill-1101" fill="#556080" sketch:type="MSShapeGroup"></path>
            <path d="M51,28 L36,28 C35.447,28 35,28.447 35,29 C35,29.553 35.447,30 36,30 L51,30 C51.553,30 52,29.553 52,29 C52,28.447 51.553,28 51,28" id="Fill-1102" fill="#556080" sketch:type="MSShapeGroup"></path>
            <path d="M7,30 L24,30 C24.553,30 25,29.553 25,29 C25,28.447 24.553,28 24,28 L7,28 C6.447,28 6,28.447 6,29 C6,29.553 6.447,30 7,30" id="Fill-1103" fill="#556080" sketch:type="MSShapeGroup"></path>
            <path d="M19,13 C19,16.314 16.314,19 13,19 C9.686,19 7,16.314 7,13 C7,9.686 9.686,7 13,7 C16.314,7 19,9.686 19,13" id="Fill-3043" fill="#C7CBC7" sketch:type="MSShapeGroup"></path>
            <path d="M39,49 C39,52.314 41.686,55 45,55 C48.314,55 51,52.314 51,49 C51,45.686 48.314,43 45,43 C41.686,43 39,45.686 39,49" id="Fill-3044" fill="#C7CBC7" sketch:type="MSShapeGroup"></path>
            <path d="M24,31 C24,34.314 26.686,37 30,37 C33.314,37 36,34.314 36,31 C36,27.686 33.314,25 30,25 C26.686,25 24,27.686 24,31" id="Fill-3045" fill="#C7CBC7" sketch:type="MSShapeGroup"></path>
            <path d="M19,11 C19,14.314 16.314,17 13,17 C9.686,17 7,14.314 7,11 C7,7.687 9.686,5 13,5 C16.314,5 19,7.687 19,11" id="Fill-3046" fill="#FFFFFF" sketch:type="MSShapeGroup"></path>
            <path d="M39,47 C39,50.314 41.686,53 45,53 C48.314,53 51,50.314 51,47 C51,43.687 48.314,41 45,41 C41.686,41 39,43.687 39,47" id="Fill-3047" fill="#FFFFFF" sketch:type="MSShapeGroup"></path>
            <path d="M24,29 C24,32.314 26.686,35 30,35 C33.314,35 36,32.314 36,29 C36,25.687 33.314,23 30,23 C26.686,23 24,25.687 24,29" id="Fill-3048" fill="#FFFFFF" sketch:type="MSShapeGroup"></path>
        </g>
    </g>
</svg>