<svg xmlns="http://www.w3.org/2000/svg" xmlns:xlink="http://www.w3.org/1999/xlink" width="58" height="58" version="1.1" viewBox="0 0 58 58"><title>173 - Databases (Flat)</title><desc>Created with Sketch.</desc><g id="Page-1" fill="none" fill-rule="evenodd" stroke="none" stroke-width="1"><g id="173---Databases-(Flat)"><path id="Fill-225" fill="#424A60" d="M10.728,6.419 C4.63,7.855 0.495,10.252 0.045,13 L0,50 C0.776,54.462 11.219,58 24,58 C35.227,58 44.648,55.269 47.269,51.581 C53.366,50.145 57.505,47.748 57.955,45 L58,8.5 C58,3.806 47.255,0 34,0 C22.773,0 13.35,2.73 10.728,6.419 Z"/><path id="Fill-974" fill="#424A60" d="M24,46 C10.745,46 0,42.194 0,37.5 L0,50 L0.045,50 C0.776,54.462 11.219,58 24,58 C36.78,58 47.224,54.462 47.955,50 L48,50 L48,37.5 C48,42.194 37.255,46 24,46"/><path id="Fill-975" fill="#424A60" d="M0,37 L0,37.5 C0,37.332 0.018,37.166 0.045,37 L0,37"/><path id="Fill-976" fill="#424A60" d="M47.955,37 C47.982,37.166 48,37.332 48,37.5 L48,37 L47.955,37"/><path id="Fill-977" fill="#556080" d="M24,34 C10.745,34 0,30.194 0,25.5 L0,38 L0.045,38 C0.776,42.462 11.219,46 24,46 C36.78,46 47.224,42.462 47.955,38 L48,38 L48,25.5 C48,30.194 37.255,34 24,34"/><path id="Fill-978" fill="#556080" d="M0,25 L0,25.5 C0,25.332 0.018,25.166 0.045,25 L0,25"/><path id="Fill-979" fill="#556080" d="M47.955,25 C47.982,25.166 48,25.332 48,25.5 L48,25 L47.955,25"/><path id="Fill-980" fill="#7FABDA" d="M48,13.5 C48,18.194 37.255,22 24,22 C10.745,22 0,18.194 0,13.5 C0,8.806 10.745,5 24,5 C37.255,5 48,8.806 48,13.5"/><path id="Fill-980" fill="#7FABDA" d="M48,13.5 C48,18.194 37.255,22 24,22 C10.745,22 0,18.194 0,13.5 C0,8.806 10.745,5 24,5 C37.255,5 48,8.806 48,13.5"/><path id="Fill-981" fill="#7383BF" d="M24,22 C10.745,22 0,18.194 0,13.5 L0,26 L0.045,26 C0.776,30.462 11.219,34 24,34 C36.78,34 47.224,30.462 47.955,26 L48,26 L48,13.5 C48,18.194 37.255,22 24,22"/><path id="Fill-982" fill="#7383BF" d="M0,13 L0,13.5 C0,13.332 0.018,13.166 0.045,13 L0,13"/><path id="Fill-983" fill="#7383BF" d="M47.955,13 C47.982,13.166 48,13.332 48,13.5 L48,13 L47.955,13"/><path id="Fill-996" fill="#88C057" d="M34,0 C22.772,0 13.347,2.731 10.727,6.42 C14.529,5.524 19.09,5 24,5 C36.781,5 47.224,8.538 47.955,13 L48,13 L48,15.402 C54.054,13.859 58,11.343 58,8.5 C58,3.806 47.255,0 34,0"/><path id="Fill-997" fill="#61B972" d="M48,15.402 L48,27.403 C53.696,25.951 57.523,23.637 57.955,21 L58,21 L58,8.5 C58,11.343 54.054,13.859 48,15.402"/><path id="Fill-998" fill="#25AE88" d="M48,27.402 L48,39.403 C53.696,37.951 57.523,35.637 57.955,33 L58,33 L58,20.5 C58,23.343 54.054,25.859 48,27.402"/><path id="Fill-999" fill="#199172" d="M48,39.402 L48,50 L47.955,50 C47.866,50.543 47.631,51.071 47.269,51.581 C53.366,50.145 57.505,47.748 57.955,45 L58,45 L58,32.5 C58,35.343 54.054,37.859 48,39.402"/><path id="Fill-996" fill="#88C057" d="M34,0 C22.772,0 13.347,2.731 10.727,6.42 C14.529,5.524 19.09,5 24,5 C36.781,5 47.224,8.538 47.955,13 L48,13 L48,15.402 C54.054,13.859 58,11.343 58,8.5 C58,3.806 47.255,0 34,0"/><path id="Fill-997" fill="#61B972" d="M48,15.402 L48,27.403 C53.696,25.951 57.523,23.637 57.955,21 L58,21 L58,8.5 C58,11.343 54.054,13.859 48,15.402"/><path id="Fill-998" fill="#25AE88" d="M48,27.402 L48,39.403 C53.696,37.951 57.523,35.637 57.955,33 L58,33 L58,20.5 C58,23.343 54.054,25.859 48,27.402"/><path id="Fill-999" fill="#199172" d="M48,39.402 L48,50 L47.955,50 C47.866,50.543 47.631,51.071 47.269,51.581 C53.366,50.145 57.505,47.748 57.955,45 L58,45 L58,32.5 C58,35.343 54.054,37.859 48,39.402"/></g></g></svg>