<svg xmlns="http://www.w3.org/2000/svg" xmlns:xlink="http://www.w3.org/1999/xlink" width="60" height="58" version="1.1" viewBox="0 0 60 58"><title>176 - Network Database (Flat)</title><desc>Created with Sketch.</desc><g id="Page-1" fill="none" fill-rule="evenodd" stroke="none" stroke-width="1"><g id="176---Network-Database-(Flat)"><path id="Fill-227" fill="#424A60" d="M24,34 L24,24.25 L24.033,24.25 C24.013,24.374 24,24.499 24,24.625 C24,22.189 27.862,20.073 33.534,19 L3.608,19 C1.615,19 0,20.615 0,22.608 L0,34.392 C0,36.385 1.615,38 3.608,38 L24,38 L24,34"/><path id="Fill-228" fill="#556080" d="M24.033,52 L24,52 L24,38 L3.608,38 C1.615,38 0,39.616 0,41.608 L0,53.392 C0,55.385 1.615,57 3.608,57 L32.326,57 C27.601,55.931 24.378,54.103 24.033,52"/><path id="Fill-1974" fill="#556080" d="M54.392,19 L3.608,19 C1.615,19 0,17.385 0,15.392 L0,3.609 C0,1.616 1.615,0 3.608,0 L54.392,0 C56.384,0 58,1.616 58,3.609 L58,15.392 C58,17.385 56.384,19 54.392,19"/><path id="Fill-1975" fill="#7383BF" d="M13,9.5 C13,11.433 11.433,13 9.5,13 C7.567,13 6,11.433 6,9.5 C6,7.567 7.567,6 9.5,6 C11.433,6 13,7.567 13,9.5"/><path id="Fill-1976" fill="#7383BF" d="M50,8 C50,8.552 49.552,9 49,9 C48.448,9 48,8.552 48,8 C48,7.448 48.448,7 49,7 C49.552,7 50,7.448 50,8"/><path id="Fill-1977" fill="#7383BF" d="M46,8 C46,8.552 45.552,9 45,9 C44.448,9 44,8.552 44,8 C44,7.448 44.448,7 45,7 C45.552,7 46,7.448 46,8"/><path id="Fill-1978" fill="#7383BF" d="M52,11 C52,11.552 51.552,12 51,12 C50.448,12 50,11.552 50,11 C50,10.448 50.448,10 51,10 C51.552,10 52,10.448 52,11"/><path id="Fill-1979" fill="#7383BF" d="M48,11 C48,11.552 47.552,12 47,12 C46.448,12 46,11.552 46,11 C46,10.448 46.448,10 47,10 C47.552,10 48,10.448 48,11"/><path id="Fill-1980" fill="#7383BF" d="M42,8 C42,8.552 41.552,9 41,9 C40.448,9 40,8.552 40,8 C40,7.448 40.448,7 41,7 C41.552,7 42,7.448 42,8"/><path id="Fill-1981" fill="#7383BF" d="M44,11 C44,11.552 43.552,12 43,12 C42.448,12 42,11.552 42,11 C42,10.448 42.448,10 43,10 C43.552,10 44,10.448 44,11"/><path id="Fill-1982" fill="#7383BF" d="M38,8 C38,8.552 37.552,9 37,9 C36.448,9 36,8.552 36,8 C36,7.448 36.448,7 37,7 C37.552,7 38,7.448 38,8"/><path id="Fill-1983" fill="#7383BF" d="M40,11 C40,11.552 39.552,12 39,12 C38.448,12 38,11.552 38,11 C38,10.448 38.448,10 39,10 C39.552,10 40,10.448 40,11"/><path id="Fill-1984" fill="#7383BF" d="M34,8 C34,8.552 33.552,9 33,9 C32.448,9 32,8.552 32,8 C32,7.448 32.448,7 33,7 C33.552,7 34,7.448 34,8"/><path id="Fill-1985" fill="#7383BF" d="M36,11 C36,11.552 35.552,12 35,12 C34.448,12 34,11.552 34,11 C34,10.448 34.448,10 35,10 C35.552,10 36,10.448 36,11"/><path id="Fill-1986" fill="#7383BF" d="M13,28.5 C13,30.433 11.433,32 9.5,32 C7.567,32 6,30.433 6,28.5 C6,26.567 7.567,25 9.5,25 C11.433,25 13,26.567 13,28.5"/><path id="Fill-1987" fill="#7383BF" d="M13,47.5 C13,49.433 11.433,51 9.5,51 C7.567,51 6,49.433 6,47.5 C6,45.567 7.567,44 9.5,44 C11.433,44 13,45.567 13,47.5"/><path id="Fill-2066" fill="#199172" d="M42,47.75 C32.059,47.75 24,44.896 24,41.375 L24,52 L24.033,52 C24.582,55.346 32.415,58 42,58 C51.585,58 59.418,55.346 59.966,52 L60,52 L60,41.375 C60,44.896 51.941,47.75 42,47.75"/><path id="Fill-2067" fill="#199172" d="M24,41 L24,41.375 C24,41.249 24.013,41.124 24.033,41 L24,41"/><path id="Fill-2068" fill="#199172" d="M59.966,41 C59.987,41.124 60,41.249 60,41.375 L60,41 L59.966,41"/><path id="Fill-2069" fill="#25AE88" d="M42,37 C32.059,37 24,34.146 24,30.625 L24,41.75 L24.033,41.75 C24.582,45.096 32.415,47.75 42,47.75 C51.585,47.75 59.418,45.096 59.966,41.75 L60,41.75 L60,30.625 C60,34.146 51.941,37 42,37"/><path id="Fill-2070" fill="#25AE88" d="M24,30.25 L24,30.625 C24,30.499 24.013,30.374 24.033,30.25 L24,30.25"/><path id="Fill-2071" fill="#25AE88" d="M59.966,30.25 C59.987,30.374 60,30.499 60,30.625 L60,30.25 L59.966,30.25"/><path id="Fill-2072" fill="#88C057" d="M60,20.375 C60,23.896 51.941,26.75 42,26.75 C32.059,26.75 24,23.896 24,20.375 C24,16.854 32.059,14 42,14 C51.941,14 60,16.854 60,20.375"/><path id="Fill-2073" fill="#61B972" d="M42,26.75 C32.059,26.75 24,23.896 24,20.375 L24,31 L24.033,31 C24.582,34.346 32.415,37 42,37 C51.585,37 59.418,34.346 59.966,31 L60,31 L60,20.375 C60,23.896 51.941,26.75 42,26.75"/><path id="Fill-2066" fill="#199172" d="M42,47.75 C32.059,47.75 24,44.896 24,41.375 L24,52 L24.033,52 C24.582,55.346 32.415,58 42,58 C51.585,58 59.418,55.346 59.966,52 L60,52 L60,41.375 C60,44.896 51.941,47.75 42,47.75"/><path id="Fill-2069" fill="#25AE88" d="M42,37 C32.059,37 24,34.146 24,30.625 L24,41.75 L24.033,41.75 C24.582,45.096 32.415,47.75 42,47.75 C51.585,47.75 59.418,45.096 59.966,41.75 L60,41.75 L60,30.625 C60,34.146 51.941,37 42,37"/><path id="Fill-2072" fill="#88C057" d="M60,20.375 C60,23.896 51.941,26.75 42,26.75 C32.059,26.75 24,23.896 24,20.375 C24,16.854 32.059,14 42,14 C51.941,14 60,16.854 60,20.375"/><path id="Fill-2073" fill="#61B972" d="M42,26.75 C32.059,26.75 24,23.896 24,20.375 L24,31 L24.033,31 C24.582,34.346 32.415,37 42,37 C51.585,37 59.418,34.346 59.966,31 L60,31 L60,20.375 C60,23.896 51.941,26.75 42,26.75"/><path id="Fill-2074" fill="#61B972" d="M24,20 L24,20.375 C24,20.249 24.013,20.124 24.033,20 L24,20"/><path id="Fill-2075" fill="#61B972" d="M59.966,20 C59.987,20.124 60,20.249 60,20.375 L60,20 L59.966,20"/></g></g></svg>