<svg xmlns="http://www.w3.org/2000/svg" xmlns:xlink="http://www.w3.org/1999/xlink" width="48" height="53" version="1.1" viewBox="0 0 48 53"><title>174 - Database (Flat)</title><desc>Created with Sketch.</desc><g id="Page-1" fill="none" fill-rule="evenodd" stroke="none" stroke-width="1"><g id="174---Database-(Flat)"><path id="Fill-963" fill="#424A60" d="M47.955,8 L47.955,8 C47.224,3.538 36.781,0 24,0 C11.219,0 0.776,3.538 0.045,8 L0,8 L0,45 L0.045,45 C0.776,49.462 11.219,53 24,53 C36.78,53 47.224,49.462 47.955,45 L48,45 L48,8 L47.955,8"/><path id="Fill-964" fill="#424A60" d="M24,41 C10.745,41 0,37.194 0,32.5 L0,45 L0.045,45 C0.776,49.462 11.219,53 24,53 C36.78,53 47.224,49.462 47.955,45 L48,45 L48,32.5 C48,37.194 37.255,41 24,41"/><path id="Fill-965" fill="#424A60" d="M0,32 L0,32.5 C0,32.332 0.018,32.166 0.045,32 L0,32"/><path id="Fill-966" fill="#424A60" d="M47.955,32 C47.982,32.166 48,32.332 48,32.5 L48,32 L47.955,32"/><path id="Fill-967" fill="#F0CE49" d="M24,29 C10.745,29 0,25.194 0,20.5 L0,33 L0.045,33 C0.776,37.462 11.219,41 24,41 C36.78,41 47.224,37.462 47.955,33 L48,33 L48,20.5 C48,25.194 37.255,29 24,29"/><path id="Fill-968" fill="#F0CE49" d="M0,20 L0,20.5 C0,20.332 0.018,20.166 0.045,20 L0,20"/><path id="Fill-969" fill="#F0CE49" d="M47.955,20 C47.982,20.166 48,20.332 48,20.5 L48,20 L47.955,20"/><path id="Fill-970" fill="#7FABDA" d="M48,8.5 C48,13.194 37.255,17 24,17 C10.745,17 0,13.194 0,8.5 C0,3.806 10.745,0 24,0 C37.255,0 48,3.806 48,8.5"/><path id="Fill-970" fill="#7FABDA" d="M48,8.5 C48,13.194 37.255,17 24,17 C10.745,17 0,13.194 0,8.5 C0,3.806 10.745,0 24,0 C37.255,0 48,3.806 48,8.5"/><path id="Fill-971" fill="#7383BF" d="M24,17 C10.745,17 0,13.194 0,8.5 L0,21 L0.045,21 C0.776,25.462 11.219,29 24,29 C36.78,29 47.224,25.462 47.955,21 L48,21 L48,8.5 C48,13.194 37.255,17 24,17"/><path id="Fill-972" fill="#7383BF" d="M0,8 L0,8.5 C0,8.332 0.018,8.166 0.045,8 L0,8"/><path id="Fill-973" fill="#7383BF" d="M47.955,8 C47.982,8.166 48,8.332 48,8.5 L48,8 L47.955,8"/></g></g></svg>