<svg xmlns="http://www.w3.org/2000/svg" enable-background="new 0 0 48 48" version="1" viewBox="0 0 48 48"><polygon fill="#C5CAE9" points="42 42 6 42 6 9 24 2 42 9"/><rect width="36" height="2" x="6" y="42" fill="#9FA8DA"/><rect width="8" height="9" x="20" y="35" fill="#BF360C"/><g fill="#1565C0"><rect width="6" height="5" x="31" y="27"/><rect width="6" height="5" x="21" y="27"/><rect width="6" height="5" x="11" y="27"/><rect width="6" height="5" x="31" y="35"/><rect width="6" height="5" x="11" y="35"/><rect width="6" height="5" x="31" y="19"/><rect width="6" height="5" x="21" y="19"/><rect width="6" height="5" x="11" y="19"/><rect width="6" height="5" x="31" y="11"/><rect width="6" height="5" x="21" y="11"/><rect width="6" height="5" x="11" y="11"/></g></svg>