<svg xmlns="http://www.w3.org/2000/svg" xmlns:xlink="http://www.w3.org/1999/xlink" width="45" height="58" version="1.1" viewBox="0 0 45 58"><title>45 - Diploma (Flat)</title><desc>Created with Sketch.</desc><g id="Page-1" fill="none" fill-rule="evenodd" stroke="none" stroke-width="1"><g id="Icons" transform="translate(-728.000000, -4318.000000)"><g id="45---Diploma-(Flat)" transform="translate(728.000000, 4318.000000)"><path id="Fill-1633" fill="#EDEBDA" d="M45,14 L31,0 L0,0 L0,58 L45,58 L45,14"/><path id="Fill-2193" fill="#CEC9AE" d="M31,0 L31,14 L45,14 L31,0"/><path id="Fill-2194" fill="#CEC9AE" d="M9,16 L18,16 C18.553,16 19,15.553 19,15 C19,14.448 18.553,14 18,14 L9,14 C8.447,14 8,14.448 8,15 C8,15.553 8.447,16 9,16"/><path id="Fill-2195" fill="#CEC9AE" d="M9,24 L14,24 C14.553,24 15,23.553 15,23 C15,22.447 14.553,22 14,22 L9,22 C8.447,22 8,22.447 8,23 C8,23.553 8.447,24 9,24"/><path id="Fill-2196" fill="#CEC9AE" d="M31,22 L24,22 C23.447,22 23,22.447 23,23 C23,23.553 23.447,24 24,24 L31,24 C31.553,24 32,23.553 32,23 C32,22.447 31.553,22 31,22"/><path id="Fill-2197" fill="#CEC9AE" d="M18.29,22.3 C18.1,22.479 18,22.739 18,23 C18,23.26 18.1,23.52 18.29,23.71 C18.479,23.89 18.74,24 19,24 C19.26,24 19.519,23.899 19.71,23.7 C19.89,23.52 20,23.26 20,23 C20,22.739 19.89,22.479 19.71,22.29 C19.33,21.92 18.66,21.92 18.29,22.3"/><path id="Fill-2198" fill="#CEC9AE" d="M36.71,22.29 C36.33,21.92 35.67,21.92 35.29,22.29 C35.109,22.479 35,22.739 35,23 C35,23.26 35.109,23.52 35.29,23.71 C35.479,23.89 35.74,24 36,24 C36.26,24 36.519,23.89 36.71,23.71 C36.89,23.52 37,23.26 37,23 C37,22.739 36.89,22.479 36.71,22.29"/><path id="Fill-2199" fill="#CEC9AE" d="M21,30 L14,30 C13.447,30 13,30.447 13,31 C13,31.553 13.447,32 14,32 L21,32 C21.553,32 22,31.553 22,31 C22,30.447 21.553,30 21,30"/><path id="Fill-2200" fill="#CEC9AE" d="M8.29,30.29 C8.1,30.48 8,30.729 8,31 C8,31.26 8.109,31.52 8.29,31.71 C8.479,31.89 8.74,32 9,32 C9.26,32 9.519,31.89 9.71,31.71 C9.899,31.52 10,31.26 10,31 C10,30.739 9.899,30.48 9.71,30.29 C9.33,29.92 8.67,29.92 8.29,30.29"/><path id="Fill-2201" fill="#7383BF" d="M12.145,39.166 C9.953,40.307 9.217,42.487 8.948,44.748 C8.535,44.402 8.121,44.055 7.707,43.708 C6.726,42.886 5.303,44.293 6.293,45.122 C7.228,45.906 8.164,46.69 9.099,47.473 C9.761,48.028 10.775,47.685 10.806,46.766 C10.879,44.599 10.983,42.023 13.154,40.893 C14.299,40.298 13.287,38.572 12.145,39.166"/><path id="Fill-2202" fill="#7383BF" d="M21.483,44.25 C20.963,43.32 19.841,42.858 18.795,43.155 C17.43,43.541 15.814,45.197 14.859,43.261 C14.288,42.104 12.564,43.118 13.132,44.27 C13.646,45.312 14.632,46.068 15.801,46.202 C16.409,46.271 16.918,46.189 17.489,45.976 C17.896,45.824 19.412,44.644 19.756,45.259 C20.385,46.385 22.113,45.377 21.483,44.25"/><path id="Fill-2203" fill="#ECBA16" d="M33.545,29.09 L33.545,29.09 C33.87,30.006 34.916,30.439 35.794,30.022 C37.187,29.359 38.641,30.813 37.978,32.207 C37.561,33.084 37.994,34.129 38.91,34.455 C40.363,34.972 40.363,37.028 38.91,37.545 C37.994,37.871 37.561,38.916 37.978,39.794 C38.641,41.187 37.187,42.641 35.794,41.979 C34.916,41.561 33.87,41.994 33.545,42.91 C33.028,44.364 30.972,44.364 30.455,42.91 C30.13,41.994 29.084,41.561 28.206,41.979 C26.813,42.641 25.359,41.187 26.022,39.794 C26.439,38.916 26.006,37.871 25.09,37.545 C23.637,37.028 23.637,34.972 25.09,34.455 C26.006,34.129 26.439,33.084 26.022,32.207 C25.359,30.813 26.813,29.359 28.206,30.022 C29.084,30.439 30.13,30.006 30.455,29.09 C30.972,27.637 33.028,27.637 33.545,29.09"/><path id="Fill-2204" fill="#D75A4A" d="M35.794,41.979 C34.916,41.561 33.87,41.994 33.545,42.91 C33.028,44.364 30.972,44.364 30.455,42.91 C30.13,41.994 29.084,41.561 28.206,41.979 C28.137,42.011 28.069,42.017 28,42.039 L28,53 L32,49 L36,53 L36,42.039 C35.931,42.017 35.862,42.011 35.794,41.979"/></g></g></g></svg>