<?xml version="1.0" encoding="UTF-8" standalone="no"?>
<svg width="58px" height="58px" viewBox="0 0 58 58" version="1.1" xmlns="http://www.w3.org/2000/svg" xmlns:xlink="http://www.w3.org/1999/xlink" xmlns:sketch="http://www.bohemiancoding.com/sketch/ns">
    <!-- Generator: Sketch 3.2.2 (9983) - http://www.bohemiancoding.com/sketch -->
    <title>203 - Divide (Flat)</title>
    <desc>Created with Sketch.</desc>
    <defs></defs>
    <g id="Page-1" stroke="none" stroke-width="1" fill="none" fill-rule="evenodd" sketch:type="MSPage">
        <g id="203---Divide-(Flat)" sketch:type="MSLayerGroup">
            <path d="M0,0 L58,0 L58,58 L0,58 L0,0 Z" id="Fill-817" fill="#E8EDEE" sketch:type="MSShapeGroup"></path>
            <path d="M50,29 L8,29 L50,29 Z" id="Path" stroke="#424A60" stroke-width="2" sketch:type="MSShapeGroup"></path>
            <path d="M29,20 L29,20 C26.8,20 25,18.2 25,16 C25,13.8 26.8,12 29,12 C31.2,12 33,13.8 33,16 C33,18.2 31.2,20 29,20 L29,20 Z" id="Path" stroke="#424A60" stroke-width="2" sketch:type="MSShapeGroup"></path>
            <path d="M29,46 L29,46 C26.8,46 25,44.2 25,42 C25,39.8 26.8,38 29,38 C31.2,38 33,39.8 33,42 C33,44.2 31.2,46 29,46 L29,46 Z" id="Path" stroke="#424A60" stroke-width="2" sketch:type="MSShapeGroup"></path>
        </g>
    </g>
</svg>