<svg xmlns="http://www.w3.org/2000/svg" xmlns:xlink="http://www.w3.org/1999/xlink" width="58" height="58" version="1.1" viewBox="0 0 58 58"><title>203 - Divide (Flat)</title><desc>Created with Sketch.</desc><g id="Page-1" fill="none" fill-rule="evenodd" stroke="none" stroke-width="1"><g id="203---Divide-(Flat)"><path id="Fill-817" fill="#E8EDEE" d="M0,0 L58,0 L58,58 L0,58 L0,0 Z"/><path id="Path" stroke="#424A60" stroke-width="2" d="M50,29 L8,29 L50,29 Z"/><path id="Path" stroke="#424A60" stroke-width="2" d="M29,20 L29,20 C26.8,20 25,18.2 25,16 C25,13.8 26.8,12 29,12 C31.2,12 33,13.8 33,16 C33,18.2 31.2,20 29,20 L29,20 Z"/><path id="Path" stroke="#424A60" stroke-width="2" d="M29,46 L29,46 C26.8,46 25,44.2 25,42 C25,39.8 26.8,38 29,38 C31.2,38 33,39.8 33,42 C33,44.2 31.2,46 29,46 L29,46 Z"/></g></g></svg>