<svg xmlns="http://www.w3.org/2000/svg" xmlns:xlink="http://www.w3.org/1999/xlink" width="42" height="40" version="1.1" viewBox="0 0 42 40"><title>211 - Divide (Flat)</title><desc>Created with Sketch.</desc><g id="Page-1" fill="none" fill-rule="evenodd" stroke="none" stroke-width="1"><g id="211---Divide-(Flat)" fill="#3083C9"><path id="Fill-804" d="M37.059,15 L4.941,15 C2.224,15 0,17.282 0,20 C0,22.718 2.224,25 4.941,25 L37.059,25 C39.776,25 42,22.718 42,20 C42,17.282 39.776,15 37.059,15"/><path id="Fill-811" d="M26,5 C26,7.762 23.761,10 21,10 C18.239,10 16,7.762 16,5 C16,2.239 18.239,0 21,0 C23.761,0 26,2.239 26,5"/><path id="Fill-812" d="M26,35 C26,37.762 23.761,40 21,40 C18.239,40 16,37.762 16,35 C16,32.239 18.239,30 21,30 C23.761,30 26,32.239 26,35"/></g></g></svg>