<svg xmlns="http://www.w3.org/2000/svg" xmlns:xlink="http://www.w3.org/1999/xlink" width="45" height="58" version="1.1" viewBox="0 0 45 58"><title>47 - Document (Flat)</title><desc>Created with Sketch.</desc><g id="Page-1" fill="none" fill-rule="evenodd" stroke="none" stroke-width="1"><g id="Icons" transform="translate(-489.000000, -4318.000000)"><g id="47---Document-(Flat)" transform="translate(489.000000, 4318.000000)"><path id="Fill-1631" fill="#EDEBDA" d="M45,14 L31,0 L0,0 L0,58 L45,58 L45,14"/><path id="Fill-2168" fill="#CEC9AE" d="M31,0 L31,14 L45,14 L31,0"/><path id="Fill-2169" fill="#CEC9AE" d="M9,16 L18,16 C18.552,16 19,15.553 19,15 C19,14.448 18.552,14 18,14 L9,14 C8.448,14 8,14.448 8,15 C8,15.553 8.448,16 9,16"/><path id="Fill-2170" fill="#CEC9AE" d="M26,36 L9,36 C8.448,36 8,36.447 8,37 C8,37.553 8.448,38 9,38 L26,38 C26.552,38 27,37.553 27,37 C27,36.447 26.552,36 26,36"/><path id="Fill-2171" fill="#CEC9AE" d="M36,29 L29,29 C28.448,29 28,29.448 28,30 C28,30.553 28.448,31 29,31 L36,31 C36.552,31 37,30.553 37,30 C37,29.448 36.552,29 36,29"/><path id="Fill-2172" fill="#CEC9AE" d="M9,24 L14,24 C14.552,24 15,23.553 15,23 C15,22.447 14.552,22 14,22 L9,22 C8.448,22 8,22.447 8,23 C8,23.553 8.448,24 9,24"/><path id="Fill-2173" fill="#CEC9AE" d="M24,24 L31,24 C31.552,24 32,23.553 32,23 C32,22.447 31.552,22 31,22 L24,22 C23.448,22 23,22.447 23,23 C23,23.553 23.448,24 24,24"/><path id="Fill-2174" fill="#CEC9AE" d="M18,23 C18,23.26 18.11,23.52 18.29,23.71 C18.48,23.89 18.74,24 19,24 C19.26,24 19.52,23.89 19.71,23.71 C19.89,23.52 20,23.26 20,23 C20,22.739 19.89,22.479 19.71,22.29 C19.34,21.92 18.67,21.92 18.29,22.29 C18.11,22.479 18,22.739 18,23"/><path id="Fill-2175" fill="#CEC9AE" d="M14,29 C13.448,29 13,29.448 13,30 C13,30.553 13.448,31 14,31 L24,31 C24.552,31 25,30.553 25,30 C25,29.448 24.552,29 24,29 L14,29"/><path id="Fill-2176" fill="#CEC9AE" d="M9,31 C9.26,31 9.52,30.89 9.71,30.71 C9.89,30.52 10,30.26 10,30 C10,29.74 9.89,29.48 9.71,29.29 C9.34,28.92 8.66,28.92 8.29,29.29 C8.11,29.48 8,29.73 8,30 C8,30.26 8.11,30.52 8.29,30.71 C8.48,30.89 8.74,31 9,31"/><path id="Fill-2177" fill="#CEC9AE" d="M36,43 L29,43 C28.448,43 28,43.447 28,44 C28,44.553 28.448,45 29,45 L36,45 C36.552,45 37,44.553 37,44 C37,43.447 36.552,43 36,43"/><path id="Fill-2178" fill="#CEC9AE" d="M24,43 L14,43 C13.448,43 13,43.447 13,44 C13,44.553 13.448,45 14,45 L24,45 C24.552,45 25,44.553 25,44 C25,43.447 24.552,43 24,43"/><path id="Fill-2179" fill="#CEC9AE" d="M8.29,43.29 C8.11,43.47 8,43.73 8,44 C8,44.27 8.1,44.52 8.29,44.71 C8.48,44.89 8.74,45 9,45 C9.27,45 9.52,44.89 9.71,44.71 C9.89,44.52 10,44.26 10,44 C10,43.73 9.89,43.479 9.71,43.3 C9.34,42.92 8.67,42.92 8.29,43.29"/><path id="Fill-2180" fill="#CEC9AE" d="M36,24 C36.26,24 36.52,23.89 36.71,23.71 C36.9,23.52 37,23.26 37,23 C37,22.739 36.9,22.479 36.71,22.29 C36.33,21.92 35.67,21.92 35.29,22.29 C35.11,22.479 35,22.739 35,23 C35,23.26 35.11,23.52 35.29,23.71 C35.48,23.89 35.74,24 36,24"/><path id="Fill-2181" fill="#CEC9AE" d="M31.71,37.71 C31.89,37.52 32,37.26 32,37 C32,36.739 31.89,36.48 31.71,36.29 C31.33,35.92 30.66,35.92 30.29,36.29 C30.11,36.48 30,36.739 30,37 C30,37.26 30.11,37.52 30.29,37.71 C30.48,37.9 30.73,38 31,38 C31.27,38 31.52,37.89 31.71,37.71"/><path id="Fill-2182" fill="#CEC9AE" d="M35.29,36.29 C35.11,36.48 35,36.739 35,37 C35,37.26 35.11,37.52 35.29,37.71 C35.48,37.89 35.73,38 36,38 C36.27,38 36.52,37.89 36.71,37.71 C36.89,37.52 37,37.26 37,37 C37,36.739 36.89,36.48 36.71,36.29 C36.34,35.92 35.66,35.92 35.29,36.29"/></g></g></g></svg>