<svg xmlns="http://www.w3.org/2000/svg" xmlns:xlink="http://www.w3.org/1999/xlink" width="58" height="58" version="1.1" viewBox="0 0 58 58"><title>57 - Document Folder (Flat)</title><desc>Created with Sketch.</desc><g id="Page-1" fill="none" fill-rule="evenodd" stroke="none" stroke-width="1"><g id="Icons" transform="translate(-481.000000, -4198.000000)"><g id="57---Document-Folder-(Flat)" transform="translate(480.000000, 4198.000000)"><path id="Fill-1459" fill="#F0CE49" d="M47.324,58 L2.565,58 C1.535,58 0.786,57.022 1.055,56.027 L11.221,28.156 C11.405,27.474 12.024,27 12.731,27 L57.49,27 C58.52,27 59,27.984 59,28.973 L48.834,56.844 C48.65,57.526 48.031,58 47.324,58"/><path id="Fill-1542" fill="#F4EFDC" d="M11.221,28.156 C11.405,27.474 12.024,27 12.731,27 L47,27 L47,15 L32,0 L9,0 L9,34.245 L11.221,28.156"/><path id="Fill-1543" fill="#ECBA16" d="M51.268,18 L47,18 L47,27 L53,27 L53,19.733 C53,18.776 52.224,18 51.268,18"/><path id="Fill-1544" fill="#ECBA16" d="M9,11 L2.732,11 C1.776,11 1,11.776 1,12.732 L1,55.46 C1.069,55.463 1.138,55.466 1.205,55.47 L9,34.212 L9,11"/><path id="Fill-2136" fill="#CEC9AE" d="M26,16 L16,16 C15.448,16 15,15.553 15,15 C15,14.448 15.448,14 16,14 L26,14 C26.552,14 27,14.448 27,15 C27,15.553 26.552,16 26,16"/><path id="Fill-2137" fill="#CEC9AE" d="M26,9 L16,9 C15.448,9 15,8.553 15,8 C15,7.447 15.448,7 16,7 L26,7 C26.552,7 27,7.447 27,8 C27,8.553 26.552,9 26,9"/><path id="Fill-2138" fill="#CEC9AE" d="M40,23 L16,23 C15.448,23 15,22.553 15,22 C15,21.447 15.448,21 16,21 L40,21 C40.552,21 41,21.447 41,22 C41,22.553 40.552,23 40,23"/><path id="Fill-3079" fill="#D1BF86" d="M32,15 L47,15 L32,0 L32,15"/></g></g></g></svg>