<?xml version="1.0" encoding="UTF-8" standalone="no"?>
<svg width="58px" height="58px" viewBox="0 0 58 58" version="1.1" xmlns="http://www.w3.org/2000/svg" xmlns:xlink="http://www.w3.org/1999/xlink" xmlns:sketch="http://www.bohemiancoding.com/sketch/ns">
    <!-- Generator: Sketch 3.2.2 (9983) - http://www.bohemiancoding.com/sketch -->
    <title>56 - Document Folder (Flat)</title>
    <desc>Created with Sketch.</desc>
    <defs></defs>
    <g id="Page-1" stroke="none" stroke-width="1" fill="none" fill-rule="evenodd" sketch:type="MSPage">
        <g id="Icons" sketch:type="MSArtboardGroup" transform="translate(-601.000000, -4198.000000)">
            <g id="56---Document-Folder-(Flat)" sketch:type="MSLayerGroup" transform="translate(600.000000, 4198.000000)">
                <path d="M47.324,58 L2.565,58 C1.535,58 0.786,57.022 1.055,56.027 L11.221,28.156 C11.405,27.474 12.024,27 12.731,27 L57.49,27 C58.52,27 59,27.984 59,28.973 L48.834,56.844 C48.65,57.526 48.031,58 47.324,58" id="Fill-1545" fill="#F0CE49" sketch:type="MSShapeGroup"></path>
                <path d="M51.268,18 L49,18 L49,27 L53,27 L53,19.733 C53,18.776 52.224,18 51.268,18" id="Fill-1546" fill="#ECBA16" sketch:type="MSShapeGroup"></path>
                <path d="M5,11 L2.732,11 C1.776,11 1,11.776 1,12.732 L1,55.46 C1.069,55.463 1.138,55.466 1.205,55.47 L5,45.122 L5,11" id="Fill-1547" fill="#ECBA16" sketch:type="MSShapeGroup"></path>
                <path d="M11.221,28.156 C11.405,27.474 12.024,27 12.731,27 L49,27 L49,0 L11,0 L11,28.761 L11.221,28.156" id="Fill-1548" fill="#F4EFDC" sketch:type="MSShapeGroup"></path>
                <path d="M18,16 L42,16 C42.552,16 43,15.553 43,15 C43,14.448 42.552,14 42,14 L18,14 C17.448,14 17,14.448 17,15 C17,15.553 17.448,16 18,16" id="Fill-2131" fill="#CEC9AE" sketch:type="MSShapeGroup"></path>
                <path d="M18,9 L28,9 C28.552,9 29,8.553 29,8 C29,7.447 28.552,7 28,7 L18,7 C17.448,7 17,7.447 17,8 C17,8.553 17.448,9 18,9" id="Fill-2132" fill="#CEC9AE" sketch:type="MSShapeGroup"></path>
                <path d="M42,21 L18,21 C17.448,21 17,21.447 17,22 C17,22.553 17.448,23 18,23 L42,23 C42.552,23 43,22.553 43,22 C43,21.447 42.552,21 42,21" id="Fill-2133" fill="#CEC9AE" sketch:type="MSShapeGroup"></path>
                <path d="M11,28.761 L11,2 L8,2 L8,36.986 L11,28.761" id="Fill-2134" fill="#CEC9AE" sketch:type="MSShapeGroup"></path>
                <path d="M8,36.986 L8,4 L5,4 L5,45.212 L8,36.986" id="Fill-2135" fill="#D1BF86" sketch:type="MSShapeGroup"></path>
            </g>
        </g>
    </g>
</svg>