<?xml version="1.0" encoding="UTF-8" standalone="no"?>
<svg width="30px" height="58px" viewBox="0 0 30 58" version="1.1" xmlns="http://www.w3.org/2000/svg" xmlns:xlink="http://www.w3.org/1999/xlink" xmlns:sketch="http://www.bohemiancoding.com/sketch/ns">
    <!-- Generator: Sketch 3.2.2 (9983) - http://www.bohemiancoding.com/sketch -->
    <title>134 - Draining Battery (Flat)</title>
    <desc>Created with Sketch.</desc>
    <defs></defs>
    <g id="Page-1" stroke="none" stroke-width="1" fill="none" fill-rule="evenodd" sketch:type="MSPage">
        <g id="134---Draining-Battery-(Flat)" sketch:type="MSLayerGroup">
            <path d="M27.536,58 L2.464,58 C1.103,58 0,56.897 0,55.536 L0,6.464 C0,5.103 1.103,4 2.464,4 L27.536,4 C28.897,4 30,5.103 30,6.464 L30,55.536 C30,56.897 28.897,58 27.536,58" id="Fill-188" fill="#424A60" sketch:type="MSShapeGroup"></path>
            <path d="M10,0 L20,0 L20,4 L10,4 L10,0 Z" id="Fill-1062" fill="#D8A852" sketch:type="MSShapeGroup"></path>
            <path d="M27.536,58 L2.464,58 C1.103,58 0,56.897 0,55.536 L0,25.464 C0,24.104 1.103,23 2.464,23 L27.536,23 C28.897,23 30,24.104 30,25.464 L30,55.536 C30,56.897 28.897,58 27.536,58" id="Fill-2850" fill="#42B05C" sketch:type="MSShapeGroup"></path>
            <path d="M3,51 C2.448,51 2,51.448 2,52 C2,52.552 2.448,53 3,53 C3.552,53 4,52.552 4,52 C4,51.448 3.552,51 3,51" id="Fill-2851" fill="#A4E869" sketch:type="MSShapeGroup"></path>
            <path d="M6,54 C5.448,54 5,54.448 5,55 C5,55.552 5.448,56 6,56 C6.552,56 7,55.552 7,55 C7,54.448 6.552,54 6,54" id="Fill-2852" fill="#A4E869" sketch:type="MSShapeGroup"></path>
            <path d="M9,51 C8.448,51 8,51.448 8,52 C8,52.552 8.448,53 9,53 C9.552,53 10,52.552 10,52 C10,51.448 9.552,51 9,51" id="Fill-2853" fill="#A4E869" sketch:type="MSShapeGroup"></path>
            <path d="M15,51 C14.448,51 14,51.448 14,52 C14,52.552 14.448,53 15,53 C15.552,53 16,52.552 16,52 C16,51.448 15.552,51 15,51" id="Fill-2854" fill="#A4E869" sketch:type="MSShapeGroup"></path>
            <path d="M12,54 C11.448,54 11,54.448 11,55 C11,55.552 11.448,56 12,56 C12.552,56 13,55.552 13,55 C13,54.448 12.552,54 12,54" id="Fill-2855" fill="#A4E869" sketch:type="MSShapeGroup"></path>
            <path d="M18,54 C17.448,54 17,54.448 17,55 C17,55.552 17.448,56 18,56 C18.552,56 19,55.552 19,55 C19,54.448 18.552,54 18,54" id="Fill-2856" fill="#A4E869" sketch:type="MSShapeGroup"></path>
            <path d="M21,51 C20.448,51 20,51.448 20,52 C20,52.552 20.448,53 21,53 C21.552,53 22,52.552 22,52 C22,51.448 21.552,51 21,51" id="Fill-2857" fill="#A4E869" sketch:type="MSShapeGroup"></path>
            <path d="M27,51 C26.448,51 26,51.448 26,52 C26,52.552 26.448,53 27,53 C27.552,53 28,52.552 28,52 C28,51.448 27.552,51 27,51" id="Fill-2858" fill="#A4E869" sketch:type="MSShapeGroup"></path>
            <path d="M24,54 C23.448,54 23,54.448 23,55 C23,55.552 23.448,56 24,56 C24.552,56 25,55.552 25,55 C25,54.448 24.552,54 24,54" id="Fill-2859" fill="#A4E869" sketch:type="MSShapeGroup"></path>
            <path d="M3,45 C2.448,45 2,45.448 2,46 C2,46.552 2.448,47 3,47 C3.552,47 4,46.552 4,46 C4,45.448 3.552,45 3,45" id="Fill-2860" fill="#A4E869" sketch:type="MSShapeGroup"></path>
            <path d="M6,48 C5.448,48 5,48.448 5,49 C5,49.552 5.448,50 6,50 C6.552,50 7,49.552 7,49 C7,48.448 6.552,48 6,48" id="Fill-2861" fill="#A4E869" sketch:type="MSShapeGroup"></path>
            <path d="M9,45 C8.448,45 8,45.448 8,46 C8,46.552 8.448,47 9,47 C9.552,47 10,46.552 10,46 C10,45.448 9.552,45 9,45" id="Fill-2862" fill="#A4E869" sketch:type="MSShapeGroup"></path>
            <path d="M15,45 C14.448,45 14,45.448 14,46 C14,46.552 14.448,47 15,47 C15.552,47 16,46.552 16,46 C16,45.448 15.552,45 15,45" id="Fill-2863" fill="#A4E869" sketch:type="MSShapeGroup"></path>
            <path d="M12,48 C11.448,48 11,48.448 11,49 C11,49.552 11.448,50 12,50 C12.552,50 13,49.552 13,49 C13,48.448 12.552,48 12,48" id="Fill-2864" fill="#A4E869" sketch:type="MSShapeGroup"></path>
            <path d="M18,48 C17.448,48 17,48.448 17,49 C17,49.552 17.448,50 18,50 C18.552,50 19,49.552 19,49 C19,48.448 18.552,48 18,48" id="Fill-2865" fill="#A4E869" sketch:type="MSShapeGroup"></path>
            <path d="M21,45 C20.448,45 20,45.448 20,46 C20,46.552 20.448,47 21,47 C21.552,47 22,46.552 22,46 C22,45.448 21.552,45 21,45" id="Fill-2866" fill="#A4E869" sketch:type="MSShapeGroup"></path>
            <path d="M27,45 C26.448,45 26,45.448 26,46 C26,46.552 26.448,47 27,47 C27.552,47 28,46.552 28,46 C28,45.448 27.552,45 27,45" id="Fill-2867" fill="#A4E869" sketch:type="MSShapeGroup"></path>
            <path d="M24,48 C23.448,48 23,48.448 23,49 C23,49.552 23.448,50 24,50 C24.552,50 25,49.552 25,49 C25,48.448 24.552,48 24,48" id="Fill-2868" fill="#A4E869" sketch:type="MSShapeGroup"></path>
            <path d="M3,39 C2.448,39 2,39.448 2,40 C2,40.552 2.448,41 3,41 C3.552,41 4,40.552 4,40 C4,39.448 3.552,39 3,39" id="Fill-2869" fill="#A4E869" sketch:type="MSShapeGroup"></path>
            <path d="M6,42 C5.448,42 5,42.448 5,43 C5,43.552 5.448,44 6,44 C6.552,44 7,43.552 7,43 C7,42.448 6.552,42 6,42" id="Fill-2870" fill="#A4E869" sketch:type="MSShapeGroup"></path>
            <path d="M9,39 C8.448,39 8,39.448 8,40 C8,40.552 8.448,41 9,41 C9.552,41 10,40.552 10,40 C10,39.448 9.552,39 9,39" id="Fill-2871" fill="#A4E869" sketch:type="MSShapeGroup"></path>
            <path d="M15,39 C14.448,39 14,39.448 14,40 C14,40.552 14.448,41 15,41 C15.552,41 16,40.552 16,40 C16,39.448 15.552,39 15,39" id="Fill-2872" fill="#A4E869" sketch:type="MSShapeGroup"></path>
            <path d="M12,42 C11.448,42 11,42.448 11,43 C11,43.552 11.448,44 12,44 C12.552,44 13,43.552 13,43 C13,42.448 12.552,42 12,42" id="Fill-2873" fill="#A4E869" sketch:type="MSShapeGroup"></path>
            <path d="M18,42 C17.448,42 17,42.448 17,43 C17,43.552 17.448,44 18,44 C18.552,44 19,43.552 19,43 C19,42.448 18.552,42 18,42" id="Fill-2874" fill="#A4E869" sketch:type="MSShapeGroup"></path>
            <path d="M21,39 C20.448,39 20,39.448 20,40 C20,40.552 20.448,41 21,41 C21.552,41 22,40.552 22,40 C22,39.448 21.552,39 21,39" id="Fill-2875" fill="#A4E869" sketch:type="MSShapeGroup"></path>
            <path d="M27,39 C26.448,39 26,39.448 26,40 C26,40.552 26.448,41 27,41 C27.552,41 28,40.552 28,40 C28,39.448 27.552,39 27,39" id="Fill-2876" fill="#A4E869" sketch:type="MSShapeGroup"></path>
            <path d="M24,42 C23.448,42 23,42.448 23,43 C23,43.552 23.448,44 24,44 C24.552,44 25,43.552 25,43 C25,42.448 24.552,42 24,42" id="Fill-2877" fill="#A4E869" sketch:type="MSShapeGroup"></path>
            <path d="M3,33 C2.448,33 2,33.448 2,34 C2,34.552 2.448,35 3,35 C3.552,35 4,34.552 4,34 C4,33.448 3.552,33 3,33" id="Fill-2878" fill="#A4E869" sketch:type="MSShapeGroup"></path>
            <path d="M6,36 C5.448,36 5,36.448 5,37 C5,37.552 5.448,38 6,38 C6.552,38 7,37.552 7,37 C7,36.448 6.552,36 6,36" id="Fill-2879" fill="#A4E869" sketch:type="MSShapeGroup"></path>
            <path d="M9,33 C8.448,33 8,33.448 8,34 C8,34.552 8.448,35 9,35 C9.552,35 10,34.552 10,34 C10,33.448 9.552,33 9,33" id="Fill-2880" fill="#A4E869" sketch:type="MSShapeGroup"></path>
            <path d="M15,33 C14.448,33 14,33.448 14,34 C14,34.552 14.448,35 15,35 C15.552,35 16,34.552 16,34 C16,33.448 15.552,33 15,33" id="Fill-2881" fill="#A4E869" sketch:type="MSShapeGroup"></path>
            <path d="M12,36 C11.448,36 11,36.448 11,37 C11,37.552 11.448,38 12,38 C12.552,38 13,37.552 13,37 C13,36.448 12.552,36 12,36" id="Fill-2882" fill="#A4E869" sketch:type="MSShapeGroup"></path>
            <path d="M18,36 C17.448,36 17,36.448 17,37 C17,37.552 17.448,38 18,38 C18.552,38 19,37.552 19,37 C19,36.448 18.552,36 18,36" id="Fill-2883" fill="#A4E869" sketch:type="MSShapeGroup"></path>
            <path d="M21,33 C20.448,33 20,33.448 20,34 C20,34.552 20.448,35 21,35 C21.552,35 22,34.552 22,34 C22,33.448 21.552,33 21,33" id="Fill-2884" fill="#A4E869" sketch:type="MSShapeGroup"></path>
            <path d="M27,33 C26.448,33 26,33.448 26,34 C26,34.552 26.448,35 27,35 C27.552,35 28,34.552 28,34 C28,33.448 27.552,33 27,33" id="Fill-2885" fill="#A4E869" sketch:type="MSShapeGroup"></path>
            <path d="M24,36 C23.448,36 23,36.448 23,37 C23,37.552 23.448,38 24,38 C24.552,38 25,37.552 25,37 C25,36.448 24.552,36 24,36" id="Fill-2886" fill="#A4E869" sketch:type="MSShapeGroup"></path>
            <path d="M3,27 C2.448,27 2,27.448 2,28 C2,28.552 2.448,29 3,29 C3.552,29 4,28.552 4,28 C4,27.448 3.552,27 3,27" id="Fill-2887" fill="#A4E869" sketch:type="MSShapeGroup"></path>
            <path d="M6,30 C5.448,30 5,30.448 5,31 C5,31.552 5.448,32 6,32 C6.552,32 7,31.552 7,31 C7,30.448 6.552,30 6,30" id="Fill-2888" fill="#A4E869" sketch:type="MSShapeGroup"></path>
            <path d="M9,27 C8.448,27 8,27.448 8,28 C8,28.552 8.448,29 9,29 C9.552,29 10,28.552 10,28 C10,27.448 9.552,27 9,27" id="Fill-2889" fill="#A4E869" sketch:type="MSShapeGroup"></path>
            <path d="M15,27 C14.448,27 14,27.448 14,28 C14,28.552 14.448,29 15,29 C15.552,29 16,28.552 16,28 C16,27.448 15.552,27 15,27" id="Fill-2890" fill="#A4E869" sketch:type="MSShapeGroup"></path>
            <path d="M12,30 C11.448,30 11,30.448 11,31 C11,31.552 11.448,32 12,32 C12.552,32 13,31.552 13,31 C13,30.448 12.552,30 12,30" id="Fill-2891" fill="#A4E869" sketch:type="MSShapeGroup"></path>
            <path d="M18,30 C17.448,30 17,30.448 17,31 C17,31.552 17.448,32 18,32 C18.552,32 19,31.552 19,31 C19,30.448 18.552,30 18,30" id="Fill-2892" fill="#A4E869" sketch:type="MSShapeGroup"></path>
            <path d="M21,27 C20.448,27 20,27.448 20,28 C20,28.552 20.448,29 21,29 C21.552,29 22,28.552 22,28 C22,27.448 21.552,27 21,27" id="Fill-2893" fill="#A4E869" sketch:type="MSShapeGroup"></path>
            <path d="M27,27 C26.448,27 26,27.448 26,28 C26,28.552 26.448,29 27,29 C27.552,29 28,28.552 28,28 C28,27.448 27.552,27 27,27" id="Fill-2894" fill="#A4E869" sketch:type="MSShapeGroup"></path>
            <path d="M24,30 C23.448,30 23,30.448 23,31 C23,31.552 23.448,32 24,32 C24.552,32 25,31.552 25,31 C25,30.448 24.552,30 24,30" id="Fill-2895" fill="#A4E869" sketch:type="MSShapeGroup"></path>
            <path d="M6,24 C5.448,24 5,24.448 5,25 C5,25.552 5.448,26 6,26 C6.552,26 7,25.552 7,25 C7,24.448 6.552,24 6,24" id="Fill-2896" fill="#A4E869" sketch:type="MSShapeGroup"></path>
            <path d="M12,24 C11.448,24 11,24.448 11,25 C11,25.552 11.448,26 12,26 C12.552,26 13,25.552 13,25 C13,24.448 12.552,24 12,24" id="Fill-2897" fill="#A4E869" sketch:type="MSShapeGroup"></path>
            <path d="M18,24 C17.448,24 17,24.448 17,25 C17,25.552 17.448,26 18,26 C18.552,26 19,25.552 19,25 C19,24.448 18.552,24 18,24" id="Fill-2898" fill="#A4E869" sketch:type="MSShapeGroup"></path>
            <path d="M24,24 C23.448,24 23,24.448 23,25 C23,25.552 23.448,26 24,26 C24.552,26 25,25.552 25,25 C25,24.448 24.552,24 24,24" id="Fill-2899" fill="#A4E869" sketch:type="MSShapeGroup"></path>
            <path d="M27.536,6 C27.792,6 28,6.208 28,6.464 L28,55.536 C28,55.792 27.792,56 27.536,56 L2.464,56 C2.208,56 2,55.792 2,55.536 L2,6.464 C2,6.208 2.208,6 2.464,6 L27.536,6 M27.536,4 L2.464,4 C1.103,4 0,5.103 0,6.464 L0,55.536 C0,56.897 1.103,58 2.464,58 L27.536,58 C28.897,58 30,56.897 30,55.536 L30,6.464 C30,5.103 28.897,4 27.536,4" id="Fill-2900" fill="#292F3A" sketch:type="MSShapeGroup"></path>
        </g>
    </g>
</svg>