<svg xmlns="http://www.w3.org/2000/svg" xmlns:xlink="http://www.w3.org/1999/xlink" width="58" height="42" version="1.1" viewBox="0 0 58 42"><title>142 - Driver License (Flat)</title><desc>Created with Sketch.</desc><g id="Page-1" fill="none" fill-rule="evenodd" stroke="none" stroke-width="1"><g id="142---Driver-License-(Flat)"><path id="Fill-1587" fill="#E8EDEE" d="M54.783,42 L3.217,42 C1.44,42 0,40.56 0,38.783 L0,3.217 C0,1.44 1.44,0 3.217,0 L54.783,0 C56.56,0 58,1.44 58,3.217 L58,38.783 C58,40.56 56.56,42 54.783,42"/><path id="Fill-1588" fill="#BF4D90" d="M21.186,28.138 L17.419,26.214 C17.162,26.083 17,25.818 17,25.53 L17,24.376 C18.933,23.544 20.044,21.925 20.585,19.902 C21.4,19.649 22,18.895 22,18 L22,17 C22,16.234 21.559,15.573 20.922,15.238 C20.482,11.477 17.995,9.955 14,9.955 C13.811,9.955 13.625,9.962 13.443,9.977 C12.085,10.084 10.712,9.829 9.582,9.068 C9.112,8.752 8.716,8.415 8.439,8.062 C8.312,7.901 8.058,8.004 8.082,8.208 C8.122,8.558 8.181,8.965 8.27,9.411 C8.6,11.072 8.403,10.829 7.761,12.396 C7.406,13.261 7.177,14.223 7.071,15.241 C6.438,15.578 6,16.237 6,17 L6,18 C6,18.895 6.6,19.649 7.415,19.902 C7.956,21.925 9.067,23.544 11,24.376 L11,25.522 C11,25.815 10.834,26.082 10.571,26.212 L6.71,28.113 C5.656,28.688 5,29.793 5,30.993 L5,31.909 L5,32.318 C5,33.448 9.029,34 14,34 C18.971,34 23,33.448 23,32.318 L23,31.909 L23,31.073 C23,29.831 22.298,28.694 21.186,28.138"/><path id="Fill-1589" fill="#B0B6BB" d="M29,14 L39,14 C39.553,14 40,13.553 40,13 C40,12.447 39.553,12 39,12 L29,12 C28.447,12 28,12.447 28,13 C28,13.553 28.447,14 29,14"/><path id="Fill-1590" fill="#B0B6BB" d="M43,14 L44,14 C44.553,14 45,13.553 45,13 C45,12.447 44.553,12 44,12 L43,12 C42.447,12 42,12.447 42,13 C42,13.553 42.447,14 43,14"/><path id="Fill-1591" fill="#B0B6BB" d="M30,29 L29,29 C28.447,29 28,29.448 28,30 C28,30.553 28.447,31 29,31 L30,31 C30.553,31 31,30.553 31,30 C31,29.448 30.553,29 30,29"/><path id="Fill-1592" fill="#B0B6BB" d="M36,29 L34,29 C33.447,29 33,29.448 33,30 C33,30.553 33.447,31 34,31 L36,31 C36.553,31 37,30.553 37,30 C37,29.448 36.553,29 36,29"/><path id="Fill-1593" fill="#B0B6BB" d="M41,29 L40,29 C39.447,29 39,29.448 39,30 C39,30.553 39.447,31 40,31 L41,31 C41.553,31 42,30.553 42,30 C42,29.448 41.553,29 41,29"/><path id="Fill-1594" fill="#B0B6BB" d="M47,29 L45,29 C44.447,29 44,29.448 44,30 C44,30.553 44.447,31 45,31 L47,31 C47.553,31 48,30.553 48,30 C48,29.448 47.553,29 47,29"/><path id="Fill-1595" fill="#B0B6BB" d="M50.29,29.29 C50.109,29.479 50,29.74 50,30 C50,30.26 50.109,30.52 50.29,30.71 C50.479,30.89 50.74,31 51,31 C51.26,31 51.519,30.89 51.71,30.71 C51.89,30.52 52,30.26 52,30 C52,29.74 51.89,29.479 51.71,29.29 C51.33,28.92 50.66,28.92 50.29,29.29"/><path id="Fill-1596" fill="#B0B6BB" d="M29,20 L51,20 C51.553,20 52,19.553 52,19 C52,18.447 51.553,18 51,18 L29,18 C28.447,18 28,18.447 28,19 C28,19.553 28.447,20 29,20"/><path id="Fill-1597" fill="#B0B6BB" d="M51,24 L29,24 C28.447,24 28,24.447 28,25 C28,25.553 28.447,26 29,26 L51,26 C51.553,26 52,25.553 52,25 C52,24.447 51.553,24 51,24"/></g></g></svg>