<svg xmlns="http://www.w3.org/2000/svg" xmlns:xlink="http://www.w3.org/1999/xlink" width="54" height="59" version="1.1" viewBox="0 0 54 59"><title>41 - Edit Document (Flat)</title><desc>Created with Sketch.</desc><g id="Page-1" fill="none" fill-rule="evenodd" stroke="none" stroke-width="1"><g id="Icons" transform="translate(-1201.000000, -4318.000000)"><g id="41---Edit-Document-(Flat)" transform="translate(1201.000000, 4318.000000)"><path id="Fill-172" fill="#ED8A19" d="M47.985,0 C47.711,0 47.45,0.056 47.212,0.156 C47.45,0.056 47.711,0 47.985,0"/><path id="Fill-173" fill="#E0E2E3" d="M46,7 L50,7 L50,11 L46,11 L46,7 Z"/><path id="Fill-174" fill="#D75A4A" d="M46.875,0.339 C46.347,0.696 46,1.3 46,1.985 C46,1.3 46.347,0.696 46.875,0.339"/><path id="Fill-175" fill="#D75A4A" d="M50,0 L47.985,0 C47.711,0 47.45,0.056 47.212,0.156 C47.094,0.206 46.981,0.268 46.875,0.339 C46.347,0.696 46,1.3 46,1.985 L46,7 L50,7 L50,0"/><path id="Fill-176" fill="#D75A4A" d="M52.015,0 L52.015,0 C52.289,0 52.55,0.056 52.788,0.156 C52.55,0.056 52.289,0 52.015,0"/><path id="Fill-177" fill="#DB7B1B" d="M50,11 L54,11 L54,49 L50,49 L50,11 Z"/><path id="Fill-178" fill="#C4C4C4" d="M50,7 L54,7 L54,11 L50,11 L50,7 Z"/><path id="Fill-179" fill="#D75A4A" d="M54,1.985 L54,1.985 C54,1.3 53.653,0.696 53.125,0.339 C53.653,0.696 54,1.3 54,1.985"/><path id="Fill-180" fill="#B74C44" d="M54,7 L54,1.985 C54,1.3 53.653,0.696 53.125,0.339 C53.019,0.268 52.906,0.206 52.788,0.156 C52.55,0.056 52.289,0 52.015,0 L50,0 L50,7 L54,7"/><path id="Fill-1703" fill="#303644" d="M19,0 L28,0 L28,5 L19,5 L19,0 Z"/><path id="Fill-1704" fill="#424A60" d="M46,49 L46,2 L28,2 L28,5 L19,5 L19,2 L0,2 L0,58 L47,58 L47,50.75 L46,49"/><path id="Fill-2228" fill="#7383BF" d="M28,2 L28,5 L19,5 L19,2 L12,2 L12,8 L35,8 L35,2 L28,2"/><path id="Fill-2229" fill="#EDEBDA" d="M35,7 L35,8 L12,8 L12,7 L5,7 L5,53 L42,53 L42,7 L35,7"/><path id="Fill-2230" fill="#CEC9AE" d="M12,18 L21,18 C21.553,18 22,17.553 22,17 C22,16.447 21.553,16 21,16 L12,16 C11.447,16 11,16.447 11,17 C11,17.553 11.447,18 12,18"/><path id="Fill-2231" fill="#CEC9AE" d="M12,25 L17,25 C17.553,25 18,24.553 18,24 C18,23.448 17.553,23 17,23 L12,23 C11.447,23 11,23.448 11,24 C11,24.553 11.447,25 12,25"/><path id="Fill-2232" fill="#CEC9AE" d="M32,23 L25,23 C24.447,23 24,23.448 24,24 C24,24.553 24.447,25 25,25 L32,25 C32.553,25 33,24.553 33,24 C33,23.448 32.553,23 32,23"/><path id="Fill-2233" fill="#CEC9AE" d="M20.29,23.29 C20.109,23.48 20,23.74 20,24 C20,24.26 20.109,24.52 20.29,24.71 C20.479,24.9 20.729,25 21,25 C21.26,25 21.52,24.89 21.71,24.71 C21.89,24.52 22,24.26 22,24 C22,23.74 21.89,23.48 21.71,23.29 C21.33,22.92 20.67,22.92 20.29,23.29"/><path id="Fill-2234" fill="#CEC9AE" d="M36.71,23.29 C36.33,22.92 35.67,22.92 35.29,23.29 C35.109,23.48 35,23.74 35,24 C35,24.26 35.109,24.52 35.29,24.71 C35.479,24.9 35.729,25 36,25 C36.27,25 36.52,24.89 36.71,24.71 C36.89,24.52 37,24.26 37,24 C37,23.74 36.89,23.48 36.71,23.29"/><path id="Fill-2235" fill="#CEC9AE" d="M23,30 L16,30 C15.447,30 15,30.447 15,31 C15,31.553 15.447,32 16,32 L23,32 C23.553,32 24,31.553 24,31 C24,30.447 23.553,30 23,30"/><path id="Fill-2236" fill="#CEC9AE" d="M11.29,30.29 C11.1,30.48 11,30.729 11,31 C11,31.26 11.109,31.52 11.29,31.71 C11.479,31.89 11.74,32 12,32 C12.26,32 12.52,31.89 12.71,31.71 C12.899,31.52 13,31.26 13,31 C13,30.739 12.899,30.48 12.71,30.29 C12.33,29.92 11.67,29.92 11.29,30.29"/><path id="Fill-2237" fill="#7383BF" d="M17.525,36.137 C15.334,37.277 14.597,39.457 14.329,41.718 C13.915,41.372 13.501,41.025 13.087,40.678 C12.106,39.857 10.683,41.263 11.673,42.093 C12.609,42.876 13.544,43.66 14.479,44.443 C15.141,44.998 16.155,44.655 16.186,43.736 C16.259,41.569 16.364,38.993 18.534,37.863 C19.679,37.268 18.667,35.542 17.525,36.137"/><path id="Fill-2238" fill="#7383BF" d="M26.864,41.22 C26.344,40.29 25.221,39.829 24.175,40.125 C22.81,40.511 21.194,42.167 20.239,40.231 C19.669,39.074 17.944,40.088 18.512,41.24 C19.026,42.282 20.013,43.038 21.182,43.172 C21.789,43.241 22.299,43.159 22.87,42.946 C23.276,42.794 24.793,41.614 25.136,42.229 C25.766,43.355 27.493,42.347 26.864,41.22"/><path id="Fill-3008" fill="#ECD6BD" d="M54,49 L46,49 L50,56 L54,49"/><path id="Fill-3009" fill="#4C4C4C" d="M49,58 C49,58.553 49.447,59 50,59 C50.553,59 51,58.553 51,58 L51,54 L49,54 L49,58"/><path id="Fill-3010" fill="#ED8A19" d="M46,11 L50,11 L50,49 L46,49 L46,11 Z"/></g></g></g></svg>