<svg xmlns="http://www.w3.org/2000/svg" xmlns:xlink="http://www.w3.org/1999/xlink" width="54" height="54" version="1.1" viewBox="0 0 54 54"><title>83 - Edit (Flat)</title><desc>Created with Sketch.</desc><g id="Page-1" fill="none" fill-rule="evenodd" stroke="none" stroke-width="1"><g id="Icons" transform="translate(-964.000000, -3839.000000)"><g id="83---Edit-(Flat)" transform="translate(964.000000, 3839.000000)"><path id="Fill-1364" fill="#D75A4A" d="M40.343,3.089 C43.467,-0.036 48.533,-0.036 51.657,3.089 C54.781,6.213 54.781,11.278 51.657,14.402 L40.343,3.089"/><path id="Fill-1365" fill="#ED8A19" d="M43.171,18.644 L17.257,44.559 L16.727,49.332 L45.293,20.766 L43.171,18.644"/><path id="Fill-1366" fill="#ED8A19" d="M11.07,43.676 L15.843,43.145 L41.757,17.23 L37.515,12.988 L11.6,38.902 L11.07,43.676"/><path id="Fill-1367" fill="#ED8A19" d="M36.101,11.574 L33.979,9.452 L5.413,38.018 L10.186,37.488 L36.101,11.574"/><path id="Fill-1368" fill="#C7CBC7" d="M49.535,16.524 L49.535,16.524 L51.657,14.402 L40.343,3.089 L38.222,5.21 L49.535,16.524"/><path id="Fill-1369" fill="#C7CBC7" d="M36.808,6.624 L36.808,6.624 L35.393,8.038 L35.394,8.038 L46.707,19.352 L48.121,17.938 L36.808,6.624"/><path id="Fill-1370" fill="#FCCF9D" d="M15.17,45.233 L10.048,45.802 C10.012,45.806 9.975,45.808 9.939,45.808 L9.937,45.808 L9.936,45.808 C9.899,45.808 9.863,45.806 9.827,45.802 C9.788,45.798 9.756,45.776 9.719,45.767 C9.646,45.751 9.577,45.732 9.511,45.701 C9.461,45.677 9.418,45.648 9.373,45.616 C9.316,45.576 9.264,45.534 9.216,45.483 C9.179,45.443 9.147,45.401 9.117,45.355 C9.078,45.299 9.048,45.24 9.022,45.175 C9,45.121 8.984,45.068 8.971,45.01 C8.965,44.978 8.947,44.951 8.943,44.918 C8.939,44.88 8.953,44.845 8.953,44.808 C8.953,44.77 8.939,44.736 8.943,44.697 L9.512,39.576 L4.391,40.145 C4.354,40.149 4.315,40.151 4.279,40.151 C4.2,40.151 4.127,40.126 4.053,40.108 L1.187,52.144 L3.293,50.038 C3.684,49.648 4.316,49.648 4.707,50.038 C5.098,50.429 5.098,51.062 4.707,51.452 L2.601,53.558 L14.631,50.694 C14.605,50.585 14.588,50.472 14.601,50.355 L15.17,45.233"/><path id="Fill-1371" fill="#38454F" d="M4.707,50.038 C4.316,49.648 3.684,49.648 3.293,50.038 L1.187,52.144 L0.745,54 L2.601,53.558 L4.707,51.452 C5.098,51.062 5.098,50.429 4.707,50.038"/><path id="Fill-1372" fill="#F3EDBF" d="M49.535,16.524 L38.222,5.21 L36.808,6.624 L48.121,17.938 L49.535,16.524"/><path id="Fill-1373" fill="#ECBA16" d="M41.757,17.23 L15.843,43.145 L11.07,43.676 L11.6,38.902 L37.515,12.988 L36.101,11.574 L10.186,37.488 L5.413,38.018 L4.281,39.151 L4.053,40.108 C4.127,40.126 4.2,40.151 4.279,40.151 C4.315,40.151 4.354,40.149 4.391,40.145 L9.512,39.576 L8.943,44.697 C8.939,44.736 8.953,44.77 8.953,44.808 C8.953,44.845 8.939,44.88 8.943,44.918 C8.947,44.951 8.965,44.978 8.971,45.01 C8.983,45.067 9,45.122 9.022,45.175 C9.047,45.239 9.079,45.299 9.117,45.355 C9.147,45.401 9.179,45.443 9.216,45.483 C9.263,45.533 9.317,45.577 9.373,45.616 C9.418,45.647 9.463,45.677 9.511,45.701 C9.576,45.732 9.647,45.75 9.719,45.767 C9.756,45.776 9.788,45.798 9.827,45.802 C9.863,45.806 9.899,45.808 9.936,45.808 L9.938,45.808 C9.975,45.808 10.012,45.806 10.048,45.802 L15.17,45.233 L14.601,50.355 C14.588,50.472 14.605,50.585 14.631,50.694 L15.594,50.464 L16.727,49.332 L17.257,44.559 L43.171,18.644 L41.757,17.23"/><path id="Fill-1374" fill="#F3EDBF" d="M46.707,19.352 L35.394,8.038 L35.393,8.038 L33.979,9.452 L45.293,20.766 L46.707,19.352"/></g></g></g></svg>