<svg xmlns="http://www.w3.org/2000/svg" xmlns:xlink="http://www.w3.org/1999/xlink" width="58" height="58" version="1.1" viewBox="0 0 58 58"><title>243 - Eject (Flat)</title><desc>Created with Sketch.</desc><g id="Page-1" fill="none" fill-rule="evenodd" stroke="none" stroke-width="1"><g id="243---Eject-(Flat)"><path id="Fill-763" fill="#694F87" d="M58,29 C58,45.017 45.016,58 29,58 C12.984,58 0,45.017 0,29 C0,12.984 12.984,0 29,0 C45.016,0 58,12.984 58,29"/><path id="Fill-1879" fill="#FFF" d="M29,11 L44,33 L14,33 L29,11"/><path id="Fill-1880" fill="#FFF" d="M44.019,34 C44.016,34 44.008,34.001 44,34 L14,34 C13.629,34 13.289,33.795 13.116,33.467 C12.942,33.14 12.965,32.743 13.174,32.437 L28.174,10.437 C28.547,9.89 29.453,9.89 29.826,10.437 L44.731,32.297 C44.909,32.478 45.019,32.726 45.019,33 C45.019,33.553 44.572,34 44.019,34 L44.019,34 Z M15.893,32 L42.107,32 L29,12.775 L15.893,32 L15.893,32 Z"/><path id="Fill-1893" fill="#FFF" d="M14,38 L44,38 L44,43 L14,43 L14,38 Z"/><path id="Fill-1894" fill="#FFF" d="M13,37 L45,37 L45,44 L13,44 L13,37 Z M15,42 L43,42 L43,39 L15,39 L15,42 Z"/></g></g></svg>