<?xml version="1.0" encoding="UTF-8" standalone="no"?>
<svg width="58px" height="58px" viewBox="0 0 58 58" version="1.1" xmlns="http://www.w3.org/2000/svg" xmlns:xlink="http://www.w3.org/1999/xlink" xmlns:sketch="http://www.bohemiancoding.com/sketch/ns">
    <!-- Generator: Sketch 3.2.2 (9983) - http://www.bohemiancoding.com/sketch -->
    <title>243 - Eject (Flat)</title>
    <desc>Created with Sketch.</desc>
    <defs></defs>
    <g id="Page-1" stroke="none" stroke-width="1" fill="none" fill-rule="evenodd" sketch:type="MSPage">
        <g id="243---Eject-(Flat)" sketch:type="MSLayerGroup">
            <path d="M58,29 C58,45.017 45.016,58 29,58 C12.984,58 0,45.017 0,29 C0,12.984 12.984,0 29,0 C45.016,0 58,12.984 58,29" id="Fill-763" fill="#694F87" sketch:type="MSShapeGroup"></path>
            <path d="M29,11 L44,33 L14,33 L29,11" id="Fill-1879" fill="#FFFFFF" sketch:type="MSShapeGroup"></path>
            <path d="M44.019,34 C44.016,34 44.008,34.001 44,34 L14,34 C13.629,34 13.289,33.795 13.116,33.467 C12.942,33.14 12.965,32.743 13.174,32.437 L28.174,10.437 C28.547,9.89 29.453,9.89 29.826,10.437 L44.731,32.297 C44.909,32.478 45.019,32.726 45.019,33 C45.019,33.553 44.572,34 44.019,34 L44.019,34 Z M15.893,32 L42.107,32 L29,12.775 L15.893,32 L15.893,32 Z" id="Fill-1880" fill="#FFFFFF" sketch:type="MSShapeGroup"></path>
            <path d="M14,38 L44,38 L44,43 L14,43 L14,38 Z" id="Fill-1893" fill="#FFFFFF" sketch:type="MSShapeGroup"></path>
            <path d="M13,37 L45,37 L45,44 L13,44 L13,37 Z M15,42 L43,42 L43,39 L15,39 L15,42 Z" id="Fill-1894" fill="#FFFFFF" sketch:type="MSShapeGroup"></path>
        </g>
    </g>
</svg>