<svg xmlns="http://www.w3.org/2000/svg" xmlns:xlink="http://www.w3.org/1999/xlink" width="42" height="26" version="1.1" viewBox="0 0 42 26"><title>212 - Equal (Flat)</title><desc>Created with Sketch.</desc><g id="Page-1" fill="none" fill-rule="evenodd" stroke="none" stroke-width="1"><g id="212---Equal-(Flat)" fill="#7383BF"><path id="Fill-802" d="M37.059,0 L4.941,0 C2.224,0 0,2.282 0,5 C0,7.718 2.224,10 4.941,10 L37.059,10 C39.776,10 42,7.718 42,5 C42,2.282 39.776,0 37.059,0"/><path id="Fill-803" d="M37.059,16 L4.941,16 C2.224,16 0,18.282 0,21 C0,23.718 2.224,26 4.941,26 L37.059,26 C39.776,26 42,23.718 42,21 C42,18.282 39.776,16 37.059,16"/></g></g></svg>