<svg xmlns="http://www.w3.org/2000/svg" enable-background="new 0 0 48 48" version="1" viewBox="0 0 48 48"><polygon fill="#E64A19" points="29 23 29 17 21 21 21 23 17 23 17 27 13 27 13 23 5 23 5 43 33 43 33 23"/><rect width="4" height="4" x="25" y="27" fill="#992B0A"/><rect width="4" height="4" x="9" y="35" fill="#992B0A"/><rect width="4" height="4" x="25" y="35" fill="#992B0A"/><rect width="4" height="4" x="17" y="35" fill="#992B0A"/><rect width="4" height="4" x="17" y="27" fill="#992B0A"/><polygon fill="#BF360C" points="41.2 5 38 5 38 7 36 7 36 9 33.7 9 32 43 43 43"/></svg>