<svg xmlns="http://www.w3.org/2000/svg" xmlns:xlink="http://www.w3.org/1999/xlink" width="58" height="58" version="1.1" viewBox="0 0 58 58"><title>244 - Fast Backward (Flat)</title><desc>Created with Sketch.</desc><g id="Page-1" fill="none" fill-rule="evenodd" stroke="none" stroke-width="1"><g id="244---Fast-Backward-(Flat)"><path id="Fill-762" fill="#25AE88" d="M0,29 C0,45.017 12.984,58 29,58 C45.016,58 58,45.017 58,29 C58,12.984 45.016,0 29,0 C12.984,0 0,12.984 0,29"/><path id="Fill-1887" fill="#FFF" d="M4,29 L26,44 L26,14 L4,29"/><path id="Fill-1888" fill="#FFF" d="M26,45 C25.803,45 25.605,44.942 25.437,44.826 L3.437,29.826 C3.163,29.64 3,29.331 3,29 C3,28.669 3.163,28.36 3.437,28.174 L25.437,13.174 C25.744,12.966 26.141,12.942 26.467,13.116 C26.795,13.289 27,13.629 27,14 L27,44 C27,44.371 26.795,44.711 26.467,44.884 C26.32,44.962 26.16,45 26,45 L26,45 Z M5.775,29 L25,42.107 L25,15.893 L5.775,29 L5.775,29 Z"/><path id="Fill-1889" fill="#FFF" d="M26,29 L48,44 L48,14 L26,29"/><path id="Fill-1890" fill="#FFF" d="M48,45 C47.803,45 47.606,44.942 47.436,44.826 L25.437,29.826 C25.163,29.64 25,29.331 25,29 C25,28.669 25.163,28.36 25.437,28.174 L47.436,13.174 C47.743,12.966 48.141,12.942 48.467,13.116 C48.795,13.289 49,13.629 49,14 L49,44 C49,44.371 48.795,44.711 48.467,44.884 C48.32,44.962 48.16,45 48,45 L48,45 Z M27.775,29 L47,42.107 L47,15.893 L27.775,29 L27.775,29 Z"/></g></g></svg>