<?xml version="1.0" encoding="UTF-8" standalone="no"?>
<svg width="58px" height="58px" viewBox="0 0 58 58" version="1.1" xmlns="http://www.w3.org/2000/svg" xmlns:xlink="http://www.w3.org/1999/xlink" xmlns:sketch="http://www.bohemiancoding.com/sketch/ns">
    <!-- Generator: Sketch 3.2.2 (9983) - http://www.bohemiancoding.com/sketch -->
    <title>30 - Favorite List (Flat)</title>
    <desc>Created with Sketch.</desc>
    <defs></defs>
    <g id="Page-1" stroke="none" stroke-width="1" fill="none" fill-rule="evenodd" sketch:type="MSPage">
        <g id="Icons" sketch:type="MSArtboardGroup" transform="translate(-121.000000, -4558.000000)">
            <g id="30---Favorite-List-(Flat)" sketch:type="MSLayerGroup" transform="translate(121.000000, 4558.000000)">
                <path d="M0,0 L58,0 L58,58 L0,58 L0,0 Z" id="Fill-1705" fill="#EDEBDA" sketch:type="MSShapeGroup"></path>
                <path d="M13.929,10 L15.143,12.46 L17.858,12.855 L15.894,14.77 L16.357,17.474 L13.929,16.197 L11.501,17.474 L11.964,14.77 L10,12.855 L12.715,12.46 L13.929,10" id="Fill-1706" fill="#ECBA16" sketch:type="MSShapeGroup"></path>
                <path d="M13.929,25.083 L15.143,27.543 L17.858,27.938 L15.894,29.853 L16.357,32.557 L13.929,31.28 L11.501,32.557 L11.964,29.853 L10,27.938 L12.715,27.543 L13.929,25.083" id="Fill-1707" fill="#ECBA16" sketch:type="MSShapeGroup"></path>
                <path d="M13.929,40.526 L15.143,42.987 L17.858,43.381 L15.894,45.296 L16.357,48 L13.929,46.724 L11.501,48 L11.964,45.296 L10,43.381 L12.715,42.987 L13.929,40.526" id="Fill-1708" fill="#ECBA16" sketch:type="MSShapeGroup"></path>
                <path d="M46,16 L22.429,16 C21.877,16 21.429,15.553 21.429,15 C21.429,14.448 21.877,14 22.429,14 L46,14 C46.552,14 47,14.448 47,15 C47,15.553 46.552,16 46,16" id="Fill-2239" fill="#7383BF" sketch:type="MSShapeGroup"></path>
                <path d="M46,31 L22.429,31 C21.877,31 21.429,30.553 21.429,30 C21.429,29.448 21.877,29 22.429,29 L46,29 C46.552,29 47,29.448 47,30 C47,30.553 46.552,31 46,31" id="Fill-2240" fill="#7383BF" sketch:type="MSShapeGroup"></path>
                <path d="M46,46 L22.429,46 C21.877,46 21.429,45.553 21.429,45 C21.429,44.448 21.877,44 22.429,44 L46,44 C46.552,44 47,44.448 47,45 C47,45.553 46.552,46 46,46" id="Fill-2241" fill="#7383BF" sketch:type="MSShapeGroup"></path>
            </g>
        </g>
    </g>
</svg>