<svg xmlns="http://www.w3.org/2000/svg" xmlns:xlink="http://www.w3.org/1999/xlink" width="45" height="58" version="1.1" viewBox="0 0 45 58"><title>50 - File (Flat)</title><desc>Created with Sketch.</desc><g id="Page-1" fill="none" fill-rule="evenodd" stroke="none" stroke-width="1"><g id="Icons" transform="translate(-128.000000, -4318.000000)"><g id="50---File-(Flat)" transform="translate(128.000000, 4318.000000)"><path id="Fill-1629" fill="#EDEBDA" d="M45,14 L31,0 L0,0 L0,58 L45,58 L45,14"/><path id="Fill-2149" fill="#CEC9AE" d="M10,23 L35,23 C35.552,23 36,22.553 36,22 C36,21.447 35.552,21 35,21 L10,21 C9.448,21 9,21.447 9,22 C9,22.553 9.448,23 10,23"/><path id="Fill-2150" fill="#CEC9AE" d="M10,15 L20,15 C20.552,15 21,14.553 21,14 C21,13.447 20.552,13 20,13 L10,13 C9.448,13 9,13.447 9,14 C9,14.553 9.448,15 10,15"/><path id="Fill-2151" fill="#CEC9AE" d="M35,29 L10,29 C9.448,29 9,29.448 9,30 C9,30.553 9.448,31 10,31 L35,31 C35.552,31 36,30.553 36,30 C36,29.448 35.552,29 35,29"/><path id="Fill-2152" fill="#CEC9AE" d="M35,37 L10,37 C9.448,37 9,37.447 9,38 C9,38.553 9.448,39 10,39 L35,39 C35.552,39 36,38.553 36,38 C36,37.447 35.552,37 35,37"/><path id="Fill-2153" fill="#CEC9AE" d="M35,45 L10,45 C9.448,45 9,45.447 9,46 C9,46.553 9.448,47 10,47 L35,47 C35.552,47 36,46.553 36,46 C36,45.447 35.552,45 35,45"/><path id="Fill-2154" fill="#CEC9AE" d="M31,0 L31,14 L45,14 L31,0"/></g></g></g></svg>