<?xml version="1.0" encoding="UTF-8" standalone="no"?>
<svg width="46px" height="58px" viewBox="0 0 46 58" version="1.1" xmlns="http://www.w3.org/2000/svg" xmlns:xlink="http://www.w3.org/1999/xlink" xmlns:sketch="http://www.bohemiancoding.com/sketch/ns">
    <!-- Generator: Sketch 3.2.2 (9983) - http://www.bohemiancoding.com/sketch -->
    <title>49 - Files (Flat)</title>
    <desc>Created with Sketch.</desc>
    <defs></defs>
    <g id="Page-1" stroke="none" stroke-width="1" fill="none" fill-rule="evenodd" sketch:type="MSPage">
        <g id="Icons" sketch:type="MSArtboardGroup" transform="translate(-247.000000, -4318.000000)">
            <g id="49---Files-(Flat)" sketch:type="MSLayerGroup" transform="translate(247.000000, 4318.000000)">
                <path d="M46,19 L32,5 L5,5 L5,58 L46,58 L46,19" id="Fill-1627" fill="#EDEBDA" sketch:type="MSShapeGroup"></path>
                <path d="M5,5 L32,5 L41,14 L41,0 L0,0 L0,53 L5,53 L5,5" id="Fill-1628" fill="#C1BCA4" sketch:type="MSShapeGroup"></path>
                <path d="M13,26 L38,26 C38.552,26 39,25.553 39,25 C39,24.447 38.552,24 38,24 L13,24 C12.448,24 12,24.447 12,25 C12,25.553 12.448,26 13,26" id="Fill-2155" fill="#CEC9AE" sketch:type="MSShapeGroup"></path>
                <path d="M13,18 L23,18 C23.552,18 24,17.553 24,17 C24,16.447 23.552,16 23,16 L13,16 C12.448,16 12,16.447 12,17 C12,17.553 12.448,18 13,18" id="Fill-2156" fill="#CEC9AE" sketch:type="MSShapeGroup"></path>
                <path d="M38,32 L13,32 C12.448,32 12,32.448 12,33 C12,33.553 12.448,34 13,34 L38,34 C38.552,34 39,33.553 39,33 C39,32.448 38.552,32 38,32" id="Fill-2157" fill="#CEC9AE" sketch:type="MSShapeGroup"></path>
                <path d="M38,40 L13,40 C12.448,40 12,40.447 12,41 C12,41.553 12.448,42 13,42 L38,42 C38.552,42 39,41.553 39,41 C39,40.447 38.552,40 38,40" id="Fill-2158" fill="#CEC9AE" sketch:type="MSShapeGroup"></path>
                <path d="M38,48 L13,48 C12.448,48 12,48.447 12,49 C12,49.553 12.448,50 13,50 L38,50 C38.552,50 39,49.553 39,49 C39,48.447 38.552,48 38,48" id="Fill-2159" fill="#CEC9AE" sketch:type="MSShapeGroup"></path>
                <path d="M32,5 L32,19 L46,19 L32,5" id="Fill-2160" fill="#CEC9AE" sketch:type="MSShapeGroup"></path>
            </g>
        </g>
    </g>
</svg>