<svg xmlns="http://www.w3.org/2000/svg" enable-background="new 0 0 48 48" version="1" viewBox="0 0 48 48"><rect width="4" height="2" x="12" y="44" fill="#263238"/><rect width="4" height="2" x="32" y="44" fill="#263238"/><path fill="#607D8B" d="M8,41V7c0-2.2,1.8-4,4-4h24c2.2,0,4,1.8,4,4v34c0,2.2-1.8,4-4,4H12C9.8,45,8,43.2,8,41z"/><path fill="#B0BEC5" d="M12,17V8c0-0.6,0.4-1,1-1h22c0.6,0,1,0.4,1,1v9H12z"/><rect width="24" height="10" x="12" y="19" fill="#B0BEC5"/><path fill="#B0BEC5" d="M12,40v-9h24v9c0,0.6-0.4,1-1,1H13C12.4,41,12,40.6,12,40z"/><rect width="8" height="2" x="20" y="11" fill="#546E7A"/><rect width="8" height="2" x="20" y="23" fill="#546E7A"/><rect width="8" height="2" x="20" y="35" fill="#546E7A"/></svg>