<svg xmlns="http://www.w3.org/2000/svg" enable-background="new 0 0 48 48" version="1" viewBox="0 0 48 48"><polygon fill="#90CAF9" points="33 42 5 42 5 4 24 4 33 13"/><polygon fill="#E1F5FE" points="31.5 14 23 14 23 5.5"/><rect width="2.8" height="12" x="38.3" y="34.8" fill="#616161" transform="matrix(.707 -.707 .707 .707 -17.177 40.055)"/><circle cx="28" cy="29" r="11" fill="#616161"/><circle cx="28" cy="29" r="9" fill="#90CAF9"/><rect width="2.8" height="8.7" x="39.5" y="37.6" fill="#37474F" transform="matrix(.707 -.707 .707 .707 -17.661 41.223)"/><g fill="#1976D2"><path d="M30,31h-9.7c0.4,1.6,1.3,3,2.5,4H30V31z"/><path d="M20.3,27H30v-4h-7.3C21.5,24,20.7,25.4,20.3,27z"/><path d="M20.1,20H11v2h7.3C18.8,21.3,19.4,20.6,20.1,20z"/><path d="M17.1,24H11v2h5.4C16.6,25.3,16.8,24.6,17.1,24z"/><path d="M16,29c0-0.3,0-0.7,0.1-1H11v2h5.1C16,29.7,16,29.3,16,29z"/><path d="M16.4,32H11v2h6.1C16.8,33.4,16.6,32.7,16.4,32z"/></g></svg>