<svg xmlns="http://www.w3.org/2000/svg" xmlns:xlink="http://www.w3.org/1999/xlink" width="44" height="60" version="1.1" viewBox="0 0 44 60"><title>125 - Flag (Flat)</title><desc>Created with Sketch.</desc><g id="Page-1" fill="none" fill-rule="evenodd" stroke="none" stroke-width="1"><g id="125---Flag-(Flat)"><path id="Fill-1071" fill="#ECBA16" d="M25,4.074 C16.833,8.407 2,4.074 2,4.074 L2,34.074 C2,34.074 16.833,38.407 25,34.074 C33.167,29.741 44,34.074 44,34.074 L44,4.074 C44,4.074 33.167,-0.259 25,4.074"/><path id="Fill-1074" fill="#424A60" d="M1,0 C0.448,0 0,0.448 0,1 L0,59 C0,59.553 0.448,60 1,60 C1.552,60 2,59.553 2,59 L2,1 C2,0.448 1.552,0 1,0"/><path id="Fill-2704" fill="#DBA91F" d="M28,2.879 C26.978,3.171 25.97,3.56 25,4.074 C21.901,5.718 17.844,6.114 14,5.973 L14,35.973 C17.844,36.114 21.901,35.718 25,34.074 C25.97,33.56 26.978,33.171 28,32.879 L28,2.879"/></g></g></svg>