<svg xmlns="http://www.w3.org/2000/svg" xmlns:xlink="http://www.w3.org/1999/xlink" width="48" height="59" version="1.1" viewBox="0 0 48 59"><title>42 - Flipboard Document (Flat)</title><desc>Created with Sketch.</desc><g id="Page-1" fill="none" fill-rule="evenodd" stroke="none" stroke-width="1"><g id="Icons" transform="translate(-1087.000000, -4318.000000)"><g id="42---Flipboard-Document-(Flat)" transform="translate(1087.000000, 4318.000000)"><path id="Fill-1701" fill="#303644" d="M19,0 L28,0 L28,5 L19,5 L19,0 Z"/><path id="Fill-1702" fill="#424A60" d="M32,2 L28,2 L28,5 L19,5 L19,2 L0,2 L0,58 L47,58 L47,2 L32,2"/><path id="Fill-2217" fill="#EDEBDA" d="M35,5 L35,8 L12,8 L12,5 L3,5 L3,55 L44,55 L44,5 L35,5"/><path id="Fill-2218" fill="#CEC9AE" d="M10,17 L19,17 C19.553,17 20,16.553 20,16 C20,15.447 19.553,15 19,15 L10,15 C9.447,15 9,15.447 9,16 C9,16.553 9.447,17 10,17"/><path id="Fill-2219" fill="#CEC9AE" d="M10,25 L15,25 C15.553,25 16,24.553 16,24 C16,23.448 15.553,23 15,23 L10,23 C9.447,23 9,23.448 9,24 C9,24.553 9.447,25 10,25"/><path id="Fill-2220" fill="#CEC9AE" d="M32,23 L25,23 C24.447,23 24,23.448 24,24 C24,24.553 24.447,25 25,25 L32,25 C32.553,25 33,24.553 33,24 C33,23.448 32.553,23 32,23"/><path id="Fill-2221" fill="#CEC9AE" d="M19.29,23.29 C19.1,23.48 19,23.73 19,24 C19,24.27 19.109,24.52 19.29,24.71 C19.479,24.89 19.729,25 20,25 C20.27,25 20.52,24.9 20.71,24.71 C20.89,24.52 21,24.26 21,24 C21,23.74 20.89,23.48 20.71,23.29 C20.33,22.92 19.67,22.92 19.29,23.29"/><path id="Fill-2222" fill="#CEC9AE" d="M37.71,23.29 C37.34,22.92 36.67,22.92 36.29,23.29 C36.1,23.48 36,23.73 36,24 C36,24.27 36.109,24.52 36.29,24.71 C36.479,24.89 36.729,25 37,25 C37.269,25 37.52,24.89 37.71,24.71 C37.89,24.52 38,24.26 38,24 C38,23.74 37.89,23.48 37.71,23.29"/><path id="Fill-2223" fill="#CEC9AE" d="M22,31 L15,31 C14.447,31 14,31.447 14,32 C14,32.553 14.447,33 15,33 L22,33 C22.553,33 23,32.553 23,32 C23,31.447 22.553,31 22,31"/><path id="Fill-2224" fill="#CEC9AE" d="M9.29,31.29 C9.109,31.479 9,31.73 9,32 C9,32.27 9.109,32.52 9.29,32.71 C9.479,32.89 9.729,33 10,33 C10.269,33 10.52,32.89 10.71,32.71 C10.89,32.52 11,32.26 11,32 C11,31.739 10.89,31.479 10.71,31.29 C10.34,30.92 9.66,30.92 9.29,31.29"/><path id="Fill-2225" fill="#7383BF" d="M13.145,40.166 C10.953,41.307 10.216,43.487 9.948,45.748 C9.535,45.401 9.121,45.055 8.707,44.708 C7.726,43.886 6.303,45.293 7.293,46.123 C8.228,46.906 9.164,47.689 10.099,48.473 C10.761,49.028 11.775,48.685 11.806,47.766 C11.879,45.599 11.983,43.023 14.154,41.893 C15.299,41.298 14.287,39.572 13.145,40.166"/><path id="Fill-2226" fill="#7383BF" d="M22.483,45.25 C21.963,44.32 20.841,43.859 19.795,44.155 C18.43,44.541 16.814,46.196 15.859,44.261 C15.288,43.104 13.564,44.118 14.132,45.27 C14.646,46.312 15.632,47.068 16.801,47.202 C17.409,47.271 17.918,47.189 18.49,46.976 C18.896,46.824 20.412,45.644 20.756,46.259 C21.385,47.385 23.113,46.376 22.483,45.25"/><path id="Stroke-2227" stroke="#FC3951" stroke-linecap="round" stroke-width="2" d="M47,38 L27,58"/><path id="Fill-2252" fill="#7383BF" d="M28,2 L28,5 L19,5 L19,2 L12,2 L12,8 L35,8 L35,2 L28,2"/></g></g></g></svg>