<svg xmlns="http://www.w3.org/2000/svg" xmlns:xlink="http://www.w3.org/1999/xlink" width="56" height="60" version="1.1" viewBox="0 0 56 60"><title>365 - Focus View (Flat)</title><desc>Created with Sketch.</desc><g id="Page-1" fill="none" fill-rule="evenodd" stroke="none" stroke-width="1"><g id="Icons" transform="translate(-722.000000, -477.000000)"><g id="365---Focus-View-(Flat)" transform="translate(722.000000, 478.000000)"><path id="Stroke-525" stroke="#659C35" stroke-linecap="round" stroke-width="2" d="M28,0 L28,10 M28,10 L32,6 M28,10 L24,6 M28,58 L28,48 M28,48 L24,52 M28,48 L32,52"/><path id="Fill-2268" fill="#E8EDEE" d="M55.945,28.642 L48.711,35.876 C37.194,47.393 18.521,47.393 7.004,35.876 L0,28.872 L7.234,21.638 C18.751,10.121 37.424,10.121 48.941,21.638 L55.945,28.642"/><path id="Fill-2269" fill="#3083C9" d="M39.456,28.783 C39.456,35.307 34.167,40.596 27.643,40.596 C21.119,40.596 15.83,35.307 15.83,28.783 C15.83,22.259 21.119,16.97 27.643,16.97 C34.167,16.97 39.456,22.259 39.456,28.783"/><path id="Fill-2270" fill="#FFF" d="M20.83,30 C20.278,30 19.83,29.552 19.83,29 C19.83,25.14 22.97,22 26.83,22 C27.382,22 27.83,22.448 27.83,23 C27.83,23.552 27.382,24 26.83,24 C24.073,24 21.83,26.243 21.83,29 C21.83,29.552 21.382,30 20.83,30"/></g></g></g></svg>