<svg xmlns="http://www.w3.org/2000/svg" xmlns:xlink="http://www.w3.org/1999/xlink" width="58" height="59" version="1.1" viewBox="0 0 58 59"><title>51 - Folders (Flat)</title><desc>Created with Sketch.</desc><g id="Page-1" fill="none" fill-rule="evenodd" stroke="none" stroke-width="1"><g id="Icons" transform="translate(-1201.000000, -4197.000000)"><g id="51---Folders-(Flat)" transform="translate(1201.000000, 4197.000000)"><path id="Fill-88" fill="#7383BF" d="M25,15 L20,8 L0,8 L0,59 L58,59 L58,22 L30,22 L25,15"/><path id="Fill-89" fill="#ECBA16" d="M30,22 L58,22 L58,15 L25,15 L30,22"/><path id="Fill-1621" fill="#556080" d="M58,11 L28,11 L23,4 L3,4 L3,8 L20,8 L25,15 L58,15 L58,11"/><path id="Fill-1622" fill="#424A60" d="M58,7 L31,7 L26,0 L6,0 L6,4 L23,4 L28,11 L58,11 L58,7"/><path id="Fill-1623" fill="#EDEBDA" d="M27,36 L53,36 L53,54 L27,54 L27,36 Z"/><path id="Fill-1624" fill="#CEC9AE" d="M32,40 L42,40 L42,42 L32,42 L32,40 Z"/><path id="Fill-1625" fill="#CEC9AE" d="M32,44 L48,44 L48,46 L32,46 L32,44 Z"/><path id="Fill-1626" fill="#CEC9AE" d="M32,48 L48,48 L48,50 L32,50 L32,48 Z"/></g></g></g></svg>