<?xml version="1.0" encoding="UTF-8" standalone="no"?>
<svg width="58px" height="51px" viewBox="0 0 58 51" version="1.1" xmlns="http://www.w3.org/2000/svg" xmlns:xlink="http://www.w3.org/1999/xlink" xmlns:sketch="http://www.bohemiancoding.com/sketch/ns">
    <!-- Generator: Sketch 3.2.2 (9983) - http://www.bohemiancoding.com/sketch -->
    <title>70 - Folder (Flat)</title>
    <desc>Created with Sketch.</desc>
    <defs></defs>
    <g id="Page-1" stroke="none" stroke-width="1" fill="none" fill-rule="evenodd" sketch:type="MSPage">
        <g id="Icons" sketch:type="MSArtboardGroup" transform="translate(-121.000000, -4081.000000)">
            <g id="70---Folder-(Flat)" sketch:type="MSLayerGroup" transform="translate(121.000000, 4081.000000)">
                <path d="M20,0 L25,7 L58,7 L58,0 L20,0" id="Fill-1407" fill="#7383BF" sketch:type="MSShapeGroup"></path>
                <path d="M25,7 L20,0 L0,0 L0,51 L58,51 L58,14 L30,14 L25,7" id="Fill-1408" fill="#424A60" sketch:type="MSShapeGroup"></path>
                <path d="M30,14 L58,14 L58,7 L25,7 L30,14" id="Fill-1409" fill="#71C3AA" sketch:type="MSShapeGroup"></path>
                <path d="M34,34 L53,34 L53,46 L34,46 L34,34 Z" id="Fill-1449" fill="#E6E6E6" sketch:type="MSShapeGroup"></path>
                <path d="M38,39 L42,39 C42.552,39 43,38.553 43,38 C43,37.448 42.552,37 42,37 L38,37 C37.448,37 37,37.448 37,38 C37,38.553 37.448,39 38,39" id="Fill-1450" fill="#7383BF" sketch:type="MSShapeGroup"></path>
                <path d="M46,39 L47,39 C47.552,39 48,38.553 48,38 C48,37.448 47.552,37 47,37 L46,37 C45.448,37 45,37.448 45,38 C45,38.553 45.448,39 46,39" id="Fill-1451" fill="#7383BF" sketch:type="MSShapeGroup"></path>
                <path d="M49,41 L38,41 C37.448,41 37,41.448 37,42 C37,42.553 37.448,43 38,43 L49,43 C49.552,43 50,42.553 50,42 C50,41.448 49.552,41 49,41" id="Fill-1452" fill="#7383BF" sketch:type="MSShapeGroup"></path>
            </g>
        </g>
    </g>
</svg>