<?xml version="1.0" encoding="UTF-8" standalone="no"?>
<svg width="52px" height="52px" viewBox="0 0 52 52" version="1.1" xmlns="http://www.w3.org/2000/svg" xmlns:xlink="http://www.w3.org/1999/xlink" xmlns:sketch="http://www.bohemiancoding.com/sketch/ns">
    <!-- Generator: Sketch 3.2.2 (9983) - http://www.bohemiancoding.com/sketch -->
    <title>224 - Forbidden (Flat)</title>
    <desc>Created with Sketch.</desc>
    <defs></defs>
    <g id="Page-1" stroke="none" stroke-width="1" fill="none" fill-rule="evenodd" sketch:type="MSPage">
        <g id="224---Forbidden-(Flat)" sketch:type="MSLayerGroup" transform="translate(0.000000, 1.000000)">
            <path d="M43.678,7.323 C53.441,17.086 53.441,32.915 43.678,42.678 C33.915,52.441 18.085,52.441 8.322,42.678 C-1.441,32.915 -1.441,17.086 8.322,7.323 C18.085,-2.441 33.915,-2.441 43.678,7.323 L43.678,7.323 Z" id="Fill-725" fill="#D75A4A" sketch:type="MSShapeGroup"></path>
            <path d="M43.678,7.323 C53.441,17.086 53.441,32.915 43.678,42.678 C33.915,52.441 18.085,52.441 8.322,42.678 C-1.441,32.915 -1.441,17.086 8.322,7.323 C18.085,-2.441 33.915,-2.441 43.678,7.323 L43.678,7.323 Z" id="Stroke-726" stroke="#38454F" stroke-width="2" sketch:type="MSShapeGroup"></path>
            <path d="M8.322,42.678 L43.678,7.323" id="Stroke-890" stroke="#38454F" stroke-width="2" sketch:type="MSShapeGroup"></path>
        </g>
    </g>
</svg>