<svg xmlns="http://www.w3.org/2000/svg" xmlns:xlink="http://www.w3.org/1999/xlink" width="52" height="52" version="1.1" viewBox="0 0 52 52"><title>224 - Forbidden (Flat)</title><desc>Created with Sketch.</desc><g id="Page-1" fill="none" fill-rule="evenodd" stroke="none" stroke-width="1"><g id="224---Forbidden-(Flat)" transform="translate(0.000000, 1.000000)"><path id="Fill-725" fill="#D75A4A" d="M43.678,7.323 C53.441,17.086 53.441,32.915 43.678,42.678 C33.915,52.441 18.085,52.441 8.322,42.678 C-1.441,32.915 -1.441,17.086 8.322,7.323 C18.085,-2.441 33.915,-2.441 43.678,7.323 L43.678,7.323 Z"/><path id="Stroke-726" stroke="#38454F" stroke-width="2" d="M43.678,7.323 C53.441,17.086 53.441,32.915 43.678,42.678 C33.915,52.441 18.085,52.441 8.322,42.678 C-1.441,32.915 -1.441,17.086 8.322,7.323 C18.085,-2.441 33.915,-2.441 43.678,7.323 L43.678,7.323 Z"/><path id="Stroke-890" stroke="#38454F" stroke-width="2" d="M8.322,42.678 L43.678,7.323"/></g></g></svg>