<?xml version="1.0" encoding="UTF-8" standalone="no"?>
<svg width="58px" height="58px" viewBox="0 0 58 58" version="1.1" xmlns="http://www.w3.org/2000/svg" xmlns:xlink="http://www.w3.org/1999/xlink" xmlns:sketch="http://www.bohemiancoding.com/sketch/ns">
    <!-- Generator: Sketch 3.2.2 (9983) - http://www.bohemiancoding.com/sketch -->
    <title>250 - Forward (Flat)</title>
    <desc>Created with Sketch.</desc>
    <defs></defs>
    <g id="Page-1" stroke="none" stroke-width="1" fill="none" fill-rule="evenodd" sketch:type="MSPage">
        <g id="250---Forward-(Flat)" sketch:type="MSLayerGroup">
            <path d="M58,29 C58,45.017 45.016,58 29,58 C12.984,58 0,45.017 0,29 C0,12.984 12.984,0 29,0 C45.016,0 58,12.984 58,29" id="Fill-757" fill="#3083C9" sketch:type="MSShapeGroup"></path>
            <path d="M36,29 L14,44 L14,14 L36,29" id="Fill-1875" fill="#FFFFFF" sketch:type="MSShapeGroup"></path>
            <path d="M14,45 C13.84,45 13.679,44.962 13.533,44.884 C13.205,44.711 13,44.371 13,44 L13,14 C13,13.629 13.205,13.289 13.533,13.116 C13.86,12.942 14.257,12.966 14.563,13.174 L36.563,28.174 C36.836,28.36 37,28.669 37,29 C37,29.331 36.836,29.64 36.563,29.826 L14.563,44.826 C14.394,44.942 14.197,45 14,45 L14,45 Z M15,15.893 L15,42.107 L34.225,29 L15,15.893 L15,15.893 Z" id="Fill-1876" fill="#FFFFFF" sketch:type="MSShapeGroup"></path>
            <path d="M40,14 L45,14 L45,44 L40,44 L40,14 Z" id="Fill-1891" fill="#FFFFFF" sketch:type="MSShapeGroup"></path>
            <path d="M39,13 L46,13 L46,45 L39,45 L39,13 Z M41,43 L44,43 L44,15 L41,15 L41,43 Z" id="Fill-1892" fill="#FFFFFF" sketch:type="MSShapeGroup"></path>
        </g>
    </g>
</svg>