<svg xmlns="http://www.w3.org/2000/svg" xmlns:xlink="http://www.w3.org/1999/xlink" width="48" height="50" version="1.1" viewBox="0 0 48 50"><title>86 - Funnel (Flat)</title><desc>Created with Sketch.</desc><g id="Page-1" fill="none" fill-rule="evenodd" stroke="none" stroke-width="1"><g id="Icons" transform="translate(-607.000000, -3844.000000)"><g id="86---Funnel-(Flat)" transform="translate(607.000000, 3844.000000)"><path id="Fill-1324" fill="#61B972" d="M1.649,8.187 C1.627,8.173 1.607,8.199 1.623,8.221 L18.993,31.99 C18.997,31.997 19.004,32 19.012,32 L28.988,32 C28.995,32 29.003,31.997 29.007,31.99 L46.377,8.221 C46.393,8.199 46.372,8.173 46.351,8.187"/><path id="Fill-1325" fill="#569E61" d="M29,40 L19.105,49.895 C19.066,49.934 19,49.906 19,49.852 L19,32 L29,32 L29,40"/><path id="Fill-2101" fill="#569E61" d="M48,6 C48,9.314 37.255,12 24,12 C10.745,12 0,9.314 0,6 C0,2.687 10.745,0 24,0 C37.255,0 48,2.687 48,6"/></g></g></g></svg>