<svg xmlns="http://www.w3.org/2000/svg" xmlns:xlink="http://www.w3.org/1999/xlink" width="58" height="58" version="1.1" viewBox="0 0 58 58"><title>185 - Photos (Flat)</title><desc>Created with Sketch.</desc><g id="Page-1" fill="none" fill-rule="evenodd" stroke="none" stroke-width="1"><g id="185---Photos-(Flat)"><path id="Fill-212" fill="#BF4D90" d="M17.575,29 C16.328,28.57 15.155,27.87 14.164,26.879 L8.507,21.222 C8.163,20.878 7.863,20.508 7.587,20.125 C7.586,20.125 7.586,20.124 7.586,20.124 C3.303,20.809 0,24.532 0,29 C0,33.95 4.05,38 9,38 L17,38 C21.95,38 26,33.95 26,29 C26,28.565 25.958,28.141 25.898,27.722 C25.149,28.28 24.334,28.706 23.481,29 C21.571,28.342 19.485,28.342 17.575,29"/><path id="Fill-2620" fill="#ED8A19" d="M37.888,7.574 C37.198,3.297 33.477,0 29.013,0 C24.549,0 20.828,3.297 20.138,7.574 C20.521,7.85 20.891,8.15 21.235,8.494 L26.892,14.151 C27.883,15.142 28.583,16.315 29.013,17.562 C29.671,19.472 29.671,21.558 29.013,23.468 C28.717,24.326 28.289,25.145 27.727,25.897 C28.149,25.958 28.576,26 29.013,26 C29.45,26 29.877,25.958 30.299,25.897 C31.227,25.762 32.109,25.486 32.925,25.088 C34.741,24.203 36.216,22.728 37.101,20.912 C37.679,19.726 38.013,18.402 38.013,17 L38.013,9 C38.013,8.514 37.963,8.04 37.888,7.574"/><path id="Fill-2621" fill="#7FABDA" d="M36.791,49.506 L31.134,43.849 C30.143,42.858 29.443,41.686 29.013,40.438 C28.355,38.529 28.355,36.443 29.013,34.533 C29.309,33.674 29.737,32.855 30.299,32.104 C29.877,32.043 29.45,32 29.013,32 C28.576,32 28.149,32.043 27.727,32.104 C26.799,32.238 25.917,32.514 25.101,32.912 C23.285,33.797 21.81,35.272 20.925,37.088 C20.347,38.274 20.013,39.598 20.013,41 L20.013,49 C20.013,49.487 20.063,49.96 20.138,50.426 C20.828,54.703 24.549,58 29.013,58 C33.477,58 37.198,54.703 37.888,50.426 C37.505,50.15 37.135,49.85 36.791,49.506"/><path id="Fill-2622" fill="#A4E869" d="M50.439,20.125 C50.163,20.508 49.863,20.878 49.519,21.222 L43.862,26.879 C42.871,27.87 41.698,28.57 40.451,29 C38.541,29.658 36.455,29.658 34.545,29 C33.687,28.704 32.868,28.276 32.116,27.715 C32.055,28.136 32.013,28.563 32.013,29 C32.013,29.437 32.055,29.864 32.116,30.286 C32.251,31.214 32.527,32.096 32.925,32.912 C33.81,34.728 35.285,36.203 37.101,37.088 C38.287,37.666 39.611,38 41.013,38 L49.013,38 C49.499,38 49.973,37.95 50.439,37.875 C54.716,37.185 58.013,33.464 58.013,29 C58.013,24.536 54.716,20.815 50.439,20.125"/><path id="Fill-2623" fill="#F0CE49" d="M49.519,8.494 C46.363,5.337 41.4,5.038 37.888,7.574 C37.963,8.04 38.013,8.514 38.013,9 L38.013,17 C38.013,18.402 37.679,19.726 37.101,20.912 C36.216,22.728 34.741,24.203 32.925,25.088 C32.109,25.486 31.227,25.762 30.299,25.897 C30.553,26.238 30.825,26.57 31.134,26.879 C31.444,27.188 31.775,27.46 32.116,27.715 C32.868,28.276 33.687,28.704 34.545,29 C36.455,29.658 38.541,29.658 40.451,29 C41.698,28.57 42.871,27.87 43.862,26.879 L49.519,21.222 C49.863,20.878 50.163,20.508 50.439,20.125 C52.976,16.613 52.675,11.651 49.519,8.494"/><path id="Fill-2624" fill="#61B972" d="M50.439,37.875 C49.973,37.95 49.499,38 49.013,38 L41.013,38 C39.611,38 38.287,37.666 37.101,37.088 C35.285,36.203 33.81,34.728 32.925,32.912 C32.527,32.096 32.251,31.214 32.116,30.286 C31.775,30.54 31.444,30.812 31.134,31.122 C30.825,31.431 30.553,31.763 30.299,32.104 C29.737,32.855 29.309,33.674 29.013,34.533 C28.355,36.443 28.355,38.529 29.013,40.438 C29.443,41.686 30.143,42.858 31.134,43.849 L36.791,49.506 C37.135,49.85 37.505,50.15 37.888,50.426 C41.4,52.962 46.363,52.663 49.519,49.506 C52.675,46.35 52.976,41.387 50.439,37.875"/><path id="Fill-2625" fill="#ED7161" d="M29.013,17.562 C28.583,16.315 27.883,15.142 26.892,14.151 L21.235,8.494 C20.891,8.15 20.521,7.85 20.138,7.574 C16.626,5.038 11.663,5.337 8.507,8.494 C5.351,11.65 5.051,16.611 7.586,20.123 C8.048,20.05 8.518,20 9,20 L17,20 C21.515,20 25.271,23.373 25.898,27.722 C25.902,27.719 25.906,27.718 25.91,27.715 C26.25,27.46 26.582,27.188 26.892,26.879 C27.201,26.57 27.473,26.238 27.727,25.897 C28.289,25.145 28.717,24.326 29.013,23.468 C29.671,21.558 29.671,19.472 29.013,17.562"/><path id="Fill-2626" fill="#BF4D90" d="M17,20 L9,20 C8.518,20 8.048,20.05 7.586,20.123 C7.586,20.123 7.586,20.125 7.587,20.125 C7.863,20.508 8.163,20.878 8.507,21.222 L14.164,26.879 C15.155,27.87 16.328,28.57 17.575,29 C19.485,28.342 21.571,28.342 23.481,29 C24.334,28.706 25.149,28.28 25.898,27.722 C25.271,23.373 21.515,20 17,20"/><path id="Fill-2627" fill="#9777A8" d="M26.892,31.122 C26.582,30.812 26.25,30.54 25.91,30.286 C25.158,29.724 24.339,29.296 23.481,29 C21.571,28.342 19.485,28.342 17.575,29 C16.328,29.43 15.155,30.13 14.164,31.122 L8.507,36.778 C8.163,37.122 7.863,37.493 7.587,37.875 C5.05,41.387 5.351,46.35 8.507,49.506 C11.663,52.663 16.626,52.962 20.138,50.426 C20.063,49.96 20.013,49.487 20.013,49 L20.013,41 C20.013,39.598 20.347,38.274 20.925,37.088 C21.81,35.272 23.285,33.797 25.101,32.912 C25.917,32.514 26.799,32.238 27.727,32.104 C27.473,31.763 27.201,31.431 26.892,31.122"/><path id="Fill-212" fill="#BF4D90" d="M17.575,29 C16.328,28.57 15.155,27.87 14.164,26.879 L8.507,21.222 C8.163,20.878 7.863,20.508 7.587,20.125 C7.586,20.125 7.586,20.124 7.586,20.124 C3.303,20.809 0,24.532 0,29 C0,33.95 4.05,38 9,38 L17,38 C21.95,38 26,33.95 26,29 C26,28.565 25.958,28.141 25.898,27.722 C25.149,28.28 24.334,28.706 23.481,29 C21.571,28.342 19.485,28.342 17.575,29"/><path id="Fill-2620" fill="#ED8A19" d="M37.888,7.574 C37.198,3.297 33.477,0 29.013,0 C24.549,0 20.828,3.297 20.138,7.574 C20.521,7.85 20.891,8.15 21.235,8.494 L26.892,14.151 C27.883,15.142 28.583,16.315 29.013,17.562 C29.671,19.472 29.671,21.558 29.013,23.468 C28.717,24.326 28.289,25.145 27.727,25.897 C28.149,25.958 28.576,26 29.013,26 C29.45,26 29.877,25.958 30.299,25.897 C31.227,25.762 32.109,25.486 32.925,25.088 C34.741,24.203 36.216,22.728 37.101,20.912 C37.679,19.726 38.013,18.402 38.013,17 L38.013,9 C38.013,8.514 37.963,8.04 37.888,7.574"/><path id="Fill-2621" fill="#7FABDA" d="M36.791,49.506 L31.134,43.849 C30.143,42.858 29.443,41.686 29.013,40.438 C28.355,38.529 28.355,36.443 29.013,34.533 C29.309,33.674 29.737,32.855 30.299,32.104 C29.877,32.043 29.45,32 29.013,32 C28.576,32 28.149,32.043 27.727,32.104 C26.799,32.238 25.917,32.514 25.101,32.912 C23.285,33.797 21.81,35.272 20.925,37.088 C20.347,38.274 20.013,39.598 20.013,41 L20.013,49 C20.013,49.487 20.063,49.96 20.138,50.426 C20.828,54.703 24.549,58 29.013,58 C33.477,58 37.198,54.703 37.888,50.426 C37.505,50.15 37.135,49.85 36.791,49.506"/><path id="Fill-2622" fill="#A4E869" d="M50.439,20.125 C50.163,20.508 49.863,20.878 49.519,21.222 L43.862,26.879 C42.871,27.87 41.698,28.57 40.451,29 C38.541,29.658 36.455,29.658 34.545,29 C33.687,28.704 32.868,28.276 32.116,27.715 C32.055,28.136 32.013,28.563 32.013,29 C32.013,29.437 32.055,29.864 32.116,30.286 C32.251,31.214 32.527,32.096 32.925,32.912 C33.81,34.728 35.285,36.203 37.101,37.088 C38.287,37.666 39.611,38 41.013,38 L49.013,38 C49.499,38 49.973,37.95 50.439,37.875 C54.716,37.185 58.013,33.464 58.013,29 C58.013,24.536 54.716,20.815 50.439,20.125"/><path id="Fill-2623" fill="#F0CE49" d="M49.519,8.494 C46.363,5.337 41.4,5.038 37.888,7.574 C37.963,8.04 38.013,8.514 38.013,9 L38.013,17 C38.013,18.402 37.679,19.726 37.101,20.912 C36.216,22.728 34.741,24.203 32.925,25.088 C32.109,25.486 31.227,25.762 30.299,25.897 C30.553,26.238 30.825,26.57 31.134,26.879 C31.444,27.188 31.775,27.46 32.116,27.715 C32.868,28.276 33.687,28.704 34.545,29 C36.455,29.658 38.541,29.658 40.451,29 C41.698,28.57 42.871,27.87 43.862,26.879 L49.519,21.222 C49.863,20.878 50.163,20.508 50.439,20.125 C52.976,16.613 52.675,11.651 49.519,8.494"/><path id="Fill-2624" fill="#61B972" d="M50.439,37.875 C49.973,37.95 49.499,38 49.013,38 L41.013,38 C39.611,38 38.287,37.666 37.101,37.088 C35.285,36.203 33.81,34.728 32.925,32.912 C32.527,32.096 32.251,31.214 32.116,30.286 C31.775,30.54 31.444,30.812 31.134,31.122 C30.825,31.431 30.553,31.763 30.299,32.104 C29.737,32.855 29.309,33.674 29.013,34.533 C28.355,36.443 28.355,38.529 29.013,40.438 C29.443,41.686 30.143,42.858 31.134,43.849 L36.791,49.506 C37.135,49.85 37.505,50.15 37.888,50.426 C41.4,52.962 46.363,52.663 49.519,49.506 C52.675,46.35 52.976,41.387 50.439,37.875"/><path id="Fill-2625" fill="#ED7161" d="M29.013,17.562 C28.583,16.315 27.883,15.142 26.892,14.151 L21.235,8.494 C20.891,8.15 20.521,7.85 20.138,7.574 C16.626,5.038 11.663,5.337 8.507,8.494 C5.351,11.65 5.051,16.611 7.586,20.123 C8.048,20.05 8.518,20 9,20 L17,20 C21.515,20 25.271,23.373 25.898,27.722 C25.902,27.719 25.906,27.718 25.91,27.715 C26.25,27.46 26.582,27.188 26.892,26.879 C27.201,26.57 27.473,26.238 27.727,25.897 C28.289,25.145 28.717,24.326 29.013,23.468 C29.671,21.558 29.671,19.472 29.013,17.562"/><path id="Fill-2626" fill="#BF4D90" d="M17,20 L9,20 C8.518,20 8.048,20.05 7.586,20.123 C7.586,20.123 7.586,20.125 7.587,20.125 C7.863,20.508 8.163,20.878 8.507,21.222 L14.164,26.879 C15.155,27.87 16.328,28.57 17.575,29 C19.485,28.342 21.571,28.342 23.481,29 C24.334,28.706 25.149,28.28 25.898,27.722 C25.271,23.373 21.515,20 17,20"/><path id="Fill-2627" fill="#9777A8" d="M26.892,31.122 C26.582,30.812 26.25,30.54 25.91,30.286 C25.158,29.724 24.339,29.296 23.481,29 C21.571,28.342 19.485,28.342 17.575,29 C16.328,29.43 15.155,30.13 14.164,31.122 L8.507,36.778 C8.163,37.122 7.863,37.493 7.587,37.875 C5.05,41.387 5.351,46.35 8.507,49.506 C11.663,52.663 16.626,52.962 20.138,50.426 C20.063,49.96 20.013,49.487 20.013,49 L20.013,41 C20.013,39.598 20.347,38.274 20.925,37.088 C21.81,35.272 23.285,33.797 25.101,32.912 C25.917,32.514 26.799,32.238 27.727,32.104 C27.473,31.763 27.201,31.431 26.892,31.122"/></g></g></svg>