<svg xmlns="http://www.w3.org/2000/svg" xmlns:xlink="http://www.w3.org/1999/xlink" width="57" height="55" version="1.1" viewBox="0 0 57 55"><title>90 - Gift (Flat)</title><desc>Created with Sketch.</desc><g id="Page-1" fill="none" fill-rule="evenodd" stroke="none" stroke-width="1"><g id="Icons" transform="translate(-121.000000, -3841.000000)"><g id="90---Gift-(Flat)" transform="translate(121.000000, 3840.000000)"><path id="Fill-1619" fill="#CB465F" d="M1,13 L56,13 L56,25 L1,25 L1,13 Z"/><path id="Fill-1620" fill="#EF4D4D" d="M6,25 L52,25 L52,55 L6,55 L6,25 Z"/><path id="Fill-2699" fill="#ECBA16" d="M56,12 L41.741,12 C42.556,10.836 43,9.451 43,7.993 C43,6.118 42.274,4.361 40.957,3.043 C38.227,0.315 33.787,0.315 31.058,3.043 L28.229,5.872 L25.401,3.043 C22.671,0.315 18.231,0.315 15.502,3.043 C14.184,4.361 13.458,6.118 13.458,7.993 C13.458,9.451 13.903,10.836 14.718,12 L1,12 C0.448,12 0,12.448 0,13 C0,13.553 0.448,14 1,14 L28,14 L28,38 L6,38 C5.448,38 5,38.447 5,39 C5,39.553 5.448,40 6,40 L28,40 L28,55 C28,55.553 28.448,56 29,56 C29.552,56 30,55.553 30,55 L30,40 L52,40 C52.552,40 53,39.553 53,39 C53,38.447 52.552,38 52,38 L30,38 L30,14 L56,14 C56.552,14 57,13.553 57,13 C57,12.448 56.552,12 56,12 L56,12 Z M32.472,4.457 C34.422,2.508 37.594,2.508 39.543,4.457 C40.482,5.398 41,6.653 41,7.993 C41,9.333 40.482,10.589 39.543,11.528 L39.071,12 L24.929,12 L28.935,7.994 L28.936,7.993 L28.937,7.992 L32.472,4.457 L32.472,4.457 Z M16.915,11.528 C15.976,10.589 15.458,9.333 15.458,7.993 C15.458,6.653 15.976,5.398 16.915,4.457 C18.866,2.508 22.038,2.508 23.987,4.457 L26.815,7.286 L23.279,10.821 C22.948,11.153 22.657,11.557 22.381,12 L17.387,12 L16.915,11.528 L16.915,11.528 Z"/></g></g></g></svg>