<svg xmlns="http://www.w3.org/2000/svg" xmlns:xlink="http://www.w3.org/1999/xlink" width="60" height="22" version="1.1" viewBox="0 0 60 22"><title>372 - Reading List (Flat)</title><desc>Created with Sketch.</desc><g id="Page-1" fill="none" fill-rule="evenodd" stroke="none" stroke-width="1"><g id="Icons" transform="translate(-1080.000000, -377.000000)"><g id="372---Reading-List-(Flat)" transform="translate(1081.000000, 377.000000)"><path id="Fill-318" fill="#7383BF" d="M25,11 C25,17.075 20.188,22 14.072,22 C7.957,22 3,17.075 3,11 C3,4.925 7.957,0 14.072,0 C20.188,0 25,4.925 25,11"/><path id="Fill-319" fill="#7383BF" d="M55,11 C55,17.075 50.187,22 44.072,22 C37.957,22 33,17.075 33,11 C33,4.925 37.957,0 44.072,0 C50.187,0 55,4.925 55,11"/><path id="Stroke-320" stroke="#556080" stroke-linecap="round" stroke-linejoin="round" stroke-width="2" d="M33,11 C30.805,7.444 27.195,7.444 25,11 M3,11 L0,11 M55,10 L58,10"/></g></g></g></svg>