<svg xmlns="http://www.w3.org/2000/svg" xmlns:xlink="http://www.w3.org/1999/xlink" width="50" height="50" version="1.1" viewBox="0 0 50 50"><title>225 - Help (Flat)</title><desc>Created with Sketch.</desc><g id="Page-1" fill="none" fill-rule="evenodd" stroke="none" stroke-width="1"><g id="225---Help-(Flat)"><path id="Fill-724" fill="#48A0DC" d="M50,25 C50,38.807 38.807,50 25,50 C11.193,50 0,38.807 0,25 C0,11.193 11.193,0 25,0 C38.807,0 50,11.193 50,25"/><path id="Stroke-727" stroke="#FFF" stroke-linecap="round" stroke-width="2" d="M25,37 L25,39 M18,16 C18,12.101 21.188,8.947 25.1,9.001 C28.817,9.053 31.948,12.183 31.999,15.901 C32.034,18.411 30.747,20.624 28.79,21.886 C26.355,23.457 25,26.261 25,29.158 L25,32"/></g></g></svg>