<svg xmlns="http://www.w3.org/2000/svg" xmlns:xlink="http://www.w3.org/1999/xlink" width="57" height="49" version="1.1" viewBox="0 0 57 49"><title>369 - Hide (Flat)</title><desc>Created with Sketch.</desc><g id="Page-1" fill="none" fill-rule="evenodd" stroke="none" stroke-width="1"><g id="Icons" transform="translate(-240.000000, -482.000000)"><g id="369---Hide-(Flat)" transform="translate(240.000000, 483.000000)"><path id="Fill-279" fill="#E8EDEE" d="M57,24.128 L49.766,31.362 C38.249,42.88 19.576,42.88 8.059,31.362 L0.628,23.932 L7.862,16.698 C19.379,5.181 38.052,5.181 49.569,16.698 L57,24.128"/><path id="Fill-280" fill="#3083C9" d="M40.787,24 C40.787,30.628 35.414,36 28.787,36 C22.159,36 16.787,30.628 16.787,24 C16.787,17.373 22.159,12 28.787,12 C35.414,12 40.787,17.373 40.787,24"/><path id="Stroke-312" stroke="#ECBA16" stroke-linecap="round" stroke-width="2" d="M6.68,47 L53.18,0.5"/><path id="Fill-1834" fill="#FFF" d="M22,24 C21.448,24 21,23.552 21,23 C21,19.14 24.14,16 28,16 C28.552,16 29,16.448 29,17 C29,17.552 28.552,18 28,18 C25.243,18 23,20.243 23,23 C23,23.552 22.552,24 22,24"/></g></g></g></svg>