<svg xmlns="http://www.w3.org/2000/svg" xmlns:xlink="http://www.w3.org/1999/xlink" width="60" height="48" version="1.1" viewBox="0 0 60 48"><title>235 - High Volume (Flat)</title><desc>Created with Sketch.</desc><g id="Page-1" fill="none" fill-rule="evenodd" stroke="none" stroke-width="1"><g id="235---High-Volume-(Flat)" transform="translate(1.000000, 0.000000)"><path id="Fill-719" fill="#E8EDEE" d="M0,14 L0,33 L11,32.995 L24.83,45.7 C26.232,46.544 28,45.509 28,43.844 L28,4.156 C28,2.491 26.232,1.457 24.83,2.301 L11,14 L0,14 L0,14 Z"/><path id="Stroke-720" stroke="#C7CBC7" stroke-linecap="round" stroke-linejoin="round" stroke-width="2" d="M0,14 L0,33 L11,32.995 L24.83,45.7 C26.232,46.544 28,45.509 28,43.844 L28,4.156 C28,2.491 26.232,1.457 24.83,2.301 L11,14 L0,14 L0,14 Z"/><path id="Fill-859" fill="#E8EDEE" d="M11,14 L11,19"/><path id="Stroke-860" stroke="#C7CBC7" stroke-linecap="round" stroke-width="2" d="M11,14 L11,19"/><path id="Fill-861" fill="#E8EDEE" d="M11,28 L11,33"/><path id="Stroke-862" stroke="#C7CBC7" stroke-linecap="round" stroke-width="2" d="M11,28 L11,33"/><path id="Stroke-863" stroke="#C7CBC7" stroke-linecap="round" stroke-linejoin="round" stroke-width="2" d="M37.501,41 C44.784,38.516 50.027,31.625 50.027,23.5 C50.027,15.367 44.771,8.478 37.476,6 M42.347,46.347 C51.504,42.798 58,33.911 58,23.5 C58,13.362 51.842,4.663 43.063,0.937 M32,35.501 C37.212,33.995 41.027,29.197 41.027,23.5 C41.027,17.803 37.212,13.006 32,11.5"/></g></g></svg>