<svg xmlns="http://www.w3.org/2000/svg" xmlns:xlink="http://www.w3.org/1999/xlink" width="58" height="58" version="1.1" viewBox="0 0 58 58"><title>238 - High Volume (Flat)</title><desc>Created with Sketch.</desc><g id="Page-1" fill="none" fill-rule="evenodd" stroke="none" stroke-width="1"><g id="238---High-Volume-(Flat)"><path id="Fill-791" fill="#38454F" d="M58,29 C58,45.017 45.016,58 29,58 C12.984,58 0,45.017 0,29 C0,12.984 12.984,0 29,0 C45.016,0 58,12.984 58,29"/><path id="Fill-1919" fill="#7383BF" d="M16.427,20 L8.104,20 C6.942,20 6,20.942 6,22.104 L6,34.896 C6,36.058 6.942,37 8.104,37 L16.427,37 C16.802,37 17.17,37.101 17.494,37.291 L30.83,49.707 C32.232,50.531 34,49.52 34,47.893 L34,9.107 C34,7.48 32.232,6.469 30.83,7.294 L17.494,19.709 C17.17,19.9 16.802,20 16.427,20"/><path id="Fill-1921" fill="#F0CE49" d="M41.54,42.042 C41.285,42.042 41.029,41.945 40.833,41.749 C40.443,41.359 40.443,40.726 40.833,40.335 C47.071,34.097 47.071,23.945 40.833,17.707 C40.443,17.317 40.443,16.684 40.833,16.293 C41.224,15.902 41.857,15.902 42.248,16.293 C49.266,23.312 49.266,34.731 42.248,41.749 C42.052,41.945 41.796,42.042 41.54,42.042"/><path id="Fill-1922" fill="#F0CE49" d="M38,38 C37.744,38 37.488,37.902 37.293,37.707 C36.902,37.316 36.902,36.684 37.293,36.293 C41.59,31.996 41.59,25.004 37.293,20.707 C36.902,20.317 36.902,19.684 37.293,19.293 C37.684,18.902 38.316,18.902 38.707,19.293 C43.784,24.37 43.784,32.63 38.707,37.707 C38.512,37.902 38.256,38 38,38"/><path id="Fill-1923" fill="#F0CE49" d="M44.476,47 C44.22,47 43.964,46.902 43.769,46.707 C43.378,46.316 43.378,45.684 43.769,45.293 C48.125,40.937 50.524,35.152 50.524,29 C50.524,22.849 48.125,17.062 43.769,12.707 C43.378,12.316 43.378,11.684 43.769,11.293 C44.16,10.902 44.793,10.902 45.183,11.293 C49.917,16.027 52.524,22.315 52.524,29 C52.524,35.686 49.917,41.974 45.183,46.707 C44.988,46.902 44.732,47 44.476,47"/></g></g></svg>