<svg xmlns="http://www.w3.org/2000/svg" xmlns:xlink="http://www.w3.org/1999/xlink" width="58" height="58" version="1.1" viewBox="0 0 58 58"><title>374 - Home (Flat)</title><desc>Created with Sketch.</desc><g id="Page-1" fill="none" fill-rule="evenodd" stroke="none" stroke-width="1"><g id="Icons" transform="translate(-841.000000, -357.000000)"><g id="374---Home-(Flat)" transform="translate(842.000000, 359.000000)"><path id="Fill-300" fill="#E8EDEE" d="M28,0 L5,21.357 L5,56 L51,56 L51,21.357 L28,0"/><path id="Fill-303" fill="#25AE88" d="M13,21 L25,21 L25,33 L13,33 L13,21 Z"/><path id="Fill-304" fill="#25AE88" d="M31,21 L43,21 L43,33 L31,33 L31,21 Z"/><path id="Fill-305" fill="#25AE88" d="M13,39 L25,39 L25,51 L13,51 L13,39 Z"/><path id="Fill-306" fill="#25AE88" d="M31,39 L43,39 L43,51 L31,51 L31,39 Z"/><path id="Stroke-2262" stroke="#556080" stroke-linecap="round" stroke-width="2" d="M0,26 L28,0 L56,26"/></g></g></g></svg>