<svg xmlns="http://www.w3.org/2000/svg" xmlns:xlink="http://www.w3.org/1999/xlink" width="60" height="57" version="1.1" viewBox="0 0 60 57"><title>373 - Home (Flat)</title><desc>Created with Sketch.</desc><g id="Page-1" fill="none" fill-rule="evenodd" stroke="none" stroke-width="1"><g id="Icons" transform="translate(-960.000000, -360.000000)"><g id="373---Home-(Flat)" transform="translate(960.000000, 360.000000)"><path id="Fill-307" fill="#B12621" d="M53.792,26.528 L30,8.187 L6.208,26.528 C4.98,27.475 3.234,27.329 2.179,26.193 C0.985,24.906 1.146,22.873 2.529,21.791 L27.959,1.896 L30,0 L32.041,1.896 L57.471,21.791 C58.854,22.873 59.015,24.906 57.821,26.193 C56.766,27.329 55.02,27.475 53.792,26.528"/><path id="Fill-308" fill="#B12621" d="M53.792,26.528 L30,8.187 L6.208,26.528 C4.98,27.475 3.234,27.329 2.179,26.193 C0.985,24.906 1.146,22.873 2.529,21.791 L27.959,1.896 L30,0 L32.041,1.896 L57.471,21.791 C58.854,22.873 59.015,24.906 57.821,26.193 C56.766,27.329 55.02,27.475 53.792,26.528"/><path id="Fill-309" fill="#E0E2E3" d="M30,8.187 L7,25.917 L7,56 L53,56 L53,25.917 L30,8.187"/><path id="Fill-310" fill="#E0E2E3" d="M59,46 C58.447,46 58,46.448 58,47 L58,48 L57,48 L57,47 C57,46.448 56.553,46 56,46 C55.447,46 55,46.448 55,47 L55,48 L53,48 C52.447,48 52,48.448 52,49 C52,49.553 52.447,50 53,50 L55,50 L55,53 L53,53 C52.447,53 52,53.448 52,54 C52,54.552 52.447,55 53,55 L55,55 L55,56 C55,56.552 55.447,57 56,57 C56.553,57 57,56.552 57,56 L57,55 L58,55 L58,56 C58,56.552 58.447,57 59,57 C59.553,57 60,56.552 60,56 L60,47 C60,46.448 59.553,46 59,46 L59,46 Z M57,50 L58,50 L58,53 L57,53 L57,50 Z"/><path id="Fill-311" fill="#E0E2E3" d="M7,50 C7.553,50 8,49.553 8,49 C8,48.448 7.553,48 7,48 L5,48 L5,47 C5,46.448 4.553,46 4,46 C3.447,46 3,46.448 3,47 L3,48 L2,48 L2,47 C2,46.448 1.553,46 1,46 C0.447,46 0,46.448 0,47 L0,56 C0,56.552 0.447,57 1,57 C1.553,57 2,56.552 2,56 L2,55 L3,55 L3,56 C3,56.552 3.447,57 4,57 C4.553,57 5,56.552 5,56 L5,55 L7,55 C7.553,55 8,54.552 8,54 C8,53.448 7.553,53 7,53 L5,53 L5,50 L7,50 L7,50 Z M2,50 L3,50 L3,53 L2,53 L2,50 Z"/><path id="Fill-1827" fill="#556080" d="M15,25 L27,25 L27,33 L15,33 L15,25 Z"/><path id="Fill-1828" fill="#556080" d="M15,39 L27,39 L27,49 L15,49 L15,39 Z"/><path id="Fill-1829" fill="#556080" d="M33,25 L45,25 L45,33 L33,33 L33,25 Z"/><path id="Fill-1830" fill="#556080" d="M33,39 L45,39 L45,56 L33,56 L33,39 Z"/><path id="Fill-2263" fill="#7383BF" d="M33,25 L45,25 L45,31 L33,31 L33,25 Z"/><path id="Fill-2264" fill="#7383BF" d="M15,25 L27,25 L27,27.766 L15,27.766 L15,25 Z"/><path id="Fill-2265" fill="#7383BF" d="M22,43 L22,39 L20,39 L20,43 L15,43 L15,45 L20,45 L20,49 L22,49 L22,45 L27,45 L27,43 L22,43"/></g></g></g></svg>