<svg xmlns="http://www.w3.org/2000/svg"  viewBox="0 0 64 64" width="50px" height="50px"><radialGradient id="5GTx_cvE6Jb_219i0tHdza" cx="242.826" cy="289.333" r="203.367" gradientTransform="matrix(1 0 0 -1 0 66)" gradientUnits="userSpaceOnUse"><stop offset="0" stop-color="#eed7a2"/><stop offset=".106" stop-color="#f1dcab"/><stop offset=".437" stop-color="#f8e8c3"/><stop offset=".744" stop-color="#fcefd2"/><stop offset="1" stop-color="#fef2d7"/></radialGradient><path fill="url(#5GTx_cvE6Jb_219i0tHdza)" d="M51.73,40.73C51.28,41.18,51,41.81,51,42.5c0,1.38,1.12,2.5,2.5,2.5h4.35	c1.92,0,3.69,1.29,4.07,3.17C62.43,50.74,60.48,53,58,53h-7c-0.55,0-1.05,0.22-1.41,0.59C49.22,53.95,49,54.45,49,55	c0,1.1,0.9,2,2,2h0.5c2.14,0,3.83,1.92,3.45,4.13c-0.3,1.7-1.92,2.87-3.65,2.87H11.5c-2.14,0-3.83-1.92-3.45-4.13	C8.35,58.17,9.97,57,11.7,57H12c0.83,0,1.58-0.34,2.12-0.88C14.66,55.58,15,54.83,15,54c0-1.66-1.34-3-3-3H6	c-2.14,0-3.89-1.68-3.99-3.8C2,47.19,2,47.19,2.01,47.18C2,47.12,2,47.06,2,47c0-1.1,0.45-2.1,1.17-2.83C3.9,43.45,4.9,43,6,43h0.06	c0.81-0.02,1.53-0.35,2.06-0.88C8.66,41.58,9,40.83,9,40c0-1.66-1.34-3-3-3H5c-3.1,0-5.54-2.82-4.9-6.03C0.58,28.61,2.79,27,5.19,27	H6c0.55,0,1.05-0.22,1.41-0.59C7.78,26.05,8,25.55,8,25c0-1.1-0.9-2-2-2H5.5c-2.14,0-3.83-1.92-3.45-4.13C2.35,17.17,3.97,16,5.7,16	H11c1.1,0,2.1-0.45,2.83-1.17C14.55,14.1,15,13.1,15,12s-0.45-2.1-1.17-2.83C13.1,8.45,12.1,8,11,8C8.52,8,6.57,5.74,7.08,3.17	C7.46,1.29,9.23,0,11.15,0H54c2.48,0,4.43,2.26,3.92,4.83C57.54,6.71,55.77,8,53.85,8H52.5c-0.96,0-1.84,0.39-2.47,1.03	C49.39,9.66,49,10.54,49,11.5c0,1.93,1.57,3.5,3.5,3.5h5c2.79,0,4.99,2.54,4.41,5.43C61.48,22.55,59.49,24,57.33,24H57	c-1.1,0-2.1,0.45-2.83,1.17C53.45,25.9,53,26.9,53,28c0,2.21,1.79,4,4,4h2c2.48,0,4.43,2.26,3.92,4.83	C62.54,38.71,60.77,40,58.85,40H53.5C52.81,40,52.18,40.28,51.73,40.73z"/><radialGradient id="5GTx_cvE6Jb_219i0tHdzb" cx="83.979" cy="33.427" r="22.343" gradientTransform="matrix(1 0 0 -1 0 66)" gradientUnits="userSpaceOnUse"><stop offset="0" stop-color="#eed7a2"/><stop offset=".106" stop-color="#f1dcab"/><stop offset=".437" stop-color="#f8e8c3"/><stop offset=".744" stop-color="#fcefd2"/><stop offset="1" stop-color="#fef2d7"/></radialGradient><circle cx="60.5" cy="60.5" r="3.5" fill="url(#5GTx_cvE6Jb_219i0tHdzb)"/><path fill="#cbcbcb" d="M32,20c-1.104,0-2-0.896-2-2V8c0-1.104,0.896-2,2-2s2,0.896,2,2v10C34,19.104,33.104,20,32,20z"/><path fill="#d0d0d0" d="M25.002,21.876c-0.691,0-1.363-0.358-1.734-1l-5-8.66c-0.552-0.957-0.225-2.18,0.732-2.732	c0.956-0.554,2.18-0.224,2.732,0.732l5,8.66c0.552,0.957,0.225,2.18-0.732,2.732C25.686,21.79,25.341,21.876,25.002,21.876z"/><path fill="#d6d6d6" d="M19.874,27c-0.339,0-0.683-0.086-0.998-0.268l-8.66-5C9.259,21.18,8.932,19.957,9.483,19	c0.553-0.956,1.773-1.286,2.732-0.732l8.66,5c0.957,0.553,1.284,1.775,0.732,2.732C21.237,26.642,20.565,27,19.874,27z"/><path fill="#ddd" d="M18,34H8c-1.104,0-2-0.896-2-2s0.896-2,2-2h10c1.104,0,2,0.896,2,2S19.104,34,18,34z"/><linearGradient id="5GTx_cvE6Jb_219i0tHdzc" x1="15.546" x2="15.546" y1="20" y2="29.001" gradientTransform="matrix(1 0 0 -1 0 66)" gradientUnits="userSpaceOnUse"><stop offset="0" stop-color="#e4e4e4"/><stop offset=".619" stop-color="#d7d7d7"/><stop offset="1" stop-color="#cfcfcf"/><stop offset="1" stop-color="#cfcfcf"/></linearGradient><path fill="url(#5GTx_cvE6Jb_219i0tHdzc)" d="M11.218,46c-0.691,0-1.363-0.358-1.734-1c-0.552-0.957-0.225-2.18,0.732-2.732l8.66-5	c0.955-0.553,2.18-0.225,2.732,0.732c0.552,0.957,0.225,2.18-0.732,2.732l-8.66,5C11.901,45.914,11.557,46,11.218,46z"/><path fill="#717171" d="M19.998,54.784c-0.339,0-0.683-0.086-0.998-0.268c-0.957-0.553-1.284-1.775-0.732-2.732l5-8.66	c0.553-0.956,1.772-1.285,2.732-0.732c0.957,0.553,1.284,1.775,0.732,2.732l-5,8.66C21.361,54.426,20.689,54.784,19.998,54.784z"/><path fill="#7f7f7f" d="M32,58c-1.104,0-2-0.896-2-2V46c0-1.104,0.896-2,2-2s2,0.896,2,2v10C34,57.104,33.104,58,32,58z"/><path fill="#8d8d8d" d="M44.002,54.784c-0.691,0-1.363-0.358-1.734-1l-5-8.66c-0.552-0.957-0.225-2.18,0.732-2.732	c0.955-0.553,2.179-0.224,2.732,0.732l5,8.66c0.552,0.957,0.225,2.18-0.732,2.732C44.686,54.698,44.341,54.784,44.002,54.784z"/><path fill="#a1a1a1" d="M52.782,46c-0.339,0-0.683-0.086-0.998-0.268l-8.66-5C42.167,40.18,41.84,38.957,42.392,38	c0.553-0.957,1.772-1.285,2.732-0.732l8.66,5c0.957,0.553,1.284,1.775,0.732,2.732C54.146,45.642,53.474,46,52.782,46z"/><path fill="#acacac" d="M56,34H46c-1.104,0-2-0.896-2-2s0.896-2,2-2h10c1.104,0,2,0.896,2,2S57.104,34,56,34z"/><path fill="#b5b5b5" d="M44.126,27c-0.691,0-1.363-0.358-1.734-1c-0.552-0.957-0.225-2.18,0.732-2.732l8.66-5	c0.955-0.554,2.18-0.224,2.732,0.732c0.552,0.957,0.225,2.18-0.732,2.732l-8.66,5C44.81,26.914,44.465,27,44.126,27z"/><path fill="#bebebe" d="M38.998,21.876c-0.339,0-0.683-0.086-0.998-0.268c-0.957-0.553-1.284-1.775-0.732-2.732l5-8.66	C42.819,9.26,44.04,8.93,45,9.483c0.957,0.553,1.284,1.775,0.732,2.732l-5,8.66C40.361,21.518,39.689,21.876,38.998,21.876z"/></svg>