<svg xmlns="http://www.w3.org/2000/svg"  viewBox="0 0 64 64" width="50px" height="50px"><radialGradient id="Z5MYSvLAb~Ay1RXOEZIMAa" cx="32" cy="32" r="31.016" gradientUnits="userSpaceOnUse" spreadMethod="reflect"><stop offset="0" stop-color="#f4e09d"/><stop offset=".226" stop-color="#f8e8b5"/><stop offset=".513" stop-color="#fcf0cd"/><stop offset=".778" stop-color="#fef4dc"/><stop offset="1" stop-color="#fff6e1"/></radialGradient><path fill="url(#Z5MYSvLAb~Ay1RXOEZIMAa)" d="M60.5,51c2.168,0,3.892-1.998,3.422-4.243C63.58,45.122,62.061,44,60.391,44 C56.838,44,48.763,44,45,44c-1.105,0-2-0.895-2-2v0c0-1.105,0.895-2,2-2l6.385,0c1.67,0,3.195-1.122,3.537-2.757 C55.392,34.998,53.668,33,51.5,33h-7c-1.381,0-2.5-1.119-2.5-2.5v0c0-1.381,1.119-2.5,2.5-2.5l0.5-3l-1-3l14.288,0 c2.347,0,4.453-1.704,4.689-4.039C63.247,15.282,61.127,13,58.5,13H52c-1.105,0-2-0.895-2-2v0c0-1.105,0.895-2,2-2l5.385,0 c1.67,0,3.195-1.122,3.537-2.757C61.392,3.998,59.668,2,57.5,2L22.615,2c-1.67,0-3.195,1.122-3.537,2.757 C18.608,7.002,20.332,9,22.5,9H26c1.657,0,3,1.343,3,3v0c0,1.657-1.343,3-3,3L6.615,15c-1.67,0-3.195,1.122-3.537,2.757 C2.608,20.002,4.332,22,6.5,22H7c1.105,0,2,0.895,2,2v0c0,1.105-0.895,2-2,2l-2.288,0c-2.347,0-4.453,1.704-4.689,4.038 C-0.248,32.718,1.873,35,4.5,35H7c1.105,0,2,0.895,2,2v0c0,1.105-0.895,2-2,2l-1.385,0c-1.67,0-3.195,1.122-3.537,2.757 C1.608,44.002,3.332,46,5.5,46H25v1v5c0,1.657-1.343,3-3,3l-2.385,0c-1.67,0-3.195,1.122-3.537,2.757 C15.608,60.002,17.332,62,19.5,62l38.885,0c1.67,0,3.195-1.122,3.537-2.757C62.392,56.998,60.668,55,58.5,55H57 c-1.105,0-2-0.895-2-2v0c0-1.105,0.895-2,2-2H60.5z"/><linearGradient id="Z5MYSvLAb~Ay1RXOEZIMAb" x1="24" x2="24" y1="23" y2="59" gradientUnits="userSpaceOnUse" spreadMethod="reflect"><stop offset="0" stop-color="#a4a4a4"/><stop offset=".63" stop-color="#7f7f7f"/><stop offset="1" stop-color="#6f6f6f"/><stop offset="1" stop-color="#6f6f6f"/></linearGradient><path fill="url(#Z5MYSvLAb~Ay1RXOEZIMAb)" d="M39.951,37.679l-3.519-0.947c-0.179-0.522-0.392-1.028-0.633-1.518l1.678-2.994 c0.625-1.085,0.444-2.454-0.442-3.34l-0.915-0.915c-0.885-0.885-2.255-1.066-3.34-0.442l-2.994,1.678 c-0.49-0.241-0.996-0.453-1.518-0.633l-0.947-3.519C26.995,23.84,25.899,23,24.647,23h-1.294c-1.252,0-2.348,0.84-2.674,2.049 l-0.947,3.519c-0.522,0.179-1.028,0.392-1.518,0.633l-2.994-1.678c-1.085-0.625-2.454-0.444-3.34,0.442l-0.915,0.915 c-0.885,0.885-1.067,2.255-0.442,3.34l1.678,2.994c-0.241,0.49-0.453,0.996-0.633,1.518l-3.519,0.947C6.84,38.005,6,39.101,6,40.353 v1.294c0,1.252,0.84,2.348,2.049,2.674l3.519,0.947c0.179,0.522,0.392,1.028,0.633,1.518l-1.678,2.994 c-0.625,1.085-0.444,2.455,0.442,3.34l0.915,0.915c0.885,0.885,2.255,1.067,3.34,0.442l2.994-1.678 c0.49,0.241,0.996,0.454,1.518,0.633l0.947,3.519C21.005,58.16,22.101,59,23.353,59h1.294c1.252,0,2.348-0.84,2.674-2.049 l0.947-3.519c0.522-0.179,1.028-0.392,1.518-0.633l2.994,1.678c1.085,0.625,2.454,0.444,3.34-0.442l0.915-0.915 c0.885-0.885,1.066-2.255,0.442-3.34l-1.678-2.994c0.241-0.49,0.453-0.996,0.633-1.518l3.519-0.947 C41.16,43.995,42,42.899,42,41.647v-1.294C42,39.101,41.16,38.005,39.951,37.679z"/><linearGradient id="Z5MYSvLAb~Ay1RXOEZIMAc" x1="24" x2="24" y1="34" y2="48" gradientUnits="userSpaceOnUse" spreadMethod="reflect"><stop offset="0" stop-color="#d8d8d8"/><stop offset=".759" stop-color="#c9c9c9"/><stop offset="1" stop-color="#c3c3c3"/></linearGradient><path fill="url(#Z5MYSvLAb~Ay1RXOEZIMAc)" d="M24 34A7 7 0 1 0 24 48A7 7 0 1 0 24 34Z"/><path fill="#fff" d="M24 38A3 3 0 1 0 24 44A3 3 0 1 0 24 38Z"/><linearGradient id="Z5MYSvLAb~Ay1RXOEZIMAd" x1="45" x2="45" y1="5" y2="31" gradientUnits="userSpaceOnUse" spreadMethod="reflect"><stop offset="0" stop-color="#a4a4a4"/><stop offset=".63" stop-color="#7f7f7f"/><stop offset="1" stop-color="#6f6f6f"/><stop offset="1" stop-color="#6f6f6f"/></linearGradient><path fill="url(#Z5MYSvLAb~Ay1RXOEZIMAd)" d="M53.701,22.918L56.278,23c0.677-0.003,1.268-0.458,1.443-1.112l0.228-0.85 c0.175-0.652-0.107-1.34-0.689-1.682l-2.263-1.278C54.996,18.053,55,18.027,55,18c0-0.927-0.136-1.821-0.372-2.673l1.937-2.009 c0.477-0.48,0.572-1.22,0.234-1.806l-0.44-0.762c-0.337-0.584-1.023-0.872-1.677-0.702l-2.558,0.939 c-0.651-0.661-1.394-1.229-2.207-1.689L50,6.722c-0.003-0.677-0.458-1.268-1.112-1.443l-0.85-0.228 c-0.652-0.175-1.34,0.107-1.682,0.689l-1.278,2.263C45.053,8.004,45.027,8,45,8c-0.927,0-1.821,0.136-2.673,0.372l-2.009-1.937 c-0.48-0.477-1.22-0.572-1.806-0.234l-0.762,0.44c-0.584,0.337-0.872,1.023-0.702,1.677l0.939,2.558 c-0.661,0.651-1.229,1.394-1.689,2.207L33.722,13c-0.677,0.003-1.268,0.458-1.443,1.112l-0.228,0.85 c-0.175,0.652,0.107,1.34,0.689,1.682l2.263,1.278C35.004,17.947,35,17.973,35,18c0,0.927,0.136,1.821,0.372,2.673l-1.937,2.009 c-0.477,0.48-0.572,1.22-0.234,1.806l0.44,0.762c0.337,0.584,1.023,0.872,1.677,0.702l2.558-0.939 c0.651,0.661,1.394,1.229,2.207,1.689L40,29.278c0.003,0.677,0.458,1.268,1.112,1.443l0.85,0.228 c0.652,0.175,1.34-0.107,1.682-0.689l1.278-2.263C44.947,27.996,44.973,28,45,28c0.927,0,1.821-0.136,2.673-0.372l2.009,1.937 c0.48,0.477,1.22,0.572,1.806,0.234l0.762-0.44c0.584-0.337,0.872-1.023,0.702-1.677l-0.939-2.558 C52.673,24.474,53.241,23.731,53.701,22.918z"/><linearGradient id="Z5MYSvLAb~Ay1RXOEZIMAe" x1="45" x2="45" y1="13" y2="23" gradientUnits="userSpaceOnUse" spreadMethod="reflect"><stop offset="0" stop-color="#d8d8d8"/><stop offset=".759" stop-color="#c9c9c9"/><stop offset="1" stop-color="#c3c3c3"/></linearGradient><path fill="url(#Z5MYSvLAb~Ay1RXOEZIMAe)" d="M45 13A5 5 0 1 0 45 23A5 5 0 1 0 45 13Z"/><path fill="#fff" d="M45 16A2 2 0 1 0 45 20A2 2 0 1 0 45 16Z"/></svg>