<svg xmlns="http://www.w3.org/2000/svg"  viewBox="0 0 48 48" width="50px" height="50px"><path fill="#50e6ff" d="M42,7H6C4.895,7,4,7.895,4,9v30c0,1.105,0.895,2,2,2h36c1.105,0,2-0.895,2-2V9	C44,7.895,43.105,7,42,7z"/><path d="M14.221,37C12.996,37,12,36.004,12,34.78v-9.96c-0.201-0.086-0.385-0.213-0.537-0.375l-1.019-1.074	c-0.306-0.32-0.463-0.74-0.442-1.182c0.02-0.442,0.214-0.847,0.547-1.14l11.964-10.491C22.922,10.199,23.45,10,24,10	s1.078,0.199,1.488,0.56l11.963,10.489c0.334,0.295,0.527,0.699,0.547,1.14c0.021,0.441-0.137,0.86-0.44,1.182l-1.023,1.078	c-0.15,0.16-0.333,0.287-0.534,0.373v9.959C35.955,36.033,34.969,37,33.755,37H14.221z" opacity=".05"/><path d="M14.221,36.5c-0.949,0-1.721-0.771-1.721-1.72V24.441c-0.258-0.03-0.493-0.148-0.673-0.339	l-1.021-1.076c-0.211-0.221-0.319-0.511-0.306-0.815c0.014-0.305,0.147-0.584,0.378-0.786l11.964-10.491	C23.161,10.654,23.572,10.5,24,10.5s0.839,0.154,1.157,0.435l11.964,10.49c0.229,0.203,0.364,0.481,0.378,0.786	c0.014,0.304-0.095,0.594-0.305,0.816l-1.022,1.077c-0.179,0.19-0.414,0.308-0.672,0.338V34.78c-0.035,0.972-0.802,1.72-1.745,1.72	H14.221z" opacity=".07"/><linearGradient id="8vDuh1YnrY93kspGbI~l7a" x1="13" x2="35" y1="-1247" y2="-1247" gradientTransform="matrix(1 0 0 -1 0 -1212)" gradientUnits="userSpaceOnUse"><stop offset="0" stop-color="#c8d3de"/><stop offset="1" stop-color="#c8d3de"/></linearGradient><path fill="url(#8vDuh1YnrY93kspGbI~l7a)" d="M35,34H13v0.78c0,0.674,0.546,1.22,1.221,1.22h19.534c0.675,0,1.221-0.546,1.245-1.22V34z"/><linearGradient id="8vDuh1YnrY93kspGbI~l7b" x1="17.838" x2="28.553" y1="-1228.17" y2="-1248.899" gradientTransform="matrix(1 0 0 -1 0 -1212)" gradientUnits="userSpaceOnUse"><stop offset="0" stop-color="#fcfcfc"/><stop offset=".495" stop-color="#f4f4f4"/><stop offset=".946" stop-color="#e8e8e8"/><stop offset="1" stop-color="#e8e8e8"/></linearGradient><path fill="url(#8vDuh1YnrY93kspGbI~l7b)" d="M35,34H13V22.183L24,11.61l11,10.573V34z"/><path fill="#de490d" d="M20.667,25h6.667C27.701,25,28,25.274,28,25.611V36h-8V25.611C20,25.274,20.299,25,20.667,25z"/><path d="M24,12.22c-0.289,0-0.578,0.102-0.809,0.307l-3.268,2.934l-6.899,6.516	v3.287L24,15.529l10.976,9.733v-3.287l-6.899-6.516l-3.268-2.934C24.578,12.322,24.289,12.22,24,12.22z" opacity=".05"/><path d="M24,11.61c-0.289,0-0.578,0.102-0.809,0.305l-3.268,2.917l-6.899,6.479	v3.268L24,14.901l10.976,9.677V21.31l-6.899-6.479l-3.268-2.917C24.578,11.712,24.289,11.61,24,11.61z" opacity=".07"/><linearGradient id="8vDuh1YnrY93kspGbI~l7c" x1="24" x2="24" y1="-1222.805" y2="-1236.385" gradientTransform="matrix(1 0 0 -1 0 -1212)" gradientUnits="userSpaceOnUse"><stop offset="0" stop-color="#d43a02"/><stop offset="1" stop-color="#b9360c"/></linearGradient><path fill="url(#8vDuh1YnrY93kspGbI~l7c)" d="M36.791,21.801L24.828,11.31C24.592,11.104,24.296,11,24,11s-0.592,0.104-0.828,0.31	l-11.963,10.49c-0.262,0.231-0.28,0.629-0.04,0.882l1.021,1.077c0.23,0.243,0.614,0.262,0.868,0.041L24,14.349l10.942,9.453	c0.253,0.22,0.637,0.202,0.868-0.041l1.021-1.077C37.071,22.43,37.053,22.031,36.791,21.801z"/></svg>