<svg xmlns="http://www.w3.org/2000/svg"  viewBox="0 0 48 48" width="50px" height="50px"><linearGradient id="UCU4lPikLbFTTh05evpQFa" x1="7.032" x2="41" y1="14.5" y2="14.5" gradientUnits="userSpaceOnUse"><stop offset="0" stop-color="#32bdef"/><stop offset="1" stop-color="#1ea2e4"/></linearGradient><path fill="url(#UCU4lPikLbFTTh05evpQFa)" d="M41,23h-4c0-7.168-5.832-13-13-13c-6.866,0-12.506,5.351-12.969,12.101 C10.996,22.613,10.549,23,10.036,23H8.033c-0.587,0-1.036-0.502-0.999-1.088C7.597,13.043,14.991,6,24,6C33.374,6,41,13.626,41,23z"/><linearGradient id="UCU4lPikLbFTTh05evpQFb" x1="9" x2="9" y1="26.064" y2="41.383" gradientUnits="userSpaceOnUse"><stop offset="0" stop-color="#0077d2"/><stop offset="1" stop-color="#0b59a2"/></linearGradient><path fill="url(#UCU4lPikLbFTTh05evpQFb)" d="M12,40H6c-1.105,0-2-0.895-2-2v-6c0-1.105,0.895-2,2-2h6c1.105,0,2,0.895,2,2v6	C14,39.105,13.105,40,12,40z"/><linearGradient id="UCU4lPikLbFTTh05evpQFc" x1="24" x2="24" y1="28.468" y2="41.428" gradientUnits="userSpaceOnUse"><stop offset="0" stop-color="#21ad64"/><stop offset="1" stop-color="#088242"/></linearGradient><path fill="url(#UCU4lPikLbFTTh05evpQFc)" d="M27,40h-6c-1.105,0-2-0.895-2-2v-6c0-1.105,0.895-2,2-2h6c1.105,0,2,0.895,2,2v6	C29,39.105,28.105,40,27,40z"/><linearGradient id="UCU4lPikLbFTTh05evpQFd" x1="39" x2="39" y1="26.064" y2="41.383" gradientUnits="userSpaceOnUse"><stop offset="0" stop-color="#0077d2"/><stop offset="1" stop-color="#0b59a2"/></linearGradient><path fill="url(#UCU4lPikLbFTTh05evpQFd)" d="M42,40h-6c-1.105,0-2-0.895-2-2v-6c0-1.105,0.895-2,2-2h6c1.105,0,2,0.895,2,2v6	C44,39.105,43.105,40,42,40z"/><linearGradient id="UCU4lPikLbFTTh05evpQFe" x1="38.875" x2="38.875" y1="7.426" y2="23.506" gradientUnits="userSpaceOnUse"><stop offset="0" stop-color="#32bdef"/><stop offset="1" stop-color="#1ea2e4"/></linearGradient><path fill="url(#UCU4lPikLbFTTh05evpQFe)" d="M38.119,26.127l-3.873-4.472C33.685,21.007,34.145,20,35.002,20h7.747	c0.857,0,1.317,1.007,0.756,1.655l-3.873,4.472C39.232,26.588,38.518,26.588,38.119,26.127z"/></svg>