<svg xmlns="http://www.w3.org/2000/svg"  viewBox="0 0 64 64" width="50px" height="50px"><radialGradient id="4nvV0ORz1dOHVswu8FEePa" cx="36" cy="30" r="26.875" gradientTransform="matrix(1 0 0 -1 0 63)" gradientUnits="userSpaceOnUse" spreadMethod="reflect"><stop offset="0" stop-color="#afeeff"/><stop offset=".193" stop-color="#bbf1ff"/><stop offset=".703" stop-color="#d7f8ff"/><stop offset="1" stop-color="#e1faff"/></radialGradient><path fill="url(#4nvV0ORz1dOHVswu8FEePa)" d="M5.5,4L5.5,4C3.015,4,1,6.015,1,8.5v0C1,10.985,3.015,13,5.5,13h0c2.485,0,4.5-2.015,4.5-4.5 v0C10,6.015,7.985,4,5.5,4z"/><radialGradient id="4nvV0ORz1dOHVswu8FEePb" cx="32" cy="29.5" r="30.775" gradientTransform="matrix(1 0 0 -1 0 63)" gradientUnits="userSpaceOnUse" spreadMethod="reflect"><stop offset="0" stop-color="#afeeff"/><stop offset=".193" stop-color="#bbf1ff"/><stop offset=".703" stop-color="#d7f8ff"/><stop offset="1" stop-color="#e1faff"/></radialGradient><path fill="url(#4nvV0ORz1dOHVswu8FEePb)" d="M64,41L64,41c0,2.761-2.239,5-5,5h-5c-2.761,0-5,2.238-5,5v0c0,2.762,2.238,5,5,5h3.565 C59.48,56,61,57.52,61,59.395l0,0.105c0,1.933-1.567,3.5-3.5,3.5h-49c-1.926,0-3.49-1.556-3.5-3.483L5,59.5 C4.99,57.57,6.553,56,8.483,56H12c2.209,0,4-1.791,4-4v0c0-2.209-1.791-4-4-4H5c-2.761,0-5-2.239-5-5v0c0-2.761,2.239-5,5-5h1 c2.209,0,4-1.791,4-4v0c0-2.209-1.791-4-4-4H5.5C2.462,30,0,27.538,0,24.5v0C0,21.462,2.462,19,5.5,19H19c1.657,0,3-1.343,3-3v0 c0-1.657-1.343-3-3-3h-1.5c-2.485,0-4.5-2.015-4.5-4.5v0C13,6.015,15.015,4,17.5,4H33h22c2.209,0,4,1.791,4,4v0 c0,2.209-1.791,4-4,4h-1.5c-1.933,0-3.5,1.567-3.5,3.5v0c0,1.933,1.567,3.5,3.5,3.5H60c2.209,0,4,1.791,4,4v0c0,2.209-1.791,4-4,4 h-1.5c-2.485,0-4.5,2.015-4.5,4.5v0c0,2.485,2.015,4.5,4.5,4.5H59C61.761,36,64,38.239,64,41z"/><linearGradient id="4nvV0ORz1dOHVswu8FEePc" x1="32" x2="32" y1="44.369" y2="-22.466" gradientUnits="userSpaceOnUse" spreadMethod="reflect"><stop offset="0" stop-color="#ff9757"/><stop offset="1" stop-color="#ffb65b"/><stop offset="1" stop-color="#ffb65b"/></linearGradient><path fill="url(#4nvV0ORz1dOHVswu8FEePc)" d="M8.036,48.199l20.967-36.465C29.62,10.661,30.763,10,32,10h0c1.237,0,2.38,0.661,2.997,1.734 l20.967,36.465c0.647,1.125,0.687,2.499,0.107,3.66l-0.001,0.002C55.414,53.172,54.074,54,52.608,54H11.392 c-1.466,0-2.806-0.828-3.461-2.139l-0.001-0.002C7.349,50.698,7.389,49.324,8.036,48.199z"/><path fill="#fff" d="M34,47c0,1.105-0.895,2-2,2s-2-0.895-2-2c0-1.105,0.895-2,2-2S34,45.895,34,47z M32,24 c-1.657,0-3,1.343-3,3l0.867,13.004C29.942,41.127,30.875,42,32,42s2.058-0.873,2.133-1.996L35,27C35,25.343,33.657,24,32,24z"/></svg>