<svg xmlns="http://www.w3.org/2000/svg"  viewBox="0 0 64 64" width="50px" height="50px"><radialGradient id="L86GY7HrP3aXinhv9Q0o7a" cx="32" cy="31.5" r="31.259" gradientUnits="userSpaceOnUse" spreadMethod="reflect"><stop offset="0" stop-color="#c5f1ff"/><stop offset=".35" stop-color="#cdf3ff"/><stop offset=".907" stop-color="#e4faff"/><stop offset="1" stop-color="#e9fbff"/></radialGradient><path fill="url(#L86GY7HrP3aXinhv9Q0o7a)" d="M58,54c-1.105,0-2-0.895-2-2c0-1.105,0.895-2,2-2h2.5c1.925,0,3.5-1.575,3.5-3.5 S62.425,43,60.5,43H50c-1.381,0-2.5-1.119-2.5-2.5c0-1.381,1.119-2.5,2.5-2.5h8c1.65,0,3-1.35,3-3c0-1.65-1.35-3-3-3H42v-6h18 c2.335,0,4.22-2.028,3.979-4.41C63.77,19.514,61.897,18,59.811,18H58c-1.105,0-2-0.895-2-2c0-1.105,0.895-2,2-2h0.357 c1.308,0,2.499-0.941,2.63-2.242C61.137,10.261,59.966,9,58.5,9h-14C43.672,9,43,8.328,43,7.5S43.672,6,44.5,6h3.857 c1.308,0,2.499-0.941,2.63-2.242C51.137,2.261,49.966,1,48.5,1L15.643,1c-1.308,0-2.499,0.941-2.63,2.242 C12.863,4.739,14.034,6,15.5,6H19c1.105,0,2,0.895,2,2c0,1.105-0.895,2-2,2H6.189c-2.086,0-3.958,1.514-4.168,3.59 C1.78,15.972,3.665,18,6,18h2.5c1.933,0,3.5,1.567,3.5,3.5c0,1.933-1.567,3.5-3.5,3.5H5.189c-2.086,0-3.958,1.514-4.168,3.59 C0.78,30.972,2.665,33,5,33h17v11H6c-1.65,0-3,1.35-3,3c0,1.65,1.35,3,3,3h0c1.105,0,2,0.895,2,2c0,1.105-0.895,2-2,2H4.189 c-2.086,0-3.958,1.514-4.168,3.59C-0.22,59.972,1.665,62,4,62h53.811c2.086,0,3.958-1.514,4.168-3.59C62.22,56.028,60.335,54,58,54z"/><linearGradient id="L86GY7HrP3aXinhv9Q0o7b" x1="32" x2="32" y1="59.075" y2="15.075" gradientUnits="userSpaceOnUse" spreadMethod="reflect"><stop offset="0" stop-color="#ff634d"/><stop offset=".204" stop-color="#fe6464"/><stop offset=".521" stop-color="#fc6581"/><stop offset=".794" stop-color="#fa6694"/><stop offset=".989" stop-color="#fa669a"/><stop offset="1" stop-color="#fa669a"/></linearGradient><path fill="url(#L86GY7HrP3aXinhv9Q0o7b)" d="M50,12H14c-2.209,0-4,1.791-4,4v36c0,2.209,1.791,4,4,4h36c2.209,0,4-1.791,4-4V16 C54,13.791,52.209,12,50,12z"/><path fill="#fff" d="M36 25h2c1.105 0 2 .895 2 2v14c0 1.105-.895 2-2 2h-2c-1.105 0-2-.895-2-2V27C34 25.895 34.895 25 36 25zM26 25h2c1.105 0 2 .895 2 2v14c0 1.105-.895 2-2 2h-2c-1.105 0-2-.895-2-2V27C24 25.895 24.895 25 26 25z"/></svg>