<svg xmlns="http://www.w3.org/2000/svg"  viewBox="0 0 64 64" width="50px" height="50px"><radialGradient id="u_Iv9Fzi4QpuYiDapZyuoa" cx="32" cy="32.5" r="31.259" gradientUnits="userSpaceOnUse" spreadMethod="reflect"><stop offset="0" stop-color="#f4e9c3"/><stop offset=".219" stop-color="#f8eecd"/><stop offset=".644" stop-color="#fdf4dc"/><stop offset="1" stop-color="#fff6e1"/></radialGradient><path fill="url(#u_Iv9Fzi4QpuYiDapZyuoa)" d="M57,49c0,1.66-1.34,3-3,3h-0.5c-1.38,0-2.5,1.12-2.5,2.5s1.12,2.5,2.5,2.5H59 c1.66,0,3,1.34,3,3c0,1.66-1.34,3-3,3H19c-1.66,0-3-1.34-3-3c0-1.66,1.34-3,3-3h5.5c1.38,0,2.5-1.12,2.5-2.5S25.88,52,24.5,52H3 c-1.66,0-3-1.34-3-3c0-1.66,1.34-3,3-3h0.5C4.88,46,6,44.88,6,43.5S4.88,41,3.5,41h-1C1.12,41,0,39.88,0,38.5S1.12,36,2.5,36h15 c0.69,0,1.32-0.28,1.77-0.73C19.72,34.82,20,34.19,20,33.5c0-1.38-1.12-2.5-2.5-2.5H13v-6h13v-7.19C25.69,17.93,25.35,18,25,18H4 c-1.65,0-3-1.35-3-3c0-1.65,1.35-3,3-3h6.5c1.38,0,2.5-1.12,2.5-2.5c0-0.69-0.28-1.32-0.73-1.77C11.82,7.28,11.19,7,10.5,7h-3 C5.9,7,4.64,5.48,5.09,3.82C5.39,2.72,6.45,2,7.59,2H51.5c1.6,0,2.86,1.52,2.41,3.18C53.61,6.28,52.55,7,51.41,7H45.5 C44.67,7,44,7.67,44,8.5c0,0.83,0.67,1.5,1.5,1.5l12.781,0.008c1.45,0,2.79,0.97,3.07,2.4c0.38,1.91-1.09,3.6-2.94,3.6h-2 c-1.1,0-2,0.9-2,2c0,1.1,0.9,2,2,2h5.09c1.59,0,2.85,1.52,2.41,3.18c-0.3,1.1-1.36,1.82-2.5,1.82L50,25c-1.1,0-2,0.9-2,2 c0,1.1,0.9,4,2,4h0.5c1.6,0,2.86,2.52,2.41,4.18c-0.3,1.1-1.36,1.82-2.5,1.82H47.5c-0.83,0-1.5,0.67-1.5,1.5c0,0.83-1.83,1.5-1,1.5 c1.6,0,2.86,1.52,2.41,3.18c-0.3,1.1-0.382,1.82-1.506,1.82H41.4l3.594,1H54C55.66,46,57,47.34,57,49z"/><linearGradient id="u_Iv9Fzi4QpuYiDapZyuob" x1="15.5" x2="15.5" y1="8.873" y2="14.873" gradientUnits="userSpaceOnUse" spreadMethod="reflect"><stop offset="0" stop-color="#a4a4a4"/><stop offset=".63" stop-color="#7f7f7f"/><stop offset="1" stop-color="#6f6f6f"/><stop offset="1" stop-color="#6f6f6f"/></linearGradient><path fill="url(#u_Iv9Fzi4QpuYiDapZyuob)" d="M16,19h-1c-1.65,0-3-1.35-3-3v0c0-1.65,1.35-3,3-3h1c1.65,0,3,1.35,3,3v0 C19,17.65,17.65,19,16,19z"/><linearGradient id="u_Iv9Fzi4QpuYiDapZyuoc" x1="32" x2="32" y1=".713" y2="52.767" gradientUnits="userSpaceOnUse" spreadMethod="reflect"><stop offset="0" stop-color="#a4a4a4"/><stop offset=".63" stop-color="#7f7f7f"/><stop offset="1" stop-color="#6f6f6f"/><stop offset="1" stop-color="#6f6f6f"/></linearGradient><path fill="url(#u_Iv9Fzi4QpuYiDapZyuoc)" d="M11,16h42c2.2,0,4,1.8,4,4v30c0,2.2-1.8,4-4,4H11c-2.2,0-4-1.8-4-4V20C7,17.8,8.8,16,11,16z"/><linearGradient id="u_Iv9Fzi4QpuYiDapZyuod" x1="32" x2="32" y1="5.268" y2="14.867" gradientUnits="userSpaceOnUse" spreadMethod="reflect"><stop offset="0" stop-color="#a4a4a4"/><stop offset=".63" stop-color="#7f7f7f"/><stop offset="1" stop-color="#6f6f6f"/><stop offset="1" stop-color="#6f6f6f"/></linearGradient><path fill="url(#u_Iv9Fzi4QpuYiDapZyuod)" d="M39.874,12.456C39.332,11.553,38.355,11,37.301,11H32h-5.301c-1.054,0-2.03,0.553-2.572,1.456 L22,16h10h10L39.874,12.456z"/><path fill="#fff" d="M31,48c-7.168,0-13-5.832-13-13s5.832-13,13-13s13,5.832,13,13c0,1.104-0.896,2-2,2s-2-0.896-2-2 c0-4.963-4.038-9-9-9s-9,4.037-9,9s4.038,9,9,9c1.104,0,2,0.896,2,2S32.104,48,31,48z"/><path fill="#fff" d="M46.572,32h-9.145c-1.174,0-1.845,1.349-1.14,2.294l4.572,6.133c0.57,0.764,1.71,0.764,2.28,0 l4.572-6.133C48.417,33.349,47.747,32,46.572,32z"/><linearGradient id="u_Iv9Fzi4QpuYiDapZyuoe" x1="50.5" x2="50.5" y1="53.646" y2="39.6" gradientUnits="userSpaceOnUse" spreadMethod="reflect"><stop offset="0" stop-color="#696969"/><stop offset="1" stop-color="#6f6f6f"/></linearGradient><path fill="url(#u_Iv9Fzi4QpuYiDapZyuoe)" d="M48,41.5L48,41.5c0,1.381,1.119,2.5,2.5,2.5h0c1.381,0,2.5,1.119,2.5,2.5v0 c0,1.381-1.119,2.5-2.5,2.5h-4c-1.381,0-2.5,1.119-2.5,2.5v0c0,1.381,1.119,2.5,2.5,2.5H53c2.209,0,4-1.791,4-4v-1v-5v-5h-6.5 C49.119,39,48,40.119,48,41.5z"/></svg>