<svg xmlns="http://www.w3.org/2000/svg"  viewBox="0 0 64 64" width="50px" height="50px"><radialGradient id="zOL7hfMpBN7MwCdpGCKKta" cx="32" cy="30.5" r="31.259" gradientUnits="userSpaceOnUse" spreadMethod="reflect"><stop offset="0" stop-color="#eed7a2"/><stop offset=".106" stop-color="#f1dcab"/><stop offset=".437" stop-color="#f8e8c3"/><stop offset=".744" stop-color="#fcefd2"/><stop offset="1" stop-color="#fef2d7"/></radialGradient><path fill="url(#zOL7hfMpBN7MwCdpGCKKta)" d="M57,53c-1.105,0-2-0.895-2-2c0-1.105,0.895-2,2-2h1.5c1.925,0,3.5-1.575,3.5-3.5 S60.425,42,58.5,42H50c-1.381,0-2.5-1.119-2.5-2.5c0-1.381,1.119-2.5,2.5-2.5l-8-6v-6h18c2.335,0,4.22-2.028,3.979-4.41 C63.77,18.514,61.897,17,59.811,17H59c-1.105,0-2-0.895-2-2c0-1.105,0.895-2,2-2h0.357c1.308,0,2.499-0.941,2.63-2.242 C62.137,9.261,60.966,8,59.5,8h-15C43.672,8,43,7.328,43,6.5S43.672,5,44.5,5h3.857c1.308,0,2.499-0.941,2.63-2.242 C51.137,1.261,49.966,0,48.5,0L15.643,0c-1.308,0-2.499,0.941-2.63,2.242C12.863,3.739,14.034,5,15.5,5H19c1.105,0,2,0.895,2,2 c0,1.105-0.895,2-2,2H6.189c-2.086,0-3.958,1.514-4.168,3.59C1.78,14.972,3.665,17,6,17h2.5c1.933,0,3.5,1.567,3.5,3.5 c0,1.933-1.567,3.5-3.5,3.5H5.189c-2.086,0-3.958,1.514-4.168,3.59C0.78,29.972,2.665,32,5,32h17v11H6c-1.65,0-3,1.35-3,3 c0,1.65,1.35,3,3,3h0c1.105,0,2,0.895,2,2c0,1.105-0.895,2-2,2H4.189c-2.086,0-3.958,1.514-4.168,3.59C-0.22,58.972,1.665,61,4,61 h52.811c2.086,0,3.958-1.514,4.168-3.59C61.22,55.028,59.335,53,57,53z"/><linearGradient id="zOL7hfMpBN7MwCdpGCKKtb" x1="32" x2="32" y1="56.414" y2="19.414" gradientUnits="userSpaceOnUse" spreadMethod="reflect"><stop offset="0" stop-color="#3280e5"/><stop offset=".076" stop-color="#3487e6"/><stop offset=".449" stop-color="#3ca4ed"/><stop offset=".77" stop-color="#41b7f1"/><stop offset="1" stop-color="#43bdf2"/></linearGradient><path fill="url(#zOL7hfMpBN7MwCdpGCKKtb)" d="M53.333,41.382L44.341,18H32H19.659l-8.993,23.382c-0.659,1.713-0.833,3.573-0.505,5.379 l1.051,5.779c0.259,1.425,1.5,2.461,2.949,2.461c0.943,0,1.832-0.444,2.398-1.199l1.201-1.601c0.567-0.755,1.456-1.2,2.4-1.2H32 h11.841c0.944,0,1.833,0.445,2.4,1.2l1.201,1.601C48.007,54.556,48.896,55,49.839,55c1.448,0,2.69-1.036,2.949-2.461l1.051-5.779 C54.167,44.955,53.992,43.094,53.333,41.382z"/><path fill="#fff" d="M25.5,33h-3c-0.825,0-1.5-0.675-1.5-1.5v0c0-0.825,0.675-1.5,1.5-1.5h3c0.825,0,1.5,0.675,1.5,1.5v0 C27,32.325,26.325,33,25.5,33z M35,31.5L35,31.5c0-0.825-0.675-1.5-1.5-1.5h-3c-0.825,0-1.5,0.675-1.5,1.5v0 c0,0.825,0.675,1.5,1.5,1.5h3C34.325,33,35,32.325,35,31.5z M43,31.5L43,31.5c0-0.825-0.675-1.5-1.5-1.5h-3 c-0.825,0-1.5,0.675-1.5,1.5v0c0,0.825,0.675,1.5,1.5,1.5h3C42.325,33,43,32.325,43,31.5z M27,36.5L27,36.5 c0-0.825-0.675-1.5-1.5-1.5h-3c-0.825,0-1.5,0.675-1.5,1.5l0,0c0,0.825,0.675,1.5,1.5,1.5h3C26.325,38,27,37.325,27,36.5z M35,36.5 L35,36.5c0-0.825-0.675-1.5-1.5-1.5h-3c-0.825,0-1.5,0.675-1.5,1.5l0,0c0,0.825,0.675,1.5,1.5,1.5h3C34.325,38,35,37.325,35,36.5z M43,36.5L43,36.5c0-0.825-0.675-1.5-1.5-1.5h-3c-0.825,0-1.5,0.675-1.5,1.5l0,0c0,0.825,0.675,1.5,1.5,1.5h3 C42.325,38,43,37.325,43,36.5z M27,41.5L27,41.5c0-0.825-0.675-1.5-1.5-1.5h-3c-0.825,0-1.5,0.675-1.5,1.5l0,0 c0,0.825,0.675,1.5,1.5,1.5h3C26.325,43,27,42.325,27,41.5z M35,41.5L35,41.5c0-0.825-0.675-1.5-1.5-1.5h-3 c-0.825,0-1.5,0.675-1.5,1.5l0,0c0,0.825,0.675,1.5,1.5,1.5h3C34.325,43,35,42.325,35,41.5z M43,41.5L43,41.5 c0-0.825-0.675-1.5-1.5-1.5h-3c-0.825,0-1.5,0.675-1.5,1.5l0,0c0,0.825,0.675,1.5,1.5,1.5h3C42.325,43,43,42.325,43,41.5z"/><linearGradient id="zOL7hfMpBN7MwCdpGCKKtc" x1="32" x2="32" y1="27.401" y2="-.837" gradientUnits="userSpaceOnUse" spreadMethod="reflect"><stop offset="0" stop-color="#155cde"/><stop offset=".278" stop-color="#1f7fe5"/><stop offset=".569" stop-color="#279ceb"/><stop offset=".82" stop-color="#2cafef"/><stop offset="1" stop-color="#2eb5f0"/></linearGradient><path fill="url(#zOL7hfMpBN7MwCdpGCKKtc)" d="M55.472,15.871C51.703,14.396,43.768,12,32,12s-19.703,2.396-23.472,3.871 C6.997,16.47,6,17.948,6,19.591v7.638c0,1.801,1.693,3.123,3.44,2.686l6.522-1.631c1.276-0.319,2.313-1.245,2.775-2.476L21,20 c0,0,6-1,11-1s11,1,11,1l2.263,5.809c0.462,1.231,1.499,2.157,2.775,2.476l6.522,1.631C56.307,30.353,58,29.031,58,27.23v-7.638 C58,17.948,57.003,16.47,55.472,15.871z"/></svg>