<svg xmlns="http://www.w3.org/2000/svg"  viewBox="0 0 64 64" width="50px" height="50px"><radialGradient id="8j_qPzXtvb8dQUhJPfmOAa" cx="32" cy="32" r="27.459" gradientUnits="userSpaceOnUse" spreadMethod="reflect"><stop offset="0" stop-color="#efdcb1"/><stop offset="0" stop-color="#efdcb1"/><stop offset=".092" stop-color="#f2e0b9"/><stop offset=".415" stop-color="#f9eccf"/><stop offset=".724" stop-color="#fdf4dc"/><stop offset="1" stop-color="#fff6e1"/></radialGradient><path fill="url(#8j_qPzXtvb8dQUhJPfmOAa)" d="M58,41h2.302c1.895,0,3.594-1.419,3.693-3.312C64.101,35.67,62.495,34,60.5,34h-3.411 c-0.965,0-1.861-0.645-2.048-1.592c-0.248-1.254,0.677-2.356,1.874-2.406c1.518-0.064,2.885-1.126,3.064-2.635 C60.194,25.546,58.777,24,57,24h-2.302c-1.895,0-4.594-1.419-4.693-3.312C49.899,18.67,51.505,17,53.5,17H56 c1.895,0,3.594-1.419,3.693-3.312C59.799,11.67,58.194,10,56.198,10H48h-6H18v4h-7.302c-1.895,0-3.594,1.419-3.693,3.312 C6.899,19.33,8.505,21,10.5,21H18v5H6.5C4.575,26,3,27.575,3,29.5S4.575,33,6.5,33H9h0.5c1.381,0,2.5,1.119,2.5,2.5 c0,1.381-1.119,2.5-2.5,2.5H3.17c-1.624,0-3.081,1.216-3.165,2.839C-0.086,42.569,1.29,44,3,44h4.893c0.996,0,1.92,0.681,2.08,1.664 C10.176,46.917,9.215,48,8,48H7.17c-1.624,0-3.081,1.216-3.165,2.839C3.914,52.569,5.29,54,7,54h11h8h22v-1h9.852 c1.582,0,3.003-1.162,3.137-2.738c0.151-1.78-1.252-3.27-3.002-3.262c-1.028,0.004-2.033-0.434-2.532-1.333 C54.166,43.35,55.808,41,58,41z"/><linearGradient id="8j_qPzXtvb8dQUhJPfmOAb" x1="34" x2="34" y1="60.564" y2="5.459" gradientUnits="userSpaceOnUse" spreadMethod="reflect"><stop offset="0" stop-color="#42bfec"/><stop offset=".441" stop-color="#5ecef2"/><stop offset="1" stop-color="#88e4fc"/></linearGradient><path fill="url(#8j_qPzXtvb8dQUhJPfmOAb)" d="M47,58H21c-3.314,0-6-2.686-6-6V12c0-3.314,2.686-6,6-6h26c3.314,0,6,2.686,6,6v40 C53,55.314,50.314,58,47,58z"/><linearGradient id="8j_qPzXtvb8dQUhJPfmOAc" x1="42.322" x2="43.239" y1="57.201" y2="39.659" gradientUnits="userSpaceOnUse" spreadMethod="reflect"><stop offset="0" stop-color="#34b6e8"/><stop offset="1" stop-color="#4cc6ef"/></linearGradient><path fill="url(#8j_qPzXtvb8dQUhJPfmOAc)" d="M41,45.5L41,45.5c0,1.381,1.119,2.5,2.5,2.5h2c1.381,0,2.5,1.119,2.5,2.5v0 c0,1.381-1.119,2.5-2.5,2.5h-11c-1.381,0-2.5,1.119-2.5,2.5v0c0,1.381,1.119,2.5,2.5,2.5H47c3.314,0,6-2.686,6-6v-9h-9.5 C42.119,43,41,44.119,41,45.5z"/><linearGradient id="8j_qPzXtvb8dQUhJPfmOAd" x1="35.906" x2="36.823" y1="56.865" y2="39.324" gradientUnits="userSpaceOnUse" spreadMethod="reflect"><stop offset="0" stop-color="#34b6e8"/><stop offset="1" stop-color="#4cc6ef"/></linearGradient><path fill="url(#8j_qPzXtvb8dQUhJPfmOAd)" d="M36.5 43A2.5 2.5 0 1 0 36.5 48A2.5 2.5 0 1 0 36.5 43Z"/><linearGradient id="8j_qPzXtvb8dQUhJPfmOAe" x1="24" x2="24" y1="58.147" y2="4.603" gradientUnits="userSpaceOnUse" spreadMethod="reflect"><stop offset="0" stop-color="#5ec9ef"/><stop offset=".495" stop-color="#7ad7f5"/><stop offset="1" stop-color="#9ae8fc"/></linearGradient><path fill="url(#8j_qPzXtvb8dQUhJPfmOAe)" d="M23.5,21H15v-9c0-3.314,2.686-6,6-6h6.5C28.881,6,30,7.119,30,8.5v0 c0,1.381-1.119,2.5-2.5,2.5h-5c-1.381,0-2.5,1.119-2.5,2.5v0c0,1.381,1.119,2.5,2.5,2.5h1c1.381,0,2.5,1.119,2.5,2.5v0 C26,19.881,24.881,21,23.5,21z M31,17c-1.105,0-2,0.895-2,2s0.895,2,2,2c1.105,0,2-0.895,2-2S32.105,17,31,17z"/><linearGradient id="8j_qPzXtvb8dQUhJPfmOAf" x1="24.267" x2="53.746" y1="33" y2="33" gradientTransform="rotate(-90 32 42)" gradientUnits="userSpaceOnUse" spreadMethod="reflect"><stop offset="0" stop-color="#0d47a1"/><stop offset=".365" stop-color="#135fba"/><stop offset=".734" stop-color="#1770cc"/><stop offset="1" stop-color="#1976d2"/></linearGradient><path fill="url(#8j_qPzXtvb8dQUhJPfmOAf)" d="M26,22.109V29H9c-1.657,0-3,1.343-3,3c0,1.657,1.343,3,3,3h17v6.891 c0,1.841,2.076,2.795,3.348,1.539l10.02-9.891c0.843-0.832,0.843-2.246,0-3.078l-10.02-9.891C28.076,19.314,26,20.269,26,22.109z"/></svg>