<svg xmlns="http://www.w3.org/2000/svg"  viewBox="0 0 64 64" width="50px" height="50px"><radialGradient id="HUOF8PsfVlyR0GD3~OU1Ea" cx="29.468" cy="32.702" r="34.738" gradientTransform="matrix(1 0 0 -1 0 66)" gradientUnits="userSpaceOnUse"><stop offset="0" stop-color="#f4e9c3"/><stop offset=".219" stop-color="#f8eecd"/><stop offset=".644" stop-color="#fdf4dc"/><stop offset="1" stop-color="#fff6e1"/></radialGradient><path fill="url(#HUOF8PsfVlyR0GD3~OU1Ea)" d="M61.83,38.17C62.55,38.9,63,39.9,63,41.01c0,2.21-1.8,4.01-4.01,4.01h-4.5	c-0.97,0-1.84,0.39-2.47,1.02S51,47.54,51,48.51c0,1.93,1.56,3.49,3.49,3.49h2.01c1.24,0,2.37,0.5,3.18,1.32	C60.5,54.13,61,55.26,61,56.5c0,2.49-2.01,4.5-4.5,4.5h-49c-1.24,0-2.36-0.5-3.18-1.32C3.5,58.87,3,57.74,3,56.5s0.5-2.37,1.32-3.18	C5.14,52.5,6.26,52,7.5,52c0.96,0,1.84-0.39,2.47-1.03C10.61,50.34,11,49.46,11,48.5c0-1.93-1.57-3.5-3.5-3.5h-1	c-1.52,0-2.9-0.62-3.89-1.61C1.62,42.4,1,41.02,1,39.5s0.62-2.9,1.61-3.89C3.6,34.62,4.98,34,6.5,34h8c0.96,0,1.84-0.39,2.47-1.03	C17.61,32.34,18,31.46,18,30.5c0-1.93-1.57-3.5-3.5-3.5H14c-1.1,0-2.1-0.45-2.83-1.17C10.45,25.1,10,24.1,10,23c0-2.21,1.79-4,4-4	h15.5c0.96,0,1.84-0.39,2.47-1.03C32.61,17.34,33,16.46,33,15.5c0-1.93-1.57-3.5-3.5-3.5h-5C22.01,12,20,9.99,20,7.5	c0-0.19,0.01-0.37,0.03-0.55c0.13-1.02,0.59-1.94,1.29-2.63C22.13,3.5,23.26,3,24.5,3h31c0.96,0,1.84,0.39,2.47,1.03	C58.61,4.66,59,5.54,59,6.5c0,1.93-1.57,3.5-3.5,3.5h-1c-1.24,0-2.37,0.5-3.18,1.32C50.5,12.14,50,13.26,50,14.5	c0,2.49,2.01,4.5,4.5,4.5h4.47c2.78,0,5.03,2.25,5.03,5.02c0,2.78-2.25,5.03-5.02,5.03h-0.01c-2.19,0-3.97,1.78-3.97,3.97v0.01	c0,2.19,1.78,3.97,3.97,3.97h0.02C60.1,37,61.1,37.45,61.83,38.17z"/><radialGradient id="HUOF8PsfVlyR0GD3~OU1Eb" cx="29.468" cy="32.702" r="34.738" gradientTransform="matrix(1 0 0 -1 0 66)" gradientUnits="userSpaceOnUse"><stop offset="0" stop-color="#f4e9c3"/><stop offset=".219" stop-color="#f8eecd"/><stop offset=".644" stop-color="#fdf4dc"/><stop offset="1" stop-color="#fff6e1"/></radialGradient><circle cx="11.5" cy="7.5" r="4.5" fill="url(#HUOF8PsfVlyR0GD3~OU1Eb)"/><linearGradient id="HUOF8PsfVlyR0GD3~OU1Ec" x1="29.999" x2="29.999" y1="12" y2="58.003" gradientTransform="matrix(1 0 0 -1 0 66)" gradientUnits="userSpaceOnUse"><stop offset="0" stop-color="#1663cf"/><stop offset=".275" stop-color="#1a73d6"/><stop offset=".697" stop-color="#1f85df"/><stop offset="1" stop-color="#218be2"/></linearGradient><path fill="url(#HUOF8PsfVlyR0GD3~OU1Ec)" d="M51.77,8.15c-0.75-0.31-1.61-0.14-2.18,0.44l-42,42c-0.58,0.57-0.75,1.43-0.44,2.18	C7.46,53.51,8.19,54,9,54h14.68h4.06H38h4h9c1.1,0,2-0.9,2-2v-9v-4V10C53,9.19,52.51,8.46,51.77,8.15z M13.83,50l7.38-7.38	c1.56,2.09,2.56,4.62,2.75,7.38H13.83z M49,50h-7v-7h7V50z M40,39c-1.1,0-2,0.9-2,2v9H27.97c-0.21-3.85-1.64-7.39-3.92-10.22	L49,14.83V39H40z"/><linearGradient id="HUOF8PsfVlyR0GD3~OU1Ed" x1="-718" x2="-718" y1="48.957" y2="58.596" gradientTransform="rotate(180 -334 33)" gradientUnits="userSpaceOnUse"><stop offset="0" stop-color="#155cde"/><stop offset=".278" stop-color="#1f7fe5"/><stop offset=".569" stop-color="#279ceb"/><stop offset=".82" stop-color="#2cafef"/><stop offset="1" stop-color="#2eb5f0"/></linearGradient><circle cx="50" cy="12" r="5" fill="url(#HUOF8PsfVlyR0GD3~OU1Ed)"/><linearGradient id="HUOF8PsfVlyR0GD3~OU1Ee" x1="-719" x2="-719" y1="9.106" y2="18.3" gradientTransform="rotate(180 -334 33)" gradientUnits="userSpaceOnUse"><stop offset="0" stop-color="#155cde"/><stop offset=".278" stop-color="#1f7fe5"/><stop offset=".569" stop-color="#279ceb"/><stop offset=".82" stop-color="#2cafef"/><stop offset="1" stop-color="#2eb5f0"/></linearGradient><circle cx="51" cy="52" r="5" fill="url(#HUOF8PsfVlyR0GD3~OU1Ee)"/><linearGradient id="HUOF8PsfVlyR0GD3~OU1Ef" x1="-679" x2="-679" y1="10.064" y2="19.703" gradientTransform="rotate(180 -334 33)" gradientUnits="userSpaceOnUse"><stop offset="0" stop-color="#155cde"/><stop offset=".278" stop-color="#1f7fe5"/><stop offset=".569" stop-color="#279ceb"/><stop offset=".82" stop-color="#2cafef"/><stop offset="1" stop-color="#2eb5f0"/></linearGradient><circle cx="11" cy="51" r="5" fill="url(#HUOF8PsfVlyR0GD3~OU1Ef)"/></svg>