<svg xmlns="http://www.w3.org/2000/svg"  viewBox="0 0 48 48" width="50px" height="50px"><linearGradient id="q48ZcLFFjSVEA8eqRqetla" x1="5.025" x2="41.62" y1="4.804" y2="41.825" gradientUnits="userSpaceOnUse"><stop offset="0" stop-color="#0d61a9"/><stop offset="1" stop-color="#16528c"/></linearGradient><path fill="url(#q48ZcLFFjSVEA8eqRqetla)" d="M40,6H8C6.895,6,6,6.895,6,8v32c0,1.105,0.895,2,2,2h32c1.105,0,2-0.895,2-2V8	C42,6.895,41.105,6,40,6z"/><path fill="#50e6ff" d="M11.722,19h20.556C32.677,19,33,19.323,33,19.722v1.556C33,21.677,32.677,22,32.278,22H11.722 C11.323,22,11,21.677,11,21.278v-1.556C11,19.323,11.323,19,11.722,19z"/><path fill="#50e6ff" d="M11.722,26h24.556C36.677,26,37,26.323,37,26.722v1.556C37,28.677,36.677,29,36.278,29H11.722 C11.323,29,11,28.677,11,28.278v-1.556C11,26.323,11.323,26,11.722,26z"/><path fill="#50e6ff" d="M11.722,33h20.556C32.677,33,33,33.323,33,33.722v1.556C33,35.677,32.677,36,32.278,36H11.722 C11.323,36,11,35.677,11,35.278v-1.556C11,33.323,11.323,33,11.722,33z"/><path fill="#50e6ff" d="M11.722,12h24.556C36.677,12,37,12.323,37,12.722v1.556C37,14.677,36.677,15,36.278,15H11.722 C11.323,15,11,14.677,11,14.278v-1.556C11,12.323,11.323,12,11.722,12z"/></svg>