<svg xmlns="http://www.w3.org/2000/svg"  viewBox="0 0 64 64" width="50px" height="50px"><radialGradient id="kPj2IFHBHxQP3k9IgtyZba" cx="32" cy="31.5" r="31.259" gradientUnits="userSpaceOnUse" spreadMethod="reflect"><stop offset="0" stop-color="#eed7a2"/><stop offset=".106" stop-color="#f1dcab"/><stop offset=".437" stop-color="#f8e8c3"/><stop offset=".744" stop-color="#fcefd2"/><stop offset="1" stop-color="#fef2d7"/></radialGradient><path fill="url(#kPj2IFHBHxQP3k9IgtyZba)" d="M59,54c-1.105,0-2-0.895-2-2c0-1.105,0.895-2,2-2h1.5c1.925,0,3.5-1.575,3.5-3.5 S62.425,43,60.5,43h-10c-1.381,0-2.5-1.119-2.5-2.5c0-1.381,1.119-2.5,2.5-2.5H58c1.65,0,3-1.35,3-3c0-1.65-1.35-3-3-3H42v-6h18 c2.335,0,4.22-2.028,3.979-4.41C63.77,19.514,61.897,18,59.811,18H59c-1.105,0-2-0.895-2-2c0-1.105,0.895-2,2-2h0.357 c1.308,0,2.499-0.941,2.63-2.242C62.137,10.261,60.966,9,59.5,9h-15C43.672,9,43,8.328,43,7.5S43.672,6,44.5,6h3.857 c1.308,0,2.499-0.941,2.63-2.242C51.137,2.261,49.966,1,48.5,1L15.643,1c-1.308,0-2.499,0.941-2.63,2.242 C12.863,4.739,14.034,6,15.5,6H19c1.105,0,2,0.895,2,2c0,1.105-0.895,2-2,2H6.189c-2.086,0-3.958,1.514-4.168,3.59 C1.78,15.972,3.665,18,6,18h2.5c1.933,0,3.5,1.567,3.5,3.5c0,1.933-1.567,3.5-3.5,3.5H5.189c-2.086,0-3.958,1.514-4.168,3.59 C0.78,30.972,2.665,33,5,33h17v11H6c-1.65,0-3,1.35-3,3c0,1.65,1.35,3,3,3h0c1.105,0,2,0.895,2,2c0,1.105-0.895,2-2,2H4.189 c-2.086,0-3.958,1.514-4.168,3.59C-0.22,59.972,1.665,62,4,62h54.811c2.086,0,3.958-1.514,4.168-3.59C63.22,56.028,61.335,54,59,54z"/><linearGradient id="kPj2IFHBHxQP3k9IgtyZbb" x1="32.5" x2="32.5" y1="74.094" y2="10.539" gradientUnits="userSpaceOnUse" spreadMethod="reflect"><stop offset="0" stop-color="#3cb5ea"/><stop offset="1" stop-color="#7ddefb"/></linearGradient><path fill="url(#kPj2IFHBHxQP3k9IgtyZbb)" d="M42,12H14c-2.209,0-4,1.791-4,4v36c0,2.209,1.791,4,4,4h37c2.209,0,4-1.791,4-4v-2 c0-2.209-1.791-4-4-4h-5V16C46,13.791,44.209,12,42,12z"/><linearGradient id="kPj2IFHBHxQP3k9IgtyZbc" x1="32.5" x2="32.5" y1="65.554" y2="32.329" gradientUnits="userSpaceOnUse" spreadMethod="reflect"><stop offset="0" stop-color="#0d47a1"/><stop offset=".365" stop-color="#135fba"/><stop offset=".734" stop-color="#1770cc"/><stop offset="1" stop-color="#1976d2"/></linearGradient><path fill="url(#kPj2IFHBHxQP3k9IgtyZbc)" d="M10,46v6c0,2.209,1.791,4,4,4h37c2.209,0,4-1.791,4-4v-2c0-2.209-1.791-4-4-4H10z"/><linearGradient id="kPj2IFHBHxQP3k9IgtyZbd" x1="16" x2="16" y1="56.21" y2="47.526" gradientUnits="userSpaceOnUse" spreadMethod="reflect"><stop offset="0" stop-color="#feaa53"/><stop offset=".612" stop-color="#ffcd49"/><stop offset="1" stop-color="#ffde44"/></linearGradient><path fill="url(#kPj2IFHBHxQP3k9IgtyZbd)" d="M16,53L16,53c1.1,0,2-0.9,2-2v0c0-1.1-0.9-2-2-2h0c-1.1,0-2,0.9-2,2v0C14,52.1,14.9,53,16,53z"/><linearGradient id="kPj2IFHBHxQP3k9IgtyZbe" x1="20" x2="20" y1="31.245" y2="10.726" gradientUnits="userSpaceOnUse" spreadMethod="reflect"><stop offset="0" stop-color="#0d47a1"/><stop offset=".365" stop-color="#135fba"/><stop offset=".734" stop-color="#1770cc"/><stop offset="1" stop-color="#1976d2"/></linearGradient><path fill="url(#kPj2IFHBHxQP3k9IgtyZbe)" d="M15.5,16h9c0.828,0,1.5,0.672,1.5,1.5v0c0,0.828-0.672,1.5-1.5,1.5h-9 c-0.828,0-1.5-0.672-1.5-1.5v0C14,16.672,14.672,16,15.5,16z M14,23.5L14,23.5c0,0.828,0.672,1.5,1.5,1.5h9 c0.828,0,1.5-0.672,1.5-1.5v0c0-0.828-0.672-1.5-1.5-1.5h-9C14.672,22,14,22.672,14,23.5z"/><linearGradient id="kPj2IFHBHxQP3k9IgtyZbf" x1="38" x2="38" y1="46.344" y2="12.54" gradientUnits="userSpaceOnUse" spreadMethod="reflect"><stop offset="0" stop-color="#257ae4"/><stop offset=".403" stop-color="#3097eb"/><stop offset=".751" stop-color="#37aaef"/><stop offset="1" stop-color="#39b0f0"/></linearGradient><path fill="url(#kPj2IFHBHxQP3k9IgtyZbf)" d="M46,46H30V12h12c2.209,0,4,1.791,4,4V46z"/><path fill="#fafafa" d="M34.5,40h7c0.825,0,1.5,0.675,1.5,1.5l0,0c0,0.825-0.675,1.5-1.5,1.5h-7c-0.825,0-1.5-0.675-1.5-1.5 l0,0C33,40.675,33.675,40,34.5,40z"/></svg>