<svg xmlns="http://www.w3.org/2000/svg"  viewBox="0 0 64 64" width="50px" height="50px"><radialGradient id="AK4~AqfzQ7u78NgNzfsKWa" cx="32.5" cy="33.5" r="31.004" gradientTransform="matrix(1 0 0 -1 0 66)" gradientUnits="userSpaceOnUse"><stop offset="0" stop-color="#f4e9c3"/><stop offset=".219" stop-color="#f8eecd"/><stop offset=".644" stop-color="#fdf4dc"/><stop offset="1" stop-color="#fff6e1"/></radialGradient><path fill="url(#AK4~AqfzQ7u78NgNzfsKWa)" d="M64,40.5c0,1.52-0.62,2.9-1.61,3.89C61.4,45.38,60.02,46,58.5,46H50c-0.07,0-0.15,0-0.22,0.01	C49.69,46,49.59,46,49.5,46c-2.21,0-4,1.79-4,4s1.79,4,4,4c0.13,0,0.47,0,0.5,0h1.5c2.49,0,4.5,2.01,4.5,4.5	c0,1.24-0.5,2.37-1.32,3.18C53.87,62.5,52.74,63,51.5,63H6c-2.21,0-4-1.79-4-4c0-1.1,0.45-2.1,1.17-2.83C3.9,55.45,4.9,55,6,55h8.5	c2.49,0,4.5-2.01,4.5-4.5S16.99,46,14.5,46H5c-2.21,0-4-1.79-4-4c0-1.1,0.45-2.1,1.17-2.83C2.9,38.45,3.9,38,5,38h1.5	c2.48,0,4.5-2.01,4.5-4.5c0-1.24-0.5-2.37-1.32-3.18C8.86,29.5,7.74,29,6.5,29H6c-2.76,0-5-2.24-5-5s2.24-5,5-5h5c2.76,0,5-2.24,5-5	c0-1.38-0.56-2.63-1.46-3.54C13.63,9.56,12.38,9,11,9h-0.57C8.52,9,7,7.48,7,5.61V5.5C7,3.57,8.57,2,10.5,2h39	c1.93,0,3.49,1.56,3.5,3.48V5.5C53.01,7.43,51.45,9,49.52,9H48c-2.21,0-4,1.79-4,4s1.79,4,4,4h11c2.76,0,5,2.24,5,5	c0,1.38-0.56,2.63-1.46,3.54C61.63,26.44,60.38,27,59,27h-1c-2.21,0-4,1.79-4,4c0,1.1,0.45,2.1,1.17,2.83C55.9,34.55,56.9,35,58,35	h0.5C61.54,35,64,37.46,64,40.5z"/><linearGradient id="AK4~AqfzQ7u78NgNzfsKWb" x1="32.5" x2="32.5" y1="5" y2="62" gradientTransform="matrix(1 0 0 -1 0 66)" gradientUnits="userSpaceOnUse"><stop offset="0" stop-color="#155cde"/><stop offset=".158" stop-color="#196ce1"/><stop offset=".724" stop-color="#28a1ec"/><stop offset="1" stop-color="#2eb5f0"/></linearGradient><path fill="url(#AK4~AqfzQ7u78NgNzfsKWb)" d="M32.5,61c-1.933,0-3.5-1.567-3.5-3.5v-50C29,5.567,30.567,4,32.5,4C34.433,4,36,5.567,36,7.5 v50C36,59.433,34.433,61,32.5,61z"/></svg>