<svg xmlns="http://www.w3.org/2000/svg"  viewBox="0 0 64 64" width="50px" height="50px"><radialGradient id="NgFqKdkZkQ~p_256VyFAfa" cx="32" cy="32" r="31.016" gradientUnits="userSpaceOnUse" spreadMethod="reflect"><stop offset="0" stop-color="#f5e3a5"/><stop offset=".25" stop-color="#f8e9b6"/><stop offset=".724" stop-color="#fcf2d2"/><stop offset="1" stop-color="#fef5dc"/></radialGradient><path fill="url(#NgFqKdkZkQ~p_256VyFAfa)" d="M59,20h1.5c2.168,0,3.892-1.998,3.422-4.243C63.58,14.122,62.056,13,60.385,13L56,13 c-1.105,0-2-0.895-2-2c0-1.105,0.895-2,2-2h0.385c1.67,0,3.195-1.122,3.537-2.757C60.392,3.998,58.668,2,56.5,2H34.006H32.5h-26 C4.575,2,3,3.575,3,5.5S4.575,9,6.5,9H8c1.105,0,2,0.895,2,2c0,1.105-0.895,2-2,2l-3.385,0c-1.67,0-3.195,1.122-3.537,2.757 C0.608,18.002,2.332,20,4.5,20H18v13L3.615,33c-1.67,0-3.195,1.122-3.537,2.757C-0.392,38.002,1.332,40,3.5,40H5 c1.105,0,2,0.895,2,2c0,1.105-0.895,2-2,2H4.5c-2.168,0-3.892,1.998-3.422,4.243C1.42,49.878,2.945,51,4.615,51H8 c1.105,0,2,0.895,2,2c0,1.105-0.895,2-2,2l-1.385,0c-1.67,0-3.195,1.122-3.537,2.757C2.608,60.002,4.332,62,6.5,62h24.494H32.5h24 c1.925,0,3.5-1.575,3.5-3.5S58.425,55,56.5,55H56c-1.105,0-2-0.895-2-2c0-1.105,0.895-2,2-2h4.385c1.67,0,3.195-1.122,3.537-2.757 C64.392,45.998,62.668,44,60.5,44H47V31h12.385c1.67,0,3.195-1.122,3.537-2.757C63.392,25.998,61.668,24,59.5,24H59 c-1.105,0-2-0.895-2-2C57,20.895,57.895,20,59,20z"/><linearGradient id="NgFqKdkZkQ~p_256VyFAfb" x1="32" x2="32" y1="6" y2="58" gradientUnits="userSpaceOnUse" spreadMethod="reflect"><stop offset="0" stop-color="#a4a4a4"/><stop offset=".63" stop-color="#7f7f7f"/><stop offset="1" stop-color="#6f6f6f"/><stop offset="1" stop-color="#6f6f6f"/></linearGradient><path fill="url(#NgFqKdkZkQ~p_256VyFAfb)" d="M55.04,27.203l-5.083-1.368c-0.259-0.754-0.566-1.485-0.914-2.193l2.423-4.324 c0.902-1.567,0.641-3.545-0.638-4.824l-1.322-1.322c-1.279-1.279-3.257-1.54-4.824-0.638l-4.324,2.423 c-0.708-0.348-1.439-0.655-2.193-0.914L36.797,8.96C36.327,7.214,34.743,6,32.935,6h-1.869c-1.809,0-3.392,1.214-3.862,2.96 l-1.368,5.083c-0.755,0.259-1.485,0.566-2.193,0.914l-4.324-2.423c-1.567-0.902-3.545-0.641-4.824,0.638l-1.322,1.322 c-1.279,1.279-1.541,3.257-0.638,4.824l2.423,4.324c-0.348,0.708-0.655,1.439-0.914,2.193L8.96,27.203 C7.214,27.673,6,29.257,6,31.065v1.869c0,1.809,1.214,3.392,2.96,3.862l5.083,1.368c0.259,0.755,0.566,1.485,0.914,2.193 l-2.423,4.324c-0.902,1.567-0.641,3.545,0.638,4.824l1.322,1.322c1.279,1.279,3.257,1.541,4.824,0.638l4.324-2.423 c0.708,0.348,1.439,0.655,2.193,0.914l1.368,5.083c0.47,1.746,2.054,2.96,3.862,2.96h1.869c1.809,0,3.392-1.214,3.862-2.96 l1.368-5.083c0.755-0.259,1.485-0.566,2.193-0.914l4.324,2.423c1.567,0.902,3.545,0.641,4.824-0.638l1.322-1.322 c1.279-1.279,1.54-3.257,0.638-4.824l-2.423-4.324c0.348-0.708,0.655-1.439,0.914-2.193l5.083-1.368 c1.746-0.47,2.96-2.054,2.96-3.862v-1.869C58,29.257,56.786,27.673,55.04,27.203z"/><linearGradient id="NgFqKdkZkQ~p_256VyFAfc" x1="32" x2="32" y1="22" y2="42" gradientUnits="userSpaceOnUse" spreadMethod="reflect"><stop offset="0" stop-color="#d8d8d8"/><stop offset=".759" stop-color="#c9c9c9"/><stop offset="1" stop-color="#c3c3c3"/></linearGradient><path fill="url(#NgFqKdkZkQ~p_256VyFAfc)" d="M32 22A10 10 0 1 0 32 42A10 10 0 1 0 32 22Z"/><path fill="#fff" d="M32 28A4 4 0 1 0 32 36A4 4 0 1 0 32 28Z"/><g><path fill="#9e9e9e" d="M27.203 8.96l-.915 3.398C26.704 11.555 27.533 11 28.5 11h5c1.381 0 2.5-1.119 2.5-2.5 0-.662-.262-1.26-.682-1.707C34.645 6.293 33.818 6 32.935 6h-1.869C29.257 6 27.673 7.214 27.203 8.96zM29.5 16h-1c-1.381 0-2.5-1.119-2.5-2.5 0-.039.01-.076.012-.114l-.177.657c-.755.259-1.485.566-2.193.914l-4.324-2.423c-1.567-.902-3.545-.641-4.824.638l-1.322 1.322c-1.279 1.279-1.541 3.257-.638 4.824l2.423 4.324c-.348.708-.655 1.439-.914 2.193L8.96 27.203C7.235 27.667 6.035 29.219 6.005 31H18.5c1.381 0 2.5-1.119 2.5-2.5 0-1.381-1.119-2.5-2.5-2.5h-1c-1.381 0-2.5-1.119-2.5-2.5 0-1.381 1.119-2.5 2.5-2.5h5 7c1.381 0 2.5-1.119 2.5-2.5C32 17.119 30.881 16 29.5 16zM37 17A2 2 0 1 0 37 21 2 2 0 1 0 37 17z"/></g></svg>