<svg xmlns="http://www.w3.org/2000/svg"  viewBox="0 0 64 64" width="50px" height="50px"><radialGradient id="o~~IHV_8Y~MBLE~sYYbO3a" cx="28.234" cy="28.277" r="44.945" gradientTransform="matrix(1 0 0 -1 0 66)" gradientUnits="userSpaceOnUse"><stop offset="0" stop-color="#efdcb1"/><stop offset="0" stop-color="#f2e0bb"/><stop offset=".011" stop-color="#f2e0bc"/><stop offset=".362" stop-color="#f9edd2"/><stop offset=".699" stop-color="#fef4df"/><stop offset="1" stop-color="#fff7e4"/></radialGradient><path fill="url(#o~~IHV_8Y~MBLE~sYYbO3a)" d="M59.5,47h-1.51c-1.04,0.01-2.07-0.45-2.56-1.38C54.19,43.32,55.82,41,58,41h2.3	c1.9,0,3.6-1.42,3.69-3.31C64.1,35.67,62.49,34,60.5,34h-2.41c-0.97,0-1.86-0.65-2.05-1.59c-0.25-1.26,0.68-2.36,1.87-2.41H58	c0.83,0,1.58-0.34,2.12-0.88S61,27.83,61,27c0-1.66-1.34-3-3-3h-4.3c-1.9,0-3.6-1.42-3.69-3.31C49.9,18.67,51.51,17,53.5,17h2.8	c1.9,0,3.6-1.42,3.69-3.31C60.1,11.67,58.49,10,56.5,10h-45h-0.8H8.5C6.567,10,5,11.567,5,13.5S6.567,17,8.5,17h2	c2.49,0,4.5,2.01,4.5,4.5c0,1.24-0.5,2.37-1.32,3.18C12.87,25.5,11.74,26,10.5,26h-6C2.57,26,1,27.57,1,29.5S2.57,33,4.5,33h0.84	C6.8,33,8.08,34.2,8,35.65c-0.04,0.63-0.31,1.2-0.73,1.62C6.82,37.72,6.19,38,5.5,38H3.17c-1.49,0-2.87,1-3.13,2.46	C-0.29,42.36,1.17,44,3,44h1.89c1,0,1.92,0.68,2.08,1.67C7.17,46.93,6.22,48,5,48H4.17c-1.49,0-2.87,1-3.13,2.46	C0.71,52.36,2.17,54,4,54h55.5c1.93,0,3.5-1.57,3.5-3.5S61.43,47,59.5,47z"/><linearGradient id="o~~IHV_8Y~MBLE~sYYbO3b" x1="36.5" x2="36.5" y1="6.73" y2="73.895" gradientTransform="matrix(1 0 0 -1 0 66)" gradientUnits="userSpaceOnUse"><stop offset="0" stop-color="#41bfec"/><stop offset=".232" stop-color="#4cc5ef"/><stop offset=".644" stop-color="#6bd4f6"/><stop offset="1" stop-color="#8ae4fd"/></linearGradient><path fill="url(#o~~IHV_8Y~MBLE~sYYbO3b)" d="M49.432,5H22c-1.105,0-2,0.895-2,2v31.432C20,40.403,21.597,42,23.568,42h25.865	C51.403,42,53,40.403,53,38.432V8.568C53,6.597,51.403,5,49.432,5z"/><linearGradient id="o~~IHV_8Y~MBLE~sYYbO3c" x1="35" x2="35" y1="16.404" y2="56.995" gradientTransform="matrix(1 0 0 -1 0 66)" gradientUnits="userSpaceOnUse"><stop offset="0" stop-color="#4bbce5"/><stop offset="1" stop-color="#5bd3ef"/></linearGradient><path fill="url(#o~~IHV_8Y~MBLE~sYYbO3c)" d="M43.307,18H41.5c-1.381,0-2.5-1.119-2.5-2.5l0,0c0-1.381,1.119-2.5,2.5-2.5h0.328	c2.089,0,3.955-1.527,4.153-3.607C46.209,7.008,44.339,5,42,5H22v22h21.5c2.631,0,4.735-2.258,4.479-4.942	C47.756,19.718,45.657,18,43.307,18z"/><linearGradient id="o~~IHV_8Y~MBLE~sYYbO3d" x1="31.5" x2="31.5" y1="-2.517" y2="50.16" gradientTransform="matrix(1 0 0 -1 0 66)" gradientUnits="userSpaceOnUse"><stop offset="0" stop-color="#155cde"/><stop offset=".122" stop-color="#196ae1"/><stop offset=".509" stop-color="#2493e9"/><stop offset=".815" stop-color="#2bacee"/><stop offset="1" stop-color="#2eb5f0"/></linearGradient><path fill="url(#o~~IHV_8Y~MBLE~sYYbO3d)" d="M41,26H22c-1.104,0-2-0.896-2-2V7c0-0.761,0.431-1.455,1.112-1.792s1.495-0.26,2.1,0.201	l19,17c0.683,0.52,0.957,1.417,0.683,2.23S41.858,26,41,26z"/><linearGradient id="o~~IHV_8Y~MBLE~sYYbO3e" x1="27.5" x2="27.5" y1="-29.724" y2="40.95" gradientTransform="matrix(1 0 0 -1 0 66)" gradientUnits="userSpaceOnUse"><stop offset="0" stop-color="#41bfec"/><stop offset=".232" stop-color="#4cc5ef"/><stop offset=".644" stop-color="#6bd4f6"/><stop offset="1" stop-color="#8ae4fd"/></linearGradient><path fill="url(#o~~IHV_8Y~MBLE~sYYbO3e)" d="M40.432,22H14.568C12.597,22,11,23.597,11,25.568v29.865C11,57.403,12.597,59,14.568,59	h25.865C42.403,59,44,57.403,44,55.432V25.568C44,23.597,42.403,22,40.432,22z"/><line x1="36.5" x2="18.5" y1="46.5" y2="46.5" fill="none" stroke="#f1fcff" stroke-linecap="round" stroke-linejoin="round" stroke-miterlimit="10" stroke-width="3"/><line x1="25.5" x2="18.5" y1="52.5" y2="52.5" fill="none" stroke="#f1fcff" stroke-linecap="round" stroke-linejoin="round" stroke-miterlimit="10" stroke-width="3"/><line x1="36.5" x2="31.5" y1="52.5" y2="52.5" fill="none" stroke="#f1fcff" stroke-linecap="round" stroke-linejoin="round" stroke-miterlimit="10" stroke-width="3"/><linearGradient id="o~~IHV_8Y~MBLE~sYYbO3f" x1="27.5" x2="27.5" y1="23.277" y2="41.841" gradientTransform="matrix(1 0 0 -1 0 66)" gradientUnits="userSpaceOnUse"><stop offset="0" stop-color="#f2fbfe"/><stop offset="1" stop-color="#f4fcfe"/></linearGradient><path fill="url(#o~~IHV_8Y~MBLE~sYYbO3f)" d="M40.03,28v11c0,0.5-0.18,0.95-0.48,1.3c-0.37,0.43-0.91,0.7-1.52,0.7H16.97c-1.11,0-2-0.9-2-2	V28c0-1.1,0.89-2,2-2h21.06C39.14,26,40.03,26.9,40.03,28z"/><linearGradient id="o~~IHV_8Y~MBLE~sYYbO3g" x1="23.986" x2="23.986" y1="41.021" y2="21.055" gradientTransform="matrix(1 0 0 -1 0 66)" gradientUnits="userSpaceOnUse"><stop offset="0" stop-color="#dff9ff"/><stop offset="0" stop-color="#dff9ff"/><stop offset=".173" stop-color="#d8f8ff"/><stop offset=".423" stop-color="#c5f4ff"/><stop offset=".72" stop-color="#a5eeff"/><stop offset="1" stop-color="#81e7ff"/></linearGradient><path fill="url(#o~~IHV_8Y~MBLE~sYYbO3g)" d="M32.99,31.76c-0.13,1.3-1.32,2.24-2.63,2.24H29.5c-0.83,0-1.5,0.67-1.5,1.5s0.67,1.5,1.5,1.5	H30c1.21,0,2.18,1.08,1.97,2.34C31.81,40.32,30.89,41,29.89,41H16.97c-1.11,0-2-0.9-2-2V28c0-1.1,0.89-2,2-2h9.53	c-0.83,0-1.5,0.67-1.5,1.5s0.67,1.5,1.5,1.5h4C31.97,29,33.14,30.26,32.99,31.76z"/><linearGradient id="o~~IHV_8Y~MBLE~sYYbO3h" x1="19.5" x2="19.5" y1="38" y2="33" gradientTransform="matrix(1 0 0 -1 0 66)" gradientUnits="userSpaceOnUse"><stop offset="0" stop-color="#f2fbfe"/><stop offset="1" stop-color="#f4fcfe"/></linearGradient><circle cx="19.5" cy="30.5" r="2.5" fill="url(#o~~IHV_8Y~MBLE~sYYbO3h)"/><linearGradient id="o~~IHV_8Y~MBLE~sYYbO3i" x1="24.5" x2="24.5" y1="37.824" y2="19.725" gradientTransform="matrix(1 0 0 -1 0 66)" gradientUnits="userSpaceOnUse"><stop offset="0" stop-color="#ffad6b"/><stop offset=".472" stop-color="#ff8b67"/><stop offset=".62" stop-color="#ff8b67"/><stop offset=".65" stop-color="#ff8f67"/><stop offset=".822" stop-color="#ffa169"/><stop offset=".947" stop-color="#ffa76a"/><stop offset="1" stop-color="#ffad6b"/><stop offset="1" stop-color="#ffad6b"/></linearGradient><path fill="url(#o~~IHV_8Y~MBLE~sYYbO3i)" d="M31.74,41H17.26l4.53-6.37l1.28-1.8c0.34-0.48,0.86-0.72,1.38-0.73h0.1	c0.52,0.01,1.04,0.25,1.38,0.73l1.28,1.8L31.74,41z"/><linearGradient id="o~~IHV_8Y~MBLE~sYYbO3j" x1="31.72" x2="31.72" y1="54.325" y2="23.273" gradientTransform="matrix(1 0 0 -1 0 66)" gradientUnits="userSpaceOnUse"><stop offset="0" stop-color="#ffad6b"/><stop offset=".472" stop-color="#ff8b67"/><stop offset=".62" stop-color="#ff8b67"/><stop offset=".65" stop-color="#ff8f67"/><stop offset=".822" stop-color="#ffa169"/><stop offset=".947" stop-color="#ffa76a"/><stop offset="1" stop-color="#ffad6b"/><stop offset="1" stop-color="#ffad6b"/></linearGradient><path fill="url(#o~~IHV_8Y~MBLE~sYYbO3j)" d="M39.55,40.3c-0.37,0.43-0.91,0.7-1.52,0.7H23.89l6.57-10.16C30.8,30.31,31.37,30,32,30	c0.62,0,1.2,0.32,1.54,0.85L39.55,40.3z"/></svg>