<svg xmlns="http://www.w3.org/2000/svg"  viewBox="0 0 48 48" width="50px" height="50px"><path fill="#35c1f1" d="M28,7c-2.209,0-4,1.791-4,4v25c-1.844,0-3.299,1.664-2.947,3.57c0.217,1.179,1.176,2.146,2.353,2.372	c1.557,0.299,2.936-0.608,3.41-1.943H46c1.105,0,2-0.895,2-2V9c0-1.105-0.895-2-2-2H28z"/><path fill="#50e6ff" d="M20,40H2c-1.105,0-2-0.895-2-2V9c0-1.105,0.895-2,2-2h18c2.209,0,4,1.791,4,4v29	C24,40,22.209,40,20,40"/><circle cx="15" cy="16" r="1" fill="#1b9de2"/><path fill="#1b9de2" d="M11,15c-0.186,0-5.814,0-6,0c-0.552,0-1,0.448-1,1c0,0.552,0.448,1,1,1c0.186,0,5.814,0,6,0	c0.552,0,1-0.448,1-1C12,15.448,11.552,15,11,15z"/><path fill="#0078d4" d="M35,15c-0.186,0-5.814,0-6,0c-0.552,0-1,0.448-1,1c0,0.552,0.448,1,1,1c0.186,0,5.814,0,6,0	c0.552,0,1-0.448,1-1C36,15.448,35.552,15,35,15z"/><path fill="#1b9de2" d="M11,19c-0.186,0-5.814,0-6,0c-0.552,0-1,0.448-1,1c0,0.552,0.448,1,1,1c0.186,0,5.814,0,6,0	c0.552,0,1-0.448,1-1C12,19.448,11.552,19,11,19z"/><path fill="#1b9de2" d="M11,23c-0.186,0-5.814,0-6,0c-0.552,0-1,0.448-1,1c0,0.552,0.448,1,1,1c0.186,0,5.814,0,6,0	c0.552,0,1-0.448,1-1C12,23.448,11.552,23,11,23z"/><path fill="#1b9de2" d="M11,31c-0.186,0-5.814,0-6,0c-0.552,0-1,0.448-1,1c0,0.552,0.448,1,1,1c0.186,0,5.814,0,6,0	c0.552,0,1-0.448,1-1C12,31.448,11.552,31,11,31z"/><path fill="#1b9de2" d="M11,27c-0.186,0-5.814,0-6,0c-0.552,0-1,0.448-1,1c0,0.552,0.448,1,1,1c0.186,0,5.814,0,6,0	c0.552,0,1-0.448,1-1C12,27.448,11.552,27,11,27z"/><circle cx="19" cy="16" r="1" fill="#1b9de2"/><circle cx="39" cy="16" r="1" fill="#0078d4"/><circle cx="43" cy="16" r="1" fill="#0078d4"/><path fill="#0078d4" d="M35,19c-0.186,0-5.814,0-6,0c-0.552,0-1,0.448-1,1c0,0.552,0.448,1,1,1c0.186,0,5.814,0,6,0	c0.552,0,1-0.448,1-1C36,19.448,35.552,19,35,19z"/><circle cx="39" cy="20" r="1" fill="#0078d4"/><circle cx="43" cy="20" r="1" fill="#0078d4"/><path fill="#0078d4" d="M35,23c-0.186,0-5.814,0-6,0c-0.552,0-1,0.448-1,1c0,0.552,0.448,1,1,1c0.186,0,5.814,0,6,0	c0.552,0,1-0.448,1-1C36,23.448,35.552,23,35,23z"/><circle cx="43" cy="24" r="1" fill="#0078d4"/><circle cx="15" cy="20" r="1" fill="#1b9de2"/><circle cx="19" cy="20" r="1" fill="#1b9de2"/><circle cx="19" cy="24" r="1" fill="#1b9de2"/><circle cx="19" cy="32" r="1" fill="#1b9de2"/><circle cx="15" cy="28" r="1" fill="#1b9de2"/><circle cx="19" cy="28" r="1" fill="#1b9de2"/></svg>