<svg xmlns="http://www.w3.org/2000/svg"  viewBox="0 0 48 48" width="50px" height="50px"><linearGradient id="iR0Ra5OQLAj5rBQmctUEVa" x1="9.858" x2="38.142" y1="9.858" y2="38.142" gradientTransform="rotate(45.001 24 24)" gradientUnits="userSpaceOnUse"><stop offset="0" stop-color="#33d7f0"/><stop offset="1" stop-color="#0083c4"/></linearGradient><path fill="url(#iR0Ra5OQLAj5rBQmctUEVa)" d="M38.142,38.142c-7.81,7.81-20.474,7.81-28.284,0s-7.81-20.474,0-28.284s20.474-7.81,28.284,0	S45.952,30.332,38.142,38.142z"/><path d="M24,20h-8c-1.105,0-2,0.895-2,2v4c0,1.105,0.895,2,2,2h8v3.648c0,1.336,1.616,2.006,2.561,1.061	l7.295-7.295c0.781-0.781,0.781-2.047,0-2.828l-7.295-7.295C25.616,14.346,24,15.015,24,16.352V20z" opacity=".05"/><path d="M24.5,20.5H16c-0.828,0-1.5,0.672-1.5,1.5v4c0,0.828,0.672,1.5,1.5,1.5h8.5v4.021	c0,0.938,1.134,1.408,1.798,0.745l7.13-7.129c0.627-0.627,0.627-1.644,0-2.271l-7.13-7.129c-0.663-0.663-1.798-0.194-1.798,0.745	V20.5z" opacity=".07"/><path fill="#fff" d="M25,16.607V21h-9c-0.552,0-1,0.448-1,1v4c0,0.552,0.448,1,1,1h9v4.393c0,0.54,0.653,0.81,1.034,0.428	l6.964-6.964c0.473-0.473,0.473-1.241,0-1.714l-6.964-6.964C25.653,15.797,25,16.067,25,16.607z"/></svg>