<svg xmlns="http://www.w3.org/2000/svg"  viewBox="0 0 64 64" width="50px" height="50px"><radialGradient id="VR0ZhLU6mlnjpFya4~WiCa" cx="31.5" cy="31.5" r="31.004" gradientUnits="userSpaceOnUse"><stop offset="0" stop-color="#eed7a2"/><stop offset=".106" stop-color="#f1dcab"/><stop offset=".437" stop-color="#f8e8c3"/><stop offset=".744" stop-color="#fcefd2"/><stop offset="1" stop-color="#fef2d7"/></radialGradient><path fill="url(#VR0ZhLU6mlnjpFya4~WiCa)" d="M59,26c2.335,0,4.22-2.028,3.979-4.41c-0.21-2.075-2.082-3.59-4.168-3.59h-0.704	c-0.996,0-1.92-0.681-2.08-1.664C55.824,15.083,56.785,14,58,14l0.357,0c1.308,0,2.5-0.941,2.63-2.242	C61.137,10.261,59.966,9,58.5,9h-5C52.672,9,52,8.328,52,7.5S52.672,6,53.5,6l3.857,0c1.308,0,2.499-0.941,2.63-2.242	C60.137,2.261,58.966,1,57.5,1L8.643,1c-1.308,0-2.499,0.941-2.63,2.242C5.863,4.739,7.034,6,8.5,6l1.393,0	c0.996,0,1.92,0.681,2.08,1.664C12.176,8.917,11.215,10,10,10l-4.811,0c-2.086,0-3.958,1.514-4.168,3.59C0.78,15.972,2.665,18,5,18	h8.302c1.895,0,3.594,1.419,3.693,3.312C17.101,23.33,15.495,25,13.5,25H4.189c-2.086,0-3.958,1.514-4.168,3.59	C-0.22,30.972,1.665,33,4,33h17v11H5.132c-1.451,0-2.789,0.972-3.071,2.395C1.681,48.307,3.152,50,4.999,50H12c1.105,0,2,0.895,2,2	v0c0,1.105-0.895,2-2,2l-2.811,0c-2.086,0-3.958,1.514-4.168,3.59C4.78,59.972,6.665,62,9,62l40.811,0	c2.086,0,3.958-1.514,4.168-3.59C54.22,56.028,52.335,54,50,54c0,0,0,0-0.001,0h-9.893c-0.996,0-1.92-0.681-2.08-1.664	C37.824,51.083,38.785,50,40,50l18.386,0c1.67,0,3.195-1.122,3.537-2.757C62.392,44.997,60.668,43,58.5,43l-8.857,0	c-1.308,0-2.499-0.941-2.63-2.242C46.863,39.261,48.034,38,49.5,38h10.369c1.451,0,2.789-0.972,3.071-2.395	C63.319,33.693,61.848,32,60,32H41v-6H59z"/><linearGradient id="VR0ZhLU6mlnjpFya4~WiCb" x1="32" x2="32" y1="57.634" y2="-1.789" gradientUnits="userSpaceOnUse"><stop offset="0" stop-color="#155cde"/><stop offset=".278" stop-color="#1f7fe5"/><stop offset=".569" stop-color="#279ceb"/><stop offset=".82" stop-color="#2cafef"/><stop offset="1" stop-color="#2eb5f0"/></linearGradient><path fill="url(#VR0ZhLU6mlnjpFya4~WiCb)" d="M29.963,5.081C17.785,6.045,7.947,15.959,7.067,28.143	c-0.632,8.753,3.247,16.635,9.548,21.562C16.856,49.894,17,50.179,17,50.485v5.146c0,1.518,1.625,2.483,2.958,1.756l5.477-2.988	c0.215-0.117,0.464-0.148,0.703-0.091c2.491,0.599,5.126,0.825,7.845,0.615c12.148-0.938,21.997-10.779,22.94-22.927	C58.117,16.604,45.36,3.862,29.963,5.081z"/><path fill="#fff" d="M29.262,30.306l5.01,5.845c0.388,0.453,1.083,0.467,1.49,0.032l12.309-13.188	c0.157-0.168-0.048-0.425-0.247-0.309l-10.491,6.12c-0.196,0.114-0.445,0.082-0.605-0.078l-5.996-5.996	c-0.4-0.4-1.052-0.389-1.438,0.025L16.83,36.111c-0.154,0.166,0.042,0.42,0.241,0.313l11.574-6.232	C28.852,30.079,29.109,30.127,29.262,30.306z"/></svg>