<svg xmlns="http://www.w3.org/2000/svg"  viewBox="0 0 64 64" width="50px" height="50px"><radialGradient id="H_Q9otmiQCzLwhByAurV3a" cx="31.805" cy="27.079" r="48.269" gradientTransform="matrix(1 0 0 -1 0 64)" gradientUnits="userSpaceOnUse"><stop offset="0" stop-color="#9ceeff"/><stop offset=".642" stop-color="#c5f5ff"/><stop offset="1" stop-color="#dcf9ff"/></radialGradient><path fill="url(#H_Q9otmiQCzLwhByAurV3a)" d="M59.307,45H58.5c-2.485,0-4.5-2.015-4.5-4.5l0,0c0-2.485,2.015-4.5,4.5-4.5h1.328	c2.089,0,3.955-1.527,4.153-3.607C64.209,30.007,62.339,28,60,28h-4.5c-1.381,0-2.5-1.119-2.5-2.5l0,0c0-1.381,1.119-2.5,2.5-2.5	h1.807c2.35,0,4.449-1.718,4.672-4.058C62.235,16.258,60.131,14,57.5,14H38c-1.105,0-2-0.896-2-2l0,0c0-1.105,0.895-2,2-2h3.889	c1.451,0,2.781-0.981,3.054-2.406C45.311,5.677,43.851,4,42,4H28h-5H8.172C6.083,4,4.217,5.527,4.019,7.607	C3.791,9.992,5.661,12,8,12l5.055-0.004c1.074,0,1.945,0.87,1.945,1.944v0.05c0,1.114-0.895,2.01-2,2.01H9.693	c-2.35,0-4.449,1.718-4.672,4.058C4.765,22.742,6.869,25,9.5,25h1c1.381,0,2.5,1.119,2.5,2.5l0,0c0,1.381-1.119,2.5-2.5,2.5H5.736	c-2.873,0-5.438,2.1-5.711,4.96C-0.287,38.24,2.284,41,5.5,41l0,0C6.881,41,8,42.119,8,43.5l0,0C8,44.881,6.881,46,5.5,46H5.172	c-2.089,0-3.955,1.527-4.153,3.607C0.791,51.992,2.661,54,5,54h3h5c1.105,0,2,0.895,2,2l0,0c0,1.105-0.895,2-2,2h-3	c-1.657,0-3,1.343-3,3l0,0c0,1.657,1.343,3,3,3h12h3h26.5c1.933,0,3.5-1.567,3.5-3.5l0,0c0-1.933-1.567-3.5-3.5-3.5h-1	c-0.828,0-1.5-0.672-1.5-1.5l0,0c0-0.828,0.672-1.5,1.5-1.5H53h6.5c2.631,0,4.735-2.258,4.479-4.942	C63.756,46.718,61.657,45,59.307,45z"/><linearGradient id="H_Q9otmiQCzLwhByAurV3b" x1="-758.149" x2="-757.149" y1="4781.345" y2="4781.345" gradientTransform="scale(83.865 -83.865) rotate(90 2012.39 2769.306)" gradientUnits="userSpaceOnUse"><stop offset="0" stop-color="#ffa284"/><stop offset=".847" stop-color="#ffb986"/><stop offset="1" stop-color="#ffbd86"/><stop offset="1" stop-color="#ffbd86"/></linearGradient><path fill="url(#H_Q9otmiQCzLwhByAurV3b)" d="M22,7c-1.657,0-3,1.343-3,3v30l-5.823-5.823c-0.737-0.737-1.733-1.132-2.717-1.132	c-0.823,0-1.639,0.276-2.287,0.86C7.391,34.61,7,35.573,7,36.536c0,0.905,0.345,1.81,1.035,2.5l13.787,13.787	C25.138,56.138,29.634,58,34.322,58C44.085,58,52,50.085,52,40.322V29c0-1.657-1.343-3-3-3s-3,1.343-3,3v2.5l0,0	c0,0.828-0.672,1.5-1.5,1.5S43,32.328,43,31.5V26c0-1.657-1.343-3-3-3s-3,1.343-3,3v4.5l0,0c0,0.828-0.672,1.5-1.5,1.5	S34,31.328,34,30.5V23c0-1.657-1.343-3-3-3c-1.657,0-3,1.343-3,3v4.5V28c0,0.828-0.672,1-1.5,1S25,28.328,25,27.5V10	C25,8.343,23.657,7,22,7"/><linearGradient id="H_Q9otmiQCzLwhByAurV3c" x1="22" x2="22" y1="44" y2="53" gradientTransform="matrix(1 0 0 -1 0 64)" gradientUnits="userSpaceOnUse"><stop offset="0" stop-color="#fc724e"/><stop offset=".214" stop-color="#fc7366"/><stop offset=".524" stop-color="#fa7381"/><stop offset=".793" stop-color="#f97492"/><stop offset=".989" stop-color="#f97499"/></linearGradient><path fill="url(#H_Q9otmiQCzLwhByAurV3c)" d="M27,11c-1.457,0-2.769,0.564-3.683,1.462C22.965,12.807,22.493,13,22,13l0,0	c-0.493,0-0.965-0.193-1.317-0.538C19.769,11.564,18.457,11,17,11c-2.757,0-5,2.019-5,4.5s2.243,4.5,5,4.5	c1.457,0,2.769-0.564,3.683-1.462C21.035,18.193,21.507,18,22,18l0,0c0.493,0,0.965,0.193,1.317,0.538	C24.231,19.436,25.543,20,27,20c2.757,0,5-2.019,5-4.5S29.757,11,27,11z M17,17c-1.084,0-2-0.687-2-1.5s0.916-1.5,2-1.5	s2,0.687,2,1.5S18.084,17,17,17z M27,17c-1.084,0-2-0.687-2-1.5s0.916-1.5,2-1.5s2,0.687,2,1.5S28.084,17,27,17z"/></svg>