<svg xmlns="http://www.w3.org/2000/svg"  viewBox="0 0 48 48" width="50px" height="50px"><radialGradient id="lZaxEkdy4uBmndVHQAM4aa" cx="50.744" cy="33.882" r="23.827" gradientTransform="matrix(1.0244 0 0 1.0645 -1.098 -1.58)" gradientUnits="userSpaceOnUse"><stop offset="0" stop-color="#bd8af5"/><stop offset=".137" stop-color="#b88bf5"/><stop offset=".309" stop-color="#a88ff3"/><stop offset=".499" stop-color="#8f96f2"/><stop offset=".702" stop-color="#6b9eef"/><stop offset=".913" stop-color="#3eaaec"/><stop offset="1" stop-color="#29afea"/></radialGradient><path fill="url(#lZaxEkdy4uBmndVHQAM4aa)" d="M43,41H5c-1.105,0-2-0.895-2-2V10c0-1.105,0.895-2,2-2h38c1.105,0,2,0.895,2,2v29	C45,40.105,44.105,41,43,41z"/><linearGradient id="lZaxEkdy4uBmndVHQAM4ab" x1="21" x2="21" y1="20.753" y2="41.352" gradientUnits="userSpaceOnUse"><stop offset="0" stop-color="#124787"/><stop offset=".923" stop-color="#173b75"/><stop offset="1" stop-color="#173a73"/></linearGradient><path fill="url(#lZaxEkdy4uBmndVHQAM4ab)" d="M19.715,21.715c-1.223-1.223-3.206-1.223-4.429,0L3,34v5c0,1.105,0.895,2,2,2h34	L19.715,21.715z"/><path fill="#436dcd" d="M43,41c1.105,0,2-0.895,2-2v-1L32.715,25.715c-1.223-1.223-3.206-1.223-4.429,0L13,41H43z"/><path fill="#fff" d="M41,16h-2c-0.552,0-1-0.448-1-1v-2c0-0.552,0.448-1,1-1h2c0.552,0,1,0.448,1,1v2	C42,15.552,41.552,16,41,16z"/><path fill="#fff" d="M41,23h-2c-0.552,0-1-0.448-1-1v-2c0-0.552,0.448-1,1-1h2c0.552,0,1,0.448,1,1v2	C42,22.552,41.552,23,41,23z"/><path fill="#fff" d="M41,30h-2c-0.552,0-1-0.448-1-1v-2c0-0.552,0.448-1,1-1h2c0.552,0,1,0.448,1,1v2	C42,29.552,41.552,30,41,30z"/><path fill="#fff" d="M41,37h-2c-0.552,0-1-0.448-1-1v-2c0-0.552,0.448-1,1-1h2c0.552,0,1,0.448,1,1v2	C42,36.552,41.552,37,41,37z"/><path fill="#fff" d="M9,16H7c-0.552,0-1-0.448-1-1v-2c0-0.552,0.448-1,1-1h2c0.552,0,1,0.448,1,1v2	C10,15.552,9.552,16,9,16z"/><path fill="#fff" d="M9,23H7c-0.552,0-1-0.448-1-1v-2c0-0.552,0.448-1,1-1h2c0.552,0,1,0.448,1,1v2	C10,22.552,9.552,23,9,23z"/><path fill="#fff" d="M9,30H7c-0.552,0-1-0.448-1-1v-2c0-0.552,0.448-1,1-1h2c0.552,0,1,0.448,1,1v2	C10,29.552,9.552,30,9,30z"/><path fill="#fff" d="M9,37H7c-0.552,0-1-0.448-1-1v-2c0-0.552,0.448-1,1-1h2c0.552,0,1,0.448,1,1v2	C10,36.552,9.552,37,9,37z"/></svg>