<svg xmlns="http://www.w3.org/2000/svg"  viewBox="0 0 64 64" width="50px" height="50px"><radialGradient id="kcXYF1Vr9QMi5GANG_CB6a" cx="32.833" cy="35.917" r="26" gradientUnits="userSpaceOnUse" spreadMethod="reflect"><stop offset="0" stop-color="#f4e09d"/><stop offset=".226" stop-color="#f8e8b5"/><stop offset=".513" stop-color="#fcf0cd"/><stop offset=".778" stop-color="#fef4dc"/><stop offset="1" stop-color="#fff6e1"/></radialGradient><path fill="url(#kcXYF1Vr9QMi5GANG_CB6a)" d="M6,8L6,8c2.209,0,4-1.791,4-4v0c0-2.209-1.791-4-4-4h0C3.791,0,2,1.791,2,4v0 C2,6.209,3.791,8,6,8z"/><radialGradient id="kcXYF1Vr9QMi5GANG_CB6b" cx="31.417" cy="29.917" r="28.77" gradientUnits="userSpaceOnUse" spreadMethod="reflect"><stop offset="0" stop-color="#f4e09d"/><stop offset=".226" stop-color="#f8e8b5"/><stop offset=".513" stop-color="#fcf0cd"/><stop offset=".778" stop-color="#fef4dc"/><stop offset="1" stop-color="#fff6e1"/></radialGradient><path fill="url(#kcXYF1Vr9QMi5GANG_CB6b)" d="M7.5,64L7.5,64c1.933,0,3.5-1.567,3.5-3.5v0c0-1.933-1.567-3.5-3.5-3.5h0 C5.567,57,4,58.567,4,60.5v0C4,62.433,5.567,64,7.5,64z"/><radialGradient id="kcXYF1Vr9QMi5GANG_CB6c" cx="32" cy="32" r="32" gradientUnits="userSpaceOnUse" spreadMethod="reflect"><stop offset="0" stop-color="#f4e09d"/><stop offset=".226" stop-color="#f8e8b5"/><stop offset=".513" stop-color="#fcf0cd"/><stop offset=".778" stop-color="#fef4dc"/><stop offset="1" stop-color="#fff6e1"/></radialGradient><path fill="url(#kcXYF1Vr9QMi5GANG_CB6c)" d="M64,20.5L64,20.5c0-2.485-2.015-4.5-4.5-4.5H54c-2.209,0-4-1.791-4-4v0c0-2.209,1.791-4,4-4 h1c2.209,0,4-1.791,4-4v0c0-2.209-1.791-4-4-4L16,0c-2.209,0-4,1.791-4,4v0c0,2.209,1.791,4,4,4h1c1.657,0,3,1.343,3,3v0 c0,1.657-1.343,3-3,3H5.5C3.567,14,2,15.567,2,17.5v0C2,19.433,3.567,21,5.5,21H6c1.657,0,3,1.343,3,3v0c0,1.657-1.343,3-3,3H5 c-2.761,0-5,2.239-5,5v0c0,2.761,2.239,5,5,5h5.5c1.933,0,3.5,1.567,3.5,3.5v0c0,1.933-1.567,3.5-3.5,3.5H9c-2.209,0-4,1.791-4,4v0 c0,2.209,1.791,4,4,4h8.5c1.381,0,2.5,1.119,2.5,2.5v0c0,1.381-1.119,2.5-2.5,2.5h0c-1.933,0-3.5,1.567-3.5,3.5v0 c0,1.933,1.567,3.5,3.5,3.5h30c1.933,0,3.5-1.567,3.5-3.5v0c0-1.933-1.567-3.5-3.5-3.5H47c-1.105,0-2-0.895-2-2v0 c0-1.105,0.895-2,2-2h8c2.209,0,4-1.791,4-4v0c0-2.209-1.791-4-4-4h-1c-1.381,0-2.5-1.119-2.5-2.5v0c0-1.381,1.119-2.5,2.5-2.5h6 c2.209,0,4-1.791,4-4v0c0-2.209-1.791-4-4-4h-3c-1.933,0-3.5-1.567-3.5-3.5v0c0-1.933,1.567-3.5,3.5-3.5h2.5 C61.985,25,64,22.985,64,20.5z"/><g><linearGradient id="kcXYF1Vr9QMi5GANG_CB6d" x1="32" x2="32" y1="42" y2="6" gradientUnits="userSpaceOnUse" spreadMethod="reflect"><stop offset="0" stop-color="#41bfec"/><stop offset=".235" stop-color="#4cc5ef"/><stop offset=".651" stop-color="#6bd4f6"/><stop offset="1" stop-color="#89e4fd"/></linearGradient><path fill="url(#kcXYF1Vr9QMi5GANG_CB6d)" d="M52.5,27h-1.369C51.684,25.955,52,24.765,52,23.5c0-4.142-3.358-7.5-7.5-7.5h-2.183 C42.75,15.09,43,14.075,43,13c0-3.866-3.134-7-7-7h-6c-3.866,0-7,3.134-7,7c0,1.075,0.25,2.09,0.683,3H20.5 c-4.142,0-7.5,3.358-7.5,7.5c0,1.265,0.316,2.455,0.869,3.5H11.5C7.358,27,4,30.358,4,34.5S7.358,42,11.5,42h41 c4.142,0,7.5-3.358,7.5-7.5S56.642,27,52.5,27z"/></g><linearGradient id="kcXYF1Vr9QMi5GANG_CB6e" x1="21" x2="21" y1="42" y2="6" gradientUnits="userSpaceOnUse" spreadMethod="reflect"><stop offset="0" stop-color="#60c7ee"/><stop offset=".271" stop-color="#6ccdf1"/><stop offset=".758" stop-color="#8bdef9"/><stop offset="1" stop-color="#9de8fd"/></linearGradient><path fill="url(#kcXYF1Vr9QMi5GANG_CB6e)" d="M33,28h1c2.209,0,4-1.791,4-4c0-2.209-1.791-4-4-4h-2c-1.657,0-3-1.343-3-3s1.343-3,3-3 c2.209,0,4-1.791,4-4c0-2.209-1.791-4-4-4h-2c-3.866,0-7,3.134-7,7c0,1.075,0.25,2.09,0.683,3H20.5c-4.142,0-7.5,3.358-7.5,7.5 c0,1.265,0.316,2.455,0.869,3.5H11.5C7.358,27,4,30.358,4,34.5S7.358,42,11.5,42H30C32.209,42,31.343,28,33,28z"/><linearGradient id="kcXYF1Vr9QMi5GANG_CB6f" x1="32" x2="32" y1="23" y2="61" gradientUnits="userSpaceOnUse" spreadMethod="reflect"><stop offset="0" stop-color="#a4a4a4"/><stop offset=".63" stop-color="#7f7f7f"/><stop offset="1" stop-color="#6f6f6f"/><stop offset="1" stop-color="#6f6f6f"/></linearGradient><path fill="url(#kcXYF1Vr9QMi5GANG_CB6f)" d="M41.891,47H35V26c0-1.657-1.343-3-3-3c-1.657,0-3,1.343-3,3v21h-6.891 c-1.841,0-2.795,2.076-1.539,3.348l9.891,10.02c0.832,0.843,2.246,0.843,3.078,0l9.891-10.02C44.686,49.076,43.731,47,41.891,47z"/></svg>