<svg xmlns="http://www.w3.org/2000/svg"  viewBox="0 0 64 64" width="50px" height="50px"><radialGradient id="YpqSooQpJg0Rxf1AToQY8a" cx="32" cy="32" r="33.002" gradientUnits="userSpaceOnUse" spreadMethod="reflect"><stop offset="0" stop-color="#f4e09d"/><stop offset=".226" stop-color="#f8e8b5"/><stop offset=".513" stop-color="#fcf0cd"/><stop offset=".778" stop-color="#fef4dc"/><stop offset="1" stop-color="#fff6e1"/></radialGradient><path fill="url(#YpqSooQpJg0Rxf1AToQY8a)" d="M55.454,45.668c0.5,0.898,1.504,1.337,2.532,1.332c1.75-0.008,3.153,1.483,3.002,3.262 C60.855,51.838,59.434,53,57.852,53L48,53v1H26h-8H7c-1.71,0-3.086-1.431-2.996-3.161C4.089,49.216,5.545,48,7.17,48L8,48 c1.215,0,2.176-1.083,1.973-2.336C9.813,44.681,8.889,44,7.893,44L3,44c-1.71,0-3.086-1.431-2.996-3.161 C0.089,39.216,1.545,38,3.17,38l6.33,0c1.381,0,2.5-1.119,2.5-2.5v0c0-1.381-1.119-2.5-2.5-2.5h0C8.119,33,7,31.881,7,30.5v0 C7,29.119,8.119,28,9.5,28H18v-7h-7.5c-1.995,0-3.601-1.67-3.495-3.688C7.104,15.419,8.803,14,10.698,14L18,14v-4h24h6h8.5 c1.995,0,3.601,1.67,3.495,3.688C59.896,15.581,58.197,17,56.302,17L53.5,17c-1.995,0-3.601,1.67-3.495,3.688 C50.104,22.581,51.803,24,53.698,24L56,24c1.777,0,3.194,1.546,2.978,3.366c-0.179,1.509-1.546,2.572-3.064,2.635 c-1.197,0.05-2.122,1.153-1.874,2.406C54.228,33.355,55.123,34,56.089,34H60.5c1.995,0,3.601,1.67,3.495,3.688 C63.896,39.581,62.197,41,60.302,41L58,41C55.808,41,54.166,43.35,55.454,45.668z M2.5,33L2.5,33C3.881,33,5,31.881,5,30.5v0 C5,29.119,3.881,28,2.5,28h0C1.119,28,0,29.119,0,30.5v0C0,31.881,1.119,33,2.5,33z"/><linearGradient id="YpqSooQpJg0Rxf1AToQY8b" x1="33" x2="33" y1="58" y2="6" gradientUnits="userSpaceOnUse" spreadMethod="reflect"><stop offset="0" stop-color="#41bfec"/><stop offset=".235" stop-color="#4cc5ef"/><stop offset=".651" stop-color="#6bd4f6"/><stop offset="1" stop-color="#89e4fd"/></linearGradient><path fill="url(#YpqSooQpJg0Rxf1AToQY8b)" d="M50,58H16c-1.657,0-3-1.343-3-3V9c0-1.657,1.343-3,3-3h20.757 c0.796,0,1.559,0.316,2.121,0.879l13.243,13.243C52.684,20.684,53,21.447,53,22.243V55C53,56.657,51.657,58,50,58z"/><linearGradient id="YpqSooQpJg0Rxf1AToQY8c" x1="38.879" x2="46.454" y1="20.121" y2="12.546" gradientUnits="userSpaceOnUse" spreadMethod="reflect"><stop offset="0" stop-color="#c7effd"/><stop offset=".369" stop-color="#b8ecfd"/><stop offset="1" stop-color="#95e5fd"/></linearGradient><path fill="url(#YpqSooQpJg0Rxf1AToQY8c)" d="M52.121,20.122L38.878,6.879c-0.255-0.255-0.556-0.452-0.878-0.6V18c0,1.657,1.343,3,3,3 h11.721C52.574,20.678,52.377,20.377,52.121,20.122z"/><linearGradient id="YpqSooQpJg0Rxf1AToQY8d" x1="45.5" x2="45.5" y1="24.083" y2="18.083" gradientUnits="userSpaceOnUse" spreadMethod="reflect"><stop offset="0" stop-color="#42c6ee"/><stop offset=".534" stop-color="#3bc3ed"/><stop offset="1" stop-color="#31bfeb"/></linearGradient><path fill="url(#YpqSooQpJg0Rxf1AToQY8d)" d="M41,21c-1.657,0-3-1.343-3-3v3c0,1.657,1.343,3,3,3h12v-1.757 c0-0.434-0.102-0.855-0.279-1.243H41z"/><linearGradient id="YpqSooQpJg0Rxf1AToQY8e" x1="33" x2="33" y1="47" y2="26" gradientUnits="userSpaceOnUse" spreadMethod="reflect"><stop offset="0" stop-color="#155cde"/><stop offset=".261" stop-color="#1868e0"/><stop offset=".73" stop-color="#2187e7"/><stop offset="1" stop-color="#279ceb"/></linearGradient><path fill="url(#YpqSooQpJg0Rxf1AToQY8e)" d="M43.951,33.944c-0.128-0.395-0.485-0.669-0.9-0.69l-6.069-0.31 c-0.396-0.02-0.742-0.272-0.883-0.642l-2.161-5.659C33.789,26.256,33.418,26,33.003,26s-0.786,0.256-0.935,0.643l-2.161,5.659 c-0.141,0.37-0.488,0.622-0.883,0.642l-6.075,0.31c-0.414,0.021-0.772,0.296-0.9,0.69c-0.128,0.395,0.001,0.828,0.324,1.087 l4.721,3.795c0.312,0.251,0.444,0.664,0.336,1.049l-1.642,5.854c-0.112,0.399,0.034,0.827,0.368,1.074 C26.332,46.934,26.541,47,26.751,47c0.188,0,0.374-0.052,0.539-0.158l5.173-3.312c0.329-0.21,0.75-0.21,1.079,0l5.168,3.311 c0.348,0.225,0.801,0.208,1.134-0.038c0.334-0.247,0.48-0.674,0.368-1.074l-1.642-5.854c-0.108-0.386,0.024-0.799,0.336-1.049 l4.721-3.795C43.95,34.772,44.079,34.339,43.951,33.944z"/></svg>