<svg xmlns="http://www.w3.org/2000/svg"  viewBox="0 0 64 64" width="50px" height="50px"><radialGradient id="GlzIHcr4tw2Wdff~uQ_bua" cx="32" cy="32" r="30.537" gradientUnits="userSpaceOnUse" spreadMethod="reflect"><stop offset="0" stop-color="#f4e9c3"/><stop offset=".219" stop-color="#f8eecd"/><stop offset=".644" stop-color="#fdf4dc"/><stop offset="1" stop-color="#fff6e1"/></radialGradient><path fill="url(#GlzIHcr4tw2Wdff~uQ_bua)" d="M64,24.025L64,24.025C64,21.25,61.75,19,58.975,19H54.5c-2.485,0-4.5-2.015-4.5-4.5v0 c0-2.485,2.015-4.5,4.5-4.5h1c1.933,0,3.5-1.567,3.5-3.5v0C59,4.567,57.433,3,55.5,3h-47C6.567,3,5,4.567,5,6.5v0 C5,8.433,6.567,10,8.5,10h1c2.485,0,4.5,2.015,4.5,4.5v0c0,2.485-2.015,4.5-4.5,4.5H4c-2.209,0-4,1.791-4,4v0c0,2.209,1.791,4,4,4 h2.5c1.933,0,3.5,1.567,3.5,3.5v0c0,1.933-1.567,3.5-3.499,3.5H6.499C3.462,34.001,1,36.463,1,39.5v0C1,42.538,3.462,45,6.5,45h4 c1.933,0,3.5,1.567,3.5,3.5v0c0,1.933-1.567,3.5-3.5,3.5h0C8.015,52,6,54.015,6,56.5v0c0,2.485,2.015,4.5,4.5,4.5h45 c2.485,0,4.5-2.015,4.5-4.5v0c0-2.485-2.015-4.5-4.5-4.5h-2.01C51.563,52,50,50.437,50,48.51v-0.001c0-1.927,1.563-3.49,3.49-3.49 h5.5c2.214,0,4.01-1.795,4.01-4.01v0c0-2.214-1.795-4.01-4.01-4.01h-1.02C55.777,37,54,35.223,54,33.03v-0.009 c0-2.193,1.777-3.97,3.97-3.97h1.005C61.75,29.051,64,26.801,64,24.025z M31,38h5v5h-5V38z"/><linearGradient id="GlzIHcr4tw2Wdff~uQ_bub" x1="30.5" x2="30.5" y1="61.273" y2="-.942" gradientTransform="matrix(-1 0 0 1 63 0)" gradientUnits="userSpaceOnUse" spreadMethod="reflect"><stop offset="0" stop-color="#155cde"/><stop offset=".278" stop-color="#1f7fe5"/><stop offset=".569" stop-color="#279ceb"/><stop offset=".82" stop-color="#2cafef"/><stop offset="1" stop-color="#2eb5f0"/></linearGradient><path fill="url(#GlzIHcr4tw2Wdff~uQ_bub)" d="M46.862,34.47L21.255,56.362C19.581,57.793,17,56.604,17,54.402V9.598 c0-2.202,2.581-3.391,4.255-1.96L46.862,29.53C48.379,30.827,48.379,33.173,46.862,34.47z"/><linearGradient id="GlzIHcr4tw2Wdff~uQ_buc" x1="21.5" x2="21.5" y1="22" y2="7.017" gradientUnits="userSpaceOnUse" spreadMethod="reflect"><stop offset="0" stop-color="#3fabee"/><stop offset=".368" stop-color="#41b2f0"/><stop offset="1" stop-color="#42b8f1"/></linearGradient><path fill="url(#GlzIHcr4tw2Wdff~uQ_buc)" d="M26,19.5c0,1.38-1.12,2.5-2.5,2.5H17V9.6c0-2.2,2.58-3.39,4.25-1.96l3.48,2.98 c-0.11,0.24-0.27,0.46-0.46,0.65C23.82,11.72,23.19,12,22.5,12c-1.38,0-2.5,1.12-2.5,2.5s1.12,2.5,2.5,2.5h1 c0.69,0,1.32,0.28,1.77,0.73C25.72,18.18,26,18.81,26,19.5z"/><linearGradient id="GlzIHcr4tw2Wdff~uQ_bud" x1="34.999" x2="34.999" y1="53.96" y2="30" gradientUnits="userSpaceOnUse" spreadMethod="reflect"><stop offset="0" stop-color="#1663cf"/><stop offset=".275" stop-color="#1a73d6"/><stop offset=".697" stop-color="#1f85df"/><stop offset="1" stop-color="#218be2"/></linearGradient><path fill="url(#GlzIHcr4tw2Wdff~uQ_bud)" d="M46.86,34.47L34.54,45H32.5c-0.69,0-1.32-0.28-1.77-0.73C30.28,43.82,30,43.19,30,42.5 c0-1.38,1.12-2.5,2.5-2.5h3c0.69,0,1.32-0.28,1.77-0.73C37.72,38.82,38,38.19,38,37.5c0-1.38-1.12-2.5-2.5-2.5h-1 c-1.38,0-2.5-1.12-2.5-2.5s1.12-2.5,2.5-2.5h12.81C48.36,31.34,48.21,33.31,46.86,34.47z M24.5,49c-0.69,0-1.32,0.28-1.77,0.73 C22.28,50.18,22,50.81,22,51.5c0,1.23,0.89,2.25,2.06,2.46l5.8-4.96H24.5z M30,32.5L30,32.5c0-1.381-1.119-2.5-2.5-2.5h0 c-1.381,0-2.5,1.119-2.5,2.5v0c0,1.381,1.119,2.5,2.5,2.5h0C28.881,35,30,33.881,30,32.5z"/></svg>