<svg xmlns="http://www.w3.org/2000/svg"  viewBox="0 0 64 64" width="50px" height="50px"><radialGradient id="HHOuYIhFVGzT1Z2qOi1SFa" cx="32" cy="-151.286" r="31.259" gradientTransform="matrix(1 0 0 -.7143 0 -77.564)" gradientUnits="userSpaceOnUse"><stop offset="0" stop-color="#eed7a2"/><stop offset=".106" stop-color="#f1dcab"/><stop offset=".437" stop-color="#f8e8c3"/><stop offset=".744" stop-color="#fcefd2"/><stop offset="1" stop-color="#fef2d7"/></radialGradient><path fill="url(#HHOuYIhFVGzT1Z2qOi1SFa)" d="M63.98,57.41C63.77,59.49,61.9,61,59.81,61H4c-2.34,0-4.22-2.03-3.98-4.41	C0.23,54.51,2.1,53,4.19,53H9c1.11,0,2-0.9,2-2s-0.89-2-2-2H4c-1.65,0-3-1.35-3-3s1.35-3,3-3h18v-9H4c-2.34,0-4.22-2.03-3.98-4.41	C0.23,27.51,2.1,26,4.19,26H8.5c1.93,0,3.5-1.57,3.5-3.5S10.43,19,8.5,19H4c-2.34,0-4.22-2.03-3.98-4.41C0.23,12.51,2.1,11,4.19,11	H18.5c0.69,0,1.32-0.28,1.77-0.73C20.72,9.82,21,9.19,21,8.5C21,7.12,19.88,6,18.5,6H16c-0.83,0-1.58-0.34-2.12-0.88S13,3.83,13,3	c0-1.66,1.34-3,3-3h32.5c1.47,0,2.64,1.26,2.49,2.76C50.86,4.06,49.66,5,48.36,5H44.5C43.67,5,43,5.67,43,6.5S43.67,8,44.5,8h16	c1.47,0,2.64,1.26,2.49,2.76c-0.13,1.3-1.33,2.24-2.63,2.24H60c-1.1,0-2,0.9-2,2s0.9,2,2,2h-0.19c2.09,0,3.96,1.51,4.17,3.59	C64.22,22.97,62.33,25,60,25H42v17h18.5c1.92,0,3.5,1.58,3.5,3.5S62.42,49,60.5,49H52c-1.1,0-2,0.9-2,2c0,0.55,0.22,1.05,0.59,1.41	C50.95,52.78,51.45,53,52,53h8C62.33,53,64.22,55.03,63.98,57.41z"/><linearGradient id="HHOuYIhFVGzT1Z2qOi1SFb" x1="35" x2="35" y1="3.419" y2="54.487" gradientTransform="matrix(1 0 0 -1 0 66)" gradientUnits="userSpaceOnUse"><stop offset="0" stop-color="#3280e5"/><stop offset=".076" stop-color="#3487e6"/><stop offset=".449" stop-color="#3ca4ed"/><stop offset=".77" stop-color="#41b7f1"/><stop offset="1" stop-color="#43bdf2"/></linearGradient><path fill="url(#HHOuYIhFVGzT1Z2qOi1SFb)" d="M48.497,13H21.503C16.807,13,13,16.807,13,21.503v23.994C13,50.193,16.807,54,21.503,54	h26.994C53.193,54,57,50.193,57,45.497V21.503C57,16.807,53.193,13,48.497,13z"/><linearGradient id="HHOuYIhFVGzT1Z2qOi1SFc" x1="16.5" x2="16.5" y1="15.687" y2="79.211" gradientTransform="matrix(1 0 0 -1 0 66)" gradientUnits="userSpaceOnUse"><stop offset="0" stop-color="#155cde"/><stop offset=".278" stop-color="#1f7fe5"/><stop offset=".569" stop-color="#279ceb"/><stop offset=".82" stop-color="#2cafef"/><stop offset="1" stop-color="#2eb5f0"/></linearGradient><path fill="url(#HHOuYIhFVGzT1Z2qOi1SFc)" d="M26,15v37c0,0.71-0.15,1.39-0.41,2c-0.78,1.76-2.54,3-4.59,3h-9c-2.76,0-5-2.24-5-5V8.5	C7,7.12,8.12,6,9.5,6S12,7.12,12,8.5V10h9c2.05,0,3.81,1.24,4.59,3C25.85,13.61,26,14.29,26,15z"/><linearGradient id="HHOuYIhFVGzT1Z2qOi1SFd" x1="41" x2="41" y1="46.809" y2="29.802" gradientTransform="matrix(1 0 0 -1 0 66)" gradientUnits="userSpaceOnUse"><stop offset="0" stop-color="#b0eef9"/><stop offset=".392" stop-color="#adeaf8"/><stop offset=".94" stop-color="#a7e0f3"/><stop offset="1" stop-color="#a5dff3"/></linearGradient><path fill="url(#HHOuYIhFVGzT1Z2qOi1SFd)" d="M48,30H34c-2.209,0-4-1.791-4-4v-4c0-2.209,1.791-4,4-4h14c2.209,0,4,1.791,4,4v4	C52,28.209,50.209,30,48,30z"/><path fill="#fff" d="M34.457,38h-3c-0.825,0-1.5-0.675-1.5-1.5l0,0c0-0.825,0.675-1.5,1.5-1.5h3	c0.825,0,1.5,0.675,1.5,1.5l0,0C35.957,37.325,35.282,38,34.457,38z M43.957,36.5L43.957,36.5c0-0.825-0.675-1.5-1.5-1.5h-3	c-0.825,0-1.5,0.675-1.5,1.5l0,0c0,0.825,0.675,1.5,1.5,1.5h3C43.282,38,43.957,37.325,43.957,36.5z M51.957,36.5L51.957,36.5	c0-0.825-0.675-1.5-1.5-1.5h-3c-0.825,0-1.5,0.675-1.5,1.5l0,0c0,0.825,0.675,1.5,1.5,1.5h3C51.282,38,51.957,37.325,51.957,36.5z M35.957,41.5L35.957,41.5c0-0.825-0.675-1.5-1.5-1.5h-3c-0.825,0-1.5,0.675-1.5,1.5l0,0c0,0.825,0.675,1.5,1.5,1.5h3	C35.282,43,35.957,42.325,35.957,41.5z M43.957,41.5L43.957,41.5c0-0.825-0.675-1.5-1.5-1.5h-3c-0.825,0-1.5,0.675-1.5,1.5l0,0	c0,0.825,0.675,1.5,1.5,1.5h3C43.282,43,43.957,42.325,43.957,41.5z M51.957,41.5L51.957,41.5c0-0.825-0.675-1.5-1.5-1.5h-3	c-0.825,0-1.5,0.675-1.5,1.5l0,0c0,0.825,0.675,1.5,1.5,1.5h3C51.282,43,51.957,42.325,51.957,41.5z M35.957,46.5L35.957,46.5	c0-0.825-0.675-1.5-1.5-1.5h-3c-0.825,0-1.5,0.675-1.5,1.5l0,0c0,0.825,0.675,1.5,1.5,1.5h3C35.282,48,35.957,47.325,35.957,46.5z M43.957,46.5L43.957,46.5c0-0.825-0.675-1.5-1.5-1.5h-3c-0.825,0-1.5,0.675-1.5,1.5l0,0c0,0.825,0.675,1.5,1.5,1.5h3	C43.282,48,43.957,47.325,43.957,46.5z M51.957,46.5L51.957,46.5c0-0.825-0.675-1.5-1.5-1.5h-3c-0.825,0-1.5,0.675-1.5,1.5l0,0	c0,0.825,0.675,1.5,1.5,1.5h3C51.282,48,51.957,47.325,51.957,46.5z"/><linearGradient id="HHOuYIhFVGzT1Z2qOi1SFe" x1="13.5" x2="13.5" y1="8.596" y2="49.127" gradientTransform="matrix(1 0 0 -1 0 66)" gradientUnits="userSpaceOnUse"><stop offset="0" stop-color="#155cde"/><stop offset=".278" stop-color="#1f7fe5"/><stop offset=".749" stop-color="#279ceb"/><stop offset=".854" stop-color="#2cafef"/><stop offset="1" stop-color="#2eb5f0"/></linearGradient><path fill="url(#HHOuYIhFVGzT1Z2qOi1SFe)" d="M19.987,35.759C19.856,37.06,18.663,38,17.356,38H7V18h5c0.59,0,1.12,0.26,1.49,0.67	C13.81,19.02,14,19.49,14,20c0,0.74-0.4,1.38-1,1.73C12.71,21.9,12.36,22,12,22h-0.5c-0.828,0-1.5,0.672-1.5,1.5l0,0	c0,0.828,0.672,1.5,1.5,1.5h2.856c1.308,0,2.5,0.94,2.631,2.241C17.138,28.737,15.965,30,14.5,30h-1c-0.828,0-1.5,0.672-1.5,1.5l0,0	c0,0.828,0.672,1.5,1.5,1.5h4C18.965,33,20.138,34.263,19.987,35.759z"/><linearGradient id="HHOuYIhFVGzT1Z2qOi1SFf" x1="19" x2="19" y1="8.596" y2="49.127" gradientTransform="matrix(1 0 0 -1 0 66)" gradientUnits="userSpaceOnUse"><stop offset="0" stop-color="#155cde"/><stop offset=".278" stop-color="#1f7fe5"/><stop offset=".749" stop-color="#279ceb"/><stop offset=".854" stop-color="#2cafef"/><stop offset="1" stop-color="#2eb5f0"/></linearGradient><path fill="url(#HHOuYIhFVGzT1Z2qOi1SFf)" d="M19,22L19,22c-1.105,0-2-0.895-2-2l0,0c0-1.105,0.895-2,2-2l0,0c1.105,0,2,0.895,2,2l0,0	C21,21.105,20.105,22,19,22z"/></svg>