<svg xmlns="http://www.w3.org/2000/svg"  viewBox="0 0 64 64" width="50px" height="50px"><radialGradient id="7BnRgGZbmppP0oTmQ_Dbja" cx="32.469" cy="18.231" r="23.53" gradientTransform="matrix(1 0 0 -1 0 64)" gradientUnits="userSpaceOnUse"><stop offset="0" stop-color="#8deeff"/><stop offset=".193" stop-color="#a0f0ff"/><stop offset=".703" stop-color="#c8f7ff"/><stop offset="1" stop-color="#d6f9ff"/></radialGradient><path fill="url(#7BnRgGZbmppP0oTmQ_Dbja)" d="M63.98,48.04C64.25,50.72,62.13,53,59.5,53h-5c-1.47,0-2.64,1.26-2.49,2.76	c0.13,1.3,1.33,2.24,2.63,2.24H58c1.71,0,3.08,1.42,3,3.16C60.91,62.78,59.46,64,57.84,64H5c-1.71,0-3.08-1.42-3-3.16	C2.09,59.22,3.54,58,5.16,58H6c1.1,0,2.1-0.45,2.83-1.17C9.55,56.1,10,55.1,10,54c0-2.21-1.79-4-4-4H3c-0.83,0-1.58-0.34-2.12-0.88	C0.34,48.58,0,47.83,0,47c0-0.79,0.31-1.51,0.81-2.04C1.35,44.37,2.13,44,3,44h1c1.1,0,4,0,4-2c0-3-1.79-3-4-3l0,0	c-2.34,0-4.21-2.01-3.98-4.39C0.22,32.53,2.08,31,4.17,31H15.5c0.96,0,1.84-0.39,2.47-1.03C18.61,29.34,19,27.46,19,26.5	c0-1.93-1.57-3.5-3.5-3.5L4.59,23.01c-0.05,0-0.09,0-0.14-0.01c-1.09-0.05-2.07-0.76-2.36-1.81c-0.44-1.66,0.82-3.18,2.41-3.18H6	c1.21,0,2.18-1.09,1.97-2.34c-0.16-0.99-1.09-1.66-2.09-1.66H4c-1.85,0-3.32-1.69-2.94-3.6c0.28-1.43,1.62-2.4,3.07-2.4L12.5,8	C13.33,8,14,7.33,14,6.5S13.33,5,12.5,5h-0.9c-1.14,0-2.21-0.72-2.51-1.82C8.64,1.52,9.9,0,11.5,0h43.9c1.14,0,2.21,0.72,2.51,1.82	C58.36,3.48,57.1,5,55.5,5h-1c-0.69,0-1.32,0.28-1.77,0.73C52.31,6.15,52.04,6.72,52,7.35C51.92,8.8,53.2,10,54.66,10H61	c1.85,0,3.32,1.69,2.94,3.6c-0.28,1.43-1.62,2.4-3.07,2.4H59c-0.55,0-1.05,0.22-1.41,0.59C57.22,16.95,57,17.45,57,18	c0,1.1,0.9,2,2,2h1.5c1.47,0,2.64,1.26,2.49,2.76c-0.13,1.3-1.32,2.24-2.63,2.24H47c-0.83,0-1.58,0.34-2.12,0.88	C44.34,26.42,44,28.17,44,29c0,1.66,1.34,3,3,3h13c2.34,0,4.21,2.01,3.98,4.39c-0.2,2.08-2.06,3.61-4.15,3.61H60	c-0.55,0-1.05,0.22-1.41,0.59C58.22,40.95,58,41.45,58,42c0,1.1,0.9,2,2,2h-0.71C61.63,44,63.74,45.7,63.98,48.04z"/><linearGradient id="7BnRgGZbmppP0oTmQ_Dbjb" x1="32" x2="32" y1="-1034.095" y2="-948.552" gradientTransform="matrix(1 0 0 -1 0 -950)" gradientUnits="userSpaceOnUse"><stop offset="0" stop-color="#fc724e"/><stop offset=".214" stop-color="#fc7366"/><stop offset=".524" stop-color="#fa7381"/><stop offset=".793" stop-color="#f97492"/><stop offset=".989" stop-color="#f97499"/></linearGradient><path fill="url(#7BnRgGZbmppP0oTmQ_Dbjb)" d="M32,3.7c-11.602,0-21,9.044-21,20.191c0,11.661,12.024,26.489,17.875,33.014	c1.667,1.859,4.582,1.859,6.25,0C40.976,50.38,53,35.552,53,23.891C53,12.744,43.602,3.7,32,3.7z"/><linearGradient id="7BnRgGZbmppP0oTmQ_Dbjc" x1="28.426" x2="28.426" y1="32.318" y2="25.027" gradientTransform="matrix(1 0 0 -1 0 64)" gradientUnits="userSpaceOnUse"><stop offset="0" stop-color="#00d772"/><stop offset=".428" stop-color="#00ca71"/><stop offset="1" stop-color="#00b26e"/></linearGradient><path fill="url(#7BnRgGZbmppP0oTmQ_Dbjc)" d="M33.039,33.898c-0.137,1.365-1.386,2.352-2.762,2.352h-5.103	c-0.504,0-0.976,0.147-1.375,0.389c0.756-3.161,3.538-5.523,6.899-5.628c0,0,0,0,0.011,0C32.115,31.168,33.187,32.418,33.039,33.898	z"/><linearGradient id="7BnRgGZbmppP0oTmQ_Dbjd" x1="25.768" x2="25.768" y1="-26.45" y2="58.122" gradientTransform="matrix(1 0 0 -1 0 64)" gradientUnits="userSpaceOnUse"><stop offset="0" stop-color="#ff7d5c"/><stop offset=".214" stop-color="#ff7e72"/><stop offset=".524" stop-color="#fc7e8c"/><stop offset=".793" stop-color="#fa7f9c"/><stop offset=".989" stop-color="#fa7fa2"/><stop offset="1" stop-color="#fa7fa2"/></linearGradient><path fill="url(#7BnRgGZbmppP0oTmQ_Dbjd)" d="M39.298,52c-1.544,1.911-2.982,3.58-4.169,4.903C34.289,57.838,33.145,58.3,32,58.3	s-2.289-0.462-3.129-1.397c-2.499-2.793-6.132-7.098-9.461-12.022c-2.136-3.168-4.131-6.503-5.67-9.996	c-0.588-1.302-1.092-2.593-1.501-3.885h18.186c1.543,0,2.772,1.323,2.614,2.898c-0.137,1.365-1.386,2.352-2.762,2.352h-5.103	c-0.725,0-1.386,0.294-1.859,0.766c-0.472,0.472-0.766,1.134-0.766,1.859c0,1.449,1.176,2.625,2.625,2.625H32	c1.942,0,3.475,1.764,3.087,3.769c-0.284,1.502-1.68,2.531-3.202,2.531H29.9c-0.577,0-1.102,0.231-1.48,0.619	c-0.389,0.378-0.62,0.903-0.62,1.481c0,1.155,0.945,2.1,2.1,2.1H39.298z"/><path fill="#fff" d="M32,10c-8.119,0-14.7,6.581-14.7,14.7c0,5.06,2.556,9.523,6.448,12.168L32,38.35l8.219-1.46	c3.91-2.642,6.481-7.115,6.481-12.19C46.7,16.581,40.119,10,32,10z"/><linearGradient id="7BnRgGZbmppP0oTmQ_Dbje" x1="32" x2="32" y1="22.828" y2="38.325" gradientTransform="matrix(1 0 0 -1 0 64)" gradientUnits="userSpaceOnUse"><stop offset="0" stop-color="#fdc462"/><stop offset=".004" stop-color="#fdc462"/><stop offset=".609" stop-color="#fdc380"/><stop offset="1" stop-color="#fdc28f"/><stop offset="1" stop-color="#fdc28f"/></linearGradient><circle cx="32" cy="22.6" r="6.3" fill="url(#7BnRgGZbmppP0oTmQ_Dbje)"/><linearGradient id="7BnRgGZbmppP0oTmQ_Dbjf" x1="32" x2="32" y1="31.998" y2="21.116" gradientTransform="matrix(1 0 0 -1 0 64)" gradientUnits="userSpaceOnUse"><stop offset="0" stop-color="#00d772"/><stop offset=".428" stop-color="#00ca71"/><stop offset="1" stop-color="#00b26e"/></linearGradient><path fill="url(#7BnRgGZbmppP0oTmQ_Dbjf)" d="M40.253,36.859c0,0,0,0,0,0.01C37.901,38.465,35.055,39.4,32,39.4s-5.901-0.935-8.253-2.531	c0-0.01,0-0.01,0-0.01C24.44,33.51,27.401,31,30.95,31h2.1C36.599,31,39.56,33.51,40.253,36.859z"/><linearGradient id="7BnRgGZbmppP0oTmQ_Dbjg" x1="25.699" x2="38.299" y1="46.124" y2="46.124" gradientTransform="matrix(1 0 0 -1 0 64)" gradientUnits="userSpaceOnUse"><stop offset="0" stop-color="#e1714d"/><stop offset=".25" stop-color="#e2754e"/><stop offset="1" stop-color="#e47b50"/></linearGradient><path fill="url(#7BnRgGZbmppP0oTmQ_Dbjg)" d="M37.307,16.884c0.323-0.376,0.577-0.734,0.794-1.022l-0.012-0.013	c0.123-0.172,0.21-0.371,0.21-0.598c0-0.58-0.47-1.05-1.05-1.05c-0.191,0-0.525,0.144-0.525,0.144	c-1.903,0.69-2.943-1.194-5.775-1.194c-2.32,0-4.2,1.41-4.2,3.15c0,0.166,0.032,0.325,0.065,0.483	c-0.673,0.475-1.115,1.255-1.115,2.142V22.6c1.212,0,2.246-0.876,2.445-2.071l0.275-1.65c0.166,0.062,0.341,0.12,0.526,0.174	c0.598,0.245,1.274,0.398,2.003,0.398c0.204,0,0.394-0.01,0.587-0.019c0.155,0.006,0.304,0.019,0.463,0.019	c1.388,0,2.641-0.219,3.58-0.571l0.275,1.65c0.199,1.195,1.233,2.071,2.445,2.071v-3.675C38.3,18.095,37.908,17.365,37.307,16.884z"/><linearGradient id="7BnRgGZbmppP0oTmQ_Dbjh" x1="28.448" x2="28.39" y1="37.516" y2="14.512" gradientTransform="matrix(1 0 0 -1 0 64)" gradientUnits="userSpaceOnUse"><stop offset="0" stop-color="#00de8b"/><stop offset=".478" stop-color="#00d189"/><stop offset="1" stop-color="#00be86"/></linearGradient><path fill="url(#7BnRgGZbmppP0oTmQ_Dbjh)" d="M33.039,33.898c-0.137,1.365-1.386,2.352-2.762,2.352h-5.103	c-0.504,0-0.976,0.147-1.375,0.389c0.756-3.161,3.538-5.523,6.899-5.628c0,0,0,0,0.011,0C32.115,31.168,33.187,32.418,33.039,33.898	z"/></svg>