<svg xmlns="http://www.w3.org/2000/svg"  viewBox="0 0 48 48" width="50px" height="50px"><linearGradient id="hJs5zfGPOJw~b_NbRG2vfa" x1="8" x2="8" y1="21" y2="29" gradientUnits="userSpaceOnUse"><stop offset="0" stop-color="#21ad64"/><stop offset="1" stop-color="#088242"/></linearGradient><path fill="url(#hJs5zfGPOJw~b_NbRG2vfa)" d="M7,29l2.2-0.018c0.994,0,1.8-0.806,1.8-1.8V21H8c-0.858,0-1.561,0.62-1.789,1.447	C5.897,23.582,5.009,25.822,5,27C4.993,27.934,5.864,29,7,29z"/><linearGradient id="hJs5zfGPOJw~b_NbRG2vfb" x1="25.72" x2="25.72" y1="15" y2="25" gradientUnits="userSpaceOnUse"><stop offset="0" stop-color="#21ad64"/><stop offset="1" stop-color="#088242"/></linearGradient><path fill="url(#hJs5zfGPOJw~b_NbRG2vfb)" d="M24.44,25H27c1.105,0,2-0.895,2-2v-6c0-1.105-0.895-2-2-2h-1.36	c-0.953,0-1.774,0.673-1.961,1.608l-1.2,6C22.231,23.845,23.178,25,24.44,25z"/><polygon fill="#199be2" points="32.978,27.645 26.693,25.449 25.792,32.223 22.129,40.892 24.72,42.373 29.74,33.971"/><circle cx="42.5" cy="24.5" r="1.5" fill="#35c1f1"/><linearGradient id="hJs5zfGPOJw~b_NbRG2vfc" x1="31" x2="39" y1="-516" y2="-516" gradientTransform="translate(0 524)" gradientUnits="userSpaceOnUse"><stop offset="0" stop-color="#ffcf54"/><stop offset=".261" stop-color="#fdcb4d"/><stop offset=".639" stop-color="#f7c13a"/><stop offset="1" stop-color="#f0b421"/></linearGradient><path fill="url(#hJs5zfGPOJw~b_NbRG2vfc)" d="M31,8c0,2.209,1.791,4,4,4s4-1.791,4-4s-1.791-4-4-4c-0.001,0-0.001,0-0.002,0 C32.79,4.001,31,5.792,31,8z"/><path fill="#35c1f1" d="M28,17c0,2.209,1.791,4,4,4s4-1.791,4-4s-1.791-4-4-4c-0.001,0-0.001,0-0.002,0 C29.79,13.001,28,14.792,28,17z"/><path fill="#35c1f1" d="M26,26c0,2.209,1.791,4,4,4s4-1.791,4-4s-1.791-4-4-4c-0.001,0-0.001,0-0.002,0 C27.79,22.001,26,23.792,26,26z"/><path fill="#35c1f1" d="M38.5,40c-0.828,0-1.5,0.672-1.5,1.5s0.672,1.5,1.5,1.5s1.5-0.672,1.5-1.5 C40,40.672,39.328,40,38.5,40z"/><path fill="#199be2" d="M23.5,40c-0.828,0-1.5,0.672-1.5,1.5s0.672,1.5,1.5,1.5s1.5-0.672,1.5-1.5 C25,40.672,24.328,40,23.5,40z"/><path fill="#35c1f1" d="M35.874,18.002l-7.854-1.4l-1.984,8.917l1.583,3.695l5.554,4.698l3.942,8.164l2.806-1.044 l-2.535-8.874c-0.049-0.173-0.122-0.339-0.216-0.493l-3.194-5.232L35.874,18.002z"/><path fill="#35c1f1" d="M41.951,25.896l-6.054-2.301c-0.249-0.095-0.477-0.239-0.67-0.423L31,19.5l4.828-3.665l1.395,4.509 l5.889,2.786L41.951,25.896z"/><circle cx="32.5" cy="17.5" r="2.5" fill="#35c1f1"/><g><path fill="#35c1f1" d="M20.647,28.936l-5.086-1.586c-0.198-0.076-0.402-0.205-0.556-0.351l-3.333-3.162l4.196-2.669 l1.132,3.819l4.394,2.094L20.647,28.936z"/><polygon fill="#199be2" points="12,34 8.007,30.005 8.006,34.995 5.04,41.721 6.84,42.543 11.009,36.001"/><circle cx="21" cy="28" r="1" fill="#35c1f1"/><linearGradient id="hJs5zfGPOJw~b_NbRG2vfd" x1="12" x2="18.028" y1="-508.991" y2="-508.991" gradientTransform="translate(0 524)" gradientUnits="userSpaceOnUse"><stop offset="0" stop-color="#ffcf54"/><stop offset=".261" stop-color="#fdcb4d"/><stop offset=".639" stop-color="#f7c13a"/><stop offset="1" stop-color="#f0b421"/></linearGradient><path fill="url(#hJs5zfGPOJw~b_NbRG2vfd)" d="M12,15.009C12,16.661,13.349,18,15.014,18s3.014-1.339,3.014-2.991s-1.349-2.991-3.014-2.991 c-0.001,0-0.001,0-0.002,0C13.348,12.019,12,13.358,12,15.009z"/><path fill="#35c1f1" d="M8.006,29.979c0,1.659,1.345,3.004,3.004,3.004s3.004-1.345,3.004-3.004s-1.345-3.004-3.004-3.004 c-0.001,0-0.001,0-0.002,0C9.35,26.976,8.006,28.32,8.006,29.979z"/><path fill="#35c1f1" d="M9.994,22.029c0,1.659,1.345,3.004,3.004,3.004c1.659,0,3.004-1.345,3.004-3.004 s-1.345-3.004-3.004-3.004c-0.001,0-0.001,0-0.002,0C11.338,19.026,9.994,20.37,9.994,22.029z"/><path fill="#35c1f1" d="M18.001,41.003c-0.552,0-0.999,0.447-0.999,0.999c0,0.552,0.447,0.999,0.999,0.999 S19,42.553,19,42.001C19,41.45,18.553,41.003,18.001,41.003z"/><path fill="#199be2" d="M6,41c-0.552,0-1,0.448-1,1s0.448,1,1,1s1-0.448,1-1C7,41.448,6.552,41,6,41z"/><path fill="#35c1f1" d="M15.867,22.921l-5.807-1.509l-1.979,7.898l1.334,3.214L14,36l3.117,6.466l1.861-0.673l-1.987-7.407 c-0.039-0.138-0.097-0.269-0.172-0.392L14,30L15.867,22.921z"/></g></svg>