<svg xmlns="http://www.w3.org/2000/svg"  viewBox="0 0 64 64" width="50px" height="50px"><radialGradient id="Dz_fbBfnvX89aiVIbpiqma" cx="32.5" cy="32" r="31.751" gradientUnits="userSpaceOnUse" spreadMethod="reflect"><stop offset="0" stop-color="#f4e9c3"/><stop offset=".219" stop-color="#f8eecd"/><stop offset=".644" stop-color="#fdf4dc"/><stop offset="1" stop-color="#fff6e1"/></radialGradient><path fill="url(#Dz_fbBfnvX89aiVIbpiqma)" d="M61.501,18.008H57c-1.105,0-2-0.895-2-2v0c0-1.105,0.895-2,2-2h1.411 c1.85,0,3.32-1.69,2.94-3.6c-0.28-1.43-1.62-2.4-3.07-2.4L45.5,8C44.67,8,44,7.33,44,6.5C44,5.67,44.67,5,45.5,5l5.905,0 c1.139,0,2.206-0.719,2.505-1.818C54.361,1.521,53.101,0,51.5,0L7.595,0C6.456,0,5.389,0.719,5.091,1.818C4.639,3.479,5.899,5,7.5,5 h3c0.69,0,1.32,0.28,1.77,0.73c0.417,0.417,0.688,0.988,0.725,1.618C13.083,8.804,11.799,10,10.34,10l-6.209,0 c-1.451,0-2.789,0.972-3.071,2.395C0.681,14.307,2.152,16,4,16h5c1.657,0,3,1.343,3,3v18.512c-0.604,0.457-4.604,3.52-4,3.977V44 l-2.288,0c-2.347,0-4.453,1.704-4.689,4.038C0.752,50.718,2.873,53,5.5,53l18.856,0c1.308,0,2.5,0.94,2.631,2.241 C27.138,56.737,25.965,58,24.5,58l-5.335,0c-1.626,0-3.079,1.221-3.161,2.844C15.917,62.575,17.288,64,19,64l39.835,0 c1.626,0,3.079-1.221,3.161-2.844C62.083,59.425,60.712,58,59,58l-5.356,0c-1.308,0-2.5-0.94-2.631-2.241 C50.862,54.263,52.035,53,53.5,53l3.788,0c2.347,0,4.453-1.704,4.689-4.038C62.247,46.282,60.127,44,57.5,44H46V23.005l15.411,0.003 c1.14,0,2.2-0.72,2.5-1.82C64.351,19.527,63.091,18.008,61.501,18.008z"/><linearGradient id="Dz_fbBfnvX89aiVIbpiqmb" x1="30.5" x2="30.5" y1="44.242" y2="4.499" gradientUnits="userSpaceOnUse" spreadMethod="reflect"><stop offset="0" stop-color="#42d778"/><stop offset=".996" stop-color="#34b171"/><stop offset="1" stop-color="#34b171"/></linearGradient><path fill="url(#Dz_fbBfnvX89aiVIbpiqmb)" d="M44.5,18h-28C9.044,18,3,24.044,3,31.5v0C3,38.956,9.044,45,16.5,45h28 C51.956,45,58,38.956,58,31.5v0C58,24.044,51.956,18,44.5,18z"/><linearGradient id="Dz_fbBfnvX89aiVIbpiqmc" x1="32" x2="32" y1="11.006" y2="41.261" gradientUnits="userSpaceOnUse" spreadMethod="reflect"><stop offset="0" stop-color="#31995f"/><stop offset=".093" stop-color="#329e62"/><stop offset=".666" stop-color="#39ba71"/><stop offset="1" stop-color="#3bc477"/></linearGradient><path fill="url(#Dz_fbBfnvX89aiVIbpiqmc)" d="M43,18H27c-1.65,0-3,1.35-3,3c0,1.65,1.35,3,3,3c1.1,0,2,0.9,2,2c0,1.1-0.9,2-2,2h-2.5 c-1.925,0-3.5,1.575-3.5,3.5s1.575,3.5,3.5,3.5H27c1.1,0,2,0.9,2,2c0,1.1-0.9,2-2,2c-1.65,0-3,1.35-3,3c0,1.65,1.35,3,3,3h16V18z"/><linearGradient id="Dz_fbBfnvX89aiVIbpiqmd" x1="46.5" x2="46.5" y1="2.471" y2="39.552" gradientUnits="userSpaceOnUse" spreadMethod="reflect"><stop offset="0" stop-color="#a5eafc"/><stop offset=".583" stop-color="#87dcf7"/><stop offset="1" stop-color="#77d4f4"/></linearGradient><path fill="url(#Dz_fbBfnvX89aiVIbpiqmd)" d="M46.5 16A15.5 15.5 0 1 0 46.5 47A15.5 15.5 0 1 0 46.5 16Z"/><linearGradient id="Dz_fbBfnvX89aiVIbpiqme" x1="46.5" x2="46.5" y1="11.835" y2="36.955" gradientUnits="userSpaceOnUse" spreadMethod="reflect"><stop offset="0" stop-color="#155cde"/><stop offset=".278" stop-color="#1f7fe5"/><stop offset=".569" stop-color="#279ceb"/><stop offset=".82" stop-color="#2cafef"/><stop offset="1" stop-color="#2eb5f0"/></linearGradient><path fill="url(#Dz_fbBfnvX89aiVIbpiqme)" d="M46.5 21A10.5 10.5 0 1 0 46.5 42A10.5 10.5 0 1 0 46.5 21Z"/></svg>