<svg xmlns="http://www.w3.org/2000/svg"  viewBox="0 0 64 64" width="50px" height="50px"><radialGradient id="fBbukBbJnE~k61xaDm_iPa" cx="32" cy="35" r="31.504" gradientTransform="matrix(1 0 0 -1 0 66)" gradientUnits="userSpaceOnUse"><stop offset="0" stop-color="#eed7a2"/><stop offset=".106" stop-color="#f1dcab"/><stop offset=".437" stop-color="#f8e8c3"/><stop offset=".744" stop-color="#fcefd2"/><stop offset="1" stop-color="#fef2d7"/></radialGradient><path fill="url(#fBbukBbJnE~k61xaDm_iPa)" d="M62.98,58.41C62.77,60.49,60.9,62,58.81,62H4c-2.34,0-4.22-2.03-3.98-4.41	C0.23,55.51,2.1,54,4.19,54H6c1.11,0,2-0.9,2-2c0-0.55-0.22-1.05-0.58-1.41C7.06,50.22,6.56,50,6,50c-1.65,0-3-1.35-3-3s1.35-3,3-3	h16V34H4c-2.34,0-4.22-2.03-3.98-4.41C0.23,27.51,2.1,26,4.19,26H8.5c1.93,0,3.5-1.57,3.5-3.5S10.43,19,8.5,19H5	c-2.34,0-4.22-2.03-3.98-4.41C1.23,12.51,3.1,11,5.19,11h18.82c0.83,0,1.58-0.34,2.12-0.88c0.26-0.26,0.47-0.57,0.62-0.91	c0.01-0.01,0.01-0.02,0.01-0.03c0.16-0.36,0.25-0.76,0.25-1.18c0-0.06,0-0.12-0.01-0.18c0-0.01,0-0.01,0-0.02	C26.9,6.23,25.6,5,24.01,5H15.5c-1.47,0-2.64-1.26-2.49-2.76C13.14,0.94,14.34,0,15.64,0H48.5c1.47,0,2.64,1.26,2.49,2.76	C50.86,4.06,49.66,5,48.36,5H46c-0.83,0-1.58,0.34-2.12,0.88c-0.49,0.49-0.82,1.16-0.87,1.9C43,7.85,43,7.93,43,8	c0,0.53,0.14,1.02,0.37,1.45C43.88,10.38,44.87,11,46,11h13.5c1.47,0,2.64,1.26,2.49,2.76c-0.13,1.3-1.33,2.24-2.63,2.24H56	c-1.1,0-2,0.9-2,2s0.9,2,2,2h3.81c2.09,0,3.96,1.51,4.17,3.59C64.22,25.97,62.33,28,60,28H42v4h18c1.65,0,3,1.35,3,3s-1.35,3-3,3H50	c-1.38,0-2.5,1.12-2.5,2.5S48.62,43,50,43h10.5c1.92,0,3.5,1.58,3.5,3.5S62.42,50,60.5,50H59c-1.1,0-2,0.9-2,2s0.9,2,2,2	C61.33,54,63.22,56.03,62.98,58.41z"/><linearGradient id="fBbukBbJnE~k61xaDm_iPb" x1="32" x2="32" y1="54.745" y2="12.186" gradientTransform="matrix(1 0 0 -1 0 66)" gradientUnits="userSpaceOnUse"><stop offset="0" stop-color="#dff9ff"/><stop offset="0" stop-color="#dff9ff"/><stop offset=".173" stop-color="#d8f8ff"/><stop offset=".423" stop-color="#c5f4ff"/><stop offset=".72" stop-color="#a5eeff"/><stop offset="1" stop-color="#81e7ff"/></linearGradient><path fill="url(#fBbukBbJnE~k61xaDm_iPb)" d="M58,13v29c0,2.05-1.24,3.81-3,4.59C54.39,46.85,53.71,47,53,47H11c-0.71,0-1.39-0.15-2-0.41	C7.24,45.81,6,44.05,6,42V13c0-0.71,0.15-1.39,0.41-2C6.92,9.85,7.85,8.92,9,8.42C9.61,8.15,10.29,8,11,8h42	c0.71,0,1.39,0.15,2,0.42c1.15,0.5,2.08,1.43,2.59,2.58C57.85,11.61,58,12.29,58,13z"/><linearGradient id="fBbukBbJnE~k61xaDm_iPc" x1="48.5" x2="48.5" y1=".234" y2="46.026" gradientTransform="matrix(1 0 0 -1 0 66)" gradientUnits="userSpaceOnUse"><stop offset="0" stop-color="#89e4fa"/><stop offset=".406" stop-color="#94e8fc"/><stop offset="1" stop-color="#acf0ff"/></linearGradient><path fill="url(#fBbukBbJnE~k61xaDm_iPc)" d="M47,28.5L47,28.5c0,1.381,1.119,2.5,2.5,2.5l0,0c1.381,0,2.5,1.119,2.5,2.5l0,0	c0,1.381-1.119,2.5-2.5,2.5h-7c-1.381,0-2.5,1.119-2.5,2.5l0,0c0,1.381,1.119,2.5,2.5,2.5H57v-5v-5v-5h-7.5	C48.119,26,47,27.119,47,28.5z"/><linearGradient id="fBbukBbJnE~k61xaDm_iPd" x1="32" x2="32" y1="14.532" y2="19.16" gradientTransform="matrix(1 0 0 -1 0 66)" gradientUnits="userSpaceOnUse"><stop offset=".122" stop-color="#5e6d7b"/><stop offset=".191" stop-color="#5d6b79"/><stop offset="1" stop-color="#515c69"/></linearGradient><path fill="url(#fBbukBbJnE~k61xaDm_iPd)" d="M28,47h8c0,0,1,3,3,5H25C27,50,28,47,28,47z"/><linearGradient id="fBbukBbJnE~k61xaDm_iPe" x1="17.5" x2="17.5" y1="25" y2="56.181" gradientTransform="matrix(1 0 0 -1 0 66)" gradientUnits="userSpaceOnUse"><stop offset="0" stop-color="#ecf9fd"/><stop offset=".848" stop-color="#f2fdff"/><stop offset="1" stop-color="#f4feff"/></linearGradient><path fill="url(#fBbukBbJnE~k61xaDm_iPe)" d="M15.03,15.33c0.16,0.98,1.08,1.67,2.08,1.67h3.39c1.47,0,2.63,1.25,2.49,2.75	c-0.12,1.3-1.32,2.25-2.63,2.25H19.5c-1.47,0-2.63,1.25-2.49,2.75c0.12,1.3,1.32,2.25,2.63,2.25h2.86c1.47,0,2.63,1.25,2.49,2.75	c-0.12,1.3-1.32,2.25-2.63,2.25H15c-1.21,0-2.17,1.07-1.97,2.33c0.16,0.98,1.08,1.67,2.08,1.67h0.39c1.47,0,2.63,1.25,2.49,2.75	c-0.12,1.3-1.32,2.25-2.63,2.25H8V10h19c0,1.66-1.34,3-3,3h-7C15.79,13,14.83,14.07,15.03,15.33z"/><linearGradient id="fBbukBbJnE~k61xaDm_iPf" x1="32" x2="32" y1="19.596" y2="55.373" gradientTransform="matrix(1 0 0 -1 0 66)" gradientUnits="userSpaceOnUse"><stop offset="0" stop-color="#6f7a85"/><stop offset="1" stop-color="#788490"/></linearGradient><path fill="url(#fBbukBbJnE~k61xaDm_iPf)" d="M35,47h18c0.71,0,1.39-0.15,2-0.41c1.76-0.78,3-2.54,3-4.59V13c0-0.71-0.15-1.39-0.41-2	C57.08,9.85,56.15,8.92,55,8.42C54.39,8.15,53.71,8,53,8H11c-0.71,0-1.39,0.15-2,0.42C7.85,8.92,6.92,9.85,6.41,11	C6.15,11.61,6,12.29,6,13v29c0,2.05,1.24,3.81,3,4.59C9.61,46.85,10.29,47,11,47h18H35z M8,41V13c0-0.412,0.086-0.833,0.238-1.189	c0.307-0.692,0.875-1.26,1.571-1.563C10.182,10.083,10.583,10,11,10h42c0.417,0,0.818,0.083,1.203,0.254	c0.684,0.297,1.252,0.865,1.548,1.53C55.914,12.167,56,12.588,56,13v28H8z"/><linearGradient id="fBbukBbJnE~k61xaDm_iPg" x1="31.5" x2="31.5" y1="9604.159" y2="9579.159" gradientTransform="translate(0 -9562)" gradientUnits="userSpaceOnUse"><stop offset="0" stop-color="#155cde"/><stop offset=".278" stop-color="#1f7fe5"/><stop offset=".569" stop-color="#279ceb"/><stop offset=".82" stop-color="#2cafef"/><stop offset="1" stop-color="#2eb5f0"/></linearGradient><path fill="url(#fBbukBbJnE~k61xaDm_iPg)" d="M41.735,30.524c0.246,0.091,0.328,0.403,0.216,0.64c-0.439,0.926-0.875,1.493-1.515,2.429	c-1.03,1.511-2.491,3.394-4.292,3.407c-1.6,0.013-2.014-0.989-4.189-0.97c-2.173,0.01-2.626,0.989-4.229,0.97	c-1.802-0.013-3.179-1.711-4.213-3.217c-1.735-2.539-2.535-5.378-2.513-7.781c0.015-1.598,0.393-2.983,1.106-4.035	c1.261-1.867,3.259-2.964,5.135-2.964c1.911,0,3.113,0.971,4.69,0.971c1.537,0,2.469-0.973,4.679-0.973	c1.504,0,3.103,0.943,4.276,2.191c0.201,0.214,0.175,0.556-0.063,0.728C37.628,24.229,38.775,29.428,41.735,30.524z M35.547,16.037	c0.836-0.929,1.44-2.203,1.453-3.522c0.003-0.319-0.314-0.565-0.652-0.506c-1.404,0.248-2.908,1.03-3.836,2.004	c-0.861,0.911-1.562,2.129-1.509,3.496c0.011,0.291,0.289,0.516,0.602,0.49C33.128,17.87,34.631,17.06,35.547,16.037z"/><linearGradient id="fBbukBbJnE~k61xaDm_iPh" x1="32" x2="32" y1="11.532" y2="13.734" gradientTransform="matrix(1 0 0 -1 0 66)" gradientUnits="userSpaceOnUse"><stop offset=".122" stop-color="#5e6d7b"/><stop offset=".191" stop-color="#5d6b79"/><stop offset="1" stop-color="#515c69"/></linearGradient><path fill="url(#fBbukBbJnE~k61xaDm_iPh)" d="M39.5,55h-15c-0.828,0-1.5-0.672-1.5-1.5l0,0c0-0.828,0.672-1.5,1.5-1.5h15	c0.828,0,1.5,0.672,1.5,1.5l0,0C41,54.328,40.328,55,39.5,55z"/></svg>