<svg xmlns="http://www.w3.org/2000/svg"  viewBox="0 0 48 48" width="50px" height="50px"><linearGradient id="iGP7nFXZxLe0rz3PXoujoa" x1="16.242" x2="30.925" y1="7.522" y2="42.493" gradientUnits="userSpaceOnUse"><stop offset="0" stop-color="#ae4cd5"/><stop offset="1" stop-color="#ac4ad5"/></linearGradient><path fill="url(#iGP7nFXZxLe0rz3PXoujoa)" d="M43,11H23.828c-0.53,0-1.039-0.211-1.414-0.586l-2.536-2.536C19.316,7.316,18.553,7,17.757,7	H5C3.895,7,3,7.895,3,9v30c0,1.105,0.895,2,2,2h8c0-1.105,0.895-2,2-2s2,0.895,2,2h14c0-1.105,0.895-2,2-2s2,0.895,2,2h8	c1.105,0,2-0.895,2-2V13C45,11.895,44.105,11,43,11z"/><path d="M38,20c-0.366,0-11.634,0-12,0c-1.105,0-2,0.895-2,2c0,1.105,0.895,2,2,2c0.366,0,11.634,0,12,0	c1.105,0,2-0.895,2-2C40,20.895,39.105,20,38,20z" opacity=".05"/><path d="M26,20.5c-0.828,0-1.5,0.672-1.5,1.5v0c0,0.828,0.672,1.5,1.5,1.5c0.183,0,11.817,0,12,0	c0.828,0,1.5-0.672,1.5-1.5v0c0-0.828-0.672-1.5-1.5-1.5C37.817,20.5,26.183,20.5,26,20.5z" opacity=".07"/><radialGradient id="iGP7nFXZxLe0rz3PXoujob" cx="14" cy="19" r="3.821" gradientUnits="userSpaceOnUse"><stop offset=".744"/><stop offset="1" stop-opacity="0"/></radialGradient><circle cx="14" cy="19" r="3.821" fill="url(#iGP7nFXZxLe0rz3PXoujob)" opacity=".15"/><path d="M20,29c0-3.314-2.686-6-6-6s-6,2.686-6,6v4c0,1.105,0.895,2,2,2h8c1.105,0,2-0.895,2-2V29z" opacity=".05"/><path d="M14,23.5c-3.038,0-5.5,2.462-5.5,5.5c0,0.114,0,4,0,4c0,0.828,0.672,1.5,1.5,1.5h8	c0.828,0,1.5-0.672,1.5-1.5c0,0,0-3.897,0-4C19.5,25.962,17.038,23.5,14,23.5z" opacity=".07"/><path fill="#fff" d="M11,19c0-1.657,1.343-3,3-3s3,1.343,3,3s-1.343,3-3,3S11,20.657,11,19z M14,24c-2.761,0-5,2.239-5,5	v4c0,0.552,0.448,1,1,1h8c0.552,0,1-0.448,1-1v-4C19,26.239,16.761,24,14,24z"/><path fill="#fff" d="M38,21H26c-0.552,0-1,0.448-1,1v0c0,0.552,0.448,1,1,1h12c0.552,0,1-0.448,1-1v0	C39,21.448,38.552,21,38,21z"/><path d="M38,24c-0.366,0-11.634,0-12,0c-1.105,0-2,0.895-2,2c0,1.105,0.895,2,2,2c0.366,0,11.634,0,12,0	c1.105,0,2-0.895,2-2C40,24.895,39.105,24,38,24z" opacity=".05"/><path d="M26,24.5c-0.828,0-1.5,0.672-1.5,1.5v0c0,0.828,0.672,1.5,1.5,1.5c0.183,0,11.817,0,12,0	c0.828,0,1.5-0.672,1.5-1.5v0c0-0.828-0.672-1.5-1.5-1.5C37.817,24.5,26.183,24.5,26,24.5z" opacity=".07"/><path fill="#fff" d="M38,25H26c-0.552,0-1,0.448-1,1v0c0,0.552,0.448,1,1,1h12c0.552,0,1-0.448,1-1v0	C39,25.448,38.552,25,38,25z"/><path d="M38,28c-0.366,0-11.634,0-12,0c-1.105,0-2,0.895-2,2c0,1.105,0.895,2,2,2c0.366,0,11.634,0,12,0	c1.105,0,2-0.895,2-2C40,28.895,39.105,28,38,28z" opacity=".05"/><path d="M26,28.5c-0.828,0-1.5,0.672-1.5,1.5v0c0,0.828,0.672,1.5,1.5,1.5c0.183,0,11.817,0,12,0	c0.828,0,1.5-0.672,1.5-1.5v0c0-0.828-0.672-1.5-1.5-1.5C37.817,28.5,26.183,28.5,26,28.5z" opacity=".07"/><path fill="#fff" d="M38,29H26c-0.552,0-1,0.448-1,1v0c0,0.552,0.448,1,1,1h12c0.552,0,1-0.448,1-1v0	C39,29.448,38.552,29,38,29z"/></svg>