<svg xmlns="http://www.w3.org/2000/svg"  viewBox="0 0 64 64" width="50px" height="50px"><radialGradient id="2U0BlgtToUAELG2DbPj_Sa" cx="32" cy="31.5" r="31.259" gradientUnits="userSpaceOnUse" spreadMethod="reflect"><stop offset="0" stop-color="#afeeff"/><stop offset=".193" stop-color="#bbf1ff"/><stop offset=".703" stop-color="#d7f8ff"/><stop offset="1" stop-color="#e1faff"/></radialGradient><path fill="url(#2U0BlgtToUAELG2DbPj_Sa)" d="M60.5,43l-10.357,0c-1.308,0-2.499-0.941-2.63-2.242C47.363,39.261,48.534,38,50,38h7.869 c1.451,0,2.789-0.972,3.071-2.395C61.319,33.693,59.848,32,58,32H42v-7h18.5c1.933,0,3.5-1.567,3.5-3.5v0c0-1.933-1.567-3.5-3.5-3.5 h-1.393c-0.996,0-1.92-0.681-2.08-1.664C56.824,15.083,57.785,14,59,14l0.357,0c1.308,0,2.499-0.941,2.63-2.242 C62.137,10.261,60.966,9,59.5,9h-15C43.672,9,43,8.328,43,7.5S43.672,6,44.5,6l3.857,0c1.308,0,2.499-0.941,2.63-2.242 C51.137,2.261,49.966,1,48.5,1L15.643,1c-1.308,0-2.499,0.941-2.63,2.242C12.863,4.739,14.034,6,15.5,6h1.393 c0.996,0,1.92,0.681,2.08,1.664C19.176,8.917,18.215,10,17,10L6.189,10c-2.086,0-3.958,1.514-4.168,3.59C1.78,15.972,3.665,18,6,18 l2.302,0c1.895,0,3.594,1.419,3.693,3.312C12.101,23.33,10.495,25,8.5,25l-3.311,0c-2.086,0-3.958,1.514-4.168,3.59 C0.78,30.972,2.665,33,5,33h17v11H6.131c-1.451,0-2.789,0.972-3.071,2.395C2.681,48.307,4.152,50,6,50 c1.215,0,2.176,1.083,1.973,2.336C7.813,53.319,6.889,54,5.893,54H4.189c-2.086,0-3.958,1.514-4.168,3.59 C-0.22,59.972,1.665,62,4,62l53.811,0c2.009,0,3.841-1.398,4.142-3.385c0.368-2.434-1.497-4.553-3.85-4.614 c-0.809-0.021-1.608-0.396-1.923-1.141C55.564,51.401,56.618,50,58,50l2.386,0c1.67,0,3.195-1.122,3.537-2.757 C64.392,44.998,62.668,43,60.5,43z"/><linearGradient id="2U0BlgtToUAELG2DbPj_Sb" x1="32" x2="32" y1="64.255" y2="15.255" gradientUnits="userSpaceOnUse" spreadMethod="reflect"><stop offset="0" stop-color="#155cde"/><stop offset=".278" stop-color="#1f7fe5"/><stop offset=".569" stop-color="#279ceb"/><stop offset=".82" stop-color="#2cafef"/><stop offset="1" stop-color="#2eb5f0"/></linearGradient><path fill="url(#2U0BlgtToUAELG2DbPj_Sb)" d="M54.125,19L35.38,7.927C34.338,7.31,33.169,7.001,32,7l0,0l0,0 c-1.171,0-2.341,0.309-3.385,0.927L9.875,19C8.713,19.689,8,20.94,8,22.292V52c0,2.209,1.791,4,4,4h40c2.209,0,4-1.791,4-4V22.292 C56,20.94,55.287,19.689,54.125,19z"/><linearGradient id="2U0BlgtToUAELG2DbPj_Sc" x1="49.5" x2="49.5" y1="54.93" y2="39.961" gradientUnits="userSpaceOnUse" spreadMethod="reflect"><stop offset="0" stop-color="#1969e1"/><stop offset=".989" stop-color="#248fe8"/></linearGradient><path fill="url(#2U0BlgtToUAELG2DbPj_Sc)" d="M56,52V39c-3.083,0-6.118,0-7.872,0c-1.451,0-2.786,0.972-3.068,2.395 C44.681,43.307,46.152,45,48,45h0.5c1.381,0,2.5,1.119,2.5,2.5c0,1.381-1.119,2.5-2.5,2.5h-2.369c-1.451,0-2.789,0.972-3.071,2.395 C42.681,54.307,44.152,56,46,56h6C54.209,56,56,54.209,56,52z"/><linearGradient id="2U0BlgtToUAELG2DbPj_Sd" x1="19" x2="19" y1="41" y2="12" gradientUnits="userSpaceOnUse" spreadMethod="reflect"><stop offset="0" stop-color="#3ba0eb"/><stop offset=".104" stop-color="#3ca5ec"/><stop offset=".619" stop-color="#41b7f0"/><stop offset=".989" stop-color="#43bdf2"/></linearGradient><path fill="url(#2U0BlgtToUAELG2DbPj_Sd)" d="M20,38c0-1.657-1.343-3-3-3s-3-1.343-3-3s1.343-3,3-3h8c1.657,0,3-1.343,3-3s-1.343-3-3-3h-3 c-1.657,0-3-1.343-3-3s1.343-3,3-3h5.5c1.381,0,2.5-1.119,2.5-2.5c0-1.381-1.119-2.5-2.5-2.5h-5.778L9.875,19 C8.713,19.689,8,20.94,8,22.292V41h9C18.657,41,20,39.657,20,38z"/><path fill="#f1fcff" d="M37 47H19c-1.105 0-2-.895-2-2v0c0-1.105.895-2 2-2h18c1.105 0 2 .895 2 2v0C39 46.105 38.105 47 37 47zM36 35h9c1.105 0 2 .895 2 2v0c0 1.105-.895 2-2 2h-9c-1.105 0-2-.895-2-2v0C34 35.895 34.895 35 36 35zM19 35h10c1.105 0 2 .895 2 2v0c0 1.105-.895 2-2 2H19c-1.105 0-2-.895-2-2v0C17 35.895 17.895 35 19 35zM19 27h17c1.105 0 2 .895 2 2v0c0 1.105-.895 2-2 2H19c-1.105 0-2-.895-2-2v0C17 27.895 17.895 27 19 27zM43 27h2c1.105 0 2 .895 2 2v0c0 1.105-.895 2-2 2h-2c-1.105 0-2-.895-2-2v0C41 27.895 41.895 27 43 27z"/></svg>