<svg xmlns="http://www.w3.org/2000/svg"  viewBox="0 0 64 64" width="50px" height="50px"><radialGradient id="Vgakjf9dbvttTOvIM7xT3a" cx="-924" cy="224" r="26.875" gradientTransform="rotate(180 -448 127.5)" gradientUnits="userSpaceOnUse" spreadMethod="reflect"><stop offset="0" stop-color="#afeeff"/><stop offset=".193" stop-color="#bbf1ff"/><stop offset=".703" stop-color="#d7f8ff"/><stop offset="1" stop-color="#e1faff"/></radialGradient><path fill="url(#Vgakjf9dbvttTOvIM7xT3a)" d="M58.5,2L58.5,2C60.985,2,63,4.015,63,6.5v0c0,2.485-2.015,4.5-4.5,4.5h0 C56.015,11,54,8.985,54,6.5v0C54,4.015,56.015,2,58.5,2z"/><radialGradient id="Vgakjf9dbvttTOvIM7xT3b" cx="-928" cy="223.5" r="30.775" gradientTransform="rotate(180 -448 127.5)" gradientUnits="userSpaceOnUse" spreadMethod="reflect"><stop offset="0" stop-color="#afeeff"/><stop offset=".193" stop-color="#bbf1ff"/><stop offset=".703" stop-color="#d7f8ff"/><stop offset="1" stop-color="#e1faff"/></radialGradient><path fill="url(#Vgakjf9dbvttTOvIM7xT3b)" d="M0,39L0,39c0,2.761,2.239,5,5,5h5c2.761,0,5,2.238,5,5v0c0,2.762-2.238,5-5,5H9.434 C7.52,54,6,55.52,6,57.395L6,57.5C6,59.433,7.567,61,9.5,61h38c1.926,0,3.49-1.556,3.5-3.483l0-0.017 c0.01-1.93-1.552-3.5-3.483-3.5H47c-2.209,0-4-1.791-4-4v0c0-2.209,1.791-4,4-4h12c2.761,0,5-2.239,5-5v0c0-2.761-2.239-5-5-5h-1 c-2.209,0-4-1.791-4-4v0c0-2.209,1.791-4,4-4h0.5c3.038,0,5.5-2.462,5.5-5.5v0c0-3.038-2.462-5.5-5.5-5.5H46c-1.657,0-3-1.343-3-3 v0c0-1.657,1.343-3,3-3h0.5c2.485,0,4.5-2.015,4.5-4.5v0C51,4.015,48.985,2,46.5,2H31H9C6.791,2,5,3.791,5,6v0c0,2.209,1.791,4,4,4 h6.5c1.933,0,3.5,1.567,3.5,3.5v0c0,1.933-1.567,3.5-3.5,3.5H4c-2.209,0-4,1.791-4,4l0,0c0,2.209,1.791,4,4,4h1.5 c2.485,0,4.5,2.015,4.5,4.5v0c0,2.485-2.015,4.5-4.5,4.5H5C2.239,34,0,36.239,0,39z"/><linearGradient id="Vgakjf9dbvttTOvIM7xT3c" x1="35" x2="35" y1="10" y2="56" gradientUnits="userSpaceOnUse" spreadMethod="reflect"><stop offset="0" stop-color="#a4a4a4"/><stop offset=".63" stop-color="#7f7f7f"/><stop offset="1" stop-color="#6f6f6f"/><stop offset="1" stop-color="#6f6f6f"/></linearGradient><path fill="url(#Vgakjf9dbvttTOvIM7xT3c)" d="M57.93,22.772c-0.195-1.701-2.32-2.382-3.53-1.172l-4.318,4.318 c-1.426,1.426-3.738,1.426-5.164,0l-2.839-2.839c-1.426-1.426-1.426-3.738,0-5.164l4.316-4.316c1.211-1.211,0.528-3.336-1.173-3.53 c-1.056-0.121-2.159-0.088-3.291,0.127c-4.704,0.895-8.373,4.86-8.869,9.622c-0.234,2.243,0.213,4.365,1.15,6.192L13.624,46.599 C12.621,47.595,12,48.975,12,50.5c0,3.038,2.462,5.5,5.5,5.5c1.555,0,2.957-0.648,3.957-1.686l20.528-20.528 c1.829,0.94,3.954,1.387,6.2,1.152c4.763-0.498,8.727-4.17,9.619-8.875C58.019,24.931,58.051,23.828,57.93,22.772z M17.5,53 c-1.381,0-2.5-1.119-2.5-2.5c0-1.381,1.119-2.5,2.5-2.5s2.5,1.119,2.5,2.5C20,51.881,18.881,53,17.5,53z"/><linearGradient id="Vgakjf9dbvttTOvIM7xT3d" x1="27.311" x2="27.311" y1="12.228" y2="50.848" gradientUnits="userSpaceOnUse" spreadMethod="reflect"><stop offset="0" stop-color="#a4a4a4"/><stop offset=".63" stop-color="#7f7f7f"/><stop offset="1" stop-color="#6f6f6f"/><stop offset="1" stop-color="#6f6f6f"/></linearGradient><path fill="url(#Vgakjf9dbvttTOvIM7xT3d)" d="M46.621,46.997L43,50.618L14.386,22.004l-2.938-0.869c-0.28-0.083-0.51-0.284-0.629-0.55 L8.106,14.52c-0.203-0.454-0.105-0.987,0.247-1.339l0.831-0.831c0.352-0.352,0.885-0.45,1.339-0.247l6.064,2.713 c0.267,0.119,0.468,0.349,0.55,0.629l0.869,2.938L46.621,46.997z"/><linearGradient id="Vgakjf9dbvttTOvIM7xT3e" x1="37" x2="37" y1="61.159" y2="31.159" gradientUnits="userSpaceOnUse" spreadMethod="reflect"><stop offset="0" stop-color="#feaa53"/><stop offset=".612" stop-color="#ffcd49"/><stop offset="1" stop-color="#ffde44"/></linearGradient><path fill="url(#Vgakjf9dbvttTOvIM7xT3e)" d="M32.667,29.521c-2.628-6.23-4.129-2.866-7.132,0l0,0c-2.878,2.866-6.256,4.361,0,7.102 c6.131,2.617,12.888,14.579,15.515,17.32c2.628,2.617,5.881,2.866,8.884,0l0,0c2.878-2.866,2.628-6.106,0-8.847 C47.307,42.479,35.295,35.751,32.667,29.521z"/><linearGradient id="Vgakjf9dbvttTOvIM7xT3f" x1="27.471" x2="27.471" y1="36.451" y2="25.541" gradientUnits="userSpaceOnUse" spreadMethod="reflect"><stop offset="0" stop-color="#ff9757"/><stop offset="1" stop-color="#ffb65b"/><stop offset="1" stop-color="#ffb65b"/></linearGradient><path fill="url(#Vgakjf9dbvttTOvIM7xT3f)" d="M32.667,29.521c-2.628-6.23-4.129-2.866-7.132,0c-2.878,2.866-6.256,4.361,0,7.102 c0.184,0.079,0.37,0.191,0.555,0.286l6.851-6.851C32.851,29.879,32.743,29.699,32.667,29.521z"/></svg>