<svg xmlns="http://www.w3.org/2000/svg"  viewBox="0 0 48 48" width="50px" height="50px"><path fill="#bc1948" d="M37,4H11C9.895,4,9,4.895,9,6v36c0,1.105,0.895,2,2,2h26c1.105,0,2-0.895,2-2V6	C39,4.895,38.105,4,37,4z"/><path d="M39,16.859l-2.586-2.586C35.154,13.013,33,13.906,33,15.688V19H21c-1.105,0-2,0.895-2,2v6	c0,1.105,0.895,2,2,2h12v3.312c0,1.782,2.154,2.674,3.414,1.414L39,31.141V16.859z" opacity=".05"/><path d="M39,17.859l-2.603-2.603C35.512,14.371,34,14.998,34,16.249V20H21.5c-0.828,0-1.5,0.672-1.5,1.5v5	c0,0.828,0.672,1.5,1.5,1.5H34v3.751c0,1.251,1.512,1.877,2.397,0.993L39,30.141V17.859z" opacity=".07"/><path fill="#faa0bd" d="M35,16.81V21H22c-0.552,0-1,0.448-1,1v4c0,0.552,0.448,1,1,1h13v4.19c0,0.72,0.87,1.08,1.379,0.571	l6.701-6.701c0.586-0.586,0.586-1.536,0-2.121l-6.701-6.701C35.87,15.729,35,16.09,35,16.81z"/></svg>