<svg xmlns="http://www.w3.org/2000/svg"  viewBox="0 0 64 64" width="50px" height="50px"><radialGradient id="6awZrIWLl6mhjJp1O46A4a" cx="32" cy="31.5" r="31.259" gradientUnits="userSpaceOnUse" spreadMethod="reflect"><stop offset="0" stop-color="#eed7a2"/><stop offset=".106" stop-color="#f1dcab"/><stop offset=".437" stop-color="#f8e8c3"/><stop offset=".744" stop-color="#fcefd2"/><stop offset="1" stop-color="#fef2d7"/></radialGradient><path fill="url(#6awZrIWLl6mhjJp1O46A4a)" d="M59,54c-1.105,0-2-0.895-2-2c0-1.105,0.895-2,2-2h1.5c1.925,0,3.5-1.575,3.5-3.5 S62.425,43,60.5,43H50c-1.381,0-2.5-1.119-2.5-2.5c0-1.381,1.119-2.5,2.5-2.5h8c1.65,0,3-1.35,3-3c0-1.65-1.35-3-3-3H42v-6h18 c2.335,0,4.22-2.028,3.979-4.41C63.77,19.514,61.897,18,59.811,18H59c-1.105,0-2-0.895-2-2c0-1.105,0.895-2,2-2h0.357 c1.308,0,2.499-0.941,2.63-2.242C62.137,10.261,60.966,9,59.5,9h-15C43.672,9,43,8.328,43,7.5S43.672,6,44.5,6h3.857 c1.308,0,2.499-0.941,2.63-2.242C51.137,2.261,49.966,1,48.5,1L15.643,1c-1.308,0-2.499,0.941-2.63,2.242 C12.863,4.739,14.034,6,15.5,6H19c1.105,0,2,0.895,2,2c0,1.105-0.895,2-2,2H6.189c-2.086,0-3.958,1.514-4.168,3.59 C1.78,15.972,3.665,18,6,18h2.5c1.933,0,3.5,1.567,3.5,3.5c0,1.933-1.567,3.5-3.5,3.5H5.189c-2.086,0-3.958,1.514-4.168,3.59 C0.78,30.972,2.665,33,5,33h17v11H6c-1.65,0-3,1.35-3,3c0,1.65,1.35,3,3,3h0c1.105,0,2,0.895,2,2c0,1.105-0.895,2-2,2H4.189 c-2.086,0-3.958,1.514-4.168,3.59C-0.22,59.972,1.665,62,4,62h54.811c2.086,0,3.958-1.514,4.168-3.59C63.22,56.028,61.335,54,59,54z"/><linearGradient id="6awZrIWLl6mhjJp1O46A4b" x1="32.5" x2="32.5" y1="74.094" y2="10.539" gradientUnits="userSpaceOnUse" spreadMethod="reflect"><stop offset="0" stop-color="#3cb5ea"/><stop offset="1" stop-color="#7ddefb"/></linearGradient><path fill="url(#6awZrIWLl6mhjJp1O46A4b)" d="M51,12H14c-2.209,0-4,1.791-4,4v36c0,2.209,1.791,4,4,4h37c2.209,0,4-1.791,4-4V16 C55,13.791,53.209,12,51,12z"/><linearGradient id="6awZrIWLl6mhjJp1O46A4c" x1="32.5" x2="32.5" y1="20.382" y2="12.318" gradientUnits="userSpaceOnUse" spreadMethod="reflect"><stop offset="0" stop-color="#2875e3"/><stop offset=".014" stop-color="#2876e3"/><stop offset=".588" stop-color="#2e88e7"/><stop offset="1" stop-color="#308ee8"/></linearGradient><path fill="url(#6awZrIWLl6mhjJp1O46A4c)" d="M10,16v4h45v-4c0-2.209-1.791-4-4-4H14C11.791,12,10,13.791,10,16z"/><linearGradient id="6awZrIWLl6mhjJp1O46A4d" x1="32.5" x2="32.5" y1="49" y2="12.755" gradientUnits="userSpaceOnUse" spreadMethod="reflect"><stop offset="0" stop-color="#0d47a1"/><stop offset=".365" stop-color="#135fba"/><stop offset=".734" stop-color="#1770cc"/><stop offset="1" stop-color="#1976d2"/></linearGradient><path fill="url(#6awZrIWLl6mhjJp1O46A4d)" d="M41.5,35H35v-6.5c0-1.381-1.119-2.5-2.5-2.5S30,27.119,30,28.5V35h-6.5 c-1.381,0-2.5,1.119-2.5,2.5c0,1.381,1.119,2.5,2.5,2.5H30v6.5c0,1.381,1.119,2.5,2.5,2.5s2.5-1.119,2.5-2.5V40h6.5 c1.381,0,2.5-1.119,2.5-2.5C44,36.119,42.881,35,41.5,35z"/></svg>