<svg xmlns="http://www.w3.org/2000/svg"  viewBox="0 0 64 64" width="50px" height="50px"><radialGradient id="n6ok41Uc9HLIeo08sAw_qa" cx="32.5" cy="8057.5" r="30.516" gradientTransform="translate(0 -8026)" gradientUnits="userSpaceOnUse"><stop offset="0" stop-color="#afeeff"/><stop offset=".193" stop-color="#bbf1ff"/><stop offset=".703" stop-color="#d7f8ff"/><stop offset="1" stop-color="#e1faff"/></radialGradient><path fill="url(#n6ok41Uc9HLIeo08sAw_qa)" d="M60,20h0.5c2.168,0,3.892-1.998,3.422-4.243C63.58,14.122,62.056,13,60.385,13H55	c-1.105,0-2-0.895-2-2s0.895-2,2-2h1.385c1.67,0,3.195-1.122,3.537-2.757C60.392,3.998,58.668,2,56.5,2H34.006H32.5h-24	C6.575,2,5,3.575,5,5.5S6.575,9,8.5,9H9c1.105,0,2,0.895,2,2s-0.895,2-2,2H4.615c-1.67,0-3.195,1.122-3.537,2.757	C0.608,18.002,2.332,20,4.5,20H18v12H4.615c-1.67,0-3.195,1.122-3.537,2.757C0.608,37.002,2.332,39,4.5,39H5c1.105,0,2,0.895,2,2	s-0.895,2-2,2H4.5c-2.168,0-3.892,1.998-3.422,4.243C1.42,48.878,2.945,50,4.615,50H9c1.105,0,2,0.895,2,2s-0.895,2-2,2H8.615	c-1.67,0-3.195,1.122-3.537,2.757C4.608,59.002,6.332,61,8.5,61h22.494H32.5h24c1.925,0,3.5-1.575,3.5-3.5S58.425,54,56.5,54H56	c-1.105,0-2-0.895-2-2s0.895-2,2-2h3.385c1.67,0,3.195-1.122,3.537-2.757C63.392,44.998,61.668,43,59.5,43H47V31h13.385	c1.67,0,3.195-1.122,3.537-2.757C64.392,25.998,62.668,24,60.5,24H60c-1.105,0-2-0.895-2-2S58.895,20,60,20z"/><linearGradient id="n6ok41Uc9HLIeo08sAw_qb" x1="32" x2="32" y1="8090.025" y2="8040.025" gradientTransform="translate(0 -8026)" gradientUnits="userSpaceOnUse"><stop offset="0" stop-color="#155cde"/><stop offset=".278" stop-color="#1f7fe5"/><stop offset=".569" stop-color="#279ceb"/><stop offset=".82" stop-color="#2cafef"/><stop offset="1" stop-color="#2eb5f0"/></linearGradient><path fill="url(#n6ok41Uc9HLIeo08sAw_qb)" d="M57,31c0,13.805-11.195,25-25,25S7,44.805,7,31S18.195,6,32,6S57,17.195,57,31z"/><path fill="#fff" d="M42.915,19.222c-0.665-0.343-1.468-0.285-2.077,0.151l-14,10C26.312,29.748,26,30.354,26,31	s0.312,1.252,0.837,1.627l14,10C41.184,42.874,41.591,43,42,43c0.313,0,0.627-0.073,0.915-0.222C43.581,42.436,44,41.749,44,41V21	C44,20.251,43.581,19.564,42.915,19.222z"/><path fill="#fff" d="M24.5,43L24.5,43c-1.381,0-2.5-1.119-2.5-2.5v-19c0-1.381,1.119-2.5,2.5-2.5l0,0	c1.381,0,2.5,1.119,2.5,2.5v19C27,41.881,25.881,43,24.5,43z"/></svg>