<svg xmlns="http://www.w3.org/2000/svg"  viewBox="0 0 64 64" width="50px" height="50px"><radialGradient id="9lPjeF0UomQ5mYsh424Y3a" cx="35" cy="2202" r="26.875" gradientTransform="translate(0 -2170)" gradientUnits="userSpaceOnUse"><stop offset="0" stop-color="#f4e9c3"/><stop offset=".219" stop-color="#f8eecd"/><stop offset=".644" stop-color="#fdf4dc"/><stop offset="1" stop-color="#fff6e1"/></radialGradient><path fill="url(#9lPjeF0UomQ5mYsh424Y3a)" d="M4.5,61L4.5,61C2.015,61,0,58.985,0,56.5l0,0C0,54.015,2.015,52,4.5,52l0,0	C6.985,52,9,54.015,9,56.5l0,0C9,58.985,6.985,61,4.5,61z"/><radialGradient id="9lPjeF0UomQ5mYsh424Y3b" cx="32" cy="2201.5" r="30.775" gradientTransform="translate(0 -2170)" gradientUnits="userSpaceOnUse"><stop offset="0" stop-color="#f4e9c3"/><stop offset=".219" stop-color="#f8eecd"/><stop offset=".644" stop-color="#fdf4dc"/><stop offset="1" stop-color="#fff6e1"/></radialGradient><path fill="url(#9lPjeF0UomQ5mYsh424Y3b)" d="M64,24L64,24c0-2.761-2.239-5-5-5h-5c-2.761,0-5-2.238-5-5l0,0c0-2.762,2.238-5,5-5h0.565	C56.48,9,58,7.48,58,5.605V5.5C58,3.567,56.433,2,54.5,2h-38c-1.926,0-3.49,1.556-3.5,3.483V5.5C12.99,7.43,14.069,9,16,9l0,0	c2.209,0,3,1.791,3,4h1c0,2.209-2.791,4-5,4H5c-2.761,0-5,2.239-5,5l0,0c0,2.761,2.239,5,5,5h1c2.209,0,4,1.791,4,4l0,0	c0,2.209-1.791,4-4,4H5.5C2.462,35,0,37.462,0,40.5l0,0C0,43.538,2.462,46,5.5,46H14c1.657,0,3,1.343,3,3h2c0,1.657,0.657,3-1,3	h-0.5c-2.485,0-4.5,2.015-4.5,4.5l0,0c0,2.485,2.015,4.5,4.5,4.5H33h22c2.209,0,4-1.791,4-4l0,0c0-2.209-1.791-4-4-4h-6.5	c-1.933,0-2.5-1.567-2.5-3.5V51c0-1.933,1.567-5,3.5-5H60c2.209,0,4-1.791,4-4l0,0c0-2.209-1.791-4-4-4h-1.5	c-2.485,0-4.5-2.015-4.5-4.5l0,0c0-2.485,2.015-4.5,4.5-4.5H59C61.761,29,64,26.761,64,24z"/><linearGradient id="9lPjeF0UomQ5mYsh424Y3c" x1="32" x2="32" y1="7" y2="61" gradientTransform="matrix(1 0 0 -1 0 66)" gradientUnits="userSpaceOnUse"><stop offset="0" stop-color="#155cde"/><stop offset=".278" stop-color="#1f7fe5"/><stop offset=".569" stop-color="#279ceb"/><stop offset=".82" stop-color="#2cafef"/><stop offset="1" stop-color="#2eb5f0"/></linearGradient><path fill="url(#9lPjeF0UomQ5mYsh424Y3c)" d="M32,59C17.112,59,5,46.888,5,32S17.112,5,32,5s27,12.112,27,27S46.888,59,32,59z M32,11	c-11.579,0-21,9.421-21,21s9.421,21,21,21s21-9.421,21-21S43.579,11,32,11z"/><linearGradient id="9lPjeF0UomQ5mYsh424Y3d" x1="39.5" x2="39.5" y1="25.237" y2="42.763" gradientTransform="matrix(1 0 0 -1 0 66)" gradientUnits="userSpaceOnUse"><stop offset="0" stop-color="#155cde"/><stop offset=".278" stop-color="#1f7fe5"/><stop offset=".569" stop-color="#279ceb"/><stop offset=".82" stop-color="#2cafef"/><stop offset="1" stop-color="#2eb5f0"/></linearGradient><path fill="url(#9lPjeF0UomQ5mYsh424Y3d)" d="M48.586,28.586l-4.464-4.464C42.231,22.231,39,23.57,39,26.243V29h-7c-1.657,0-3,1.343-3,3	c0,1.657,1.343,3,3,3h7v2.757c0,2.673,3.231,4.011,5.121,2.121l4.464-4.464C49.491,34.509,50,33.281,50,32	S49.491,29.491,48.586,28.586z"/></svg>