<svg xmlns="http://www.w3.org/2000/svg"  viewBox="0 0 64 64" width="50px" height="50px"><radialGradient id="bf5JHdggiYvKZdUDX2FRCa" cx="32" cy="32.5" r="30.751" gradientUnits="userSpaceOnUse" spreadMethod="reflect"><stop offset="0" stop-color="#b8efff"/><stop offset=".642" stop-color="#d4f6ff"/><stop offset="1" stop-color="#e5faff"/></radialGradient><path fill="url(#bf5JHdggiYvKZdUDX2FRCa)" d="M60.357,47H58c-1.105,0-2-0.895-2-2c0-1.105,0.895-2,2-2h0.412 c1.139,0,2.202-0.721,2.497-1.821C61.355,39.516,60.096,38,58.5,38H42V27h14c2.335,0,4.22-2.028,3.979-4.41 c-0.21-2.075-2.082-3.59-4.168-3.59H47c-1.105,0-2-0.895-2-2c0-1.105,0.895-2,2-2h5.357c1.308,0,2.499-0.941,2.63-2.242 C55.137,11.261,53.966,10,52.5,10h-8C43.672,10,43,9.328,43,8.5S43.672,7,44.5,7h3.857c1.308,0,2.499-0.941,2.63-2.242 C51.137,3.261,49.966,2,48.5,2L15.643,2c-1.308,0-2.499,0.941-2.63,2.242C12.863,5.739,14.034,7,15.5,7H19c1.105,0,2,0.895,2,2 c0,1.105-0.895,2-2,2H6.189c-2.086,0-3.958,1.514-4.168,3.59C1.78,16.972,3.665,19,6,19h2.5c1.933,0,3.5,1.567,3.5,3.5 c0,1.933-1.567,3.5-3.5,3.5H5.189c-2.086,0-3.958,1.514-4.168,3.59C0.78,31.972,2.665,34,5,34h17v12H6.588 c-1.139,0-2.202,0.721-2.497,1.821C3.645,49.484,4.904,51,6.5,51H8c1.105,0,2,0.895,2,2c0,1.105-0.895,2-2,2H6.189 c-2.086,0-3.958,1.514-4.168,3.59C1.78,60.972,3.665,63,6,63h49.811c2.086,0,3.958-1.514,4.168-3.59C60.22,57.028,58.335,55,56,55 h-0.5c-0.828,0-1.5-0.672-1.5-1.5s0.672-1.5,1.5-1.5h5c1.466,0,2.637-1.261,2.487-2.758C62.857,47.941,61.665,47,60.357,47z"/><linearGradient id="bf5JHdggiYvKZdUDX2FRCb" x1="24.035" x2="24.035" y1="37.395" y2="15.605" gradientUnits="userSpaceOnUse" spreadMethod="reflect"><stop offset="0" stop-color="#a4a4a4"/><stop offset=".63" stop-color="#7f7f7f"/><stop offset="1" stop-color="#6f6f6f"/></linearGradient><path fill="url(#bf5JHdggiYvKZdUDX2FRCb)" d="M14,30L14,30c-1.147-1.147-1.147-3.007,0-4.154L29.916,9.93c1.147-1.147,3.007-1.147,4.154,0 l0,0c1.147,1.147,1.147,3.007,0,4.154L18.154,30C17.007,31.147,15.147,31.147,14,30z"/><linearGradient id="bf5JHdggiYvKZdUDX2FRCc" x1="40.455" x2="40.455" y1="7.503" y2="30.3" gradientUnits="userSpaceOnUse" spreadMethod="reflect"><stop offset="0" stop-color="#a4a4a4"/><stop offset=".63" stop-color="#7f7f7f"/><stop offset="1" stop-color="#6f6f6f"/><stop offset="1" stop-color="#6f6f6f"/></linearGradient><path fill="url(#bf5JHdggiYvKZdUDX2FRCc)" d="M50.993,31.007L50.993,31.007c1.147-1.147,1.147-3.007,0-4.154L34.07,9.93 c-1.147-1.147-3.007-1.147-4.154,0l0,0c-1.147,1.147-1.147,3.007,0,4.154L46.84,31.007C47.987,32.154,49.846,32.154,50.993,31.007z"/><linearGradient id="bf5JHdggiYvKZdUDX2FRCd" x1="32" x2="32" y1="23.694" y2="31.158" gradientUnits="userSpaceOnUse" spreadMethod="reflect"><stop offset="0" stop-color="#42d778"/><stop offset=".996" stop-color="#34b171"/><stop offset="1" stop-color="#34b171"/></linearGradient><path fill="url(#bf5JHdggiYvKZdUDX2FRCd)" d="M56,32H8c-1.657,0-3-1.343-3-3v-2c0-1.657,1.343-3,3-3h48c1.657,0,3,1.343,3,3v2 C59,30.657,57.657,32,56,32z"/><linearGradient id="bf5JHdggiYvKZdUDX2FRCe" x1="32" x2="32" y1="55" y2="21.374" gradientUnits="userSpaceOnUse" spreadMethod="reflect"><stop offset="0" stop-color="#31995f"/><stop offset=".093" stop-color="#329e62"/><stop offset=".666" stop-color="#39ba71"/><stop offset="1" stop-color="#3bc477"/></linearGradient><path fill="url(#bf5JHdggiYvKZdUDX2FRCe)" d="M48.377,55H15.623c-1.039,0-2.035-0.413-2.77-1.147h0c-0.556-0.556-0.931-1.265-1.078-2.037 L8,32h48l-3.774,19.816c-0.147,0.772-0.523,1.482-1.078,2.037l0,0C50.413,54.587,49.416,55,48.377,55z"/><linearGradient id="bf5JHdggiYvKZdUDX2FRCf" x1="15" x2="15" y1="46" y2="32" gradientUnits="userSpaceOnUse" spreadMethod="reflect"><stop offset="0" stop-color="#4ab177"/><stop offset="1" stop-color="#4dc17f"/></linearGradient><path fill="url(#bf5JHdggiYvKZdUDX2FRCf)" d="M15.5,46c1.381,0,2.5-1.119,2.5-2.5c0-1.381-1.119-2.5-2.5-2.5h-1c-1.381,0-2.5-1.119-2.5-2.5 c0-1.381,1.119-2.5,2.5-2.5H20c1.105,0,2-0.895,2-2c0-1.105-0.895-2-2-2H8l2.667,14H15.5z"/><path fill="#f1fcff" d="M39.922,35.528L29.695,45.751l-4.622-4.218c-0.704-0.704-1.845-0.704-2.548,0l-0.002,0.002 c-0.704,0.703-0.704,1.844,0,2.548l5.649,5.319c0.848,0.805,2.183,0.789,3.01-0.038l11.291-11.287c0.704-0.703,0.704-1.844,0-2.548 l-0.002-0.002C41.767,34.824,40.626,34.824,39.922,35.528z"/></svg>