<svg xmlns="http://www.w3.org/2000/svg"  viewBox="0 0 64 64" width="50px" height="50px"><radialGradient id="LqQknE5fo47X0W~hyycIfa" cx="-543.5" cy="32" r="31.751" gradientTransform="matrix(-1 0 0 1 -511 0)" gradientUnits="userSpaceOnUse" spreadMethod="reflect"><stop offset="0" stop-color="#afeeff"/><stop offset=".193" stop-color="#bbf1ff"/><stop offset=".703" stop-color="#d7f8ff"/><stop offset="1" stop-color="#e1faff"/></radialGradient><path fill="url(#LqQknE5fo47X0W~hyycIfa)" d="M3.499,18.008h5.09c1.1,0,2-0.9,2-2c0-1.1-0.9-2-2-2H7c-1.85,0-3.32-1.69-2.94-3.6 c0.28-1.43,1.62-2.4,3.07-2.4L19.5,8C20.33,8,21,7.33,21,6.5C21,5.67,20.33,5,19.5,5h-5.91c-1.14,0-2.2-0.72-2.5-1.82 C10.64,1.52,11.9,0,13.5,0l43.91,0c1.14,0,2.2,0.72,2.5,1.82C60.36,3.48,59.1,5,57.5,5h-3c-0.69,0-1.32,0.28-1.77,0.73 C52.28,6.18,52,6.81,52,7.5c0,1.38,1.12,2.5,2.5,2.5H61c1.65,0,3,1.35,3,3c0,1.65-1.35,3-3,3H40c-0.35,0-0.69-0.07-1-0.19V23h13v9 h-4.5c-1.38,0-2.5,1.12-2.5,2.5c0,0.69,0.28,1.32,0.73,1.77C46.18,36.72,46.81,37,47.5,37h8c1.38,0,2.5,1.12,2.5,2.5 S56.88,42,55.5,42h-4c-1.209,0-2.218,0.859-2.45,2H59.5c2.475,0,4.5,2.025,4.5,4.5c0,2.475-2.025,4.5-4.5,4.5h-19 c-1.38,0-2.5,1.12-2.5,2.5s1.12,2.5,2.5,2.5H46c1.66,0,3,1.34,3,3c0,1.66-1.34,3-3,3H6c-1.66,0-3-1.34-3-3c0-1.66,1.34-3,3-3h5.5 c1.38,0,2.5-1.12,2.5-2.5S12.88,53,11.5,53h-4C5.025,53,3,50.975,3,48.5C3,46.025,5.025,44,7.5,44h10.063 c-0.314-1.587,0.896-3,2.437-3c0.83,0-1-0.67-1-1.5c0-0.83-0.67-1.5-1.5-1.5c0,0-0.5-11.9-0.5-13c0-1.1-0.9-2-2-2H3.589 c-1.14,0-2.2-0.713-2.5-1.813C0.649,19.527,1.909,18.008,3.499,18.008z"/><linearGradient id="LqQknE5fo47X0W~hyycIfb" x1="32" x2="32" y1="50" y2="14" gradientUnits="userSpaceOnUse" spreadMethod="reflect"><stop offset="0" stop-color="#ff634d"/><stop offset=".204" stop-color="#fe6464"/><stop offset=".521" stop-color="#fc6581"/><stop offset=".794" stop-color="#fa6694"/><stop offset=".989" stop-color="#fa669a"/><stop offset="1" stop-color="#fa669a"/></linearGradient><path fill="url(#LqQknE5fo47X0W~hyycIfb)" d="M5.456,35.371l13.811,12.998C20.38,49.417,21.851,50,23.379,50H57c1.657,0,3-1.343,3-3V17 c0-1.657-1.343-3-3-3H23.38c-1.528,0-2.999,0.583-4.112,1.631L5.456,28.629C4.527,29.504,4,30.724,4,32S4.527,34.496,5.456,35.371z"/><linearGradient id="LqQknE5fo47X0W~hyycIfc" x1="53.674" x2="55.627" y1="52.394" y2="21.605" gradientUnits="userSpaceOnUse" spreadMethod="reflect"><stop offset="0" stop-color="#ff5840"/><stop offset=".007" stop-color="#ff5840"/><stop offset=".989" stop-color="#fa528c"/><stop offset="1" stop-color="#fa528c"/></linearGradient><path fill="url(#LqQknE5fo47X0W~hyycIfc)" d="M51,37.5L51,37.5c0,1.381,1.119,2.5,2.5,2.5h1c1.381,0,2.5,1.119,2.5,2.5v0 c0,1.381-1.119,2.5-2.5,2.5h-4c-1.381,0-2.5,1.119-2.5,2.5v0c0,1.381,1.119,2.5,2.5,2.5H57c1.657,0,3-1.343,3-3V35h-6.5 C52.119,35,51,36.119,51,37.5z"/><linearGradient id="LqQknE5fo47X0W~hyycIfd" x1="20.5" x2="20.5" y1="49.051" y2="15.006" gradientUnits="userSpaceOnUse" spreadMethod="reflect"><stop offset="0" stop-color="#ff735d"/><stop offset=".139" stop-color="#fe746b"/><stop offset=".492" stop-color="#fc758a"/><stop offset=".791" stop-color="#fa769d"/><stop offset="1" stop-color="#fa76a4"/></linearGradient><path fill="url(#LqQknE5fo47X0W~hyycIfd)" d="M5.456,28.629C4.527,29.504,4,30.724,4,32c0,0.34,0.043,0.674,0.115,1H23c1.657,0,3-1.343,3-3 s-1.343-3-3-3h-0.5c-1.381,0-2.5-1.119-2.5-2.5c0-1.381,1.119-2.5,2.5-2.5H29h4c2.2,0,4-1.8,4-4s-1.8-4-4-4h-9.62 c-1.528,0-2.999,0.583-4.112,1.631L5.456,28.629z"/><g><path fill="#fff" d="M41 29A3 3 0 1 0 41 35 3 3 0 1 0 41 29zM52 29A3 3 0 1 0 52 35 3 3 0 1 0 52 29zM19 29A3 3 0 1 0 19 35 3 3 0 1 0 19 29zM30 29A3 3 0 1 0 30 35 3 3 0 1 0 30 29z"/></g></svg>