<svg xmlns="http://www.w3.org/2000/svg"  viewBox="0 0 64 64" width="50px" height="50px"><radialGradient id="~2yPC8~LlobubU~lU49J3a" cx="-1802.072" cy="-784.073" r="34.917" gradientTransform="rotate(180 -885.5 -375)" gradientUnits="userSpaceOnUse"><stop offset="0" stop-color="#afeeff"/><stop offset=".193" stop-color="#bbf1ff"/><stop offset=".703" stop-color="#d7f8ff"/><stop offset="1" stop-color="#e1faff"/></radialGradient><path fill="url(#~2yPC8~LlobubU~lU49J3a)" d="M59.5,49h0.33c2.09,0,3.95-1.53,4.15-3.61C64.21,43.01,62.34,41,60,41h-7	c-0.83,0-1.58-0.34-2.12-0.88S50,38.83,50,38c0-1.66,1.34-3,3-3h6.5c2.63,0,4.73-2.26,4.48-4.94C63.76,27.72,61.66,26,59.31,26H53	c-0.83,0-1.58-0.34-2.12-0.88S50,23.83,50,23c0-1.66,1.34-3,3-3h5.3c1.9,0,3.6-1.42,3.69-3.31C62.1,14.67,60.5,13,58.5,13H53	c-1.38,0-2.5-1.12-2.5-2.5c0-0.69,0.28-1.32,0.73-1.77C51.68,8.28,52.31,8,53,8h2.89c1.45,0,2.78-0.98,3.05-2.41	C59.31,3.68,57.85,2,56,2H7.11C5.66,2,4.33,2.98,4.06,4.41C3.69,6.32,5.15,8,7,8h3c1.66,0,3,1.34,3,3c0,0.83-0.34,1.58-0.88,2.12	S10.83,14,10,14H6.17c-2.09,0-3.95,1.53-4.15,3.61C1.79,19.99,3.66,22,6,22h3c0.83,0,1.58,0.34,2.12,0.88S12,24.17,12,25	c0,1.66-1.34,3-3,3H5.22c-2.62,0-4.95,1.91-5.2,4.51C-0.26,35.49,2.08,38,5,38h4.5c0.69,0,1.32,0.28,1.77,0.73	C11.72,39.18,12,39.81,12,40.5c0,1.38-1.12,2.5-2.5,2.5H4.7c-1.9,0-3.6,1.42-3.69,3.31C0.9,48.33,2.5,50,4.5,50H5	c0.55,0,1.05,0.22,1.41,0.59C6.78,50.95,7,51.45,7,52c0,1.1-0.9,2-2,2H4.17c-2.09,0-3.95,1.53-4.15,3.61C-0.21,59.99,1.66,62,4,62	h55.83c2.09,0,3.95-1.53,4.15-3.61C64.21,56.01,62.34,54,60,54h-0.5c-0.69,0-1.32-0.28-1.77-0.73S57,52.19,57,51.5	C57,50.12,58.12,49,59.5,49z"/><linearGradient id="~2yPC8~LlobubU~lU49J3b" x1="32" x2="32" y1="65.761" y2="-6.065" gradientUnits="userSpaceOnUse"><stop offset="0" stop-color="#ffc662"/><stop offset=".004" stop-color="#ffc662"/><stop offset=".609" stop-color="#ffc582"/><stop offset="1" stop-color="#ffc491"/><stop offset="1" stop-color="#ffc491"/></linearGradient><path fill="url(#~2yPC8~LlobubU~lU49J3b)" d="M18,8h28c5.523,0,10,4.477,10,10v28c0,5.523-4.477,10-10,10H18c-5.523,0-10-4.477-10-10V18	C8,12.477,12.477,8,18,8z"/><linearGradient id="~2yPC8~LlobubU~lU49J3c" x1="32" x2="32" y1="635.605" y2="702.83" gradientTransform="translate(0 -634)" gradientUnits="userSpaceOnUse"><stop offset="0" stop-color="#00d772"/><stop offset=".996" stop-color="#00b26e"/><stop offset="1" stop-color="#00b26e"/></linearGradient><path fill="url(#~2yPC8~LlobubU~lU49J3c)" d="M18,52c-3.309,0-6-2.691-6-6V18c0-3.309,2.691-6,6-6h28c3.309,0,6,2.691,6,6v28	c0,3.309-2.691,6-6,6H18z"/><linearGradient id="~2yPC8~LlobubU~lU49J3d" x1="42.5" x2="42.5" y1="24.261" y2="48.871" gradientUnits="userSpaceOnUse"><stop offset="0" stop-color="#62de8f"/><stop offset=".478" stop-color="#5dd18d"/><stop offset="1" stop-color="#56be89"/></linearGradient><path fill="url(#~2yPC8~LlobubU~lU49J3d)" d="M49,39.75L49,39.75c0,1.105-0.895,2-2,2h-9c-1.105,0-2-0.895-2-2v0	c0-2.623,2.127-4.75,4.75-4.75h3.5C46.873,35,49,37.127,49,39.75z M45,30.5c0-1.381-1.119-2.5-2.5-2.5S40,29.119,40,30.5	s1.119,2.5,2.5,2.5S45,31.881,45,30.5z"/><linearGradient id="~2yPC8~LlobubU~lU49J3e" x1="21.5" x2="21.5" y1="24.261" y2="48.871" gradientUnits="userSpaceOnUse"><stop offset="0" stop-color="#62de8f"/><stop offset=".478" stop-color="#5dd18d"/><stop offset="1" stop-color="#56be89"/></linearGradient><path fill="url(#~2yPC8~LlobubU~lU49J3e)" d="M28,39.75L28,39.75c0,1.105-0.895,2-2,2h-9c-1.105,0-2-0.895-2-2v0	c0-2.623,2.127-4.75,4.75-4.75h3.5C25.873,35,28,37.127,28,39.75z M24,30.5c0-1.381-1.119-2.5-2.5-2.5S19,29.119,19,30.5	s1.119,2.5,2.5,2.5S24,31.881,24,30.5z"/><path fill="#fff" d="M34.25,33h-4.5C26.022,33,23,36.022,23,39.75v0c0,1.105,0.895,2,2,2h14c1.105,0,2-0.895,2-2v0	C41,36.022,37.978,33,34.25,33z"/><circle cx="32" cy="27" r="4" fill="#fff"/><path fill="#fff" d="M45,49h-6c-0.552,0-1,0.448-1,1v1c0,0.552,0.448,1,1,1h6c0.552,0,1-0.448,1-1v-1	C46,49.448,45.552,49,45,49z"/></svg>