<svg xmlns="http://www.w3.org/2000/svg"  viewBox="0 0 48 48" width="50px" height="50px"><linearGradient id="q6Ihoq9ZEAPCKQWRWaAmea" x1="16.904" x2="33.664" y1="47.845" y2="16.325" gradientTransform="matrix(1 0 0 -1 0 48)" gradientUnits="userSpaceOnUse"><stop offset="0" stop-color="#21ad64"/><stop offset="1" stop-color="#088242"/></linearGradient><path fill="url(#q6Ihoq9ZEAPCKQWRWaAmea)" d="M44.211,22H3.789C2.801,22,2,21.199,2,20.211V6.789C2,5.801,2.801,5,3.789,5h40.422	C45.199,5,46,5.801,46,6.789v13.422C46,21.199,45.199,22,44.211,22z"/><linearGradient id="q6Ihoq9ZEAPCKQWRWaAmeb" x1="19.346" x2="29.122" y1="43.253" y2="24.866" gradientTransform="matrix(1 0 0 -1 0 48)" gradientUnits="userSpaceOnUse"><stop offset="0" stop-color="#fcfcfc"/><stop offset=".495" stop-color="#f4f4f4"/><stop offset=".869" stop-color="#e8e8e8"/><stop offset="1" stop-color="#e8e8e8"/></linearGradient><polygon fill="url(#q6Ihoq9ZEAPCKQWRWaAmeb)" points="4,20 4,7 44,7 44,20"/><circle cx="19.5" cy="13.5" r="2.5" fill="#107c42"/><circle cx="10.5" cy="13.5" r="2.5" fill="#107c42"/><circle cx="28.5" cy="13.5" r="2.5" fill="#107c42"/><circle cx="37.5" cy="13.5" r="2.5" fill="#107c42"/><linearGradient id="q6Ihoq9ZEAPCKQWRWaAmec" x1="12" x2="36" y1="13.293" y2="13.293" gradientTransform="matrix(1 0 0 -1 0 48)" gradientUnits="userSpaceOnUse"><stop offset="0" stop-color="#21ad64"/><stop offset="1" stop-color="#088242"/></linearGradient><path fill="url(#q6Ihoq9ZEAPCKQWRWaAmec)" d="M20.293,43.121l-8-8c-0.391-0.391-0.391-1.024,0-1.414l1.414-1.414	c0.391-0.391,1.024-0.391,1.414,0L21,38.172l11.879-11.879c0.391-0.391,1.024-0.391,1.414,0l1.414,1.414	c0.391,0.391,0.391,1.024,0,1.414l-14,14C21.317,43.512,20.683,43.512,20.293,43.121z"/></svg>