<svg xmlns="http://www.w3.org/2000/svg"  viewBox="0 0 64 64" width="50px" height="50px"><radialGradient id="aYprF5kNyR61Z6W9Hbqdya" cx="32.5" cy="32.5" r="30.5" gradientUnits="userSpaceOnUse" spreadMethod="reflect"><stop offset="0" stop-color="#b8efff"/><stop offset=".642" stop-color="#d4f6ff"/><stop offset="1" stop-color="#e5faff"/></radialGradient><path fill="url(#aYprF5kNyR61Z6W9Hbqdya)" d="M60.357,47H57c-1.105,0-2-0.895-2-2c0-1.105,0.895-2,2-2h0.412 c1.139,0,2.202-0.721,2.497-1.821C60.355,39.516,59.096,38,57.5,38H42V27h14c2.335,0,4.22-2.028,3.979-4.41 c-0.21-2.075-2.082-3.59-4.168-3.59H46c-1.105,0-2-0.895-2-2c0-1.105,0.895-2,2-2h6.357c1.308,0,2.499-0.941,2.63-2.242 C55.137,11.261,53.966,10,52.5,10h-8C43.672,10,43,9.328,43,8.5S43.672,7,44.5,7h3.857c1.308,0,2.499-0.941,2.63-2.242 C51.137,3.261,49.966,2,48.5,2L15.643,2c-1.308,0-2.499,0.941-2.63,2.242C12.863,5.739,14.034,7,15.5,7H19c1.105,0,2,0.895,2,2 c0,1.105-0.895,2-2,2H6.189c-2.086,0-3.958,1.514-4.168,3.59C1.78,16.972,3.665,19,6,19h2.5c1.933,0,3.5,1.567,3.5,3.5 c0,1.933-1.567,3.5-3.5,3.5H7c-2.086,0-3.958,1.514-4.168,3.59C2.591,31.972,4.476,34,6.811,34H22v12H7.588 c-1.139,0-2.202,0.721-2.497,1.821C4.645,49.484,5.904,51,7.5,51H9c1.105,0,2,0.895,2,2c0,1.105-0.895,2-2,2H6.189 c-2.086,0-3.958,1.514-4.168,3.59C1.78,60.972,3.665,63,6,63h48.811c2.086,0,3.958-1.514,4.168-3.59C59.22,57.028,57.335,55,55,55 h-0.5c-0.828,0-1.5-0.672-1.5-1.5s0.672-1.5,1.5-1.5h6c1.466,0,2.637-1.261,2.487-2.758C62.857,47.941,61.665,47,60.357,47z"/><linearGradient id="aYprF5kNyR61Z6W9Hbqdyb" x1="32" x2="32" y1="56" y2="13" gradientUnits="userSpaceOnUse" spreadMethod="reflect"><stop offset="0" stop-color="#ff634d"/><stop offset=".204" stop-color="#fe6464"/><stop offset=".521" stop-color="#fc6581"/><stop offset=".794" stop-color="#fa6694"/><stop offset=".989" stop-color="#fa669a"/><stop offset="1" stop-color="#fa669a"/></linearGradient><path fill="url(#aYprF5kNyR61Z6W9Hbqdyb)" d="M55,13H36v6h-8v-6H9c-3.314,0-6,2.686-6,6v28c0,3.314,2.686,6,6,6h19.141 c0.446,1.722,1.997,3,3.859,3s3.412-1.278,3.859-3H55c3.314,0,6-2.686,6-6V19C61,15.686,58.314,13,55,13z"/><linearGradient id="aYprF5kNyR61Z6W9Hbqdyc" x1="19.5" x2="19.5" y1="49" y2="10" gradientUnits="userSpaceOnUse" spreadMethod="reflect"><stop offset="0" stop-color="#ffd17a"/><stop offset="1" stop-color="#ffcfa4"/></linearGradient><path fill="url(#aYprF5kNyR61Z6W9Hbqdyc)" d="M29,49H10c-1.657,0-3-1.343-3-3V13c0-1.657,1.343-3,3-3h16c3.314,0,6,2.686,6,6v30 C32,47.657,30.657,49,29,49z"/><linearGradient id="aYprF5kNyR61Z6W9Hbqdyd" x1="44.5" x2="44.5" y1="49" y2="10" gradientUnits="userSpaceOnUse" spreadMethod="reflect"><stop offset="0" stop-color="#ffd685"/><stop offset="1" stop-color="#ffd4ad"/></linearGradient><path fill="url(#aYprF5kNyR61Z6W9Hbqdyd)" d="M35,49h19c1.657,0,3-1.343,3-3V13c0-1.657-1.343-3-3-3H38c-3.314,0-6,2.686-6,6v30 C32,47.657,33.343,49,35,49z"/><linearGradient id="aYprF5kNyR61Z6W9Hbqdye" x1="15.5" x2="15.5" y1="31" y2="10" gradientUnits="userSpaceOnUse" spreadMethod="reflect"><stop offset="0" stop-color="#ffd79f"/><stop offset="1" stop-color="#ffd5af"/></linearGradient><path fill="url(#aYprF5kNyR61Z6W9Hbqdye)" d="M7,13c0-1.657,1.343-3,3-3h12c1.215,0,2.176,1.083,1.973,2.336 C23.813,13.319,22.889,14,21.893,14L14.5,14c-0.828,0-1.5,0.672-1.5,1.5s0.672,1.5,1.5,1.5H16c1.215,0,2.176,1.083,1.973,2.336 C17.813,20.319,16.889,21,15.893,21L7,21V13z M16,27c-1.105,0-2,0.895-2,2c0,1.105,0.895,2,2,2s2-0.895,2-2 C18,27.895,17.105,27,16,27z"/><linearGradient id="aYprF5kNyR61Z6W9Hbqdyf" x1="39.5" x2="39.5" y1="28" y2="10" gradientUnits="userSpaceOnUse" spreadMethod="reflect"><stop offset="0" stop-color="#ffdab9"/><stop offset="1" stop-color="#ffdab9"/></linearGradient><path fill="url(#aYprF5kNyR61Z6W9Hbqdyf)" d="M46.973,18.664C46.813,17.681,45.889,17,44.893,17h-4.786H38.5c-0.828,0-1.5-0.672-1.5-1.5 s0.672-1.5,1.5-1.5H41c1.215,0,2.176-1.083,1.973-2.336C42.813,10.681,41.889,10,40.893,10H38c-3.314,0-6,2.686-6,6v1v1v2v1v7h4.893 c0.996,0,1.92-0.681,2.08-1.664C39.176,25.083,38.215,24,37,24h-0.607c-0.828,0-1.5-0.672-1.5-1.5s0.672-1.5,1.5-1.5H40h5 C46.215,21,47.176,19.917,46.973,18.664z"/><linearGradient id="aYprF5kNyR61Z6W9Hbqdyg" x1="45" x2="45" y1="37" y2="8" gradientUnits="userSpaceOnUse" spreadMethod="reflect"><stop offset="0" stop-color="#ff634d"/><stop offset=".204" stop-color="#fe6464"/><stop offset=".521" stop-color="#fc6581"/><stop offset=".794" stop-color="#fa6694"/><stop offset=".989" stop-color="#fa669a"/><stop offset="1" stop-color="#fa669a"/></linearGradient><path fill="url(#aYprF5kNyR61Z6W9Hbqdyg)" d="M48.59,37h-0.006c-0.374,0-0.733-0.149-0.997-0.413L45,34l-2.587,2.587 C42.149,36.851,41.79,37,41.416,37H41.41C40.631,37,40,36.369,40,35.59V11c0-1.657,1.343-3,3-3h4c1.657,0,3,1.343,3,3v24.59 C50,36.369,49.369,37,48.59,37z"/></svg>