<svg xmlns="http://www.w3.org/2000/svg"  viewBox="0 0 64 64" width="50px" height="50px"><radialGradient id="C_WIUm2dgDO13RADpPNsja" cx="32" cy="31.5" r="31.751" gradientUnits="userSpaceOnUse" spreadMethod="reflect"><stop offset="0" stop-color="#ecd59c"/><stop offset=".242" stop-color="#efd9a4"/><stop offset=".627" stop-color="#f6e5bb"/><stop offset="1" stop-color="#fff3d8"/></radialGradient><path fill="url(#C_WIUm2dgDO13RADpPNsja)" d="M60.5,32c2.168,0,3.892-1.998,3.422-4.243C63.58,26.122,62.056,25,60.385,25L43,25v-7 l14.386,0c1.67,0,3.195-1.122,3.537-2.757C61.392,12.997,59.668,11,57.5,11H46c-1.105,0-2-0.895-2-2v0c0-1.105,0.895-2,2-2l4.385,0 c1.67,0,3.195-1.122,3.537-2.757C54.392,1.998,52.668,0,50.5,0L10.615,0C8.944,0,7.42,1.122,7.078,2.757C6.608,5.002,8.332,7,10.5,7 H13c1.105,0,2,0.895,2,2v0c0,1.105-0.895,2-2,2l-6.385,0c-1.67,0-3.195,1.122-3.537,2.757C2.608,16.002,4.332,18,6.5,18H22l0,15 L3.614,33c-1.67,0-3.195,1.122-3.537,2.757C-0.392,38.002,1.332,40,3.5,40H4c1.105,0,2,0.895,2,2v0c0,1.105-0.895,2-2,2H3.615 c-1.67,0-3.195,1.122-3.537,2.757C-0.392,49.002,1.332,51,3.5,51h21.115C25.932,51,27,52.068,27,53.385v0.229 C27,54.932,25.932,56,24.615,56l-5,0c-1.67,0-3.195,1.122-3.537,2.757C15.608,61.002,17.332,63,19.5,63l38.885,0 c1.67,0,3.195-1.122,3.537-2.757C62.392,57.998,60.668,56,58.5,56h-3.115C54.068,56,53,54.932,53,53.615v-0.229 C53,52.068,54.068,51,55.385,51h0c1.67,0,3.195-1.122,3.537-2.757C59.392,45.998,57.668,44,55.5,44H43l0-12H60.5z"/><linearGradient id="C_WIUm2dgDO13RADpPNsjb" x1="39.5" x2="39.5" y1="29.675" y2="63.193" gradientUnits="userSpaceOnUse" spreadMethod="reflect"><stop offset="0" stop-color="#40daf2"/><stop offset="1" stop-color="#1ba7dd"/></linearGradient><path fill="url(#C_WIUm2dgDO13RADpPNsjb)" d="M51,33H28c-2.2,0-4,1.8-4,4v13c0,2.2,1.8,4,4,4h17.901c1.09,0,2.093,0.591,2.622,1.543 l1.692,3.045c0.402,0.723,1.097,1.278,1.917,1.388C53.679,60.184,55,58.987,55,57.482V50V37C55,34.8,53.2,33,51,33z"/><linearGradient id="C_WIUm2dgDO13RADpPNsjc" x1="28.5" x2="28.5" y1="46" y2="3.088" gradientUnits="userSpaceOnUse" spreadMethod="reflect"><stop offset="0" stop-color="#155cde"/><stop offset=".007" stop-color="#155dde"/><stop offset=".459" stop-color="#238ce8"/><stop offset=".804" stop-color="#2baaee"/><stop offset="1" stop-color="#2eb5f0"/></linearGradient><path fill="url(#C_WIUm2dgDO13RADpPNsjc)" d="M45,9H12c-2.2,0-4,1.8-4,4v20v5l0,4.688c0,1.47,0.932,2.85,2.356,3.212 c1.428,0.363,2.862-0.292,3.543-1.519l2.402-4.323C17.007,38.788,18.345,38,19.798,38H45c2.2,0,4-1.8,4-4V13C49,10.8,47.2,9,45,9z"/><linearGradient id="C_WIUm2dgDO13RADpPNsjd" x1="81.34" x2="27.575" y1="38.5" y2="38.5" gradientUnits="userSpaceOnUse" spreadMethod="reflect"><stop offset="0" stop-color="#40daf2"/><stop offset=".17" stop-color="#34caeb"/><stop offset=".439" stop-color="#26b6e3"/><stop offset=".714" stop-color="#1eabdf"/><stop offset="1" stop-color="#1ba7dd"/></linearGradient><path fill="url(#C_WIUm2dgDO13RADpPNsjd)" d="M45,44c4.873,0,8.937-3.506,9.818-8.126C54.326,34.221,52.807,33,51,33h-2v1c0,2.2-1.8,4-4,4 H24v6H45z"/><path fill="#fff" d="M28.5 21A2.5 2.5 0 1 0 28.5 26 2.5 2.5 0 1 0 28.5 21zM37.5 21A2.5 2.5 0 1 0 37.5 26 2.5 2.5 0 1 0 37.5 21zM19.5 21A2.5 2.5 0 1 0 19.5 26 2.5 2.5 0 1 0 19.5 21z"/></svg>