<svg xmlns="http://www.w3.org/2000/svg"  viewBox="0 0 64 64" width="50px" height="50px"><radialGradient id="ZbFHwFy4ni0gxKotMytj3a" cx="51.175" cy="44.173" r="14.018" gradientUnits="userSpaceOnUse" spreadMethod="reflect"><stop offset="0" stop-color="#f4e9c3"/><stop offset=".219" stop-color="#f8eecd"/><stop offset=".644" stop-color="#fdf4dc"/><stop offset="1" stop-color="#fff6e1"/></radialGradient><path fill="url(#ZbFHwFy4ni0gxKotMytj3a)" d="M56.5,52c-1.381,0-2.5,1.119-2.5,2.5c0,1.381,1.119,2.5,2.5,2.5s2.5-1.119,2.5-2.5 C59,53.119,57.881,52,56.5,52z"/><radialGradient id="ZbFHwFy4ni0gxKotMytj3b" cx="-36.162" cy="-71.265" r="151.835" gradientUnits="userSpaceOnUse" spreadMethod="reflect"><stop offset="0" stop-color="#f4e9c3"/><stop offset=".219" stop-color="#f8eecd"/><stop offset=".644" stop-color="#fdf4dc"/><stop offset="1" stop-color="#fff6e1"/></radialGradient><path fill="url(#ZbFHwFy4ni0gxKotMytj3b)" d="M56,35h5c1.65,0,3-1.35,3-3c0-1.65-1.35-3-3-3h-1c-1.65,0-3-1.35-3-3c0-1.65,1.35-3,3-3 s3-1.35,3-3c0-1.65-1.35-3-3-3h-4.5c-1.375,0-2.5-1.125-2.5-2.5s1.125-2.5,2.5-2.5h1c1.375,0,2.5-1.125,2.5-2.5S57.875,7,56.5,7H31 v5v2H14h-4H5c-1.65,0-3,1.35-3,3c0,1.65,1.35,3,3,3h5v4H2.5C1.125,24,0,25.125,0,26.5S1.125,29,2.5,29S5,30.125,5,31.5 S3.875,34,2.5,34S0,35.125,0,36.5S1.125,39,2.5,39h1C4.875,39,6,40.125,6,41.5S4.875,44,3.5,44S1,45.125,1,46.5S2.125,49,3.5,49H10 h3.5H37v8h12.5c1.381,0,2.5-1.119,2.5-2.5S50.881,52,49.5,52h0h-1c-1.375,0-2.5-1.125-2.5-2.5s1.125-2.5,2.5-2.5h10.33 c1.625,0,3.081-1.217,3.166-2.839C61.999,44.107,62,44.053,62,44c0-1.656-1.343-3-3-3c0,0-0.359,0-3,0c-1.65,0-3-1.35-3-3 C53,36.35,54.35,35,56,35z"/><g><linearGradient id="ZbFHwFy4ni0gxKotMytj3c" x1="25" x2="25" y1="3" y2="61" gradientUnits="userSpaceOnUse" spreadMethod="reflect"><stop offset="0" stop-color="#a4a4a4"/><stop offset=".619" stop-color="gray"/><stop offset="1" stop-color="#6f6f6f"/><stop offset="1" stop-color="#6f6f6f"/></linearGradient><path fill="url(#ZbFHwFy4ni0gxKotMytj3c)" d="M38,61H12c-2.761,0-5-2.239-5-5V8c0-2.761,2.239-5,5-5h26c2.761,0,5,2.239,5,5v48 C43,58.761,40.761,61,38,61z"/><linearGradient id="ZbFHwFy4ni0gxKotMytj3d" x1="25" x2="25" y1="10" y2="76.129" gradientUnits="userSpaceOnUse" spreadMethod="reflect"><stop offset="0" stop-color="#dff9ff"/><stop offset="0" stop-color="#dff9ff"/><stop offset=".173" stop-color="#d8f8ff"/><stop offset=".423" stop-color="#c5f4ff"/><stop offset=".72" stop-color="#a5eeff"/><stop offset="1" stop-color="#81e7ff"/></linearGradient><path fill="url(#ZbFHwFy4ni0gxKotMytj3d)" d="M37,51H13c-1.657,0-3-1.343-3-3V13c0-1.657,1.343-3,3-3h24c1.657,0,3,1.343,3,3v35 C40,49.657,38.657,51,37,51z"/><path fill="#bcbcbc" d="M30,8H20c-0.552,0-1-0.448-1-1v0c0-0.552,0.448-1,1-1h10c0.552,0,1,0.448,1,1v0 C31,7.552,30.552,8,30,8z"/><path fill="#9e9e9e" d="M25 53A3 3 0 1 0 25 59A3 3 0 1 0 25 53Z"/><linearGradient id="ZbFHwFy4ni0gxKotMytj3e" x1="33" x2="33" y1="50.958" y2="35.958" gradientUnits="userSpaceOnUse" spreadMethod="reflect"><stop offset="0" stop-color="#89e4fa"/><stop offset=".406" stop-color="#94e8fc"/><stop offset="1" stop-color="#acf0ff"/></linearGradient><path fill="url(#ZbFHwFy4ni0gxKotMytj3e)" d="M30,38.5L30,38.5c0,1.381,1.119,2.5,2.5,2.5h0c1.381,0,2.5,1.119,2.5,2.5v0 c0,1.381-1.119,2.5-2.5,2.5h-4c-1.381,0-2.5,1.119-2.5,2.5v0c0,1.381,1.119,2.5,2.5,2.5H37c1.657,0,3-1.343,3-3v-2v-5v-5h-7.5 C31.119,36,30,37.119,30,38.5z"/><linearGradient id="ZbFHwFy4ni0gxKotMytj3f" x1="30.5" x2="30.5" y1="24" y2="19" gradientUnits="userSpaceOnUse" spreadMethod="reflect"><stop offset="0" stop-color="#ecf9fd"/><stop offset=".848" stop-color="#f2fdff"/><stop offset="1" stop-color="#f4feff"/></linearGradient><path fill="url(#ZbFHwFy4ni0gxKotMytj3f)" d="M28,21.5L28,21.5c0,1.381,1.119,2.5,2.5,2.5h0c1.381,0,2.5-1.119,2.5-2.5v0 c0-1.381-1.119-2.5-2.5-2.5h0C29.119,19,28,20.119,28,21.5z"/><linearGradient id="ZbFHwFy4ni0gxKotMytj3g" x1="20" x2="20" y1="43" y2="10" gradientUnits="userSpaceOnUse" spreadMethod="reflect"><stop offset="0" stop-color="#ecf9fd"/><stop offset=".848" stop-color="#f2fdff"/><stop offset="1" stop-color="#f4feff"/></linearGradient><path fill="url(#ZbFHwFy4ni0gxKotMytj3g)" d="M21.5,24h1c1.381,0,2.5-1.119,2.5-2.5v0c0-1.381-1.119-2.5-2.5-2.5H19c-1.105,0-2-0.895-2-2 v0c0-1.105,0.895-2,2-2h8.5c1.381,0,2.5-1.119,2.5-2.5v0c0-1.381-1.119-2.5-2.5-2.5H13c-1.657,0-3,1.343-3,3v30h9.5 c1.381,0,2.5-1.119,2.5-2.5v0c0-1.381-1.119-2.5-2.5-2.5H19c-1.105,0-2-0.895-2-2v0c0-1.105,0.895-2,2-2h5.5 c1.381,0,2.5-1.119,2.5-2.5v0c0-1.381-1.119-2.5-2.5-2.5h-3c-1.381,0-2.5-1.119-2.5-2.5v0C19,25.119,20.119,24,21.5,24z"/><path fill="#bcbcbc" d="M39.816,49H43V11.241c-1.084,0.281-2.107,0.706-3.05,1.259C39.977,12.664,40,12.829,40,13v35 C40,48.353,39.928,48.686,39.816,49z"/><g><linearGradient id="ZbFHwFy4ni0gxKotMytj3h" x1="46" x2="46" y1="15" y2="29.154" gradientUnits="userSpaceOnUse" spreadMethod="reflect"><stop offset="0" stop-color="#a4a4a4"/><stop offset=".63" stop-color="#7f7f7f"/><stop offset="1" stop-color="#6f6f6f"/><stop offset="1" stop-color="#6f6f6f"/></linearGradient><path fill="url(#ZbFHwFy4ni0gxKotMytj3h)" d="M46,15c-4.418,0-8,3.582-8,8v6.154h3v-6c0-2.761,2.239-5,5-5s5,2.239,5,5v6h3V23 C54,18.582,50.418,15,46,15z"/><linearGradient id="ZbFHwFy4ni0gxKotMytj3i" x1="46" x2="46" y1="45" y2="26" gradientUnits="userSpaceOnUse" spreadMethod="reflect"><stop offset="0" stop-color="#ff9757"/><stop offset="1" stop-color="#ffb65b"/><stop offset="1" stop-color="#ffb65b"/></linearGradient><path fill="url(#ZbFHwFy4ni0gxKotMytj3i)" d="M55,45H37c-1.657,0-3-1.343-3-3v-9c0-3.866,3.134-7,7-7h10c3.866,0,7,3.134,7,7v9 C58,43.657,56.657,45,55,45z"/><linearGradient id="ZbFHwFy4ni0gxKotMytj3j" x1="46" x2="46" y1="31" y2="41" gradientUnits="userSpaceOnUse" spreadMethod="reflect"><stop offset="0" stop-color="#a4a4a4"/><stop offset=".63" stop-color="#7f7f7f"/><stop offset="1" stop-color="#6f6f6f"/><stop offset="1" stop-color="#6f6f6f"/></linearGradient><path fill="url(#ZbFHwFy4ni0gxKotMytj3j)" d="M49,34c0-1.657-1.343-3-3-3s-3,1.343-3,3c0,0.885,0.39,1.672,1,2.221V39c0,1.1,0.9,2,2,2 s2-0.9,2-2v-2.779C48.61,35.672,49,34.885,49,34z"/></g></g></svg>