<svg xmlns="http://www.w3.org/2000/svg"  viewBox="0 0 64 64" width="50px" height="50px"><radialGradient id="BMmczc~DV0EXlX~qUYD8Za" cx="32.5" cy="32" r="31.751" gradientUnits="userSpaceOnUse" spreadMethod="reflect"><stop offset="0" stop-color="#f4e09d"/><stop offset=".226" stop-color="#f8e8b5"/><stop offset=".513" stop-color="#fcf0cd"/><stop offset=".778" stop-color="#fef4dc"/><stop offset="1" stop-color="#fff6e1"/></radialGradient><path fill="url(#BMmczc~DV0EXlX~qUYD8Za)" d="M61.501,18.008H56c-1.1,0-2-0.9-2-2c0-1.1,0.9-2,2-2h2c1.85,0,3.32-1.69,2.94-3.6 c-0.28-1.43-1.62-2.4-3.07-2.4L45.5,8C44.67,8,44,7.33,44,6.5C44,5.67,44.67,5,45.5,5h5.91c1.14,0,2.2-0.72,2.5-1.82 C54.36,1.52,53.1,0,51.5,0H7.59c-1.14,0-2.2,0.72-2.5,1.82C4.64,3.48,5.9,5,7.5,5h3c0.69,0,1.32,0.28,1.77,0.73 C12.72,6.18,13,6.81,13,7.5c0,1.38-1.12,2.5-2.5,2.5H4c-1.65,0-3,1.35-3,3c0,1.65,1.35,3,3,3h21c0.35,0,0.69-0.07,1-0.19V23H13v9 h4.5c1.38,0,2.5,1.12,2.5,2.5c0,0.69-0.28,1.32-0.73,1.77C18.82,36.72,18.19,37,17.5,37h-8C8.12,37,7,38.12,7,39.5S8.12,42,9.5,42h4 c1.209,0,2.218,0.859,2.45,2H5.5C3.025,44,1,46.025,1,48.5C1,50.975,3.025,53,5.5,53h19c1.38,0,2.5,1.12,2.5,2.5S25.88,58,24.5,58 H19c-1.66,0-3,1.34-3,3c0,1.66,1.34,3,3,3h40c1.66,0,3-1.34,3-3c0-1.66-1.34-3-3-3h-5.5c-1.38,0-2.5-1.12-2.5-2.5s1.12-2.5,2.5-2.5 h4c2.475,0,4.5-2.025,4.5-4.5c0-2.475-2.025-4.5-4.5-4.5H47.437c0.314-1.587-0.896-3-2.437-3c-0.83,0,1-0.67,1-1.5 c0-0.83,0.67-1.5,1.5-1.5c0,0,0.5-11.9,0.5-13c0-1.1,0.9-2,2-2l11.411,0.008c1.14,0,2.2-0.72,2.5-1.82 C64.351,19.527,63.091,18.008,61.501,18.008z"/><linearGradient id="BMmczc~DV0EXlX~qUYD8Zb" x1="34" x2="34" y1="78.224" y2="11.227" gradientUnits="userSpaceOnUse" spreadMethod="reflect"><stop offset="0" stop-color="#155cde"/><stop offset=".278" stop-color="#1f7fe5"/><stop offset=".569" stop-color="#279ceb"/><stop offset=".82" stop-color="#2cafef"/><stop offset="1" stop-color="#2eb5f0"/></linearGradient><path fill="url(#BMmczc~DV0EXlX~qUYD8Zb)" d="M60.544,28.629L46.733,15.631C45.62,14.583,44.149,14,42.621,14H9c-1.657,0-3,1.343-3,3v30 c0,1.657,1.343,3,3,3h33.62c1.528,0,2.999-0.583,4.112-1.631l13.811-12.998C61.473,34.496,62,33.276,62,32 S61.473,29.504,60.544,28.629z M52,35c-1.657,0-3-1.343-3-3s1.343-3,3-3s3,1.343,3,3S53.657,35,52,35z"/><linearGradient id="BMmczc~DV0EXlX~qUYD8Zc" x1="13.5" x2="13.5" y1="29" y2="14" gradientUnits="userSpaceOnUse" spreadMethod="reflect"><stop offset="0" stop-color="#41b2f0"/><stop offset="1" stop-color="#43bcf2"/></linearGradient><path fill="url(#BMmczc~DV0EXlX~qUYD8Zc)" d="M17,26.5L17,26.5c0-1.381-1.119-2.5-2.5-2.5h-1c-1.381,0-2.5-1.119-2.5-2.5v0 c0-1.381,1.119-2.5,2.5-2.5h5c1.381,0,2.5-1.119,2.5-2.5v0c0-1.381-1.119-2.5-2.5-2.5H9c-1.657,0-3,1.343-3,3v12h8.5 C15.881,29,17,27.881,17,26.5z"/><linearGradient id="BMmczc~DV0EXlX~qUYD8Zd" x1="43.942" x2="43.942" y1="50" y2="33" gradientUnits="userSpaceOnUse" spreadMethod="reflect"><stop offset="0" stop-color="#2084e6"/><stop offset="1" stop-color="#279ceb"/></linearGradient><path fill="url(#BMmczc~DV0EXlX~qUYD8Zd)" d="M60.544,35.371c0.682-0.642,1.142-1.471,1.341-2.371h-7.069c-0.413,1.163-1.512,2-2.816,2 s-2.403-0.837-2.816-2H40c-1.657,0-3,1.343-3,3s1.343,3,3,3h0.5c1.381,0,2.5,1.119,2.5,2.5c0,1.381-1.119,2.5-2.5,2.5H29 c-1.657,0-3,1.343-3,3s1.343,3,3,3h13.62c1.528,0,2.999-0.583,4.112-1.631L60.544,35.371z"/><path fill="#fff" d="M29.5 31h-8c-.825 0-1.5-.675-1.5-1.5v0c0-.825.675-1.5 1.5-1.5h8c.825 0 1.5.675 1.5 1.5v0C31 30.325 30.325 31 29.5 31zM29.5 35h-8c-.825 0-1.5-.675-1.5-1.5l0 0c0-.825.675-1.5 1.5-1.5h8c.825 0 1.5.675 1.5 1.5l0 0C31 34.325 30.325 35 29.5 35z"/><path fill="#fff" d="M30.333,41h-0.667C25.991,41,23,38.055,23,34.435v-5.869C23,24.945,25.991,22,29.667,22h0.667 c1.221,0,2.688,0.366,3.652,0.912c0.961,0.544,1.299,1.765,0.755,2.726c-0.544,0.962-1.764,1.301-2.726,0.755 C31.687,26.207,30.916,26,30.333,26h-0.667C28.196,26,27,27.15,27,28.565v5.869C27,35.85,28.196,37,29.667,37h0.667 c0.582,0,1.353-0.207,1.681-0.393c0.96-0.548,2.182-0.207,2.726,0.755c0.544,0.961,0.207,2.182-0.755,2.726 C33.022,40.634,31.554,41,30.333,41z"/></svg>