<svg xmlns="http://www.w3.org/2000/svg"  viewBox="0 0 48 48" width="50px" height="50px"><linearGradient id="qR2oyGrrv4ywhMDUqeGhUa" x1="4.614" x2="42.936" y1="-25.741" y2="-33.533" gradientTransform="matrix(1 0 0 -1 0 -18)" gradientUnits="userSpaceOnUse"><stop offset="0" stop-color="#0077d2"/><stop offset="1" stop-color="#0b59a2"/></linearGradient><path fill="url(#qR2oyGrrv4ywhMDUqeGhUa)" d="M44,10v5H4v-5c0-1.1,0.9-2,2-2h36C43.1,8,44,8.9,44,10z"/><path fill="#50e6ff" d="M4,38V14h40v24c0,1.1-0.9,2-2,2H6C4.9,40,4,39.1,4,38z"/><linearGradient id="qR2oyGrrv4ywhMDUqeGhUb" x1="24" x2="24" y1="17.979" y2="27.814" gradientUnits="userSpaceOnUse"><stop offset="0" stop-color="#0d61a9"/><stop offset="1" stop-color="#16528c"/></linearGradient><path fill="url(#qR2oyGrrv4ywhMDUqeGhUb)" d="M25,30h-2c-0.552,0-1-0.448-1-1V19c0-0.552,0.448-1,1-1h2c0.552,0,1,0.448,1,1v10	C26,29.552,25.552,30,25,30z"/><linearGradient id="qR2oyGrrv4ywhMDUqeGhUc" x1="15" x2="15" y1="18.106" y2="22.805" gradientUnits="userSpaceOnUse"><stop offset="0" stop-color="#0d61a9"/><stop offset="1" stop-color="#16528c"/></linearGradient><path fill="url(#qR2oyGrrv4ywhMDUqeGhUc)" d="M16,25h-2c-0.552,0-1-0.448-1-1v-5c0-0.552,0.448-1,1-1h2c0.552,0,1,0.448,1,1v5	C17,24.552,16.552,25,16,25z"/><linearGradient id="qR2oyGrrv4ywhMDUqeGhUd" x1="34" x2="34" y1="18.138" y2="20.956" gradientUnits="userSpaceOnUse"><stop offset="0" stop-color="#0d61a9"/><stop offset="1" stop-color="#16528c"/></linearGradient><path fill="url(#qR2oyGrrv4ywhMDUqeGhUd)" d="M35,22h-2c-0.552,0-1-0.448-1-1v-2c0-0.552,0.448-1,1-1h2c0.552,0,1,0.448,1,1v2	C36,21.552,35.552,22,35,22z"/><linearGradient id="qR2oyGrrv4ywhMDUqeGhUe" x1="15" x2="15" y1="23.053" y2="26.768" gradientUnits="userSpaceOnUse"><stop offset="0" stop-color="#2aa4f4"/><stop offset="1" stop-color="#007ad9"/></linearGradient><path fill="url(#qR2oyGrrv4ywhMDUqeGhUe)" d="M17.845,27h-5.691C11.517,27,11,26.483,11,25.845v-1.691C11,23.517,11.517,23,12.155,23h5.691	C18.483,23,19,23.517,19,24.155v1.691C19,26.483,18.483,27,17.845,27z"/><linearGradient id="qR2oyGrrv4ywhMDUqeGhUf" x1="34" x2="34" y1="21.138" y2="25.163" gradientUnits="userSpaceOnUse"><stop offset="0" stop-color="#2aa4f4"/><stop offset="1" stop-color="#007ad9"/></linearGradient><path fill="url(#qR2oyGrrv4ywhMDUqeGhUf)" d="M36.845,25h-5.691C30.517,25,30,24.483,30,23.845v-1.691C30,21.517,30.517,21,31.155,21h5.691	C37.483,21,38,21.517,38,22.155v1.691C38,24.483,37.483,25,36.845,25z"/><linearGradient id="qR2oyGrrv4ywhMDUqeGhUg" x1="15" x2="15" y1="26.66" y2="35.965" gradientUnits="userSpaceOnUse"><stop offset="0" stop-color="#2aa4f4"/><stop offset="1" stop-color="#007ad9"/></linearGradient><path fill="url(#qR2oyGrrv4ywhMDUqeGhUg)" d="M13,27v8c0,0.552,0.448,1,1,1h2c0.552,0,1-0.448,1-1v-8H13z"/><linearGradient id="qR2oyGrrv4ywhMDUqeGhUh" x1="24" x2="24" y1="30.202" y2="35.609" gradientUnits="userSpaceOnUse"><stop offset="0" stop-color="#2aa4f4"/><stop offset="1" stop-color="#007ad9"/></linearGradient><path fill="url(#qR2oyGrrv4ywhMDUqeGhUh)" d="M22,28v7c0,0.552,0.448,1,1,1h2c0.552,0,1-0.448,1-1v-7H22z"/><linearGradient id="qR2oyGrrv4ywhMDUqeGhUi" x1="34" x2="34" y1="24.872" y2="36.556" gradientUnits="userSpaceOnUse"><stop offset="0" stop-color="#2aa4f4"/><stop offset="1" stop-color="#007ad9"/></linearGradient><path fill="url(#qR2oyGrrv4ywhMDUqeGhUi)" d="M32,25v10c0,0.552,0.448,1,1,1h2c0.552,0,1-0.448,1-1V25H32z"/><linearGradient id="qR2oyGrrv4ywhMDUqeGhUj" x1="24" x2="24" y1="27.681" y2="32.267" gradientUnits="userSpaceOnUse"><stop offset="0" stop-color="#2aa4f4"/><stop offset="1" stop-color="#007ad9"/></linearGradient><path fill="url(#qR2oyGrrv4ywhMDUqeGhUj)" d="M26.845,32h-5.691C20.517,32,20,31.483,20,30.845v-1.691C20,28.517,20.517,28,21.155,28	h5.691C27.483,28,28,28.517,28,29.155v1.691C28,31.483,27.483,32,26.845,32z"/></svg>