<svg xmlns="http://www.w3.org/2000/svg"  viewBox="0 0 64 64" width="50px" height="50px"><radialGradient id="TU_Te0QqxQSsCZbxOvx_Qa" cx="-20.906" cy="-40.786" r="99.68" gradientUnits="userSpaceOnUse" spreadMethod="reflect"><stop offset="0" stop-color="#f4e9c3"/><stop offset=".219" stop-color="#f8eecd"/><stop offset=".644" stop-color="#fdf4dc"/><stop offset="1" stop-color="#fff6e1"/></radialGradient><path fill="url(#TU_Te0QqxQSsCZbxOvx_Qa)" d="M31,14H14h-4H5.131c-1.451,0-2.789,0.972-3.071,2.395C1.681,18.307,3.152,20,5,20h5v4 l-0.577,1H2c-1.1,0-2,0.9-2,2c0,1.1,0.9,2,2,2s2,0.9,2,2c0,1.1-0.9,2-2,2s-2,0.9-2,2c0,1.1,0.9,2,2,2h0.5h0.866H12h1v5H3.57 c-1.144,0.043-2.204,0.744-2.487,1.853C0.661,45.504,1.914,47,3.5,47H10h3.5L37,49L31,14z"/><radialGradient id="TU_Te0QqxQSsCZbxOvx_Qb" cx="52.175" cy="41.173" r="14.018" gradientUnits="userSpaceOnUse" spreadMethod="reflect"><stop offset="0" stop-color="#efdcb1"/><stop offset="0" stop-color="#efdcb1"/><stop offset=".092" stop-color="#f2e0b9"/><stop offset=".415" stop-color="#f9eccf"/><stop offset=".724" stop-color="#fdf4dc"/><stop offset="1" stop-color="#fff6e1"/></radialGradient><path fill="url(#TU_Te0QqxQSsCZbxOvx_Qb)" d="M57.5,49c-1.381,0-2.5,1.119-2.5,2.5c0,1.381,1.119,2.5,2.5,2.5s2.5-1.119,2.5-2.5 C60,50.119,58.881,49,57.5,49z"/><radialGradient id="TU_Te0QqxQSsCZbxOvx_Qc" cx="13.919" cy="-74.265" r="128.469" gradientUnits="userSpaceOnUse" spreadMethod="reflect"><stop offset="0" stop-color="#efdcb1"/><stop offset="0" stop-color="#efdcb1"/><stop offset=".092" stop-color="#f2e0b9"/><stop offset=".415" stop-color="#f9eccf"/><stop offset=".724" stop-color="#fdf4dc"/><stop offset="1" stop-color="#fff6e1"/></radialGradient><path fill="url(#TU_Te0QqxQSsCZbxOvx_Qc)" d="M54,20h7c1.65,0,3-1.35,3-3c0-1.65-1.35-3-3-3h-5.5c-1.375,0-2.5-1.125-2.5-2.5 S54.125,9,55.5,9h1C57.875,9,59,7.875,59,6.5S57.875,4,56.5,4H32v5v11h6v18h0v16h12.5c1.381,0,2.5-1.119,2.5-2.5S51.881,49,50.5,49 h0h-1c-1.375,0-2.5-1.125-2.5-2.5s1.125-2.5,2.5-2.5h10.33c1.625,0,3.081-1.217,3.166-2.839C62.999,41.107,63,41.053,63,41 c0-1.656-1.343-3-3-3h-4.893c-0.342,0-2.466,0-5.107,0c-1.65,0-3-1.35-3-3c0-1.65,1.35-3,3-3h5c1.65,0,3-1.35,3-3 c0-1.65-1.35-3-3-3h-1c-1.65,0-3-1.35-3-3C51,21.35,52.35,20,54,20z"/><linearGradient id="TU_Te0QqxQSsCZbxOvx_Qd" x1="23" x2="23" y1="3" y2="61" gradientUnits="userSpaceOnUse" spreadMethod="reflect"><stop offset="0" stop-color="#a4a4a4"/><stop offset=".619" stop-color="gray"/><stop offset="1" stop-color="#6f6f6f"/><stop offset="1" stop-color="#6f6f6f"/></linearGradient><path fill="url(#TU_Te0QqxQSsCZbxOvx_Qd)" d="M36,61H10c-2.761,0-5-2.239-5-5V8c0-2.761,2.239-5,5-5h26c2.761,0,5,2.239,5,5v48 C41,58.761,38.761,61,36,61z"/><linearGradient id="TU_Te0QqxQSsCZbxOvx_Qe" x1="23" x2="23" y1="10" y2="76.129" gradientUnits="userSpaceOnUse" spreadMethod="reflect"><stop offset="0" stop-color="#dff9ff"/><stop offset="0" stop-color="#dff9ff"/><stop offset=".173" stop-color="#d8f8ff"/><stop offset=".423" stop-color="#c5f4ff"/><stop offset=".72" stop-color="#a5eeff"/><stop offset="1" stop-color="#81e7ff"/></linearGradient><path fill="url(#TU_Te0QqxQSsCZbxOvx_Qe)" d="M35,51H11c-1.657,0-3-1.343-3-3V13c0-1.657,1.343-3,3-3h24c1.657,0,3,1.343,3,3v35 C38,49.657,36.657,51,35,51z"/><path fill="#bcbcbc" d="M28,8H18c-0.552,0-1-0.448-1-1v0c0-0.552,0.448-1,1-1h10c0.552,0,1,0.448,1,1v0 C29,7.552,28.552,8,28,8z"/><path fill="#9e9e9e" d="M23 53A3 3 0 1 0 23 59A3 3 0 1 0 23 53Z"/><linearGradient id="TU_Te0QqxQSsCZbxOvx_Qf" x1="31" x2="31" y1="50.958" y2="35.958" gradientUnits="userSpaceOnUse" spreadMethod="reflect"><stop offset="0" stop-color="#89e4fa"/><stop offset=".406" stop-color="#94e8fc"/><stop offset="1" stop-color="#acf0ff"/></linearGradient><path fill="url(#TU_Te0QqxQSsCZbxOvx_Qf)" d="M28,38.5L28,38.5c0,1.381,1.119,2.5,2.5,2.5h0c1.381,0,2.5,1.119,2.5,2.5v0 c0,1.381-1.119,2.5-2.5,2.5h-4c-1.381,0-2.5,1.119-2.5,2.5v0c0,1.381,1.119,2.5,2.5,2.5H35c1.657,0,3-1.343,3-3v-2v-5v-5h-7.5 C29.119,36,28,37.119,28,38.5z"/><linearGradient id="TU_Te0QqxQSsCZbxOvx_Qg" x1="28.5" x2="28.5" y1="24" y2="19" gradientUnits="userSpaceOnUse" spreadMethod="reflect"><stop offset="0" stop-color="#ecf9fd"/><stop offset=".848" stop-color="#f2fdff"/><stop offset="1" stop-color="#f4feff"/></linearGradient><path fill="url(#TU_Te0QqxQSsCZbxOvx_Qg)" d="M26,21.5L26,21.5c0,1.381,1.119,2.5,2.5,2.5h0c1.381,0,2.5-1.119,2.5-2.5v0 c0-1.381-1.119-2.5-2.5-2.5h0C27.119,19,26,20.119,26,21.5z"/><linearGradient id="TU_Te0QqxQSsCZbxOvx_Qh" x1="18" x2="18" y1="43" y2="10" gradientUnits="userSpaceOnUse" spreadMethod="reflect"><stop offset="0" stop-color="#ecf9fd"/><stop offset=".848" stop-color="#f2fdff"/><stop offset="1" stop-color="#f4feff"/></linearGradient><path fill="url(#TU_Te0QqxQSsCZbxOvx_Qh)" d="M19.5,24h1c1.381,0,2.5-1.119,2.5-2.5v0c0-1.381-1.119-2.5-2.5-2.5H17c-1.105,0-2-0.895-2-2 v0c0-1.105,0.895-2,2-2h8.5c1.381,0,2.5-1.119,2.5-2.5v0c0-1.381-1.119-2.5-2.5-2.5H11c-1.657,0-3,1.343-3,3v30h9.5 c1.381,0,2.5-1.119,2.5-2.5v0c0-1.381-1.119-2.5-2.5-2.5H17c-1.105,0-2-0.895-2-2v0c0-1.105,0.895-2,2-2h5.5 c1.381,0,2.5-1.119,2.5-2.5v0c0-1.381-1.119-2.5-2.5-2.5h-3c-1.381,0-2.5-1.119-2.5-2.5v0C17,25.119,18.119,24,19.5,24z"/><path fill="#bcbcbc" d="M41,45V12h-3.184C37.928,12.314,38,12.647,38,13v32H41z"/><linearGradient id="TU_Te0QqxQSsCZbxOvx_Qi" x1="45" x2="45" y1="47" y2="16" gradientUnits="userSpaceOnUse" spreadMethod="reflect"><stop offset="0" stop-color="#ff9757"/><stop offset="1" stop-color="#ffb65b"/></linearGradient><path fill="url(#TU_Te0QqxQSsCZbxOvx_Qi)" d="M59,16H31c-1.657,0-3,1.343-3,3v18.7v7.653C28,46.262,28.738,47,29.647,47h0 c0.523,0,1.015-0.249,1.325-0.671l3.154-4.145C34.694,41.438,35.577,41,36.514,41H59c1.657,0,3-1.343,3-3V19 C62,17.343,60.657,16,59,16z"/><g><path fill="#fff" d="M48,30h-6c-0.552,0-1-0.448-1-1v0c0-0.552,0.448-1,1-1h6c0.552,0,1,0.448,1,1v0 C49,29.552,48.552,30,48,30z"/><path fill="#fff" d="M43.819,25.427l4,6c0.317,0.452,0.207,1.076-0.246,1.393v0c-0.452,0.317-1.076,0.207-1.393-0.246 l-4-6c-0.317-0.452-0.207-1.076,0.246-1.393v0C42.879,24.864,43.502,24.974,43.819,25.427z"/><path fill="#fff" d="M46.181,25.427l-4,6c-0.317,0.452-0.207,1.076,0.246,1.393l0,0 c0.452,0.317,1.076,0.207,1.393-0.246l4-6c0.317-0.452,0.207-1.076-0.246-1.393l0,0C47.121,24.864,46.498,24.974,46.181,25.427z"/></g><g><path fill="#fff" d="M58,30h-6c-0.552,0-1-0.448-1-1v0c0-0.552,0.448-1,1-1h6c0.552,0,1,0.448,1,1v0 C59,29.552,58.552,30,58,30z"/><path fill="#fff" d="M53.819,25.427l4,6c0.317,0.452,0.207,1.076-0.246,1.393v0c-0.452,0.317-1.076,0.207-1.393-0.246 l-4-6c-0.317-0.452-0.207-1.076,0.246-1.393v0C52.879,24.864,53.502,24.974,53.819,25.427z"/><path fill="#fff" d="M56.181,25.427l-4,6c-0.317,0.452-0.207,1.076,0.246,1.393l0,0 c0.452,0.317,1.076,0.207,1.393-0.246l4-6c0.317-0.452,0.207-1.076-0.246-1.393l0,0C57.121,24.864,56.498,24.974,56.181,25.427z"/></g><g><path fill="#fff" d="M38,30h-6c-0.552,0-1-0.448-1-1v0c0-0.552,0.448-1,1-1h6c0.552,0,1,0.448,1,1v0 C39,29.552,38.552,30,38,30z"/><path fill="#fff" d="M33.819,25.427l4,6c0.317,0.452,0.207,1.076-0.246,1.393v0c-0.452,0.317-1.076,0.207-1.393-0.246 l-4-6c-0.317-0.452-0.207-1.076,0.246-1.393v0C32.879,24.864,33.502,24.974,33.819,25.427z"/><path fill="#fff" d="M36.181,25.427l-4,6c-0.317,0.452-0.207,1.076,0.246,1.393l0,0 c0.452,0.317,1.076,0.207,1.393-0.246l4-6c0.317-0.452,0.207-1.076-0.246-1.393l0,0C37.121,24.864,36.498,24.974,36.181,25.427z"/></g></svg>