<svg xmlns="http://www.w3.org/2000/svg"  viewBox="0 0 64 64" width="50px" height="50px"><radialGradient id="q~IqvUCzUuZjopLOa7r2ca" cx="32" cy="31.5" r="31.751" gradientUnits="userSpaceOnUse" spreadMethod="reflect"><stop offset="0" stop-color="#c5f1ff"/><stop offset=".35" stop-color="#cdf3ff"/><stop offset=".907" stop-color="#e4faff"/><stop offset="1" stop-color="#e9fbff"/></radialGradient><path fill="url(#q~IqvUCzUuZjopLOa7r2ca)" d="M60.5,32c2.168,0,3.892-1.998,3.422-4.243C63.58,26.122,62.056,25,60.385,25L43,25v-7 l14.386,0c1.67,0,3.195-1.122,3.537-2.757C61.392,12.997,59.668,11,57.5,11H46c-1.105,0-2-0.895-2-2v0c0-1.105,0.895-2,2-2l4.385,0 c1.67,0,3.195-1.122,3.537-2.757C54.392,1.998,52.668,0,50.5,0L10.615,0C8.944,0,7.42,1.122,7.078,2.757C6.608,5.002,8.332,7,10.5,7 H13c1.105,0,2,0.895,2,2v0c0,1.105-0.895,2-2,2l-6.385,0c-1.67,0-3.195,1.122-3.537,2.757C2.608,16.002,4.332,18,6.5,18H22l0,15 L3.614,33c-1.67,0-3.195,1.122-3.537,2.757C-0.392,38.002,1.332,40,3.5,40H4c1.105,0,2,0.895,2,2v0c0,1.105-0.895,2-2,2H3.615 c-1.67,0-3.195,1.122-3.537,2.757C-0.392,49.002,1.332,51,3.5,51h21.115C25.932,51,27,52.068,27,53.385v0.229 C27,54.932,25.932,56,24.615,56l-5,0c-1.67,0-3.195,1.122-3.537,2.757C15.608,61.002,17.332,63,19.5,63l38.885,0 c1.67,0,3.195-1.122,3.537-2.757C62.392,57.998,60.668,56,58.5,56h-3.115C54.068,56,53,54.932,53,53.615v-0.229 C53,52.068,54.068,51,55.385,51h0c1.67,0,3.195-1.122,3.537-2.757C59.392,45.998,57.668,44,55.5,44H43l0-12H60.5z"/><linearGradient id="q~IqvUCzUuZjopLOa7r2cb" x1="32" x2="32" y1="63.167" y2="13.167" gradientUnits="userSpaceOnUse" spreadMethod="reflect"><stop offset="0" stop-color="#155cde"/><stop offset=".278" stop-color="#1f7fe5"/><stop offset=".569" stop-color="#279ceb"/><stop offset=".82" stop-color="#2cafef"/><stop offset="1" stop-color="#2eb5f0"/></linearGradient><path fill="url(#q~IqvUCzUuZjopLOa7r2cb)" d="M52,9H12c-2.761,0-5,2.239-5,5v30v12.35C7,57.814,8.186,59,9.65,59h0.007 c0.844,0,1.638-0.402,2.137-1.083l5.041-6.874C17.777,49.759,19.274,49,20.867,49H52c2.761,0,5-2.239,5-5V14 C57,11.239,54.761,9,52,9z"/><path fill="#fff" d="M26.152,25.843L26.152,25.843c0.363-0.745,1.261-1.054,2.006-0.691l7.999,3.999 c0.745,0.363,1.054,1.261,0.691,2.006v0c-0.363,0.745-1.261,1.054-2.006,0.691l-7.999-3.999 C26.098,27.485,25.789,26.587,26.152,25.843z"/><path fill="#fff" d="M36.848,25.843L36.848,25.843c-0.363-0.745-1.261-1.054-2.006-0.691l-7.999,3.999 c-0.745,0.363-1.054,1.261-0.691,2.006v0c0.363,0.745,1.261,1.054,2.006,0.691l7.999-3.999 C36.902,27.485,37.211,26.587,36.848,25.843z"/><path fill="#fff" d="M31.5,34L31.5,34c-0.825,0-1.5-0.675-1.5-1.5v-8c0-0.825,0.675-1.5,1.5-1.5h0 c0.825,0,1.5,0.675,1.5,1.5v8C33,33.325,32.325,34,31.5,34z"/><g><path fill="#fff" d="M39.152,25.843L39.152,25.843c0.363-0.745,1.261-1.054,2.006-0.691l7.999,3.999 c0.745,0.363,1.054,1.261,0.691,2.006v0c-0.363,0.745-1.261,1.054-2.006,0.691l-7.999-3.999 C39.098,27.485,38.789,26.587,39.152,25.843z"/><path fill="#fff" d="M49.848,25.843L49.848,25.843c-0.363-0.745-1.261-1.054-2.006-0.691l-7.999,3.999 c-0.745,0.363-1.054,1.261-0.691,2.006v0c0.363,0.745,1.261,1.054,2.006,0.691l7.999-3.999 C49.902,27.485,50.211,26.587,49.848,25.843z"/><path fill="#fff" d="M44.5,34L44.5,34c-0.825,0-1.5-0.675-1.5-1.5v-8c0-0.825,0.675-1.5,1.5-1.5l0,0 c0.825,0,1.5,0.675,1.5,1.5v8C46,33.325,45.325,34,44.5,34z"/></g><g><path fill="#fff" d="M13.152,25.843L13.152,25.843c0.363-0.745,1.261-1.054,2.006-0.691l7.999,3.999 c0.745,0.363,1.054,1.261,0.691,2.006v0c-0.363,0.745-1.261,1.054-2.006,0.691l-7.999-3.999 C13.098,27.485,12.789,26.587,13.152,25.843z"/><path fill="#fff" d="M23.848,25.843L23.848,25.843c-0.363-0.745-1.261-1.054-2.006-0.691l-7.999,3.999 c-0.745,0.363-1.054,1.261-0.691,2.006l0,0c0.363,0.745,1.261,1.054,2.006,0.691l7.999-3.999 C23.902,27.485,24.211,26.587,23.848,25.843z"/><path fill="#fff" d="M18.5,34L18.5,34c-0.825,0-1.5-0.675-1.5-1.5v-8c0-0.825,0.675-1.5,1.5-1.5h0 c0.825,0,1.5,0.675,1.5,1.5v8C20,33.325,19.325,34,18.5,34z"/></g></svg>