<svg xmlns="http://www.w3.org/2000/svg"  viewBox="0 0 48 48" width="50px" height="50px"><linearGradient id="Gw1YPPt1BDyOfNPjb~UgHa" x1="-1857.798" x2="-1882.051" y1="247.206" y2="206.302" gradientTransform="rotate(180 -922 127)" gradientUnits="userSpaceOnUse"><stop offset="0" stop-color="#33bef0"/><stop offset="1" stop-color="#0a85d9"/></linearGradient><path fill="url(#Gw1YPPt1BDyOfNPjb~UgHa)" d="M24,4c11.046,0,20,8.954,20,20c0,3.637-0.986,7.037-2.682,9.975l4.564,10.384	c0.506,1.151-0.711,2.3-1.831,1.73l-9.754-4.967C31.286,42.937,27.771,44,24,44C12.954,44,4,35.046,4,24S12.954,4,24,4z"/><path d="M13.523,21C12.684,21,12,20.327,12,19.5v-1c0-0.827,0.684-1.5,1.523-1.5h20.953	C35.316,17,36,17.673,36,18.5v1c0,0.827-0.684,1.5-1.523,1.5H13.523z" opacity=".05"/><path d="M13.523,20.5c-0.564,0-1.023-0.449-1.023-1v-1c0-0.551,0.459-1,1.023-1h20.953	c0.564,0,1.023,0.449,1.023,1v1c0,0.551-0.459,1-1.023,1H13.523z" opacity=".07"/><path fill="#fff" d="M35,18.5v1c0,0.276-0.235,0.5-0.524,0.5H13.524C13.235,20,13,19.776,13,19.5v-1	c0-0.276,0.235-0.5,0.524-0.5h20.952C34.765,18,35,18.224,35,18.5z"/><path d="M13.523,31C12.684,31,12,30.327,12,29.5v-1c0-0.827,0.684-1.5,1.523-1.5h20.953	C35.316,27,36,27.673,36,28.5v1c0,0.827-0.684,1.5-1.523,1.5H13.523z" opacity=".05"/><path d="M13.523,30.5c-0.564,0-1.023-0.449-1.023-1v-1c0-0.551,0.459-1,1.023-1h20.953	c0.564,0,1.023,0.449,1.023,1v1c0,0.551-0.459,1-1.023,1H13.523z" opacity=".07"/><path fill="#fff" d="M35,28.5v1c0,0.276-0.235,0.5-0.524,0.5H13.524C13.235,30,13,29.776,13,29.5v-1	c0-0.276,0.235-0.5,0.524-0.5h20.952C34.765,28,35,28.224,35,28.5z"/><path d="M13.526,26C12.685,26,12,25.327,12,24.5v-1c0-0.827,0.685-1.5,1.526-1.5h18.947	C33.315,22,34,22.673,34,23.5v1c0,0.827-0.685,1.5-1.526,1.5H13.526z" opacity=".05"/><path d="M13.526,25.5c-0.566,0-1.026-0.449-1.026-1v-1c0-0.551,0.46-1,1.026-1h18.947	c0.566,0,1.026,0.449,1.026,1v1c0,0.551-0.46,1-1.026,1H13.526z" opacity=".07"/><path fill="#fff" d="M33,23.5v1c0,0.276-0.236,0.5-0.526,0.5H13.526C13.236,25,13,24.776,13,24.5v-1	c0-0.276,0.236-0.5,0.526-0.5h18.947C32.764,23,33,23.224,33,23.5z"/></svg>