<svg xmlns="http://www.w3.org/2000/svg"  viewBox="0 0 64 64" width="50px" height="50px"><radialGradient id="Q5DZW9p4k1739VXxXLhtUa" cx="31.766" cy="567.553" r="35.923" gradientTransform="translate(0 -534)" gradientUnits="userSpaceOnUse"><stop offset="0" stop-color="#afeeff"/><stop offset=".193" stop-color="#bbf1ff"/><stop offset=".703" stop-color="#d7f8ff"/><stop offset="1" stop-color="#e1faff"/></radialGradient><path fill="url(#Q5DZW9p4k1739VXxXLhtUa)" d="M62.98,58.41C62.77,60.49,60.9,62,58.81,62H4c-2.34,0-4.22-2.03-3.98-4.41	C0.23,55.51,2.1,54,4.19,54H5c1.11,0,2-0.9,2-2c0-0.55-0.22-1.05-0.58-1.41C6.06,50.22,5.56,50,5,50c-1.65,0-3-1.35-3-3s1.35-3,3-3	h17V32H5c-2.34,0-4.22-2.03-3.98-4.41C1.23,25.51,3.1,24,5.19,24H8.5c1.93,0,3.5-1.57,3.5-3.5S10.43,17,8.5,17h-2	c-2.4,0-4.36-1.87-4.49-4.24C2,12.67,2,12.59,2,12.5c0-1.24,0.5-2.37,1.32-3.18C4.13,8.5,5.26,8,6.5,8h13.23	c0-0.01,0.01-0.01,0.01-0.02C20.46,7.86,21,7.25,21,6.5C21,5.67,20.33,5,19.5,5h-4c-1.47,0-2.64-1.26-2.49-2.76	C13.14,0.94,14.34,0,15.64,0H48.5c1.47,0,2.64,1.26,2.49,2.76C50.86,4.06,49.66,5,48.36,5H45.5C44.67,5,44,5.67,44,6.5	S44.67,8,45.5,8h14c1.47,0,2.64,1.26,2.49,2.76c-0.13,1.3-1.33,2.24-2.63,2.24H59c-1.1,0-2,0.9-2,2s0.9,2,2,2h0.81	c2.09,0,3.96,1.51,4.17,3.59C64.22,22.97,62.33,25,60,25H42v7h17c1.65,0,3,1.35,3,3s-1.35,3-3,3h-9c-1.38,0-2.5,1.12-2.5,2.5	S48.62,43,50,43h10.5c1.92,0,3.5,1.58,3.5,3.5S62.42,50,60.5,50H59c-1.1,0-2,0.9-2,2s0.9,2,2,2C61.33,54,63.22,56.03,62.98,58.41z"/><linearGradient id="Q5DZW9p4k1739VXxXLhtUb" x1="32" x2="32" y1="590" y2="514.17" gradientTransform="translate(0 -534)" gradientUnits="userSpaceOnUse"><stop offset="0" stop-color="#feaa53"/><stop offset=".612" stop-color="#ffcd49"/><stop offset="1" stop-color="#ffde44"/></linearGradient><path fill="url(#Q5DZW9p4k1739VXxXLhtUb)" d="M55,20v26c0,5.5-4.5,10-10,10H19c-5.5,0-10-4.5-10-10V20c0-5.5,4.5-10,10-10h26	C50.5,10,55,14.5,55,20z"/><path fill="#fff" d="M54.536,49c0.203-0.642,0.344-1.311,0.413-2H19c-0.553,0-1,0.448-1,1s0.447,1,1,1H54.536z"/><path fill="#fff" d="M20.446,41.86l-1.352,2.288c-0.291,0.492,0.265,1.048,0.757,0.757l2.288-1.352L20.446,41.86z"/><path fill="#fff" d="M43.621,23.207l0.78-0.78l2.013-2.013c0.781-0.781,0.781-2.047,0-2.828 c-0.781-0.781-2.047-0.781-2.828,0l-2.136,2.136l-0.657,0.657L43.621,23.207z"/><polygon fill="#fff" points="39.379,21.793 22.086,39.086 21.497,40.083 23.917,42.503 24.914,41.914 42.207,24.621"/></svg>