<svg xmlns="http://www.w3.org/2000/svg"  viewBox="0 0 64 64" width="50px" height="50px"><radialGradient id="Kwvs0yu1B6nyWjax1eaXJa" cx="32" cy="31.5" r="31.751" gradientUnits="userSpaceOnUse" spreadMethod="reflect"><stop offset="0" stop-color="#c5f1ff"/><stop offset=".35" stop-color="#cdf3ff"/><stop offset=".907" stop-color="#e4faff"/><stop offset="1" stop-color="#e9fbff"/></radialGradient><path fill="url(#Kwvs0yu1B6nyWjax1eaXJa)" d="M60.5,32c2.168,0,3.892-1.998,3.422-4.243C63.58,26.122,62.056,25,60.385,25L43,25v-7 l14.386,0c1.67,0,3.195-1.122,3.537-2.757C61.392,12.997,59.668,11,57.5,11H46c-1.105,0-2-0.895-2-2v0c0-1.105,0.895-2,2-2l4.385,0 c1.67,0,3.195-1.122,3.537-2.757C54.392,1.998,52.668,0,50.5,0L10.615,0C8.944,0,7.42,1.122,7.078,2.757C6.608,5.002,8.332,7,10.5,7 H13c1.105,0,2,0.895,2,2v0c0,1.105-0.895,2-2,2l-6.385,0c-1.67,0-3.195,1.122-3.537,2.757C2.608,16.002,4.332,18,6.5,18H22l0,15 L3.614,33c-1.67,0-3.195,1.122-3.537,2.757C-0.392,38.002,1.332,40,3.5,40H4c1.105,0,2,0.895,2,2v0c0,1.105-0.895,2-2,2H3.615 c-1.67,0-3.195,1.122-3.537,2.757C-0.392,49.002,1.332,51,3.5,51h21.115C25.932,51,27,52.068,27,53.385v0.229 C27,54.932,25.932,56,24.615,56l-5,0c-1.67,0-3.195,1.122-3.537,2.757C15.608,61.002,17.332,63,19.5,63L54,63 c1.67,0,3.195-1.122,3.537-2.757C58.006,57.998,60.668,56,58.5,56h-3.115C54.068,56,53,54.932,53,53.615v-0.229 C53,52.068,54.068,51,55.385,51h0c1.67,0,3.195-1.122,3.537-2.757C59.392,45.998,57.668,44,55.5,44H43l0-12H60.5z"/><linearGradient id="Kwvs0yu1B6nyWjax1eaXJb" x1="32" x2="32" y1="66.567" y2="16.567" gradientUnits="userSpaceOnUse" spreadMethod="reflect"><stop offset="0" stop-color="#155cde"/><stop offset=".278" stop-color="#1f7fe5"/><stop offset=".569" stop-color="#279ceb"/><stop offset=".82" stop-color="#2cafef"/><stop offset="1" stop-color="#2eb5f0"/></linearGradient><path fill="url(#Kwvs0yu1B6nyWjax1eaXJb)" d="M52,9H12c-2.761,0-5,2.239-5,5v30v12.35C7,57.814,8.186,59,9.65,59h0.007 c0.844,0,1.638-0.402,2.137-1.083l5.041-6.874C17.777,49.759,19.274,49,20.867,49H52c2.761,0,5-2.239,5-5V14 C57,11.239,54.761,9,52,9z"/><linearGradient id="Kwvs0yu1B6nyWjax1eaXJc" x1="45" x2="45" y1="49" y2="36" gradientUnits="userSpaceOnUse" spreadMethod="reflect"><stop offset="0" stop-color="#31a0e9"/><stop offset="1" stop-color="#52bef4"/></linearGradient><path fill="url(#Kwvs0yu1B6nyWjax1eaXJc)" d="M57,36H38c-1.105,0-2,0.895-2,2v0c0,1.105,0.895,2,2,2h2c1.105,0,2,0.895,2,2v0 c0,1.105-0.895,2-2,2h-4.5c-1.381,0-2.5,1.119-2.5,2.5v0c0,1.381,1.119,2.5,2.5,2.5H57V36z"/><linearGradient id="Kwvs0yu1B6nyWjax1eaXJd" x1="52" x2="52" y1="64" y2="40" gradientUnits="userSpaceOnUse" spreadMethod="reflect"><stop offset="0" stop-color="#ff5840"/><stop offset=".007" stop-color="#ff5840"/><stop offset=".989" stop-color="#fa528c"/><stop offset="1" stop-color="#fa528c"/></linearGradient><path fill="url(#Kwvs0yu1B6nyWjax1eaXJd)" d="M52 40A12 12 0 1 0 52 64A12 12 0 1 0 52 40Z"/><path fill="#fff" d="M57.417,49.412l-8.005,8.005c-0.778,0.778-2.051,0.778-2.828,0l0,0c-0.778-0.778-0.778-2.051,0-2.828 l8.005-8.005c0.778-0.778,2.051-0.778,2.828,0l0,0C58.194,47.361,58.194,48.634,57.417,49.412z"/><path fill="#fff" d="M46.583,49.412l8.005,8.005c0.778,0.778,2.051,0.778,2.828,0l0,0c0.778-0.778,0.778-2.051,0-2.828 l-8.005-8.005c-0.778-0.778-2.051-0.778-2.828,0l0,0C45.806,47.361,45.806,48.634,46.583,49.412z"/><path fill="#f1fcff" d="M37 39H19c-1.105 0-2-.895-2-2v0c0-1.105.895-2 2-2h18c1.105 0 2 .895 2 2v0C39 38.105 38.105 39 37 39zM36 27h9c1.105 0 2 .895 2 2v0c0 1.105-.895 2-2 2h-9c-1.105 0-2-.895-2-2v0C34 27.895 34.895 27 36 27zM19 27h10c1.105 0 2 .895 2 2v0c0 1.105-.895 2-2 2H19c-1.105 0-2-.895-2-2v0C17 27.895 17.895 27 19 27zM19 19h17c1.105 0 2 .895 2 2v0c0 1.105-.895 2-2 2H19c-1.105 0-2-.895-2-2v0C17 19.895 17.895 19 19 19zM43 19h2c1.105 0 2 .895 2 2v0c0 1.105-.895 2-2 2h-2c-1.105 0-2-.895-2-2v0C41 19.895 41.895 19 43 19z"/></svg>