<svg xmlns="http://www.w3.org/2000/svg"  viewBox="0 0 64 64" width="50px" height="50px"><radialGradient id="hjoO3Mp1z9i_0IplRR9gUa" cx="32.5" cy="32" r="31.751" gradientUnits="userSpaceOnUse" spreadMethod="reflect"><stop offset="0" stop-color="#afeeff"/><stop offset=".193" stop-color="#bbf1ff"/><stop offset=".703" stop-color="#d7f8ff"/><stop offset="1" stop-color="#e1faff"/></radialGradient><path fill="url(#hjoO3Mp1z9i_0IplRR9gUa)" d="M61.501,18.008H56c-1.1,0-2-0.9-2-2c0-1.1,0.9-2,2-2h2.411c1.85,0,3.32-1.69,2.94-3.6 c-0.28-1.43-1.62-2.4-3.07-2.4L45.5,8C44.67,8,44,7.33,44,6.5C44,5.67,44.67,5,45.5,5h5.91c1.14,0,2.2-0.72,2.5-1.82 C54.36,1.52,53.1,0,51.5,0H7.59c-1.14,0-2.2,0.72-2.5,1.82C4.64,3.48,5.9,5,7.5,5h3c0.69,0,1.32,0.28,1.77,0.73 C12.72,6.18,13,6.81,13,7.5c0,1.38-1.12,2.5-2.5,2.5H4c-1.65,0-3,1.35-3,3c0,1.65,1.35,3,3,3h21c0.35,0,0.69-0.07,1-0.19V23H13v9 h4.5c1.38,0,2.5,1.12,2.5,2.5c0,0.69-0.28,1.32-0.73,1.77C18.82,36.72,18.19,37,17.5,37h-8C8.12,37,7,38.12,7,39.5S8.12,42,9.5,42h4 c1.209,0,2.218,0.859,2.45,2H5.5C3.025,44,1,46.025,1,48.5C1,50.975,3.025,53,5.5,53h19c1.38,0,2.5,1.12,2.5,2.5S25.88,58,24.5,58 H19c-1.66,0-3,1.34-3,3c0,1.66,1.34,3,3,3h40c1.66,0,3-1.34,3-3c0-1.66-1.34-3-3-3h-5.5c-1.38,0-2.5-1.12-2.5-2.5s1.12-2.5,2.5-2.5 h4c2.475,0,4.5-2.025,4.5-4.5c0-2.475-2.025-4.5-4.5-4.5H47.437c0.314-1.587-0.896-3-2.437-3c-0.83,0,1-0.67,1-1.5 c0-0.83,0.67-1.5,1.5-1.5h2.91c1.14,0,2.2-0.72,2.5-1.82C53.36,34.52,52.1,32,50.5,32H50c-1.1,0-2-5.9-2-7c0-1.1,0.9-2,2-2 l11.411,0.008c1.14,0,2.2-0.72,2.5-1.82C64.351,19.527,63.091,18.008,61.501,18.008z"/><linearGradient id="hjoO3Mp1z9i_0IplRR9gUb" x1="32" x2="32" y1="52" y2="13" gradientUnits="userSpaceOnUse" spreadMethod="reflect"><stop offset="0" stop-color="#ff634d"/><stop offset=".204" stop-color="#fe6464"/><stop offset=".521" stop-color="#fc6581"/><stop offset=".794" stop-color="#fa6694"/><stop offset=".989" stop-color="#fa669a"/><stop offset="1" stop-color="#fa669a"/></linearGradient><path fill="url(#hjoO3Mp1z9i_0IplRR9gUb)" d="M56.833,45.37c-0.519,2.73-2.723,4.81-5.446,5.2C47.107,51.22,39.975,52,31.935,52 c-7.91,0-15.042-0.78-19.451-1.43c-2.723-0.39-4.928-2.47-5.446-5.2C6.519,42.38,6,37.96,6,32.5s0.519-9.88,1.037-12.87 c0.519-2.73,2.723-4.81,5.446-5.2C16.763,13.78,23.895,13,31.935,13s15.042,0.78,19.451,1.43c2.723,0.39,4.928,2.47,5.446,5.2 C57.352,22.62,58,27.04,58,32.5C57.87,37.96,57.352,42.38,56.833,45.37z"/><path fill="#fff" d="M26 42L26 23 42 32.5z"/><linearGradient id="hjoO3Mp1z9i_0IplRR9gUc" x1="16.003" x2="16.003" y1="47.816" y2="14.269" gradientUnits="userSpaceOnUse" spreadMethod="reflect"><stop offset="0" stop-color="#ff735d"/><stop offset=".139" stop-color="#fe746b"/><stop offset=".492" stop-color="#fc758a"/><stop offset=".791" stop-color="#fa769d"/><stop offset="1" stop-color="#fa76a4"/></linearGradient><path fill="url(#hjoO3Mp1z9i_0IplRR9gUc)" d="M7.037,19.63C6.535,22.526,6.037,26.774,6.006,32H16c1.657,0,3-1.343,3-3s-1.343-3-3-3h-0.5 c-1.381,0-2.5-1.119-2.5-2.5c0-1.381,1.119-2.5,2.5-2.5H22c2.2,0,4-1.8,4-4c0-1.695-1.072-3.142-2.568-3.722 c-4.452,0.285-8.262,0.744-10.948,1.152C9.761,14.82,7.556,16.9,7.037,19.63z"/><linearGradient id="hjoO3Mp1z9i_0IplRR9gUd" x1="48.193" x2="50.159" y1="54.306" y2="23.31" gradientUnits="userSpaceOnUse" spreadMethod="reflect"><stop offset="0" stop-color="#ff5840"/><stop offset=".007" stop-color="#ff5840"/><stop offset=".989" stop-color="#fa528c"/><stop offset="1" stop-color="#fa528c"/></linearGradient><path fill="url(#hjoO3Mp1z9i_0IplRR9gUd)" d="M45.5,37c-1.381,0-2.5,1.119-2.5,2.5c0,1.381,1.119,2.5,2.5,2.5h1c1.381,0,2.5,1.119,2.5,2.5 c0,1.381-1.119,2.5-2.5,2.5h-4c-1.381,0-2.5,1.119-2.5,2.5c0,0.932,0.516,1.735,1.272,2.165c4.092-0.287,7.599-0.713,10.115-1.095 c2.723-0.39,4.928-2.47,5.446-5.2c0.367-2.116,0.731-4.96,0.961-8.37H45.5z"/></svg>