<svg xmlns="http://www.w3.org/2000/svg"  viewBox="0 0 64 64" width="50px" height="50px"><radialGradient id="JJh10UMdl1OFPsBBRghYma" cx="31.5" cy="34" r="36.216" gradientTransform="matrix(1 0 0 -1 0 66)" gradientUnits="userSpaceOnUse"><stop offset="0" stop-color="#9ceeff"/><stop offset=".642" stop-color="#c5f5ff"/><stop offset="1" stop-color="#dcf9ff"/></radialGradient><path fill="url(#JJh10UMdl1OFPsBBRghYma)" d="M54.943,53.594C54.67,55.019,53.34,56,51.889,56H39.5c-0.828,0-1.5,0.672-1.5,1.5l0,0	c0,0.828,0.672,1.5,1.5,1.5h1c1.466,0,2.637,1.261,2.487,2.758C42.857,63.059,41.665,64,40.358,64H12.5	c-1.466,0-2.637-1.261-2.487-2.758C10.143,59.941,11.335,59,12.642,59H14.5c0.828,0,1.5-0.672,1.5-1.5l0,0	c0-0.828-0.672-1.5-1.5-1.5H4c-1.851,0-3.311-1.677-2.943-3.594C1.33,50.981,2.66,50,4.111,50H52	C53.851,50,55.311,51.677,54.943,53.594z M58.889,8H49.5C48.672,8,48,7.328,48,6.5l0,0C48,5.672,48.672,5,49.5,5h1.858	c1.308,0,2.499-0.941,2.629-2.242C54.137,1.261,52.966,0,51.5,0H24.642c-1.308,0-2.499,0.941-2.629,2.242	C21.863,3.739,23.034,5,24.5,5h2C27.328,5,28,5.672,28,6.5l0,0C28,7.328,27.328,8,26.5,8H13.111c-1.451,0-2.781,0.981-3.054,2.406	C9.689,12.323,11.149,14,13,14h46c1.851,0,3.311-1.677,2.943-3.594C61.67,8.981,60.34,8,58.889,8z M53,61.5L53,61.5	c0-1.381-1.119-2.5-2.5-2.5l0,0c-1.381,0-2.5,1.119-2.5,2.5l0,0c0,1.381,1.119,2.5,2.5,2.5l0,0C51.881,64,53,62.881,53,61.5z M19,2.5L19,2.5C19,1.119,17.881,0,16.5,0l0,0C15.119,0,14,1.119,14,2.5l0,0C14,3.881,15.119,5,16.5,5l0,0C17.881,5,19,3.881,19,2.5	z"/><path fill="#fff" d="M55,52H9c-2.761,0-5-2.239-5-5V17c0-2.761,2.239-5,5-5h46c2.761,0,5,2.239,5,5v30	C60,49.761,57.761,52,55,52z"/><linearGradient id="JJh10UMdl1OFPsBBRghYmb" x1="-856.378" x2="-855.378" y1="5537.149" y2="5537.149" gradientTransform="rotate(-90 -121579.313 89060.516) scale(38.0454)" gradientUnits="userSpaceOnUse"><stop offset="0" stop-color="#f4f5f6"/><stop offset="1" stop-color="#f5f6f7"/></linearGradient><polyline fill="url(#JJh10UMdl1OFPsBBRghYmb)" points="11,21.12 10,37.388 11,52 36.465,33 11,21.12"/><linearGradient id="JJh10UMdl1OFPsBBRghYmc" x1="-856.379" x2="-855.375" y1="5497.047" y2="5497.047" gradientTransform="matrix(0 -38.0454 -38.0454 0 209169.828 -32518.797)" gradientUnits="userSpaceOnUse"><stop offset="0" stop-color="#f4f5f6"/><stop offset="1" stop-color="#f5f6f7"/></linearGradient><polyline fill="url(#JJh10UMdl1OFPsBBRghYmc)" points="53,21.12 54,37.388 53,52 40,52 11,21 20.135,21.026 32,30 44.773,21.096 53,21.12"/><linearGradient id="JJh10UMdl1OFPsBBRghYmd" x1="2.663" x2="33.798" y1="35.765" y2="35.765" gradientTransform="matrix(1 0 0 -1 0 66)" gradientUnits="userSpaceOnUse"><stop offset="0" stop-color="#f4f5f6"/><stop offset="1" stop-color="#f5f6f7"/></linearGradient><polygon fill="url(#JJh10UMdl1OFPsBBRghYmd)" points="36.47,33 28.08,39.26 11.2,21.21"/><linearGradient id="JJh10UMdl1OFPsBBRghYme" x1="2.396" x2="33.776" y1="35.81" y2="35.81" gradientTransform="matrix(1 0 0 -1 0 66)" gradientUnits="userSpaceOnUse"><stop offset="0" stop-color="#dbdee1"/><stop offset="1" stop-color="#dee1e4"/></linearGradient><polygon fill="url(#JJh10UMdl1OFPsBBRghYme)" points="36.47,33 28.08,39.26 11,21.12"/><linearGradient id="JJh10UMdl1OFPsBBRghYmf" x1="7.5" x2="7.5" y1="1.383" y2="77.002" gradientTransform="matrix(1 0 0 -1 0 66)" gradientUnits="userSpaceOnUse"><stop offset=".011" stop-color="#f97499"/><stop offset=".207" stop-color="#f97492"/><stop offset=".476" stop-color="#fa7381"/><stop offset=".786" stop-color="#fc7366"/><stop offset="1" stop-color="#fc724e"/></linearGradient><path fill="url(#JJh10UMdl1OFPsBBRghYmf)" d="M11,15v37H9c-2.76,0-5-2.24-5-5V17c0-2.76,2.24-3,5-3L11,15z"/><linearGradient id="JJh10UMdl1OFPsBBRghYmg" x1="56.5" x2="56.5" y1="1.383" y2="77.002" gradientTransform="matrix(1 0 0 -1 0 66)" gradientUnits="userSpaceOnUse"><stop offset=".011" stop-color="#f97499"/><stop offset=".207" stop-color="#f97492"/><stop offset=".476" stop-color="#fa7381"/><stop offset=".786" stop-color="#fc7366"/><stop offset="1" stop-color="#fc724e"/></linearGradient><path fill="url(#JJh10UMdl1OFPsBBRghYmg)" d="M53,15v37h2c2.76,0,5-2.24,5-5V17c0-2.76-2.24-3-5-3L53,15z"/><linearGradient id="JJh10UMdl1OFPsBBRghYmh" x1="7.545" x2="7.545" y1="39.224" y2="62.15" gradientTransform="matrix(1 0 0 -1 0 66)" gradientUnits="userSpaceOnUse"><stop offset="0" stop-color="#fd6b53"/><stop offset=".007" stop-color="#fd6b53"/><stop offset=".989" stop-color="#f96599"/><stop offset="1" stop-color="#f96599"/></linearGradient><path fill="url(#JJh10UMdl1OFPsBBRghYmh)" d="M11,15v6.12l-6.91-4.96c0.01-0.05,0.02-0.09,0.03-0.14C4.61,14.18,6.61,14,9,14L11,15z"/><linearGradient id="JJh10UMdl1OFPsBBRghYmi" x1="56.455" x2="56.455" y1="39.206" y2="62.164" gradientTransform="matrix(1 0 0 -1 0 66)" gradientUnits="userSpaceOnUse"><stop offset="0" stop-color="#fd6b53"/><stop offset=".007" stop-color="#fd6b53"/><stop offset=".989" stop-color="#f96599"/><stop offset="1" stop-color="#f96599"/></linearGradient><path fill="url(#JJh10UMdl1OFPsBBRghYmi)" d="M59.91,16.16L53,21.13V15l2-1c2.42,0,4.43,0.18,4.9,2.08C59.9,16.1,59.91,16.13,59.91,16.16z"/><linearGradient id="JJh10UMdl1OFPsBBRghYmj" x1="32" x2="32" y1="59.275" y2="15.722" gradientTransform="matrix(1 0 0 -1 0 66)" gradientUnits="userSpaceOnUse"><stop offset=".011" stop-color="#f97499"/><stop offset=".207" stop-color="#f97492"/><stop offset=".476" stop-color="#fa7381"/><stop offset=".786" stop-color="#fc7366"/><stop offset="1" stop-color="#fc724e"/></linearGradient><path fill="url(#JJh10UMdl1OFPsBBRghYmj)" d="M59.91,16.152L53,21.111L34.92,34.064c-1.75,1.247-4.09,1.247-5.84,0L11,21.101l-6.91-4.95	c0.2-1.178,0.81-2.216,1.68-2.954C6.64,12.449,7.76,12,9,12h1.3l20.535,14.714c0.696,0.499,1.633,0.499,2.329,0L53.71,12H55	C57.47,12,59.51,13.796,59.91,16.152z"/><linearGradient id="JJh10UMdl1OFPsBBRghYmk" x1="59.938" x2="59.938" y1="49.84" y2="49.51" gradientTransform="matrix(1 0 0 -1 0 66)" gradientUnits="userSpaceOnUse"><stop offset=".011" stop-color="#f97499"/><stop offset=".207" stop-color="#f97492"/><stop offset=".476" stop-color="#fa7381"/><stop offset=".786" stop-color="#fc7366"/><stop offset="1" stop-color="#fc724e"/></linearGradient><path fill="url(#JJh10UMdl1OFPsBBRghYmk)" d="M59.97,16.49c-0.011-0.113-0.045-0.217-0.064-0.328l0.004-0.002	C59.94,16.26,59.96,16.37,59.97,16.49z"/><path fill="#ebedef" d="M53,32v4h-1c-1.21,0-2.18-1.08-1.97-2.34c0.16-0.98,1.08-1.66,2.08-1.66H53z"/><path fill="#ebedef" d="M53,39v13h-7c-1.85,0-3.31-1.68-2.94-3.59c0.27-1.43,1.6-2.41,3.05-2.41h3.39	c0.83,0,1.5-0.67,1.5-1.5S50.33,43,49.5,43H49c-1.21,0-2.18-1.08-1.97-2.34c0.16-0.98,1.08-1.66,2.08-1.66H53z"/><path fill="#ebedef" d="M42,43L42,43c1.105,0,2-0.895,2-2l0,0c0-1.105-0.895-2-2-2l0,0c-1.105,0-2,0.895-2,2l0,0	C40,42.105,40.895,43,42,43z"/><linearGradient id="JJh10UMdl1OFPsBBRghYml" x1="27.931" x2="27.931" y1="45" y2="40" gradientTransform="matrix(1 0 0 -1 0 66)" gradientUnits="userSpaceOnUse"><stop offset="0" stop-color="#f4f5f6"/><stop offset="1" stop-color="#f5f6f7"/></linearGradient><path fill="url(#JJh10UMdl1OFPsBBRghYml)" d="M32.99,23.76c-0.13,1.3-1.32,2.24-2.63,2.24h-0.52l-3.815-2.017L22.86,21h7.64	C31.97,21,33.14,22.26,32.99,23.76z"/><linearGradient id="JJh10UMdl1OFPsBBRghYmm" x1="19.649" x2="19.649" y1="54" y2="48" gradientTransform="matrix(1 0 0 -1 0 66)" gradientUnits="userSpaceOnUse"><stop offset="0" stop-color="#f4f5f6"/><stop offset="1" stop-color="#f5f6f7"/></linearGradient><path fill="url(#JJh10UMdl1OFPsBBRghYmm)" d="M28.94,15.59c-0.27,1.43-1.6,2.41-3.05,2.41h-7.22l-3.903-2.081L10.3,12H26	C27.85,12,29.31,13.68,28.94,15.59z"/><linearGradient id="JJh10UMdl1OFPsBBRghYmn" x1="56.5" x2="56.5" y1="9.012" y2="77.486" gradientTransform="matrix(1 0 0 -1 0 66)" gradientUnits="userSpaceOnUse"><stop offset="0" stop-color="#fd6b53"/><stop offset=".007" stop-color="#fd6b53"/><stop offset=".989" stop-color="#f96599"/><stop offset="1" stop-color="#f96599"/></linearGradient><path fill="url(#JJh10UMdl1OFPsBBRghYmn)" d="M60,32v15c0,2.76-2.24,5-5,5h-2V39h2.04c0.82,0,1.5-0.67,1.5-1.5s-0.68-1.5-1.5-1.5H53v-4H60	z"/><linearGradient id="JJh10UMdl1OFPsBBRghYmo" x1="19.544" x2="19.544" y1="31.422" y2="94.321" gradientTransform="matrix(1 0 0 -1 0 66)" gradientUnits="userSpaceOnUse"><stop offset="0" stop-color="#fd6b53"/><stop offset=".007" stop-color="#fd6b53"/><stop offset=".989" stop-color="#f96599"/><stop offset="1" stop-color="#f96599"/></linearGradient><path fill="url(#JJh10UMdl1OFPsBBRghYmo)" d="M32,35c-1.02,0-2.04-0.32-2.92-0.94L11,21.1l-6.91-4.95c0.2-1.18,0.81-2.21,1.68-2.95	C6.64,12.45,7.76,12,9,12h1.3l8.37,6H16.5c-0.83,0-1.5,0.67-1.5,1.5s0.67,1.5,1.5,1.5h6.36l6.98,5H28.5c-0.83,0-1.5,0.67-1.5,1.5	s0.67,1.5,1.5,1.5h3.39c1.45,0,2.78,0.98,3.05,2.41C35.31,33.32,33.85,35,32,35z"/></svg>