<svg xmlns="http://www.w3.org/2000/svg"  viewBox="0 0 64 64" width="50px" height="50px"><radialGradient id="zEuG~apTn90TtMXdCfdCYa" cx="32" cy="33.5" r="31.259" gradientTransform="matrix(1 0 0 -1 0 66)" gradientUnits="userSpaceOnUse"><stop offset="0" stop-color="#f4e9c3"/><stop offset=".219" stop-color="#f8eecd"/><stop offset=".644" stop-color="#fdf4dc"/><stop offset="1" stop-color="#fff6e1"/></radialGradient><path fill="url(#zEuG~apTn90TtMXdCfdCYa)" d="M64,40.5c0,1.52-0.62,2.9-1.61,3.89C61.4,45.38,60.02,46,58.5,46H54c-0.07,0-0.15,0-0.22,0.01	C53.69,46,53.59,46,53.5,46c-2.21,0-8,1.79-8,4s1.79,4,4,4c0.13,0,0.47,0,0.5,0h1.5c2.49,0,4.5,2.01,4.5,4.5	c0,1.24-0.5,2.37-1.32,3.18C53.87,62.5,52.74,63,51.5,63H6c-2.21,0-4-1.79-4-4c0-1.1,0.45-2.1,1.17-2.83C3.9,55.45,4.9,55,6,55h6.5	c2.49,0,4.5-2.01,4.5-4.5S14.99,46,12.5,46H5c-2.21,0-4-1.79-4-4c0-1.1,0.45-2.1,1.17-2.83C2.9,38.45,3.9,38,5,38h9.5	c2.48,0,4.5-2.01,4.5-4.5c0-1.24-0.5-2.37-1.32-3.18C16.86,29.5,15.74,29,14.5,29H5c-2.76,0-5-2.24-5-5s2.24-5,5-5h11	c2.76,0,5-2.24,5-5c0-1.38-0.56-2.63-1.46-3.54C18.63,9.56,17.38,9,16,9H5.43C3.52,9,2,7.48,2,5.61V5.5C2,3.57,3.57,2,5.5,2h52	c1.93,0,3.49,1.56,3.5,3.48V5.5C61.01,7.43,59.45,9,57.52,9H56c-2.21,0-4,1.79-4,4s1.79,4,4,4h3c2.76,0,5,2.24,5,5	c0,1.38-0.56,2.63-1.46,3.54C61.63,26.44,60.38,27,59,27h-5c-2.21,0-4,1.79-4,4c0,1.1,0.45,2.1,1.17,2.83C51.9,34.55,52.9,35,54,35	h4.5C61.54,35,64,37.46,64,40.5z"/><linearGradient id="zEuG~apTn90TtMXdCfdCYb" x1="41.635" x2="95.26" y1="67.946" y2="67.946" gradientTransform="matrix(.9043 .0957 -.0957 -.9043 -22.394 88.394)" gradientUnits="userSpaceOnUse"><stop offset="0" stop-color="#155cde"/><stop offset=".158" stop-color="#196ce1"/><stop offset=".724" stop-color="#28a1ec"/><stop offset="1" stop-color="#2eb5f0"/></linearGradient><path fill="url(#zEuG~apTn90TtMXdCfdCYb)" d="M14,55c-0.781,0-1.562-0.303-2.149-0.907c-1.156-1.187-1.131-3.086,0.057-4.242l38-37	c1.188-1.154,3.086-1.132,4.242,0.057c1.156,1.187,1.131,3.086-0.057,4.242l-38,37C15.51,54.717,14.755,55,14,55z"/><linearGradient id="zEuG~apTn90TtMXdCfdCYc" x1="166.435" x2="223.454" y1="209.944" y2="209.944" gradientTransform="matrix(.734 .266 -.266 -.734 -62.244 128.244)" gradientUnits="userSpaceOnUse"><stop offset="0" stop-color="#155cde"/><stop offset=".158" stop-color="#196ce1"/><stop offset=".724" stop-color="#28a1ec"/><stop offset="1" stop-color="#2eb5f0"/></linearGradient><path fill="url(#zEuG~apTn90TtMXdCfdCYc)" d="M14,40c-0.768,0-1.535-0.293-2.121-0.879c-1.172-1.171-1.172-3.071,0-4.242l22-22	c1.172-1.172,3.07-1.172,4.242,0c1.172,1.171,1.172,3.071,0,4.242l-22,22C15.535,39.707,14.768,40,14,40z"/><linearGradient id="zEuG~apTn90TtMXdCfdCYd" x1="998.86" x2="1079.401" y1="1070.13" y2="1070.13" gradientTransform="matrix(.5638 .4362 -.4362 -.5638 -102.07 168.07)" gradientUnits="userSpaceOnUse"><stop offset="0" stop-color="#155cde"/><stop offset=".158" stop-color="#196ce1"/><stop offset=".724" stop-color="#28a1ec"/><stop offset="1" stop-color="#2eb5f0"/></linearGradient><path fill="url(#zEuG~apTn90TtMXdCfdCYd)" d="M14,24c-0.768,0-1.535-0.293-2.121-0.879c-1.172-1.171-1.172-3.071,0-4.242l6-6	c1.172-1.172,3.07-1.172,4.242,0c1.172,1.171,1.172,3.071,0,4.242l-6,6C15.535,23.707,14.768,24,14,24z"/><linearGradient id="zEuG~apTn90TtMXdCfdCYe" x1="182.435" x2="239.454" y1="193.944" y2="193.944" gradientTransform="matrix(.734 .266 -.266 -.734 -62.244 128.244)" gradientUnits="userSpaceOnUse"><stop offset="0" stop-color="#155cde"/><stop offset=".158" stop-color="#196ce1"/><stop offset=".724" stop-color="#28a1ec"/><stop offset="1" stop-color="#2eb5f0"/></linearGradient><path fill="url(#zEuG~apTn90TtMXdCfdCYe)" d="M30,56c-0.768,0-1.535-0.293-2.121-0.879c-1.172-1.171-1.172-3.071,0-4.242l22-22	c1.172-1.172,3.07-1.172,4.242,0c1.172,1.171,1.172,3.071,0,4.242l-22,22C31.535,55.707,30.768,56,30,56z"/><linearGradient id="zEuG~apTn90TtMXdCfdCYf" x1="1030.86" x2="1111.401" y1="1038.13" y2="1038.13" gradientTransform="matrix(.5638 .4362 -.4362 -.5638 -102.07 168.07)" gradientUnits="userSpaceOnUse"><stop offset="0" stop-color="#155cde"/><stop offset=".158" stop-color="#196ce1"/><stop offset=".724" stop-color="#28a1ec"/><stop offset="1" stop-color="#2eb5f0"/></linearGradient><path fill="url(#zEuG~apTn90TtMXdCfdCYf)" d="M46,56c-0.768,0-1.535-0.293-2.121-0.879c-1.172-1.171-1.172-3.071,0-4.242l6-6	c1.172-1.172,3.07-1.172,4.242,0c1.172,1.171,1.172,3.071,0,4.242l-6,6C47.535,55.707,46.768,56,46,56z"/></svg>