<svg xmlns="http://www.w3.org/2000/svg"  viewBox="0 0 64 64" width="50px" height="50px"><radialGradient id="qbnf0l5XnzmY8FFrIAvGZa" cx="32.5" cy="32" r="30.276" gradientUnits="userSpaceOnUse" spreadMethod="reflect"><stop offset="0" stop-color="#afeeff"/><stop offset=".193" stop-color="#bbf1ff"/><stop offset=".703" stop-color="#d7f8ff"/><stop offset="1" stop-color="#e1faff"/></radialGradient><path fill="url(#qbnf0l5XnzmY8FFrIAvGZa)" d="M59,21h1.5c2.168,0,3.892-1.998,3.422-4.243C63.58,15.122,62.056,14,60.385,14L51,14 c-1.105,0-2-0.895-2-2c0-1.105,0.895-2,2-2h3.385c1.67,0,3.195-1.122,3.537-2.757C58.392,4.998,56.668,3,54.5,3H34.006H32.5h-24 C6.575,3,5,4.575,5,6.5S6.575,10,8.5,10H11c1.105,0,2,0.895,2,2c0,1.105-0.895,2-2,2l-6.385,0c-1.67,0-3.195,1.122-3.537,2.757 C0.608,19.002,2.332,21,4.5,21H18l0,11L4.615,32c-1.67,0-3.195,1.122-3.537,2.757C0.608,37.002,2.332,39,4.5,39H7 c1.105,0,2,0.895,2,2c0,1.105-0.895,2-2,2H4.5c-2.168,0-3.892,1.998-3.422,4.243C1.42,48.878,2.945,50,4.615,50H12 c1.105,0,2,0.895,2,2c0,1.105-0.895,2-2,2l-3.385,0c-1.67,0-3.195,1.122-3.537,2.757C4.608,59.002,6.332,61,8.5,61h22.494H32.5h21 c1.925,0,3.5-1.575,3.5-3.5S55.425,54,53.5,54H52c-1.105,0-2-0.895-2-2c0-1.105,0.895-2,2-2h5.385c1.67,0,3.195-1.122,3.537-2.757 C61.392,44.998,59.668,43,57.5,43H47l0-11h12.385c1.67,0,3.195-1.122,3.537-2.757C63.392,26.998,61.668,25,59.5,25H59 c-1.105,0-2-0.895-2-2C57,21.895,57.895,21,59,21z"/><linearGradient id="qbnf0l5XnzmY8FFrIAvGZb" x1="32" x2="32" y1="6" y2="57.998" gradientUnits="userSpaceOnUse" spreadMethod="reflect"><stop offset="0" stop-color="#42d778"/><stop offset=".428" stop-color="#3dca76"/><stop offset="1" stop-color="#34b171"/></linearGradient><path fill="url(#qbnf0l5XnzmY8FFrIAvGZb)" d="M43,11.005c-3.572-1.223-6.46-2.82-8.651-4.289c-1.425-0.955-3.272-0.955-4.697,0 C27.46,8.185,24.573,9.782,21,11.005c-3.889,1.331-7.4,1.811-10.113,1.951c-1.065,0.055-1.888,0.935-1.884,2.001 C9.041,25.628,9.699,38.701,21,50.001c1.659,1.659,5.961,5.08,8.667,7.193c1.372,1.071,3.293,1.071,4.665,0 c2.706-2.113,7.008-5.534,8.667-7.193c11.301-11.3,11.959-24.373,11.998-35.045c0.004-1.066-0.82-1.946-1.884-2.001 C50.4,12.815,46.889,12.336,43,11.005z"/><path fill="#fff" d="M16.078 33.18l2.962-8.575c.328-.967 1.247-1.653 2.339-1.653 1.076 0 1.996.686 2.323 1.653l2.931 8.482c.047.156.078.312.078.468 0 .78-.639 1.419-1.419 1.419-.639 0-1.169-.421-1.356-.982l-.514-1.637H19.18l-.514 1.668c-.171.561-.686.951-1.309.951-.749 0-1.357-.608-1.357-1.357C16 33.461 16.031 33.32 16.078 33.18zM22.688 30.046l-.748-2.386c-.236-.756-.376-1.302-.546-1.98h-.188c-.169.677-.31 1.224-.546 1.98l-.748 2.386H22.688zM28.297 24.402c0-.857.468-1.325 1.326-1.325h5.737c.655 0 1.201.546 1.201 1.216 0 .655-.546 1.201-1.201 1.201h-4.1v2.292h3.383c.639 0 1.169.53 1.169 1.169 0 .655-.53 1.185-1.169 1.185h-3.383v2.292h4.412c.655 0 1.201.546 1.201 1.201 0 .671-.546 1.216-1.201 1.216h-6.049c-.858 0-1.326-.468-1.326-1.325V24.402zM42.964 22.796c1.751 0 4.412.733 4.412 2.432 0 .748-.608 1.294-1.357 1.294-1.313 0-1.322-1.419-3.134-1.419-1.013 0-1.606.468-1.606 1.013 0 .577.296.998 1.481 1.247l1.902.406C47.049 28.285 48 29.501 48 31.263c0 1.996-1.262 3.851-4.927 3.851-2.345 0-4.942-.668-4.942-2.479 0-.78.639-1.294 1.418-1.294 1.322 0 1.528 1.247 3.399 1.247 1.248 0 1.918-.374 1.918-1.123 0-.546-.297-.92-1.419-1.153l-1.918-.406c-2.182-.468-3.258-1.559-3.258-3.492C38.272 24.371 39.971 22.796 42.964 22.796z"/></svg>