<svg xmlns="http://www.w3.org/2000/svg"  viewBox="0 0 48 48" width="50px" height="50px"><linearGradient id="901RIHcLyz6dZPGSvSf1Xa" x1="36.25" x2="36.25" y1="38.043" y2="23.006" gradientTransform="matrix(-1 0 0 1 48 0)" gradientUnits="userSpaceOnUse"><stop offset="0" stop-color="#912fbd"/><stop offset="1" stop-color="#9332bf"/></linearGradient><path fill="url(#901RIHcLyz6dZPGSvSf1Xa)" d="M3.484,25.668l11.849,11.849c0.645,0.645,1.69,0.645,2.335,0l2.349-2.349	c0.645-0.645,0.645-1.69,0-2.335L8.167,20.984c-0.645-0.645-1.69-0.645-2.335,0l-2.349,2.349	C2.839,23.977,2.839,25.023,3.484,25.668z"/><linearGradient id="901RIHcLyz6dZPGSvSf1Xb" x1="694.976" x2="717.718" y1="35.709" y2="12.967" gradientTransform="translate(-680)" gradientUnits="userSpaceOnUse"><stop offset="0" stop-color="#ae4cd5"/><stop offset="1" stop-color="#ac4ad5"/></linearGradient><path fill="url(#901RIHcLyz6dZPGSvSf1Xb)" d="M43.5,28H7l2.25-8H43.5c0.828,0,1.5,0.672,1.5,1.5v5C45,27.328,44.328,28,43.5,28z"/><linearGradient id="901RIHcLyz6dZPGSvSf1Xc" x1="33.436" x2="38.157" y1="21.564" y2="16.843" gradientTransform="matrix(-1 0 0 1 48 0)" gradientUnits="userSpaceOnUse"><stop offset="0" stop-color="#ae4cd5"/><stop offset="1" stop-color="#ac4ad5"/></linearGradient><path fill="url(#901RIHcLyz6dZPGSvSf1Xc)" d="M3.484,23.332l12.849-12.849c0.645-0.645,1.69-0.645,2.335,0l2.349,2.349	c0.645,0.645,0.645,1.69,0,2.335L8.184,28H5.816l-2.333-2.333C2.839,25.023,2.839,23.977,3.484,23.332z"/></svg>