<svg xmlns="http://www.w3.org/2000/svg"  viewBox="0 0 64 64" width="50px" height="50px"><radialGradient id="Pid~IDykw~W1poFWKE6e4a" cx="30.167" cy="32.573" r="40.161" gradientUnits="userSpaceOnUse" spreadMethod="reflect"><stop offset="0" stop-color="#afeeff"/><stop offset=".193" stop-color="#bbf1ff"/><stop offset=".703" stop-color="#d7f8ff"/><stop offset="1" stop-color="#e1faff"/></radialGradient><path fill="url(#Pid~IDykw~W1poFWKE6e4a)" d="M56.454,35.733c0.119,0.214,0.267,0.402,0.438,0.564c0.539,0.514,1.301,0.768,2.078,0.768 c0.006,0,0.011,0,0.017,0H59c1.71,0,3.086,1.431,2.996,3.161C61.914,41.794,60.401,43,58.83,43H54l-23,0v10h5c1.657,0,3,1.343,3,3v0 c0,1.657-1.343,3-3,3H5c-2.095,0-3.689-2.148-2.699-4.362C2.764,53.602,3.865,53,5,53h0.001C6.106,53,7.001,52.103,7,50.997 c0-0.119-0.011-0.239-0.032-0.362C6.796,49.664,5.881,49,4.692,49H3.112c-1.108,0-2.188-0.542-2.725-1.512 c-0.322-0.581-0.466-1.273-0.343-2.005C0.29,44.011,1.677,43,3.17,43l7.33,0c1.466,0,2.637-1.261,2.487-2.758 c-0.008-0.076-0.001-0.151,0.013-0.225v-2.522c-0.669-0.504-1.079-1.333-0.987-2.253c0.07-0.699,0.451-1.287,0.987-1.688L12,23h7v-6 H6c-2.209,0-4-1.791-4-4v0l0,0c0-2.209,1.791-4,4-4h8.5C15.328,9,16,8.328,16,7.5C16,6.672,15.328,6,14.5,6H7 C5.289,6,3.914,4.569,4.004,2.839C4.089,1.217,5.545,0,7.169,0L36,0c1.711,0,3.086,1.43,2.996,3.161C38.911,4.783,37.456,6,35.831,6 L35.5,6C34.672,6,34,6.672,34,7.5C34,8.328,34.672,9,35.5,9l4.723,0c1.651,0,3.244,0.769,4.163,2.14 c0.741,1.104,0.691,2.016,0.473,2.86H32v9h21v-8.935V14c0.019,0.004,0.039,0.007,0.059,0.01c0.209,0.036,2.423,0.054,2.64,0.054H58 c1.656,0,2.999,1.342,3,2.997c0,0.117-0.007,0.236-0.02,0.355c-0.172,1.502-1.524,2.608-3.035,2.649 c-1.077,0.029-1.942,0.911-1.944,1.995c0,0.122,0.011,0.247,0.033,0.373c0.173,0.967,1.083,1.631,2.065,1.631l2.402,0 c1.995,0,3.6,1.669,3.495,3.687C63.897,29.645,62.197,31,60.302,31H59C56.809,31,55.166,33.414,56.454,35.733z M4.5,40 C5.881,40,7,38.881,7,37.5C7,36.119,5.881,35,4.5,35S2,36.119,2,37.5C2,38.881,3.119,40,4.5,40z"/><linearGradient id="Pid~IDykw~W1poFWKE6e4b" x1="32" x2="32" y1="55" y2="20" gradientUnits="userSpaceOnUse" spreadMethod="reflect"><stop offset="0" stop-color="#ffc662"/><stop offset=".004" stop-color="#ffc662"/><stop offset=".609" stop-color="#ffc582"/><stop offset="1" stop-color="#ffc491"/><stop offset="1" stop-color="#ffc491"/></linearGradient><path fill="url(#Pid~IDykw~W1poFWKE6e4b)" d="M9,50V20h46v30c0,2.761-2.239,5-5,5H14C11.239,55,9,52.761,9,50z"/><linearGradient id="Pid~IDykw~W1poFWKE6e4c" x1="32" x2="32" y1="23" y2="10" gradientUnits="userSpaceOnUse" spreadMethod="reflect"><stop offset="0" stop-color="#ff634d"/><stop offset=".208" stop-color="#fd6464"/><stop offset=".522" stop-color="#fc6582"/><stop offset=".793" stop-color="#fa6694"/><stop offset=".989" stop-color="#fa669a"/><stop offset="1" stop-color="#fa669a"/></linearGradient><path fill="url(#Pid~IDykw~W1poFWKE6e4c)" d="M55,14.8V23H9v-8.2c0-2.653,2.166-4.8,4.842-4.8h36.316C52.834,10,55,12.147,55,14.8"/><linearGradient id="Pid~IDykw~W1poFWKE6e4d" x1="21.5" x2="21.5" y1="20" y2="10" gradientUnits="userSpaceOnUse" spreadMethod="reflect"><stop offset="0" stop-color="#ff5840"/><stop offset=".007" stop-color="#ff5840"/><stop offset=".989" stop-color="#fa528c"/><stop offset="1" stop-color="#fa528c"/></linearGradient><path fill="url(#Pid~IDykw~W1poFWKE6e4d)" d="M24.655,10h-6.311C16.928,10.995,16,12.638,16,14.5c0,3.036,2.464,5.5,5.5,5.5 s5.5-2.464,5.5-5.5C27,12.638,26.072,10.995,24.655,10z"/><linearGradient id="Pid~IDykw~W1poFWKE6e4e" x1="21.5" x2="21.5" y1="6" y2="17" gradientUnits="userSpaceOnUse" spreadMethod="reflect"><stop offset="0" stop-color="#a4a4a4"/><stop offset=".63" stop-color="#7f7f7f"/><stop offset="1" stop-color="#6f6f6f"/><stop offset="1" stop-color="#6f6f6f"/></linearGradient><path fill="url(#Pid~IDykw~W1poFWKE6e4e)" d="M21.5,17L21.5,17c-1.375,0-2.5-1.125-2.5-2.5v-6C19,7.125,20.125,6,21.5,6h0 C22.875,6,24,7.125,24,8.5v6C24,15.875,22.875,17,21.5,17z"/><linearGradient id="Pid~IDykw~W1poFWKE6e4f" x1="42.5" x2="42.5" y1="20" y2="10" gradientUnits="userSpaceOnUse" spreadMethod="reflect"><stop offset="0" stop-color="#ff5840"/><stop offset=".007" stop-color="#ff5840"/><stop offset=".989" stop-color="#fa528c"/><stop offset="1" stop-color="#fa528c"/></linearGradient><path fill="url(#Pid~IDykw~W1poFWKE6e4f)" d="M45.655,10h-6.311C37.928,10.995,37,12.638,37,14.5c0,3.036,2.464,5.5,5.5,5.5 s5.5-2.464,5.5-5.5C48,12.638,47.072,10.995,45.655,10z"/><linearGradient id="Pid~IDykw~W1poFWKE6e4g" x1="42.5" x2="42.5" y1="6" y2="17" gradientUnits="userSpaceOnUse" spreadMethod="reflect"><stop offset="0" stop-color="#a4a4a4"/><stop offset=".63" stop-color="#7f7f7f"/><stop offset="1" stop-color="#6f6f6f"/><stop offset="1" stop-color="#6f6f6f"/></linearGradient><path fill="url(#Pid~IDykw~W1poFWKE6e4g)" d="M42.5,17L42.5,17c-1.375,0-2.5-1.125-2.5-2.5v-6C40,7.125,41.125,6,42.5,6h0 C43.875,6,45,7.125,45,8.5v6C45,15.875,43.875,17,42.5,17z"/><linearGradient id="Pid~IDykw~W1poFWKE6e4h" x1="32" x2="32" y1="48" y2="29" gradientUnits="userSpaceOnUse" spreadMethod="reflect"><stop offset="0" stop-color="#ffe095"/><stop offset="1" stop-color="#ffebc5"/></linearGradient><path fill="url(#Pid~IDykw~W1poFWKE6e4h)" d="M20.429,29h2.143C23.36,29,24,29.64,24,30.429v2.143C24,33.36,23.36,34,22.571,34h-2.143 C19.64,34,19,33.36,19,32.571v-2.143C19,29.64,19.64,29,20.429,29z M20.429,36h2.143C23.36,36,24,36.64,24,37.429v2.143 C24,40.36,23.36,41,22.571,41h-2.143C19.64,41,19,40.36,19,39.571v-2.143C19,36.64,19.64,36,20.429,36z M20.429,43h2.143 C23.36,43,24,43.64,24,44.429v2.143C24,47.36,23.36,48,22.571,48h-2.143C19.64,48,19,47.36,19,46.571v-2.143 C19,43.64,19.64,43,20.429,43z M27.429,29h2.143C30.36,29,31,29.64,31,30.429v2.143C31,33.36,30.36,34,29.571,34h-2.143 C26.64,34,26,33.36,26,32.571v-2.143C26,29.64,26.64,29,27.429,29z M27.429,36h2.143C30.36,36,31,36.64,31,37.429v2.143 C31,40.36,30.36,41,29.571,41h-2.143C26.64,41,26,40.36,26,39.571v-2.143C26,36.64,26.64,36,27.429,36z M27.429,43h2.143 C30.36,43,31,43.64,31,44.429v2.143C31,47.36,30.36,48,29.571,48h-2.143C26.64,48,26,47.36,26,46.571v-2.143 C26,43.64,26.64,43,27.429,43z M34.429,29h2.143C37.36,29,38,29.64,38,30.429v2.143C38,33.36,37.36,34,36.571,34h-2.143 C33.64,34,33,33.36,33,32.571v-2.143C33,29.64,33.64,29,34.429,29z M34.429,43h2.143C37.36,43,38,43.64,38,44.429v2.143 C38,47.36,37.36,48,36.571,48h-2.143C33.64,48,33,47.36,33,46.571v-2.143C33,43.64,33.64,43,34.429,43z M41.429,29h2.143 C44.36,29,45,29.64,45,30.429v2.143C45,33.36,44.36,34,43.571,34h-2.143C40.64,34,40,33.36,40,32.571v-2.143 C40,29.64,40.64,29,41.429,29z M41.429,36h2.143C44.36,36,45,36.64,45,37.429v2.143C45,40.36,44.36,41,43.571,41h-2.143 C40.64,41,40,40.36,40,39.571v-2.143C40,36.64,40.64,36,41.429,36z M41.429,43h2.143C44.36,43,45,43.64,45,44.429v2.143 C45,47.36,44.36,48,43.571,48h-2.143C40.64,48,40,47.36,40,46.571v-2.143C40,43.64,40.64,43,41.429,43z"/><linearGradient id="Pid~IDykw~W1poFWKE6e4i" x1="35.5" x2="35.5" y1="42" y2="35" gradientUnits="userSpaceOnUse" spreadMethod="reflect"><stop offset="0" stop-color="#ff5840"/><stop offset=".007" stop-color="#ff5840"/><stop offset=".989" stop-color="#fa528c"/><stop offset="1" stop-color="#fa528c"/></linearGradient><path fill="url(#Pid~IDykw~W1poFWKE6e4i)" d="M34,35h3c1.105,0,2,0.895,2,2v3c0,1.105-0.895,2-2,2h-3c-1.105,0-2-0.895-2-2v-3 C32,35.895,32.895,35,34,35z"/></svg>