<svg xmlns="http://www.w3.org/2000/svg"  viewBox="0 0 64 64" width="50px" height="50px"><radialGradient id="SUBTtPYnBqWyXqnwMttpya" cx="32" cy="3562" r="33.002" gradientTransform="translate(0 -3530)" gradientUnits="userSpaceOnUse"><stop offset="0" stop-color="#efdcb1"/><stop offset="0" stop-color="#f2e0bb"/><stop offset=".011" stop-color="#f2e0bc"/><stop offset=".362" stop-color="#f9edd2"/><stop offset=".699" stop-color="#fef4df"/><stop offset="1" stop-color="#fff7e4"/></radialGradient><path fill="url(#SUBTtPYnBqWyXqnwMttpya)" d="M55.454,45.668c0.5,0.898,1.504,1.337,2.532,1.332c1.75-0.008,3.153,1.483,3.002,3.262	C60.855,51.838,59.434,53,57.852,53H48v1H26h-8H7c-1.71,0-3.086-1.431-2.996-3.161C4.089,49.216,5.545,48,7.17,48H8	c1.215,0,2.176-1.083,1.973-2.336C9.813,44.681,8.889,44,7.893,44H3c-1.71,0-3.086-1.431-2.996-3.161C0.089,39.216,1.545,38,3.17,38	H9.5c1.381,0,2.5-1.119,2.5-2.5l0,0c0-1.381-1.119-2.5-2.5-2.5l0,0C8.119,33,7,31.881,7,30.5l0,0C7,29.119,8.119,28,9.5,28H18v-7	h-7.5c-1.995,0-3.601-1.67-3.495-3.688C7.104,15.419,8.803,14,10.698,14H18v-4h24h6h8.5c1.995,0,3.601,1.67,3.495,3.688	C59.896,15.581,58.197,17,56.302,17H53.5c-1.995,0-3.601,1.67-3.495,3.688C50.104,22.581,51.803,24,53.698,24H56	c1.777,0,3.194,1.546,2.978,3.366c-0.179,1.509-1.546,2.572-3.064,2.635c-1.197,0.05-2.122,1.153-1.874,2.406	C54.228,33.355,55.123,34,56.089,34H60.5c1.995,0,3.601,1.67,3.495,3.688C63.896,39.581,62.197,41,60.302,41H58	C55.808,41,54.166,43.35,55.454,45.668z M2.5,33L2.5,33C3.881,33,5,31.881,5,30.5l0,0C5,29.119,3.881,28,2.5,28l0,0	C1.119,28,0,29.119,0,30.5l0,0C0,31.881,1.119,33,2.5,33z"/><linearGradient id="SUBTtPYnBqWyXqnwMttpyb" x1="33" x2="33" y1="63.894" y2="1.813" gradientTransform="matrix(1 0 0 -1 0 66)" gradientUnits="userSpaceOnUse"><stop offset=".225" stop-color="#7da0ec"/><stop offset=".658" stop-color="#7880e5"/><stop offset="1" stop-color="#7363de"/></linearGradient><path fill="url(#SUBTtPYnBqWyXqnwMttpyb)" d="M53,9v46c0,1.66-1.34,3-3,3H18c-2.76,0-5-2.24-5-5V11c0-2.76,2.24-5,5-5h32	C51.66,6,53,7.34,53,9z"/><linearGradient id="SUBTtPYnBqWyXqnwMttpyc" x1="16.5" x2="16.5" y1="15.255" y2="65.202" gradientTransform="matrix(1 0 0 -1 0 66)" gradientUnits="userSpaceOnUse"><stop offset="0" stop-color="#685ddb"/><stop offset=".399" stop-color="#6b6bdf"/><stop offset="1" stop-color="#6e7ce4"/></linearGradient><path fill="url(#SUBTtPYnBqWyXqnwMttpyc)" d="M20,6v52h-2c-2.76,0-5-2.24-5-5V11c0-2.76,2.24-5,5-5H20z"/><linearGradient id="SUBTtPYnBqWyXqnwMttpyd" x1="36" x2="36" y1="6.574" y2="46.958" gradientTransform="matrix(1 0 0 -1 0 66)" gradientUnits="userSpaceOnUse"><stop offset="0" stop-color="#b8efff"/><stop offset=".367" stop-color="#d2f5ff"/><stop offset=".744" stop-color="#e6f9ff"/><stop offset="1" stop-color="#edfbff"/><stop offset="1" stop-color="#edfbff"/></linearGradient><path fill="url(#SUBTtPYnBqWyXqnwMttpyd)" d="M36,15c-6.065,0-11,4.935-11,11s4.935,11,11,11s11-4.935,11-11S42.065,15,36,15z M44.941,25	H40.98c-0.111-2.73-0.676-5.444-1.657-7.357C42.347,18.851,44.568,21.647,44.941,25z M36,35c-1.148,0-2.781-3.084-2.98-8h5.96	C38.781,31.916,37.148,35,36,35z M33.02,25c0.198-4.916,1.832-8,2.98-8s2.781,3.084,2.98,8H33.02z M32.677,17.643	c-0.98,1.912-1.546,4.627-1.657,7.357h-3.961C27.432,21.647,29.652,18.851,32.677,17.643z M27.059,27h3.961	c0.111,2.73,0.676,5.444,1.657,7.356C29.652,33.149,27.432,30.352,27.059,27z M39.323,34.356c0.98-1.912,1.546-4.627,1.657-7.356	h3.961C44.568,30.353,42.348,33.149,39.323,34.356z"/><linearGradient id="SUBTtPYnBqWyXqnwMttpye" x1="36" x2="36" y1="5.574" y2="45.958" gradientTransform="matrix(1 0 0 -1 0 66)" gradientUnits="userSpaceOnUse"><stop offset="0" stop-color="#b8efff"/><stop offset=".367" stop-color="#d2f5ff"/><stop offset=".744" stop-color="#e6f9ff"/><stop offset="1" stop-color="#edfbff"/><stop offset="1" stop-color="#edfbff"/></linearGradient><path fill="url(#SUBTtPYnBqWyXqnwMttpye)" d="M26,43h20c1.105,0,2,0.895,2,2v2c0,1.105-0.895,2-2,2H26c-1.105,0-2-0.895-2-2v-2	C24,43.895,24.895,43,26,43z"/></svg>