<svg xmlns="http://www.w3.org/2000/svg"  viewBox="0 0 48 48" width="50px" height="50px"><path fill="#50e6ff" d="M4,38V15h40v23c0,1.1-0.9,2-2,2H6C4.9,40,4,39.1,4,38z"/><linearGradient id="DboRU9hVOAh7_KErplCZ8a" x1="4.614" x2="42.936" y1="-198.259" y2="-190.467" gradientTransform="translate(0 206)" gradientUnits="userSpaceOnUse"><stop offset="0" stop-color="#0077d2"/><stop offset="1" stop-color="#0b59a2"/></linearGradient><path fill="url(#DboRU9hVOAh7_KErplCZ8a)" d="M44,10v5H4v-5c0-1.1,0.9-2,2-2h36C43.1,8,44,8.9,44,10z"/><linearGradient id="DboRU9hVOAh7_KErplCZ8b" x1="6.751" x2="8.032" y1="-195.584" y2="-193.731" gradientTransform="translate(0 206)" gradientUnits="userSpaceOnUse"><stop offset="0" stop-color="#75daff"/><stop offset="1" stop-color="#49bef1"/></linearGradient><circle cx="7.5" cy="11.5" r="1.5" fill="url(#DboRU9hVOAh7_KErplCZ8b)"/><linearGradient id="DboRU9hVOAh7_KErplCZ8c" x1="11.751" x2="13.032" y1="-195.584" y2="-193.731" gradientTransform="translate(0 206)" gradientUnits="userSpaceOnUse"><stop offset="0" stop-color="#75daff"/><stop offset="1" stop-color="#49bef1"/></linearGradient><circle cx="12.5" cy="11.5" r="1.5" fill="url(#DboRU9hVOAh7_KErplCZ8c)"/><linearGradient id="DboRU9hVOAh7_KErplCZ8d" x1="16.751" x2="18.032" y1="-195.584" y2="-193.731" gradientTransform="translate(0 206)" gradientUnits="userSpaceOnUse"><stop offset="0" stop-color="#75daff"/><stop offset="1" stop-color="#49bef1"/></linearGradient><circle cx="17.5" cy="11.5" r="1.5" fill="url(#DboRU9hVOAh7_KErplCZ8d)"/><linearGradient id="DboRU9hVOAh7_KErplCZ8e" x1="35.001" x2="26.027" y1="624.168" y2="614.813" gradientTransform="matrix(1 0 0 -1 0 662)" gradientUnits="userSpaceOnUse"><stop offset="0" stop-color="#e5a505"/><stop offset=".01" stop-color="#e9a804"/><stop offset=".06" stop-color="#f4b102"/><stop offset=".129" stop-color="#fbb600"/><stop offset=".323" stop-color="#fdb700"/></linearGradient><path fill="url(#DboRU9hVOAh7_KErplCZ8e)" d="M29.718,46.526c0-0.814,0.66-1.474,1.474-1.474c0.092,0,0.181,0.011,0.268,0.027l0.699-0.699 c-0.048-0.162-0.083-0.33-0.083-0.507c0-0.977,0.792-1.769,1.769-1.769c0.178,0,0.346,0.034,0.507,0.083l2.442-2.442l-3.538-3.538 l-7.911,7.911C25.124,44.337,25,44.637,25,44.95v0.792c0,0.313,0.124,0.613,0.346,0.834l1.078,1.078 C26.645,47.876,26.945,48,27.258,48h0.792c0.313,0,0.613-0.124,0.834-0.346l0.861-0.861C29.729,46.707,29.718,46.618,29.718,46.526 z"/><linearGradient id="DboRU9hVOAh7_KErplCZ8f" x1="35.403" x2="44.444" y1="635.778" y2="622.633" gradientTransform="matrix(1 0 0 -1 0 662)" gradientUnits="userSpaceOnUse"><stop offset="0" stop-color="#fede00"/><stop offset="1" stop-color="#ffd000"/></linearGradient><path fill="url(#DboRU9hVOAh7_KErplCZ8f)" d="M40.038,25c-4.397,0-7.962,3.564-7.962,7.962s3.564,7.962,7.962,7.962S48,37.359,48,32.962 S44.436,25,40.038,25z M42.103,32.795c-1.048,0-1.897-0.85-1.897-1.897S41.055,29,42.103,29C43.15,29,44,29.85,44,30.897 S43.15,32.795,42.103,32.795z"/><path d="M40.039,24c-4.941,0-8.961,4.02-8.961,8.961c0,1.157,0.221,2.284,0.656,3.353L28.047,40H42	c1.1,0,2-0.9,2-2V24.935C42.804,24.342,41.462,24,40.039,24z M42.103,31.795c-0.495,0-0.897-0.403-0.897-0.897S41.608,30,42.103,30	S43,30.403,43,30.897S42.597,31.795,42.103,31.795z" opacity=".05"/><path d="M40.039,24.5c-4.666,0-8.461,3.796-8.461,8.461c0,1.204,0.252,2.368,0.749,3.467L28.754,40H42	c1.1,0,2-0.9,2-2V25.49C42.817,24.86,41.47,24.5,40.039,24.5z M42.103,32.295c-0.771,0-1.397-0.627-1.397-1.397	s0.627-1.397,1.397-1.397s1.397,0.627,1.397,1.397S42.873,32.295,42.103,32.295z" opacity=".07"/><linearGradient id="DboRU9hVOAh7_KErplCZ8g" x1="28.58" x2="44.365" y1="49.621" y2="26.671" gradientUnits="userSpaceOnUse"><stop offset="0" stop-color="#fede00"/><stop offset="1" stop-color="#ffd000"/></linearGradient><path fill="url(#DboRU9hVOAh7_KErplCZ8g)" d="M40.038,25c-4.397,0-7.961,3.564-7.961,7.962c0,1.285,0.312,2.496,0.853,3.57l-7.584,7.584	C25.124,44.337,25,44.637,25,44.95v0.792c0,0.313,0.124,0.613,0.346,0.834l1.078,1.078C26.645,47.876,26.945,48,27.258,48h0.792	c0.313,0,0.613-0.124,0.834-0.346l0.861-0.861c-0.015-0.087-0.027-0.176-0.027-0.268c0-0.814,0.66-1.474,1.474-1.474	c0.092,0,0.181,0.011,0.268,0.027l0.699-0.699c-0.048-0.162-0.083-0.33-0.083-0.507c0-0.977,0.792-1.769,1.769-1.769	c0.177,0,0.346,0.034,0.507,0.083l2.115-2.115c1.075,0.541,2.285,0.853,3.57,0.853c4.397,0,7.962-3.564,7.962-7.961	C48,28.564,44.436,25,40.038,25z M42.103,32.795c-1.048,0-1.897-0.85-1.897-1.897S41.055,29,42.103,29S44,29.85,44,30.897	S43.15,32.795,42.103,32.795z"/></svg>