<svg xmlns="http://www.w3.org/2000/svg"  viewBox="0 0 64 64" width="50px" height="50px"><radialGradient id="wi7Ov8pgxdsZxSzhiewZxa" cx="32" cy="31.5" r="30.775" gradientUnits="userSpaceOnUse" spreadMethod="reflect"><stop offset="0" stop-color="#afeeff"/><stop offset=".193" stop-color="#bbf1ff"/><stop offset=".703" stop-color="#d7f8ff"/><stop offset="1" stop-color="#e1faff"/></radialGradient><path fill="url(#wi7Ov8pgxdsZxSzhiewZxa)" d="M60.5,43H43V23.352c0.752,0.387,1.6,0.61,2.5,0.61h13c3.025,0,5.5-2.475,5.5-5.5 c0-3.025-2.475-5.5-5.5-5.5h-5.879C51.698,12.784,51,11.975,51,11c0-1.105,0.895-2,2-2h3.385c1.67,0,3.195-1.122,3.537-2.757 C60.392,3.998,58.668,2,56.5,2H34.006H32.5h-24C6.575,2,5,3.575,5,5.5S6.575,9,8.5,9H10c1.105,0,2,0.895,2,2c0,1.105-0.895,2-2,2 l0.615,0c0,0,0,0-0.001,0H10H6.5C3.475,13,1,15.475,1,18.5C1,21.525,3.475,24,6.5,24h23c0.169,0,0.335-0.01,0.5-0.026V32L3.615,32 c-1.67,0-3.195,1.122-3.537,2.757C-0.392,37.002,1.332,39,3.5,39H4c1.105,0,2,0.895,2,2c0,1.105-0.895,2-2,2H3.5 c-2.168,0-3.892,1.998-3.422,4.243C0.42,48.878,1.945,50,3.615,50H9c1.105,0,2,0.895,2,2c0,1.105-0.895,2-2,2l-1.385,0 c-1.67,0-3.195,1.122-3.537,2.757C3.608,59.002,5.332,61,7.5,61h23.494H32.5h24c1.925,0,3.5-1.575,3.5-3.5S58.425,54,56.5,54H56 c-1.105,0-2-0.895-2-2c0-1.105,0.895-2,2-2h4.385c1.67,0,3.195-1.122,3.537-2.757C64.392,44.998,62.668,43,60.5,43z"/><linearGradient id="wi7Ov8pgxdsZxSzhiewZxb" x1="32" x2="32" y1="58.996" y2="3.996" gradientUnits="userSpaceOnUse" spreadMethod="reflect"><stop offset="0" stop-color="#feaa53"/><stop offset=".612" stop-color="#ffcd49"/><stop offset="1" stop-color="#ffde44"/></linearGradient><path fill="url(#wi7Ov8pgxdsZxSzhiewZxb)" d="M35.83,6.779l4.254,13.093c0.402,1.236,1.553,2.129,2.853,2.129h12.661 c4.249,0,6.016,5.381,2.578,7.878l-10.243,7.442c-1.051,0.764-1.491,2.118-1.09,3.354l3.945,12.98 c1.217,3.746-3.07,6.861-6.256,4.546l-10.769-8.022c-1.051-0.764-2.475-0.764-3.526,0l-10.769,8.022 c-3.186,2.315-7.473-0.8-6.256-4.546l3.945-12.98c0.402-1.236-0.038-2.59-1.09-3.354L5.824,29.88 c-3.438-2.498-1.671-7.878,2.578-7.878h12.661c1.299,0,2.451-0.894,2.853-2.129L28.17,6.779C29.376,3.068,34.624,3.068,35.83,6.779z"/><linearGradient id="wi7Ov8pgxdsZxSzhiewZxc" x1="32" x2="32" y1="17.121" y2="43.165" gradientUnits="userSpaceOnUse" spreadMethod="reflect"><stop offset="0" stop-color="#a4a4a4"/><stop offset=".63" stop-color="#7f7f7f"/><stop offset="1" stop-color="#6f6f6f"/><stop offset="1" stop-color="#6f6f6f"/></linearGradient><path fill="url(#wi7Ov8pgxdsZxSzhiewZxc)" d="M40,31h-5v-5c0-1.105-0.895-2-2-2h-2c-1.105,0-2,0.895-2,2v5h-5c-1.105,0-2,0.895-2,2v2 c0,1.105,0.895,2,2,2h5v5c0,1.105,0.895,2,2,2h2c1.105,0,2-0.895,2-2v-5h5c1.105,0,2-0.895,2-2v-2C42,31.895,41.105,31,40,31z"/></svg>