<svg xmlns="http://www.w3.org/2000/svg"  viewBox="0 0 64 64" width="50px" height="50px"><radialGradient id="VNIXXIL~igXq7Yj1x4rVJa" cx="32" cy="32" r="30.537" gradientUnits="userSpaceOnUse" spreadMethod="reflect"><stop offset="0" stop-color="#f4e9c3"/><stop offset=".219" stop-color="#f8eecd"/><stop offset=".644" stop-color="#fdf4dc"/><stop offset="1" stop-color="#fff6e1"/></radialGradient><path fill="url(#VNIXXIL~igXq7Yj1x4rVJa)" d="M64,24.025L64,24.025C64,21.25,61.75,19,58.975,19H54.5c-2.485,0-4.5-2.015-4.5-4.5v0 c0-2.485,2.015-4.5,4.5-4.5h1c1.933,0,3.5-1.567,3.5-3.5v0C59,4.567,57.433,3,55.5,3h-47C6.567,3,5,4.567,5,6.5v0 C5,8.433,6.567,10,8.5,10h1c2.485,0,4.5,2.015,4.5,4.5v0c0,2.485-2.015,4.5-4.5,4.5H4c-2.209,0-4,1.791-4,4v0c0,2.209,1.791,4,4,4 h2.5c1.933,0,3.5,1.567,3.5,3.5v0c0,1.933-1.567,3.5-3.499,3.5H6.499C3.462,34.001,1,36.463,1,39.5v0C1,42.538,3.462,45,6.5,45h4 c1.933,0,3.5,1.567,3.5,3.5v0c0,1.933-1.567,3.5-3.5,3.5h0C8.015,52,6,54.015,6,56.5v0c0,2.485,2.015,4.5,4.5,4.5h45 c2.485,0,4.5-2.015,4.5-4.5v0c0-2.485-2.015-4.5-4.5-4.5h-2.01C51.563,52,50,50.437,50,48.51v-0.001c0-1.927,1.563-3.49,3.49-3.49 h5.5c2.214,0,4.01-1.795,4.01-4.01v0c0-2.214-1.795-4.01-4.01-4.01h-1.02C55.777,37,54,35.223,54,33.03v-0.009 c0-2.193,1.777-3.97,3.97-3.97h1.005C61.75,29.051,64,26.801,64,24.025z M31,38h5v5h-5V38z"/><linearGradient id="VNIXXIL~igXq7Yj1x4rVJb" x1="31.5" x2="31.5" y1="61.273" y2="-.942" gradientUnits="userSpaceOnUse" spreadMethod="reflect"><stop offset="0" stop-color="#155cde"/><stop offset=".278" stop-color="#1f7fe5"/><stop offset=".569" stop-color="#279ceb"/><stop offset=".82" stop-color="#2cafef"/><stop offset="1" stop-color="#2eb5f0"/></linearGradient><path fill="url(#VNIXXIL~igXq7Yj1x4rVJb)" d="M17.138,29.53L42.745,7.638C44.419,6.207,47,7.396,47,9.598v44.804 c0,2.202-2.581,3.391-4.255,1.96L17.138,34.47C15.621,33.173,15.621,30.827,17.138,29.53z"/><linearGradient id="VNIXXIL~igXq7Yj1x4rVJc" x1="42.5" x2="42.5" y1="22" y2="7.017" gradientUnits="userSpaceOnUse" spreadMethod="reflect"><stop offset="0" stop-color="#3fabee"/><stop offset=".368" stop-color="#41b2f0"/><stop offset="1" stop-color="#42b8f1"/></linearGradient><path fill="url(#VNIXXIL~igXq7Yj1x4rVJc)" d="M38,19.5c0,1.38,1.12,2.5,2.5,2.5H47V9.6c0-2.2-2.58-3.39-4.25-1.96l-3.48,2.98 c0.11,0.24,0.27,0.46,0.46,0.65C40.18,11.72,40.81,12,41.5,12c1.38,0,2.5,1.12,2.5,2.5S42.88,17,41.5,17h-1 c-0.69,0-1.32,0.28-1.77,0.73C38.28,18.18,38,18.81,38,19.5z"/><linearGradient id="VNIXXIL~igXq7Yj1x4rVJd" x1="29" x2="29" y1="53.96" y2="30" gradientUnits="userSpaceOnUse" spreadMethod="reflect"><stop offset="0" stop-color="#1663cf"/><stop offset=".275" stop-color="#1a73d6"/><stop offset=".697" stop-color="#1f85df"/><stop offset="1" stop-color="#218be2"/></linearGradient><path fill="url(#VNIXXIL~igXq7Yj1x4rVJd)" d="M16.69,30H29.5c1.38,0,2.5,1.12,2.5,2.5S30.88,35,29.5,35h-1c-1.38,0-2.5,1.12-2.5,2.5 c0,0.69,0.28,1.32,0.73,1.77C27.18,39.72,27.81,40,28.5,40h3c1.38,0,2.5,1.12,2.5,2.5c0,0.69-0.28,1.32-0.73,1.77 C32.82,44.72,32.19,45,31.5,45h-2.04L17.14,34.47C15.79,33.31,15.64,31.34,16.69,30z M34.14,49l5.8,4.96 C41.11,53.75,42,52.73,42,51.5c0-0.69-0.28-1.32-0.73-1.77C40.82,49.28,40.19,49,39.5,49H34.14z M36.5,35L36.5,35 c1.381,0,2.5-1.119,2.5-2.5v0c0-1.381-1.119-2.5-2.5-2.5h0c-1.381,0-2.5,1.119-2.5,2.5v0C34,33.881,35.119,35,36.5,35z"/></svg>