<svg xmlns="http://www.w3.org/2000/svg"  viewBox="0 0 64 64" width="50px" height="50px"><radialGradient id="zo4e9WB~5zUsxP4QGQe77a" cx="32" cy="31.5" r="31.259" gradientUnits="userSpaceOnUse" spreadMethod="reflect"><stop offset="0" stop-color="#c5f1ff"/><stop offset=".35" stop-color="#cdf3ff"/><stop offset=".907" stop-color="#e4faff"/><stop offset="1" stop-color="#e9fbff"/></radialGradient><path fill="url(#zo4e9WB~5zUsxP4QGQe77a)" d="M60.5,43h-4.357c-1.308,0-2.499-0.941-2.63-2.242C53.363,39.261,54.534,38,56,38 c1.848,0,3.319-1.693,2.94-3.605C58.657,32.972,57.32,32,55.869,32H42v-3h18c2.335,0,4.22-2.028,3.979-4.41 c-0.21-2.075-2.082-3.59-4.168-3.59L53.5,21c-1.381,0-2.5-1.119-2.5-2.5c0-1.381,1.119-2.5,2.5-2.5H57c1.657,0,3-1.343,3-3 c0-1.657-1.343-3-3-3H46c-1.105,0-2-0.895-2-2s0.895-2,2-2l2.357,0c1.308,0,2.499-0.941,2.63-2.242C51.137,2.261,49.966,1,48.5,1 L15.643,1c-1.308,0-2.499,0.941-2.63,2.242C12.863,4.739,14.034,6,15.5,6h3.393c0.996,0,1.92,0.681,2.08,1.664 C21.176,8.917,20.215,10,19.001,10H5c-2.75,0-5,2.25-5,5s2.25,5,5,5h13.342c0.202,0.398,0.326,0.84,0.351,1.312 C18.799,23.33,17.193,25,15.198,25H4.189c-2.086,0-3.958,1.514-4.168,3.59C-0.22,30.972,1.665,33,4,33h14v11H6.131 c-1.451,0-2.789,0.972-3.071,2.395C2.681,48.307,4.152,50,6,50c1.215,0,2.176,1.083,1.973,2.336C7.813,53.319,6.889,54,5.893,54 H4.189c-2.086,0-3.958,1.514-4.168,3.59C-0.22,59.972,1.665,62,4,62h53.811c2.009,0,3.841-1.398,4.142-3.385 c0.368-2.434-1.497-4.553-3.85-4.614c-0.809-0.021-1.608-0.396-1.923-1.141C55.564,51.401,56.618,50,58,50h2.386 c1.67,0,3.195-1.122,3.537-2.757C64.392,44.998,62.668,43,60.5,43z"/><linearGradient id="zo4e9WB~5zUsxP4QGQe77b" x1="41" x2="41" y1="26.255" y2="8.113" gradientUnits="userSpaceOnUse" spreadMethod="reflect"><stop offset="0" stop-color="#ff8b67"/><stop offset=".847" stop-color="#ffa76a"/><stop offset="1" stop-color="#ffad6b"/><stop offset="1" stop-color="#ffad6b"/></linearGradient><path fill="url(#zo4e9WB~5zUsxP4QGQe77b)" d="M49.485,22.343l-7.071,7.071c-0.781,0.781-2.047,0.781-2.828,0l-7.071-7.071 c-0.781-0.781-0.781-2.047,0-2.828l7.071-7.071c0.781-0.781,2.047-0.781,2.828,0l7.071,7.071 C50.266,20.296,50.266,21.562,49.485,22.343z"/><linearGradient id="zo4e9WB~5zUsxP4QGQe77c" x1="29" x2="29" y1="32.1" y2="8" gradientUnits="userSpaceOnUse" spreadMethod="reflect"><stop offset="0" stop-color="#ffc050"/><stop offset=".004" stop-color="#ffc050"/><stop offset=".641" stop-color="#ffbe75"/><stop offset="1" stop-color="#ffbd85"/><stop offset="1" stop-color="#ffbd85"/></linearGradient><path fill="url(#zo4e9WB~5zUsxP4QGQe77c)" d="M40.464,21.464l-10.05,10.05c-0.781,0.781-2.047,0.781-2.828,0l-10.05-10.05 c-0.781-0.781-0.781-2.047,0-2.828l10.05-10.05c0.781-0.781,2.047-0.781,2.828,0l10.05,10.05 C41.246,19.417,41.246,20.683,40.464,21.464z"/><linearGradient id="zo4e9WB~5zUsxP4QGQe77d" x1="29.5" x2="29.5" y1="12" y2="52" gradientUnits="userSpaceOnUse" spreadMethod="reflect"><stop offset="0" stop-color="#42d778"/><stop offset=".428" stop-color="#3dca76"/><stop offset="1" stop-color="#34b171"/></linearGradient><path fill="url(#zo4e9WB~5zUsxP4QGQe77d)" d="M45.08,42c1.23,0,2.409-0.488,3.278-1.358c0.424-0.424,0.762-0.926,0.995-1.479l7.452-17.698 C56.933,21.158,57,20.829,57,20.496C57,19.117,55.883,18,54.504,18H16.094l-0.35-1.108C14.82,13.966,12.137,12,9.068,12H5 c-1.657,0-3,1.343-3,3s1.343,3,3,3h4.068c0.438,0,0.822,0.281,0.954,0.699L15,34.463V44c0,4.411,3.589,8,8,8h24c1.657,0,3-1.343,3-3 s-1.343-3-3-3H23c-1.103,0-2-0.897-2-2v-2H45.08z"/><linearGradient id="zo4e9WB~5zUsxP4QGQe77e" x1="42.158" x2="42.158" y1="42" y2="25" gradientUnits="userSpaceOnUse" spreadMethod="reflect"><stop offset="0" stop-color="#37ab6a"/><stop offset=".422" stop-color="#39b66f"/><stop offset="1" stop-color="#3ac074"/></linearGradient><path fill="url(#zo4e9WB~5zUsxP4QGQe77e)" d="M43,25c-1.657,0-3,1.343-3,3s1.343,3,3,3h0.5c1.381,0,2.5,1.119,2.5,2.5 c0,1.381-1.119,2.5-2.5,2.5H32c-1.657,0-3,1.343-3,3s1.343,3,3,3h13.08c1.23,0,2.409-0.488,3.278-1.358 c0.424-0.424,0.762-0.926,0.995-1.479L55.316,25H43z"/><linearGradient id="zo4e9WB~5zUsxP4QGQe77f" x1="35" x2="35" y1="40.248" y2="25.859" gradientUnits="userSpaceOnUse" spreadMethod="reflect"><stop offset="0" stop-color="#37ab6a"/><stop offset=".422" stop-color="#39b66f"/><stop offset="1" stop-color="#3ac074"/></linearGradient><path fill="url(#zo4e9WB~5zUsxP4QGQe77f)" d="M35 25A3 3 0 1 0 35 31A3 3 0 1 0 35 25Z"/><linearGradient id="zo4e9WB~5zUsxP4QGQe77g" x1="211.926" x2="212.593" y1="104.75" y2="104.75" gradientTransform="matrix(0 -12 -12 0 1300 2605.336)" gradientUnits="userSpaceOnUse" spreadMethod="reflect"><stop offset="0" stop-color="#a4a4a4"/><stop offset=".619" stop-color="gray"/><stop offset="1" stop-color="#6f6f6f"/><stop offset="1" stop-color="#6f6f6f"/></linearGradient><path fill="url(#zo4e9WB~5zUsxP4QGQe77g)" d="M43 52A4 4 0 1 0 43 60A4 4 0 1 0 43 52Z"/><linearGradient id="zo4e9WB~5zUsxP4QGQe77h" x1="211.976" x2="212.643" y1="104.083" y2="104.083" gradientTransform="matrix(0 -12 -12 0 1273 2607.155)" gradientUnits="userSpaceOnUse" spreadMethod="reflect"><stop offset="0" stop-color="#a4a4a4"/><stop offset=".619" stop-color="gray"/><stop offset="1" stop-color="#6f6f6f"/><stop offset="1" stop-color="#6f6f6f"/></linearGradient><path fill="url(#zo4e9WB~5zUsxP4QGQe77h)" d="M24 52A4 4 0 1 0 24 60A4 4 0 1 0 24 52Z"/></svg>