<svg xmlns="http://www.w3.org/2000/svg"  viewBox="0 0 64 64" width="50px" height="50px"><radialGradient id="gs2hgDkaPtWknZlxFh083a" cx="-117.362" cy="40.514" r="180.803" gradientUnits="userSpaceOnUse" spreadMethod="reflect"><stop offset="0" stop-color="#f4e9c3"/><stop offset=".219" stop-color="#f8eecd"/><stop offset=".644" stop-color="#fdf4dc"/><stop offset="1" stop-color="#fff6e1"/></radialGradient><path fill="url(#gs2hgDkaPtWknZlxFh083a)" d="M59.5,33h-4.401c-0.982,0-1.893-0.663-2.066-1.63C53.011,31.244,53,31.119,53,30.996 c0.002-1.06,0.829-1.927,1.873-1.992c1.515-0.095,2.906-1.098,3.101-2.604C57.991,26.264,58,26.13,58,25.997 C57.998,24.342,56.656,23,55,23h-5v-6.941c0.626-0.641,1.492-1.047,2.456-1.059c0.001,0,0.002,0,0.003,0c0.004,0,0.007,0,0.01,0 c0.001,0,0.003,0,0.004,0c0.003,0,0.007,0,0.01,0c0.001,0,0.002,0,0.004,0c0.005,0,0.009,0,0.013,0h1.802 c1.884,0,3.574-1.402,3.691-3.278c0.001-0.011,0.001-0.022,0.002-0.033C57.998,11.625,58,11.563,58,11.5C58,9.567,56.433,8,54.5,8 H47h-6l4,4H14h-2.302c-1.896,0-3.594,1.419-3.693,3.312c-0.001,0.024-0.002,0.047-0.003,0.071C7.937,17.369,9.528,19,11.5,19H14v8 H9.5C8.119,27,7,28.119,7,29.5S8.119,32,9.5,32h0c1.381,0,2.5,1.119,2.5,2.5c0,1.381-1.119,2.5-2.5,2.5H4.17 c-1.625,0-3.081,1.217-3.166,2.839C1.002,39.893,1,39.947,1,40c0,1.656,1.343,3,3,3h4.893c0.996,0,1.919,0.681,2.08,1.664 C10.991,44.777,11,44.888,11,44.997C11.001,46.103,10.106,47,9,47H8.17c-1.624,0-3.081,1.217-3.165,2.839 C5.002,49.893,5,49.947,5,50c0,1.656,1.343,3,3,3h6v-1h36h4.83c1.57,0,3.083-1.271,3.165-2.839C58.086,47.431,56.71,46,55,46 h-0.013c-0.006,0-0.011,0-0.017,0c-0.777,0-1.539-0.254-2.078-0.768c-0.17-0.162-0.318-0.35-0.438-0.564 C51.166,42.35,52.809,40,55,40h4.302c1.896,0,3.595-1.42,3.693-3.313C63.1,34.669,61.495,33,59.5,33z"/><radialGradient id="gs2hgDkaPtWknZlxFh083b" cx="-9.546" cy="30.613" r="14.612" gradientUnits="userSpaceOnUse" spreadMethod="reflect"><stop offset="0" stop-color="#f4e9c3"/><stop offset=".219" stop-color="#f8eecd"/><stop offset=".644" stop-color="#fdf4dc"/><stop offset="1" stop-color="#fff6e1"/></radialGradient><path fill="url(#gs2hgDkaPtWknZlxFh083b)" d="M5,29.5C5,28.119,3.881,27,2.5,27C1.119,27,0,28.119,0,29.5S1.119,32,2.5,32 C3.881,32,5,30.881,5,29.5z"/><linearGradient id="gs2hgDkaPtWknZlxFh083c" x1="32" x2="32" y1="3" y2="61" gradientUnits="userSpaceOnUse" spreadMethod="reflect"><stop offset="0" stop-color="#a4a4a4"/><stop offset=".619" stop-color="gray"/><stop offset="1" stop-color="#6f6f6f"/><stop offset="1" stop-color="#6f6f6f"/></linearGradient><path fill="url(#gs2hgDkaPtWknZlxFh083c)" d="M45,61H19c-2.761,0-5-2.239-5-5V8c0-2.761,2.239-5,5-5h26c2.761,0,5,2.239,5,5v48 C50,58.761,47.761,61,45,61z"/><linearGradient id="gs2hgDkaPtWknZlxFh083d" x1="32" x2="32" y1="10" y2="76.129" gradientUnits="userSpaceOnUse" spreadMethod="reflect"><stop offset="0" stop-color="#dff9ff"/><stop offset="0" stop-color="#dff9ff"/><stop offset=".173" stop-color="#d8f8ff"/><stop offset=".423" stop-color="#c5f4ff"/><stop offset=".72" stop-color="#a5eeff"/><stop offset="1" stop-color="#81e7ff"/></linearGradient><path fill="url(#gs2hgDkaPtWknZlxFh083d)" d="M44,51H20c-1.657,0-3-1.343-3-3V13c0-1.657,1.343-3,3-3h24c1.657,0,3,1.343,3,3v35 C47,49.657,45.657,51,44,51z"/><path fill="#bcbcbc" d="M37,8H27c-0.552,0-1-0.448-1-1v0c0-0.552,0.448-1,1-1h10c0.552,0,1,0.448,1,1v0 C38,7.552,37.552,8,37,8z"/><path fill="#9e9e9e" d="M32 53A3 3 0 1 0 32 59A3 3 0 1 0 32 53Z"/><linearGradient id="gs2hgDkaPtWknZlxFh083e" x1="40" x2="40" y1="50.958" y2="35.958" gradientUnits="userSpaceOnUse" spreadMethod="reflect"><stop offset="0" stop-color="#89e4fa"/><stop offset=".406" stop-color="#94e8fc"/><stop offset="1" stop-color="#acf0ff"/></linearGradient><path fill="url(#gs2hgDkaPtWknZlxFh083e)" d="M37,38.5L37,38.5c0,1.381,1.119,2.5,2.5,2.5h0c1.381,0,2.5,1.119,2.5,2.5v0 c0,1.381-1.119,2.5-2.5,2.5h-4c-1.381,0-2.5,1.119-2.5,2.5v0c0,1.381,1.119,2.5,2.5,2.5H44c1.657,0,3-1.343,3-3v-2v-5v-5h-7.5 C38.119,36,37,37.119,37,38.5z"/><g><linearGradient id="gs2hgDkaPtWknZlxFh083f" x1="37.5" x2="37.5" y1="24" y2="19" gradientUnits="userSpaceOnUse" spreadMethod="reflect"><stop offset="0" stop-color="#ecf9fd"/><stop offset=".848" stop-color="#f2fdff"/><stop offset="1" stop-color="#f4feff"/></linearGradient><path fill="url(#gs2hgDkaPtWknZlxFh083f)" d="M35,21.5L35,21.5c0,1.381,1.119,2.5,2.5,2.5h0c1.381,0,2.5-1.119,2.5-2.5v0 c0-1.381-1.119-2.5-2.5-2.5h0C36.119,19,35,20.119,35,21.5z"/><linearGradient id="gs2hgDkaPtWknZlxFh083g" x1="27" x2="27" y1="43" y2="10" gradientUnits="userSpaceOnUse" spreadMethod="reflect"><stop offset="0" stop-color="#ecf9fd"/><stop offset=".848" stop-color="#f2fdff"/><stop offset="1" stop-color="#f4feff"/></linearGradient><path fill="url(#gs2hgDkaPtWknZlxFh083g)" d="M28.5,24h1c1.381,0,2.5-1.119,2.5-2.5v0c0-1.381-1.119-2.5-2.5-2.5H26c-1.105,0-2-0.895-2-2 v0c0-1.105,0.895-2,2-2h8.5c1.381,0,2.5-1.119,2.5-2.5v0c0-1.381-1.119-2.5-2.5-2.5H20c-1.657,0-3,1.343-3,3v30h9.5 c1.381,0,2.5-1.119,2.5-2.5v0c0-1.381-1.119-2.5-2.5-2.5H26c-1.105,0-2-0.895-2-2v0c0-1.105,0.895-2,2-2h5.5 c1.381,0,2.5-1.119,2.5-2.5v0c0-1.381-1.119-2.5-2.5-2.5h-3c-1.381,0-2.5-1.119-2.5-2.5v0C26,25.119,27.119,24,28.5,24z"/></g></svg>