<svg xmlns="http://www.w3.org/2000/svg"  viewBox="0 0 64 64" width="50px" height="50px"><path fill="#fff" d="M32 17A14 14 0 1 0 32 45A14 14 0 1 0 32 17Z"/><radialGradient id="slgMysuh1vYjWKAQRKt3Sa" cx="32" cy="31.5" r="30.775" gradientUnits="userSpaceOnUse" spreadMethod="reflect"><stop offset="0" stop-color="#f4e9c3"/><stop offset=".219" stop-color="#f8eecd"/><stop offset=".644" stop-color="#fdf4dc"/><stop offset="1" stop-color="#fff6e1"/></radialGradient><path fill="url(#slgMysuh1vYjWKAQRKt3Sa)" d="M59,20h1.5c2.168,0,3.892-1.998,3.422-4.243C63.58,14.122,62.056,13,60.385,13L53,13 c-1.105,0-2-0.895-2-2c0-1.105,0.895-2,2-2h3.385c1.67,0,3.195-1.122,3.537-2.757C60.392,3.998,58.668,2,56.5,2H34.006H32.5h-24 C6.575,2,5,3.575,5,5.5S6.575,9,8.5,9H10c1.105,0,2,0.895,2,2c0,1.105-0.895,2-2,2l-5.385,0c-1.67,0-3.195,1.122-3.537,2.757 C0.608,18.002,2.332,20,4.5,20H18v12L3.615,32c-1.67,0-3.195,1.122-3.537,2.757C-0.392,37.002,1.332,39,3.5,39H4 c1.105,0,2,0.895,2,2c0,1.105-0.895,2-2,2H3.5c-2.168,0-3.892,1.998-3.422,4.243C0.42,48.878,1.945,50,3.615,50H10 c1.105,0,2,0.895,2,2c0,1.105-0.895,2-2,2l-1.385,0c-1.67,0-3.195,1.122-3.537,2.757C4.608,59.002,6.332,61,8.5,61h22.494H32.5h23 c1.925,0,3.5-1.575,3.5-3.5S57.425,54,55.5,54H55c-1.105,0-2-0.895-2-2c0-1.105,0.895-2,2-2h4.385c1.67,0,3.195-1.122,3.537-2.757 C63.392,44.998,61.668,43,59.5,43H47V31h12.385c1.67,0,3.195-1.122,3.537-2.757C63.392,25.998,61.668,24,59.5,24H59 c-1.105,0-2-0.895-2-2C57,20.895,57.895,20,59,20z"/><linearGradient id="slgMysuh1vYjWKAQRKt3Sb" x1="32" x2="32" y1="-12.427" y2="48.557" gradientUnits="userSpaceOnUse" spreadMethod="reflect"><stop offset="0" stop-color="#a4a4a4"/><stop offset=".63" stop-color="#7f7f7f"/><stop offset="1" stop-color="#6f6f6f"/><stop offset="1" stop-color="#6f6f6f"/></linearGradient><path fill="url(#slgMysuh1vYjWKAQRKt3Sb)" d="M56.913,28.218l-4.176-0.696c-0.224-1.342-0.573-2.638-1.038-3.881l3.267-2.69 c0.492-0.404,0.617-1.102,0.298-1.654l-1.498-2.595c-0.317-0.551-0.988-0.79-1.581-0.567l-3.945,1.477 c-0.858-1.04-1.815-1.996-2.855-2.855l1.477-3.942c0.224-0.596-0.019-1.264-0.567-1.581l-2.595-1.498 c-0.551-0.317-1.25-0.189-1.654,0.298l-2.687,3.269c-1.244-0.466-2.541-0.815-3.883-1.039l-0.696-4.176 C34.676,5.461,34.134,5,33.498,5h-2.997c-0.634,0-1.177,0.461-1.281,1.087l-0.696,4.176c-1.342,0.224-2.638,0.573-3.881,1.038 l-2.69-3.267c-0.404-0.492-1.102-0.619-1.654-0.3l-2.595,1.498c-0.551,0.317-0.79,0.988-0.567,1.581l1.477,3.945 c-1.04,0.858-1.997,1.815-2.855,2.855l-3.945-1.477c-0.593-0.224-1.264,0.016-1.581,0.567l-1.498,2.595 c-0.319,0.551-0.192,1.25,0.298,1.654l3.267,2.69c-0.464,1.243-0.815,2.539-1.038,3.881l-4.176,0.696 C6.461,28.324,6,28.866,6,29.502v2.997c0,0.634,0.461,1.177,1.087,1.281l4.176,0.696c0.224,1.342,0.573,2.638,1.038,3.881 l-3.267,2.69c-0.492,0.404-0.617,1.102-0.298,1.654l1.498,2.595c0.317,0.551,0.988,0.79,1.581,0.567l3.945-1.477 c0.858,1.04,1.815,1.996,2.855,2.855l-1.477,3.942c-0.224,0.596,0.019,1.264,0.567,1.581l2.595,1.498 c0.551,0.317,1.25,0.189,1.654-0.3l2.688-3.265c1.244,0.466,2.541,0.815,3.883,1.039l0.696,4.176C29.324,56.539,29.866,57,30.502,57 h2.997c0.634,0,1.177-0.461,1.281-1.087l0.696-4.176c1.342-0.224,2.638-0.573,3.881-1.038l2.69,3.267 c0.404,0.492,1.102,0.617,1.654,0.3l2.595-1.498c0.551-0.317,0.79-0.988,0.567-1.581l-1.477-3.945 c1.04-0.858,1.996-1.815,2.855-2.855l3.942,1.477c0.596,0.224,1.264-0.019,1.581-0.567l1.498-2.595 c0.317-0.551,0.189-1.25-0.3-1.654l-3.265-2.688c0.466-1.244,0.815-2.541,1.039-3.883l4.176-0.696 C57.539,33.676,58,33.134,58,32.498v-2.997C58,28.866,57.539,28.322,56.913,28.218z M32,45c-7.7,0-14-6.3-14-14s6.3-14,14-14 s14,6.3,14,14S39.7,45,32,45z"/><linearGradient id="slgMysuh1vYjWKAQRKt3Sc" x1="32" x2="32" y1="16.07" y2="45.586" gradientUnits="userSpaceOnUse" spreadMethod="reflect"><stop offset="0" stop-color="#ababab"/><stop offset="1" stop-color="#999"/></linearGradient><path fill="url(#slgMysuh1vYjWKAQRKt3Sc)" d="M32,15c-8.8,0-16,7.2-16,16s7.2,16,16,16s16-7.2,16-16S40.8,15,32,15z M44,31 c0,1.111-0.164,2.183-0.448,3.205L38,31c0-2.22-1.208-4.153-3-5.191v-6.414C40.167,20.733,44,25.421,44,31z M29,19.395v6.414 c-1.792,1.038-3,2.971-3,5.191l-5.552,3.205C20.164,33.183,20,32.111,20,31C20,25.421,23.833,20.733,29,19.395z M32,43 c-3.346,0-6.374-1.38-8.553-3.598l5.557-3.209C29.887,36.703,30.908,37,32,37s2.113-0.297,2.995-0.806l5.557,3.209 C38.374,41.62,35.346,43,32,43z"/></svg>