<svg xmlns="http://www.w3.org/2000/svg"  viewBox="0 0 64 64" width="50px" height="50px"><radialGradient id="QQ9IThHYCW2tLRw5nyj01a" cx="32.5" cy="32" r="31.751" gradientUnits="userSpaceOnUse" spreadMethod="reflect"><stop offset="0" stop-color="#f4e9c3"/><stop offset=".219" stop-color="#f8eecd"/><stop offset=".644" stop-color="#fdf4dc"/><stop offset="1" stop-color="#fff6e1"/></radialGradient><path fill="url(#QQ9IThHYCW2tLRw5nyj01a)" d="M61.501,18.008H57c-1.105,0-2-0.895-2-2v0c0-1.105,0.895-2,2-2h1.411 c1.85,0,3.32-1.69,2.94-3.6c-0.28-1.43-1.62-2.4-3.07-2.4L45.5,8C44.67,8,44,7.33,44,6.5C44,5.67,44.67,5,45.5,5l5.905,0 c1.139,0,2.206-0.719,2.505-1.818C54.361,1.521,53.101,0,51.5,0L7.595,0C6.456,0,5.389,0.719,5.091,1.818C4.639,3.479,5.899,5,7.5,5 h3c0.69,0,1.32,0.28,1.77,0.73c0.417,0.417,0.688,0.988,0.725,1.618C13.083,8.804,11.799,10,10.34,10l-6.209,0 c-1.451,0-2.789,0.972-3.071,2.395C0.681,14.307,2.152,16,4,16h5c1.657,0,3,1.343,3,3v18.512c-0.604,0.457-4.604,3.52-4,3.977V44 l-2.288,0c-2.347,0-4.453,1.704-4.689,4.038C0.752,50.718,2.873,53,5.5,53l18.856,0c1.308,0,2.5,0.94,2.631,2.241 C27.138,56.737,25.965,58,24.5,58l-5.335,0c-1.626,0-3.079,1.221-3.161,2.844C15.917,62.575,17.288,64,19,64l39.835,0 c1.626,0,3.079-1.221,3.161-2.844C62.083,59.425,60.712,58,59,58l-5.356,0c-1.308,0-2.5-0.94-2.631-2.241 C50.862,54.263,52.035,53,53.5,53l3.788,0c2.347,0,4.453-1.704,4.689-4.038C62.247,46.282,60.127,44,57.5,44H46V23.005l15.411,0.003 c1.14,0,2.2-0.72,2.5-1.82C64.351,19.527,63.091,18.008,61.501,18.008z"/><linearGradient id="QQ9IThHYCW2tLRw5nyj01b" x1="33.5" x2="33.5" y1="18" y2="45" gradientUnits="userSpaceOnUse" spreadMethod="reflect"><stop offset="0" stop-color="#ff634d"/><stop offset=".208" stop-color="#fd6464"/><stop offset=".522" stop-color="#fc6582"/><stop offset=".793" stop-color="#fa6694"/><stop offset=".989" stop-color="#fa669a"/><stop offset="1" stop-color="#fa669a"/></linearGradient><path fill="url(#QQ9IThHYCW2tLRw5nyj01b)" d="M19.5,45h28C54.956,45,61,38.956,61,31.5v0C61,24.044,54.956,18,47.5,18h-28 C12.044,18,6,24.044,6,31.5v0C6,38.956,12.044,45,19.5,45z"/><linearGradient id="QQ9IThHYCW2tLRw5nyj01c" x1="32" x2="32" y1="18" y2="45" gradientUnits="userSpaceOnUse" spreadMethod="reflect"><stop offset="0" stop-color="#ff5840"/><stop offset=".007" stop-color="#ff5840"/><stop offset=".989" stop-color="#fa528c"/><stop offset="1" stop-color="#fa528c"/></linearGradient><path fill="url(#QQ9IThHYCW2tLRw5nyj01c)" d="M21,45h16c1.65,0,3-1.35,3-3c0-1.65-1.35-3-3-3c-1.1,0-2-0.9-2-2c0-1.1,0.9-2,2-2h2.5 c1.925,0,3.5-1.575,3.5-3.5S41.425,28,39.5,28H37c-1.1,0-2-0.9-2-2c0-1.1,0.9-2,2-2c1.65,0,3-1.35,3-3c0-1.65-1.35-3-3-3H21V45z"/><linearGradient id="QQ9IThHYCW2tLRw5nyj01d" x1="47.5" x2="47.5" y1="2.471" y2="39.552" gradientTransform="translate(-30)" gradientUnits="userSpaceOnUse" spreadMethod="reflect"><stop offset="0" stop-color="#a5eafc"/><stop offset=".583" stop-color="#87dcf7"/><stop offset="1" stop-color="#77d4f4"/></linearGradient><path fill="url(#QQ9IThHYCW2tLRw5nyj01d)" d="M17.5 16A15.5 15.5 0 1 0 17.5 47A15.5 15.5 0 1 0 17.5 16Z"/><linearGradient id="QQ9IThHYCW2tLRw5nyj01e" x1="47.5" x2="47.5" y1="11.835" y2="36.955" gradientTransform="translate(-30)" gradientUnits="userSpaceOnUse" spreadMethod="reflect"><stop offset="0" stop-color="#155cde"/><stop offset=".278" stop-color="#1f7fe5"/><stop offset=".569" stop-color="#279ceb"/><stop offset=".82" stop-color="#2cafef"/><stop offset="1" stop-color="#2eb5f0"/></linearGradient><path fill="url(#QQ9IThHYCW2tLRw5nyj01e)" d="M17.5 21A10.5 10.5 0 1 0 17.5 42A10.5 10.5 0 1 0 17.5 21Z"/></svg>