<svg xmlns="http://www.w3.org/2000/svg"  viewBox="0 0 64 64" width="50px" height="50px"><radialGradient id="AzYrCSCb_UGlQgdvP3xTEa" cx="32" cy="31.5" r="31.259" gradientUnits="userSpaceOnUse" spreadMethod="reflect"><stop offset="0" stop-color="#f4e09d"/><stop offset=".226" stop-color="#f8e8b5"/><stop offset=".513" stop-color="#fcf0cd"/><stop offset=".778" stop-color="#fef4dc"/><stop offset="1" stop-color="#fff6e1"/></radialGradient><path fill="url(#AzYrCSCb_UGlQgdvP3xTEa)" d="M58,54c-1.105,0-2-0.895-2-2c0-1.105,0.895-2,2-2h2.5c1.925,0,3.5-1.575,3.5-3.5 S62.425,43,60.5,43H50c-1.381,0-2.5-1.119-2.5-2.5c0-1.381,1.119-2.5,2.5-2.5h8c1.65,0,3-1.35,3-3c0-1.65-1.35-3-3-3H42v-6h18 c2.335,0,4.22-2.028,3.979-4.41C63.77,19.514,61.897,18,59.811,18H58c-1.105,0-2-0.895-2-2c0-1.105,0.895-2,2-2h0.357 c1.308,0,2.499-0.941,2.63-2.242C61.137,10.261,59.966,9,58.5,9h-14C43.672,9,43,8.328,43,7.5S43.672,6,44.5,6h3.857 c1.308,0,2.499-0.941,2.63-2.242C51.137,2.261,49.966,1,48.5,1L15.643,1c-1.308,0-2.499,0.941-2.63,2.242 C12.863,4.739,14.034,6,15.5,6H19c1.105,0,2,0.895,2,2c0,1.105-0.895,2-2,2H6.189c-2.086,0-3.958,1.514-4.168,3.59 C1.78,15.972,3.665,18,6,18h2.5c1.933,0,3.5,1.567,3.5,3.5c0,1.933-1.567,3.5-3.5,3.5H5.189c-2.086,0-3.958,1.514-4.168,3.59 C0.78,30.972,2.665,33,5,33h17v11H6c-1.65,0-3,1.35-3,3c0,1.65,1.35,3,3,3h0c1.105,0,2,0.895,2,2c0,1.105-0.895,2-2,2H4.189 c-2.086,0-3.958,1.514-4.168,3.59C-0.22,59.972,1.665,62,4,62h53.811c2.086,0,3.958-1.514,4.168-3.59C62.22,56.028,60.335,54,58,54z"/><linearGradient id="AzYrCSCb_UGlQgdvP3xTEb" x1="32" x2="32" y1="8.925" y2="52.925" gradientUnits="userSpaceOnUse" spreadMethod="reflect"><stop offset="0" stop-color="#42d778"/><stop offset=".428" stop-color="#3dca76"/><stop offset="1" stop-color="#34b171"/></linearGradient><path fill="url(#AzYrCSCb_UGlQgdvP3xTEb)" d="M50,12H14c-2.209,0-4,1.791-4,4v36c0,2.209,1.791,4,4,4h36c2.209,0,4-1.791,4-4V16 C54,13.791,52.209,12,50,12z"/><path fill="#fff" d="M38.96,32.115l-10.905-6.809C26.725,24.476,25,25.432,25,27.001v13.998 c0,1.569,1.725,2.525,3.056,1.694l10.905-6.809C40.354,35.015,40.354,32.985,38.96,32.115z"/></svg>