<svg xmlns="http://www.w3.org/2000/svg"  viewBox="0 0 48 48" width="50px" height="50px"><linearGradient id="w3daQ6SQzzzXjooGvXIyWa" x1="13.25" x2="13.25" y1="42.071" y2="28.237" gradientTransform="matrix(-1 0 0 1 48 0)" gradientUnits="userSpaceOnUse"><stop offset=".365" stop-color="#199ae0"/><stop offset=".699" stop-color="#1898de"/><stop offset=".819" stop-color="#1691d8"/><stop offset=".905" stop-color="#1186cc"/><stop offset=".974" stop-color="#0a75bc"/><stop offset="1" stop-color="#076cb3"/></linearGradient><path fill="url(#w3daQ6SQzzzXjooGvXIyWa)" d="M45.516,25.168L29.668,41.016c-0.645,0.645-1.69,0.645-2.335,0l-3.349-3.349	c-0.645-0.645-0.645-1.69,0-2.335l15.849-15.849c0.645-0.645,1.69-0.645,2.335,0l3.349,3.349	C46.161,23.477,46.161,24.523,45.516,25.168z"/><linearGradient id="w3daQ6SQzzzXjooGvXIyWb" x1="13.588" x2="38.039" y1="35.985" y2="11.533" gradientTransform="matrix(-1 0 0 1 48 0)" gradientUnits="userSpaceOnUse"><stop offset="0" stop-color="#32bdef"/><stop offset="1" stop-color="#1ea2e4"/></linearGradient><path fill="url(#w3daQ6SQzzzXjooGvXIyWb)" d="M45.516,22.832L29.667,6.984c-0.645-0.645-1.69-0.645-2.335,0l-3.349,3.349 c-0.645,0.645-0.645,1.69,0,2.335L30.316,19H4c-1.105,0-2,0.895-2,2v6c0,1.105,0.895,2,2,2h37c0.423,0,0.845-0.161,1.167-0.484 l3.349-3.349C46.161,24.523,46.161,23.477,45.516,22.832z"/></svg>