<svg xmlns="http://www.w3.org/2000/svg"  viewBox="0 0 64 64" width="50px" height="50px"><radialGradient id="zOzJusS9bMCLOOtnm1SlCa" cx="33.211" cy="34.381" r="42.955" gradientTransform="matrix(1 0 0 -1 0 66)" gradientUnits="userSpaceOnUse"><stop offset="0" stop-color="#9ceeff"/><stop offset=".642" stop-color="#c5f5ff"/><stop offset="1" stop-color="#dcf9ff"/></radialGradient><path fill="url(#zOzJusS9bMCLOOtnm1SlCa)" d="M63.99,36.31C64.1,38.33,62.5,40,60.5,40h-9.48C51.009,40,51,40.009,51,40.02v5.96	c0,0.011,0.009,0.02,0.02,0.02h9.48c1.58,0,2.81,1.46,2.43,3.11C62.66,50.25,61.54,51,60.37,51H59.5c-0.825,0-1.5,0.675-1.5,1.5l0,0	c0,0.825,0.675,1.5,1.5,1.5l0,0c2,0,3.6,1.67,3.49,3.69C62.9,59.58,61.2,61,59.3,61H4c-2.48,0-4.43-2.26-3.92-4.82	C0.47,54.29,2.25,53,4.18,53H5c2.92,0,5.26-2.51,4.98-5.49C9.73,44.91,7.4,43,4.78,43H4c-2.48,0-4.43-2.26-3.92-4.82	C0.47,36.29,2.07,35,4,35l0,0c1.301,0,2.332-1.252,1.899-2.634C5.633,31.52,4.776,31,3.89,31H3.5c-2,0-3.6-1.67-3.49-3.69	C0.1,25.42,1.8,24,3.7,24h7.28c0.011,0,0.02-0.009,0.02-0.02v-4.96c0-0.011-0.009-0.02-0.02-0.02H3.5	c-1.577,0-2.805-1.445-2.432-3.091C1.329,14.757,2.448,14,3.63,14H4.5C5.33,14,6,13.33,6,12.5S5.33,11,4.5,11h-1	c-2,0-3.6-1.67-3.49-3.69C0.1,5.42,1.8,4,3.7,4H60c2.34,0,4.21,2.01,3.98,4.39c-0.19,2.05-2,3.56-4.04,3.61H58.5	c-2.485,0-4.5,2.015-4.5,4.5l0,0c0,2.485,0,4.5,0,4.5h6c2.48,0,4.43,2.26,3.92,4.82C63.53,27.71,61.93,29,60,29l0,0	c-1.1,0-2,0.9-2,2l0,0c0,1.1,0.9,2,2,2h0.3C62.2,33,63.9,34.42,63.99,36.31z"/><linearGradient id="zOzJusS9bMCLOOtnm1SlCb" x1="32" x2="32" y1="84.164" y2="-50.229" gradientTransform="matrix(1 0 0 -1 0 66)" gradientUnits="userSpaceOnUse"><stop offset="0" stop-color="#00d772"/><stop offset=".746" stop-color="#00b26e"/><stop offset="1" stop-color="#00b26e"/></linearGradient><path fill="url(#zOzJusS9bMCLOOtnm1SlCb)" d="M18,8h28c5.523,0,10,4.477,10,10v28c0,5.523-4.477,10-10,10H18c-5.523,0-10-4.477-10-10V18	C8,12.477,12.477,8,18,8z"/><path fill="#fff" d="M32,16c-9.941,0-18,6.716-18,15c0,4.722,2.622,8.932,6.716,11.681c0.81,0.544,1.129,1.627,0.638,2.47	c-0.003,0.005-0.006,0.011-0.009,0.016c-0.382,0.683-0.993,1.368-1.54,1.853l-0.249,0.221c-0.199,0.177-0.327,0.434-0.333,0.722	c-0.012,0.55,0.424,1.006,0.975,1.018c1.25,0.027,2.304-0.163,3.438-0.534c1.111-0.37,2.187-0.925,3.2-1.619	c0.261-0.185,0.518-0.38,0.771-0.583c0.436-0.35,0.987-0.509,1.542-0.435C30.076,45.934,31.029,46,32,46c9.941,0,18-6.716,18-15	S41.941,16,32,16z"/><linearGradient id="zOzJusS9bMCLOOtnm1SlCc" x1="17.499" x2="17.499" y1="57.703" y2=".712" gradientTransform="matrix(1 0 0 -1 0 66)" gradientUnits="userSpaceOnUse"><stop offset="0" stop-color="#00d772"/><stop offset=".287" stop-color="#00d272"/><stop offset=".603" stop-color="#00c570"/><stop offset=".897" stop-color="#00b26e"/><stop offset=".996" stop-color="#00b26e"/></linearGradient><path fill="url(#zOzJusS9bMCLOOtnm1SlCc)" d="M24,14H13.5c-0.83,0-1.5,0.67-1.5,1.5s0.67,1.5,1.5,1.5l0,0c1.47,0,2.64,1.26,2.49,2.76	c-0.13,1.3-1.32,2.24-2.63,2.24H8v-4c0-5.52,4.48-10,10-10h5.89c1.45,0,2.78,0.98,3.05,2.41C27.31,12.32,25.85,14,24,14z"/><linearGradient id="zOzJusS9bMCLOOtnm1SlCd" x1="49.921" x2="45.572" y1="73.96" y2="-12.058" gradientTransform="matrix(1 0 0 -1 0 66)" gradientUnits="userSpaceOnUse"><stop offset="0" stop-color="#00d772"/><stop offset=".746" stop-color="#00b26e"/><stop offset="1" stop-color="#00b26e"/></linearGradient><path fill="url(#zOzJusS9bMCLOOtnm1SlCd)" d="M56,37v9c0,5.52-4.48,10-10,10h-5.5c-1.47,0-2.64-1.26-2.49-2.76	c0.13-1.3,1.32-2.24,2.63-2.24H48c0.55,0,1.05-0.22,1.41-0.59C49.78,50.05,50,49.55,50,49s-0.22-1.05-0.59-1.41	C49.05,47.22,48.55,47,48,47c-1.21,0-2.18-1.08-1.97-2.34c0.16-0.98,1.08-1.66,2.08-1.66h3.39c0.83,0,1.5-0.67,1.5-1.5	S52.33,40,51.5,40l0,0c-0.83,0-1.5-0.67-1.5-1.5s0.67-1.5,1.5-1.5H56z"/></svg>