<svg xmlns="http://www.w3.org/2000/svg"  viewBox="0 0 64 64" width="50px" height="50px"><radialGradient id="07eoDaYcAeFZADPZSmm5ua" cx="32" cy="31.5" r="31.751" gradientUnits="userSpaceOnUse" spreadMethod="reflect"><stop offset="0" stop-color="#c5f1ff"/><stop offset=".35" stop-color="#cdf3ff"/><stop offset=".907" stop-color="#e4faff"/><stop offset="1" stop-color="#e9fbff"/></radialGradient><path fill="url(#07eoDaYcAeFZADPZSmm5ua)" d="M60.5,32c2.168,0,3.892-1.998,3.422-4.243C63.58,26.122,62.056,25,60.385,25L43,25v-7 l14.386,0c1.67,0,3.195-1.122,3.537-2.757C61.392,12.997,59.668,11,57.5,11H46c-1.105,0-2-0.895-2-2v0c0-1.105,0.895-2,2-2l4.385,0 c1.67,0,3.195-1.122,3.537-2.757C54.392,1.998,52.668,0,50.5,0L10.615,0C8.944,0,7.42,1.122,7.078,2.757C6.608,5.002,8.332,7,10.5,7 H13c1.105,0,2,0.895,2,2v0c0,1.105-0.895,2-2,2l-6.385,0c-1.67,0-3.195,1.122-3.537,2.757C2.608,16.002,4.332,18,6.5,18H22l0,15 L3.614,33c-1.67,0-3.195,1.122-3.537,2.757C-0.392,38.002,1.332,40,3.5,40H4c1.105,0,2,0.895,2,2v0c0,1.105-0.895,2-2,2H3.615 c-1.67,0-3.195,1.122-3.537,2.757C-0.392,49.002,1.332,51,3.5,51h21.115C25.932,51,27,52.068,27,53.385v0.229 C27,54.932,25.932,56,24.615,56l-5,0c-1.67,0-3.195,1.122-3.537,2.757C15.608,61.002,17.332,63,19.5,63l38.885,0 c1.67,0,3.195-1.122,3.537-2.757C62.392,57.998,60.668,56,58.5,56h-3.115C54.068,56,53,54.932,53,53.615v-0.229 C53,52.068,54.068,51,55.385,51h0c1.67,0,3.195-1.122,3.537-2.757C59.392,45.998,57.668,44,55.5,44H43l0-12H60.5z"/><linearGradient id="07eoDaYcAeFZADPZSmm5ub" x1="32" x2="32" y1="9" y2="59" gradientUnits="userSpaceOnUse" spreadMethod="reflect"><stop offset="0" stop-color="#50dff4"/><stop offset=".281" stop-color="#4ad8f1"/><stop offset=".677" stop-color="#3ac6e9"/><stop offset="1" stop-color="#29b2e1"/></linearGradient><path fill="url(#07eoDaYcAeFZADPZSmm5ub)" d="M52,9H12c-2.761,0-5,2.239-5,5v30v12.35C7,57.814,8.186,59,9.65,59h0.007 c0.844,0,1.638-0.402,2.137-1.083l5.041-6.874C17.777,49.759,19.274,49,20.867,49H52c2.761,0,5-2.239,5-5V14 C57,11.239,54.761,9,52,9z"/><linearGradient id="07eoDaYcAeFZADPZSmm5uc" x1="14.5" x2="14.5" y1="24" y2="9" gradientUnits="userSpaceOnUse" spreadMethod="reflect"><stop offset="0" stop-color="#65ddf3"/><stop offset=".053" stop-color="#65def3"/><stop offset="1" stop-color="#6ae4f6"/></linearGradient><path fill="url(#07eoDaYcAeFZADPZSmm5uc)" d="M15.5,24H7V14c0-2.761,2.239-5,5-5h7.5c1.381,0,2.5,1.119,2.5,2.5v0 c0,1.381-1.119,2.5-2.5,2.5h-5c-1.381,0-2.5,1.119-2.5,2.5v0c0,1.381,1.119,2.5,2.5,2.5h1c1.381,0,2.5,1.119,2.5,2.5v0 C18,22.881,16.881,24,15.5,24z"/><linearGradient id="07eoDaYcAeFZADPZSmm5ud" x1="32" x2="32" y1="13" y2="27.154" gradientUnits="userSpaceOnUse" spreadMethod="reflect"><stop offset="0" stop-color="#a4a4a4"/><stop offset=".63" stop-color="#7f7f7f"/><stop offset="1" stop-color="#6f6f6f"/><stop offset="1" stop-color="#6f6f6f"/></linearGradient><path fill="url(#07eoDaYcAeFZADPZSmm5ud)" d="M32,13c-4.418,0-8,3.582-8,8v6.154h3v-6c0-2.761,2.239-5,5-5s5,2.239,5,5v6h3V21 C40,16.582,36.418,13,32,13z"/><linearGradient id="07eoDaYcAeFZADPZSmm5ue" x1="32" x2="32" y1="43" y2="24" gradientUnits="userSpaceOnUse" spreadMethod="reflect"><stop offset="0" stop-color="#ff9757"/><stop offset="1" stop-color="#ffb65b"/><stop offset="1" stop-color="#ffb65b"/></linearGradient><path fill="url(#07eoDaYcAeFZADPZSmm5ue)" d="M41,43H23c-1.657,0-3-1.343-3-3v-9c0-3.866,3.134-7,7-7h10c3.866,0,7,3.134,7,7v9 C44,41.657,42.657,43,41,43z"/><linearGradient id="07eoDaYcAeFZADPZSmm5uf" x1="32" x2="32" y1="29" y2="39" gradientUnits="userSpaceOnUse" spreadMethod="reflect"><stop offset="0" stop-color="#a4a4a4"/><stop offset=".63" stop-color="#7f7f7f"/><stop offset="1" stop-color="#6f6f6f"/><stop offset="1" stop-color="#6f6f6f"/></linearGradient><path fill="url(#07eoDaYcAeFZADPZSmm5uf)" d="M35,32c0-1.657-1.343-3-3-3s-3,1.343-3,3c0,0.885,0.39,1.672,1,2.221V37c0,1.1,0.9,2,2,2 s2-0.9,2-2v-2.779C34.61,33.672,35,32.885,35,32z"/></svg>