<svg xmlns="http://www.w3.org/2000/svg"  viewBox="0 0 48 48" width="50px" height="50px"><path fill="#50e6ff" d="M4,38V15h40v23c0,1.1-0.9,2-2,2H6C4.9,40,4,39.1,4,38z"/><path d="M44,26.567l-11.529,2.506c-0.461,0.109-1.527,0.534-1.471,2.105V40h4v-3.522l9-1.956V26.567z" opacity=".05"/><path d="M44,27.079l-11.414,2.481c-0.424,0.1-1.128,0.439-1.086,1.618V40h3v-3.925L44,34.01V27.079z" opacity=".07"/><linearGradient id="VD9~3ezT6rmm9G0htl15La" x1="4.614" x2="42.936" y1="-198.259" y2="-190.467" gradientTransform="translate(0 206)" gradientUnits="userSpaceOnUse"><stop offset="0" stop-color="#0077d2"/><stop offset="1" stop-color="#0b59a2"/></linearGradient><path fill="url(#VD9~3ezT6rmm9G0htl15La)" d="M44,10v5H4v-5c0-1.1,0.9-2,2-2h36C43.1,8,44,8.9,44,10z"/><linearGradient id="VD9~3ezT6rmm9G0htl15Lb" x1="6.751" x2="8.032" y1="-195.584" y2="-193.731" gradientTransform="translate(0 206)" gradientUnits="userSpaceOnUse"><stop offset="0" stop-color="#75daff"/><stop offset="1" stop-color="#49bef1"/></linearGradient><circle cx="7.5" cy="11.5" r="1.5" fill="url(#VD9~3ezT6rmm9G0htl15Lb)"/><linearGradient id="VD9~3ezT6rmm9G0htl15Lc" x1="11.751" x2="13.032" y1="-195.584" y2="-193.731" gradientTransform="translate(0 206)" gradientUnits="userSpaceOnUse"><stop offset="0" stop-color="#75daff"/><stop offset="1" stop-color="#49bef1"/></linearGradient><circle cx="12.5" cy="11.5" r="1.5" fill="url(#VD9~3ezT6rmm9G0htl15Lc)"/><linearGradient id="VD9~3ezT6rmm9G0htl15Ld" x1="16.751" x2="18.032" y1="-195.584" y2="-193.731" gradientTransform="translate(0 206)" gradientUnits="userSpaceOnUse"><stop offset="0" stop-color="#75daff"/><stop offset="1" stop-color="#49bef1"/></linearGradient><circle cx="17.5" cy="11.5" r="1.5" fill="url(#VD9~3ezT6rmm9G0htl15Ld)"/><polygon fill="#cc1b4e" points="46,27.664 34,30.272 34,35.672 46,33.064"/><path fill="#ed3675" d="M46.596,27.027l-13.895,3.02C31.901,30.236,32,31,32,31.178V44l2,0.76V32.79l12-2.517V43l2,0.5	V28.159C48,27.42,47.318,26.87,46.596,27.027z"/><circle cx="44.5" cy="43.5" r="3.5" fill="#ed3675"/><circle cx="30.5" cy="44.5" r="3.5" fill="#ed3675"/></svg>