<svg xmlns="http://www.w3.org/2000/svg"  viewBox="0 0 64 64" width="50px" height="50px"><radialGradient id="qleorMOLqjiXYpxSjD5yKa" cx="31.5" cy="32" r="28.803" gradientUnits="userSpaceOnUse" spreadMethod="reflect"><stop offset="0" stop-color="#afeeff"/><stop offset=".193" stop-color="#bbf1ff"/><stop offset=".703" stop-color="#d7f8ff"/><stop offset="1" stop-color="#e1faff"/></radialGradient><path fill="url(#qleorMOLqjiXYpxSjD5yKa)" d="M52,27l4.241,0c2.868,0,5.442-2.082,5.731-4.936C62.302,18.789,59.711,16,56.5,16l-2.857,0 c-1.308,0-2.499-0.941-2.63-2.242C50.863,12.261,52.034,11,53.5,11H54c1.657,0,3-1.343,3-3v0c0-1.657-1.343-3-3-3H21.5l-8.844,0 c-1.179,0-2.304,0.74-2.581,1.886C9.677,8.523,10.925,10,12.5,10h0.393c0.996,0,1.92,0.681,2.08,1.664 C15.176,12.917,14.215,14,13,14l-2.812,0c-1.928,0-3.714,1.278-4.102,3.167C5.56,19.727,7.527,22,10,22l1.357,0 c1.308,0,2.499,0.941,2.63,2.242C14.137,25.739,12.966,27,11.5,27l-5.788,0c-2.347,0-4.453,1.704-4.689,4.038 C0.752,33.718,2.873,36,5.5,36h10.393c0.996,0,1.92,0.681,2.08,1.664C18.176,38.917,17.215,40,16,40l-0.386,0 c-1.67,0-3.195,1.122-3.537,2.757C11.608,45.002,13.332,47,15.5,47l3.857,0c1.308,0,2.499,0.941,2.63,2.242 C22.137,50.739,20.966,52,19.5,52h-0.886c-1.67,0-3.195,1.122-3.537,2.757C14.608,57.002,16.332,59,18.5,59h26 c1.933,0,3.5-1.567,3.5-3.5v0c0-1.933-1.567-3.5-3.5-3.5h0c-0.828,0-1.5-0.672-1.5-1.5s0.672-1.5,1.5-1.5l4.339,0 c1.021,0,1.988-0.687,2.139-1.697C51.161,46.07,50.2,45,49,45h-0.5c-0.828,0-1.5-0.672-1.5-1.5s0.672-1.5,1.5-1.5l5.788,0 c2.347,0,4.453-1.704,4.689-4.038C59.247,35.282,57.127,33,54.5,33l-2.33,0c-1.624,0-3.081-1.216-3.165-2.839 C48.914,28.431,50.29,27,52,27z"/><radialGradient id="qleorMOLqjiXYpxSjD5yKb" cx="55" cy="47" r="2" gradientUnits="userSpaceOnUse" spreadMethod="reflect"><stop offset="0" stop-color="#e9ce8e"/><stop offset="0" stop-color="#e9ce8e"/><stop offset=".241" stop-color="#f1dca9"/><stop offset=".521" stop-color="#f9e8c0"/><stop offset=".782" stop-color="#fdefcf"/><stop offset="1" stop-color="#fff2d4"/></radialGradient><path fill="url(#qleorMOLqjiXYpxSjD5yKb)" d="M55 45A2 2 0 1 0 55 49A2 2 0 1 0 55 45Z"/><radialGradient id="qleorMOLqjiXYpxSjD5yKc" cx="12.25" cy="31.125" r="23.626" fx="35.876" fy="31.032" gradientUnits="userSpaceOnUse" spreadMethod="reflect"><stop offset="0" stop-color="#afeeff"/><stop offset=".193" stop-color="#bbf1ff"/><stop offset=".703" stop-color="#d7f8ff"/><stop offset="1" stop-color="#e1faff"/></radialGradient><path fill="url(#qleorMOLqjiXYpxSjD5yKc)" d="M5.5 5A2.5 2.5 0 1 0 5.5 10A2.5 2.5 0 1 0 5.5 5Z"/><linearGradient id="qleorMOLqjiXYpxSjD5yKd" x1="32.001" x2="32.001" y1="53.501" y2="10.5" gradientUnits="userSpaceOnUse" spreadMethod="reflect"><stop offset="0" stop-color="#37ab6a"/><stop offset=".422" stop-color="#39b66f"/><stop offset="1" stop-color="#3ac074"/></linearGradient><path fill="url(#qleorMOLqjiXYpxSjD5yKd)" d="M48.996,53.501c-0.676,0-1.362-0.153-2.009-0.476l-34-17C11.463,35.263,10.5,33.704,10.5,32 c0-1.704,0.963-3.263,2.487-4.025l34-17c2.226-1.109,4.926-0.21,6.038,2.013c1.111,2.223,0.21,4.926-2.013,6.038L25.062,32 l25.95,12.975c2.223,1.112,3.124,3.815,2.013,6.038C52.236,52.589,50.647,53.501,48.996,53.501z"/><linearGradient id="qleorMOLqjiXYpxSjD5yKe" x1="15" x2="15" y1="23" y2="41" gradientUnits="userSpaceOnUse" spreadMethod="reflect"><stop offset="0" stop-color="#62de8f"/><stop offset=".478" stop-color="#5dd18d"/><stop offset="1" stop-color="#56be89"/></linearGradient><path fill="url(#qleorMOLqjiXYpxSjD5yKe)" d="M24,32c0,4.972-4.028,9-9,9s-9-4.028-9-9s4.028-9,9-9S24,27.028,24,32z"/><linearGradient id="qleorMOLqjiXYpxSjD5yKf" x1="49" x2="49" y1="6" y2="24" gradientUnits="userSpaceOnUse" spreadMethod="reflect"><stop offset="0" stop-color="#62de8f"/><stop offset=".478" stop-color="#5dd18d"/><stop offset="1" stop-color="#56be89"/></linearGradient><path fill="url(#qleorMOLqjiXYpxSjD5yKf)" d="M58,15c0,4.972-4.028,9-9,9s-9-4.028-9-9s4.028-9,9-9S58,10.028,58,15z"/><linearGradient id="qleorMOLqjiXYpxSjD5yKg" x1="49" x2="49" y1="40" y2="58" gradientUnits="userSpaceOnUse" spreadMethod="reflect"><stop offset="0" stop-color="#62de8f"/><stop offset=".478" stop-color="#5dd18d"/><stop offset="1" stop-color="#56be89"/></linearGradient><path fill="url(#qleorMOLqjiXYpxSjD5yKg)" d="M58,49c0,4.972-4.028,9-9,9s-9-4.028-9-9s4.028-9,9-9S58,44.028,58,49z"/></svg>