<svg xmlns="http://www.w3.org/2000/svg"  viewBox="0 0 48 48" width="50px" height="50px"><linearGradient id="pa6zoXJpYvnL2wKDvc1Jaa" x1="7.454" x2="32.757" y1="12.078" y2="37.381" gradientUnits="userSpaceOnUse"><stop offset="0" stop-color="#0077d2"/><stop offset="1" stop-color="#0b59a2"/></linearGradient><path fill="url(#pa6zoXJpYvnL2wKDvc1Jaa)" d="M33.226,12.408C29.984,9.258,25.567,7.31,20.69,7.31c-9.94,0-18,8.06-18,18s8.06,18,18,18	c4.877,0,9.294-1.948,12.536-5.098c0.019-0.018,0.04-0.03,0.059-0.048l0.059-0.059c0.048-0.047,0.095-0.094,0.142-0.142	l11.239-11.239c0.781-0.781,0.781-2.047,0-2.828L33.486,12.657c-0.047-0.048-0.094-0.095-0.142-0.142l-0.059-0.059	C33.266,12.437,33.244,12.425,33.226,12.408z"/><path d="M14,34.811c-1.103,0-2-0.897-2-2v-10c0-1.103,0.897-2,2-2c0-3.859,3.14-7,7-7s7,3.141,7,7	c1.103,0,2,0.897,2,2v10c0,1.103-0.897,2-2,2H14z M24,20.811c0-1.654-1.346-3-3-3s-3,1.346-3,3H24z" opacity=".05"/><path d="M14,34.311c-0.827,0-1.5-0.673-1.5-1.5v-10c0-0.827,0.673-1.5,1.5-1.5h0.5v-0.5	c0-3.584,2.916-6.5,6.5-6.5s6.5,2.916,6.5,6.5v0.5H28c0.827,0,1.5,0.673,1.5,1.5v10c0,0.827-0.673,1.5-1.5,1.5H14z M24.5,21.311	v-0.5c0-1.93-1.57-3.5-3.5-3.5s-3.5,1.57-3.5,3.5v0.5H24.5z" opacity=".07"/><linearGradient id="pa6zoXJpYvnL2wKDvc1Jab" x1="21" x2="21" y1="22.819" y2="15.603" gradientUnits="userSpaceOnUse"><stop offset="0" stop-color="#92a3b0"/><stop offset=".099" stop-color="#a3b5c4"/><stop offset=".174" stop-color="#aec2d1"/><stop offset=".276" stop-color="#b2c6d6"/></linearGradient><path fill="url(#pa6zoXJpYvnL2wKDvc1Jab)" d="M27,23.81h-2v-3c0-2.206-1.794-4-4-4s-4,1.794-4,4v3h-2v-3c0-3.309,2.691-6,6-6s6,2.691,6,6	V23.81z"/><path fill="#c48c00" d="M28,33.81H14c-0.552,0-1-0.448-1-1v-2h16v2C29,33.362,28.552,33.81,28,33.81z"/><rect width="16" height="3" x="13" y="27.81" fill="#e3a600"/><rect width="16" height="3" x="13" y="24.81" fill="#edbe00"/><path fill="#fad500" d="M29,24.81H13v-2c0-0.552,0.448-1,1-1h14c0.552,0,1,0.448,1,1V24.81z"/><linearGradient id="pa6zoXJpYvnL2wKDvc1Jac" x1="21" x2="21" y1="-699.197" y2="-692.766" gradientTransform="matrix(1 0 0 -1 0 -668)" gradientUnits="userSpaceOnUse"><stop offset="0" stop-color="#4b4b4b"/><stop offset="1" stop-color="#3b3b3b"/></linearGradient><path fill="url(#pa6zoXJpYvnL2wKDvc1Jac)" d="M23,26.81c0-1.105-0.895-2-2-2s-2,0.895-2,2c0,0.839,0.518,1.555,1.25,1.852v1.398	c0,0.414,0.336,0.75,0.75,0.75s0.75-0.336,0.75-0.75v-1.398C22.482,28.365,23,27.649,23,26.81z"/></svg>