<svg xmlns="http://www.w3.org/2000/svg"  viewBox="0 0 48 48" width="50px" height="50px"><polygon fill="#166fd2" points="31.989,22.292 31,24 9,24 9,10.159 12.449,8.439"/><circle cx="11.159" cy="10.159" r="2.159" fill="#166fd2"/><polygon fill="#105cbd" points="31.989,25.708 31,24 9,24 9,37.841 12.449,39.561"/><circle cx="11.159" cy="37.841" r="2.159" fill="#105cbd"/><path fill="#166fd2" d="M39,10c0-1.105-0.895-2-2-2h-4c-1.105,0-2,0.895-2,2v14h8V10z"/><path fill="#105cbd" d="M31,38c0,1.105,0.895,2,2,2h4c1.105,0,2-0.895,2-2V24h-8V38z"/></svg>