<svg xmlns="http://www.w3.org/2000/svg"  viewBox="0 0 48 48" width="50px" height="50px"><linearGradient id="CEaFVgZrgXmZ4Gl19N~9xa" x1="4" x2="44" y1="-586" y2="-586" gradientTransform="matrix(1 0 0 -1 0 -562)" gradientUnits="userSpaceOnUse"><stop offset="0" stop-color="#1d59b3"/><stop offset="1" stop-color="#195bbc"/></linearGradient><path fill="url(#CEaFVgZrgXmZ4Gl19N~9xa)" d="M42,7H6C4.895,7,4,7.895,4,9v30c0,1.105,0.895,2,2,2h36c1.105,0,2-0.895,2-2V9	C44,7.895,43.105,7,42,7z"/><path d="M22,24v10c0,1.105,0.895,2,2,2h14c1.105,0,2-0.895,2-2V24	c0-1.105-0.895-2-2-2H24C22.895,22,22,22.895,22,24z" opacity=".05"/><path d="M38,35.5H24c-0.828,0-1.5-0.672-1.5-1.5V24c0-0.828,0.672-1.5,1.5-1.5h14	c0.828,0,1.5,0.672,1.5,1.5v10C39.5,34.828,38.828,35.5,38,35.5z" opacity=".07"/><linearGradient id="CEaFVgZrgXmZ4Gl19N~9xb" x1="31" x2="31" y1="-596.951" y2="-585.6" gradientTransform="matrix(1 0 0 -1 0 -562)" gradientUnits="userSpaceOnUse"><stop offset="0" stop-color="#42a3f2"/><stop offset="1" stop-color="#42a4eb"/></linearGradient><path fill="url(#CEaFVgZrgXmZ4Gl19N~9xb)" d="M24,35h14c0.552,0,1-0.448,1-1V24c0-0.552-0.448-1-1-1H24c-0.552,0-1,0.448-1,1v10	C23,34.552,23.448,35,24,35z"/></svg>