<svg xmlns="http://www.w3.org/2000/svg"  viewBox="0 0 64 64" width="50px" height="50px"><radialGradient id="Y1Y8i0fqD6wmL6QZerJn1a" cx="32" cy="31.5" r="30.775" gradientUnits="userSpaceOnUse" spreadMethod="reflect"><stop offset="0" stop-color="#f4e9c3"/><stop offset=".219" stop-color="#f8eecd"/><stop offset=".644" stop-color="#fdf4dc"/><stop offset="1" stop-color="#fff6e1"/></radialGradient><path fill="url(#Y1Y8i0fqD6wmL6QZerJn1a)" d="M64,24L64,24c-0.009-2.764-2.253-5-5.017-5H56c-2.761,0-5-2.238-5-5v0c0-2.762,2.238-5,5-5 h0.565C58.48,9,60,7.48,60,5.605L60,5.5C60,3.567,58.433,2,56.5,2l-46,0C8.574,2,7.01,3.556,7,5.483L7,5.5 C6.99,7.43,8.553,9,10.483,9H11c2.209,0,4,1.791,4,4v0c0,2.209-1.791,4-4,4H5c-2.761,0-5,2.239-5,5v0c0,2.761,2.239,5,5,5h1 c2.209,0,4,1.791,4,4v0c0,2.209-1.791,4-4,4H5.5C2.462,35,0,37.462,0,40.5v0C0,43.538,2.462,46,5.5,46H16c1.657,0,3,1.343,3,3v0 c0,1.657-1.343,3-3,3h-0.5c-2.485,0-4.5,2.015-4.5,4.5v0c0,2.485,2.015,4.5,4.5,4.5H33h22c2.209,0,4-1.791,4-4v0 c0-2.209-1.791-4-4-4h-1c-2.209,0-4-1.791-4-4v0c0-2.209,1.791-4,4-4h6c2.209,0,4-1.791,4-4v0c0-2.209-1.791-4-4-4h-1 c-2.209,0-4-1.791-4-4v0c0-2.209,1.791-4,4-4h0.017C61.775,29,64.009,26.759,64,24z"/><linearGradient id="Y1Y8i0fqD6wmL6QZerJn1b" x1="43.5" x2="43.5" y1="43" y2="19.999" gradientUnits="userSpaceOnUse" spreadMethod="reflect"><stop offset="0" stop-color="#155cde"/><stop offset=".278" stop-color="#1f7fe5"/><stop offset=".569" stop-color="#279ceb"/><stop offset=".82" stop-color="#2cafef"/><stop offset="1" stop-color="#2eb5f0"/></linearGradient><path fill="url(#Y1Y8i0fqD6wmL6QZerJn1b)" d="M42.499,43c-0.317,0-0.637-0.1-0.908-0.307c-0.659-0.502-0.786-1.443-0.284-2.102 C43.043,38.313,44,35.262,44,32c0-3.594-1.28-6.962-3.603-9.484c-0.562-0.609-0.522-1.558,0.087-2.119 c0.609-0.562,1.559-0.523,2.119,0.087C45.438,23.561,47,27.651,47,32c0,3.915-1.174,7.612-3.307,10.409 C43.398,42.796,42.951,43,42.499,43z"/><linearGradient id="Y1Y8i0fqD6wmL6QZerJn1c" x1="11.5" x2="11.5" y1="4.983" y2="43.484" gradientUnits="userSpaceOnUse" spreadMethod="reflect"><stop offset="0" stop-color="#a4a4a4"/><stop offset=".63" stop-color="#7f7f7f"/><stop offset="1" stop-color="#6f6f6f"/><stop offset="1" stop-color="#6f6f6f"/></linearGradient><path fill="url(#Y1Y8i0fqD6wmL6QZerJn1c)" d="M20,43h-6C7.925,43,3,38.075,3,32v0c0-6.075,4.925-11,11-11h6V43z"/><linearGradient id="Y1Y8i0fqD6wmL6QZerJn1d" x1="28.5" x2="28.5" y1="12.157" y2="52.463" gradientUnits="userSpaceOnUse" spreadMethod="reflect"><stop offset="0" stop-color="#adadad"/><stop offset=".476" stop-color="#9a9a9a"/><stop offset="1" stop-color="#8a8a8a"/></linearGradient><path fill="url(#Y1Y8i0fqD6wmL6QZerJn1d)" d="M32.26,11.625L20,21v10v12.013l12.26,9.375c1.94,1.484,4.74,0.1,4.74-2.343V31V13.968 C37,11.525,34.2,10.141,32.26,11.625z"/></svg>