<svg xmlns="http://www.w3.org/2000/svg"  viewBox="0 0 48 48" width="50px" height="50px"><path fill="#50e6ff" d="M33.755,6H8C6.895,6,6,6.895,6,8v32c0,1.105,0.895,2,2,2h28V8.245C36,7.005,34.995,6,33.755,6z"/><linearGradient id="owFLIGn6kRa3uLgrqB9B6a" x1="25" x2="42" y1="24" y2="24" gradientUnits="userSpaceOnUse"><stop offset="0" stop-color="#1951a8"/><stop offset=".175" stop-color="#1955b0"/><stop offset=".505" stop-color="#195ab9"/><stop offset="1" stop-color="#195bbc"/></linearGradient><path fill="url(#owFLIGn6kRa3uLgrqB9B6a)" d="M25,6h15c1.105,0,2,0.895,2,2v32c0,1.105-0.895,2-2,2H25V6z"/><path fill="#057093" d="M10.667,11H9.333C9.149,11,9,10.851,9,10.667V9.333C9,9.149,9.149,9,9.333,9h1.333	C10.851,9,11,9.149,11,9.333v1.333C11,10.851,10.851,11,10.667,11z"/><path fill="#057093" d="M21.567,11h-8.134C13.194,11,13,10.806,13,10.567V9.433C13,9.194,13.194,9,13.433,9h8.134	C21.806,9,22,9.194,22,9.433v1.134C22,10.806,21.806,11,21.567,11z"/><path fill="#057093" d="M10.667,15H9.333C9.149,15,9,14.851,9,14.667v-1.333C9,13.149,9.149,13,9.333,13h1.333	C10.851,13,11,13.149,11,13.333v1.333C11,14.851,10.851,15,10.667,15z"/><path fill="#057093" d="M21.567,15h-8.134C13.194,15,13,14.806,13,14.567v-1.134C13,13.194,13.194,13,13.433,13h8.134	C21.806,13,22,13.194,22,13.433v1.134C22,14.806,21.806,15,21.567,15z"/><path fill="#057093" d="M10.667,19H9.333C9.149,19,9,18.851,9,18.667v-1.333C9,17.149,9.149,17,9.333,17h1.333	C10.851,17,11,17.149,11,17.333v1.333C11,18.851,10.851,19,10.667,19z"/><path fill="#057093" d="M21.567,19h-8.134C13.194,19,13,18.806,13,18.567v-1.134C13,17.194,13.194,17,13.433,17h8.134	C21.806,17,22,17.194,22,17.433v1.134C22,18.806,21.806,19,21.567,19z"/><path fill="#057093" d="M10.667,23H9.333C9.149,23,9,22.851,9,22.667v-1.333C9,21.149,9.149,21,9.333,21h1.333	C10.851,21,11,21.149,11,21.333v1.333C11,22.851,10.851,23,10.667,23z"/><path fill="#057093" d="M21.567,23h-8.134C13.194,23,13,22.806,13,22.567v-1.134C13,21.194,13.194,21,13.433,21h8.134	C21.806,21,22,21.194,22,21.433v1.134C22,22.806,21.806,23,21.567,23z"/><path d="M28.427,21.316c0.383,0,0.745-0.143,1.021-0.401l4.064-3.819c0.308-0.29,0.478-0.679,0.478-1.096	s-0.169-0.806-0.476-1.095l-4.066-3.82c-0.276-0.259-0.638-0.401-1.021-0.401c-0.734,0-1.341,0.509-1.442,1.209l-0.015,0.177	l-0.001,7.862l0.014,0.159C27.086,20.81,27.692,21.316,28.427,21.316z" opacity=".05"/><path d="M28.427,20.816c0.255,0,0.497-0.095,0.679-0.266l4.064-3.819c0.207-0.194,0.32-0.454,0.32-0.731	s-0.113-0.537-0.319-0.731l-4.065-3.819c-0.182-0.171-0.423-0.266-0.679-0.266c-0.483,0-0.882,0.328-0.947,0.78l-0.011,0.143v7.825	l0.011,0.107C27.545,20.488,27.943,20.816,28.427,20.816L28.427,20.816z" opacity=".07"/><path fill="#fff" d="M27.974,12.036c0.05-0.347,0.526-0.47,0.789-0.222l4.064,3.819c0.108,0.101,0.162,0.234,0.162,0.367	c0,0.133-0.054,0.266-0.162,0.367l-4.064,3.819c-0.263,0.248-0.739,0.125-0.789-0.222c-0.003-0.023-0.005-0.047-0.005-0.071v-7.787	C27.969,12.082,27.971,12.059,27.974,12.036z"/></svg>