<svg xmlns="http://www.w3.org/2000/svg"  viewBox="0 0 64 64" width="50px" height="50px"><radialGradient id="bq7p1RhS91wSmWquWWkXGa" cx="33" cy="32.5" r="31.751" gradientTransform="matrix(-1 0 0 1 65 0)" gradientUnits="userSpaceOnUse" spreadMethod="reflect"><stop offset="0" stop-color="#afeeff"/><stop offset=".193" stop-color="#bbf1ff"/><stop offset=".703" stop-color="#d7f8ff"/><stop offset="1" stop-color="#e1faff"/></radialGradient><path fill="url(#bq7p1RhS91wSmWquWWkXGa)" d="M3.499,19.008h5.09c1.1,0,2-0.9,2-2c0-1.1-0.9-2-2-2h-2c-1.85,0-3.32-1.69-2.94-3.6 c0.28-1.43,1.62-2.4,3.07-2.4L19.5,9C20.33,9,21,8.33,21,7.5C21,6.67,20.33,6,19.5,6h-5.91c-1.14,0-2.2-0.72-2.5-1.82 C10.64,2.52,11.9,1,13.5,1h43.91c1.14,0,2.2,0.72,2.5,1.82C60.36,4.48,59.1,6,57.5,6h-3c-0.69,0-1.32,0.28-1.77,0.73 C52.28,7.18,52,7.81,52,8.5c0,1.38,1.12,2.5,2.5,2.5H61c1.65,0,3,1.35,3,3c0,1.65-1.35,3-3,3H49c0,0,0,27,0.05,27H59.5 c2.475,0,4.5,2.025,4.5,4.5c0,2.475-2.025,4.5-4.5,4.5h-19c-1.38,0-2.5,1.12-2.5,2.5s1.12,2.5,2.5,2.5H46c1.66,0,3,1.34,3,3 c0,1.66-1.34,3-3,3H3c-1.66,0-3-1.34-3-3c0-1.66,1.34-3,3-3h6.5c1.38,0,2.5-1.12,2.5-2.5S10.88,53,9.5,53h-4 C3.025,53,1,50.975,1,48.5C1,46.025,3.025,44,5.5,44H18V24L3.589,24.008c-1.14,0-2.2-0.72-2.5-1.82 C0.649,20.527,1.909,19.008,3.499,19.008z"/><linearGradient id="bq7p1RhS91wSmWquWWkXGb" x1="32" x2="32" y1="51" y2="13" gradientUnits="userSpaceOnUse" spreadMethod="reflect"><stop offset="0" stop-color="#ffc050"/><stop offset="1" stop-color="#ffbd85"/></linearGradient><path fill="url(#bq7p1RhS91wSmWquWWkXGb)" d="M52,32c0-2.471,1.793-4.524,4.149-4.928C56.636,26.989,57,26.583,57,26.089L57,18 c0-2.761-2.239-5-5-5H12c-2.761,0-5,2.239-5,5l0,8.089c0,0.494,0.364,0.9,0.851,0.983C10.207,27.476,12,29.529,12,32 s-1.793,4.524-4.149,4.928C7.364,37.011,7,37.417,7,37.911L7,46c0,2.761,2.239,5,5,5h40c2.761,0,5-2.239,5-5l0-8.089 c0-0.494-0.364-0.9-0.851-0.983C53.793,36.524,52,34.471,52,32z"/><linearGradient id="bq7p1RhS91wSmWquWWkXGc" x1="18.5" x2="18.5" y1="35" y2="13" gradientUnits="userSpaceOnUse" spreadMethod="reflect"><stop offset="0" stop-color="#ffc96a"/><stop offset=".004" stop-color="#ffc96a"/><stop offset=".578" stop-color="#ffc887"/><stop offset="1" stop-color="#ffc797"/><stop offset="1" stop-color="#ffc797"/></linearGradient><path fill="url(#bq7p1RhS91wSmWquWWkXGc)" d="M26.5,13H12c-2.761,0-5,2.239-5,5v8.089c0,0.494,0.364,0.9,0.851,0.983 C10.207,27.476,12,29.529,12,32c0,1.13-0.388,2.163-1.02,3H21.5c1.933,0,3.5-1.567,3.5-3.5S23.433,28,21.5,28H20 c-2.209,0-4-1.791-4-4c0-2.209,1.791-4,4-4h6.5c1.933,0,3.5-1.567,3.5-3.5S28.433,13,26.5,13z"/><path fill="#fff" d="M43,23c0,1.105-0.895,2-2,2s-2-0.895-2-2s0.895-2,2-2S43,21.895,43,23z M41,15c-1.105,0-2,0.895-2,2 s0.895,2,2,2s2-0.895,2-2S42.105,15,41,15z M41,27c-1.105,0-2,0.895-2,2s0.895,2,2,2s2-0.895,2-2S42.105,27,41,27z M41,39 c-1.105,0-2,0.895-2,2s0.895,2,2,2s2-0.895,2-2S42.105,39,41,39z M41,33c-1.105,0-2,0.895-2,2s0.895,2,2,2s2-0.895,2-2 S42.105,33,41,33z M41,45c-1.105,0-2,0.895-2,2s0.895,2,2,2s2-0.895,2-2S42.105,45,41,45z"/></svg>