<svg xmlns="http://www.w3.org/2000/svg"  viewBox="0 0 64 64" width="50px" height="50px"><radialGradient id="MfftXBLCyScvEyM4nGJJRa" cx="32" cy="31.5" r="31.259" gradientUnits="userSpaceOnUse" spreadMethod="reflect"><stop offset="0" stop-color="#c5f1ff"/><stop offset=".35" stop-color="#cdf3ff"/><stop offset=".907" stop-color="#e4faff"/><stop offset="1" stop-color="#e9fbff"/></radialGradient><path fill="url(#MfftXBLCyScvEyM4nGJJRa)" d="M60.5,43h-4.357c0,0,0,0-0.001,0H55.5c-1.381,0-2.5-1.119-2.5-2.5v0 c0-1.381,1.119-2.5,2.5-2.5h0.501c1.848,0,3.319-1.693,2.939-3.605C58.657,32.972,57.32,32,55.869,32H42v-3h18 c2.335,0,4.22-2.028,3.979-4.41c-0.21-2.075-2.082-3.59-4.168-3.59l-6.169,0c-1.308,0-2.499-0.941-2.63-2.242 C50.863,17.261,52.034,16,53.5,16l3.33,0c1.624,0,3.081-1.216,3.166-2.839C60.086,11.431,58.71,10,57,10H46.107 c-0.996,0-1.92-0.681-2.08-1.664C43.824,7.083,44.785,6,46,6l2.357,0c1.308,0,2.499-0.941,2.63-2.242C51.137,2.261,49.966,1,48.5,1 L15.643,1c-1.308,0-2.499,0.941-2.63,2.242C12.863,4.739,14.034,6,15.5,6l3.393,0c0.996,0,1.92,0.681,2.08,1.664 C21.176,8.917,20.215,10,19.001,10L5.236,10c-2.607,0-4.947,1.893-5.21,4.487C-0.275,17.465,2.081,20,5,20h13.342 c0.202,0.398,0.326,0.84,0.351,1.312C18.799,23.33,17.193,25,15.198,25L4.189,25c-2.086,0-3.958,1.514-4.168,3.59 C-0.22,30.972,1.665,33,4,33h14v11H6.132c-1.451,0-2.789,0.972-3.071,2.395C2.681,48.307,4.152,50,6,50 c1.215,0,2.176,1.083,1.973,2.336C7.813,53.319,6.889,54,5.893,54H4.189c-2.086,0-3.958,1.514-4.168,3.59 C-0.22,59.972,1.665,62,4,62l53.811,0c1.899,0,3.858-1.507,4.142-3.385c0.369-2.434-1.497-4.554-3.85-4.614 c-0.809-0.021-1.608-0.396-1.923-1.141C55.564,51.401,56.618,50,58,50l2.386,0c1.67,0,3.195-1.122,3.537-2.757 C64.392,44.998,62.668,43,60.5,43z"/><linearGradient id="MfftXBLCyScvEyM4nGJJRb" x1="29.5" x2="29.5" y1="12" y2="52" gradientUnits="userSpaceOnUse" spreadMethod="reflect"><stop offset="0" stop-color="#42d778"/><stop offset=".428" stop-color="#3dca76"/><stop offset="1" stop-color="#34b171"/></linearGradient><path fill="url(#MfftXBLCyScvEyM4nGJJRb)" d="M45.08,42c1.23,0,2.409-0.488,3.278-1.358c0.424-0.424,0.762-0.926,0.995-1.479l7.452-17.698 C56.933,21.158,57,20.829,57,20.496C57,19.117,55.883,18,54.504,18H16.094l-0.35-1.108C14.82,13.966,12.137,12,9.068,12H5 c-1.657,0-3,1.343-3,3s1.343,3,3,3h4.068c0.438,0,0.822,0.281,0.954,0.699L15,34.463V44c0,4.411,3.589,8,8,8h24c1.657,0,3-1.343,3-3 s-1.343-3-3-3H23c-1.103,0-2-0.897-2-2v-2H45.08z"/><linearGradient id="MfftXBLCyScvEyM4nGJJRc" x1="42.158" x2="42.158" y1="42" y2="25" gradientUnits="userSpaceOnUse" spreadMethod="reflect"><stop offset="0" stop-color="#37ab6a"/><stop offset=".422" stop-color="#39b66f"/><stop offset="1" stop-color="#3ac074"/></linearGradient><path fill="url(#MfftXBLCyScvEyM4nGJJRc)" d="M43,25c-1.657,0-3,1.343-3,3s1.343,3,3,3h0.5c1.381,0,2.5,1.119,2.5,2.5 c0,1.381-1.119,2.5-2.5,2.5H32c-1.657,0-3,1.343-3,3s1.343,3,3,3h13.08c1.23,0,2.409-0.488,3.278-1.358 c0.424-0.424,0.762-0.926,0.995-1.479L55.316,25H43z"/><linearGradient id="MfftXBLCyScvEyM4nGJJRd" x1="35" x2="35" y1="40.248" y2="25.859" gradientUnits="userSpaceOnUse" spreadMethod="reflect"><stop offset="0" stop-color="#37ab6a"/><stop offset=".422" stop-color="#39b66f"/><stop offset="1" stop-color="#3ac074"/></linearGradient><path fill="url(#MfftXBLCyScvEyM4nGJJRd)" d="M35 25A3 3 0 1 0 35 31A3 3 0 1 0 35 25Z"/><linearGradient id="MfftXBLCyScvEyM4nGJJRe" x1="-92.074" x2="-91.407" y1="-111.25" y2="-111.25" gradientTransform="matrix(0 -12 -12 0 -1292 -1042.664)" gradientUnits="userSpaceOnUse" spreadMethod="reflect"><stop offset="0" stop-color="#a4a4a4"/><stop offset=".619" stop-color="gray"/><stop offset="1" stop-color="#6f6f6f"/><stop offset="1" stop-color="#6f6f6f"/></linearGradient><path fill="url(#MfftXBLCyScvEyM4nGJJRe)" d="M43 52A4 4 0 1 0 43 60A4 4 0 1 0 43 52Z"/><linearGradient id="MfftXBLCyScvEyM4nGJJRf" x1="-92.023" x2="-91.357" y1="-111.917" y2="-111.917" gradientTransform="matrix(0 -12 -12 0 -1319 -1040.844)" gradientUnits="userSpaceOnUse" spreadMethod="reflect"><stop offset="0" stop-color="#a4a4a4"/><stop offset=".619" stop-color="gray"/><stop offset="1" stop-color="#6f6f6f"/><stop offset="1" stop-color="#6f6f6f"/></linearGradient><path fill="url(#MfftXBLCyScvEyM4nGJJRf)" d="M24 52A4 4 0 1 0 24 60A4 4 0 1 0 24 52Z"/></svg>