<svg xmlns="http://www.w3.org/2000/svg"  viewBox="0 0 64 64" width="50px" height="50px"><circle cx="32" cy="32" r="24" fill="#fff"/><radialGradient id="alWZ34E9VY7g4~J0aRld8a" cx="32.156" cy="31.734" r="32.905" gradientTransform="matrix(1 0 0 -1 0 64)" gradientUnits="userSpaceOnUse"><stop offset="0" stop-color="#9ceeff"/><stop offset=".642" stop-color="#c5f5ff"/><stop offset="1" stop-color="#dcf9ff"/></radialGradient><path fill="url(#alWZ34E9VY7g4~J0aRld8a)" d="M61.361,59c-3.242,0-3.478,0-6.722,0c-1.308,0-2.496-0.941-2.626-2.242	C51.863,55.261,53.034,54,54.5,54h4.33c1.625,0,3.081-1.217,3.165-2.839C62.086,49.431,60.71,48,59,48h-9l3-5.224	c0.156-0.26,0.326-0.509,0.47-0.776h6.03c2.485,0,4.5-2.015,4.5-4.5S61.985,33,59.5,33H54v-1c0-2.209,1.791-4,4-4h2.5	c2.138,0,3.829-1.918,3.445-4.127C63.649,22.166,62.035,21,60.302,21h0.213c-2.185,0-3.371-0.941-3.502-2.242	C56.863,17.261,58.034,16,59.5,16h0.33c1.625,0,3.081-1.217,3.166-2.839C63.086,11.431,61.71,10,60,10h-8.5	C50.119,10,49,8.881,49,7.5S50.119,5,51.5,5h2.857c1.308,0,2.5-0.941,2.63-2.242C57.137,1.261,55.966,0,54.5,0H5.643	c-1.308,0-2.5,0.941-2.63,2.242C2.863,3.739,4.034,5,5.5,5h3.857c1.308,0,2.499,0.941,2.63,2.242C12.137,8.738,10.966,10,9.5,10	H3.17c-1.625,0-3.081,1.216-3.166,2.839C-0.086,14.569,1.29,16,3,16h1.357c1.308,0,2.499,0.941,2.63,2.242	C7.137,19.738,5.966,21,4.5,21H3.698c-1.733,0-3.348,1.166-3.644,2.874C-0.329,26.083,1.362,28,3.5,28H7c2.209,0,1,1.791,1,4v2H4	c-2.209,0-4,1.791-4,4s1.791,4,4,4h7c0.863,1.59,4.164,6,3,6H6.111c-1.451,0-2.781,0.981-3.054,2.406C2.689,52.323,4.149,54,6,54	h0.358c1.308,0,2.499,0.941,2.629,2.242C9.137,57.739,7.966,59,6.5,59H2.643c-1.308,0-2.499,0.941-2.63,2.242	C-0.137,62.738,1.034,64,2.5,64h59c1.466,0,2.637-1.262,2.487-2.758C63.857,59.941,62.668,59,61.361,59z"/><circle cx="32" cy="32" r="24" fill="#fff"/><linearGradient id="alWZ34E9VY7g4~J0aRld8b" x1="32.804" x2="31.331" y1="27.465" y2="11.259" gradientTransform="matrix(1 0 0 -1 0 64)" gradientUnits="userSpaceOnUse"><stop offset="0" stop-color="#00d772"/><stop offset=".428" stop-color="#00ca71"/><stop offset="1" stop-color="#00b26e"/></linearGradient><path fill="url(#alWZ34E9VY7g4~J0aRld8b)" d="M32.96,36h-1.92c-5.269,0-9.54,4.271-9.54,9.54l0,0c0,1.359,1.102,2.46,2.46,2.46h16.08	c1.359,0,2.46-1.102,2.46-2.46l0,0C42.5,40.271,38.229,36,32.96,36z"/><linearGradient id="alWZ34E9VY7g4~J0aRld8c" x1="32" x2="32" y1="15.796" y2="21.379" gradientTransform="matrix(1 0 0 -1 0 64)" gradientUnits="userSpaceOnUse"><stop offset="0" stop-color="#fdc462"/><stop offset=".004" stop-color="#fdc462"/><stop offset=".609" stop-color="#fdc380"/><stop offset="1" stop-color="#fdc28f"/><stop offset="1" stop-color="#fdc28f"/></linearGradient><path fill="url(#alWZ34E9VY7g4~J0aRld8c)" d="M23.5,26c0-4.694,3.806-9,8.5-9s8.5,4.306,8.5,9s-3.806,8-8.5,8S23.5,30.694,23.5,26z"/><linearGradient id="alWZ34E9VY7g4~J0aRld8d" x1="31.978" x2="32.234" y1="38.541" y2="50.116" gradientTransform="matrix(1 0 0 -1 0 64)" gradientUnits="userSpaceOnUse"><stop offset="0" stop-color="#e1714d"/><stop offset=".25" stop-color="#e2754e"/><stop offset="1" stop-color="#e47b50"/></linearGradient><path fill="url(#alWZ34E9VY7g4~J0aRld8d)" d="M39.539,16c-4.628,0-5.102-2-9.255-2c-3.471,0-5.784,1.791-5.784,4	c0,0.505,0.183,0.986,0.505,1.431C24.078,20.339,23.5,21.601,23.5,23v3c1.203,0,2.28-0.746,2.702-1.873l1.126-3.004	C28.615,21.671,30.244,22,32.02,22c1.848,0,3.392-0.365,4.639-0.911l1.14,3.039C38.22,25.254,39.297,26,40.5,26v-3	c0-1.359-0.546-2.588-1.427-3.49C40.796,17.861,40.963,16,39.539,16z"/><linearGradient id="alWZ34E9VY7g4~J0aRld8e" x1="32" x2="32" y1="-12.187" y2="57.382" gradientTransform="matrix(1 0 0 -1 0 64)" gradientUnits="userSpaceOnUse"><stop offset="0" stop-color="#005ce2"/><stop offset=".278" stop-color="#0080e8"/><stop offset=".569" stop-color="#009ced"/><stop offset=".82" stop-color="#00b0f1"/><stop offset="1" stop-color="#00b5f2"/></linearGradient><path fill="url(#alWZ34E9VY7g4~J0aRld8e)" d="M32,57C18.215,57,7,45.785,7,32S18.215,7,32,7s25,11.215,25,25S45.785,57,32,57z M32,10.846	c-11.664,0-21.154,9.49-21.154,21.154S20.336,53.154,32,53.154S53.154,43.664,53.154,32S43.664,10.846,32,10.846z"/><linearGradient id="alWZ34E9VY7g4~J0aRld8f" x1="27.25" x2="27.25" y1="29.536" y2="-1.206" gradientTransform="matrix(1 0 0 -1 0 64)" gradientUnits="userSpaceOnUse"><stop offset="0" stop-color="#00de8b"/><stop offset=".478" stop-color="#00d189"/><stop offset="1" stop-color="#00be86"/></linearGradient><path fill="url(#alWZ34E9VY7g4~J0aRld8f)" d="M30.987,45.759C30.856,47.06,29.663,48,28.356,48H23.96c-0.68,0-1.3-0.28-1.74-0.72	c-0.44-0.44-0.72-1.06-0.72-1.74c0-5.26,4.25-9.52,9.5-9.54h0.04c0.69,0,1.364,0.346,1.688,0.955C33.532,38.466,32.436,40,31,40	h-3.5c-0.828,0-1.5,0.672-1.5,1.5l0,0c0,0.828,0.672,1.5,1.5,1.5h1C29.965,43,31.138,44.263,30.987,45.759z"/></svg>