<svg xmlns="http://www.w3.org/2000/svg"  viewBox="0 0 64 64" width="50px" height="50px"><radialGradient id="MhiQYBXFKynsC8~zn9Kjpa" cx="224" cy="-1504.5" r="30.775" gradientTransform="rotate(180 128 -736.5)" gradientUnits="userSpaceOnUse" spreadMethod="reflect"><stop offset="0" stop-color="#f4e9c3"/><stop offset=".219" stop-color="#f8eecd"/><stop offset=".644" stop-color="#fdf4dc"/><stop offset="1" stop-color="#fff6e1"/></radialGradient><path fill="url(#MhiQYBXFKynsC8~zn9Kjpa)" d="M4.5,61h50c1.926,0,3.49-1.556,3.5-3.483l0-0.017c0.01-1.93-1.552-3.5-3.483-3.5H54 c-2.209,0-4-1.791-4-4v0c0-2.209,1.791-4,4-4h5c2.761,0,5-2.239,5-5v0c0-2.761-2.239-5-5-5h-1c-2.209,0-4-1.791-4-4v0 c0-2.209,1.791-4,4-4h0.5c3.038,0,5.5-2.462,5.5-5.5v0c0-3.038-2.462-5.5-5.5-5.5H45c-1.657,0-3-1.343-3-3v0c0-1.657,1.343-3,3-3 h13.5c2.485,0,4.5-2.015,4.5-4.5v0C63,4.015,60.985,2,58.5,2H31H12C9.791,2,8,3.791,8,6v0c0,2.209,1.791,4,4,4h2.5 c1.933,0,3.5,1.567,3.5,3.5v0c0,1.933-1.567,3.5-3.5,3.5H5c-2.209,0-4,1.791-4,4v0c0,2.209,1.791,4,4,4h0c2.209,0,4,1.791,4,4v0 c0,2.209-1.791,4-4,4h0c-2.768,0-5.009,2.249-5,5.017l0,0C0.009,40.772,2.245,43,5,43h0.5c2.485,0,4.5,2.014,4.5,4.5v0 c0,2.485-2.015,4.5-4.5,4.5h-1C2.015,52,0,54.015,0,56.5V56.5C0,58.985,2.015,61,4.5,61z"/><linearGradient id="MhiQYBXFKynsC8~zn9Kjpb" x1="18.5" x2="18.5" y1="27" y2="38" gradientUnits="userSpaceOnUse" spreadMethod="reflect"><stop offset="0" stop-color="#40daf2"/><stop offset=".259" stop-color="#3bd3ef"/><stop offset=".624" stop-color="#2ec1e8"/><stop offset="1" stop-color="#1ba7dd"/></linearGradient><path fill="url(#MhiQYBXFKynsC8~zn9Kjpb)" d="M19,38l-7.434-1.652C10.651,36.145,10,35.333,10,34.396V33c0-3.314,2.686-6,6-6h11L19,38z"/><linearGradient id="MhiQYBXFKynsC8~zn9Kjpc" x1="32.5" x2="32.5" y1="38" y2="55" gradientUnits="userSpaceOnUse" spreadMethod="reflect"><stop offset="0" stop-color="#40daf2"/><stop offset=".259" stop-color="#3bd3ef"/><stop offset=".624" stop-color="#2ec1e8"/><stop offset="1" stop-color="#1ba7dd"/></linearGradient><path fill="url(#MhiQYBXFKynsC8~zn9Kjpc)" d="M27,46l1.652,7.434C28.855,54.349,29.667,55,30.604,55H32c3.314,0,6-2.686,6-6V38L27,46z"/><linearGradient id="MhiQYBXFKynsC8~zn9Kjpd" x1="37" x2="37" y1="46" y2="10" gradientUnits="userSpaceOnUse" spreadMethod="reflect"><stop offset="0" stop-color="#155cde"/><stop offset=".278" stop-color="#1f7fe5"/><stop offset=".569" stop-color="#279ceb"/><stop offset=".82" stop-color="#2cafef"/><stop offset="1" stop-color="#2eb5f0"/></linearGradient><path fill="url(#MhiQYBXFKynsC8~zn9Kjpd)" d="M27,46c13.468-1.941,25.735-13.028,27.676-26.496c0.329-2.282,0.401-4.523,0.247-6.701 c-0.102-1.451-1.275-2.624-2.726-2.726c-2.178-0.154-4.418-0.082-6.701,0.247C32.028,12.265,20.941,24.532,19,38L27,46z"/><path fill="#d4ebfb" d="M41.5 19A4.5 4.5 0 1 0 41.5 28A4.5 4.5 0 1 0 41.5 19Z"/><linearGradient id="MhiQYBXFKynsC8~zn9Kjpe" x1="18" x2="18" y1="53" y2="41" gradientUnits="userSpaceOnUse" spreadMethod="reflect"><stop offset="0" stop-color="#ff634d"/><stop offset=".207" stop-color="#fe6464"/><stop offset=".527" stop-color="#fc6581"/><stop offset=".802" stop-color="#fa6694"/><stop offset="1" stop-color="#fa669a"/></linearGradient><path fill="url(#MhiQYBXFKynsC8~zn9Kjpe)" d="M17.757,41L17.757,41C14.578,41,12,43.578,12,46.757V51c0,1.105,0.895,2,2,2h4.243 C21.422,53,24,50.422,24,47.243v0c0-0.796-0.316-1.559-0.879-2.121l-3.243-3.243C19.316,41.316,18.553,41,17.757,41z"/><linearGradient id="MhiQYBXFKynsC8~zn9Kjpf" x1="37.626" x2="37.626" y1="46.026" y2="15.11" gradientUnits="userSpaceOnUse" spreadMethod="reflect"><stop offset="0" stop-color="#155cde"/><stop offset=".486" stop-color="#2185e6"/><stop offset="1" stop-color="#2eb5f0"/></linearGradient><path fill="url(#MhiQYBXFKynsC8~zn9Kjpf)" d="M27.189,45.969C36.466,44.571,45.148,38.844,50.253,31H34.5c-1.381,0-2.5,1.119-2.5,2.5 c0,1.381,1.119,2.5,2.5,2.5s2.5,1.119,2.5,2.5c0,1.381-1.119,2.5-2.5,2.5h-7c-1.381,0-2.5,1.119-2.5,2.5 c0,0.198,0.029,0.388,0.072,0.572l1.856,1.856C27.013,45.948,27.101,45.958,27.189,45.969z"/></svg>