<svg xmlns="http://www.w3.org/2000/svg"  viewBox="0 0 48 48" width="50px" height="50px"><linearGradient id="dDHv510cfW9JfpE2IoSB~a" x1="30.382" x2="12.668" y1="40.286" y2="-7.692" gradientUnits="userSpaceOnUse"><stop offset="0" stop-color="#c26715"/><stop offset=".508" stop-color="#b85515"/><stop offset="1" stop-color="#ad3f16"/></linearGradient><path fill="url(#dDHv510cfW9JfpE2IoSB~a)" d="M43,6H5C3.895,6,3,6.895,3,8v30c0,1.105,0.895,2,2,2h38c1.105,0,2-0.895,2-2V8 C45,6.895,44.105,6,43,6z"/><circle cx="35.5" cy="15.5" r="3.5" fill="#fff8de"/><linearGradient id="dDHv510cfW9JfpE2IoSB~b" x1="33" x2="33" y1="2.059" y2="41.135" gradientUnits="userSpaceOnUse"><stop offset="0" stop-color="#ffd747"/><stop offset=".482" stop-color="#ffd645"/><stop offset="1" stop-color="#f5bc00"/></linearGradient><path fill="url(#dDHv510cfW9JfpE2IoSB~b)" d="M35.065,24.065c-1.149-1.149-3.005-1.174-4.185-0.057L21,33.368V42h22c1.105,0,2-0.895,2-2 v-6L35.065,24.065z"/><linearGradient id="dDHv510cfW9JfpE2IoSB~c" x1="21" x2="21" y1="17.219" y2="64.36" gradientUnits="userSpaceOnUse"><stop offset="0" stop-color="#fed100"/><stop offset="1" stop-color="#e36001"/></linearGradient><path fill="url(#dDHv510cfW9JfpE2IoSB~c)" d="M39,42L17.065,20.065c-1.149-1.149-3.005-1.174-4.185-0.057L3,29.368V40c0,1.105,0.895,2,2,2 H39z"/></svg>