<svg xmlns="http://www.w3.org/2000/svg"  viewBox="0 0 64 64" width="50px" height="50px"><radialGradient id="Crt3sfPNTq7JNbnicJuYfa" cx="246.667" cy="-239.333" r="204.276" gradientTransform="translate(0 16)" gradientUnits="userSpaceOnUse"><stop offset="0" stop-color="#eed7a2"/><stop offset=".106" stop-color="#f1dcab"/><stop offset=".437" stop-color="#f8e8c3"/><stop offset=".744" stop-color="#fcefd2"/><stop offset="1" stop-color="#fef2d7"/></radialGradient><path fill="url(#Crt3sfPNTq7JNbnicJuYfa)" d="M59.5,16H44.172c-2.089,0-3.955-1.527-4.153-3.607C39.791,10.008,41.661,8,44,8h7.828	c2.089,0,3.955-1.527,4.153-3.607C56.209,2.008,54.339,0,52,0H20.172c-2.089,0-3.955,1.527-4.153,3.607C15.791,5.992,17.661,8,20,8	h3.83c1.625,0,3.08,1.217,3.165,2.839C27.086,12.569,25.71,14,24,14H10c-1.657,0-3,1.343-3,3v1c0,1.657,1.343,3,3,3h2.888	c1.451,0,2.781,0.981,3.055,2.405c0.369,1.917-1.091,3.594-2.943,3.594H4.852C2.172,26.999,0,29.171,0,31.851v0.124	c0,2.787,2.237,5.026,4.999,5.024c3.294,0,12.001,0,12.001,0v5H4.172c-2.089,0-3.955,1.527-4.153,3.607	C-0.209,47.991,1.661,49.999,4,49.999h10.408c1.67,0,3.187,1.133,3.518,2.77C18.381,55.021,16.672,57,14.5,57l-2.808,0.001	c-1.892,0.001-3.587,1.418-3.687,3.308c-0.107,2.019,1.492,3.69,3.487,3.69C17.29,64,25.886,64,33,64c2.179,0,4.224,0,6,0h6.302	c1.895,0,3.594-1.419,3.693-3.312C49.101,58.67,47.495,57,45.5,57h-0.304C43.431,57,42,55.569,42,53.804l0,0	c0-1.512,1.055-2.836,2.539-3.127C47.659,50.065,52,48.649,52,47c0-2.209-1.791-4-4-4h0.5c-1.381,0-2.5-1.119-2.5-2.5V40h13.828	c2.089,0,3.955-1.527,4.153-3.607C64.209,34.008,62.339,32,60,32H47.698c-1.895,0-3.594-1.419-3.693-3.312	C43.899,26.67,45.505,25,47.5,25h11.806c2.35,0,4.449-1.718,4.673-4.057C64.235,18.259,62.131,16,59.5,16z"/><linearGradient id="Crt3sfPNTq7JNbnicJuYfb" x1="32" x2="32" y1="8.417" y2="52.161" gradientUnits="userSpaceOnUse"><stop offset="0" stop-color="#7ddefb"/><stop offset="1" stop-color="#3cb5ea"/></linearGradient><path fill="url(#Crt3sfPNTq7JNbnicJuYfb)" d="M52,53H12c-3.314,0-6-2.686-6-6V17c0-3.314,2.686-6,6-6h40c3.314,0,6,2.686,6,6v30	C58,50.314,55.314,53,52,53z"/><radialGradient id="Crt3sfPNTq7JNbnicJuYfc" cx="35.833" cy="-43.917" r="25.535" gradientTransform="translate(0 16)" gradientUnits="userSpaceOnUse"><stop offset="0" stop-color="#eed7a2"/><stop offset=".106" stop-color="#f1dcab"/><stop offset=".437" stop-color="#f8e8c3"/><stop offset=".744" stop-color="#fcefd2"/><stop offset="1" stop-color="#fef2d7"/></radialGradient><circle cx="9" cy="4" r="4" fill="url(#Crt3sfPNTq7JNbnicJuYfc)"/><linearGradient id="Crt3sfPNTq7JNbnicJuYfd" x1="22.5" x2="22.5" y1="51.17" y2="30.251" gradientUnits="userSpaceOnUse"><stop offset="0" stop-color="#2875e3"/><stop offset=".014" stop-color="#2876e3"/><stop offset=".588" stop-color="#2e88e7"/><stop offset="1" stop-color="#308ee8"/></linearGradient><path fill="url(#Crt3sfPNTq7JNbnicJuYfd)" d="M10,45V35c0-2.209,1.791-4,4-4h17c2.209,0,4,1.791,4,4v10c0,2.209-1.791,4-4,4H14	C11.791,49,10,47.209,10,45z"/><linearGradient id="Crt3sfPNTq7JNbnicJuYfe" x1="47.498" x2="47.498" y1="5.903" y2="36.472" gradientUnits="userSpaceOnUse"><stop offset="0" stop-color="#96e5fc"/><stop offset="1" stop-color="#75d0f3"/></linearGradient><path fill="url(#Crt3sfPNTq7JNbnicJuYfe)" d="M37,13.831c0.09-1.621,1.54-2.841,3.16-2.841H52c0.62,0,1.21,0.09,1.77,0.26	c0.75,0.24,1.45,0.62,2.05,1.11c0.14,0.12,0.28,0.25,0.42,0.39c0.68,0.68,1.19,1.511,1.48,2.441c0.06,0.18,0.11,0.38,0.15,0.57	c0.09,0.4,0.13,0.81,0.13,1.231V34h-6.878c-0.997,0-1.928-0.675-2.093-1.659c-0.21-1.25,0.759-2.343,1.971-2.343h1	c1.105,0,2-0.895,2-2.001l0,0c0-1.105-0.895-2.001-2-2.001h-4.14c-1.311,0-2.506-0.946-2.631-2.252	c-0.143-1.496,1.025-2.75,2.491-2.75h0.158c0.997,0,1.928-0.675,2.093-1.659c0.21-1.25-0.759-2.343-1.971-2.343h-8	C38.29,16.993,36.92,15.572,37,13.831z"/><linearGradient id="Crt3sfPNTq7JNbnicJuYff" x1="29.58" x2="29.58" y1="64.199" y2="15.366" gradientUnits="userSpaceOnUse"><stop offset="0" stop-color="#155cde"/><stop offset=".278" stop-color="#1f7fe5"/><stop offset=".569" stop-color="#279ceb"/><stop offset=".82" stop-color="#2cafef"/><stop offset="1" stop-color="#2eb5f0"/></linearGradient><path fill="url(#Crt3sfPNTq7JNbnicJuYff)" d="M30.57,38.41c0.473-0.461,0.701-1.15,0.537-1.881C30.9,35.608,30.011,35,29.067,35l-2.107,0	c-0.55,0-1.05-0.22-1.41-0.59c-0.709-0.69-0.867-1.894,0.018-2.979C25.79,31.16,26.126,31,26.476,31H31c2.209,0,4,1.791,4,4v10	c0,2.209-1.791,4-4,4h-6.04c0-1.1,0.9-2,2-2c0.55,0,1.05-0.22,1.41-0.59c0.473-0.461,0.701-1.15,0.537-1.881	C28.7,43.608,27.811,43,26.867,43l-0.707,0c-0.55,0-1.05-0.22-1.41-0.59c-0.473-0.461-0.701-1.15-0.537-1.881	C24.42,39.608,25.309,39,26.253,39l2.907,0C29.71,39,30.21,38.78,30.57,38.41z"/><linearGradient id="Crt3sfPNTq7JNbnicJuYfg" x1="42.998" x2="42.998" y1="15.043" y2="30.63" gradientUnits="userSpaceOnUse"><stop offset="0" stop-color="#a4a4a4"/><stop offset=".63" stop-color="#7f7f7f"/><stop offset="1" stop-color="#6f6f6f"/><stop offset="1" stop-color="#6f6f6f"/></linearGradient><path fill="url(#Crt3sfPNTq7JNbnicJuYfg)" d="M48.667,16h-9.344c-1.176,0-1.765,1.422-0.934,2.254l3.011,3.011l-4.713,4.713	c-0.921,0.921-0.921,2.413,0,3.333l0,0c0.921,0.921,2.413,0.921,3.333,0l4.713-4.713l3.011,3.011C48.577,28.442,50,27.853,50,26.676	v-9.343C50,16.597,49.403,16,48.667,16z"/></svg>