<svg xmlns="http://www.w3.org/2000/svg"  viewBox="0 0 64 64" width="50px" height="50px"><radialGradient id="UGGI8zdL~8GJPuT2SNFm3a" cx="32" cy="32" r="27.459" gradientUnits="userSpaceOnUse" spreadMethod="reflect"><stop offset="0" stop-color="#afeeff"/><stop offset=".193" stop-color="#bbf1ff"/><stop offset=".703" stop-color="#d7f8ff"/><stop offset="1" stop-color="#e1faff"/></radialGradient><path fill="url(#UGGI8zdL~8GJPuT2SNFm3a)" d="M55.454,45.668c0.5,0.898,1.504,1.337,2.532,1.332c1.75-0.008,3.153,1.483,3.002,3.262 C60.855,51.838,59.434,53,57.852,53L48,53v1H26h-8H7c-1.71,0-3.086-1.431-2.996-3.161C4.089,49.216,5.545,48,7.17,48L8,48 c1.215,0,2.176-1.083,1.973-2.336C9.813,44.681,8.889,44,7.893,44L3,44c-1.71,0-3.086-1.431-2.996-3.161 C0.089,39.216,1.545,38,3.17,38l6.33,0c1.381,0,2.5-1.119,2.5-2.5v0c0-1.381-1.119-2.5-2.5-2.5h0C8.119,33,7,31.881,7,30.5v0 C7,29.119,8.119,28,9.5,28H18v-7h-7.5c-1.995,0-3.601-1.67-3.495-3.688C7.104,15.419,8.803,14,10.698,14L18,14v-4h24h6h8.198 c1.995,0,3.601,1.67,3.495,3.688C59.594,15.581,57.895,17,56,17l-2.5,0c-1.995,0-3.601,1.67-3.495,3.688 C50.104,22.581,51.803,24,53.698,24L56,24c1.777,0,3.194,1.546,2.978,3.366c-0.179,1.509-1.546,2.572-3.064,2.635 c-1.197,0.05-2.122,1.153-1.874,2.406C54.228,33.355,55.123,34,56.089,34H60.5c1.995,0,3.601,1.67,3.495,3.688 C63.896,39.581,62.197,41,60.302,41L58,41C55.808,41,54.166,43.35,55.454,45.668z M2.5,33L2.5,33C3.881,33,5,31.881,5,30.5v0 C5,29.119,3.881,28,2.5,28h0C1.119,28,0,29.119,0,30.5v0C0,31.881,1.119,33,2.5,33z"/><linearGradient id="UGGI8zdL~8GJPuT2SNFm3b" x1="13" x2="53" y1="32" y2="32" gradientUnits="userSpaceOnUse" spreadMethod="reflect"><stop offset="0" stop-color="#ffce76"/><stop offset="1" stop-color="#ffcca0"/></linearGradient><path fill="url(#UGGI8zdL~8GJPuT2SNFm3b)" d="M50,58H16c-1.657,0-3-1.343-3-3V9c0-1.657,1.343-3,3-3h34c1.657,0,3,1.343,3,3v46 C53,56.657,51.657,58,50,58z"/><linearGradient id="UGGI8zdL~8GJPuT2SNFm3c" x1="33" x2="33" y1="84.288" y2="21.037" gradientUnits="userSpaceOnUse" spreadMethod="reflect"><stop offset="0" stop-color="#ff8b67"/><stop offset=".847" stop-color="#ffa76a"/><stop offset="1" stop-color="#ffad6b"/><stop offset="1" stop-color="#ffad6b"/></linearGradient><path fill="url(#UGGI8zdL~8GJPuT2SNFm3c)" d="M50,52H13V9c0-1.657,1.343-3,3-3h34c1.657,0,3,1.343,3,3v40C53,50.657,51.657,52,50,52z"/><linearGradient id="UGGI8zdL~8GJPuT2SNFm3d" x1="16" x2="16" y1="55" y2="-10.343" gradientUnits="userSpaceOnUse" spreadMethod="reflect"><stop offset="0" stop-color="#ff8b67"/><stop offset=".847" stop-color="#ffa76a"/><stop offset="1" stop-color="#ffad6b"/><stop offset="1" stop-color="#ffad6b"/></linearGradient><path fill="url(#UGGI8zdL~8GJPuT2SNFm3d)" d="M19,52h-3c-1.657,0-3,1.343-3,3v0V9c0-1.657,1.343-3,3-3h3V52z"/><linearGradient id="UGGI8zdL~8GJPuT2SNFm3e" x1="42.5" x2="42.5" y1="48.103" y2="25.155" gradientUnits="userSpaceOnUse" spreadMethod="reflect"><stop offset="0" stop-color="#ff8b67"/><stop offset=".847" stop-color="#ffa76a"/><stop offset="1" stop-color="#ffad6b"/><stop offset="1" stop-color="#ffad6b"/></linearGradient><path fill="url(#UGGI8zdL~8GJPuT2SNFm3e)" d="M41,39.5L41,39.5c0,1.381,1.119,2.5,2.5,2.5h2c1.381,0,2.5,1.119,2.5,2.5v0 c0,1.381-1.119,2.5-2.5,2.5h-11c-1.381,0-2.5,1.119-2.5,2.5v0c0,1.381,1.119,2.5,2.5,2.5H50c1.657,0,3-1.343,3-3V37h-9.5 C42.119,37,41,38.119,41,39.5z"/><linearGradient id="UGGI8zdL~8GJPuT2SNFm3f" x1="36.5" x2="36.5" y1="44.816" y2="31.999" gradientUnits="userSpaceOnUse" spreadMethod="reflect"><stop offset="0" stop-color="#ff8b67"/><stop offset=".847" stop-color="#ffa76a"/><stop offset="1" stop-color="#ffad6b"/><stop offset="1" stop-color="#ffad6b"/></linearGradient><path fill="url(#UGGI8zdL~8GJPuT2SNFm3f)" d="M36.5 37A2.5 2.5 0 1 0 36.5 42A2.5 2.5 0 1 0 36.5 37Z"/><linearGradient id="UGGI8zdL~8GJPuT2SNFm3g" x1="29" x2="29" y1="33" y2="4" gradientUnits="userSpaceOnUse" spreadMethod="reflect"><stop offset="0" stop-color="#ff634d"/><stop offset=".204" stop-color="#fe6464"/><stop offset=".521" stop-color="#fc6581"/><stop offset=".794" stop-color="#fa6694"/><stop offset=".989" stop-color="#fa669a"/><stop offset="1" stop-color="#fa669a"/></linearGradient><path fill="url(#UGGI8zdL~8GJPuT2SNFm3g)" d="M32.59,33h-0.006c-0.374,0-0.733-0.149-0.997-0.413L29,30l-2.587,2.587 C26.149,32.851,25.79,33,25.416,33H25.41C24.631,33,24,32.369,24,31.59V7c0-1.657,1.343-3,3-3h4c1.657,0,3,1.343,3,3v24.59 C34,32.369,33.369,33,32.59,33z"/></svg>