<svg xmlns="http://www.w3.org/2000/svg"  viewBox="0 0 64 64" width="50px" height="50px"><radialGradient id="o7fJfcGgzfdoTroUffx1Ia" cx="32" cy="31.5" r="31.751" gradientUnits="userSpaceOnUse" spreadMethod="reflect"><stop offset="0" stop-color="#c5f1ff"/><stop offset=".35" stop-color="#cdf3ff"/><stop offset=".907" stop-color="#e4faff"/><stop offset="1" stop-color="#e9fbff"/></radialGradient><path fill="url(#o7fJfcGgzfdoTroUffx1Ia)" d="M60.5,32c2.168,0,3.892-1.998,3.422-4.243C63.58,26.122,62.056,25,60.385,25L43,25v-7 l14.386,0c1.67,0,3.195-1.122,3.537-2.757C61.392,12.997,59.668,11,57.5,11H46c-1.105,0-2-0.895-2-2v0c0-1.105,0.895-2,2-2l4.385,0 c1.67,0,3.195-1.122,3.537-2.757C54.392,1.998,52.668,0,50.5,0L10.615,0C8.944,0,7.42,1.122,7.078,2.757C6.608,5.002,8.332,7,10.5,7 H13c1.105,0,2,0.895,2,2v0c0,1.105-0.895,2-2,2l-6.385,0c-1.67,0-3.195,1.122-3.537,2.757C2.608,16.002,4.332,18,6.5,18H22l0,15 L3.614,33c-1.67,0-3.195,1.122-3.537,2.757C-0.392,38.002,1.332,40,3.5,40H4c1.105,0,2,0.895,2,2v0c0,1.105-0.895,2-2,2H3.615 c-1.67,0-3.195,1.122-3.537,2.757C-0.392,49.002,1.332,51,3.5,51h21.115C25.932,51,27,52.068,27,53.385v0.229 C27,54.932,25.932,56,24.615,56l-5,0c-1.67,0-3.195,1.122-3.537,2.757C15.608,61.002,17.332,63,19.5,63l38.885,0 c1.67,0,3.195-1.122,3.537-2.757C62.392,57.998,60.668,56,58.5,56h-3.115C54.068,56,53,54.932,53,53.615v-0.229 C53,52.068,54.068,51,55.385,51h0c1.67,0,3.195-1.122,3.537-2.757C59.392,45.998,57.668,44,55.5,44H43l0-12H60.5z"/><linearGradient id="o7fJfcGgzfdoTroUffx1Ib" x1="27.5" x2="27.5" y1="63.167" y2="13.167" gradientUnits="userSpaceOnUse" spreadMethod="reflect"><stop offset="0" stop-color="#155cde"/><stop offset=".278" stop-color="#1f7fe5"/><stop offset=".569" stop-color="#279ceb"/><stop offset=".82" stop-color="#2cafef"/><stop offset="1" stop-color="#2eb5f0"/></linearGradient><path fill="url(#o7fJfcGgzfdoTroUffx1Ib)" d="M48,9H12c-2.761,0-5,2.239-5,5v30v12.35C7,57.814,8.186,59,9.65,59h0.007 c0.844,0,1.638-0.402,2.137-1.083l5.041-6.874C17.777,49.759,19.274,49,20.867,49H48V9z"/><linearGradient id="o7fJfcGgzfdoTroUffx1Ic" x1="41.5" x2="41.5" y1="9" y2="49" gradientUnits="userSpaceOnUse" spreadMethod="reflect"><stop offset="0" stop-color="#dbdddd"/><stop offset="1" stop-color="#cccecf"/></linearGradient><path fill="url(#o7fJfcGgzfdoTroUffx1Ic)" d="M57,44V14c0-2.761-2.239-5-5-5H26l10,40h16C54.761,49,57,46.761,57,44z"/><path fill="#fff" d="M15.416 32H24.416V35H15.416z"/><path fill="#fff" d="M24.25,37.056L19.289,23L20,21h0.169c0.848,0,1.604,0.535,1.886,1.334l4.864,13.78 C27.243,37.035,26.56,38,25.584,38h0C24.985,38,24.45,37.622,24.25,37.056z"/><path fill="#fff" d="M15.75,37.056L20.711,23L20,21h-0.169c-0.848,0-1.604,0.535-1.886,1.334l-4.864,13.78 C12.757,37.035,13.44,38,14.416,38h0C15.015,38,15.55,37.622,15.75,37.056z"/><linearGradient id="o7fJfcGgzfdoTroUffx1Id" x1="43.5" x2="43.5" y1="13.35" y2="31.35" gradientUnits="userSpaceOnUse" spreadMethod="reflect"><stop offset="0" stop-color="#a4a4a4"/><stop offset=".63" stop-color="#7f7f7f"/><stop offset="1" stop-color="#6f6f6f"/><stop offset="1" stop-color="#6f6f6f"/></linearGradient><path fill="url(#o7fJfcGgzfdoTroUffx1Id)" d="M50.5,23H45v-1.5c0-0.828-0.672-1.5-1.5-1.5S42,20.672,42,21.5V23h-5.5 c-0.828,0-1.5,0.672-1.5,1.5s0.672,1.49,1.5,1.49L45,26h1.029c-0.834,1.465-1.801,2.847-2.877,4.145 c-0.491-0.712-0.926-1.466-1.285-2.26c-0.342-0.756-1.232-1.09-1.984-0.748c-0.755,0.341-1.09,1.229-0.748,1.984 c0.527,1.166,1.184,2.261,1.944,3.276c-1.073,1.042-2.22,2.011-3.445,2.878c-0.676,0.479-0.836,1.415-0.357,2.092 C37.568,37.779,38.031,38,38.501,38c0.3,0,0.603-0.09,0.866-0.275c1.318-0.934,2.554-1.975,3.713-3.094 c1.401,1.315,3.024,2.42,4.794,3.232C48.077,37.956,48.289,38,48.499,38c0.568,0,1.111-0.324,1.364-0.874 c0.346-0.753,0.016-1.644-0.737-1.989c-1.497-0.687-2.83-1.591-3.99-2.684c1.687-1.967,3.119-4.135,4.283-6.453H50.5 c0.828,0,1.5-0.672,1.5-1.5S51.328,23,50.5,23z"/></svg>