<svg xmlns="http://www.w3.org/2000/svg"  viewBox="0 0 64 64" width="50px" height="50px"><radialGradient id="QbQVhXRWvKWP4IkOuaIdca" cx="36.833" cy="35.917" r="26" gradientUnits="userSpaceOnUse" spreadMethod="reflect"><stop offset="0" stop-color="#f4e9c3"/><stop offset=".219" stop-color="#f8eecd"/><stop offset=".644" stop-color="#fdf4dc"/><stop offset="1" stop-color="#fff6e1"/></radialGradient><path fill="url(#QbQVhXRWvKWP4IkOuaIdca)" d="M10,8L10,8c2.209,0,4-1.791,4-4v0c0-2.209-1.791-4-4-4h0C7.791,0,6,1.791,6,4v0 C6,6.209,7.791,8,10,8z"/><radialGradient id="QbQVhXRWvKWP4IkOuaIdcb" cx="31.417" cy="29.917" r="28.77" gradientUnits="userSpaceOnUse" spreadMethod="reflect"><stop offset="0" stop-color="#f4e9c3"/><stop offset=".219" stop-color="#f8eecd"/><stop offset=".644" stop-color="#fdf4dc"/><stop offset="1" stop-color="#fff6e1"/></radialGradient><path fill="url(#QbQVhXRWvKWP4IkOuaIdcb)" d="M7.5,64L7.5,64c1.933,0,3.5-1.567,3.5-3.5v0c0-1.933-1.567-3.5-3.5-3.5h0 C5.567,57,4,58.567,4,60.5v0C4,62.433,5.567,64,7.5,64z"/><radialGradient id="QbQVhXRWvKWP4IkOuaIdcc" cx="32" cy="32" r="32" gradientUnits="userSpaceOnUse" spreadMethod="reflect"><stop offset="0" stop-color="#f4e9c3"/><stop offset=".219" stop-color="#f8eecd"/><stop offset=".644" stop-color="#fdf4dc"/><stop offset="1" stop-color="#fff6e1"/></radialGradient><path fill="url(#QbQVhXRWvKWP4IkOuaIdcc)" d="M62,20.5L62,20.5c0-2.485-2.015-4.5-4.5-4.5H49c-2.209,0-4-1.791-4-4v0c0-2.209,1.791-4,4-4 h2c2.209,0,4-1.791,4-4v0c0-2.209-1.791-4-4-4L20,0c-2.209,0-4,1.791-4,4v0c0,2.209,1.791,4,4,4h2c1.657,0,3,1.343,3,3v0 c0,1.657-1.343,3-3,3H7.5C5.567,14,4,15.567,4,17.5v0C4,19.433,5.567,21,7.5,21H9c1.657,0,3,1.343,3,3v0c0,1.657-1.343,3-3,3H5 c-2.761,0-5,2.239-5,5v0c0,2.761,2.239,5,5,5h2.5c1.933,0,3.5,1.567,3.5,3.5v0c0,1.933-1.567,3.5-3.5,3.5H6c-2.209,0-4,1.791-4,4v0 c0,2.209,1.791,4,4,4h11.5c1.381,0,2.5,1.119,2.5,2.5v0c0,1.381-1.119,2.5-2.5,2.5h0c-1.933,0-3.5,1.567-3.5,3.5v0 c0,1.933,1.567,3.5,3.5,3.5h30c1.933,0,3.5-1.567,3.5-3.5v0c0-1.933-1.567-3.5-3.5-3.5H47c-1.105,0-2-0.895-2-2v0 c0-1.105,0.895-2,2-2h13c2.209,0,4-1.791,4-4v0c0-2.209-1.791-4-4-4h-3.5c-1.381,0-2.5-1.119-2.5-2.5v0c0-1.381,1.119-2.5,2.5-2.5 H57c2.209,0,4-1.791,4-4v0c0-2.209-1.791-4-4-4h-4.5c-1.933,0-3.5-1.567-3.5-3.5v0c0-1.933,1.567-3.5,3.5-3.5h5 C59.985,25,62,22.985,62,20.5z"/><linearGradient id="QbQVhXRWvKWP4IkOuaIdcd" x1="32" x2="32" y1="70.395" y2="-11.337" gradientUnits="userSpaceOnUse" spreadMethod="reflect"><stop offset="0" stop-color="#155cde"/><stop offset=".158" stop-color="#196ce1"/><stop offset=".724" stop-color="#28a1ec"/><stop offset="1" stop-color="#2eb5f0"/></linearGradient><path fill="url(#QbQVhXRWvKWP4IkOuaIdcd)" d="M34,37h-4c-1.657,0-3-1.343-3-3v-4c0-1.657,1.343-3,3-3h4c1.657,0,3,1.343,3,3v4 C37,35.657,35.657,37,34,37z M20,34v-4c0-1.657-1.343-3-3-3h-4c-1.657,0-3,1.343-3,3v4c0,1.657,1.343,3,3,3h4 C18.657,37,20,35.657,20,34z M54,34v-4c0-1.657-1.343-3-3-3h-4c-1.657,0-3,1.343-3,3v4c0,1.657,1.343,3,3,3h4 C52.657,37,54,35.657,54,34z M37,51v-4c0-1.657-1.343-3-3-3h-4c-1.657,0-3,1.343-3,3v4c0,1.657,1.343,3,3,3h4 C35.657,54,37,52.657,37,51z M20,51v-4c0-1.657-1.343-3-3-3h-4c-1.657,0-3,1.343-3,3v4c0,1.657,1.343,3,3,3h4 C18.657,54,20,52.657,20,51z M54,51v-4c0-1.657-1.343-3-3-3h-4c-1.657,0-3,1.343-3,3v4c0,1.657,1.343,3,3,3h4 C52.657,54,54,52.657,54,51z M37,17v-4c0-1.657-1.343-3-3-3h-4c-1.657,0-3,1.343-3,3v4c0,1.657,1.343,3,3,3h4 C35.657,20,37,18.657,37,17z M20,17v-4c0-1.657-1.343-3-3-3h-4c-1.657,0-3,1.343-3,3v4c0,1.657,1.343,3,3,3h4 C18.657,20,20,18.657,20,17z M54,17v-4c0-1.657-1.343-3-3-3h-4c-1.657,0-3,1.343-3,3v4c0,1.657,1.343,3,3,3h4 C52.657,20,54,18.657,54,17z"/></svg>