<svg xmlns="http://www.w3.org/2000/svg"  viewBox="0 0 48 48" width="50px" height="50px"><linearGradient id="UmNVAdg~ayIPrCkh_WMDla" x1="13.48" x2="31.634" y1="242.407" y2="216.147" gradientTransform="matrix(1 0 0 -1 0 254)" gradientUnits="userSpaceOnUse"><stop offset="0" stop-color="#7dd8f3"/><stop offset="1" stop-color="#45b0d0"/></linearGradient><path fill="url(#UmNVAdg~ayIPrCkh_WMDla)" d="M4,38V15h40v23c0,1.1-0.9,2-2,2H6C4.9,40,4,39.1,4,38z"/><linearGradient id="UmNVAdg~ayIPrCkh_WMDlb" x1="4.614" x2="42.936" y1="246.259" y2="238.467" gradientTransform="matrix(1 0 0 -1 0 254)" gradientUnits="userSpaceOnUse"><stop offset="0" stop-color="#0077d2"/><stop offset="1" stop-color="#0b59a2"/></linearGradient><path fill="url(#UmNVAdg~ayIPrCkh_WMDlb)" d="M44,10v5H4v-5c0-1.1,0.9-2,2-2h36C43.1,8,44,8.9,44,10z"/><path fill="#057093" d="M38.5,22h-23c-0.276,0-0.5-0.224-0.5-0.5v-1c0-0.276,0.224-0.5,0.5-0.5h23c0.276,0,0.5,0.224,0.5,0.5	v1C39,21.776,38.776,22,38.5,22z"/><path fill="#057093" d="M38.5,26h-23c-0.276,0-0.5-0.224-0.5-0.5v-1c0-0.276,0.224-0.5,0.5-0.5h23c0.276,0,0.5,0.224,0.5,0.5	v1C39,25.776,38.776,26,38.5,26z"/><path fill="#057093" d="M38.5,30h-23c-0.276,0-0.5-0.224-0.5-0.5v-1c0-0.276,0.224-0.5,0.5-0.5h23c0.276,0,0.5,0.224,0.5,0.5	v1C39,29.776,38.776,30,38.5,30z"/><path fill="#057093" d="M39,34H15.5c-0.276,0-0.5-0.224-0.5-0.5v-1c0-0.276,0.224-0.5,0.5-0.5H39V34z"/><path fill="#057093" d="M9.5,22h1c0.276,0,0.5-0.224,0.5-0.5v-1c0-0.276-0.224-0.5-0.5-0.5h-1C9.224,20,9,20.224,9,20.5v1	C9,21.776,9.224,22,9.5,22z"/><path fill="#057093" d="M9.5,26h1c0.276,0,0.5-0.224,0.5-0.5v-1c0-0.276-0.224-0.5-0.5-0.5h-1C9.224,24,9,24.224,9,24.5v1	C9,25.776,9.224,26,9.5,26z"/><path fill="#057093" d="M9.5,30h1c0.276,0,0.5-0.224,0.5-0.5v-1c0-0.276-0.224-0.5-0.5-0.5h-1C9.224,28,9,28.224,9,28.5v1	C9,29.776,9.224,30,9.5,30z"/><path fill="#057093" d="M9.5,34h1c0.276,0,0.5-0.224,0.5-0.5v-1c0-0.276-0.224-0.5-0.5-0.5h-1C9.224,32,9,32.224,9,32.5v1	C9,33.776,9.224,34,9.5,34z"/><path d="M44,38h-2v-5c0-1.103-0.897-2-2-2h-2c-1.103,0-2,0.897-2,2v5h-2.393	c-0.652,0-1.234,0.389-1.484,0.992c-0.136,0.329-0.147,0.68-0.063,1.008H42C43.1,40,44,39.1,44,38z" opacity=".05"/><path d="M43.928,38.5H41.5V33c0-0.827-0.673-1.5-1.5-1.5h-2c-0.827,0-1.5,0.673-1.5,1.5v5.5h-2.893	c-0.449,0-0.85,0.268-1.022,0.683c-0.111,0.269-0.1,0.558,0.001,0.817H42C42.926,40,43.704,39.359,43.928,38.5z" opacity=".07"/><linearGradient id="UmNVAdg~ayIPrCkh_WMDlc" x1="87.354" x2="87.354" y1="-96.319" y2="-109.739" gradientTransform="matrix(-1 0 0 1 126.354 141.646)" gradientUnits="userSpaceOnUse"><stop offset="0" stop-color="#c965eb"/><stop offset="1" stop-color="#c767e5"/></linearGradient><path fill="url(#UmNVAdg~ayIPrCkh_WMDlc)" d="M44.393,39H41v-6c0-0.552-0.448-1-1-1h-2c-0.552,0-1,0.448-1,1v6h-3.393	c-0.54,0-0.81,0.653-0.428,1.034l4.964,4.964c0.473,0.473,1.241,0.473,1.714,0l4.964-4.964C45.203,39.653,44.933,39,44.393,39z"/></svg>