<svg xmlns="http://www.w3.org/2000/svg"  viewBox="0 0 64 64" width="50px" height="50px"><radialGradient id="0kspfmUCWnn9rFMVBz9jqa" cx="32.5" cy="32.5" r="30.5" gradientUnits="userSpaceOnUse" spreadMethod="reflect"><stop offset="0" stop-color="#efdcb1"/><stop offset="0" stop-color="#f2e0bb"/><stop offset=".011" stop-color="#f2e0bc"/><stop offset=".362" stop-color="#f9edd2"/><stop offset=".699" stop-color="#fef4df"/><stop offset="1" stop-color="#fff7e4"/></radialGradient><path fill="url(#0kspfmUCWnn9rFMVBz9jqa)" d="M60.357,47H57c-1.105,0-2-0.895-2-2c0-1.105,0.895-2,2-2h0.412 c1.139,0,2.202-0.721,2.497-1.821C60.355,39.516,59.096,38,57.5,38H42V27h14c2.335,0,4.22-2.028,3.979-4.41 c-0.21-2.075-2.082-3.59-4.168-3.59H46c-1.105,0-2-0.895-2-2c0-1.105,0.895-2,2-2h6.357c1.308,0,2.499-0.941,2.63-2.242 C55.137,11.261,53.966,10,52.5,10h-8C43.672,10,43,9.328,43,8.5S43.672,7,44.5,7h3.857c1.308,0,2.499-0.941,2.63-2.242 C51.137,3.261,49.966,2,48.5,2L15.643,2c-1.308,0-2.499,0.941-2.63,2.242C12.863,5.739,14.034,7,15.5,7H19c1.105,0,2,0.895,2,2 c0,1.105-0.895,2-2,2H6.189c-2.086,0-3.958,1.514-4.168,3.59C1.78,16.972,3.665,19,6,19h2.5c1.933,0,3.5,1.567,3.5,3.5 c0,1.933-1.567,3.5-3.5,3.5H7c-2.086,0-3.958,1.514-4.168,3.59C2.591,31.972,4.476,34,6.811,34H22v12H7.588 c-1.139,0-2.202,0.721-2.497,1.821C4.645,49.484,5.904,51,7.5,51H9c1.105,0,2,0.895,2,2c0,1.105-0.895,2-2,2H6.189 c-2.086,0-3.958,1.514-4.168,3.59C1.78,60.972,3.665,63,6,63h48.811c2.086,0,3.958-1.514,4.168-3.59C59.22,57.028,57.335,55,55,55 h-0.5c-0.828,0-1.5-0.672-1.5-1.5s0.672-1.5,1.5-1.5h6c1.466,0,2.637-1.261,2.487-2.758C62.857,47.941,61.665,47,60.357,47z"/><linearGradient id="0kspfmUCWnn9rFMVBz9jqb" x1="32" x2="32" y1="68.459" y2="25.459" gradientUnits="userSpaceOnUse" spreadMethod="reflect"><stop offset="0" stop-color="#155cde"/><stop offset=".122" stop-color="#196ae1"/><stop offset=".509" stop-color="#2493e9"/><stop offset=".815" stop-color="#2bacee"/><stop offset="1" stop-color="#2eb5f0"/></linearGradient><path fill="url(#0kspfmUCWnn9rFMVBz9jqb)" d="M55,13H36v6h-8v-6H9c-3.314,0-6,2.686-6,6v28c0,3.314,2.686,6,6,6h19.141 c0.446,1.722,1.997,3,3.859,3s3.412-1.278,3.859-3H55c3.314,0,6-2.686,6-6V19C61,15.686,58.314,13,55,13z"/><linearGradient id="0kspfmUCWnn9rFMVBz9jqc" x1="7.459" x2="31.165" y1="29.5" y2="29.5" gradientUnits="userSpaceOnUse" spreadMethod="reflect"><stop offset="0" stop-color="#c4e7fb"/><stop offset=".321" stop-color="#b5e5fc"/><stop offset=".938" stop-color="#8de1fd"/><stop offset="1" stop-color="#89e1fd"/></linearGradient><path fill="url(#0kspfmUCWnn9rFMVBz9jqc)" d="M29,49H10c-1.657,0-3-1.343-3-3V13c0-1.657,1.343-3,3-3h16c3.314,0,6,2.686,6,6v30 C32,47.657,30.657,49,29,49z"/><linearGradient id="0kspfmUCWnn9rFMVBz9jqd" x1="31.541" x2="56.541" y1="29.5" y2="29.5" gradientUnits="userSpaceOnUse" spreadMethod="reflect"><stop offset="0" stop-color="#45c6ef"/><stop offset=".24" stop-color="#50cbf1"/><stop offset=".666" stop-color="#6fd8f7"/><stop offset="1" stop-color="#8be5fd"/></linearGradient><path fill="url(#0kspfmUCWnn9rFMVBz9jqd)" d="M35,49h19c1.657,0,3-1.343,3-3V13c0-1.657-1.343-3-3-3H38c-3.314,0-6,2.686-6,6v30 C32,47.657,33.343,49,35,49z"/><linearGradient id="0kspfmUCWnn9rFMVBz9jqe" x1="15.5" x2="15.5" y1="31" y2="10" gradientUnits="userSpaceOnUse" spreadMethod="reflect"><stop offset="0" stop-color="#cbeafc"/><stop offset="1" stop-color="#c9ebfc"/></linearGradient><path fill="url(#0kspfmUCWnn9rFMVBz9jqe)" d="M7,13c0-1.657,1.343-3,3-3h12c1.215,0,2.176,1.083,1.973,2.336 C23.813,13.319,22.889,14,21.893,14L14.5,14c-0.828,0-1.5,0.672-1.5,1.5s0.672,1.5,1.5,1.5H16c1.215,0,2.176,1.083,1.973,2.336 C17.813,20.319,16.889,21,15.893,21L7,21V13z M16,27c-1.105,0-2,0.895-2,2c0,1.105,0.895,2,2,2s2-0.895,2-2 C18,27.895,17.105,27,16,27z"/><linearGradient id="0kspfmUCWnn9rFMVBz9jqf" x1="44.5" x2="44.5" y1="12.885" y2="32.885" gradientUnits="userSpaceOnUse" spreadMethod="reflect"><stop offset="0" stop-color="#ecf9fd"/><stop offset=".848" stop-color="#f2fdff"/><stop offset="1" stop-color="#f4feff"/></linearGradient><path fill="url(#0kspfmUCWnn9rFMVBz9jqf)" d="M47,21.5c0,1.382-1.118,2.5-2.5,2.5c-1.382,0-2.5-1.118-2.5-2.5c0-1.382,1.118-2.5,2.5-2.5 C45.882,19,47,20.118,47,21.5z M42,28v9c0,1.1,0.9,2,2,2h1c1.1,0,2-0.9,2-2v-9c0-1.1-0.9-2-2-2h-1C42.9,26,42,26.9,42,28z"/></svg>