<svg xmlns="http://www.w3.org/2000/svg"  viewBox="0 0 64 64" width="50px" height="50px"><radialGradient id="G6XgHKUOLW_qXVvNPDx4oa" cx="37" cy="2647" r="26.875" gradientTransform="translate(0 -2614)" gradientUnits="userSpaceOnUse"><stop offset="0" stop-color="#afeeff"/><stop offset=".193" stop-color="#bbf1ff"/><stop offset=".703" stop-color="#d7f8ff"/><stop offset="1" stop-color="#e1faff"/></radialGradient><path fill="url(#G6XgHKUOLW_qXVvNPDx4oa)" d="M6.5,62L6.5,62C4.015,62,2,59.985,2,57.5l0,0C2,55.015,4.015,53,6.5,53l0,0	c2.485,0,4.5,2.015,4.5,4.5l0,0C11,59.985,8.985,62,6.5,62z"/><radialGradient id="G6XgHKUOLW_qXVvNPDx4ob" cx="32" cy="33.5" r="30.776" gradientTransform="matrix(1 0 0 -1 0 66)" gradientUnits="userSpaceOnUse"><stop offset="0" stop-color="#afeeff"/><stop offset=".193" stop-color="#bbf1ff"/><stop offset=".703" stop-color="#d7f8ff"/><stop offset="1" stop-color="#e1faff"/></radialGradient><path fill="url(#G6XgHKUOLW_qXVvNPDx4ob)" d="M54,10h6.56C62.48,10,64,8.48,64,6.61V6.5C64,4.567,62.433,3,60.5,3h-51	C7.575,3,6,4.575,6,6.5l0,0C6,8.433,7.567,10,9.5,10h2.274c2.305,0,4.331,1.889,4.221,4.192c-0.049,1.024-0.487,1.951-1.165,2.638	C14.1,17.55,13.1,18,12,18H6c-3.314,0-6,2.686-6,6l0,0c0,3.314,2.686,6,6,6h6c1.657,0,3,1.343,3,3l0,0c0,1.657-1.343,3-3,3H5.741	c-3.095,0-5.81,2.533-5.739,5.627c0.033,1.47,0.646,2.801,1.609,3.763C2.6,46.38,3.98,47,5.5,47h18.331	c1.603,0,3.047,1.182,3.161,2.78c0.066,0.917-0.285,1.752-0.872,2.34C25.58,52.66,24.83,53,24,53h-1.5c-2.48,0-4.5,2.01-4.5,4.5	c0,1.24,0.5,2.37,1.32,3.18C20.14,61.5,21.26,62,22.5,62h32.275c2.305,0,4.331-1.889,4.221-4.192	c-0.049-1.024-0.488-1.951-1.165-2.638C57.1,54.45,56.1,54,55,54h-6.304c-1.997,0-3.768-1.635-3.694-3.631	c0.034-0.909,0.417-1.738,1.028-2.339C46.66,47.39,47.54,47,48.5,47h11.275c2.305,0,4.331-1.889,4.221-4.192	c-0.049-1.024-0.488-1.951-1.165-2.638C62.1,39.45,61.1,39,60,39h-1.286c-2.546,0-4.784-2.084-4.712-4.629	c0.033-1.189,0.527-2.269,1.318-3.051C56.13,30.5,57.26,30,58.5,30h0.283c2.611,0,4.944-1.907,5.194-4.506	C64.263,22.512,61.923,20,59,20h-4.759c-2.85,0-5.34-2.334-5.238-5.182c0.047-1.308,0.596-2.488,1.457-3.358	C51.37,10.56,52.62,10,54,10z"/><linearGradient id="G6XgHKUOLW_qXVvNPDx4oc" x1="212.464" x2="212.464" y1="467.446" y2="503.147" gradientTransform="scale(1 -1) rotate(-29.523 -851.586 576.19)" gradientUnits="userSpaceOnUse"><stop offset="0" stop-color="#ff8b67"/><stop offset=".847" stop-color="#ffa76a"/><stop offset="1" stop-color="#ffad6b"/><stop offset="1" stop-color="#ffad6b"/></linearGradient><path fill="url(#G6XgHKUOLW_qXVvNPDx4oc)" d="M43.422,27.883l-13.564,3.586c-0.881,0.244-1.6-0.724-1.113-1.497l0.673-1.068	c0.557-0.884,0.339-2.047-0.499-2.671l-3.566-2.652c-0.806-0.606-1.04-1.715-0.542-2.594l0.976-1.723	c0.591-1.044,0.136-2.371-0.973-2.827l-2.02-0.846c-0.875-0.367-0.795-1.632,0.119-1.886l15.445-4.114	c0.532-0.148,1.088,0.167,1.236,0.699l4.529,16.355C44.269,27.18,43.954,27.736,43.422,27.883z"/><linearGradient id="G6XgHKUOLW_qXVvNPDx4od" x1="226.907" x2="226.907" y1="2182.201" y2="2163.728" gradientTransform="rotate(29.523 4233.78 763.775)" gradientUnits="userSpaceOnUse"><stop offset="0" stop-color="#ff634d"/><stop offset=".204" stop-color="#fe6464"/><stop offset=".521" stop-color="#fc6581"/><stop offset=".794" stop-color="#fa6694"/><stop offset=".989" stop-color="#fa669a"/><stop offset="1" stop-color="#fa669a"/></linearGradient><path fill="url(#G6XgHKUOLW_qXVvNPDx4od)" d="M60.172,18.381l-2.563-9.256c-0.69-2.493-3.27-3.954-5.763-3.264l-4.629,1.282	c-0.532,0.147-0.844,0.698-0.697,1.23l4.529,16.355c0.074,0.266,0.248,0.477,0.471,0.603s0.494,0.167,0.76,0.093l4.629-1.282	C59.401,23.454,60.862,20.874,60.172,18.381z"/><linearGradient id="G6XgHKUOLW_qXVvNPDx4oe" x1="221.172" x2="221.172" y1="2167.726" y2="2189.675" gradientTransform="rotate(29.523 4233.78 763.775)" gradientUnits="userSpaceOnUse"><stop offset="0" stop-color="#b2b2b2"/><stop offset=".594" stop-color="#949494"/><stop offset="1" stop-color="#848484"/><stop offset="1" stop-color="#848484"/></linearGradient><path fill="url(#G6XgHKUOLW_qXVvNPDx4oe)" d="M52.882,23.855l-4.34-15.674c-0.512-1.849-2.427-2.934-4.276-2.421l-4.77,1.321	c-1.842,0.51-2.931,2.434-2.421,4.276l4.34,15.674c0.256,0.924,0.862,1.657,1.637,2.096c0.774,0.439,1.715,0.582,2.639,0.326	l4.77-1.321C52.307,27.62,53.394,25.701,52.882,23.855z"/><linearGradient id="G6XgHKUOLW_qXVvNPDx4of" x1="-253.847" x2="-253.847" y1="-236.355" y2="-194.837" gradientTransform="scale(1 -1) rotate(22.092 -577.464 555.91)" gradientUnits="userSpaceOnUse"><stop offset="0" stop-color="#ff8b67"/><stop offset=".847" stop-color="#ffa76a"/><stop offset="1" stop-color="#ffad6b"/><stop offset="1" stop-color="#ffad6b"/></linearGradient><path fill="url(#G6XgHKUOLW_qXVvNPDx4of)" d="M24.313,33.103l0.892,2.533c0.248,0.705,0.225,1.477-0.066,2.165l-5.615,13.286	c-0.114,0.251-0.308,0.438-0.549,0.536s-0.51,0.099-0.767-0.002L2.576,45.013c-0.509-0.215-0.749-0.807-0.534-1.316l4.791-11.319	c0.262-0.619,0.725-1.133,1.314-1.458l3.535-1.95c1.046-0.586,2.369-0.12,2.82,0.992l0.745,1.835c0.38,0.936,1.394,1.441,2.37,1.186	l4.293-1.149C22.919,31.565,23.966,32.117,24.313,33.103z"/><linearGradient id="G6XgHKUOLW_qXVvNPDx4og" x1="-259.845" x2="-259.845" y1="2912.334" y2="2897.336" gradientTransform="rotate(-22.089 -7441.766 784.347)" gradientUnits="userSpaceOnUse"><stop offset="0" stop-color="#ffc662"/><stop offset=".004" stop-color="#ffc662"/><stop offset=".609" stop-color="#ffc582"/><stop offset="1" stop-color="#ffc491"/><stop offset="1" stop-color="#ffc491"/></linearGradient><path fill="url(#G6XgHKUOLW_qXVvNPDx4og)" d="M16.269,44.989c-0.255-0.417-0.775-0.588-1.228-0.404l-3.706,1.504L9.83,42.383	c-0.184-0.453-0.669-0.706-1.145-0.599l-5.936,1.33c-0.267,0.062-0.499,0.227-0.641,0.463c-0.14,0.236-0.178,0.519-0.104,0.785	l2.458,8.715c0.083,0.292,0.293,0.532,0.573,0.649l5.211,2.202c0.246,0.104,0.522,0.105,0.766,0.005	c0.034-0.014,0.067-0.029,0.1-0.047l7.963-4.311c0.242-0.13,0.418-0.355,0.49-0.621c0.07-0.266,0.029-0.548-0.115-0.782	L16.269,44.989z"/><linearGradient id="G6XgHKUOLW_qXVvNPDx4oh" x1="-265.245" x2="-265.245" y1="2907.138" y2="2913.334" gradientTransform="rotate(-22.089 -7441.766 784.347)" gradientUnits="userSpaceOnUse"><stop offset="0" stop-color="#a4a4a4"/><stop offset=".63" stop-color="#7f7f7f"/><stop offset="1" stop-color="#6f6f6f"/><stop offset="1" stop-color="#6f6f6f"/></linearGradient><path fill="url(#G6XgHKUOLW_qXVvNPDx4oh)" d="M4.444,52.991L5.398,58c0.063,0.328,0.285,0.604,0.593,0.734	c0.246,0.104,0.522,0.105,0.765,0.006c0.06-0.024,0.119-0.056,0.174-0.092l4.257-2.807L4.444,52.991z"/></svg>