<svg xmlns="http://www.w3.org/2000/svg"  viewBox="0 0 48 48" width="50px" height="50px"><linearGradient id="59PxbCyCYBWqAEq0mwZbba" x1="9.858" x2="38.142" y1="9.858" y2="38.142" gradientUnits="userSpaceOnUse"><stop offset="0" stop-color="#33d7f0"/><stop offset="1" stop-color="#0083c4"/></linearGradient><path fill="url(#59PxbCyCYBWqAEq0mwZbba)" d="M44,24c0,11.045-8.955,20-20,20S4,35.045,4,24S12.955,4,24,4S44,12.955,44,24z"/><path d="M24,28h8c1.105,0,2-0.895,2-2v-4c0-1.105-0.895-2-2-2h-8v-3.648c0-1.336-1.616-2.006-2.561-1.061	l-7.295,7.295c-0.781,0.781-0.781,2.047,0,2.828l7.295,7.295C22.384,33.654,24,32.985,24,31.648V28z" opacity=".05"/><path d="M23.5,27.5H32c0.828,0,1.5-0.672,1.5-1.5v-4c0-0.828-0.672-1.5-1.5-1.5h-8.5v-4.021	c0-0.938-1.134-1.408-1.798-0.745l-7.13,7.129c-0.627,0.627-0.627,1.644,0,2.271l7.13,7.129c0.663,0.663,1.798,0.194,1.798-0.745	V27.5z" opacity=".07"/><path fill="#fff" d="M23,31.393V27h9c0.552,0,1-0.448,1-1v-4c0-0.552-0.448-1-1-1h-9v-4.393	c0-0.54-0.653-0.81-1.034-0.428l-6.964,6.964c-0.473,0.473-0.473,1.241,0,1.714l6.964,6.964C22.347,32.203,23,31.933,23,31.393z"/></svg>