<svg xmlns="http://www.w3.org/2000/svg"  viewBox="0 0 64 64" width="50px" height="50px"><radialGradient id="G6eQpbReKZ~BTc6mWRSowa" cx="32.5" cy="32" r="31.751" gradientUnits="userSpaceOnUse" spreadMethod="reflect"><stop offset="0" stop-color="#afeeff"/><stop offset=".193" stop-color="#bbf1ff"/><stop offset=".703" stop-color="#d7f8ff"/><stop offset="1" stop-color="#e1faff"/></radialGradient><path fill="url(#G6eQpbReKZ~BTc6mWRSowa)" d="M61.501,18.008H57v-4h1.411c1.85,0,3.32-1.69,2.94-3.6c-0.28-1.43-1.62-2.4-3.07-2.4L45.5,8 C44.67,8,44,7.33,44,6.5C44,5.67,44.67,5,45.5,5h5.91c1.14,0,2.2-0.72,2.5-1.82C54.36,1.52,53.1,0,51.5,0H7.59 c-1.14,0-2.2,0.72-2.5,1.82C4.64,3.48,5.9,5,7.5,5h3c0.69,0,1.32,0.28,1.77,0.73C12.72,6.18,13,6.81,13,7.5c0,1.38-1.12,2.5-2.5,2.5 H4c-1.65,0-3,1.35-3,3c0,1.65,1.35,3,3,3h4v21.512c-0.604,0.457-1,1.174-1,1.988s0.396,1.532,1,1.988V44H5.5 C3.025,44,1,46.025,1,48.5C1,50.975,3.025,53,5.5,53h19c1.38,0,2.5,1.12,2.5,2.5S25.88,58,24.5,58H19c-1.66,0-3,1.34-3,3 c0,1.66,1.34,3,3,3h40c1.66,0,3-1.34,3-3c0-1.66-1.34-3-3-3h-5.5c-1.38,0-2.5-1.12-2.5-2.5s1.12-2.5,2.5-2.5h4 c2.475,0,4.5-2.025,4.5-4.5c0-2.475-2.025-4.5-4.5-4.5H57V23.005l4.411,0.003c1.14,0,2.2-0.72,2.5-1.82 C64.351,19.527,63.091,18.008,61.501,18.008z"/><linearGradient id="G6eQpbReKZ~BTc6mWRSowb" x1="32.5" x2="32.5" y1="49.906" y2="-7.501" gradientUnits="userSpaceOnUse" spreadMethod="reflect"><stop offset="0" stop-color="#155cde"/><stop offset=".278" stop-color="#1f7fe5"/><stop offset=".569" stop-color="#279ceb"/><stop offset=".82" stop-color="#2cafef"/><stop offset="1" stop-color="#2eb5f0"/></linearGradient><path fill="url(#G6eQpbReKZ~BTc6mWRSowb)" d="M56,12H9c-1.657,0-3,1.343-3,3v33c0,1.657,1.343,3,3,3h47c1.657,0,3-1.343,3-3V15 C59,13.343,57.657,12,56,12z M15,47c0,0.552-0.448,1-1,1h-3c-0.552,0-1-0.448-1-1v-3c0-0.552,0.448-1,1-1h3c0.552,0,1,0.448,1,1V47z M15,19c0,0.552-0.448,1-1,1h-3c-0.552,0-1-0.448-1-1v-3c0-0.552,0.448-1,1-1h3c0.552,0,1,0.448,1,1V19z M25,47c0,0.552-0.448,1-1,1 h-3c-0.552,0-1-0.448-1-1v-3c0-0.552,0.448-1,1-1h3c0.552,0,1,0.448,1,1V47z M25,19c0,0.552-0.448,1-1,1h-3c-0.552,0-1-0.448-1-1v-3 c0-0.552,0.448-1,1-1h3c0.552,0,1,0.448,1,1V19z M35,47c0,0.552-0.448,1-1,1h-3c-0.552,0-1-0.448-1-1v-3c0-0.552,0.448-1,1-1h3 c0.552,0,1,0.448,1,1V47z M35,19c0,0.552-0.448,1-1,1h-3c-0.552,0-1-0.448-1-1v-3c0-0.552,0.448-1,1-1h3c0.552,0,1,0.448,1,1V19z M45,47c0,0.552-0.448,1-1,1h-3c-0.552,0-1-0.448-1-1v-3c0-0.552,0.448-1,1-1h3c0.552,0,1,0.448,1,1V47z M45,19c0,0.552-0.448,1-1,1 h-3c-0.552,0-1-0.448-1-1v-3c0-0.552,0.448-1,1-1h3c0.552,0,1,0.448,1,1V19z M55,47c0,0.552-0.448,1-1,1h-3c-0.552,0-1-0.448-1-1v-3 c0-0.552,0.448-1,1-1h3c0.552,0,1,0.448,1,1V47z M55,19c0,0.552-0.448,1-1,1h-3c-0.552,0-1-0.448-1-1v-3c0-0.552,0.448-1,1-1h3 c0.552,0,1,0.448,1,1V19z"/><linearGradient id="G6eQpbReKZ~BTc6mWRSowc" x1="42" x2="42" y1="33.922" y2="51.153" gradientUnits="userSpaceOnUse" spreadMethod="reflect"><stop offset="0" stop-color="#1b79da"/><stop offset=".434" stop-color="#1769d1"/><stop offset="1" stop-color="#1359c7"/></linearGradient><path fill="url(#G6eQpbReKZ~BTc6mWRSowc)" d="M25,37c0-1.657,1.343-3,3-3s3,1.343,3,3s-1.343,3-3,3S25,38.657,25,37z M59,34v6v8 c0,1.657-1.343,3-3,3H30c-1.657,0-3-1.343-3-3s1.343-3,3-3v2c0,0.552,0.448,1,1,1h3c0.552,0,1-0.448,1-1v-2h1.5 c1.381,0,2.5-1.119,2.5-2.5c0-1.381-1.119-2.5-2.5-2.5H36c-1.657,0-3-1.343-3-3s1.343-3,3-3H59z M50,47c0,0.552,0.448,1,1,1h3 c0.552,0,1-0.448,1-1v-3c0-0.552-0.448-1-1-1h-3c-0.552,0-1,0.448-1,1V47z M44,43h-3c-0.552,0-1,0.448-1,1v3c0,0.552,0.448,1,1,1h3 c0.552,0,1-0.448,1-1v-3C45,43.448,44.552,43,44,43z"/><linearGradient id="G6eQpbReKZ~BTc6mWRSowd" x1="16" x2="16" y1="27" y2="12" gradientUnits="userSpaceOnUse" spreadMethod="reflect"><stop offset=".004" stop-color="#2e93e9"/><stop offset=".195" stop-color="#2f98ea"/><stop offset="1" stop-color="#34a8ed"/></linearGradient><path fill="url(#G6eQpbReKZ~BTc6mWRSowd)" d="M22,24.5c0-1.381-1.119-2.5-2.5-2.5S17,20.881,17,19.5c0-1.381,1.119-2.5,2.5-2.5H20v-1 c0-0.552,0.448-1,1-1h3c0.552,0,1,0.448,1,1v0.489c0.604-0.456,1-1.173,1-1.989c0-1.381-1.119-2.5-2.5-2.5H9c-1.657,0-3,1.343-3,3v2 v5v5h13.5C20.881,27,22,25.881,22,24.5z M15,19c0,0.552-0.448,1-1,1h-3c-0.552,0-1-0.448-1-1v-3c0-0.552,0.448-1,1-1h3 c0.552,0,1,0.448,1,1V19z"/></svg>