<svg xmlns="http://www.w3.org/2000/svg"  viewBox="0 0 64 64" width="50px" height="50px"><radialGradient id="LleSpBQaNFRO~wvtBn_uVa" cx="36.833" cy="35.917" r="26" gradientUnits="userSpaceOnUse" spreadMethod="reflect"><stop offset="0" stop-color="#afeeff"/><stop offset=".193" stop-color="#bbf1ff"/><stop offset=".703" stop-color="#d7f8ff"/><stop offset="1" stop-color="#e1faff"/></radialGradient><path fill="url(#LleSpBQaNFRO~wvtBn_uVa)" d="M10,8L10,8c2.209,0,4-1.791,4-4v0c0-2.209-1.791-4-4-4h0C7.791,0,6,1.791,6,4v0 C6,6.209,7.791,8,10,8z"/><radialGradient id="LleSpBQaNFRO~wvtBn_uVb" cx="32" cy="32" r="32" gradientUnits="userSpaceOnUse" spreadMethod="reflect"><stop offset="0" stop-color="#afeeff"/><stop offset=".193" stop-color="#bbf1ff"/><stop offset=".703" stop-color="#d7f8ff"/><stop offset="1" stop-color="#e1faff"/></radialGradient><path fill="url(#LleSpBQaNFRO~wvtBn_uVb)" d="M62,20.5L62,20.5c0-2.485-2.015-4.5-4.5-4.5H49c-2.209,0-4-1.791-4-4v0c0-2.209,1.791-4,4-4 h2c2.209,0,4-1.791,4-4v0c0-2.209-1.791-4-4-4L20,0c-2.209,0-4,1.791-4,4v0c0,2.209,1.791,4,4,4h2c1.657,0,3,1.343,3,3v0 c0,1.657-1.343,3-3,3H7.5C5.567,14,4,15.567,4,17.5v0C4,19.433,5.567,21,7.5,21H13c1.657,0,3,1.343,3,3v0c0,1.657-1.343,3-3,3H5 c-2.761,0-5,2.239-5,5v0c0,2.761,2.239,5,5,5h2.5c1.933,0,3.5,1.567,3.5,3.5v0c0,1.933-1.567,3.5-3.5,3.5H6c-2.209,0-4,1.791-4,4v0 c0,2.209,1.791,4,4,4h3.5c1.381,0,2.5,1.119,2.5,2.5v0c0,1.381-1.119,2.5-2.5,2.5h0C7.567,57,6,58.567,6,60.5v0 C6,62.433,7.567,64,9.5,64h45c1.933,0,3.5-1.567,3.5-3.5v0c0-1.933-1.567-3.5-3.5-3.5H54c-1.105,0-2-0.895-2-2v0 c0-1.105,0.895-2,2-2h6c2.209,0,4-1.791,4-4v0c0-2.209-1.791-4-4-4h-3.5c-1.381,0-2.5-1.119-2.5-2.5v0c0-1.381,1.119-2.5,2.5-2.5 H57c2.209,0,4-1.791,4-4v0c0-2.209-1.791-4-4-4h-4.5c-1.933,0-3.5-1.567-3.5-3.5v0c0-1.933,1.567-3.5,3.5-3.5h5 C59.985,25,62,22.985,62,20.5z"/><linearGradient id="LleSpBQaNFRO~wvtBn_uVc" x1="32.5" x2="32.5" y1="10" y2="51.5" gradientUnits="userSpaceOnUse" spreadMethod="reflect"><stop offset="0" stop-color="#b2b2b2"/><stop offset=".296" stop-color="#a9a9a9"/><stop offset=".771" stop-color="#929292"/><stop offset="1" stop-color="#848484"/><stop offset="1" stop-color="#848484"/></linearGradient><path fill="url(#LleSpBQaNFRO~wvtBn_uVc)" d="M29,48V13.5c0-1.933,1.567-3.5,3.5-3.5h0c1.933,0,3.5,1.567,3.5,3.5V48 c0,1.933-1.567,3.5-3.5,3.5h0C30.567,51.5,29,49.933,29,48z M17.5,51.5L17.5,51.5c1.933,0,3.5-1.567,3.5-3.5V13.5 c0-1.933-1.567-3.5-3.5-3.5h0c-1.933,0-3.5,1.567-3.5,3.5V48C14,49.933,15.567,51.5,17.5,51.5z M47.5,51.5L47.5,51.5 c1.933,0,3.5-1.567,3.5-3.5V13.5c0-1.933-1.567-3.5-3.5-3.5h0c-1.933,0-3.5,1.567-3.5,3.5V48C44,49.933,45.567,51.5,47.5,51.5z"/><linearGradient id="LleSpBQaNFRO~wvtBn_uVd" x1="32.5" x2="32.5" y1="53" y2="20.5" gradientUnits="userSpaceOnUse" spreadMethod="reflect"><stop offset="0" stop-color="#ffc050"/><stop offset=".64" stop-color="#ffbe75"/><stop offset="1" stop-color="#ffbd85"/></linearGradient><path fill="url(#LleSpBQaNFRO~wvtBn_uVd)" d="M29,49.5V41c0-1.933,1.567-3.5,3.5-3.5h0c1.933,0,3.5,1.567,3.5,3.5v8.5 c0,1.933-1.567,3.5-3.5,3.5h0C30.567,53,29,51.433,29,49.5z M17.5,53L17.5,53c1.933,0,3.5-1.567,3.5-3.5V24 c0-1.933-1.567-3.5-3.5-3.5h0c-1.933,0-3.5,1.567-3.5,3.5v25.5C14,51.433,15.567,53,17.5,53z M47.5,53L47.5,53 c1.933,0,3.5-1.567,3.5-3.5v-21c0-1.933-1.567-3.5-3.5-3.5h0c-1.933,0-3.5,1.567-3.5,3.5v21C44,51.433,45.567,53,47.5,53z"/><g><linearGradient id="LleSpBQaNFRO~wvtBn_uVe" x1="17.5" x2="17.5" y1="26" y2="18" gradientUnits="userSpaceOnUse" spreadMethod="reflect"><stop offset="0" stop-color="#ff634d"/><stop offset=".204" stop-color="#fe6464"/><stop offset=".521" stop-color="#fc6581"/><stop offset=".794" stop-color="#fa6694"/><stop offset=".989" stop-color="#fa669a"/></linearGradient><path fill="url(#LleSpBQaNFRO~wvtBn_uVe)" d="M24,21v2c0,1.657-1.343,3-3,3h-7c-1.657,0-3-1.343-3-3v-2c0-1.657,1.343-3,3-3h7 C22.657,18,24,19.343,24,21z"/><linearGradient id="LleSpBQaNFRO~wvtBn_uVf" x1="47.5" x2="47.5" y1="30" y2="22" gradientUnits="userSpaceOnUse" spreadMethod="reflect"><stop offset="0" stop-color="#ff634d"/><stop offset=".204" stop-color="#fe6464"/><stop offset=".521" stop-color="#fc6581"/><stop offset=".794" stop-color="#fa6694"/><stop offset=".989" stop-color="#fa669a"/></linearGradient><path fill="url(#LleSpBQaNFRO~wvtBn_uVf)" d="M54,25v2c0,1.657-1.343,3-3,3h-7c-1.657,0-3-1.343-3-3v-2c0-1.657,1.343-3,3-3h7 C52.657,22,54,23.343,54,25z"/><linearGradient id="LleSpBQaNFRO~wvtBn_uVg" x1="32.5" x2="32.5" y1="43" y2="35" gradientUnits="userSpaceOnUse" spreadMethod="reflect"><stop offset="0" stop-color="#ff634d"/><stop offset=".204" stop-color="#fe6464"/><stop offset=".521" stop-color="#fc6581"/><stop offset=".794" stop-color="#fa6694"/><stop offset=".989" stop-color="#fa669a"/></linearGradient><path fill="url(#LleSpBQaNFRO~wvtBn_uVg)" d="M39,38v2c0,1.657-1.343,3-3,3h-7c-1.657,0-3-1.343-3-3v-2c0-1.657,1.343-3,3-3h7 C37.657,35,39,36.343,39,38z"/></g></svg>