<svg xmlns="http://www.w3.org/2000/svg"  viewBox="0 0 48 48" width="50px" height="50px"><linearGradient id="SVGID_1_" x1="12.686" x2="35.58" y1="113.408" y2="76.159" gradientTransform="matrix(1 0 0 -1 0 118)" gradientUnits="userSpaceOnUse"><stop offset="0" stop-color="#33bef0"/><stop offset="1" stop-color="#0a85d9"/></linearGradient><path fill="url(#SVGID_1_)" d="M42,8H6c-1.1,0-2,0.9-2,2v26c0,1.1,0.9,2,2,2h8v8c0,0.9,1.1,1.3,1.7,0.7l8.7-8.7H42c1.1,0,2-0.9,2-2V10	C44,8.9,43.1,8,42,8z"/><path fill="#199be2" d="M44,42.2L42.2,44l3.9,3.9c0.1,0.1,0.3,0.1,0.4,0l1.4-1.4c0.1-0.1,0.1-0.3,0-0.4L44,42.2z"/><radialGradient id="SVGID_2_" cx="36.012" cy="81.952" r="9.802" gradientTransform="matrix(1 0 0 -1 0 118)" gradientUnits="userSpaceOnUse"><stop offset=".693" stop-color="#006185"/><stop offset=".921" stop-color="#35c1f1"/></radialGradient><polygon fill="url(#SVGID_2_)" points="41.8,40 40,41.8 42.2,44 44,42.2"/><path d="M44,36v-4.1C42.5,29,39.5,27,36,27c-5,0-9,4-9,9c0,0.7,0.1,1.4,0.2,2H42C43.1,38,44,37.1,44,36z" opacity=".05"/><path d="M44,36v-2.8c-1.2-3.3-4.3-5.7-8-5.7c-4.7,0-8.5,3.8-8.5,8.5c0,0.7,0.1,1.4,0.2,2H42C43.1,38,44,37.1,44,36z" opacity=".07"/><linearGradient id="SVGID_3_" x1="30.455" x2="41.669" y1="87.545" y2="76.331" gradientTransform="matrix(1 0 0 -1 0 118)" gradientUnits="userSpaceOnUse"><stop offset="0" stop-color="#a3ffff"/><stop offset=".223" stop-color="#9dfbff"/><stop offset=".53" stop-color="#8bf1ff"/><stop offset=".885" stop-color="#6ee0ff"/><stop offset="1" stop-color="#63daff"/></linearGradient><circle cx="36" cy="36" r="8" fill="url(#SVGID_3_)"/></svg>