<svg xmlns="http://www.w3.org/2000/svg"  viewBox="0 0 64 64" width="50px" height="50px"><radialGradient id="6_od5wc_Cvf9hx9Sl8ZGya" cx="32.5" cy="31.5" r="30.516" gradientUnits="userSpaceOnUse" spreadMethod="reflect"><stop offset="0" stop-color="#afeeff"/><stop offset=".193" stop-color="#bbf1ff"/><stop offset=".703" stop-color="#d7f8ff"/><stop offset="1" stop-color="#e1faff"/></radialGradient><path fill="url(#6_od5wc_Cvf9hx9Sl8ZGya)" d="M59,20h1.5c2.168,0,3.892-1.998,3.422-4.243C63.58,14.122,62.056,13,60.385,13L53,13 c-1.105,0-2-0.895-2-2c0-1.105,0.895-2,2-2h3.385c1.67,0,3.195-1.122,3.537-2.757C60.392,3.998,58.668,2,56.5,2H34.006H32.5h-24 C6.575,2,5,3.575,5,5.5S6.575,9,8.5,9H10c1.105,0,2,0.895,2,2c0,1.105-0.895,2-2,2l-5.385,0c-1.67,0-3.195,1.122-3.537,2.757 C0.608,18.002,2.332,20,4.5,20H18v12L4.615,32c-1.67,0-3.195,1.122-3.537,2.757C0.608,37.002,2.332,39,4.5,39H5c1.105,0,2,0.895,2,2 c0,1.105-0.895,2-2,2H4.5c-2.168,0-3.892,1.998-3.422,4.243C1.42,48.878,2.945,50,4.615,50H10c1.105,0,2,0.895,2,2 c0,1.105-0.895,2-2,2l-1.385,0c-1.67,0-3.195,1.122-3.537,2.757C4.608,59.002,6.332,61,8.5,61h22.494H32.5h23 c1.925,0,3.5-1.575,3.5-3.5S57.425,54,55.5,54H55c-1.105,0-2-0.895-2-2c0-1.105,0.895-2,2-2h4.385c1.67,0,3.195-1.122,3.537-2.757 C63.392,44.998,61.668,43,59.5,43H47V31h12.385c1.67,0,3.195-1.122,3.537-2.757C63.392,25.998,61.668,24,59.5,24H59 c-1.105,0-2-0.895-2-2C57,20.895,57.895,20,59,20z"/><linearGradient id="6_od5wc_Cvf9hx9Sl8ZGyb" x1="32" x2="32" y1="64.025" y2="14.025" gradientUnits="userSpaceOnUse" spreadMethod="reflect"><stop offset="0" stop-color="#155cde"/><stop offset=".278" stop-color="#1f7fe5"/><stop offset=".569" stop-color="#279ceb"/><stop offset=".82" stop-color="#2cafef"/><stop offset="1" stop-color="#2eb5f0"/></linearGradient><path fill="url(#6_od5wc_Cvf9hx9Sl8ZGyb)" d="M57,31c0,13.805-11.195,25-25,25S7,44.805,7,31S18.195,6,32,6S57,17.195,57,31z"/><path fill="#fff" d="M29 42c0-1.658 1.342-3 3-3 1.658 0 3 1.342 3 3 0 1.658-1.342 3-3 3C30.342 45 29 43.658 29 42zM35 35c0-3 6-4.803 6-10.416-.008-2.411-.785-4.276-2.342-5.6C37.097 17.66 34.908 17 32.086 17c-2.797 0-5.006.7-6.621 2.091-1.531 1.319-2.344 3.13-2.444 5.41H23v.361C23 26.043 23.957 27 25.138 27h1.735c1.177 0 2.132-.951 2.138-2.127v0C29.036 23.842 30 22 32 22c1.952 0 3 1.118 3 3 0 .722-.195 1.411-.598 2.06-.397.65-1.2 1.494-2.405 2.534-1.205 1.035-2.033 2.09-2.486 3.159-.267.625-.449 1.287-.51 2.128C28.918 36.027 29.85 37 31 37l2 0C34.105 37 35 36.105 35 35L35 35z"/></svg>