<svg xmlns="http://www.w3.org/2000/svg"  viewBox="0 0 64 64" width="50px" height="50px"><radialGradient id="zCChSJyixkL4RGzscGOQLa" cx="32.5" cy="3709.5" r="30.516" gradientTransform="translate(0 -3678)" gradientUnits="userSpaceOnUse"><stop offset="0" stop-color="#afeeff"/><stop offset=".193" stop-color="#bbf1ff"/><stop offset=".703" stop-color="#d7f8ff"/><stop offset="1" stop-color="#e1faff"/></radialGradient><path fill="url(#zCChSJyixkL4RGzscGOQLa)" d="M59,20h1.5c2.168,0,3.892-1.998,3.422-4.243C63.58,14.122,62.056,13,60.385,13H53	c-1.105,0-2-0.895-2-2s0.895-2,2-2h3.385c1.67,0,3.195-1.122,3.537-2.757C60.392,3.998,58.668,2,56.5,2H34.006H32.5h-24	C6.575,2,5,3.575,5,5.5S6.575,9,8.5,9H10c1.105,0,2,0.895,2,2s-0.895,2-2,2H4.615c-1.67,0-3.195,1.122-3.537,2.757	C0.608,18.002,2.332,20,4.5,20H18v12H4.615c-1.67,0-3.195,1.122-3.537,2.757C0.608,37.002,2.332,39,4.5,39H5c1.105,0,2,0.895,2,2	s-0.895,2-2,2H4.5c-2.168,0-3.892,1.998-3.422,4.243C1.42,48.878,2.945,50,4.615,50H10c1.105,0,2,0.895,2,2s-0.895,2-2,2H8.615	c-1.67,0-3.195,1.122-3.537,2.757C4.608,59.002,6.332,61,8.5,61h22.494H32.5h23c1.925,0,3.5-1.575,3.5-3.5S57.425,54,55.5,54H55	c-1.105,0-2-0.895-2-2s0.895-2,2-2h4.385c1.67,0,3.195-1.122,3.537-2.757C63.392,44.998,61.668,43,59.5,43H47V31h12.385	c1.67,0,3.195-1.122,3.537-2.757C63.392,25.998,61.668,24,59.5,24H59c-1.105,0-2-0.895-2-2S57.895,20,59,20z"/><linearGradient id="zCChSJyixkL4RGzscGOQLb" x1="32" x2="32" y1="55.553" y2="-14.715" gradientTransform="matrix(1 0 0 -1 0 66)" gradientUnits="userSpaceOnUse"><stop offset=".234" stop-color="#42d778"/><stop offset=".761" stop-color="#34b171"/><stop offset="1" stop-color="#34b171"/></linearGradient><path fill="url(#zCChSJyixkL4RGzscGOQLb)" d="M57,31c0,13.805-11.195,25-25,25S7,44.805,7,31S18.195,6,32,6S57,17.195,57,31z"/><path fill="#fff" d="M45,27h-9v-9c0-1.105-0.895-2-2-2h-4c-1.105,0-2,0.895-2,2v9h-9c-1.105,0-2,0.895-2,2v4	c0,1.105,0.895,2,2,2h9v9c0,1.105,0.895,2,2,2h4c1.105,0,2-0.895,2-2v-9h9c1.105,0,2-0.895,2-2v-4C47,27.895,46.105,27,45,27z"/></svg>