<svg xmlns="http://www.w3.org/2000/svg"  viewBox="0 0 48 48" width="50px" height="50px"><path fill="#424a52" d="M42,38.5c0-0.828-0.672-1.5-1.5-1.5S39,37.672,39,38.5c0,0.386,0,1.614,0,2	c0,0.828,0.672,1.5,1.5,1.5s1.5-0.672,1.5-1.5C42,40.114,42,38.886,42,38.5z"/><path fill="#424a52" d="M9,38.5C9,37.672,8.328,37,7.5,37S6,37.672,6,38.5c0,0.386,0,1.614,0,2C6,41.328,6.672,42,7.5,42	S9,41.328,9,40.5C9,40.114,9,38.886,9,38.5z"/><linearGradient id="pUIcl4P62OLk~m21ZS~Paa" x1="24" x2="24" y1="346.485" y2="379.143" gradientTransform="translate(0 -338)" gradientUnits="userSpaceOnUse"><stop offset="0" stop-color="#889097"/><stop offset="1" stop-color="#64717c"/></linearGradient><path fill="url(#pUIcl4P62OLk~m21ZS~Paa)" d="M43,8H5c-1.105,0-2,0.895-2,2v28c0,1.105,0.895,2,2,2h38c1.105,0,2-0.895,2-2V10	C45,8.895,44.105,8,43,8z"/><rect width="3" height="26" x="42" y="11" opacity=".3"/><linearGradient id="pUIcl4P62OLk~m21ZS~Pab" x1="5.938" x2="29.863" y1="-314" y2="-314" gradientTransform="matrix(1 0 0 -1 0 -290)" gradientUnits="userSpaceOnUse"><stop offset="0" stop-color="#4c4c4c"/><stop offset=".289" stop-color="#464646"/><stop offset=".998" stop-color="#3b3b3b"/></linearGradient><rect width="36" height="26" x="6" y="11" fill="url(#pUIcl4P62OLk~m21ZS~Pab)"/><linearGradient id="pUIcl4P62OLk~m21ZS~Pac" x1="41.845" x2="33.037" y1="-314" y2="-314" gradientTransform="matrix(1 0 0 -1 0 -290)" gradientUnits="userSpaceOnUse"><stop offset="0" stop-color="#5d6771"/><stop offset="1" stop-color="#545f69"/></linearGradient><path fill="url(#pUIcl4P62OLk~m21ZS~Pac)" d="M42,11l-9-3v32l9-3V11z"/><path fill="#939ca3" d="M33,8h-3c-0.552,0-1,0.448-1,1v30c0,0.552,0.448,1,1,1h3V8z"/><path fill="#e6e6e6" d="M35.5,18.5c-0.276,0-0.5,0.224-0.5,0.5v10c0,0.276,0.224,0.5,0.5,0.5S36,29.276,36,29V19	C36,18.724,35.776,18.5,35.5,18.5z"/><linearGradient id="pUIcl4P62OLk~m21ZS~Pad" x1="42.992" x2="38.01" y1="-314" y2="-314" gradientTransform="matrix(1 0 0 -1 0 -290)" gradientUnits="userSpaceOnUse"><stop offset="0" stop-color="#3b3b3b"/><stop offset="1" stop-color="#4f4f4f"/></linearGradient><path fill="url(#pUIcl4P62OLk~m21ZS~Pad)" d="M41.5,17c0,0-1.101-1-1.5-1c-1.105,0-2,3.582-2,8s0.895,8,2,8c0.399,0,1.5-1,1.5-1	c0.828,0,1.5-3.134,1.5-7S42.328,17,41.5,17z"/><path fill="#e6e6e6" d="M41,24l-0.965-1.071l-0.75,0.833c-0.118,0.131-0.118,0.345,0,0.476l0.75,0.833L41,24z M39.688,19.908	c-0.129,0.092-0.159,0.295-0.066,0.454l0.591,1.005l1.054-0.748l-0.76-1.293L39.688,19.908z M40.706,17.074l0.047,1.065l0.59,0.35	l-0.06-1.37l-0.459-0.272C40.751,16.804,40.698,16.905,40.706,17.074z M40.507,28.637l0.76-1.293l-1.054-0.748l-0.591,1.005	c-0.093,0.159-0.064,0.362,0.066,0.454L40.507,28.637z M40.824,31.117l0.459-0.272l0.06-1.37l-0.59,0.35l-0.047,1.065	C40.698,31.058,40.751,31.159,40.824,31.117z"/><linearGradient id="pUIcl4P62OLk~m21ZS~Pae" x1="40" x2="43.448" y1="-314" y2="-314" gradientTransform="matrix(1 0 0 -1 0 -290)" gradientUnits="userSpaceOnUse"><stop offset="0" stop-color="#889097"/><stop offset="1" stop-color="#889097"/></linearGradient><ellipse cx="41.5" cy="24" fill="url(#pUIcl4P62OLk~m21ZS~Pae)" rx="1.5" ry="7"/><linearGradient id="pUIcl4P62OLk~m21ZS~Paf" x1="31.966" x2="30.008" y1="-314" y2="-314" gradientTransform="matrix(1 0 0 -1 0 -290)" gradientUnits="userSpaceOnUse"><stop offset="0" stop-color="#5d6771"/><stop offset="1" stop-color="#545f69"/></linearGradient><circle cx="31" cy="24" r="1" fill="url(#pUIcl4P62OLk~m21ZS~Paf)"/><linearGradient id="pUIcl4P62OLk~m21ZS~Pag" x1="31.966" x2="30.008" y1="-308" y2="-308" gradientTransform="matrix(1 0 0 -1 0 -290)" gradientUnits="userSpaceOnUse"><stop offset="0" stop-color="#5d6771"/><stop offset="1" stop-color="#545f69"/></linearGradient><circle cx="31" cy="18" r="1" fill="url(#pUIcl4P62OLk~m21ZS~Pag)"/><linearGradient id="pUIcl4P62OLk~m21ZS~Pah" x1="31.966" x2="30.008" y1="-320" y2="-320" gradientTransform="matrix(1 0 0 -1 0 -290)" gradientUnits="userSpaceOnUse"><stop offset="0" stop-color="#5d6771"/><stop offset="1" stop-color="#545f69"/></linearGradient><circle cx="31" cy="30" r="1" fill="url(#pUIcl4P62OLk~m21ZS~Pah)"/><path fill="#f0424f" d="M13.319,18.179l-4.964,4.964c-0.473,0.473-0.473,1.241,0,1.714l4.964,4.964	c0.381,0.382,1.034,0.112,1.034-0.428V26h11c0.552,0,1-0.448,1-1v-2c0-0.552-0.448-1-1-1h-11v-3.393	C14.353,18.067,13.7,17.797,13.319,18.179z"/></svg>