<svg xmlns="http://www.w3.org/2000/svg"  viewBox="0 0 64 64" width="50px" height="50px"><radialGradient id="TuSLf30nFePwp9CjkLA2ma" cx="32" cy="32.5" r="30.751" gradientUnits="userSpaceOnUse" spreadMethod="reflect"><stop offset="0" stop-color="#b8efff"/><stop offset=".642" stop-color="#d4f6ff"/><stop offset="1" stop-color="#e5faff"/></radialGradient><path fill="url(#TuSLf30nFePwp9CjkLA2ma)" d="M60.357,47H57c-1.105,0-2-0.895-2-2c0-1.105,0.895-2,2-2h0.412 c1.139,0,2.202-0.721,2.497-1.821C60.355,39.516,59.096,38,57.5,38H42V27h14c2.335,0,4.22-2.028,3.979-4.41 c-0.21-2.075-2.082-3.59-4.168-3.59H46c-1.105,0-2-0.895-2-2c0-1.105,0.895-2,2-2h6.357c1.308,0,2.499-0.941,2.63-2.242 C55.137,11.261,53.966,10,52.5,10h-8C43.672,10,43,9.328,43,8.5S43.672,7,44.5,7h3.857c1.308,0,2.499-0.941,2.63-2.242 C51.137,3.261,49.966,2,48.5,2L15.643,2c-1.308,0-2.499,0.941-2.63,2.242C12.863,5.739,14.034,7,15.5,7H19c1.105,0,2,0.895,2,2 c0,1.105-0.895,2-2,2H6.189c-2.086,0-3.958,1.514-4.168,3.59C1.78,16.972,3.665,19,6,19h2.5c1.933,0,3.5,1.567,3.5,3.5 c0,1.933-1.567,3.5-3.5,3.5H5.189c-2.086,0-3.958,1.514-4.168,3.59C0.78,31.972,2.665,34,5,34h17v12H7.588 c-1.139,0-2.202,0.721-2.497,1.821C4.645,49.484,5.904,51,7.5,51H9c1.105,0,2,0.895,2,2c0,1.105-0.895,2-2,2H6.189 c-2.086,0-3.958,1.514-4.168,3.59C1.78,60.972,3.665,63,6,63h48.811c2.086,0,3.958-1.514,4.168-3.59C59.22,57.028,57.335,55,55,55 h-0.5c-0.828,0-1.5-0.672-1.5-1.5s0.672-1.5,1.5-1.5h6c1.466,0,2.637-1.261,2.487-2.758C62.857,47.941,61.665,47,60.357,47z"/><linearGradient id="TuSLf30nFePwp9CjkLA2mb" x1="32" x2="32" y1="56.764" y2="11.764" gradientUnits="userSpaceOnUse" spreadMethod="reflect"><stop offset="0" stop-color="#fbaa5e"/><stop offset="1" stop-color="#ffbb70"/></linearGradient><path fill="url(#TuSLf30nFePwp9CjkLA2mb)" d="M57,16.5c0-3.038-2.462-5.5-5.5-5.5h-39C9.462,11,7,13.462,7,16.5 c0,2.136,1.22,3.984,3,4.895V52c0,2.209,1.791,4,4,4h36c2.209,0,4-1.791,4-4V21.395C55.78,20.484,57,18.636,57,16.5z"/><linearGradient id="TuSLf30nFePwp9CjkLA2mc" x1="43.5" x2="43.5" y1="60.089" y2="28.954" gradientUnits="userSpaceOnUse" spreadMethod="reflect"><stop offset="0" stop-color="#ff9757"/><stop offset="1" stop-color="#ffb65b"/></linearGradient><path fill="url(#TuSLf30nFePwp9CjkLA2mc)" d="M54,52V39c-3.083,0-10.118,0-11.872,0c-1.451,0-2.786,0.972-3.068,2.395 C38.681,43.307,40.152,45,42,45h0.5c1.381,0,2.5,1.119,2.5,2.5c0,1.381-1.119,2.5-2.5,2.5h-6.369c-1.451,0-2.789,0.972-3.071,2.395 C32.681,54.307,34.152,56,36,56h14C52.209,56,54,54.209,54,52z"/><linearGradient id="TuSLf30nFePwp9CjkLA2md" x1="19.5" x2="19.5" y1="40" y2="11" gradientUnits="userSpaceOnUse" spreadMethod="reflect"><stop offset="0" stop-color="#fdb976"/><stop offset=".206" stop-color="#febc79"/><stop offset=".989" stop-color="#ffc27f"/></linearGradient><path fill="url(#TuSLf30nFePwp9CjkLA2md)" d="M7,16.5c0,2.136,1.22,3.984,3,4.895V40h10c1.657,0,3-1.343,3-3s-1.343-3-3-3h-1 c-1.657,0-3-1.343-3-3s1.343-3,3-3h4c1.657,0,3-1.343,3-3s-1.343-3-3-3h-3c-1.657,0-3-1.343-3-3s1.343-3,3-3h9.5 c1.381,0,2.5-1.119,2.5-2.5c0-1.381-1.119-2.5-2.5-2.5h-17C9.462,11,7,13.462,7,16.5z"/><linearGradient id="TuSLf30nFePwp9CjkLA2me" x1="34" x2="34" y1="49" y2="1.461" gradientUnits="userSpaceOnUse" spreadMethod="reflect"><stop offset="0" stop-color="#eb935c"/><stop offset=".989" stop-color="#f5a45c"/></linearGradient><path fill="url(#TuSLf30nFePwp9CjkLA2me)" d="M37.5,22h-3c-0.825,0-1.5-0.675-1.5-1.5v0c0-0.825,0.675-1.5,1.5-1.5h3 c0.825,0,1.5,0.675,1.5,1.5v0C39,21.325,38.325,22,37.5,22z M33,35.5L33,35.5c0-0.825-0.675-1.5-1.5-1.5h-3 c-0.825,0-1.5,0.675-1.5,1.5l0,0c0,0.825,0.675,1.5,1.5,1.5h3C32.325,37,33,36.325,33,35.5z M26,47.5L26,47.5 c0-0.825-0.675-1.5-1.5-1.5h-3c-0.825,0-1.5,0.675-1.5,1.5l0,0c0,0.825,0.675,1.5,1.5,1.5h3C25.325,49,26,48.325,26,47.5z M48,31.5 L48,31.5c0-0.825-0.675-1.5-1.5-1.5h-3c-0.825,0-1.5,0.675-1.5,1.5v0c0,0.825,0.675,1.5,1.5,1.5h3C47.325,33,48,32.325,48,31.5z"/></svg>