<svg xmlns="http://www.w3.org/2000/svg"  viewBox="0 0 64 64" width="50px" height="50px"><radialGradient id="qprXx~gcLYpv4dqSXKKdOa" cx="32" cy="32" r="33.002" gradientUnits="userSpaceOnUse" spreadMethod="reflect"><stop offset="0" stop-color="#f4e9c3"/><stop offset=".219" stop-color="#f8eecd"/><stop offset=".644" stop-color="#fdf4dc"/><stop offset="1" stop-color="#fff6e1"/></radialGradient><path fill="url(#qprXx~gcLYpv4dqSXKKdOa)" d="M55.454,45.668c0.5,0.898,1.504,1.337,2.532,1.332c1.75-0.008,3.153,1.483,3.002,3.262 C60.855,51.838,59.434,53,57.852,53L48,53v1H26h-8H7c-1.71,0-3.086-1.431-2.996-3.161C4.089,49.216,5.545,48,7.17,48L8,48 c1.215,0,2.176-1.083,1.973-2.336C9.813,44.681,8.889,44,7.893,44L3,44c-1.71,0-3.086-1.431-2.996-3.161 C0.089,39.216,1.545,38,3.17,38l6.33,0c1.381,0,2.5-1.119,2.5-2.5v0c0-1.381-1.119-2.5-2.5-2.5h0C8.119,33,7,31.881,7,30.5v0 C7,29.119,8.119,28,9.5,28H18v-7h-7.5c-1.995,0-3.601-1.67-3.495-3.688C7.104,15.419,8.803,14,10.698,14L18,14v-4h24h6h8.5 c1.995,0,3.601,1.67,3.495,3.688C59.896,15.581,58.197,17,56.302,17L53.5,17c-1.995,0-3.601,1.67-3.495,3.688 C50.104,22.581,51.803,24,53.698,24L56,24c1.777,0,3.194,1.546,2.978,3.366c-0.179,1.509-1.546,2.572-3.064,2.635 c-1.197,0.05-2.122,1.153-1.874,2.406C54.228,33.355,55.123,34,56.089,34H60.5c1.995,0,3.601,1.67,3.495,3.688 C63.896,39.581,62.197,41,60.302,41L58,41C55.808,41,54.166,43.35,55.454,45.668z M2.5,33L2.5,33C3.881,33,5,31.881,5,30.5v0 C5,29.119,3.881,28,2.5,28h0C1.119,28,0,29.119,0,30.5v0C0,31.881,1.119,33,2.5,33z"/><linearGradient id="qprXx~gcLYpv4dqSXKKdOb" x1="35" x2="35" y1="58" y2="6" gradientUnits="userSpaceOnUse" spreadMethod="reflect"><stop offset="0" stop-color="#41bfec"/><stop offset=".232" stop-color="#4cc5ef"/><stop offset=".644" stop-color="#6bd4f6"/><stop offset="1" stop-color="#8ae4fd"/></linearGradient><path fill="url(#qprXx~gcLYpv4dqSXKKdOb)" d="M50,58H16c-1.657,0-3-1.343-3-3V9c0-1.657,1.343-3,3-3h20.757 c0.796,0,1.559,0.316,2.121,0.879l13.243,13.243C52.684,20.684,53,21.447,53,22.243V31l4,9l-4,7v8C53,56.657,51.657,58,50,58z"/><linearGradient id="qprXx~gcLYpv4dqSXKKdOc" x1="38.879" x2="46.454" y1="20.121" y2="12.546" gradientUnits="userSpaceOnUse" spreadMethod="reflect"><stop offset="0" stop-color="#c6effd"/><stop offset=".375" stop-color="#b7ecfd"/><stop offset="1" stop-color="#95e6fd"/></linearGradient><path fill="url(#qprXx~gcLYpv4dqSXKKdOc)" d="M52.121,20.122L38.878,6.879c-0.255-0.255-0.556-0.452-0.878-0.6V18c0,1.657,1.343,3,3,3 h11.721C52.574,20.678,52.377,20.377,52.121,20.122z"/><linearGradient id="qprXx~gcLYpv4dqSXKKdOd" x1="45.5" x2="45.5" y1="24.083" y2="18.083" gradientUnits="userSpaceOnUse" spreadMethod="reflect"><stop offset="0" stop-color="#42c6ee"/><stop offset=".48" stop-color="#3bc3ed"/><stop offset="1" stop-color="#2ebeea"/></linearGradient><path fill="url(#qprXx~gcLYpv4dqSXKKdOd)" d="M41,21c-1.657,0-3-1.343-3-3v3c0,1.657,1.343,3,3,3h12v-1.757 c0-0.434-0.102-0.855-0.279-1.243H41z"/><path fill="#f1fcff" d="M32,22H21c-1.105,0-2-0.895-2-2v0c0-1.105,0.895-2,2-2h11c1.105,0,2,0.895,2,2v0 C34,21.105,33.105,22,32,22z"/><g><path fill="#f1fcff" d="M21,37h14c1.105,0,2,0.895,2,2v0c0,1.105-0.895,2-2,2H21c-1.105,0-2-0.895-2-2v0 C19,37.895,19.895,37,21,37z"/></g><g><path fill="#f1fcff" d="M30 49h-9c-1.105 0-2-.895-2-2v0c0-1.105.895-2 2-2h9c1.105 0 2 .895 2 2v0C32 48.105 31.105 49 30 49zM21 29h19c1.105 0 2 .895 2 2v0c0 1.105-.895 2-2 2H21c-1.105 0-2-.895-2-2v0C19 29.895 19.895 29 21 29z"/></g><g><path fill="#f1fcff" d="M36.12 43H47.5c1.381 0 2.5 1.119 2.5 2.5v0c0 1.381-1.119 2.5-2.5 2.5h-8.88c-1.381 0-2.5-1.119-2.5-2.5V43zM38.621 33H47.5c1.381 0 2.5 1.119 2.5 2.5v0c0 1.381-1.119 2.5-2.5 2.5H36.121v-2.5C36.121 34.119 37.24 33 38.621 33z"/></g><linearGradient id="qprXx~gcLYpv4dqSXKKdOe" x1="49" x2="49" y1="19.146" y2="53.595" gradientUnits="userSpaceOnUse" spreadMethod="reflect"><stop offset="0" stop-color="#a4a4a4"/><stop offset=".63" stop-color="#7f7f7f"/><stop offset="1" stop-color="#6f6f6f"/><stop offset="1" stop-color="#6f6f6f"/></linearGradient><path fill="url(#qprXx~gcLYpv4dqSXKKdOe)" d="M63.417,53.588l-6.786-6.786C58.115,44.747,59,42.229,59,39.5C59,32.596,53.404,27,46.5,27 S34,32.596,34,39.5S39.596,52,46.5,52c2.729,0,5.247-0.885,7.302-2.369l6.786,6.786c0.778,0.778,2.051,0.778,2.828,0 S64.194,54.366,63.417,53.588z M38,39.5c0-4.694,3.806-8.5,8.5-8.5s8.5,3.806,8.5,8.5c0,4.694-3.806,8.5-8.5,8.5S38,44.194,38,39.5z"/></svg>