<svg xmlns="http://www.w3.org/2000/svg"  viewBox="0 0 64 64" width="50px" height="50px"><radialGradient id="mVui2_WJEqcicThz4~Zfoa" cx="32" cy="34" r="31.504" gradientTransform="matrix(1 0 0 -1 0 66)" gradientUnits="userSpaceOnUse"><stop offset="0" stop-color="#c5f1ff"/><stop offset=".35" stop-color="#cdf3ff"/><stop offset=".907" stop-color="#e4faff"/><stop offset="1" stop-color="#e9fbff"/></radialGradient><path fill="url(#mVui2_WJEqcicThz4~Zfoa)" d="M58.31,44H47v-4h10.5c1.24,0,2.37-0.5,3.18-1.32c0.79-0.78,1.28-1.86,1.32-3.05	c0.07-2.55-2.17-4.63-4.71-4.63H50l1-9h1c1.71,0,3.09-1.43,3-3.16C54.91,17.22,53.45,16,51.83,16H43.5c-0.69,0-1.32-0.28-1.77-0.73	C41.28,14.82,41,14.19,41,13.5c0-1.38,1.12-2.5,2.5-2.5h7c1.52,0,2.9-0.62,3.89-1.61C55.35,8.43,55.97,7.1,56,5.63	C56.07,2.53,53.35,0,50.26,0H31h-3H13.74C10.65,0,7.93,2.53,8,5.63c0.03,1.47,0.65,2.8,1.61,3.76C10.6,10.38,11.98,11,13.5,11h7	c1.38,0,2.5,1.12,2.5,2.5c0,0.69-0.28,1.32-0.73,1.77C21.82,15.72,21.19,16,20.5,16h-8.33c-1.62,0-3.08,1.22-3.17,2.84	C8.91,20.57,10.29,22,12,22h1l1,9H6.71C4.17,31,1.93,33.08,2,35.63c0.04,1.19,0.53,2.27,1.32,3.05C4.13,39.5,5.26,40,6.5,40H17v4	H5.69c-2.35,0-4.45,1.72-4.67,4.06C0.77,50.74,2.87,53,5.5,53H11c1.1,0,2,0.9,2,2c0,0.55-0.22,1.05-0.59,1.41	C12.05,56.78,11.55,57,11,57h-0.64c-0.01,0-0.01,0.01-0.01,0.02c-1.94,0.08-3.47,1.73-3.34,3.72C7.13,62.61,8.81,64,10.68,64H28h3	h22.32c1.87,0,3.55-1.39,3.67-3.26c0.13-1.99-1.4-3.64-3.34-3.72c0-0.01,0-0.02-0.01-0.02H53c-0.55,0-1.05-0.22-1.41-0.59	C51.22,56.05,51,55.55,51,55c0-1.1,0.9-2,2-2h5.5c2.63,0,4.73-2.26,4.48-4.94C62.76,45.72,60.66,44,58.31,44z"/><linearGradient id="mVui2_WJEqcicThz4~Zfob" x1="32" x2="32" y1="2485.236" y2="2469.236" gradientTransform="translate(0 -2458)" gradientUnits="userSpaceOnUse"><stop offset="0" stop-color="#ff8b67"/><stop offset=".847" stop-color="#ffa76a"/><stop offset="1" stop-color="#ffad6b"/><stop offset="1" stop-color="#ffad6b"/></linearGradient><path fill="url(#mVui2_WJEqcicThz4~Zfob)" d="M32,6L32,6c2.75,0,5,2.25,5,5v6c0,2.75-2.25,5-5,5l0,0c-2.75,0-5-2.25-5-5v-6	C27,8.25,29.25,6,32,6z"/><linearGradient id="mVui2_WJEqcicThz4~Zfoc" x1="32" x2="32" y1="2516" y2="2500" gradientTransform="translate(0 -2458)" gradientUnits="userSpaceOnUse"><stop offset="0" stop-color="#ff9757"/><stop offset="1" stop-color="#ffb65b"/><stop offset="1" stop-color="#ffb65b"/></linearGradient><path fill="url(#mVui2_WJEqcicThz4~Zfoc)" d="M32,42L32,42c3.3,0,6,2.7,6,6v4c0,3.3-2.7,6-6,6l0,0c-3.3,0-6-2.7-6-6v-4	C26,44.7,28.7,42,32,42z"/><linearGradient id="mVui2_WJEqcicThz4~Zfod" x1="32" x2="32" y1="54.107" y2="16.309" gradientTransform="matrix(1 0 0 -1 0 66)" gradientUnits="userSpaceOnUse"><stop offset="0" stop-color="#ffbd85"/><stop offset="0" stop-color="#ffbd85"/><stop offset=".359" stop-color="#ffbe75"/><stop offset=".914" stop-color="#ffc050"/><stop offset=".996" stop-color="#ffc050"/></linearGradient><path fill="url(#mVui2_WJEqcicThz4~Zfod)" d="M50,43H14l5.72-20.121c0.84-2.938,2.5-5.41,4.66-7.148C26.53,14.003,29.18,13,32,13	c5.63,0,10.61,4.003,12.28,9.879L45,25.414l4.41,15.517L50,43z"/><linearGradient id="mVui2_WJEqcicThz4~Zfoe" x1="32" x2="32" y1="2516.817" y2="2496.754" gradientTransform="translate(0 -2458)" gradientUnits="userSpaceOnUse"><stop offset="0" stop-color="#ffc96a"/><stop offset=".004" stop-color="#ffc96a"/><stop offset=".578" stop-color="#ffc887"/><stop offset="1" stop-color="#ffc797"/><stop offset="1" stop-color="#ffc797"/></linearGradient><path fill="url(#mVui2_WJEqcicThz4~Zfoe)" d="M49.5,51h-35C11.475,51,9,48.75,9,46l0,0c0-2.75,2.475-5,5.5-5h35c3.025,0,5.5,2.25,5.5,5l0,0	C55,48.75,52.525,51,49.5,51z"/><circle cx="29.5" cy="28.5" r="2.5" fill="#ffac5f"/><path fill="#ffac5f" d="M49.41,41H32.5c-0.69,0-1.32-0.28-1.77-0.73C30.28,39.82,30,39.19,30,38.5c0-1.38,1.12-2.5,2.5-2.5h7	c0.69,0,1.32-0.28,1.77-0.73S42,34.19,42,33.5c0-1.38-1.12-2.5-2.5-2.5h-1c-0.69,0-1.32-0.28-1.77-0.73	C36.28,29.82,36,29.19,36,28.5c0-1.38,1.12-2.5,2.5-2.5H45L49.41,41z"/><linearGradient id="mVui2_WJEqcicThz4~Zfof" x1="12.448" x2="12.448" y1="47.995" y2="33.004" gradientTransform="matrix(1 0 0 -1 0 66)" gradientUnits="userSpaceOnUse"><stop offset="0" stop-color="#ff8b67"/><stop offset=".847" stop-color="#ffa76a"/><stop offset="1" stop-color="#ffad6b"/><stop offset="1" stop-color="#ffad6b"/></linearGradient><path fill="url(#mVui2_WJEqcicThz4~Zfof)" d="M13,32.996c-0.785,0-1.53-0.465-1.849-1.235c-1.672-4.037-1.672-8.483,0-12.52 c0.422-1.021,1.591-1.507,2.613-1.083c1.021,0.422,1.505,1.592,1.083,2.613c-1.263,3.05-1.263,6.409,0,9.459 c0.423,1.021-0.062,2.19-1.083,2.613C13.514,32.947,13.255,32.996,13,32.996z"/><linearGradient id="mVui2_WJEqcicThz4~Zfog" x1="5.048" x2="5.048" y1="51.996" y2="29.004" gradientTransform="matrix(1 0 0 -1 0 66)" gradientUnits="userSpaceOnUse"><stop offset="0" stop-color="#ff8b67"/><stop offset=".847" stop-color="#ffa76a"/><stop offset="1" stop-color="#ffad6b"/><stop offset="1" stop-color="#ffad6b"/></linearGradient><path fill="url(#mVui2_WJEqcicThz4~Zfog)" d="M6,36.996c-0.785,0-1.53-0.466-1.849-1.235c-2.741-6.617-2.741-13.904,0-20.52 c0.422-1.021,1.592-1.508,2.613-1.083c1.021,0.422,1.505,1.593,1.083,2.613c-2.332,5.629-2.332,11.83,0,17.458 c0.423,1.021-0.062,2.19-1.083,2.613C6.514,36.946,6.255,36.996,6,36.996z"/><g><linearGradient id="mVui2_WJEqcicThz4~Zfoh" x1="51.551" x2="51.551" y1="47.995" y2="33.004" gradientTransform="matrix(1 0 0 -1 0 66)" gradientUnits="userSpaceOnUse"><stop offset="0" stop-color="#ff8b67"/><stop offset=".847" stop-color="#ffa76a"/><stop offset="1" stop-color="#ffad6b"/><stop offset="1" stop-color="#ffad6b"/></linearGradient><path fill="url(#mVui2_WJEqcicThz4~Zfoh)" d="M51,32.996c-0.255,0-0.514-0.049-0.765-0.153c-1.021-0.422-1.505-1.592-1.082-2.613 c1.263-3.05,1.263-6.409,0-9.459c-0.423-1.021,0.062-2.19,1.082-2.613c1.022-0.425,2.19,0.062,2.613,1.083 c1.672,4.037,1.672,8.483,0,12.52C52.529,32.531,51.785,32.996,51,32.996z"/></g><g><linearGradient id="mVui2_WJEqcicThz4~Zfoi" x1="58.952" x2="58.952" y1="51.996" y2="29.004" gradientTransform="matrix(1 0 0 -1 0 66)" gradientUnits="userSpaceOnUse"><stop offset="0" stop-color="#ff8b67"/><stop offset=".847" stop-color="#ffa76a"/><stop offset="1" stop-color="#ffad6b"/><stop offset="1" stop-color="#ffad6b"/></linearGradient><path fill="url(#mVui2_WJEqcicThz4~Zfoi)" d="M58,36.996c-0.255,0-0.514-0.05-0.765-0.153c-1.021-0.423-1.505-1.593-1.082-2.613 c2.331-5.629,2.331-11.829,0-17.458c-0.423-1.021,0.062-2.19,1.082-2.613c1.024-0.425,2.189,0.062,2.613,1.083 c2.74,6.616,2.74,13.903,0,20.52C59.53,36.53,58.785,36.996,58,36.996z"/></g></svg>