<svg xmlns="http://www.w3.org/2000/svg"  viewBox="0 0 64 64" width="50px" height="50px"><radialGradient id="TtQoCxdAdESKTrPLN_E_fa" cx="32" cy="30.5" r="31.259" gradientUnits="userSpaceOnUse" spreadMethod="reflect"><stop offset="0" stop-color="#eed7a2"/><stop offset=".106" stop-color="#f1dcab"/><stop offset=".437" stop-color="#f8e8c3"/><stop offset=".744" stop-color="#fcefd2"/><stop offset="1" stop-color="#fef2d7"/></radialGradient><path fill="url(#TtQoCxdAdESKTrPLN_E_fa)" d="M56.5,27H60c2.335,0,4.22-2.028,3.979-4.41C63.77,20.514,61.897,19,59.811,19H59h-2 c-1.1,0-2-0.9-2-2c0-1.1,0.9-2,2-2h2h0.357c1.308,0,2.499-0.941,2.63-2.242C62.137,11.261,60.966,10,59.5,10h-14 C44.125,10,43,8.875,43,7.5S44.125,5,45.5,5h2.857c1.308,0,2.499-0.941,2.63-2.242C51.137,1.261,49.966,0,48.5,0H13.643 c-1.308,0-2.499,0.941-2.63,2.242C10.863,3.739,12.034,5,13.5,5H15c1.65,0,3,1.35,3,3c0,1.65-1.35,3-3,3l-8.811,0 c-2.086,0-3.958,1.514-4.168,3.59C1.78,16.972,3.665,19,6,19h2.5c1.933,0,3.5,1.567,3.5,3.5c0,1.933-1.567,3.5-3.5,3.5H5.189 c-2.086,0-3.958,1.514-4.168,3.59C0.78,31.972,2.665,34,5,34h17v9H6c-1.65,0-3,1.35-3,3c0,1.65,1.35,3,3,3c1.105,0,2,0.895,2,2 c0,1.105-0.895,2-2,2H4.189c-2.086,0-3.958,1.514-4.168,3.59C-0.22,58.972,1.665,61,4,61h52.811c2.086,0,3.958-1.514,4.168-3.59 C61.22,55.028,59.335,53,57,53c-1.105,0-2-0.895-2-2c0-1.105,0.895-2,2-2h1.5c1.925,0,3.5-1.575,3.5-3.5S60.425,42,58.5,42H50 c-1.375,0-2.5-1.125-2.5-2.5S48.625,37,50,37h8.5c1.375,0,2.5-1.125,2.5-2.5S59.875,32,58.5,32h-2c-1.375,0-2.5-1.125-2.5-2.5 S55.125,27,56.5,27z"/><linearGradient id="TtQoCxdAdESKTrPLN_E_fb" x1="32" x2="32" y1="57.255" y2="22.255" gradientUnits="userSpaceOnUse" spreadMethod="reflect"><stop offset="0" stop-color="#3280e5"/><stop offset=".076" stop-color="#3487e6"/><stop offset=".449" stop-color="#3ca4ed"/><stop offset=".77" stop-color="#41b7f1"/><stop offset="1" stop-color="#43bdf2"/></linearGradient><path fill="url(#TtQoCxdAdESKTrPLN_E_fb)" d="M53.333,41.382l-6.222-16.177C46.369,23.274,44.514,22,42.445,22H42v-0.5 c0-0.828-0.672-1.5-1.5-1.5h-1c-0.828,0-1.5,0.672-1.5,1.5V22H26v-0.5c0-0.828-0.672-1.5-1.5-1.5h-1c-0.828,0-1.5,0.672-1.5,1.5V22 h-0.445c-2.069,0-3.924,1.274-4.667,3.205l-6.222,16.177c-0.659,1.713-0.833,3.573-0.505,5.379l1.022,5.622 c0.207,1.137,0.978,2.145,2.083,2.483c1.25,0.382,2.548-0.073,3.292-1.064l1.201-1.601c0.567-0.755,1.456-1.2,2.4-1.2H32h11.841 c0.944,0,1.833,0.445,2.4,1.2l1.163,1.551c0.39,0.52,0.923,0.936,1.548,1.12c1.8,0.528,3.526-0.621,3.837-2.332l1.051-5.779 C54.167,44.955,53.992,43.094,53.333,41.382z"/><path fill="#fff" d="M25.5,33h-3c-0.825,0-1.5-0.675-1.5-1.5v0c0-0.825,0.675-1.5,1.5-1.5h3c0.825,0,1.5,0.675,1.5,1.5v0 C27,32.325,26.325,33,25.5,33z M35,31.5L35,31.5c0-0.825-0.675-1.5-1.5-1.5h-3c-0.825,0-1.5,0.675-1.5,1.5v0 c0,0.825,0.675,1.5,1.5,1.5h3C34.325,33,35,32.325,35,31.5z M43,31.5L43,31.5c0-0.825-0.675-1.5-1.5-1.5h-3 c-0.825,0-1.5,0.675-1.5,1.5v0c0,0.825,0.675,1.5,1.5,1.5h3C42.325,33,43,32.325,43,31.5z M27,36.5L27,36.5 c0-0.825-0.675-1.5-1.5-1.5h-3c-0.825,0-1.5,0.675-1.5,1.5l0,0c0,0.825,0.675,1.5,1.5,1.5h3C26.325,38,27,37.325,27,36.5z M35,36.5 L35,36.5c0-0.825-0.675-1.5-1.5-1.5h-3c-0.825,0-1.5,0.675-1.5,1.5l0,0c0,0.825,0.675,1.5,1.5,1.5h3C34.325,38,35,37.325,35,36.5z M43,36.5L43,36.5c0-0.825-0.675-1.5-1.5-1.5h-3c-0.825,0-1.5,0.675-1.5,1.5l0,0c0,0.825,0.675,1.5,1.5,1.5h3 C42.325,38,43,37.325,43,36.5z M27,41.5L27,41.5c0-0.825-0.675-1.5-1.5-1.5h-3c-0.825,0-1.5,0.675-1.5,1.5l0,0 c0,0.825,0.675,1.5,1.5,1.5h3C26.325,43,27,42.325,27,41.5z M35,41.5L35,41.5c0-0.825-0.675-1.5-1.5-1.5h-3 c-0.825,0-1.5,0.675-1.5,1.5l0,0c0,0.825,0.675,1.5,1.5,1.5h3C34.325,43,35,42.325,35,41.5z M43,41.5L43,41.5 c0-0.825-0.675-1.5-1.5-1.5h-3c-0.825,0-1.5,0.675-1.5,1.5l0,0c0,0.825,0.675,1.5,1.5,1.5h3C42.325,43,43,42.325,43,41.5z"/><linearGradient id="TtQoCxdAdESKTrPLN_E_fc" x1="32" x2="32" y1="28.79" y2="-6.532" gradientUnits="userSpaceOnUse" spreadMethod="reflect"><stop offset="0" stop-color="#155cde"/><stop offset=".278" stop-color="#1f7fe5"/><stop offset=".569" stop-color="#279ceb"/><stop offset=".82" stop-color="#2cafef"/><stop offset="1" stop-color="#2eb5f0"/></linearGradient><path fill="url(#TtQoCxdAdESKTrPLN_E_fc)" d="M53.068,8.545c-3.954-0.613-12.127-1.227-23.49,1.262s-18.513,6.459-21.837,8.666 c-1.35,0.897-1.997,2.521-1.646,4.093l1.631,7.305c0.385,1.723,2.301,2.629,3.895,1.841l5.949-2.939 c1.164-0.575,1.968-1.68,2.151-2.955l0.944-6.034c0,0,5.58-2.225,10.408-3.283c4.828-1.057,10.835-1.37,10.835-1.37l3.425,5.077 c0.709,1.08,1.908,1.746,3.208,1.781L55.186,22c1.781,0.048,3.133-1.403,2.748-3.126l-1.631-7.305 C55.952,9.997,54.674,8.795,53.068,8.545z"/><linearGradient id="TtQoCxdAdESKTrPLN_E_fd" x1="34" x2="34" y1="28" y2="9" gradientUnits="userSpaceOnUse" spreadMethod="reflect"><stop offset="0" stop-color="#155cde"/><stop offset=".278" stop-color="#1f7fe5"/><stop offset=".569" stop-color="#279ceb"/><stop offset=".82" stop-color="#2cafef"/><stop offset="1" stop-color="#2eb5f0"/></linearGradient><path fill="url(#TtQoCxdAdESKTrPLN_E_fd)" d="M54.34,28c-0.723,0-1.463-0.092-2.199-0.274c-0.805-0.198-1.296-1.012-1.097-1.815 s1.017-1.295,1.815-1.097c2.477,0.612,4.869-0.313,6.483-2.269c0.527-0.639,1.471-0.73,2.112-0.202 c0.639,0.527,0.729,1.473,0.202,2.112C59.798,26.708,57.131,28,54.34,28z M8.621,14.497C10.031,12.91,12.179,12,14.515,12 c0.284,0,0.564,0.017,0.84,0.043c0.806,0.077,1.558-0.523,1.638-1.349s-0.524-1.558-1.349-1.638C15.273,9.021,14.897,9,14.515,9 c-3.191,0-6.157,1.277-8.137,3.503c-0.551,0.619-0.495,1.567,0.124,2.118C6.789,14.875,7.144,15,7.499,15 C7.913,15,8.325,14.83,8.621,14.497z"/></svg>