<svg xmlns="http://www.w3.org/2000/svg"  viewBox="0 0 64 64" width="50px" height="50px"><radialGradient id="zeH5u_nOvvwIuzm92XQ~qa" cx="32" cy="31.5" r="30.775" gradientUnits="userSpaceOnUse" spreadMethod="reflect"><stop offset="0" stop-color="#f4e9c3"/><stop offset=".219" stop-color="#f8eecd"/><stop offset=".644" stop-color="#fdf4dc"/><stop offset="1" stop-color="#fff6e1"/></radialGradient><path fill="url(#zeH5u_nOvvwIuzm92XQ~qa)" d="M60,37h-1c-0.732,0-1.41-0.211-2-0.555v-6.89C57.59,29.211,58.268,29,59,29h0.017 c2.759,0,4.992-2.241,4.983-5c-0.009-2.764-2.253-5-5.017-5H56c-0.289,0-0.569-0.038-0.844-0.085l-4.117-5.294 C51.236,11.04,53.369,9,56,9h0.565C58.48,9,60,7.48,60,5.605V5.5C60,3.567,58.433,2,56.5,2h-46C8.574,2,7.01,3.556,7,5.483L7,5.5 C6.99,7.43,8.552,9,10.483,9H11c2.209,0,4,1.791,4,4c0,2.209-1.791,4-4,4H5c-2.761,0-5,2.239-5,5s2.239,5,5,5h1c2.209,0,4,1.791,4,4 c0,2.209-1.791,4-4,4H5.5C2.462,35,0,37.462,0,40.5C0,43.538,2.462,46,5.5,46H16c1.657,0,3,1.343,3,3s-1.343,3-3,3h-0.5 c-2.485,0-4.5,2.015-4.5,4.5s2.015,4.5,4.5,4.5H33h22c2.209,0,4-1.791,4-4c0-2.209-1.791-4-4-4h-1c-1.907,0-3.496-1.337-3.897-3.124 L54.167,45H60c2.209,0,4-1.791,4-4C64,38.791,62.209,37,60,37z"/><linearGradient id="zeH5u_nOvvwIuzm92XQ~qb" x1="49.5" x2="49.5" y1="65.605" y2="9.922" gradientUnits="userSpaceOnUse" spreadMethod="reflect"><stop offset="0" stop-color="#155cde"/><stop offset=".278" stop-color="#1f7fe5"/><stop offset=".569" stop-color="#279ceb"/><stop offset=".82" stop-color="#2cafef"/><stop offset="1" stop-color="#2eb5f0"/></linearGradient><path fill="url(#zeH5u_nOvvwIuzm92XQ~qb)" d="M42.499,43c-0.317,0-0.637-0.1-0.908-0.307c-0.659-0.502-0.786-1.443-0.284-2.102 C43.043,38.313,44,35.262,44,32c0-3.594-1.28-6.962-3.603-9.484c-0.562-0.609-0.522-1.558,0.087-2.119 c0.609-0.562,1.559-0.523,2.119,0.087C45.438,23.561,47,27.651,47,32c0,3.915-1.174,7.612-3.307,10.409 C43.398,42.796,42.951,43,42.499,43z M51.614,51.504C56.377,46.222,59,39.295,59,32c0-7.805-2.997-15.107-8.438-20.56 c-0.586-0.587-1.535-0.588-2.121-0.002c-0.586,0.585-0.587,1.535-0.002,2.121C53.314,18.446,56,24.995,56,32 c0,6.552-2.349,12.765-6.614,17.496c-0.555,0.615-0.505,1.563,0.11,2.119C49.782,51.873,50.142,52,50.499,52 C50.91,52,51.318,51.833,51.614,51.504z M47.66,46.451C51.153,42.188,53,37.191,53,32c0-5.68-2.215-11.049-6.405-15.525 c-0.565-0.604-1.515-0.636-2.12-0.07c-0.605,0.566-0.636,1.516-0.07,2.12C46.957,21.252,50,25.803,50,32 c0,4.49-1.611,8.829-4.66,12.549c-0.525,0.641-0.431,1.586,0.209,2.111c0.279,0.229,0.615,0.34,0.95,0.34 C46.933,47,47.364,46.813,47.66,46.451z"/><linearGradient id="zeH5u_nOvvwIuzm92XQ~qc" x1="11.5" x2="11.5" y1="43" y2="21" gradientUnits="userSpaceOnUse" spreadMethod="reflect"><stop offset="0" stop-color="#34b271"/><stop offset=".996" stop-color="#3dca76"/></linearGradient><path fill="url(#zeH5u_nOvvwIuzm92XQ~qc)" d="M20,43h-6C7.925,43,3,38.075,3,32v0c0-6.075,4.925-11,11-11h6V43z"/><linearGradient id="zeH5u_nOvvwIuzm92XQ~qd" x1="28.5" x2="28.5" y1="53" y2="11.013" gradientUnits="userSpaceOnUse" spreadMethod="reflect"><stop offset="0" stop-color="#4cc381"/><stop offset="1" stop-color="#55db86"/></linearGradient><path fill="url(#zeH5u_nOvvwIuzm92XQ~qd)" d="M32.26,11.625L20,21v10v12.013l12.26,9.375c1.94,1.484,4.74,0.1,4.74-2.343V31V13.968 C37,11.525,34.2,10.141,32.26,11.625z"/><linearGradient id="zeH5u_nOvvwIuzm92XQ~qe" x1="33" x2="33" y1="-10.031" y2="58.203" gradientUnits="userSpaceOnUse" spreadMethod="reflect"><stop offset="0" stop-color="#a4a4a4"/><stop offset=".63" stop-color="#7f7f7f"/><stop offset="1" stop-color="#6f6f6f"/><stop offset="1" stop-color="#6f6f6f"/></linearGradient><path fill="url(#zeH5u_nOvvwIuzm92XQ~qe)" d="M52.022,56.972L9.028,13.978c-1.361-1.361-1.361-3.589,0-4.95l0,0 c1.361-1.361,3.589-1.361,4.95,0l42.994,42.994c1.361,1.361,1.361,3.589,0,4.95l0,0C55.611,58.333,53.383,58.333,52.022,56.972z"/></svg>