<svg xmlns="http://www.w3.org/2000/svg"  viewBox="0 0 48 48" width="50px" height="50px"><linearGradient id="ylb_8IwejvyMwhKJpUsjLa" x1="10" x2="10" y1="42" y2="21.072" gradientUnits="userSpaceOnUse"><stop offset=".273" stop-color="#912fbd"/><stop offset=".588" stop-color="#8f2ebb"/><stop offset=".758" stop-color="#892bb3"/><stop offset=".894" stop-color="#7e26a5"/><stop offset="1" stop-color="#701f94"/></linearGradient><path fill="url(#ylb_8IwejvyMwhKJpUsjLa)" d="M14,21v19c0,1.105-0.895,2-2,2H8c-1.105,0-2-0.895-2-2V21H14z"/><linearGradient id="ylb_8IwejvyMwhKJpUsjLb" x1="6" x2="42.909" y1="17" y2="17" gradientUnits="userSpaceOnUse"><stop offset="0" stop-color="#ae4cd5"/><stop offset="1" stop-color="#ac4ad5"/></linearGradient><path fill="url(#ylb_8IwejvyMwhKJpUsjLb)" d="M42.643,16.357l-9.091-9.091c-0.26-0.26-0.65-0.337-0.991-0.197	C32.221,7.21,32,7.541,32,7.909V13H17.314c-2.122,0-4.157,0.843-5.657,2.343L6,21h26v5.091c0,0.368,0.221,0.699,0.561,0.84	C32.674,26.977,32.792,27,32.909,27c0.236,0,0.469-0.092,0.643-0.266l9.091-9.091C42.998,17.288,42.998,16.712,42.643,16.357z"/></svg>