<svg xmlns="http://www.w3.org/2000/svg"  viewBox="0 0 64 64" width="50px" height="50px"><radialGradient id="gxAzrvNjFtU5vCSIf2rSka" cx="32" cy="32" r="33.002" gradientUnits="userSpaceOnUse" spreadMethod="reflect"><stop offset="0" stop-color="#f4e09d"/><stop offset=".226" stop-color="#f8e8b5"/><stop offset=".513" stop-color="#fcf0cd"/><stop offset=".778" stop-color="#fef4dc"/><stop offset="1" stop-color="#fff6e1"/></radialGradient><path fill="url(#gxAzrvNjFtU5vCSIf2rSka)" d="M55.454,45.668c0.5,0.898-2.347,1.337-1.319,1.332c1.75-0.008,3.153,1.483,3.002,3.262 C57.003,51.838,55.582,53,54,53l-6,0v1H26h-8H7c-1.71,0-3.086-1.431-2.996-3.161C4.089,49.216,5.545,48,7.17,48L8,48 c1.215,0,2.176-1.083,1.973-2.336C9.813,44.681,8.889,44,7.893,44L3,44c-1.71,0-3.086-1.431-2.996-3.161 C0.089,39.216,1.545,38,3.17,38l6.33,0c1.381,0,2.5-1.119,2.5-2.5v0c0-1.381-1.119-2.5-2.5-2.5h0C8.119,33,7,31.881,7,30.5v0 C7,29.119,8.119,28,9.5,28H18v-7h-7.5c-1.995,0-3.601-1.67-3.495-3.688C7.104,15.419,8.803,14,10.698,14L18,14v-4h24h6h8.5 c1.995,0,3.601,1.67,3.495,3.688C59.896,15.581,58.197,17,56.302,17L53.5,17c-1.995,0-3.601,1.67-3.495,3.688 C50.104,22.581,51.803,24,53.698,24L56,24c1.777,0,3.194,1.546,2.978,3.366c-0.179,1.509-1.546,2.572-3.064,2.635 c-1.197,0.05-2.122,1.153-1.874,2.406C54.228,33.355,55.123,34,56.089,34H60.5c1.995,0,3.601,1.67,3.495,3.688 C63.896,39.581,62.197,41,60.302,41L58,41C55.808,41,54.166,43.35,55.454,45.668z M2.5,33L2.5,33C3.881,33,5,31.881,5,30.5v0 C5,29.119,3.881,28,2.5,28h0C1.119,28,0,29.119,0,30.5v0C0,31.881,1.119,33,2.5,33z"/><linearGradient id="gxAzrvNjFtU5vCSIf2rSkb" x1="33" x2="33" y1="58" y2="6" gradientUnits="userSpaceOnUse" spreadMethod="reflect"><stop offset="0" stop-color="#41bfec"/><stop offset=".235" stop-color="#4cc5ef"/><stop offset=".651" stop-color="#6bd4f6"/><stop offset="1" stop-color="#89e4fd"/></linearGradient><path fill="url(#gxAzrvNjFtU5vCSIf2rSkb)" d="M50,58H16c-1.657,0-3-1.343-3-3V9c0-1.657,1.343-3,3-3h20.757 c0.796,0,1.559,0.316,2.121,0.879l13.243,13.243C52.684,20.684,53,21.447,53,22.243V55C53,56.657,51.657,58,50,58z"/><linearGradient id="gxAzrvNjFtU5vCSIf2rSkc" x1="38.879" x2="46.454" y1="20.121" y2="12.546" gradientUnits="userSpaceOnUse" spreadMethod="reflect"><stop offset="0" stop-color="#c7effd"/><stop offset=".369" stop-color="#b8ecfd"/><stop offset="1" stop-color="#95e5fd"/></linearGradient><path fill="url(#gxAzrvNjFtU5vCSIf2rSkc)" d="M52.121,20.122L38.878,6.879c-0.255-0.255-0.556-0.452-0.878-0.6V18c0,1.657,1.343,3,3,3 h11.721C52.574,20.678,52.377,20.377,52.121,20.122z"/><linearGradient id="gxAzrvNjFtU5vCSIf2rSkd" x1="45.5" x2="45.5" y1="24.083" y2="18.083" gradientUnits="userSpaceOnUse" spreadMethod="reflect"><stop offset="0" stop-color="#42c6ee"/><stop offset=".534" stop-color="#3bc3ed"/><stop offset="1" stop-color="#31bfeb"/></linearGradient><path fill="url(#gxAzrvNjFtU5vCSIf2rSkd)" d="M41,21c-1.657,0-3-1.343-3-3v3c0,1.657,1.343,3,3,3h12v-1.757 c0-0.434-0.102-0.855-0.279-1.243H41z"/><linearGradient id="gxAzrvNjFtU5vCSIf2rSke" x1="22" x2="22" y1="19.605" y2="6.12" gradientUnits="userSpaceOnUse" spreadMethod="reflect"><stop offset="0" stop-color="#81ddf7"/><stop offset=".489" stop-color="#8de1f9"/><stop offset="1" stop-color="#9ee8fd"/></linearGradient><path fill="url(#gxAzrvNjFtU5vCSIf2rSke)" d="M21.5,21H13V9c0-1.657,1.343-3,3-3h9.5C26.881,6,28,7.119,28,8.5v0 c0,1.381-1.119,2.5-2.5,2.5h-5c-1.381,0-2.5,1.119-2.5,2.5v0c0,1.381,1.119,2.5,2.5,2.5h1c1.381,0,2.5,1.119,2.5,2.5v0 C24,19.881,22.881,21,21.5,21z M29,17c-1.105,0-2,0.895-2,2s0.895,2,2,2c1.105,0,2-0.895,2-2S30.105,17,29,17z"/><linearGradient id="gxAzrvNjFtU5vCSIf2rSkf" x1="41.5" x2="41.5" y1="34.236" y2="59.269" gradientUnits="userSpaceOnUse" spreadMethod="reflect"><stop offset="0" stop-color="#50c8f0"/><stop offset=".738" stop-color="#3bbbea"/><stop offset="1" stop-color="#33b5e8"/></linearGradient><path fill="url(#gxAzrvNjFtU5vCSIf2rSkf)" d="M44,41l9,0v14c0,1.657-1.343,3-3,3H33c-1.657,0-3-1.343-3-3v0c0-1.657,1.343-3,3-3l11.5,0 c1.381,0,2.5-1.119,2.5-2.5v0c0-1.381-1.119-2.5-2.5-2.5H44c-1.657,0-3-1.343-3-3v0C41,42.343,42.343,41,44,41z M36,41 c-1.657,0-3,1.343-3,3s1.343,3,3,3s3-1.343,3-3S37.657,41,36,41z"/><g><linearGradient id="gxAzrvNjFtU5vCSIf2rSkg" x1="50" x2="50" y1="60.599" y2="18.333" gradientUnits="userSpaceOnUse" spreadMethod="reflect"><stop offset="0" stop-color="#155cde"/><stop offset=".278" stop-color="#1f7fe5"/><stop offset=".569" stop-color="#279ceb"/><stop offset=".82" stop-color="#2cafef"/><stop offset="1" stop-color="#2eb5f0"/></linearGradient><path fill="url(#gxAzrvNjFtU5vCSIf2rSkg)" d="M63.417,60.588l-6.509-6.509C58.217,52.213,59,49.952,59,47.5C59,41.149,53.851,36,47.5,36 S36,41.149,36,47.5C36,53.851,41.149,59,47.5,59c2.452,0,4.714-0.783,6.579-2.092l6.509,6.509c0.778,0.778,2.051,0.778,2.828,0 S64.194,61.366,63.417,60.588z"/><linearGradient id="gxAzrvNjFtU5vCSIf2rSkh" x1="47.5" x2="47.5" y1="43.305" y2="58.305" gradientUnits="userSpaceOnUse" spreadMethod="reflect"><stop offset="0" stop-color="#def9ff"/><stop offset=".282" stop-color="#cff6ff"/><stop offset=".823" stop-color="#a7efff"/><stop offset="1" stop-color="#99ecff"/></linearGradient><path fill="url(#gxAzrvNjFtU5vCSIf2rSkh)" d="M47.5 40A7.5 7.5 0 1 0 47.5 55A7.5 7.5 0 1 0 47.5 40Z"/></g></svg>