<svg xmlns="http://www.w3.org/2000/svg"  viewBox="0 0 64 64" width="50px" height="50px"><radialGradient id="P~LxhRk53chq97XEC8PB1a" cx="36" cy="32" r="26.875" gradientTransform="matrix(-1 0 0 1 64 0)" gradientUnits="userSpaceOnUse" spreadMethod="reflect"><stop offset="0" stop-color="#afeeff"/><stop offset=".193" stop-color="#bbf1ff"/><stop offset=".703" stop-color="#d7f8ff"/><stop offset="1" stop-color="#e1faff"/></radialGradient><path fill="url(#P~LxhRk53chq97XEC8PB1a)" d="M58.5,61L58.5,61c2.485,0,4.5-2.015,4.5-4.5v0c0-2.485-2.015-4.5-4.5-4.5h0 c-2.485,0-4.5,2.015-4.5,4.5v0C54,58.985,56.015,61,58.5,61z"/><radialGradient id="P~LxhRk53chq97XEC8PB1b" cx="32" cy="31.5" r="30.775" gradientTransform="matrix(-1 0 0 1 64 0)" gradientUnits="userSpaceOnUse" spreadMethod="reflect"><stop offset="0" stop-color="#afeeff"/><stop offset=".193" stop-color="#bbf1ff"/><stop offset=".703" stop-color="#d7f8ff"/><stop offset="1" stop-color="#e1faff"/></radialGradient><path fill="url(#P~LxhRk53chq97XEC8PB1b)" d="M0,24L0,24c0-2.761,2.239-5,5-5h5c2.761,0,5-2.238,5-5v0c0-2.762-2.238-5-5-5H9.434 C7.52,9,6,7.48,6,5.605L6,5.5C6,3.567,7.567,2,9.5,2l38,0c1.926,0,3.49,1.556,3.5,3.483L51,5.5C51.01,7.43,49.448,9,47.517,9H47 c-2.209,0-4,1.791-4,4v0c0,2.209,1.791,4,4,4h12c2.761,0,5,2.239,5,5v0c0,2.761-2.239,5-5,5h-1c-2.209,0-4,1.791-4,4v0 c0,2.209,1.791,4,4,4h0.5c3.038,0,5.5,2.462,5.5,5.5v0c0,3.038-2.462,5.5-5.5,5.5H45c-1.657,0-3,1.343-3,3v0c0,1.657,1.343,3,3,3 h1.5c2.485,0,4.5,2.015,4.5,4.5v0c0,2.485-2.015,4.5-4.5,4.5H31H9c-2.209,0-4-1.791-4-4v0c0-2.209,1.791-4,4-4h6.5 c1.933,0,3.5-1.567,3.5-3.5v0c0-1.933-1.567-3.5-3.5-3.5H4c-2.209,0-4-1.791-4-4l0,0c0-2.209,1.791-4,4-4h1.5 c2.485,0,4.5-2.015,4.5-4.5v0c0-2.485-2.015-4.5-4.5-4.5H5C2.239,29,0,26.761,0,24z"/><linearGradient id="P~LxhRk53chq97XEC8PB1c" x1="32" x2="32" y1="59" y2="-9.426" gradientUnits="userSpaceOnUse" spreadMethod="reflect"><stop offset="0" stop-color="#ffc050"/><stop offset=".64" stop-color="#ffbe75"/><stop offset="1" stop-color="#ffbd85"/></linearGradient><path fill="url(#P~LxhRk53chq97XEC8PB1c)" d="M14.279,57.828l-8.107-8.107c-1.562-1.562-1.562-4.095,0-5.657L44.064,6.172 c1.562-1.562,4.095-1.562,5.657,0l8.107,8.107c1.562,1.562,1.562,4.095,0,5.657L19.936,57.828 C18.374,59.391,15.841,59.391,14.279,57.828z"/><linearGradient id="P~LxhRk53chq97XEC8PB1d" x1="26.531" x2="26.531" y1="43.735" y2="10.096" gradientUnits="userSpaceOnUse" spreadMethod="reflect"><stop offset="0" stop-color="#f6985f"/><stop offset="1" stop-color="#f3a45d"/></linearGradient><path fill="url(#P~LxhRk53chq97XEC8PB1d)" d="M23.56,31.44c0.59,0.59,0.59,1.53,0,2.12c-0.59,0.59-1.53,0.59-2.12,0l-2.38-2.38l2.12-2.12 L23.56,31.44z M16.18,34.06l-2.12,2.12l5.38,5.38c0.59,0.59,1.53,0.59,2.12,0c0.59-0.59,0.59-1.53,0-2.12L16.18,34.06z M26.18,24.06 l-2.12,2.12l5.38,5.38c0.59,0.59,1.53,0.59,2.12,0c0.59-0.59,0.59-1.53,0-2.12L26.18,24.06z M36.18,14.06l-2.12,2.12l5.38,5.38 c0.59,0.59,1.53,0.59,2.12,0c0.59-0.59,0.59-1.53,0-2.12L36.18,14.06z M43.56,11.44l-2.38-2.38l-2.12,2.12l2.38,2.38 c0.59,0.59,1.53,0.59,2.12,0C44.15,12.97,44.15,12.03,43.56,11.44z M31.18,19.06l-2.12,2.12l2.38,2.38c0.59,0.59,1.53,0.59,2.12,0 c0.59-0.59,0.59-1.53,0-2.12L31.18,19.06z M11.18,39.06l-2.12,2.12l2.38,2.38c0.59,0.59,1.53,0.59,2.12,0 c0.59-0.59,0.59-1.53,0-2.12L11.18,39.06z"/></svg>