<svg xmlns="http://www.w3.org/2000/svg"  viewBox="0 0 64 64" width="50px" height="50px"><radialGradient id="qOM_WRCXFr5l2eHz_UI9Sa" cx="35" cy="4468" r="26.875" gradientTransform="translate(0 -4434)" gradientUnits="userSpaceOnUse"><stop offset="0" stop-color="#f4e9c3"/><stop offset=".219" stop-color="#f8eecd"/><stop offset=".644" stop-color="#fdf4dc"/><stop offset="1" stop-color="#fff6e1"/></radialGradient><path fill="url(#qOM_WRCXFr5l2eHz_UI9Sa)" d="M4.5,63L4.5,63C2.015,63,0,60.985,0,58.5l0,0C0,56.015,2.015,54,4.5,54l0,0	C6.985,54,9,56.015,9,58.5l0,0C9,60.985,6.985,63,4.5,63z"/><radialGradient id="qOM_WRCXFr5l2eHz_UI9Sb" cx="32" cy="34" r="31.504" gradientTransform="matrix(1 0 0 -1 0 66)" gradientUnits="userSpaceOnUse"><stop offset="0" stop-color="#f4e9c3"/><stop offset=".219" stop-color="#f8eecd"/><stop offset=".644" stop-color="#fdf4dc"/><stop offset="1" stop-color="#fff6e1"/></radialGradient><path fill="url(#qOM_WRCXFr5l2eHz_UI9Sb)" d="M64,44c0,2.21-1.79,4-4,4h-9.5c-0.96,0-1.84,0.39-2.47,1.03C47.39,49.66,47,50.54,47,51.5	c0,1.93,1.57,3.5,3.5,3.5H55c1.1,0,2.1,0.45,2.83,1.17C58.55,56.9,59,57.9,59,59c0,2.21-1.79,4-4,4H16.5c-1.24,0-2.36-0.5-3.18-1.32	C12.5,60.87,12,59.74,12,58.5c0-2.49,2.02-4.5,4.5-4.5H17c0.83,0,1.58-0.34,2.12-0.88C19.66,52.58,20,51.83,20,51c0-1.66-1.34-3-3-3	H5.5c-1.52,0-2.9-0.62-3.89-1.61C0.62,45.4,0,44.02,0,42.5C0,39.46,2.46,37,5.5,37H20c1.1,0,2.1-0.7,2.83-1.67	C23.55,34.36,24,33.1,24,32c0-2.21-1.79-6-4-6h-9c-1.38,0-2.63-0.56-3.54-1.46C6.56,23.63,6,22.38,6,21c0-2.76,2.24-5,5-5h6	c1.1,0,2.1-0.45,2.83-1.17C20.55,14.1,21,13.1,21,12c0-2.21-1.79-4-4-4h-0.52C14.55,8,12.99,6.43,13,4.5V4.48	C13.01,2.56,14.57,1,16.5,1h33C51.43,1,53,2.57,53,4.5v0.11C53,6.48,51.48,8,49.56,8H49c-1.38,0-2.63,0.56-3.54,1.46	C44.56,10.37,44,11.62,44,13c0,2.76,2.24,5,5,5h6c2.76,0,5,2.24,5,5s-2.24,5-5,5h-8.5c-1.24,0-2.37,1.25-3.18,2.82	C42.5,32.38,42,34.26,42,35.5c0,2.49,2.01,4.5,4.5,4.5H60c1.1,0,2.1,0.45,2.83,1.17C63.55,41.9,64,42.9,64,44z"/><linearGradient id="qOM_WRCXFr5l2eHz_UI9Sc" x1="22.023" x2="22.023" y1="29.739" y2="12.638" gradientTransform="matrix(1.0388 0 0 -1.0388 9.122 81.127)" gradientUnits="userSpaceOnUse"><stop offset="0" stop-color="#155cde"/><stop offset=".278" stop-color="#1f7fe5"/><stop offset=".569" stop-color="#279ceb"/><stop offset=".82" stop-color="#2cafef"/><stop offset="1" stop-color="#2eb5f0"/></linearGradient><path fill="url(#qOM_WRCXFr5l2eHz_UI9Sc)" d="M42.81,54.1l-6.25-3.76L36,50l-4,6.6l4.03,1.03l5.75,1.46c1.04,0.26,2.05-0.53,2.05-1.6v-1.58	C43.83,55.17,43.44,54.48,42.81,54.1z M28,50l-0.56,0.34l-6.25,3.76c-0.63,0.38-1.02,1.07-1.02,1.81v1.58c0,1.07,1.01,1.86,2.05,1.6	l5.75-1.46L32,56.6L28,50z"/><linearGradient id="qOM_WRCXFr5l2eHz_UI9Sd" x1="27.484" x2="27.484" y1="52.85" y2="22.043" gradientTransform="matrix(1.0225 -.0041 .0041 -1.0225 3.781 74.277)" gradientUnits="userSpaceOnUse"><stop offset="0" stop-color="#155cde"/><stop offset=".278" stop-color="#1f7fe5"/><stop offset=".569" stop-color="#279ceb"/><stop offset=".82" stop-color="#2cafef"/><stop offset="1" stop-color="#2eb5f0"/></linearGradient><path fill="url(#qOM_WRCXFr5l2eHz_UI9Sd)" d="M28.856,37.812L7.645,43.194c-1.329,0.338-2.611-0.662-2.606-2.031l0.064-1.939	c0.045-1.38,0.777-2.646,1.951-3.373L26.68,23.687L28.856,37.812z M35.476,37.716l20.955,5.415c1.313,0.34,2.573-0.64,2.561-1.991	l-0.078-1.94c-0.055-1.366-0.783-2.616-1.944-3.338L37.552,23.789L35.476,37.716z"/><linearGradient id="qOM_WRCXFr5l2eHz_UI9Se" x1="32" x2="32" y1="60.745" y2="2.113" gradientTransform="matrix(1 0 0 -1 0 66)" gradientUnits="userSpaceOnUse"><stop offset="0" stop-color="#40daf2"/><stop offset=".259" stop-color="#3bd3ef"/><stop offset=".624" stop-color="#2ec1e8"/><stop offset="1" stop-color="#1ba7dd"/></linearGradient><path fill="url(#qOM_WRCXFr5l2eHz_UI9Se)" d="M37.79,12.76v18.17c0,2.32-0.11,4.64-0.32,6.95l-0.91,12.46l-0.53,7.29L32,56.6l-4.03,1.03	l-0.53-7.29l-0.91-12.46c-0.22-2.31-0.32-4.63-0.32-6.95V12.76c0-1.9,0.75-3.72,2.1-5.07l2.24-2.24c0.8-0.8,2.1-0.8,2.9,0l2.24,2.24	C37.04,9.04,37.79,10.86,37.79,12.76z"/></svg>