<svg xmlns="http://www.w3.org/2000/svg"  viewBox="0 0 48 48" width="50px" height="50px"><linearGradient id="ry1gsZG_3O3ogZMqL3z1ca" x1="20.375" x2="28.748" y1="242.939" y2="213.054" gradientTransform="matrix(1 0 0 -1 0 254)" gradientUnits="userSpaceOnUse"><stop offset="0" stop-color="#32bdef"/><stop offset="1" stop-color="#1ea2e4"/></linearGradient><path fill="url(#ry1gsZG_3O3ogZMqL3z1ca)" d="M43.125,9H4.875C3.287,9,2,10.287,2,11.875v24.25C2,37.713,3.287,39,4.875,39h38.25	C44.713,39,46,37.713,46,36.125v-24.25C46,10.287,44.713,9,43.125,9z"/><linearGradient id="ry1gsZG_3O3ogZMqL3z1cb" x1="2" x2="46" y1="238" y2="238" gradientTransform="matrix(1 0 0 -1 0 254)" gradientUnits="userSpaceOnUse"><stop offset="0" stop-color="#45494d"/><stop offset="1" stop-color="#6d7479"/></linearGradient><rect width="44" height="4" x="2" y="14" fill="url(#ry1gsZG_3O3ogZMqL3z1cb)"/><path fill="#a8e7ff" d="M42,35H6c-0.552,0-1-0.448-1-1V22c0-0.552,0.448-1,1-1h36c0.552,0,1,0.448,1,1v12	C43,34.552,42.552,35,42,35z"/><path fill="#057093" d="M8.5,25h-1C7.224,25,7,24.776,7,24.5v-1C7,23.224,7.224,23,7.5,23h1C8.776,23,9,23.224,9,23.5v1	C9,24.776,8.776,25,8.5,25z"/><path fill="#057093" d="M12.5,25h-1c-0.276,0-0.5-0.224-0.5-0.5v-1c0-0.276,0.224-0.5,0.5-0.5h1c0.276,0,0.5,0.224,0.5,0.5v1	C13,24.776,12.776,25,12.5,25z"/><path fill="#057093" d="M16.5,25h-1c-0.276,0-0.5-0.224-0.5-0.5v-1c0-0.276,0.224-0.5,0.5-0.5h1c0.276,0,0.5,0.224,0.5,0.5v1	C17,24.776,16.776,25,16.5,25z"/><path fill="#057093" d="M20.5,25h-1c-0.276,0-0.5-0.224-0.5-0.5v-1c0-0.276,0.224-0.5,0.5-0.5h1c0.276,0,0.5,0.224,0.5,0.5v1	C21,24.776,20.776,25,20.5,25z"/><path fill="#057093" d="M28.5,25h-1c-0.276,0-0.5-0.224-0.5-0.5v-1c0-0.276,0.224-0.5,0.5-0.5h1c0.276,0,0.5,0.224,0.5,0.5v1	C29,24.776,28.776,25,28.5,25z"/><path fill="#057093" d="M32.5,25h-1c-0.276,0-0.5-0.224-0.5-0.5v-1c0-0.276,0.224-0.5,0.5-0.5h1c0.276,0,0.5,0.224,0.5,0.5v1	C33,24.776,32.776,25,32.5,25z"/><path fill="#057093" d="M36.5,25h-1c-0.276,0-0.5-0.224-0.5-0.5v-1c0-0.276,0.224-0.5,0.5-0.5h1c0.276,0,0.5,0.224,0.5,0.5v1	C37,24.776,36.776,25,36.5,25z"/><path fill="#057093" d="M40.5,25h-1c-0.276,0-0.5-0.224-0.5-0.5v-1c0-0.276,0.224-0.5,0.5-0.5h1c0.276,0,0.5,0.224,0.5,0.5v1	C41,24.776,40.776,25,40.5,25z"/><path fill="#057093" d="M8.5,29h-1C7.224,29,7,28.776,7,28.5v-1C7,27.224,7.224,27,7.5,27h1C8.776,27,9,27.224,9,27.5v1	C9,28.776,8.776,29,8.5,29z"/><path fill="#057093" d="M12.5,29h-1c-0.276,0-0.5-0.224-0.5-0.5v-1c0-0.276,0.224-0.5,0.5-0.5h1c0.276,0,0.5,0.224,0.5,0.5v1	C13,28.776,12.776,29,12.5,29z"/><path fill="#057093" d="M16.5,29h-1c-0.276,0-0.5-0.224-0.5-0.5v-1c0-0.276,0.224-0.5,0.5-0.5h1c0.276,0,0.5,0.224,0.5,0.5v1	C17,28.776,16.776,29,16.5,29z"/><path fill="#057093" d="M20.5,29h-1c-0.276,0-0.5-0.224-0.5-0.5v-1c0-0.276,0.224-0.5,0.5-0.5h1c0.276,0,0.5,0.224,0.5,0.5v1	C21,28.776,20.776,29,20.5,29z"/><path fill="#057093" d="M28.5,29h-1c-0.276,0-0.5-0.224-0.5-0.5v-1c0-0.276,0.224-0.5,0.5-0.5h1c0.276,0,0.5,0.224,0.5,0.5v1	C29,28.776,28.776,29,28.5,29z"/><path fill="#057093" d="M32.5,29h-1c-0.276,0-0.5-0.224-0.5-0.5v-1c0-0.276,0.224-0.5,0.5-0.5h1c0.276,0,0.5,0.224,0.5,0.5v1	C33,28.776,32.776,29,32.5,29z"/><path fill="#057093" d="M36.5,29h-1c-0.276,0-0.5-0.224-0.5-0.5v-1c0-0.276,0.224-0.5,0.5-0.5h1c0.276,0,0.5,0.224,0.5,0.5v1	C37,28.776,36.776,29,36.5,29z"/><path fill="#057093" d="M40.5,29h-1c-0.276,0-0.5-0.224-0.5-0.5v-1c0-0.276,0.224-0.5,0.5-0.5h1c0.276,0,0.5,0.224,0.5,0.5v1	C41,28.776,40.776,29,40.5,29z"/><path fill="#057093" d="M8.5,33h-1C7.224,33,7,32.776,7,32.5v-1C7,31.224,7.224,31,7.5,31h1C8.776,31,9,31.224,9,31.5v1	C9,32.776,8.776,33,8.5,33z"/><path fill="#057093" d="M12.5,33h-1c-0.276,0-0.5-0.224-0.5-0.5v-1c0-0.276,0.224-0.5,0.5-0.5h1c0.276,0,0.5,0.224,0.5,0.5v1	C13,32.776,12.776,33,12.5,33z"/><path fill="#057093" d="M16.5,33h-1c-0.276,0-0.5-0.224-0.5-0.5v-1c0-0.276,0.224-0.5,0.5-0.5h1c0.276,0,0.5,0.224,0.5,0.5v1	C17,32.776,16.776,33,16.5,33z"/><path fill="#057093" d="M20.5,33h-1c-0.276,0-0.5-0.224-0.5-0.5v-1c0-0.276,0.224-0.5,0.5-0.5h1c0.276,0,0.5,0.224,0.5,0.5v1	C21,32.776,20.776,33,20.5,33z"/><path fill="#057093" d="M28.5,33h-1c-0.276,0-0.5-0.224-0.5-0.5v-1c0-0.276,0.224-0.5,0.5-0.5h1c0.276,0,0.5,0.224,0.5,0.5v1	C29,32.776,28.776,33,28.5,33z"/><path fill="#057093" d="M32.5,33h-1c-0.276,0-0.5-0.224-0.5-0.5v-1c0-0.276,0.224-0.5,0.5-0.5h1c0.276,0,0.5,0.224,0.5,0.5v1	C33,32.776,32.776,33,32.5,33z"/><path fill="#057093" d="M36.5,33h-1c-0.276,0-0.5-0.224-0.5-0.5v-1c0-0.276,0.224-0.5,0.5-0.5h1c0.276,0,0.5,0.224,0.5,0.5v1	C37,32.776,36.776,33,36.5,33z"/><path fill="#057093" d="M40.5,33h-1c-0.276,0-0.5-0.224-0.5-0.5v-1c0-0.276,0.224-0.5,0.5-0.5h1c0.276,0,0.5,0.224,0.5,0.5v1	C41,32.776,40.776,33,40.5,33z"/></svg>