<svg xmlns="http://www.w3.org/2000/svg"  viewBox="0 0 64 64" width="50px" height="50px"><radialGradient id="JzzcosuWdvHMd7fcLENhpa" cx="29.431" cy="33.18" r="38.358" gradientTransform="matrix(1 0 0 -1 0 64)" gradientUnits="userSpaceOnUse"><stop offset="0" stop-color="#f7e9c2"/><stop offset=".219" stop-color="#fbeecc"/><stop offset=".644" stop-color="#fff3db"/><stop offset="1" stop-color="#fff5e0"/></radialGradient><path fill="url(#JzzcosuWdvHMd7fcLENhpa)" d="M63.981,56.607C64.209,58.992,62.339,61,60,61H24h-1H6c-2.339,0-4.209-2.008-3.981-4.393	C2.217,54.527,4.083,53,6.172,53l0,0C9.391,53,12,50.391,12,47.143v-0.15C12,43.683,9.317,41,6.007,41H6	c-2.923,0-5.261-2.509-4.976-5.491C1.271,32.909,3.603,31,6.215,31H10c1.657,0,3-1.343,3-3l0,0c0-1.657-1.343-3-3-3H8	c-2.339,0-4.209-2.008-3.981-4.393C4.217,18.527,6.083,17,8.172,17H14.5c1.381,0,2.5-1.119,2.5-2.5l0,0c0-1.381-1.119-2.5-2.5-2.5	H14c-2.339,0-4.209-2.008-3.981-4.393C10.217,5.527,12.083,4,14.172,4H53c2.339,0,4.209,2.007,3.981,4.393	C56.783,10.473,54.917,12,52.828,12H52.5c-1.933,0-3.5,1.567-3.5,3.5l0,0c0,1.933,1.567,3.5,3.5,3.5h3	c3.216,0,5.787,2.76,5.474,6.04C60.701,27.9,58.136,30,55.263,30H54c-1.657,0-3,1.343-3,3l0,0c0,1.657,1.343,3,3,3h5	c2.339,0,4.209,2.007,3.981,4.393C62.783,42.473,60.917,44,58.828,44H56.5c-2.485,0-4.5,2.015-4.5,4.5l0,0	c0,2.485,2.015,4.5,4.5,4.5h3.328C61.917,53,63.783,54.527,63.981,56.607z M3.367,11.951c2.704,0.414,4.999-1.881,4.584-4.585	c-0.258-1.684-1.635-3.061-3.32-3.318C1.929,3.635-0.365,5.929,0.048,8.632C0.306,10.316,1.683,11.693,3.367,11.951z"/><linearGradient id="JzzcosuWdvHMd7fcLENhpb" x1="32" x2="32" y1="90.321" y2="7.035" gradientTransform="matrix(1 0 0 -1 0 64)" gradientUnits="userSpaceOnUse"><stop offset="0" stop-color="#fdc462"/><stop offset=".004" stop-color="#fdc462"/><stop offset=".609" stop-color="#fdc380"/><stop offset="1" stop-color="#fdc28f"/><stop offset="1" stop-color="#fdc28f"/></linearGradient><path fill="url(#JzzcosuWdvHMd7fcLENhpb)" d="M32,9L32,9c7.207,0,13.05,5.843,13.05,13.05v0.9C45.05,30.157,39.207,36,32,36l0,0	c-7.207,0-13.05-5.843-13.05-13.05v-0.9C18.95,14.843,24.793,9,32,9z"/><linearGradient id="JzzcosuWdvHMd7fcLENhpc" x1="32" x2="32" y1="-50.038" y2="50.72" gradientTransform="matrix(1 0 0 -1 0 64)" gradientUnits="userSpaceOnUse"><stop offset="0" stop-color="#005ce2"/><stop offset=".278" stop-color="#0080e8"/><stop offset=".569" stop-color="#009ced"/><stop offset=".82" stop-color="#00b0f1"/><stop offset="1" stop-color="#00b5f2"/></linearGradient><path fill="url(#JzzcosuWdvHMd7fcLENhpc)" d="M33,38h-2c-8.284,0-15,6.716-15,15l0,0c0,2.209,1.791,4,4,4h24c2.209,0,4-1.791,4-4l0,0	C48,44.716,41.284,38,33,38z"/><linearGradient id="JzzcosuWdvHMd7fcLENhpd" x1="25.499" x2="25.499" y1="-92.279" y2="28.82" gradientTransform="matrix(1 0 0 -1 0 64)" gradientUnits="userSpaceOnUse"><stop offset="0" stop-color="#005ce2"/><stop offset=".278" stop-color="#0080e8"/><stop offset=".749" stop-color="#009ced"/><stop offset=".854" stop-color="#00b0f1"/><stop offset="1" stop-color="#00b5f2"/></linearGradient><path fill="url(#JzzcosuWdvHMd7fcLENhpd)" d="M33,42h-6.5c-0.83,0-1.5,0.67-1.5,1.5s0.67,1.5,1.5,1.5H27c1.21,0,2.18,1.08,1.97,2.34	C28.81,48.32,27.89,49,26.89,49H22.5c-0.83,0-1.5,0.67-1.5,1.5s0.67,1.5,1.5,1.5h1c1.47,0,2.64,1.26,2.49,2.76	c-0.13,1.3-1.32,2.24-2.63,2.24H20c-1.1,0-2.1-0.45-2.83-1.17C16.45,55.1,16,54.1,16,53c0-8.28,6.72-15,15-15h1.89	c1,0,1.92,0.68,2.08,1.66C35.18,40.92,34.21,42,33,42z"/><linearGradient id="JzzcosuWdvHMd7fcLENhpe" x1="32.5" x2="32.5" y1="-57.809" y2="22.814" gradientTransform="matrix(1 0 0 -1 0 64)" gradientUnits="userSpaceOnUse"><stop offset="0" stop-color="#005ce2"/><stop offset=".278" stop-color="#0080e8"/><stop offset=".749" stop-color="#009ced"/><stop offset=".854" stop-color="#00b0f1"/><stop offset="1" stop-color="#00b5f2"/></linearGradient><path fill="url(#JzzcosuWdvHMd7fcLENhpe)" d="M32.5,57L32.5,57c-1.381,0-2.5-1.119-2.5-2.5l0,0c0-1.381,1.119-2.5,2.5-2.5l0,0	c1.381,0,2.5,1.119,2.5,2.5l0,0C35,55.881,33.881,57,32.5,57z"/></svg>