<svg xmlns="http://www.w3.org/2000/svg"  viewBox="0 0 48 48" width="50px" height="50px"><linearGradient id="lxkHKWFrVP2D_JGnGojTga" x1="-1136.604" x2="-1150.918" y1="621.007" y2="635.322" gradientTransform="matrix(1 0 0 -1 1161.621 661.61)" gradientUnits="userSpaceOnUse"><stop offset=".365" stop-color="#199ae0"/><stop offset=".699" stop-color="#1898de"/><stop offset=".819" stop-color="#1691d8"/><stop offset=".905" stop-color="#1186cc"/><stop offset=".974" stop-color="#0a75bc"/><stop offset="1" stop-color="#076cb3"/></linearGradient><path fill="url(#lxkHKWFrVP2D_JGnGojTga)" d="M4.201,23.099l3.312-3.312c0.774-0.774,2.028-0.774,2.802,0l15.483,15.483 c0.774,0.774,0.774,2.028,0,2.802l-3.312,3.312c-0.774,0.774-2.028,0.774-2.802,0L4.201,25.901 C3.428,25.127,3.428,23.873,4.201,23.099z"/><linearGradient id="lxkHKWFrVP2D_JGnGojTgb" x1="-1155.656" x2="-1137.223" y1="634.162" y2="652.594" gradientTransform="matrix(1 0 0 -1 1161.621 661.61)" gradientUnits="userSpaceOnUse"><stop offset="0" stop-color="#32bdef"/><stop offset="1" stop-color="#1ea2e4"/></linearGradient><path fill="url(#lxkHKWFrVP2D_JGnGojTgb)" d="M7.513,29.213l-3.312-3.312c-0.774-0.774-0.774-2.028,0-2.802L19.685,7.616 c0.774-0.774,2.028-0.774,2.802,0l3.312,3.312c0.774,0.774,0.774,2.028,0,2.802L10.315,29.213 C9.541,29.986,8.287,29.986,7.513,29.213z"/><linearGradient id="lxkHKWFrVP2D_JGnGojTgc" x1="-1118.604" x2="-1132.918" y1="621.007" y2="635.322" gradientTransform="matrix(1 0 0 -1 1161.621 661.61)" gradientUnits="userSpaceOnUse"><stop offset=".365" stop-color="#199ae0"/><stop offset=".699" stop-color="#1898de"/><stop offset=".819" stop-color="#1691d8"/><stop offset=".905" stop-color="#1186cc"/><stop offset=".974" stop-color="#0a75bc"/><stop offset="1" stop-color="#076cb3"/></linearGradient><path fill="url(#lxkHKWFrVP2D_JGnGojTgc)" d="M22.201,23.099l3.312-3.312c0.774-0.774,2.028-0.774,2.802,0l15.483,15.483 c0.774,0.774,0.774,2.028,0,2.802l-3.312,3.312c-0.774,0.774-2.028,0.774-2.802,0L22.201,25.901 C21.428,25.127,21.428,23.873,22.201,23.099z"/><linearGradient id="lxkHKWFrVP2D_JGnGojTgd" x1="-1137.656" x2="-1119.223" y1="634.162" y2="652.594" gradientTransform="matrix(1 0 0 -1 1161.621 661.61)" gradientUnits="userSpaceOnUse"><stop offset="0" stop-color="#32bdef"/><stop offset="1" stop-color="#1ea2e4"/></linearGradient><path fill="url(#lxkHKWFrVP2D_JGnGojTgd)" d="M25.513,29.213l-3.312-3.312c-0.774-0.774-0.774-2.028,0-2.802L37.685,7.616 c0.774-0.774,2.028-0.774,2.802,0l3.312,3.312c0.774,0.774,0.774,2.028,0,2.802L28.315,29.213 C27.541,29.986,26.287,29.986,25.513,29.213z"/></svg>