<svg xmlns="http://www.w3.org/2000/svg"  viewBox="0 0 64 64" width="50px" height="50px"><radialGradient id="SM7pYZU8C6w4LETo6WeNqa" cx="31.873" cy="11225.569" r="50.261" gradientTransform="translate(0 -11190)" gradientUnits="userSpaceOnUse"><stop offset="0" stop-color="#afeeff"/><stop offset=".193" stop-color="#bbf1ff"/><stop offset=".703" stop-color="#d7f8ff"/><stop offset="1" stop-color="#e1faff"/></radialGradient><path fill="url(#SM7pYZU8C6w4LETo6WeNqa)" d="M60,44H45l-2.6-1h6.012c1.138,0,2.202-0.721,2.497-1.821C51.355,39.516,50.096,38,48.5,38	c-0.828,0-1.5-0.672-1.5-1.5s0.672-1.5,1.5-1.5h2.912c1.139,0,2.202-0.721,2.497-1.821C54.355,31.516,53.096,29,51.5,29H51	c-1.105,0-2-0.895-2-2s0.895-2,2-2h9.412c1.139,0,2.202-0.721,2.497-1.821C63.355,21.516,62.096,20,60.5,20H60c-1.105,0-2-0.895-2-2	s0.895-2,2-2h1c1.848,0,3.319-1.693,2.94-3.605C63.657,10.972,62.32,10,60.869,10H50.5C49.672,10,49,9.328,49,8.5S49.672,7,50.5,7	h5.912c1.139,0,2.202-0.721,2.497-1.821C59.355,3.516,58.096,2,56.5,2H7.588C6.449,2,5.386,2.721,5.091,3.821	C4.645,5.484,5.904,7,7.5,7l0,0C8.881,7,10,8.119,10,9.5S8.881,12,7.5,12H5c-1.65,0-3,1.35-3,3s1.35,3,3,3h21	c0.352,0,0.685-0.073,1-0.185V29h-7.412c-1.139,0-2.202,1.721-2.497,2.821c-0.219,0.817-0.024,1.595,0.418,2.179H2.5	C1.119,34,0,35.119,0,36.5S1.119,39,2.5,39h1C4.881,39,6,40.119,6,41.5S4.881,44,3.5,44H3c-1.657,0-3,1.343-3,3s1.343,3,3,3h6.5	c1.381,0,2.5,1.119,2.5,2.5S10.881,55,9.5,55H8c-1.657,0-3,1.343-3,3s1.343,3,3,3h48c1.657,0,3-1.343,3-3s-1.343-3-3-3h-0.5	c-1.381,0-2.5-1.119-2.5-2.5s1.119-2.5,2.5-2.5H60c1.657,0,3-1.343,3-3S61.657,44,60,44z M27,37.077L21.6,35H27V37.077z"/><linearGradient id="SM7pYZU8C6w4LETo6WeNqb" x1="33.5" x2="33.5" y1="11263.894" y2="11198.949" gradientTransform="translate(0 -11190)" gradientUnits="userSpaceOnUse"><stop offset="0" stop-color="#ffc662"/><stop offset=".004" stop-color="#ffc662"/><stop offset=".609" stop-color="#ffc582"/><stop offset="1" stop-color="#ffc491"/><stop offset="1" stop-color="#ffc491"/></linearGradient><path fill="url(#SM7pYZU8C6w4LETo6WeNqb)" d="M33.5,10C21.074,10,11,20.074,11,32.5S21.074,55,33.5,55S56,44.926,56,32.5S45.926,10,33.5,10	z"/><linearGradient id="SM7pYZU8C6w4LETo6WeNqc" x1="32.5" x2="32.5" y1="11174.404" y2="11230.512" gradientTransform="translate(0 -11190)" gradientUnits="userSpaceOnUse"><stop offset="0" stop-color="#ff8b67"/><stop offset=".696" stop-color="#ffa76a"/><stop offset="1" stop-color="#ffad6b"/><stop offset="1" stop-color="#ffad6b"/></linearGradient><path fill="url(#SM7pYZU8C6w4LETo6WeNqc)" d="M54,7H24C14.611,7,7,14.611,7,24v15.5c0,3.59,2.91,6.5,6.5,6.5l0,0c3.59,0,6.5-2.91,6.5-6.5	V34c0-6.075,1.925-11,8-11h18c6.627,0,12-5.373,12-12l0,0C58,8.791,56.209,7,54,7z"/><linearGradient id="SM7pYZU8C6w4LETo6WeNqd" x1="28" x2="28" y1="61.064" y2="28.762" gradientTransform="matrix(1 0 0 -1 0 66)" gradientUnits="userSpaceOnUse"><stop offset="0" stop-color="#a4a4a4"/><stop offset=".63" stop-color="#7f7f7f"/><stop offset="1" stop-color="#6f6f6f"/><stop offset="1" stop-color="#6f6f6f"/></linearGradient><path fill="url(#SM7pYZU8C6w4LETo6WeNqd)" d="M41.243,24.811l-2.629-0.657c-0.252-0.937-0.62-1.823-1.096-2.644l1.395-2.325	c0.236-0.393,0.174-0.897-0.15-1.222l-1.724-1.724c-0.324-0.324-0.828-0.386-1.222-0.15l-2.325,1.395	c-0.821-0.476-1.708-0.844-2.644-1.096l-0.657-2.629C30.078,13.312,29.678,13,29.219,13h-2.438c-0.459,0-0.859,0.312-0.97,0.757	l-0.657,2.629c-0.937,0.252-1.823,0.62-2.644,1.096l-2.325-1.395c-0.393-0.236-0.897-0.174-1.222,0.15l-1.724,1.724	c-0.324,0.324-0.386,0.828-0.15,1.222l1.395,2.325c-0.476,0.821-0.844,1.708-1.096,2.644l-2.629,0.657	C14.312,24.922,14,25.322,14,25.781v2.438c0,0.459,0.312,0.859,0.757,0.97l2.629,0.657c0.252,0.937,0.62,1.823,1.096,2.644	l-1.395,2.325c-0.236,0.393-0.174,0.897,0.15,1.222l1.724,1.724c0.324,0.324,0.828,0.386,1.222,0.15l2.325-1.395	c0.821,0.476,1.708,0.844,2.644,1.096l0.657,2.629C25.922,40.688,26.322,41,26.781,41h2.438c0.459,0,0.859-0.312,0.97-0.757	l0.657-2.629c0.937-0.252,1.823-0.62,2.644-1.096l2.325,1.395c0.393,0.236,0.897,0.174,1.222-0.15l1.724-1.724	c0.324-0.324,0.386-0.828,0.15-1.222l-1.395-2.325c0.476-0.821,0.844-1.708,1.096-2.644l2.629-0.657	C41.688,29.078,42,28.678,42,28.219v-2.438C42,25.322,41.688,24.922,41.243,24.811z M28,34c-3.859,0-7-3.141-7-7c0-3.86,3.141-7,7-7	s7,3.14,7,7C35,30.859,31.859,34,28,34z"/><linearGradient id="SM7pYZU8C6w4LETo6WeNqe" x1="28" x2="28" y1="47.66" y2="29.127" gradientTransform="matrix(1 0 0 -1 0 66)" gradientUnits="userSpaceOnUse"><stop offset="0" stop-color="#ababab"/><stop offset="1" stop-color="#999"/></linearGradient><path fill="url(#SM7pYZU8C6w4LETo6WeNqe)" d="M28,34c-3.859,0-7-3.141-7-7c0-3.86,3.141-7,7-7s7,3.14,7,7C35,30.859,31.859,34,28,34z M28,23c-2.206,0-4,1.794-4,4s1.794,4,4,4s4-1.794,4-4S30.206,23,28,23z"/></svg>