<svg xmlns="http://www.w3.org/2000/svg"  viewBox="0 0 64 64" width="50px" height="50px"><radialGradient id="OL9OQcX1H0j2jSceMxu8Xa" cx="32.5" cy="32" r="31.751" gradientUnits="userSpaceOnUse" spreadMethod="reflect"><stop offset="0" stop-color="#afeeff"/><stop offset=".193" stop-color="#bbf1ff"/><stop offset=".703" stop-color="#d7f8ff"/><stop offset="1" stop-color="#e1faff"/></radialGradient><path fill="url(#OL9OQcX1H0j2jSceMxu8Xa)" d="M61.501,18.008H56c-1.1,0-2-0.9-2-2c0-1.1,0.9-2,2-2h2.411c1.85,0,3.32-1.69,2.94-3.6 c-0.28-1.43-1.62-2.4-3.07-2.4L45.5,8C44.67,8,44,7.33,44,6.5C44,5.67,44.67,5,45.5,5h5.91c1.14,0,2.2-0.72,2.5-1.82 C54.36,1.52,53.1,0,51.5,0H7.59c-1.14,0-2.2,0.72-2.5,1.82C4.64,3.48,5.9,5,7.5,5h3c0.69,0,1.32,0.28,1.77,0.73 C12.72,6.18,13,6.81,13,7.5c0,1.38-1.12,2.5-2.5,2.5H4c-1.65,0-3,1.35-3,3c0,1.65,1.35,3,3,3h21c0.35,0,0.69-0.07,1-0.19V23H13v9 h4.5c1.38,0,2.5,1.12,2.5,2.5c0,0.69-0.28,1.32-0.73,1.77C18.82,36.72,18.19,37,17.5,37h-8C8.12,37,7,38.12,7,39.5S8.12,42,9.5,42h4 c1.209,0,2.218,0.859,2.45,2H5.5C3.025,44,1,46.025,1,48.5C1,50.975,3.025,53,5.5,53h12c1.38,0,2.5,1.12,2.5,2.5S18.88,58,17.5,58 H15c-1.66,0-3,1.34-3,3c0,1.66,1.34,3,3,3h44c1.66,0,3-1.34,3-3c0-1.66-1.34-3-3-3h-5.5c-1.38,0-2.5-1.12-2.5-2.5s1.12-2.5,2.5-2.5 h4c2.475,0,4.5-2.025,4.5-4.5c0-2.475-2.025-4.5-4.5-4.5H47.437c0.314-1.587-0.896-3-2.437-3c-0.83,0,1-0.67,1-1.5 c0-0.83,0.67-1.5,1.5-1.5c0,0,0.5-11.9,0.5-13c0-1.1,0.9-2,2-2l11.411,0.008c1.14,0,2.2-0.72,2.5-1.82 C64.351,19.527,63.091,18.008,61.501,18.008z"/><path fill="#fff" d="M59.265,29.824c0.954,0.917,0.954,2.436,0,3.353C55.293,36.993,44.586,46,32,46 S8.707,36.993,4.735,33.176c-0.954-0.917-0.954-2.436,0-3.353C8.707,26.007,19.414,17,32,17S55.293,26.007,59.265,29.824z"/><linearGradient id="OL9OQcX1H0j2jSceMxu8Xb" x1="32" x2="32" y1="10.217" y2="44.916" gradientUnits="userSpaceOnUse" spreadMethod="reflect"><stop offset="0" stop-color="#40daf2"/><stop offset=".259" stop-color="#3bd3ef"/><stop offset=".624" stop-color="#2ec1e8"/><stop offset="1" stop-color="#1ba7dd"/></linearGradient><path fill="url(#OL9OQcX1H0j2jSceMxu8Xb)" d="M32 14A15 15 0 1 0 32 44A15 15 0 1 0 32 14Z"/><linearGradient id="OL9OQcX1H0j2jSceMxu8Xc" x1="32" x2="32" y1="22" y2="36" gradientUnits="userSpaceOnUse" spreadMethod="reflect"><stop offset="0" stop-color="#606f7d"/><stop offset=".223" stop-color="#5c6a77"/><stop offset="1" stop-color="#505b67"/></linearGradient><path fill="url(#OL9OQcX1H0j2jSceMxu8Xc)" d="M32 22A7 7 0 1 0 32 36A7 7 0 1 0 32 22Z"/><path fill="#fff" d="M37.5 21A3.5 3.5 0 1 0 37.5 28A3.5 3.5 0 1 0 37.5 21Z"/><linearGradient id="OL9OQcX1H0j2jSceMxu8Xd" x1="32" x2="32" y1="53" y2="10" gradientUnits="userSpaceOnUse" spreadMethod="reflect"><stop offset="0" stop-color="#ff9757"/><stop offset="1" stop-color="#ffb65b"/></linearGradient><path fill="url(#OL9OQcX1H0j2jSceMxu8Xd)" d="M61.058,26.464C55.44,20.109,44.534,10,32,10S8.56,20.109,2.942,26.464 c-2.547,2.881-2.547,7.191,0,10.073C8.56,42.891,19.466,53,32,53s23.44-10.109,29.058-16.464 C63.605,33.655,63.605,29.345,61.058,26.464z M59.265,33.176C55.293,36.993,44.586,46,32,46S8.707,36.993,4.735,33.176 c-0.954-0.917-0.954-2.436,0-3.353C8.707,26.007,19.414,17,32,17s23.293,9.007,27.265,12.824 C60.219,30.741,60.219,32.259,59.265,33.176z"/><linearGradient id="OL9OQcX1H0j2jSceMxu8Xe" x1="31" x2="31" y1="8.015" y2="57.985" gradientUnits="userSpaceOnUse" spreadMethod="reflect"><stop offset="0" stop-color="#a4a4a4"/><stop offset=".63" stop-color="#7f7f7f"/><stop offset="1" stop-color="#6f6f6f"/><stop offset="1" stop-color="#6f6f6f"/></linearGradient><path fill="url(#OL9OQcX1H0j2jSceMxu8Xe)" d="M50.015,56.964L7.036,13.985c-1.361-1.361-1.361-3.589,0-4.95l0,0 c1.361-1.361,3.589-1.361,4.95,0l42.979,42.979c1.361,1.361,1.361,3.589,0,4.95l0,0C53.603,58.326,51.376,58.326,50.015,56.964z"/></svg>