<svg xmlns="http://www.w3.org/2000/svg"  viewBox="0 0 48 48" width="50px" height="50px"><path fill="#35c1f1" d="M44.041,24.122c0,11.045-8.955,20-20,20s-20-8.955-20-20s8.955-20,20-20S44.041,13.077,44.041,24.122	z"/><path fill="none" d="M24,19c-2.761,0-5,2.239-5,5s2.239,5,5,5c1.381,0,2.631-0.56,3.536-1.464L24,24V19z"/><path fill="#0078d4" d="M29,24h15c0-11.046-8.954-20-20-20v15C26.761,19,29,21.239,29,24z"/><path fill="#0078d4" d="M44,24H29c0,1.381-0.56,2.631-1.464,3.536l10.607,10.607C41.761,34.523,44,29.523,44,24z"/><path fill="#fff" d="M36,24.122c0,6.604-5.355,11.959-11.959,11.959s-11.959-5.355-11.959-11.959	s5.355-11.959,11.959-11.959S36,17.518,36,24.122z"/></svg>