<svg xmlns="http://www.w3.org/2000/svg"  viewBox="0 0 64 64" width="50px" height="50px"><radialGradient id="Pyoui73UvHf3pHn9pd07Ta" cx="33.34" cy="36.064" r="43.888" gradientTransform="translate(0 2)" gradientUnits="userSpaceOnUse"><stop offset="0" stop-color="#f4e9c3"/><stop offset=".219" stop-color="#f8eecd"/><stop offset=".644" stop-color="#fdf4dc"/><stop offset="1" stop-color="#fff6e1"/></radialGradient><path fill="url(#Pyoui73UvHf3pHn9pd07Ta)" d="M51.03,37.34c0.16,0.98,1.08,1.66,2.08,1.66h5.39c2.63,0,4.75,2.28,4.48,4.96	C62.74,46.3,60.64,48,58.29,48h-5.406c-1.22,0-2.18,1.08-1.97,2.34c0.16,0.98,1.08,1.66,2.08,1.66H57.5c1.24,0,2.37,0.5,3.18,1.32	C61.5,54.13,62,55.26,62,56.5c0,2.49-2.01,4.5-4.5,4.5h-49c-1.52,0-2.9-0.62-3.89-1.61C3.62,58.4,3,57.02,3,55.5	C3,52.46,5.46,50,8.5,50h12.17c1.22,0,2.18-1.08,1.97-2.34C22.48,46.68,21.56,44,20.56,44H5.5c-2.63,0-4.75-2.28-4.48-4.96	C1.26,36.7,3.36,35,5.71,35H11c1.71,0,3.09-1.43,3-3.16C13.91,30.22,12.45,29,10.83,29H4.5c-2.63,0-4.75-2.28-4.48-4.96	C0.26,21.7,2.37,20,4.71,20H20c0.83,0,1.58-0.34,2.12-0.88C22.66,18.58,23,17.83,23,17c0-1.66-1.34-3-3-3h-1.18	c-0.62-0.09-1.43,0-2.32,0h-9c-1.52,0-2.9-0.62-3.89-1.61S2,10.02,2,8.5C2,5.46,4.46,3,7.5,3h49c3.21,0,5.8,2.79,5.47,6.06	C61.68,11.92,60.11,14,57.24,14H45c-2.76,0-5,2.24-5,5c0,1.38,0.56,2.63,1.46,3.54C42.37,23.44,43.62,24,45,24h13.5	c3.21,0,5.8,2.79,5.47,6.06C63.68,32.92,61.11,35,58.24,35H53C51.78,35,50.82,36.08,51.03,37.34z"/><linearGradient id="Pyoui73UvHf3pHn9pd07Tb" x1="14.97" x2="14.97" y1="30.093" y2="18.614" gradientUnits="userSpaceOnUse"><stop offset="0" stop-color="#37ab6a"/><stop offset=".422" stop-color="#39b66f"/><stop offset="1" stop-color="#3ac074"/></linearGradient><polygon fill="url(#Pyoui73UvHf3pHn9pd07Tb)" points="10,24.353 10,18.614 14.971,21.484 19.941,24.353 14.971,27.222 10,30.093"/><linearGradient id="Pyoui73UvHf3pHn9pd07Tc" x1="14.97" x2="14.97" y1="41.571" y2="30.093" gradientUnits="userSpaceOnUse"><stop offset="0" stop-color="#37ab6a"/><stop offset=".422" stop-color="#39b66f"/><stop offset="1" stop-color="#3ac074"/></linearGradient><polygon fill="url(#Pyoui73UvHf3pHn9pd07Tc)" points="10,35.831 10,30.093 14.971,32.962 19.941,35.831 14.971,38.701 10,41.571"/><linearGradient id="Pyoui73UvHf3pHn9pd07Td" x1="15.03" x2="15.03" y1="24.353" y2="35.831" gradientUnits="userSpaceOnUse"><stop offset="0" stop-color="#62de8f"/><stop offset=".478" stop-color="#5dd18d"/><stop offset="1" stop-color="#56be89"/></linearGradient><polygon fill="url(#Pyoui73UvHf3pHn9pd07Td)" points="20,30.093 20,35.831 15.03,32.962 10.059,30.093 15.03,27.222 20,24.353"/><linearGradient id="Pyoui73UvHf3pHn9pd07Te" x1="15.03" x2="15.03" y1="12.875" y2="24.353" gradientUnits="userSpaceOnUse"><stop offset="0" stop-color="#62de8f"/><stop offset=".478" stop-color="#5dd18d"/><stop offset="1" stop-color="#56be89"/></linearGradient><polygon fill="url(#Pyoui73UvHf3pHn9pd07Te)" points="20,18.614 20,24.353 15.03,21.484 10.059,18.614 15.03,15.744 20,12.875"/><linearGradient id="Pyoui73UvHf3pHn9pd07Tf" x1="24.97" x2="24.97" y1="24.353" y2="12.875" gradientUnits="userSpaceOnUse"><stop offset="0" stop-color="#37ab6a"/><stop offset=".422" stop-color="#39b66f"/><stop offset="1" stop-color="#3ac074"/></linearGradient><polygon fill="url(#Pyoui73UvHf3pHn9pd07Tf)" points="20,18.614 20,12.875 24.97,15.744 29.941,18.614 24.97,21.484 20,24.353"/><linearGradient id="Pyoui73UvHf3pHn9pd07Tg" x1="25.03" x2="25.03" y1="8.277" y2="16.83" gradientUnits="userSpaceOnUse"><stop offset="0" stop-color="#62de8f"/><stop offset=".478" stop-color="#5dd18d"/><stop offset="1" stop-color="#56be89"/></linearGradient><polygon fill="url(#Pyoui73UvHf3pHn9pd07Tg)" points="30,12.875 30,18.614 25.029,15.744 20.059,12.875 25.029,10.006 30,7.137"/><linearGradient id="Pyoui73UvHf3pHn9pd07Th" x1="49.03" x2="49.03" y1="30.093" y2="18.614" gradientUnits="userSpaceOnUse"><stop offset="0" stop-color="#155cde"/><stop offset=".122" stop-color="#196ae1"/><stop offset=".509" stop-color="#2493e9"/><stop offset=".815" stop-color="#2bacee"/><stop offset="1" stop-color="#2eb5f0"/></linearGradient><polygon fill="url(#Pyoui73UvHf3pHn9pd07Th)" points="54,24.353 54,18.614 49.029,21.484 44.059,24.353 49.029,27.222 54,30.093"/><linearGradient id="Pyoui73UvHf3pHn9pd07Ti" x1="49.03" x2="49.03" y1="41.571" y2="30.093" gradientUnits="userSpaceOnUse"><stop offset="0" stop-color="#155cde"/><stop offset=".122" stop-color="#196ae1"/><stop offset=".509" stop-color="#2493e9"/><stop offset=".815" stop-color="#2bacee"/><stop offset="1" stop-color="#2eb5f0"/></linearGradient><polygon fill="url(#Pyoui73UvHf3pHn9pd07Ti)" points="54,35.831 54,30.093 49.029,32.962 44.059,35.831 49.029,38.701 54,41.571"/><linearGradient id="Pyoui73UvHf3pHn9pd07Tj" x1="48.97" x2="48.97" y1="35.831" y2="24.353" gradientUnits="userSpaceOnUse"><stop offset="0" stop-color="#41bfec"/><stop offset=".232" stop-color="#4cc5ef"/><stop offset=".644" stop-color="#6bd4f6"/><stop offset="1" stop-color="#8ae4fd"/></linearGradient><polygon fill="url(#Pyoui73UvHf3pHn9pd07Tj)" points="44,30.093 44,35.831 48.97,32.962 53.941,30.093 48.97,27.222 44,24.353"/><linearGradient id="Pyoui73UvHf3pHn9pd07Tk" x1="48.97" x2="48.97" y1="24.353" y2="12.875" gradientUnits="userSpaceOnUse"><stop offset="0" stop-color="#41bfec"/><stop offset=".232" stop-color="#4cc5ef"/><stop offset=".644" stop-color="#6bd4f6"/><stop offset="1" stop-color="#8ae4fd"/></linearGradient><polygon fill="url(#Pyoui73UvHf3pHn9pd07Tk)" points="44,18.614 44,24.353 48.97,21.484 53.941,18.614 48.97,15.744 44,12.875"/><g><linearGradient id="Pyoui73UvHf3pHn9pd07Tl" x1="39.03" x2="39.03" y1="24.353" y2="12.875" gradientUnits="userSpaceOnUse"><stop offset="0" stop-color="#155cde"/><stop offset=".122" stop-color="#196ae1"/><stop offset=".509" stop-color="#2493e9"/><stop offset=".815" stop-color="#2bacee"/><stop offset="1" stop-color="#2eb5f0"/></linearGradient><polygon fill="url(#Pyoui73UvHf3pHn9pd07Tl)" points="44,18.614 44,12.875 39.03,15.744 34.059,18.614 39.03,21.484 44,24.353"/></g><g><linearGradient id="Pyoui73UvHf3pHn9pd07Tm" x1="38.97" x2="38.97" y1="18.614" y2="7.137" gradientUnits="userSpaceOnUse"><stop offset="0" stop-color="#41bfec"/><stop offset=".232" stop-color="#4cc5ef"/><stop offset=".644" stop-color="#6bd4f6"/><stop offset="1" stop-color="#8ae4fd"/></linearGradient><polygon fill="url(#Pyoui73UvHf3pHn9pd07Tm)" points="34,12.875 34,18.614 38.971,15.744 43.941,12.875 38.971,10.006 34,7.137"/></g><g><linearGradient id="Pyoui73UvHf3pHn9pd07Tn" x1="17.03" x2="17.03" y1="51.123" y2="39.646" gradientUnits="userSpaceOnUse"><stop offset="0" stop-color="#ff634d"/><stop offset=".204" stop-color="#fe6464"/><stop offset=".521" stop-color="#fc6581"/><stop offset=".794" stop-color="#fa6694"/><stop offset=".989" stop-color="#fa669a"/><stop offset="1" stop-color="#fa669a"/></linearGradient><polygon fill="url(#Pyoui73UvHf3pHn9pd07Tn)" points="22,45.385 22,39.646 17.03,42.515 12.06,45.385 17.03,48.254 22,51.123"/></g><g><linearGradient id="Pyoui73UvHf3pHn9pd07To" x1="26.97" x2="26.97" y1="51.123" y2="39.646" gradientUnits="userSpaceOnUse"><stop offset="0" stop-color="#ff9757"/><stop offset="1" stop-color="#ffb65b"/><stop offset="1" stop-color="#ffb65b"/></linearGradient><polygon fill="url(#Pyoui73UvHf3pHn9pd07To)" points="22,45.385 22,51.123 26.971,48.254 31.941,45.385 26.971,42.515 22,39.646"/></g><g><linearGradient id="Pyoui73UvHf3pHn9pd07Tp" x1="27.029" x2="27.029" y1="56.863" y2="45.385" gradientUnits="userSpaceOnUse"><stop offset="0" stop-color="#ff634d"/><stop offset=".204" stop-color="#fe6464"/><stop offset=".521" stop-color="#fc6581"/><stop offset=".794" stop-color="#fa6694"/><stop offset=".989" stop-color="#fa669a"/><stop offset="1" stop-color="#fa669a"/></linearGradient><polygon fill="url(#Pyoui73UvHf3pHn9pd07Tp)" points="31.999,51.123 31.999,45.385 27.029,48.254 22.059,51.123 27.029,53.993 31.999,56.863"/></g><g><linearGradient id="Pyoui73UvHf3pHn9pd07Tq" x1="46.97" x2="46.97" y1="51.123" y2="39.646" gradientUnits="userSpaceOnUse"><stop offset="0" stop-color="#ff9757"/><stop offset="1" stop-color="#ffb65b"/><stop offset="1" stop-color="#ffb65b"/></linearGradient><polygon fill="url(#Pyoui73UvHf3pHn9pd07Tq)" points="42,45.385 42,39.646 46.97,42.515 51.94,45.385 46.97,48.254 42,51.123"/></g><g><linearGradient id="Pyoui73UvHf3pHn9pd07Tr" x1="37.03" x2="37.03" y1="51.123" y2="39.646" gradientUnits="userSpaceOnUse"><stop offset="0" stop-color="#ff634d"/><stop offset=".204" stop-color="#fe6464"/><stop offset=".521" stop-color="#fc6581"/><stop offset=".794" stop-color="#fa6694"/><stop offset=".989" stop-color="#fa669a"/><stop offset="1" stop-color="#fa669a"/></linearGradient><polygon fill="url(#Pyoui73UvHf3pHn9pd07Tr)" points="42,45.385 42,51.123 37.029,48.254 32.059,45.385 37.029,42.515 42,39.646"/></g><g><linearGradient id="Pyoui73UvHf3pHn9pd07Ts" x1="36.97" x2="36.97" y1="56.863" y2="45.385" gradientUnits="userSpaceOnUse"><stop offset="0" stop-color="#ff9757"/><stop offset="1" stop-color="#ffb65b"/><stop offset="1" stop-color="#ffb65b"/></linearGradient><polygon fill="url(#Pyoui73UvHf3pHn9pd07Ts)" points="31.999,51.123 31.999,45.385 36.969,48.254 41.94,51.123 36.969,53.993 31.999,56.863"/></g></svg>