<svg xmlns="http://www.w3.org/2000/svg"  viewBox="0 0 64 64" width="50px" height="50px"><radialGradient id="sx8mMAhiZUshbzv3tx12Ca" cx="32.5" cy="8057.5" r="30.516" gradientTransform="translate(0 -8026)" gradientUnits="userSpaceOnUse"><stop offset="0" stop-color="#afeeff"/><stop offset=".193" stop-color="#bbf1ff"/><stop offset=".703" stop-color="#d7f8ff"/><stop offset="1" stop-color="#e1faff"/></radialGradient><path fill="url(#sx8mMAhiZUshbzv3tx12Ca)" d="M59,20h1.5c2.168,0,3.892-1.998,3.422-4.243C63.58,14.122,62.056,13,60.385,13H53	c-1.105,0-2-0.895-2-2s0.895-2,2-2h3.385c1.67,0,3.195-1.122,3.537-2.757C60.392,3.998,58.668,2,56.5,2H34.006H32.5h-24	C6.575,2,5,3.575,5,5.5S6.575,9,8.5,9H10c1.105,0,2,0.895,2,2s-0.895,2-2,2H4.615c-1.67,0-3.195,1.122-3.537,2.757	C0.608,18.002,2.332,20,4.5,20H18v12H4.615c-1.67,0-3.195,1.122-3.537,2.757C0.608,37.002,2.332,39,4.5,39H5c1.105,0,2,0.895,2,2	s-0.895,2-2,2H4.5c-2.168,0-3.892,1.998-3.422,4.243C1.42,48.878,2.945,50,4.615,50H10c1.105,0,2,0.895,2,2s-0.895,2-2,2H8.615	c-1.67,0-3.195,1.122-3.537,2.757C4.608,59.002,6.332,61,8.5,61h22.494H32.5h23c1.925,0,3.5-1.575,3.5-3.5S57.425,54,55.5,54H55	c-1.105,0-2-0.895-2-2s0.895-2,2-2h4.385c1.67,0,3.195-1.122,3.537-2.757C63.392,44.998,61.668,43,59.5,43H47V31h12.385	c1.67,0,3.195-1.122,3.537-2.757C63.392,25.998,61.668,24,59.5,24H59c-1.105,0-2-0.895-2-2S57.895,20,59,20z"/><linearGradient id="sx8mMAhiZUshbzv3tx12Cb" x1="32" x2="32" y1="8090.025" y2="8040.025" gradientTransform="translate(0 -8026)" gradientUnits="userSpaceOnUse"><stop offset="0" stop-color="#155cde"/><stop offset=".278" stop-color="#1f7fe5"/><stop offset=".569" stop-color="#279ceb"/><stop offset=".82" stop-color="#2cafef"/><stop offset="1" stop-color="#2eb5f0"/></linearGradient><path fill="url(#sx8mMAhiZUshbzv3tx12Cb)" d="M57,31c0,13.805-11.195,25-25,25S7,44.805,7,31S18.195,6,32,6S57,17.195,57,31z"/><path fill="#fff" d="M33.995,29.374l-11.364-8.182c-0.563-0.282-1.233-0.252-1.769,0.08	C20.326,21.603,20,22.188,20,22.818v16.364c0,0.63,0.326,1.215,0.862,1.546C21.155,40.909,21.486,41,21.818,41	c0.278,0,0.556-0.064,0.814-0.192l11.364-8.182C34.611,32.318,35,31.688,35,31S34.611,29.682,33.995,29.374z"/><path fill="#fff" d="M46.995,29.374l-11.364-8.182c-0.563-0.282-1.233-0.252-1.769,0.08	C33.326,21.603,33,22.188,33,22.818v16.364c0,0.63,0.326,1.215,0.862,1.546C34.155,40.909,34.486,41,34.818,41	c0.278,0,0.556-0.064,0.814-0.192l11.364-8.182C47.611,32.318,48,31.688,48,31S47.611,29.682,46.995,29.374z"/></svg>