<svg xmlns="http://www.w3.org/2000/svg"  viewBox="0 0 64 64" width="50px" height="50px"><radialGradient id="kHD_HmCdjKPaPjF2ISBoPa" cx="31.873" cy="8061.707" r="51.157" gradientTransform="translate(0 -8026)" gradientUnits="userSpaceOnUse"><stop offset="0" stop-color="#f4e9c3"/><stop offset=".219" stop-color="#f8eecd"/><stop offset=".644" stop-color="#fdf4dc"/><stop offset="1" stop-color="#fff6e1"/></radialGradient><path fill="url(#kHD_HmCdjKPaPjF2ISBoPa)" d="M60.5,39L60.5,39c1.925,0,3.5-1.575,3.5-3.5S62.425,32,60.5,32H54c-1.1,0-2-0.9-2-2s0.9-4,2-4	h5.5c1.925,0,3.5-1.575,3.5-3.5S61.425,19,59.5,19H59c-1.105,0-2-0.895-2-2s0.895-2,2-2h2c1.848,0,3.319-1.693,2.94-3.605	C63.657,9.972,62.32,9,60.869,9H53c-0.828,0-1.5-0.672-1.5-1.5S52.172,6,53,6h3.412c1.139,0,2.202-0.721,2.497-1.821	C59.355,2.516,58.096,1,56.5,1H34h-1.5h-24C6.575,1,5,2.575,5,4.5S6.575,8,8.5,8H10c1.105,0,2,0.895,2,2s-0.895,2-2,2H4.615	c-1.67,0-3.195,1.122-3.537,2.757C0.608,17.002,2.332,19,4.5,19H12L9,33H3.615c-1.67,0-3.195,1.122-3.537,2.757	C-0.392,38.002,1.332,40,3.5,40H4c1.105,0,2,0.895,2,2s-0.895,2-2,2H3.5c-2.168,0-3.892,1.998-3.422,4.243	C0.42,49.878,1.945,51,3.615,51H7c1.105,0,2,0.895,2,2s-0.895,2-2,2H6.615c-1.67,0-3.195,1.122-3.537,2.757	C2.608,60.002,4.332,62,6.5,62h24.494H32.5H34h24c1.657,0,3-1.343,3-3s-1.343-3-3-3h-0.5c-1.381,0-2.5-1.119-2.5-2.5	s1.119-2.5,2.5-2.5h3c1.925,0,3.5-1.575,3.5-3.5S62.425,44,60.5,44c-1.375,0-2.5-1.125-2.5-2.5S59.125,39,60.5,39z"/><radialGradient id="kHD_HmCdjKPaPjF2ISBoPb" cx="32.5" cy="33" r="22" gradientTransform="matrix(1 0 0 -1 -.5 66)" gradientUnits="userSpaceOnUse"><stop offset="0" stop-color="#e7faff"/><stop offset=".273" stop-color="#ecfbff"/><stop offset="1" stop-color="#f6feff"/></radialGradient><circle cx="32" cy="33" r="22" fill="url(#kHD_HmCdjKPaPjF2ISBoPb)"/><linearGradient id="kHD_HmCdjKPaPjF2ISBoPc" x1="24" x2="24" y1="41.07" y2="21.373" gradientTransform="matrix(1 0 0 -1 0 66)" gradientUnits="userSpaceOnUse"><stop offset="0" stop-color="#959595"/><stop offset="1" stop-color="#6f6f6f"/></linearGradient><path fill="url(#kHD_HmCdjKPaPjF2ISBoPc)" d="M20.767,27.169l4.274-2.845C25.325,24.139,25.698,24,26.071,24C27.145,24,28,24.925,28,26.036	v13.696c0,1.157-0.899,2.106-1.995,2.106c-1.095,0-1.994-0.949-1.994-2.106V29.09l-1.512,0.994	c-0.241,0.163-0.548,0.255-0.855,0.255c-0.898,0-1.644-0.764-1.644-1.711C20,28.026,20.329,27.47,20.767,27.169z"/><linearGradient id="kHD_HmCdjKPaPjF2ISBoPd" x1="37.499" x2="37.499" y1="41.07" y2="21.373" gradientTransform="matrix(1 0 0 -1 0 66)" gradientUnits="userSpaceOnUse"><stop offset="0" stop-color="#959595"/><stop offset="1" stop-color="#6f6f6f"/></linearGradient><path fill="url(#kHD_HmCdjKPaPjF2ISBoPd)" d="M33.01,36.425c1.797,0,1.773,2.382,4.089,2.382c1.631,0,2.623-1.041,2.623-2.8	c0-1.596-0.968-2.568-2.481-2.568c-1.458,0-2.084,0.879-3.31,0.879c-1.394,0-2.529-1.018-2.529-2.475	c0-0.162,0.023-0.347,0.047-0.486l1.063-5.414c0.228-1.158,0.97-1.758,2.175-1.758h6.807c1.017,0,1.845,0.81,1.845,1.828	c0,0.994-0.827,1.804-1.845,1.804H35.75l-0.685,3.61h0.047c0.945-0.81,1.915-1.064,3.262-1.064c3.309,0,5.624,1.943,5.624,5.575	C44,39.617,41.211,42,37.216,42c-3.026,0-4.892-0.972-5.909-2.499C31.095,39.178,31,38.807,31,38.39	C31,37.303,31.898,36.425,33.01,36.425z"/><linearGradient id="kHD_HmCdjKPaPjF2ISBoPe" x1="-1.5" x2="-1.5" y1="60.532" y2="-4.22" gradientTransform="rotate(180 15.5 33)" gradientUnits="userSpaceOnUse"><stop offset="0" stop-color="#42d778"/><stop offset=".996" stop-color="#34b171"/></linearGradient><path fill="url(#kHD_HmCdjKPaPjF2ISBoPe)" d="M16.381,14.529c1.054-0.894,2.629-0.766,3.524,0.286c0.894,1.053,0.766,2.63-0.286,3.524	C16.773,20.758,12,25.942,12,33.5C12,44.612,21.617,54,33,54c11.028,0,20-9.196,20-20.5c0-7.709-4.402-14.651-11-18.137v1.762	c0,0.733-0.414,1.397-1.058,1.704C40.698,18.944,40.439,19,40.182,19c-0.426,0-0.847-0.155-1.183-0.451L34,14.13v2.995	c0,0.733-0.414,1.397-1.058,1.704C32.698,18.944,32.439,19,32.182,19c-0.426,0-0.847-0.155-1.183-0.451l-6.364-5.625	C24.232,12.567,24,12.047,24,11.499s0.232-1.068,0.635-1.424l6.364-5.625c0.54-0.475,1.296-0.583,1.943-0.28	C33.586,4.477,34,5.141,34,5.874v2.995l4.998-4.419c0.54-0.475,1.296-0.583,1.943-0.28C41.586,4.477,42,5.141,42,5.874v3.973	C51.483,13.686,58,23.03,58,33.5C58,47.561,46.785,59,33,59C18.906,59,7,47.322,7,33.5C7,26.408,10.332,19.671,16.381,14.529z"/></svg>