<svg xmlns="http://www.w3.org/2000/svg"  viewBox="0 0 64 64" width="50px" height="50px"><path fill="#fbf0cf" d="M59,37L59,37c1.657,0,3-1.343,3-3l0,0c0-1.657-1.343-3-3-3H42v-6h18c2.335,0,4.22-2.028,3.979-4.41	c-0.21-2.075-2.082-3.59-4.168-3.59H53.5c-1.381,0-2.5-1.119-2.5-2.5l0,0c0-1.381,1.119-2.5,2.5-2.5H57c1.657,0,3-1.343,3-3l0,0	c0-1.657-1.343-3-3-3H46c-1.105,0-25.785,0-27,0H6.189C4.103,6,2.231,7.514,2.021,9.59C1.78,11.972,3.665,14,6,14h2.302	c1.733,0,3.348,1.166,3.644,2.873C12.329,19.083,10.638,21,8.5,21H4.189c-2.086,0-3.958,1.514-4.168,3.59	C-0.22,26.972,1.665,29,4,29h18v13H3c-1.657,0-3,1.343-3,3l0,0c0,1.657,1.343,3,3,3h3l0,0c1.215,0,2.176,1.083,1.973,2.336	C7.813,51.319,6.889,52,5.893,52H4.189c-2.086,0-3.958,1.514-4.168,3.59C-0.22,57.972,1.665,60,4,60h56c2.209,0,4-1.791,4-4l0,0	c0-2.209-1.791-4-4.001-4h-1.896c-0.809-0.021-1.608-0.396-1.923-1.141C55.564,49.401,56.618,48,58,48h2.385	c1.67,0,3.195-1.122,3.537-2.757C64.392,42.998,62.668,41,60.5,41H59c-1.105,0-2-0.895-2-2l0,0C57,37.895,57.895,37,59,37z"/><linearGradient id="Gm63NwV55pQBZOYte1rVpa" x1="32" x2="32" y1="3202.127" y2="3254.74" gradientTransform="translate(0 -3206)" gradientUnits="userSpaceOnUse"><stop offset="0" stop-color="#a4a4a4"/><stop offset=".619" stop-color="gray"/><stop offset="1" stop-color="#6f6f6f"/></linearGradient><path fill="url(#Gm63NwV55pQBZOYte1rVpa)" d="M55,40H9V13c0-1.657,1.343-3,3-3h40c1.657,0,3,1.343,3,3V40z"/><linearGradient id="Gm63NwV55pQBZOYte1rVpb" x1="32" x2="32" y1="30" y2="58.202" gradientTransform="matrix(1 0 0 -1 0 66)" gradientUnits="userSpaceOnUse"><stop offset="0" stop-color="#dff9ff"/><stop offset="0" stop-color="#dff9ff"/><stop offset=".173" stop-color="#d8f8ff"/><stop offset=".423" stop-color="#c5f4ff"/><stop offset=".72" stop-color="#a5eeff"/><stop offset="1" stop-color="#81e7ff"/></linearGradient><path fill="url(#Gm63NwV55pQBZOYte1rVpb)" d="M51,15v20c0,0.55-0.45,1-1,1H14c-0.55,0-1-0.45-1-1V15c0-0.55,0.45-1,1-1h36	C50.55,14,51,14.45,51,15z"/><linearGradient id="Gm63NwV55pQBZOYte1rVpc" x1="32" x2="32" y1="3258.743" y2="3216.3" gradientTransform="translate(0 -3206)" gradientUnits="userSpaceOnUse"><stop offset="0" stop-color="#a4a4a4"/><stop offset=".619" stop-color="gray"/><stop offset="1" stop-color="#6f6f6f"/><stop offset="1" stop-color="#6f6f6f"/></linearGradient><path fill="url(#Gm63NwV55pQBZOYte1rVpc)" d="M9,40L1.89,51.554C1.308,52.499,1,53.588,1,54.698V55h62v-0.302	c0-1.11-0.308-2.199-0.89-3.145L55,40H9z"/><linearGradient id="Gm63NwV55pQBZOYte1rVpd" x1="32" x2="32" y1="3254.72" y2="3263.089" gradientTransform="translate(0 -3206)" gradientUnits="userSpaceOnUse"><stop offset="0" stop-color="#a4a4a4"/><stop offset=".619" stop-color="gray"/><stop offset="1" stop-color="#6f6f6f"/></linearGradient><path fill="url(#Gm63NwV55pQBZOYte1rVpd)" d="M61,57H3c-1.1,0-2-0.9-2-2l0,0c0-1.1,0.9-2,2-2h58c1.1,0,2,0.9,2,2l0,0C63,56.1,62.1,57,61,57	z"/><path fill="#bcbcbc" d="M43,53H21l4.31-7h13.38L43,53z"/><linearGradient id="Gm63NwV55pQBZOYte1rVpe" x1="32" x2="32" y1="3234.669" y2="3251.165" gradientTransform="translate(0 -3206)" gradientUnits="userSpaceOnUse"><stop offset="0" stop-color="#a4a4a4"/><stop offset=".63" stop-color="#7f7f7f"/><stop offset="1" stop-color="#6f6f6f"/><stop offset="1" stop-color="#6f6f6f"/></linearGradient><path fill="url(#Gm63NwV55pQBZOYte1rVpe)" d="M54.711,50H9.289c-1,0-1.613-1.097-1.089-1.949l2.735-4.443C11.168,43.23,11.58,43,12.024,43	h39.951c0.444,0,0.856,0.23,1.089,0.608l2.735,4.443C56.324,48.903,55.712,50,54.711,50z"/><path fill="#9e9e9e" d="M35,21L35,21c0-1.1,0.9-2,2-2l0,0c1.1,0,2,0.9,2,2l0,0c0,1.1-0.9,2-2,2l0,0C35.9,23,35,22.1,35,21z M25,21L25,21c0-1.1,0.9-2,2-2l0,0c1.1,0,2,0.9,2,2l0,0c0,1.1-0.9,2-2,2l0,0C25.9,23,25,22.1,25,21z"/><path fill="#9e9e9e" d="M37,30c-0.389,0-0.777-0.15-1.071-0.45C35.675,29.291,34.292,28,32,28c-0.002,0-0.004,0-0.006,0	c-2.29,0.002-3.669,1.292-3.923,1.55c-0.579,0.592-1.53,0.602-2.121,0.021s-0.601-1.53-0.021-2.121	c0.563-0.574,2.663-2.447,6.062-2.45c0.003,0,0.006,0,0.009,0c3.404,0,5.507,1.875,6.071,2.45c0.58,0.591,0.57,1.541-0.021,2.121	C37.758,29.857,37.379,30,37,30z"/><path fill="#82e7ff" d="M23.5,31H18v-2h2.5c0.83,0,1.5-0.67,1.5-1.5S21.33,26,20.5,26H18v-2.5c0-0.828-0.672-1.5-1.5-1.5	S15,22.672,15,23.5v4v1V31h-2v3h10.5c0.83,0,1.5-0.67,1.5-1.5C25,31.67,24.33,31,23.5,31z"/><path fill="#82e7ff" d="M48,22v4.5c0,0.828-0.672,1.5-1.5,1.5H46v2.5c0,0.828-0.672,1.5-1.5,1.5S43,31.328,43,30.5V28h-0.5	c-0.828,0-1.5-0.672-1.5-1.5s0.672-1.5,1.5-1.5H45v-7.5c0-0.828,0.672-1.5,1.5-1.5s1.5,0.672,1.5,1.5V19h3v3H48z"/></svg>