<svg xmlns="http://www.w3.org/2000/svg"  viewBox="0 0 48 48" width="50px" height="50px"><path fill="#d6a121" d="M27.81,25.81c0,1.445-1.524,3.048-3.81,3.048s-3.81-1.602-3.81-3.048c0-2.009,0-5.36,0-5.36h7.619	C27.81,20.449,27.81,23.8,27.81,25.81z"/><linearGradient id="Qbnjtfy5ePsx~AtApsqEGa" x1="30.794" x2="31.81" y1="18.429" y2="18.429" gradientUnits="userSpaceOnUse"><stop offset="0" stop-color="#c48f0c"/><stop offset=".251" stop-color="#d19b16"/><stop offset=".619" stop-color="#dca51f"/><stop offset="1" stop-color="#e0a922"/></linearGradient><path fill="url(#Qbnjtfy5ePsx~AtApsqEGa)" d="M30.793,16.905h-0.402v3.048h0.536c0.392,0,0.727-0.238,0.793-0.564l0.262-1.298	C32.108,17.471,31.541,16.905,30.793,16.905z"/><linearGradient id="Qbnjtfy5ePsx~AtApsqEGb" x1="-345.206" x2="-344.19" y1="18.429" y2="18.429" gradientTransform="matrix(-1 0 0 1 -328 0)" gradientUnits="userSpaceOnUse"><stop offset="0" stop-color="#c48f0c"/><stop offset=".251" stop-color="#d19b16"/><stop offset=".619" stop-color="#dca51f"/><stop offset="1" stop-color="#e0a922"/></linearGradient><path fill="url(#Qbnjtfy5ePsx~AtApsqEGb)" d="M17.207,16.905h0.402v3.048h-0.536c-0.392,0-0.727-0.238-0.793-0.564l-0.262-1.298	C15.892,17.471,16.459,16.905,17.207,16.905z"/><radialGradient id="Qbnjtfy5ePsx~AtApsqEGc" cx="5.741" cy="24.284" r="9.313" gradientTransform="translate(18.939 -4.971) scale(.8816)" gradientUnits="userSpaceOnUse"><stop offset="0" stop-color="#ffcf54"/><stop offset=".261" stop-color="#fdcb4d"/><stop offset=".639" stop-color="#f7c13a"/><stop offset="1" stop-color="#f0b421"/></radialGradient><path fill="url(#Qbnjtfy5ePsx~AtApsqEGc)" d="M24,7.067c-3.384,0-6.857,0.514-6.857,7.829c0,0.586,0,4.478,0,5.103	c0,2.611,4.114,5.811,6.857,5.811s6.857-3.2,6.857-5.811c0-0.625,0-4.518,0-5.103C30.857,7.581,27.384,7.067,24,7.067z"/><radialGradient id="Qbnjtfy5ePsx~AtApsqEGd" cx="-1.652" cy="13.882" r="22.031" gradientTransform="translate(18.939 -4.971) scale(.8816)" gradientUnits="userSpaceOnUse"><stop offset="0" stop-color="#c26715"/><stop offset=".508" stop-color="#b85515"/><stop offset="1" stop-color="#ad3f16"/></radialGradient><path fill="url(#Qbnjtfy5ePsx~AtApsqEGd)" d="M24,6.416c-3.317,0-3.81,1.247-3.81,1.247c-1.349,0.199-3.81,2.175-3.81,4.433	c0,1.26,0.202,2.191,0.762,5.333c0.416-4.987,1.713-6.857,3.048-6.857c0.965,0,1.732,0.762,3.81,0.762	c1.754,0,2.19-0.762,3.81-0.762c2.286,0,3.048,6.071,3.048,6.857c0.458-2.294,0.762-4.232,0.762-5.333	C31.619,9.482,28.731,6.416,24,6.416z"/><radialGradient id="Qbnjtfy5ePsx~AtApsqEGe" cx="-2.959" cy="15.357" r="25.446" gradientTransform="matrix(.8431 0 0 .8816 25.402 -4.971)" gradientUnits="userSpaceOnUse"><stop offset="0" stop-color="#c26715"/><stop offset=".508" stop-color="#b85515"/><stop offset="1" stop-color="#ad3f16"/></radialGradient><path fill="url(#Qbnjtfy5ePsx~AtApsqEGe)" d="M24.167,6c-3.172,0-3.974,1.662-3.974,1.662C20.16,8.546,20.59,9.325,20.59,9.325	s0.58,1.247,3.886,1.247c1.996,0,4.857-1.245,4.857-4.571C29.333,6,28.691,6,24.167,6z"/><path fill="#0078d4" d="M41.946,21.071c0.029-0.588-0.45-1.071-1.038-1.051C34.864,20.227,26,22,26,22h-1v20h1	c0,0,8.887-1.777,14.095-1.981c0.516-0.02,0.926-0.431,0.952-0.947L41.946,21.071z"/><linearGradient id="Qbnjtfy5ePsx~AtApsqEGf" x1="39.076" x2="41.285" y1="29.78" y2="36.477" gradientUnits="userSpaceOnUse"><stop offset="0" stop-color="#ffcf54"/><stop offset=".261" stop-color="#fdcb4d"/><stop offset=".639" stop-color="#f7c13a"/><stop offset="1" stop-color="#f0b421"/></linearGradient><path fill="url(#Qbnjtfy5ePsx~AtApsqEGf)" d="M40,36h1c0.552,0,1-0.448,1-1v-4c0-0.552-0.448-1-1-1h-1c-1.105,0-2,0.895-2,2v2	C38,35.105,38.895,36,40,36z"/><path fill="#0078d4" d="M6.054,21.071C6.024,20.483,6.503,20,7.091,20.02C13.136,20.227,22,22,22,22h1v20h-1	c0,0-8.887-1.777-14.095-1.981c-0.516-0.02-0.926-0.431-0.952-0.947L6.054,21.071z"/><linearGradient id="Qbnjtfy5ePsx~AtApsqEGg" x1="58.076" x2="60.285" y1="29.78" y2="36.477" gradientTransform="matrix(-1 0 0 1 67 0)" gradientUnits="userSpaceOnUse"><stop offset="0" stop-color="#ffcf54"/><stop offset=".261" stop-color="#fdcb4d"/><stop offset=".639" stop-color="#f7c13a"/><stop offset="1" stop-color="#f0b421"/></linearGradient><path fill="url(#Qbnjtfy5ePsx~AtApsqEGg)" d="M10,34v-2c0-1.105-0.895-2-2-2H7c-0.552,0-1,0.448-1,1v4c0,0.552,0.448,1,1,1h1	C9.105,36,10,35.105,10,34z"/><path fill="#199be2" d="M25,42h-2c-0.552,0-1-0.448-1-1V23c0-0.552,0.448-1,1-1h2c0.552,0,1,0.448,1,1v18	C26,41.552,25.552,42,25,42z"/></svg>