<svg xmlns="http://www.w3.org/2000/svg"  viewBox="0 0 64 64" width="50px" height="50px"><radialGradient id="ycuaXdUFNZAlqc4Vp4unOa" cx="32" cy="32.5" r="30.775" gradientUnits="userSpaceOnUse" spreadMethod="reflect"><stop offset="0" stop-color="#aaedff"/><stop offset=".331" stop-color="#c1f2ff"/><stop offset=".738" stop-color="#d7f7ff"/><stop offset="1" stop-color="#dff9ff"/></radialGradient><path fill="url(#ycuaXdUFNZAlqc4Vp4unOa)" d="M5.5,62L5.5,62C3.015,62,1,59.985,1,57.5v0C1,55.015,3.015,53,5.5,53h0 c2.485,0,4.5,2.015,4.5,4.5v0C10,59.985,7.985,62,5.5,62z M64,25L64,25c0-2.761-2.239-5-5-5h-5c-2.761,0-5-2.238-5-5v0 c0-2.762,2.238-5,5-5h0.565C56.48,10,58,8.48,58,6.605L58,6.5C58,4.567,56.433,3,54.5,3h-44C8.574,3,7.01,4.556,7,6.483L7,6.5 C6.99,8.43,8.553,10,10.483,10H11c2.209,0,4,1.791,4,4v0c0,2.209-1.791,4-4,4H5c-2.761,0-5,2.239-5,5v0c0,2.761,2.239,5,5,5h1 c2.209,0,4,1.791,4,4v0c0,2.209-1.791,4-4,4H5.5C2.462,36,0,38.462,0,41.5v0C0,44.538,2.462,47,5.5,47H19c1.657,0,3,1.343,3,3v0 c0,1.657-1.343,3-3,3h-1.5c-2.485,0-4.5,2.015-4.5,4.5v0c0,2.485,2.015,4.5,4.5,4.5H33h22c2.209,0,4-1.791,4-4v0 c0-2.209-1.791-4-4-4h-6.5c-1.933,0-3.5-1.567-3.5-3.5v0c0-1.933,1.567-3.5,3.5-3.5H60c2.209,0,4-1.791,4-4v0c0-2.209-1.791-4-4-4 h-1.5c-2.485,0-4.5-2.015-4.5-4.5v0c0-2.485,2.015-4.5,4.5-4.5H59C61.761,30,64,27.761,64,25z"/><linearGradient id="ycuaXdUFNZAlqc4Vp4unOb" x1="21.5" x2="21.5" y1="8" y2="65.531" gradientUnits="userSpaceOnUse" spreadMethod="reflect"><stop offset="0" stop-color="#a4a4a4"/><stop offset=".63" stop-color="#7f7f7f"/><stop offset="1" stop-color="#6f6f6f"/></linearGradient><path fill="url(#ycuaXdUFNZAlqc4Vp4unOb)" d="M29,46H16V24h13c1.1,0,2-0.9,2-2c0-1.1-0.9-2-2-2H16V10c0-1.1-0.9-2-2-2s-2,0.9-2,2v38 c0,1.1,0.9,2,2,2h15c1.1,0,2-0.9,2-2C31,46.9,30.1,46,29,46z"/><linearGradient id="ycuaXdUFNZAlqc4Vp4unOc" x1="39" x2="39" y1="25.113" y2="2.113" gradientUnits="userSpaceOnUse" spreadMethod="reflect"><stop offset="0" stop-color="#ff8b67"/><stop offset=".847" stop-color="#ffa76a"/><stop offset="1" stop-color="#ffad6b"/><stop offset="1" stop-color="#ffad6b"/></linearGradient><path fill="url(#ycuaXdUFNZAlqc4Vp4unOc)" d="M36,10L36,10c0-1.105-0.895-2-2-2h-6c-1.105,0-2,0.895-2,2v17c0,2.209,1.791,4,4,4h18 c2.209,0,4-1.791,4-4V16c0-2.209-1.791-4-4-4H38C36.895,12,36,11.105,36,10z"/><linearGradient id="ycuaXdUFNZAlqc4Vp4unOd" x1="39" x2="39" y1="31" y2="12" gradientUnits="userSpaceOnUse" spreadMethod="reflect"><stop offset="0" stop-color="#ffc050"/><stop offset=".004" stop-color="#ffc050"/><stop offset=".641" stop-color="#ffbe75"/><stop offset="1" stop-color="#ffbd85"/><stop offset="1" stop-color="#ffbd85"/></linearGradient><path fill="url(#ycuaXdUFNZAlqc4Vp4unOd)" d="M30,12h18c2.209,0,4,1.791,4,4v11c0,2.209-1.791,4-4,4H30c-2.209,0-4-1.791-4-4V16 C26,13.791,27.791,12,30,12z"/><linearGradient id="ycuaXdUFNZAlqc4Vp4unOe" x1="39" x2="39" y1="51.113" y2="28.113" gradientUnits="userSpaceOnUse" spreadMethod="reflect"><stop offset="0" stop-color="#ff8b67"/><stop offset=".847" stop-color="#ffa76a"/><stop offset="1" stop-color="#ffad6b"/><stop offset="1" stop-color="#ffad6b"/></linearGradient><path fill="url(#ycuaXdUFNZAlqc4Vp4unOe)" d="M36,36L36,36c0-1.105-0.895-2-2-2h-6c-1.105,0-2,0.895-2,2v17c0,2.209,1.791,4,4,4h18 c2.209,0,4-1.791,4-4V42c0-2.209-1.791-4-4-4H38C36.895,38,36,37.105,36,36z"/><linearGradient id="ycuaXdUFNZAlqc4Vp4unOf" x1="39" x2="39" y1="57" y2="38" gradientUnits="userSpaceOnUse" spreadMethod="reflect"><stop offset="0" stop-color="#ffc050"/><stop offset=".004" stop-color="#ffc050"/><stop offset=".641" stop-color="#ffbe75"/><stop offset="1" stop-color="#ffbd85"/><stop offset="1" stop-color="#ffbd85"/></linearGradient><path fill="url(#ycuaXdUFNZAlqc4Vp4unOf)" d="M30,38h18c2.209,0,4,1.791,4,4v11c0,2.209-1.791,4-4,4H30c-2.209,0-4-1.791-4-4V42 C26,39.791,27.791,38,30,38z"/><linearGradient id="ycuaXdUFNZAlqc4Vp4unOg" x1="44" x2="44" y1="31" y2="16" gradientUnits="userSpaceOnUse" spreadMethod="reflect"><stop offset="0" stop-color="#ffb25b"/><stop offset=".404" stop-color="#ffb362"/><stop offset=".972" stop-color="#ffb774"/><stop offset="1" stop-color="#ffb775"/></linearGradient><path fill="url(#ycuaXdUFNZAlqc4Vp4unOg)" d="M52,16v11c0,2.21-1.79,4-4,4h-9.5c-0.69,0-1.32-0.28-1.77-0.73C36.28,29.82,36,29.19,36,28.5 c0-1.38,1.12-2.5,2.5-2.5h5c0.69,0,1.32-0.28,1.77-0.73C45.72,24.82,46,24.19,46,23.5c0-1.38-1.12-2.5-2.5-2.5h-1 c-1.38,0-2.5-1.12-2.5-2.5s1.12-2.5,2.5-2.5H52z"/><linearGradient id="ycuaXdUFNZAlqc4Vp4unOh" x1="44" x2="44" y1="56.771" y2="43.008" gradientUnits="userSpaceOnUse" spreadMethod="reflect"><stop offset="0" stop-color="#ffb25b"/><stop offset=".404" stop-color="#ffb362"/><stop offset=".972" stop-color="#ffb774"/><stop offset="1" stop-color="#ffb775"/></linearGradient><path fill="url(#ycuaXdUFNZAlqc4Vp4unOh)" d="M52,42v11c0,2.21-1.79,4-4,4h-9.5c-0.69,0-1.32-0.28-1.77-0.73C36.28,55.82,36,55.19,36,54.5 c0-1.38,1.12-2.5,2.5-2.5h5c0.69,0,1.32-0.28,1.77-0.73C45.72,50.82,46,50.19,46,49.5c0-1.38-1.12-2.5-2.5-2.5h-1 c-1.38,0-2.5-1.12-2.5-2.5s1.12-2.5,2.5-2.5H52z"/></svg>