<svg xmlns="http://www.w3.org/2000/svg"  viewBox="0 0 64 64" width="50px" height="50px"><radialGradient id="lCeE4nvD944QGhktmBqO4a" cx="36.833" cy="35.917" r="26" gradientUnits="userSpaceOnUse" spreadMethod="reflect"><stop offset="0" stop-color="#afeeff"/><stop offset=".193" stop-color="#bbf1ff"/><stop offset=".703" stop-color="#d7f8ff"/><stop offset="1" stop-color="#e1faff"/></radialGradient><path fill="url(#lCeE4nvD944QGhktmBqO4a)" d="M10,8L10,8c2.209,0,4-1.791,4-4v0c0-2.209-1.791-4-4-4h0C7.791,0,6,1.791,6,4v0 C6,6.209,7.791,8,10,8z"/><radialGradient id="lCeE4nvD944QGhktmBqO4b" cx="31.417" cy="29.917" r="28.77" gradientUnits="userSpaceOnUse" spreadMethod="reflect"><stop offset="0" stop-color="#afeeff"/><stop offset=".193" stop-color="#bbf1ff"/><stop offset=".703" stop-color="#d7f8ff"/><stop offset="1" stop-color="#e1faff"/></radialGradient><path fill="url(#lCeE4nvD944QGhktmBqO4b)" d="M7.5,64L7.5,64c1.933,0,3.5-1.567,3.5-3.5v0c0-1.933-1.567-3.5-3.5-3.5h0 C5.567,57,4,58.567,4,60.5v0C4,62.433,5.567,64,7.5,64z"/><radialGradient id="lCeE4nvD944QGhktmBqO4c" cx="32.5" cy="32" r="30.775" gradientUnits="userSpaceOnUse" spreadMethod="reflect"><stop offset="0" stop-color="#afeeff"/><stop offset=".193" stop-color="#bbf1ff"/><stop offset=".703" stop-color="#d7f8ff"/><stop offset="1" stop-color="#e1faff"/></radialGradient><path fill="url(#lCeE4nvD944QGhktmBqO4c)" d="M62,20.5L62,20.5c0-2.485-2.015-4.5-4.5-4.5H44c-2.209,0-4-1.791-4-4v0c0-2.209,1.791-4,4-4 h2c2.209,0,4-1.791,4-4v0c0-2.209-1.791-4-4-4L22,0c-2.209,0-4,1.791-4,4v0c0,2.209,1.791,4,4,4h2c1.657,0,3,1.343,3,3v0 c0,1.657-1.343,3-3,3H10c-1.657,0-3,1.343-3,3v1c0,1.657,1.343,3,3,3h3c1.657,0,3,1.343,3,3v0c0,1.657-1.343,3-3,3H8 c-2.761,0-5,2.239-5,5v0c0,2.761,2.239,5,5,5h5.5c1.933,0,3.5,1.567,3.5,3.5v0c0,1.933-1.567,3.5-3.5,3.5H9c-2.209,0-4,1.791-4,4v0 c0,2.209,1.791,4,4,4h8.5c1.381,0,2.5,1.119,2.5,2.5v0c0,1.381-1.119,2.5-2.5,2.5h0c-1.933,0-3.5,1.567-3.5,3.5v0 c0,1.933,1.567,3.5,3.5,3.5h30c1.933,0,3.5-1.567,3.5-3.5v0c0-1.933-1.567-3.5-3.5-3.5H47c-1.105,0-2-0.895-2-2v0 c0-1.105,0.895-2,2-2h7c2.209,0,4-1.791,4-4v0c0-2.209-1.791-4-4-4h-7.5c-1.381,0-2.5-1.119-2.5-2.5v0c0-1.381,1.119-2.5,2.5-2.5 H47c2.209,0,4-1.791,4-4v0c0-2.209-1.791-4-4-4h-1.5c-1.933,0-3.5-1.567-3.5-3.5v0c0-1.933,1.567-3.5,3.5-3.5h12 C59.985,25,62,22.985,62,20.5z"/><radialGradient id="lCeE4nvD944QGhktmBqO4d" cx="35.917" cy="35.417" r="27.938" gradientUnits="userSpaceOnUse" spreadMethod="reflect"><stop offset="0" stop-color="#afeeff"/><stop offset=".193" stop-color="#bbf1ff"/><stop offset=".703" stop-color="#d7f8ff"/><stop offset="1" stop-color="#e1faff"/></radialGradient><path fill="url(#lCeE4nvD944QGhktmBqO4d)" d="M59,40L59,40c-2.209,0-4-1.791-4-4v0c0-2.209,1.791-4,4-4h0c2.209,0,4,1.791,4,4v0 C63,38.209,61.209,40,59,40z"/><linearGradient id="lCeE4nvD944QGhktmBqO4e" x1="32" x2="32" y1="6" y2="29" gradientUnits="userSpaceOnUse" spreadMethod="reflect"><stop offset="0" stop-color="#a4a4a4"/><stop offset=".63" stop-color="#7f7f7f"/><stop offset="1" stop-color="#6f6f6f"/><stop offset="1" stop-color="#6f6f6f"/></linearGradient><path fill="url(#lCeE4nvD944QGhktmBqO4e)" d="M32,6c-7.18,0-13,5.82-13,13v10h5V19c0-4.411,3.589-8,8-8s8,3.589,8,8v10h5V19 C45,11.82,39.18,6,32,6z"/><linearGradient id="lCeE4nvD944QGhktmBqO4f" x1="32" x2="32" y1="57" y2="25" gradientUnits="userSpaceOnUse" spreadMethod="reflect"><stop offset="0" stop-color="#ff9757"/><stop offset="1" stop-color="#ffb65b"/><stop offset="1" stop-color="#ffb65b"/></linearGradient><path fill="url(#lCeE4nvD944QGhktmBqO4f)" d="M49,57H15c-1.657,0-3-1.343-3-3V35c0-5.523,4.477-10,10-10h20c5.523,0,10,4.477,10,10v19 C52,55.657,50.657,57,49,57z"/><g><linearGradient id="lCeE4nvD944QGhktmBqO4g" x1="-1153.5" x2="-1153.5" y1="601.875" y2="615.944" gradientTransform="rotate(180 -558 320)" gradientUnits="userSpaceOnUse" spreadMethod="reflect"><stop offset="0" stop-color="#ffc050"/><stop offset=".004" stop-color="#ffc050"/><stop offset=".641" stop-color="#ffbe75"/><stop offset="1" stop-color="#ffbd85"/><stop offset="1" stop-color="#ffbd85"/></linearGradient><path fill="url(#lCeE4nvD944QGhktmBqO4g)" d="M37.5,25L37.5,25c1.381,0,2.5,1.119,2.5,2.5v0c0,1.381-1.119,2.5-2.5,2.5h0 c-1.381,0-2.5-1.119-2.5-2.5v0C35,26.119,36.119,25,37.5,25z"/><linearGradient id="lCeE4nvD944QGhktmBqO4h" x1="-1138.5" x2="-1138.5" y1="594.542" y2="617.208" gradientTransform="rotate(180 -558 320)" gradientUnits="userSpaceOnUse" spreadMethod="reflect"><stop offset="0" stop-color="#ffc050"/><stop offset=".004" stop-color="#ffc050"/><stop offset=".641" stop-color="#ffbe75"/><stop offset="1" stop-color="#ffbd85"/><stop offset="1" stop-color="#ffbd85"/></linearGradient><path fill="url(#lCeE4nvD944QGhktmBqO4h)" d="M12,35v4l8.357,0c1.308,0,2.499-0.941,2.63-2.242C23.137,35.261,21.966,34,20.5,34h-0.393 c-0.996,0-1.92-0.681-2.08-1.664C17.824,31.083,18.785,30,20,30l10.357,0c1.308,0,2.499-0.941,2.63-2.242 C33.137,26.261,31.966,25,30.5,25H22C16.477,25,12,29.477,12,35z"/></g><linearGradient id="lCeE4nvD944QGhktmBqO4i" x1="45" x2="45" y1="57" y2="32.367" gradientUnits="userSpaceOnUse" spreadMethod="reflect"><stop offset="0" stop-color="#ff8b67"/><stop offset=".847" stop-color="#ffa76a"/><stop offset="1" stop-color="#ffad6b"/><stop offset="1" stop-color="#ffad6b"/></linearGradient><path fill="url(#lCeE4nvD944QGhktmBqO4i)" d="M42,43L42,43c0,1.657,1.343,3,3,3h0.5c1.381,0,2.5,1.119,2.5,2.5v0c0,1.381-1.119,2.5-2.5,2.5 H41c-1.657,0-3,1.343-3,3v0c0,1.657,1.343,3,3,3h8c1.657,0,3-1.343,3-3V40h-7C43.343,40,42,41.343,42,43z"/><g><path fill="#f1fcff" d="M32 34A8 8 0 1 0 32 50A8 8 0 1 0 32 34Z"/><linearGradient id="lCeE4nvD944QGhktmBqO4j" x1="32" x2="32" y1="47.147" y2="34.849" gradientUnits="userSpaceOnUse" spreadMethod="reflect"><stop offset="0" stop-color="#155cde"/><stop offset=".379" stop-color="#2083e6"/><stop offset=".784" stop-color="#2aa7ed"/><stop offset="1" stop-color="#2eb5f0"/></linearGradient><path fill="url(#lCeE4nvD944QGhktmBqO4j)" d="M32 38A4 4 0 1 0 32 46A4 4 0 1 0 32 38Z"/><path fill="#fff" d="M34.5 38A1.5 1.5 0 1 0 34.5 41A1.5 1.5 0 1 0 34.5 38Z"/></g></svg>