<svg xmlns="http://www.w3.org/2000/svg"  viewBox="0 0 64 64" width="50px" height="50px"><radialGradient id="PnB5Qpw2Eg5QkDRvZwbica" cx="36.833" cy="35.917" r="26" gradientUnits="userSpaceOnUse" spreadMethod="reflect"><stop offset="0" stop-color="#f4e09d"/><stop offset=".226" stop-color="#f8e8b5"/><stop offset=".513" stop-color="#fcf0cd"/><stop offset=".778" stop-color="#fef4dc"/><stop offset="1" stop-color="#fff6e1"/></radialGradient><path fill="url(#PnB5Qpw2Eg5QkDRvZwbica)" d="M10,8L10,8c2.209,0,4-1.791,4-4v0c0-2.209-1.791-4-4-4h0C7.791,0,6,1.791,6,4v0 C6,6.209,7.791,8,10,8z"/><radialGradient id="PnB5Qpw2Eg5QkDRvZwbicb" cx="31.417" cy="29.917" r="28.77" gradientUnits="userSpaceOnUse" spreadMethod="reflect"><stop offset="0" stop-color="#f4e09d"/><stop offset=".226" stop-color="#f8e8b5"/><stop offset=".513" stop-color="#fcf0cd"/><stop offset=".778" stop-color="#fef4dc"/><stop offset="1" stop-color="#fff6e1"/></radialGradient><path fill="url(#PnB5Qpw2Eg5QkDRvZwbicb)" d="M7.5,64L7.5,64c1.933,0,3.5-1.567,3.5-3.5v0c0-1.933-1.567-3.5-3.5-3.5h0 C5.567,57,4,58.567,4,60.5v0C4,62.433,5.567,64,7.5,64z"/><radialGradient id="PnB5Qpw2Eg5QkDRvZwbicc" cx="32" cy="32" r="32" gradientUnits="userSpaceOnUse" spreadMethod="reflect"><stop offset="0" stop-color="#f4e09d"/><stop offset=".226" stop-color="#f8e8b5"/><stop offset=".513" stop-color="#fcf0cd"/><stop offset=".778" stop-color="#fef4dc"/><stop offset="1" stop-color="#fff6e1"/></radialGradient><path fill="url(#PnB5Qpw2Eg5QkDRvZwbicc)" d="M62,20.5L62,20.5c0-2.485-2.015-4.5-4.5-4.5H49c-2.209,0-4-1.791-4-4v0c0-2.209,1.791-4,4-4 h2c2.209,0,4-1.791,4-4v0c0-2.209-1.791-4-4-4L20,0c-2.209,0-4,1.791-4,4v0c0,2.209,1.791,4,4,4h2c1.657,0,3,1.343,3,3v0 c0,1.657-1.343,3-3,3H7.5C5.567,14,4,15.567,4,17.5v0C4,19.433,5.567,21,7.5,21H9c1.657,0,3,1.343,3,3v0c0,1.657-1.343,3-3,3H5 c-2.761,0-5,2.239-5,5v0c0,2.761,2.239,5,5,5h2.5c1.933,0,3.5,1.567,3.5,3.5v0c0,1.933-1.567,3.5-3.5,3.5H6c-2.209,0-4,1.791-4,4v0 c0,2.209,1.791,4,4,4h11.5c1.381,0,2.5,1.119,2.5,2.5v0c0,1.381-1.119,2.5-2.5,2.5h0c-1.933,0-3.5,1.567-3.5,3.5v0 c0,1.933,1.567,3.5,3.5,3.5h30c1.933,0,3.5-1.567,3.5-3.5v0c0-1.933-1.567-3.5-3.5-3.5H47c-1.105,0-2-0.895-2-2v0 c0-1.105,0.895-2,2-2h13c2.209,0,4-1.791,4-4v0c0-2.209-1.791-4-4-4h-3.5c-1.381,0-2.5-1.119-2.5-2.5v0c0-1.381,1.119-2.5,2.5-2.5 H57c2.209,0,4-1.791,4-4v0c0-2.209-1.791-4-4-4h-4.5c-1.933,0-3.5-1.567-3.5-3.5v0c0-1.933,1.567-3.5,3.5-3.5h5 C59.985,25,62,22.985,62,20.5z"/><linearGradient id="PnB5Qpw2Eg5QkDRvZwbicd" x1="35" x2="35" y1="6" y2="48.118" gradientUnits="userSpaceOnUse" spreadMethod="reflect"><stop offset="0" stop-color="#42d778"/><stop offset=".996" stop-color="#34b171"/><stop offset="1" stop-color="#34b171"/></linearGradient><path fill="url(#PnB5Qpw2Eg5QkDRvZwbicd)" d="M41,13c0,3.866-3.134,7-7,7s-7-3.134-7-7s3.134-7,7-7S41,9.134,41,13z M45,48h-5V32v-5 c0-1.657-1.343-3-3-3h-4h-8c-1.657,0-3,1.343-3,3v5c0,1.657,1.343,3,3,3h5v13h-5c-1.657,0-3,1.343-3,3v4c0,1.657,1.343,3,3,3h20 c1.657,0,3-1.343,3-3v-4C48,49.343,46.657,48,45,48z"/></svg>