<svg xmlns="http://www.w3.org/2000/svg"  viewBox="0 0 48 48" width="50px" height="50px"><linearGradient id="6ViF4OaJqhFoOY9VmhYxUa" x1="6.702" x2="39.085" y1="6.702" y2="39.085" gradientUnits="userSpaceOnUse"><stop offset="0" stop-color="#21ad64"/><stop offset="1" stop-color="#088242"/></linearGradient><path fill="url(#6ViF4OaJqhFoOY9VmhYxUa)" d="M40,42H8c-1.105,0-2-0.895-2-2V8c0-1.105,0.895-2,2-2h32c1.105,0,2,0.895,2,2v32	C42,41.105,41.105,42,40,42z"/><circle cx="24" cy="6.138" r="4.829" fill="#fff"/><path d="M24.001,38.52c-0.668,0-1.296-0.26-1.768-0.732l-6.701-6.701c-0.519-0.519-0.673-1.292-0.392-1.97	C15.42,28.438,16.076,28,16.81,28H20V17c0-1.103,0.897-2,2-2h4c1.103,0,2,0.897,2,2v11h3.19c0.734,0,1.39,0.438,1.671,1.116	c0.281,0.678,0.127,1.451-0.392,1.97l-6.701,6.701C25.297,38.259,24.669,38.52,24.001,38.52z" opacity=".05"/><path d="M24.001,38.02c-0.535,0-1.037-0.208-1.415-0.586l-6.701-6.701c-0.375-0.375-0.487-0.935-0.284-1.425	c0.203-0.49,0.678-0.807,1.208-0.807h3.69V17c0-0.827,0.673-1.5,1.5-1.5h4c0.827,0,1.5,0.673,1.5,1.5v11.5h3.69	c0.531,0,1.006,0.317,1.209,0.808c0.203,0.49,0.092,1.05-0.283,1.425l-6.701,6.701C25.038,37.812,24.535,38.02,24.001,38.02z" opacity=".07"/><path fill="#fff" d="M31.19,29H27V17c0-0.552-0.448-1-1-1h-4c-0.552,0-1,0.448-1,1v12h-4.19	c-0.72,0-1.08,0.87-0.571,1.379l6.701,6.701c0.586,0.586,1.536,0.586,2.121,0l6.701-6.701C32.271,29.87,31.91,29,31.19,29z"/></svg>