<svg xmlns="http://www.w3.org/2000/svg"  viewBox="0 0 64 64" width="50px" height="50px"><radialGradient id="axpys0VHuFVENHY~2g7r0a" cx="113.327" cy="373.275" r="813.545" gradientUnits="userSpaceOnUse" spreadMethod="reflect"><stop offset="0" stop-color="#afeeff"/><stop offset=".193" stop-color="#bbf1ff"/><stop offset=".703" stop-color="#d7f8ff"/><stop offset="1" stop-color="#e1faff"/></radialGradient><path fill="url(#axpys0VHuFVENHY~2g7r0a)" d="M21,2.5C21,1.119,22.119,0,23.5,0S26,1.119,26,2.5C26,3.881,24.881,5,23.5,5S21,3.881,21,2.5z M62.94,10.395C62.657,8.972,61.32,8,59.869,8H54.5C53.672,8,53,7.328,53,6.5S53.672,5,54.5,5h1.912 c1.139,0,2.202-0.721,2.497-1.821C59.355,1.516,58.096,0,56.5,0H30.588c-1.138,0-2.202,0.721-2.497,1.821 C27.645,3.484,28.904,5,30.5,5h2C33.881,5,35,6.119,35,7.5c0,1.381-1.119,2.5-2.5,2.5h-9.912c-1.138,0-2.202,0.721-2.497,1.821 C19.645,13.484,20.904,15,22.5,15h3c0.828,0,1.5,0.672,1.5,1.5S26.328,18,25.5,18h-1.912c-1.139,0-2.202,0.721-2.497,1.821 C20.645,21.484,21.904,23,23.5,23h-6.91c-1.14,0-2.2,0.72-2.5,1.82c-0.221,0.816-0.026,1.596,0.416,2.18h-1.919 c-1.139,0-2.202,0.721-2.497,1.821C9.645,30.484,10.904,32,12.5,32h7.988c-0.457,0.604-1.174,1-1.988,1H8.59 c-1.14,0-2.2,0.72-2.5,1.82C5.64,36.48,6.9,38,8.5,38h3c0.83,0,1.5,0.67,1.5,1.5c0,0.83-0.67,1.5-1.5,1.5H9.59 c-1.14,0-2.2,0.72-2.5,1.82C6.64,44.48,7.9,46,9.5,46H14c1.1,0,2,0.9,2,2c0,1.1-0.9,2-2,2H4.59c-1.14,0-2.2,0.72-2.5,1.82 C1.64,53.48,2.9,55,4.5,55h6c0.83,0,1.5,0.67,1.5,1.5c0,0.83-0.67,1.5-1.5,1.5C9.12,58,8,59.12,8,60.5S9.12,63,10.5,63h28 c0.69,0,1.32-0.28,1.77-0.73C40.72,61.82,41,61.19,41,60.5c0-1.38-1.12-2.5-2.5-2.5h-7c-0.83,0-1.5-0.67-1.5-1.5 c0-0.83,0.67-1.5,1.5-1.5h2.91c1.14,0,2.2-0.72,2.5-1.82C37.36,51.52,36.1,50,34.5,50H34c-1.1,0-2-0.9-2-2c0-1.1,0.9-2,2-2h6.41 c1.14,0,2.2-0.72,2.5-1.82C43.36,42.52,42.1,41,40.5,41H40c-0.735,0-1.373-0.406-1.721-1h9.133c1.138,0,2.202-0.721,2.497-1.821 C50.355,36.516,49.096,35,47.5,35c-0.227,0-0.44-0.054-0.633-0.144c0.135-0.452,0.175-0.944,0.073-1.456 c-0.074-0.376-0.224-0.718-0.427-1.021C46.777,32.146,47.12,32,47.5,32h2.912c1.139,0,2.202-0.721,2.497-1.821 C53.355,28.516,52.096,27,50.5,27H50c-1.105,0-2-0.895-2-2c0-1.105,0.895-2,2-2h6.412c1.139,0,2.202-0.721,2.497-1.821 C59.355,19.516,58.096,18,56.5,18H56c-1.105,0-2-0.895-2-2c0-1.105,0.895-2,2-2h4C61.848,14,63.319,12.307,62.94,10.395z M57.5,27 c-1.381,0-2.5,1.119-2.5,2.5c0,1.381,1.119,2.5,2.5,2.5s2.5-1.119,2.5-2.5C60,28.119,58.881,27,57.5,27z M45.5,58 c-1.38,0-2.5,1.12-2.5,2.5s1.12,2.5,2.5,2.5s2.5-1.12,2.5-2.5S46.88,58,45.5,58z M12,25.5c0,1.38-1.12,2.5-2.5,2.5S7,26.88,7,25.5 S8.12,23,9.5,23S12,24.12,12,25.5z"/><linearGradient id="axpys0VHuFVENHY~2g7r0b" x1="4" x2="60" y1="32" y2="32" gradientUnits="userSpaceOnUse" spreadMethod="reflect"><stop offset="0" stop-color="#ffad6b"/><stop offset=".422" stop-color="#ff8b67"/><stop offset=".656" stop-color="#ff8b67"/><stop offset=".947" stop-color="#ffa76a"/><stop offset="1" stop-color="#ffad6b"/><stop offset="1" stop-color="#ffad6b"/></linearGradient><path fill="url(#axpys0VHuFVENHY~2g7r0b)" d="M55,52H9c-2.761,0-5-2.239-5-5V17c0-2.761,2.239-5,5-5h46c2.761,0,5,2.239,5,5v30 C60,49.761,57.761,52,55,52z"/><linearGradient id="axpys0VHuFVENHY~2g7r0c" x1="9.5" x2="9.5" y1="49.229" y2="26" gradientUnits="userSpaceOnUse" spreadMethod="reflect"><stop offset="0" stop-color="#f9af70"/><stop offset="1" stop-color="#ffb37b"/></linearGradient><path fill="url(#axpys0VHuFVENHY~2g7r0c)" d="M5.023,49H12.5c1.381,0,2.5-1.119,2.5-2.5c0-1.381-1.119-2.5-2.5-2.5H9c-1.105,0-2-0.895-2-2 c0-1.105,0.895-2,2-2h0.5c1.381,0,2.5-1.119,2.5-2.5c0-1.381-1.119-2.5-2.5-2.5H9c-1.105,0-2-0.895-2-2c0-1.105,0.895-2,2-2h3.5 c1.381,0,2.5-1.119,2.5-2.5c0-1.381-1.119-2.5-2.5-2.5H4v21c0,0.805,0.208,1.555,0.546,2.229C4.683,48.918,4.843,48.762,5.023,49z"/><linearGradient id="axpys0VHuFVENHY~2g7r0d" x1="-76.37" x2="-75.37" y1="254.222" y2="254.222" gradientTransform="matrix(0 -27 -27 0 6896 -2010)" gradientUnits="userSpaceOnUse" spreadMethod="reflect"><stop offset="0" stop-color="#ff9757"/><stop offset="1" stop-color="#ffb65b"/><stop offset="1" stop-color="#ffb65b"/></linearGradient><path fill="url(#axpys0VHuFVENHY~2g7r0d)" d="M32,25L4.085,47.84C4.486,50.199,6.526,52,9,52h46c2.474,0,4.514-1.801,4.915-4.16L32,25"/><linearGradient id="axpys0VHuFVENHY~2g7r0e" x1="41.5" x2="41.5" y1="43" y2="28.931" gradientUnits="userSpaceOnUse" spreadMethod="reflect"><stop offset="0" stop-color="#ff8b67"/><stop offset=".847" stop-color="#ffa76a"/><stop offset="1" stop-color="#ffad6b"/><stop offset="1" stop-color="#ffad6b"/></linearGradient><path fill="url(#axpys0VHuFVENHY~2g7r0e)" d="M41.5,43L41.5,43c-1.381,0-2.5-1.119-2.5-2.5v0c0-1.381,1.119-2.5,2.5-2.5h0 c1.381,0,2.5,1.119,2.5,2.5v0C44,41.881,42.881,43,41.5,43z"/><linearGradient id="axpys0VHuFVENHY~2g7r0f" x1="48" x2="48" y1="47.833" y2="25.166" gradientUnits="userSpaceOnUse" spreadMethod="reflect"><stop offset="0" stop-color="#ff8b67"/><stop offset=".847" stop-color="#ffa76a"/><stop offset="1" stop-color="#ffad6b"/><stop offset="1" stop-color="#ffad6b"/></linearGradient><path fill="url(#axpys0VHuFVENHY~2g7r0f)" d="M60,47v-9H48.5c-1.381,0-2.5,1.119-2.5,2.5c0,1.381,1.119,2.5,2.5,2.5H49c1.105,0,2,0.895,2,2 c0,1.105-0.895,2-2,2H38.5c-1.381,0-2.5,1.119-2.5,2.5c0,1.381,1.119,2.5,2.5,2.5H55C57.761,52,60,49.761,60,47z"/><linearGradient id="axpys0VHuFVENHY~2g7r0g" x1="32" x2="32" y1="38.002" y2="12" gradientUnits="userSpaceOnUse" spreadMethod="reflect"><stop offset="0" stop-color="#f39d75"/><stop offset=".226" stop-color="#f7ab82"/><stop offset=".703" stop-color="#fdc298"/><stop offset="1" stop-color="#ffcba0"/></linearGradient><path fill="url(#axpys0VHuFVENHY~2g7r0g)" d="M4.085,16.16l25.75,21.069c1.259,1.03,3.07,1.03,4.33,0l25.75-21.069 C59.514,13.801,57.474,12,55,12H9C6.526,12,4.486,13.801,4.085,16.16z"/></svg>