<svg xmlns="http://www.w3.org/2000/svg"  viewBox="0 0 48 48" width="50px" height="50px"><linearGradient id="r9H0JfjG8VRhyhf14RMuZa" x1="18.101" x2="29.851" y1="7.777" y2="40.091" gradientUnits="userSpaceOnUse"><stop offset="0" stop-color="#0077d2"/><stop offset="1" stop-color="#0b59a2"/></linearGradient><path fill="url(#r9H0JfjG8VRhyhf14RMuZa)" d="M42,8H6c-1.1,0-2,0.9-2,2v28c0,1.1,0.9,2,2,2h36c1.1,0,2-0.9,2-2V10C44,8.9,43.1,8,42,8z"/><linearGradient id="r9H0JfjG8VRhyhf14RMuZb" x1="30" x2="30" y1="16.964" y2="12.914" gradientUnits="userSpaceOnUse"><stop offset="0" stop-color="#7dd8f3"/><stop offset=".377" stop-color="#7bd6f1"/><stop offset=".596" stop-color="#72d0ec"/><stop offset=".775" stop-color="#64c6e4"/><stop offset=".931" stop-color="#50b8d7"/><stop offset="1" stop-color="#45b0d0"/></linearGradient><path fill="url(#r9H0JfjG8VRhyhf14RMuZb)" d="M20.5,17h19c0.276,0,0.5-0.224,0.5-0.5v-3c0-0.276-0.224-0.5-0.5-0.5h-19	c-0.276,0-0.5,0.224-0.5,0.5v3C20,16.776,20.224,17,20.5,17z"/><linearGradient id="r9H0JfjG8VRhyhf14RMuZc" x1="8" x2="18" y1="15" y2="15" gradientUnits="userSpaceOnUse"><stop offset="0" stop-color="#11408a"/><stop offset="1" stop-color="#103f8f"/></linearGradient><path fill="url(#r9H0JfjG8VRhyhf14RMuZc)" d="M17,16H9c-0.552,0-1-0.448-1-1v0c0-0.552,0.448-1,1-1h8c0.552,0,1,0.448,1,1v0	C18,15.552,17.552,16,17,16z"/><linearGradient id="r9H0JfjG8VRhyhf14RMuZd" x1="30" x2="30" y1="23.018" y2="18.933" gradientUnits="userSpaceOnUse"><stop offset="0" stop-color="#7dd8f3"/><stop offset=".377" stop-color="#7bd6f1"/><stop offset=".596" stop-color="#72d0ec"/><stop offset=".775" stop-color="#64c6e4"/><stop offset=".931" stop-color="#50b8d7"/><stop offset="1" stop-color="#45b0d0"/></linearGradient><path fill="url(#r9H0JfjG8VRhyhf14RMuZd)" d="M20.5,23h19c0.276,0,0.5-0.224,0.5-0.5v-3c0-0.276-0.224-0.5-0.5-0.5h-19	c-0.276,0-0.5,0.224-0.5,0.5v3C20,22.776,20.224,23,20.5,23z"/><linearGradient id="r9H0JfjG8VRhyhf14RMuZe" x1="8" x2="18" y1="21" y2="21" gradientUnits="userSpaceOnUse"><stop offset="0" stop-color="#11408a"/><stop offset="1" stop-color="#103f8f"/></linearGradient><path fill="url(#r9H0JfjG8VRhyhf14RMuZe)" d="M17,22H9c-0.552,0-1-0.448-1-1v0c0-0.552,0.448-1,1-1h8c0.552,0,1,0.448,1,1v0	C18,21.552,17.552,22,17,22z"/><linearGradient id="r9H0JfjG8VRhyhf14RMuZf" x1="22" x2="22" y1="36.018" y2="31.933" gradientUnits="userSpaceOnUse"><stop offset="0" stop-color="#7dd8f3"/><stop offset=".377" stop-color="#7bd6f1"/><stop offset=".596" stop-color="#72d0ec"/><stop offset=".775" stop-color="#64c6e4"/><stop offset=".931" stop-color="#50b8d7"/><stop offset="1" stop-color="#45b0d0"/></linearGradient><path fill="url(#r9H0JfjG8VRhyhf14RMuZf)" d="M20.5,36h3c0.276,0,0.5-0.224,0.5-0.5v-3c0-0.276-0.224-0.5-0.5-0.5h-3	c-0.276,0-0.5,0.224-0.5,0.5v3C20,35.776,20.224,36,20.5,36z"/><linearGradient id="r9H0JfjG8VRhyhf14RMuZg" x1="26" x2="40" y1="28" y2="28" gradientUnits="userSpaceOnUse"><stop offset="0" stop-color="#11408a"/><stop offset="1" stop-color="#103f8f"/></linearGradient><path fill="url(#r9H0JfjG8VRhyhf14RMuZg)" d="M39,29H27c-0.552,0-1-0.448-1-1v0c0-0.552,0.448-1,1-1h12c0.552,0,1,0.448,1,1v0	C40,28.552,39.552,29,39,29z"/><linearGradient id="r9H0JfjG8VRhyhf14RMuZh" x1="26" x2="40" y1="34" y2="34" gradientUnits="userSpaceOnUse"><stop offset="0" stop-color="#11408a"/><stop offset="1" stop-color="#103f8f"/></linearGradient><path fill="url(#r9H0JfjG8VRhyhf14RMuZh)" d="M39,35H27c-0.552,0-1-0.448-1-1l0,0c0-0.552,0.448-1,1-1h12c0.552,0,1,0.448,1,1l0,0	C40,34.552,39.552,35,39,35z"/><linearGradient id="r9H0JfjG8VRhyhf14RMuZi" x1="22" x2="22" y1="35.009" y2="32.967" gradientUnits="userSpaceOnUse"><stop offset="0" stop-color="#11408a"/><stop offset="1" stop-color="#103f8f"/></linearGradient><rect width="2" height="2" x="21" y="33" fill="url(#r9H0JfjG8VRhyhf14RMuZi)"/><linearGradient id="r9H0JfjG8VRhyhf14RMuZj" x1="22" x2="22" y1="30.018" y2="25.933" gradientUnits="userSpaceOnUse"><stop offset="0" stop-color="#7dd8f3"/><stop offset=".377" stop-color="#7bd6f1"/><stop offset=".596" stop-color="#72d0ec"/><stop offset=".775" stop-color="#64c6e4"/><stop offset=".931" stop-color="#50b8d7"/><stop offset="1" stop-color="#45b0d0"/></linearGradient><path fill="url(#r9H0JfjG8VRhyhf14RMuZj)" d="M20.5,30h3c0.276,0,0.5-0.224,0.5-0.5v-3c0-0.276-0.224-0.5-0.5-0.5h-3	c-0.276,0-0.5,0.224-0.5,0.5v3C20,29.776,20.224,30,20.5,30z"/><linearGradient id="r9H0JfjG8VRhyhf14RMuZk" x1="22" x2="22" y1="29.009" y2="26.967" gradientUnits="userSpaceOnUse"><stop offset="0" stop-color="#11408a"/><stop offset="1" stop-color="#103f8f"/></linearGradient><rect width="2" height="2" x="21" y="27" fill="url(#r9H0JfjG8VRhyhf14RMuZk)"/></svg>