<svg xmlns="http://www.w3.org/2000/svg"  viewBox="0 0 64 64" width="50px" height="50px"><radialGradient id="5x~M5g_RjUsyPuQc3~VaJa" cx="31.5" cy="32.5" r="31.004" gradientUnits="userSpaceOnUse" spreadMethod="reflect"><stop offset="0" stop-color="#f4e09d"/><stop offset=".226" stop-color="#f8e8b5"/><stop offset=".513" stop-color="#fcf0cd"/><stop offset=".778" stop-color="#fef4dc"/><stop offset="1" stop-color="#fff6e1"/></radialGradient><path fill="url(#5x~M5g_RjUsyPuQc3~VaJa)" d="M53,49c0,2.2-1.8,4-4,4h-3.5c-1.375,0-2.5,1.125-2.5,2.5s1.125,2.5,2.5,2.5h3 c1.375,0,2.5,1.125,2.5,2.5S49.875,63,48.5,63h-33c-1.375,0-2.5-1.125-2.5-2.5s1.125-2.5,2.5-2.5h3c1.375,0,2.5-1.125,2.5-2.5 S19.875,53,18.5,53H11c-2.2,0-4-1.8-4-4s1.8-4,4-4h3.5c1.375,0,2.5-1.125,2.5-2.5S15.875,40,14.5,40H5c-2.2,0-4-1.8-4-4s1.8-4,4-4 h2.5c1.375,0,2.5-1.125,2.5-2.5S8.875,27,7.5,27h-3C2.025,27,0,24.975,0,22.5C0,20.025,2.025,18,4.5,18h7c1.375,0,2.5-1.125,2.5-2.5 S12.875,13,11.5,13h-4C4.475,13,2,10.525,2,7.5C2,4.475,4.475,2,7.5,2h50C60.525,2,63,4.475,63,7.5c0,3.025-2.475,5.5-5.5,5.5h-6 c-1.375,0-2.5,1.125-2.5,2.5s1.125,2.5,2.5,2.5h3c2.475,0,4.5,2.025,4.5,4.5c0,2.475-2.025,4.5-4.5,4.5c-1.375,0-2.5,1.125-2.5,2.5 s1.125,2.5,2.5,2.5H58c2.2,0,4,1.8,4,4s-1.8,4-4,4h-9.5c-1.375,0-2.5,1.125-2.5,2.5s1.125,2.5,2.5,2.5H49C51.2,45,53,46.8,53,49z M59,45c-2.2,0-4,1.8-4,4s1.8,4,4,4s4-1.8,4-4S61.2,45,59,45z"/><linearGradient id="5x~M5g_RjUsyPuQc3~VaJb" x1="32" x2="32" y1="6" y2="57" gradientUnits="userSpaceOnUse" spreadMethod="reflect"><stop offset="0" stop-color="#42d778"/><stop offset=".428" stop-color="#3dca76"/><stop offset="1" stop-color="#34b171"/></linearGradient><path fill="url(#5x~M5g_RjUsyPuQc3~VaJb)" d="M10,8.5C10,7.125,11.125,6,12.5,6h39C52.875,6,54,7.125,54,8.5S52.875,11,51.5,11h-39 C11.125,11,10,9.875,10,8.5z M35.5,44h-7c-1.375,0-2.5,1.125-2.5,2.5s1.125,2.5,2.5,2.5h7c1.375,0,2.5-1.125,2.5-2.5 S36.875,44,35.5,44z M35.5,52h-7c-1.375,0-2.5,1.125-2.5,2.5s1.125,2.5,2.5,2.5h7c1.375,0,2.5-1.125,2.5-2.5S36.875,52,35.5,52z M34.417,15.034c-1.329-1.347-3.505-1.347-4.834,0l-10.917,11.06C17.2,27.578,18.313,30,20.461,30H26v8.5c0,1.375,1.125,2.5,2.5,2.5 h7c1.375,0,2.5-1.125,2.5-2.5V30h5.539c2.147,0,3.26-2.422,1.795-3.906L34.417,15.034z"/></svg>