<svg xmlns="http://www.w3.org/2000/svg"  viewBox="0 0 64 64" width="50px" height="50px"><radialGradient id="tw3p6vH_JjVlAOBmW6lfka" cx="32.5" cy="32" r="31.751" gradientUnits="userSpaceOnUse" spreadMethod="reflect"><stop offset="0" stop-color="#f4e9c3"/><stop offset=".219" stop-color="#f8eecd"/><stop offset=".644" stop-color="#fdf4dc"/><stop offset="1" stop-color="#fff6e1"/></radialGradient><path fill="url(#tw3p6vH_JjVlAOBmW6lfka)" d="M61.501,18.008H57v-4h1.411c1.85,0,3.32-1.69,2.94-3.6c-0.28-1.43-1.62-2.4-3.07-2.4L45.5,8 C44.67,8,44,7.33,44,6.5C44,5.67,44.67,5,45.5,5h5.91c1.14,0,2.2-0.72,2.5-1.82C54.36,1.52,53.1,0,51.5,0H7.59 c-1.14,0-2.2,0.72-2.5,1.82C4.64,3.48,5.9,5,7.5,5h3c0.69,0,1.32,0.28,1.77,0.73C12.72,6.18,13,6.81,13,7.5c0,1.38-1.12,2.5-2.5,2.5 H4c-1.65,0-3,1.35-3,3c0,1.65,1.35,3,3,3h4v21.512c-0.604,0.457-1,1.174-1,1.988s0.396,1.532,1,1.988V44H5.5 C3.025,44,1,46.025,1,48.5C1,50.975,3.025,53,5.5,53h19c1.38,0,2.5,1.12,2.5,2.5S25.88,58,24.5,58H19c-1.66,0-3,1.34-3,3 c0,1.66,1.34,3,3,3h40c1.66,0,3-1.34,3-3c0-1.66-1.34-3-3-3h-5.5c-1.38,0-2.5-1.12-2.5-2.5s1.12-2.5,2.5-2.5h4 c2.475,0,4.5-2.025,4.5-4.5c0-2.475-2.025-4.5-4.5-4.5H57V23.005l4.411,0.003c1.14,0,2.2-0.72,2.5-1.82 C64.351,19.527,63.091,18.008,61.501,18.008z"/><linearGradient id="tw3p6vH_JjVlAOBmW6lfkb" x1="30.5" x2="30.5" y1="16" y2="47" gradientUnits="userSpaceOnUse" spreadMethod="reflect"><stop offset="0" stop-color="#42d778"/><stop offset=".996" stop-color="#34b171"/><stop offset="1" stop-color="#34b171"/></linearGradient><path fill="url(#tw3p6vH_JjVlAOBmW6lfkb)" d="M58,16H9c-1.657,0-3,1.343-3,3v7.735l-5.311,3.902C0.256,30.955,0,31.46,0,31.998v0.003 c0,0.538,0.256,1.043,0.689,1.362L6,37.265V44c0,1.657,1.343,3,3,3h49c1.657,0,3-1.343,3-3V19C61,17.343,59.657,16,58,16z"/><linearGradient id="tw3p6vH_JjVlAOBmW6lfkc" x1="33.5" x2="33.5" y1="-28.227" y2="70.089" gradientUnits="userSpaceOnUse" spreadMethod="reflect"><stop offset="0" stop-color="#40daf2"/><stop offset=".259" stop-color="#3bd3ef"/><stop offset=".624" stop-color="#2ec1e8"/><stop offset="1" stop-color="#1ba7dd"/></linearGradient><path fill="url(#tw3p6vH_JjVlAOBmW6lfkc)" d="M33.5,4L33.5,4C34.328,4,35,4.672,35,5.5v4c0,0.828-0.672,1.5-1.5,1.5l0,0 c-0.828,0-1.5-0.672-1.5-1.5v-4C32,4.672,32.672,4,33.5,4z M32,53.5v4c0,0.828,0.672,1.5,1.5,1.5l0,0c0.828,0,1.5-0.672,1.5-1.5v-4 c0-0.828-0.672-1.5-1.5-1.5l0,0C32.672,52,32,52.672,32,53.5z M55.439,7.439l-3,3c-0.586,0.586-0.586,1.536,0,2.121l0,0 c0.586,0.586,1.536,0.586,2.121,0l3-3c0.586-0.586,0.586-1.536,0-2.121l0,0C56.975,6.854,56.025,6.854,55.439,7.439z M11.439,50.439 l-3,3c-0.586,0.586-0.586,1.536,0,2.121l0,0c0.586,0.586,1.536,0.586,2.121,0l3-3c0.586-0.586,0.586-1.536,0-2.121l0,0 C12.975,49.854,12.025,49.854,11.439,50.439z M9.439,7.439L9.439,7.439c-0.586,0.586-0.586,1.536,0,2.121l3,3 c0.586,0.586,1.536,0.586,2.121,0l0,0c0.586-0.586,0.586-1.536,0-2.121l-3-3C10.975,6.854,10.025,6.854,9.439,7.439z M53.439,50.439 L53.439,50.439c-0.586,0.586-0.586,1.536,0,2.121l3,3c0.586,0.586,1.536,0.586,2.121,0l0,0c0.586-0.586,0.586-1.536,0-2.121l-3-3 C54.975,49.854,54.025,49.854,53.439,50.439z"/><path fill="#f1fcff" d="M48.5 26h-30c-.828 0-1.5-.672-1.5-1.5v0c0-.828.672-1.5 1.5-1.5h30c.828 0 1.5.672 1.5 1.5v0C50 25.328 49.328 26 48.5 26zM48.5 40h-30c-.828 0-1.5-.672-1.5-1.5l0 0c0-.828.672-1.5 1.5-1.5h30c.828 0 1.5.672 1.5 1.5l0 0C50 39.328 49.328 40 48.5 40zM39.5 33h-21c-.828 0-1.5-.672-1.5-1.5v0c0-.828.672-1.5 1.5-1.5h21c.828 0 1.5.672 1.5 1.5v0C41 32.328 40.328 33 39.5 33z"/></svg>