<svg xmlns="http://www.w3.org/2000/svg"  viewBox="0 0 64 64" width="50px" height="50px"><radialGradient id="bUGE6fY8DnFtVV~P4xGL6a" cx="32" cy="87.9" r="30.301" gradientTransform="matrix(1 0 0 -1.25 0 141.375)" gradientUnits="userSpaceOnUse"><stop offset="0" stop-color="#f4e9c3"/><stop offset=".219" stop-color="#f8eecd"/><stop offset=".644" stop-color="#fdf4dc"/><stop offset="1" stop-color="#fff6e1"/></radialGradient><path fill="url(#bUGE6fY8DnFtVV~P4xGL6a)" d="M62.83,40.17C63.55,40.9,64,41.9,64,43c0,2.21-1.79,4-4,4H47c-1.1,0-2,0.9-2,2	c0,0.55,0.22,1.05,0.59,1.41C45.95,50.78,46.45,51,47,51h7.5c2.49,0,4.5,2.01,4.5,4.5c0,0.09,0,0.17-0.01,0.26	c-0.06,1.14-0.55,2.17-1.31,2.92C56.87,59.5,55.74,60,54.5,60h-45c-1.24,0-2.37-0.5-3.18-1.32C5.5,57.87,5,56.74,5,55.5	C5,53.01,7.01,51,9.5,51H18c0.55,0,1.05-0.22,1.41-0.59C19.78,50.05,20,49.55,20,49c0-1.1-0.9-2-2-2H5.5c-1.52,0-2.9-0.62-3.89-1.61	C0.62,44.4,0,43.02,0,41.5C0,38.46,2.46,36,5.5,36H8c1.1,0,2.1-0.45,2.83-1.17C11.55,34.1,12,33.1,12,32c0-2.21-1.79-4-4-4H5	c-1.38,0-2.63-0.56-3.54-1.46C0.56,25.63,0,24.38,0,23c0-2.76,2.24-5,5-5h6c1.1,0,2.1-0.45,2.83-1.17C14.55,16.1,15,15.1,15,14	c0-2.21-1.79-4-4-4h-0.52C8.55,10,6.99,8.43,7,6.5V6.48C7.01,4.56,8.57,3,10.5,3h46C58.43,3,60,4.57,60,6.5v0.11	C60,8.48,58.48,10,56.56,10H56c-1.38,0-2.63,0.56-3.54,1.46C51.56,12.37,51,13.62,51,15c0,2.76,2.24,5,5,5h3c2.76,0,5,2.24,5,5	s-2.24,5-5,5h-2.5c-1.24,0-2.37,0.5-3.18,1.32C52.5,32.13,52,33.26,52,34.5c0,2.49,2.01,4.5,4.5,4.5H60	C61.1,39,62.1,39.45,62.83,40.17z"/><linearGradient id="bUGE6fY8DnFtVV~P4xGL6b" x1="16.038" x2="16.038" y1="13.406" y2="2.372" gradientTransform="matrix(1 0 0 -1 0 66)" gradientUnits="userSpaceOnUse"><stop offset="0" stop-color="#ff9757"/><stop offset="1" stop-color="#ffb65b"/><stop offset="1" stop-color="#ffb65b"/></linearGradient><path fill="url(#bUGE6fY8DnFtVV~P4xGL6b)" d="M20.83,51.96c-0.22,0.22-0.47,0.41-0.73,0.57l-6.35,3.86c-0.66,0.41-1.56,0.35-2.09-0.22	c-0.42-0.47-0.51-1.09-0.32-1.62l3.03-8.38C16.12,48.5,18.31,50.47,20.83,51.96z"/><linearGradient id="bUGE6fY8DnFtVV~P4xGL6c" x1="47.895" x2="47.895" y1="13.319" y2="2.445" gradientTransform="matrix(1 0 0 -1 0 66)" gradientUnits="userSpaceOnUse"><stop offset="0" stop-color="#ff9757"/><stop offset="1" stop-color="#ffb65b"/><stop offset="1" stop-color="#ffb65b"/></linearGradient><path fill="url(#bUGE6fY8DnFtVV~P4xGL6c)" d="M51.99,56.45c-0.54,0.33-1.17,0.29-1.65,0l-7.28-4.43c2.5-1.45,4.68-3.39,6.43-5.67	c0.26,0.34,0.47,0.72,0.61,1.12l2.52,6.98C52.89,55.18,52.66,56.05,51.99,56.45z"/><linearGradient id="bUGE6fY8DnFtVV~P4xGL6d" x1="18.71" x2="18.71" y1="44.404" y2="58.361" gradientTransform="matrix(1 0 0 -1 0 66)" gradientUnits="userSpaceOnUse"><stop offset="0" stop-color="#ff9757"/><stop offset="1" stop-color="#ffb65b"/><stop offset="1" stop-color="#ffb65b"/></linearGradient><path fill="url(#bUGE6fY8DnFtVV~P4xGL6d)" d="M28.763,13.606L13.835,25.704l-3.539-4.346c-2.485-2.962-2.099-7.377,0.863-9.862l4.203-3.099	c2.962-2.485,7.377-2.099,9.862,0.863L28.763,13.606z"/><linearGradient id="bUGE6fY8DnFtVV~P4xGL6e" x1="45.289" x2="45.289" y1="43.34" y2="57.211" gradientTransform="matrix(1 0 0 -1 0 66)" gradientUnits="userSpaceOnUse"><stop offset="0" stop-color="#ff9757"/><stop offset="1" stop-color="#ffb65b"/><stop offset="1" stop-color="#ffb65b"/></linearGradient><path fill="url(#bUGE6fY8DnFtVV~P4xGL6e)" d="M35.237,13.606l14.928,12.098l3.539-4.346c2.485-2.962,2.099-7.377-0.863-9.862l-4.203-3.099	c-2.962-2.485-7.377-2.099-9.862,0.863L35.237,13.606z"/><linearGradient id="bUGE6fY8DnFtVV~P4xGL6f" x1="32" x2="32" y1="58.819" y2="5.359" gradientTransform="matrix(1 0 0 -1 0 66)" gradientUnits="userSpaceOnUse"><stop offset="0" stop-color="#43bdf2"/><stop offset=".23" stop-color="#41b7f1"/><stop offset=".551" stop-color="#3ca4ed"/><stop offset=".924" stop-color="#3487e6"/><stop offset="1" stop-color="#3280e5"/></linearGradient><ellipse cx="32" cy="33" fill="url(#bUGE6fY8DnFtVV~P4xGL6f)" rx="23.5" ry="23"/><linearGradient id="bUGE6fY8DnFtVV~P4xGL6g" x1="32" x2="32" y1="55.392" y2="-11.373" gradientTransform="matrix(1 0 0 -1 0 66)" gradientUnits="userSpaceOnUse"><stop offset="0" stop-color="#dff9ff"/><stop offset="0" stop-color="#dff9ff"/><stop offset=".173" stop-color="#d8f8ff"/><stop offset=".423" stop-color="#c5f4ff"/><stop offset=".72" stop-color="#a5eeff"/><stop offset="1" stop-color="#81e7ff"/></linearGradient><path fill="url(#bUGE6fY8DnFtVV~P4xGL6g)" d="M50,33c0,0.68-0.04,1.34-0.11,2c-0.94,8.54-7.86,15.28-16.48,15.94c0,0-0.01,0-0.02,0	C32.93,50.98,32.47,51,32,51c-9.94,0-18-8.06-18-18c0-0.68,0.04-1.34,0.11-2c0.8-7.19,5.82-13.1,12.54-15.19	C28.34,15.28,30.14,15,32,15C41.94,15,50,23.06,50,33z"/><linearGradient id="bUGE6fY8DnFtVV~P4xGL6h" x1="40.443" x2="40.443" y1="1.622" y2="34.295" gradientTransform="matrix(1 0 0 -1 0 66)" gradientUnits="userSpaceOnUse"><stop offset="0" stop-color="#89e4fa"/><stop offset=".406" stop-color="#94e8fc"/><stop offset="1" stop-color="#acf0ff"/></linearGradient><path fill="url(#bUGE6fY8DnFtVV~P4xGL6h)" d="M49.89,35c-0.94,8.54-7.86,15.28-16.48,15.94c0,0-0.01,0-0.02,0	c-1.41-0.29-2.47-1.58-2.39-3.1c0.09-1.62,1.55-2.84,3.17-2.84H38c0.55,0,1.05-0.22,1.41-0.59C39.78,44.05,40,43.55,40,43	s-0.22-1.05-0.59-1.41C39.05,41.22,38.55,41,38,41c-1,0-2-0.95-2-2.12V35H49.89z"/><linearGradient id="bUGE6fY8DnFtVV~P4xGL6i" x1="32.612" x2="31.388" y1="46.959" y2="31.041" gradientTransform="matrix(1 0 0 -1 0 66)" gradientUnits="userSpaceOnUse"><stop offset="0" stop-color="#a4a4a4"/><stop offset=".619" stop-color="gray"/><stop offset="1" stop-color="#6f6f6f"/><stop offset="1" stop-color="#6f6f6f"/></linearGradient><line x1="32" x2="32" y1="33" y2="21" fill="none" stroke="url(#bUGE6fY8DnFtVV~P4xGL6i)" stroke-linecap="round" stroke-linejoin="round" stroke-miterlimit="10" stroke-width="4"/><linearGradient id="bUGE6fY8DnFtVV~P4xGL6j" x1="-404.526" x2="-405.482" y1="760.471" y2="748.048" gradientTransform="scale(-1 1) rotate(45 647.013 841.764)" gradientUnits="userSpaceOnUse"><stop offset="0" stop-color="#a4a4a4"/><stop offset=".619" stop-color="gray"/><stop offset="1" stop-color="#6f6f6f"/><stop offset="1" stop-color="#6f6f6f"/></linearGradient><line x1="32" x2="38" y1="33" y2="39" fill="none" stroke="url(#bUGE6fY8DnFtVV~P4xGL6j)" stroke-linecap="round" stroke-linejoin="round" stroke-miterlimit="10" stroke-width="4"/><linearGradient id="bUGE6fY8DnFtVV~P4xGL6k" x1="32.35" x2="31.754" y1="37.546" y2="29.801" gradientTransform="matrix(1 0 0 -1 0 66)" gradientUnits="userSpaceOnUse"><stop offset="0" stop-color="#a4a4a4"/><stop offset=".619" stop-color="gray"/><stop offset="1" stop-color="#6f6f6f"/><stop offset="1" stop-color="#6f6f6f"/></linearGradient><circle cx="32" cy="33" r="4" fill="url(#bUGE6fY8DnFtVV~P4xGL6k)"/><linearGradient id="bUGE6fY8DnFtVV~P4xGL6l" x1="21.057" x2="21.057" y1="30.291" y2="79.434" gradientTransform="matrix(1 0 0 -1 0 66)" gradientUnits="userSpaceOnUse"><stop offset="0" stop-color="#ecf9fd"/><stop offset=".848" stop-color="#f2fdff"/><stop offset="1" stop-color="#f4feff"/></linearGradient><path fill="url(#bUGE6fY8DnFtVV~P4xGL6l)" d="M28,18.31c0.1,2.02-1.5,3.69-3.5,3.69H22c-0.55,0-1.05,0.22-1.41,0.59	C20.22,22.95,20,23.45,20,24c0,1.1,0.9,2,2,2h0.5c1.47,0,2.64,1.26,2.49,2.76c-0.13,1.3-1.32,2.24-2.63,2.24h-8.25	c0.8-7.19,5.82-13.1,12.54-15.19C27.42,16.4,27.95,17.29,28,18.31z"/></svg>