<svg xmlns="http://www.w3.org/2000/svg"  viewBox="0 0 64 64" width="50px" height="50px"><radialGradient id="CsSs6SO8dMdHVj~cEQFtCa" cx="32.5" cy="32" r="31.751" gradientUnits="userSpaceOnUse" spreadMethod="reflect"><stop offset="0" stop-color="#edd7a1"/><stop offset=".258" stop-color="#f0dba9"/><stop offset=".667" stop-color="#f7e7c0"/><stop offset="1" stop-color="#fff3d8"/></radialGradient><path fill="url(#CsSs6SO8dMdHVj~cEQFtCa)" d="M61.501,18.008H56c-1.1,0-2-0.9-2-2c0-1.1,0.9-2.008,2-2.008h3c1.85,0,3.32-1.69,2.94-3.6 C61.66,8.97,60.32,8,58.87,8H45.5C44.67,8,44,7.33,44,6.5C44,5.67,44.67,5,45.5,5h5.91c1.14,0,2.2-0.72,2.5-1.82 C54.36,1.52,53.1,0,51.5,0H7.59c-1.14,0-2.2,0.72-2.5,1.82C4.64,3.48,5.9,5,7.5,5h3c0.69,0,1.32,0.28,1.77,0.73 C12.72,6.18,13,6.81,13,7.5c0,1.38-1.12,2.5-2.5,2.5H4c-1.65,0-3,1.35-3,3c0,1.65,1.35,3,3,3h21c0.35,0,0.69-0.07,1-0.19V23 c0,0-10.282,19.859-10.05,21H5.5C3.025,44,1,46.025,1,48.5C1,50.975,3.025,53,5.5,53h19c1.38,0,2.5,1.12,2.5,2.5S25.88,58,24.5,58 H19c-1.66,0-3,1.34-3,3c0,1.66,1.34,3,3,3h40c1.66,0,3-1.34,3-3c0-1.66-1.34-3-3-3h-5.5c-1.38,0-2.5-1.12-2.5-2.5s1.12-2.5,2.5-2.5 h4c2.475,0,4.5-2.025,4.5-4.5c0-2.475-2.025-4.5-4.5-4.5H47.437C47.751,42.413,48.9,23,50,23h11.411c1.14,0,2.2-0.713,2.5-1.813 C64.351,19.527,63.091,18.008,61.501,18.008z"/><linearGradient id="CsSs6SO8dMdHVj~cEQFtCb" x1="355.835" x2="302.672" y1="321" y2="321" gradientTransform="rotate(90 321 32)" gradientUnits="userSpaceOnUse" spreadMethod="reflect"><stop offset="0" stop-color="#155cde"/><stop offset=".278" stop-color="#1f7fe5"/><stop offset=".569" stop-color="#279ceb"/><stop offset=".82" stop-color="#2cafef"/><stop offset="1" stop-color="#2eb5f0"/></linearGradient><path fill="url(#CsSs6SO8dMdHVj~cEQFtCb)" d="M6,48V16c0-1.657,1.343-3,3-3h46c1.657,0,3,1.343,3,3v32c0,1.657-1.343,3-3,3H9 C7.343,51,6,49.657,6,48z"/><path fill="#fff" d="M42.5 21h9c.828 0 1.5.672 1.5 1.5v0c0 .828-.672 1.5-1.5 1.5h-9c-.828 0-1.5-.672-1.5-1.5v0C41 21.672 41.672 21 42.5 21zM41 28.5L41 28.5c0 .828.672 1.5 1.5 1.5h9c.828 0 1.5-.672 1.5-1.5v0c0-.828-.672-1.5-1.5-1.5h-9C41.672 27 41 27.672 41 28.5zM42.5 33h9c.828 0 1.5.672 1.5 1.5l0 0c0 .828-.672 1.5-1.5 1.5h-9c-.828 0-1.5-.672-1.5-1.5l0 0C41 33.672 41.672 33 42.5 33zM41 40.5L41 40.5c0 .828.672 1.5 1.5 1.5h9c.828 0 1.5-.672 1.5-1.5l0 0c0-.828-.672-1.5-1.5-1.5h-9C41.672 39 41 39.672 41 40.5zM36.5 21L36.5 21c.828 0 1.5.672 1.5 1.5v0c0 .828-.672 1.5-1.5 1.5l0 0c-.828 0-1.5-.672-1.5-1.5v0C35 21.672 35.672 21 36.5 21zM35 28.5L35 28.5c0 .828.672 1.5 1.5 1.5l0 0c.828 0 1.5-.672 1.5-1.5v0c0-.828-.672-1.5-1.5-1.5l0 0C35.672 27 35 27.672 35 28.5zM36.5 33L36.5 33c.828 0 1.5.672 1.5 1.5l0 0c0 .828-.672 1.5-1.5 1.5l0 0c-.828 0-1.5-.672-1.5-1.5l0 0C35 33.672 35.672 33 36.5 33zM35 40.5L35 40.5c0 .828.672 1.5 1.5 1.5l0 0c.828 0 1.5-.672 1.5-1.5l0 0c0-.828-.672-1.5-1.5-1.5l0 0C35.672 39 35 39.672 35 40.5z"/><g><path fill="#fff" d="M12.5 21L12.5 21c.828 0 1.5.672 1.5 1.5v0c0 .828-.672 1.5-1.5 1.5h0c-.828 0-1.5-.672-1.5-1.5v0C11 21.672 11.672 21 12.5 21zM11 28.5L11 28.5c0 .828.672 1.5 1.5 1.5h0c.828 0 1.5-.672 1.5-1.5v0c0-.828-.672-1.5-1.5-1.5h0C11.672 27 11 27.672 11 28.5zM12.5 33L12.5 33c.828 0 1.5.672 1.5 1.5l0 0c0 .828-.672 1.5-1.5 1.5h0c-.828 0-1.5-.672-1.5-1.5l0 0C11 33.672 11.672 33 12.5 33zM11 40.5L11 40.5c0 .828.672 1.5 1.5 1.5h0c.828 0 1.5-.672 1.5-1.5l0 0c0-.828-.672-1.5-1.5-1.5h0C11.672 39 11 39.672 11 40.5z"/></g><g><path fill="#fff" d="M18.5 21h9c.828 0 1.5.672 1.5 1.5v0c0 .828-.672 1.5-1.5 1.5h-9c-.828 0-1.5-.672-1.5-1.5v0C17 21.672 17.672 21 18.5 21zM17 28.5L17 28.5c0 .828.672 1.5 1.5 1.5h9c.828 0 1.5-.672 1.5-1.5v0c0-.828-.672-1.5-1.5-1.5h-9C17.672 27 17 27.672 17 28.5zM18.5 33h9c.828 0 1.5.672 1.5 1.5l0 0c0 .828-.672 1.5-1.5 1.5h-9c-.828 0-1.5-.672-1.5-1.5l0 0C17 33.672 17.672 33 18.5 33zM17 40.5L17 40.5c0 .828.672 1.5 1.5 1.5h9c.828 0 1.5-.672 1.5-1.5l0 0c0-.828-.672-1.5-1.5-1.5h-9C17.672 39 17 39.672 17 40.5z"/></g></svg>