<svg xmlns="http://www.w3.org/2000/svg"  viewBox="0 0 64 64" width="50px" height="50px"><radialGradient id="F7xAg0ssaMv7CQ8qJGl0da" cx="32.5" cy="32" r="30.276" gradientUnits="userSpaceOnUse" spreadMethod="reflect"><stop offset="0" stop-color="#afeeff"/><stop offset=".193" stop-color="#bbf1ff"/><stop offset=".703" stop-color="#d7f8ff"/><stop offset="1" stop-color="#e1faff"/></radialGradient><path fill="url(#F7xAg0ssaMv7CQ8qJGl0da)" d="M59,21h1.5c2.168,0,3.892-1.998,3.422-4.243C63.58,15.122,62.056,14,60.385,14L51,14 c-1.105,0-2-0.895-2-2c0-1.105,0.895-2,2-2h3.385c1.67,0,3.195-1.122,3.537-2.757C58.392,4.998,56.668,3,54.5,3H34.006H32.5h-24 C6.575,3,5,4.575,5,6.5S6.575,10,8.5,10H11c1.105,0,2,0.895,2,2c0,1.105-0.895,2-2,2l-6.385,0c-1.67,0-3.195,1.122-3.537,2.757 C0.608,19.002,2.332,21,4.5,21H18l0,11L4.615,32c-1.67,0-3.195,1.122-3.537,2.757C0.608,37.002,2.332,39,4.5,39H7 c1.105,0,2,0.895,2,2c0,1.105-0.895,2-2,2H4.5c-2.168,0-3.892,1.998-3.422,4.243C1.42,48.878,2.945,50,4.615,50H12 c1.105,0,2,0.895,2,2c0,1.105-0.895,2-2,2l-3.385,0c-1.67,0-3.195,1.122-3.537,2.757C4.608,59.002,6.332,61,8.5,61h22.494H32.5h21 c1.925,0,3.5-1.575,3.5-3.5S55.425,54,53.5,54H52c-1.105,0-2-0.895-2-2c0-1.105,0.895-2,2-2h5.385c1.67,0,3.195-1.122,3.537-2.757 C61.392,44.998,59.668,43,57.5,43H47l0-11h12.385c1.67,0,3.195-1.122,3.537-2.757C63.392,26.998,61.668,25,59.5,25H59 c-1.105,0-2-0.895-2-2C57,21.895,57.895,21,59,21z"/><linearGradient id="F7xAg0ssaMv7CQ8qJGl0db" x1="32" x2="32" y1="57.998" y2="6" gradientUnits="userSpaceOnUse" spreadMethod="reflect"><stop offset="0" stop-color="#155cde"/><stop offset=".278" stop-color="#1f7fe5"/><stop offset=".569" stop-color="#279ceb"/><stop offset=".82" stop-color="#2cafef"/><stop offset="1" stop-color="#2eb5f0"/></linearGradient><path fill="url(#F7xAg0ssaMv7CQ8qJGl0db)" d="M43,11.005c-3.572-1.223-6.46-2.82-8.651-4.289c-1.425-0.955-3.272-0.955-4.697,0 C27.46,8.185,24.573,9.782,21,11.005c-3.889,1.331-7.4,1.811-10.113,1.951c-1.065,0.055-1.888,0.935-1.884,2.001 C9.041,25.628,9.699,38.701,21,50.001c1.659,1.659,5.961,5.08,8.667,7.193c1.372,1.071,3.293,1.071,4.665,0 c2.706-2.113,7.008-5.534,8.667-7.193c11.301-11.3,11.959-24.373,11.998-35.045c0.004-1.066-0.82-1.946-1.884-2.001 C50.4,12.815,46.889,12.336,43,11.005z"/><path fill="#fff" d="M41,23v14H23V23H41 M41,20H23c-1.657,0-3,1.343-3,3v14c0,1.657,1.343,3,3,3h18c1.657,0,3-1.343,3-3 V23C44,21.343,42.657,20,41,20L41,20z"/><path fill="#fff" d="M22 22H42V27H22z"/><linearGradient id="F7xAg0ssaMv7CQ8qJGl0dc" x1="32" x2="32" y1="37" y2="27" gradientUnits="userSpaceOnUse" spreadMethod="reflect"><stop offset="0" stop-color="#91c6f4"/><stop offset="1" stop-color="#94cff5"/></linearGradient><path fill="url(#F7xAg0ssaMv7CQ8qJGl0dc)" d="M23 27H41V37H23z"/><linearGradient id="F7xAg0ssaMv7CQ8qJGl0dd" x1="39.5" x2="39.5" y1="26.089" y2="20.028" gradientUnits="userSpaceOnUse" spreadMethod="reflect"><stop offset="0" stop-color="#155cde"/><stop offset=".278" stop-color="#1f7fe5"/><stop offset=".569" stop-color="#279ceb"/><stop offset=".82" stop-color="#2cafef"/><stop offset="1" stop-color="#2eb5f0"/></linearGradient><path fill="url(#F7xAg0ssaMv7CQ8qJGl0dd)" d="M40,25h-1c-0.55,0-1-0.45-1-1v-1c0-0.55,0.45-1,1-1h1c0.55,0,1,0.45,1,1v1 C41,24.55,40.55,25,40,25z"/></svg>