<svg xmlns="http://www.w3.org/2000/svg"  viewBox="0 0 64 64" width="50px" height="50px"><radialGradient id="aBcUje74kUovT31UrwrSha" cx="35" cy="33" r="26.875" gradientUnits="userSpaceOnUse" spreadMethod="reflect"><stop offset="0" stop-color="#f4e9c3"/><stop offset=".219" stop-color="#f8eecd"/><stop offset=".644" stop-color="#fdf4dc"/><stop offset="1" stop-color="#fff6e1"/></radialGradient><path fill="url(#aBcUje74kUovT31UrwrSha)" d="M4.5,62L4.5,62C2.015,62,0,59.985,0,57.5v0C0,55.015,2.015,53,4.5,53h0 C6.985,53,9,55.015,9,57.5v0C9,59.985,6.985,62,4.5,62z"/><radialGradient id="aBcUje74kUovT31UrwrShb" cx="32" cy="32.5" r="30.775" gradientUnits="userSpaceOnUse" spreadMethod="reflect"><stop offset="0" stop-color="#f4e9c3"/><stop offset=".219" stop-color="#f8eecd"/><stop offset=".644" stop-color="#fdf4dc"/><stop offset="1" stop-color="#fff6e1"/></radialGradient><path fill="url(#aBcUje74kUovT31UrwrShb)" d="M64,25L64,25c0-2.761-2.239-5-5-5h-3c-2.761,0-5-2.238-5-5v0c0-2.762,2.238-5,5-5h0.565 C58.48,10,60,8.48,60,6.605L60,6.5C60,4.567,58.433,3,56.5,3h-46C8.574,3,7.01,4.556,7,6.483L7,6.5C6.99,8.43,8.553,10,10.483,10 H11c2.209,0,4,1.791,4,4v0c0,2.209-1.791,4-4,4H5c-2.761,0-5,2.239-5,5v0c0,2.761,2.239,5,5,5h1c2.209,0,4,1.791,4,4v0 c0,2.209-1.791,4-4,4H5.5C2.462,36,0,38.462,0,41.5v0C0,44.538,2.462,47,5.5,47H16c1.657,0,3,1.343,3,3v0c0,1.657-1.343,3-3,3h-0.5 c-2.485,0-4.5,2.015-4.5,4.5v0c0,2.485,2.015,4.5,4.5,4.5H33h22c2.209,0,4-1.791,4-4v0c0-2.209-1.791-4-4-4h-2.5 c-1.933,0-3.5-1.567-3.5-3.5v0c0-1.933,1.567-3.5,3.5-3.5H60c2.209,0,4-1.791,4-4v0c0-2.209-1.791-4-4-4h-1.5 c-2.485,0-4.5-2.015-4.5-4.5v0c0-2.485,2.015-4.5,4.5-4.5H59C61.761,30,64,27.761,64,25z"/><linearGradient id="aBcUje74kUovT31UrwrShc" x1="32" x2="32" y1="70.535" y2="-2.283" gradientUnits="userSpaceOnUse" spreadMethod="reflect"><stop offset="0" stop-color="#155cde"/><stop offset=".278" stop-color="#1f7fe5"/><stop offset=".569" stop-color="#279ceb"/><stop offset=".82" stop-color="#2cafef"/><stop offset="1" stop-color="#2eb5f0"/></linearGradient><path fill="url(#aBcUje74kUovT31UrwrShc)" d="M43,16H21l0,0c0.662-1.325,1.107-2.747,1.316-4.214l0.316-2.211 C22.843,8.098,24.109,7,25.602,7h12.796c1.493,0,2.759,1.098,2.97,2.576l0.316,2.211C41.893,13.253,42.338,14.675,43,16L43,16z M21,48c0.662,1.325,1.107,2.747,1.316,4.214l0.316,2.211C22.843,55.902,24.109,57,25.602,57h12.796c1.493,0,2.759-1.098,2.97-2.576 l0.316-2.211C41.893,50.747,42.338,49.325,43,48v0L21,48L21,48z"/><linearGradient id="aBcUje74kUovT31UrwrShd" x1="32" x2="32" y1="16" y2="48" gradientUnits="userSpaceOnUse" spreadMethod="reflect"><stop offset="0" stop-color="#a4a4a4"/><stop offset=".619" stop-color="gray"/><stop offset="1" stop-color="#6f6f6f"/><stop offset="1" stop-color="#6f6f6f"/></linearGradient><path fill="url(#aBcUje74kUovT31UrwrShd)" d="M43,48H21c-2.761,0-5-2.239-5-5V21c0-2.761,2.239-5,5-5h22c2.761,0,5,2.239,5,5v22 C48,45.761,45.761,48,43,48z"/><linearGradient id="aBcUje74kUovT31UrwrShe" x1="32" x2="32" y1="19" y2="61.566" gradientUnits="userSpaceOnUse" spreadMethod="reflect"><stop offset="0" stop-color="#dff9ff"/><stop offset="0" stop-color="#dff9ff"/><stop offset=".173" stop-color="#d8f8ff"/><stop offset=".423" stop-color="#c5f4ff"/><stop offset=".72" stop-color="#a5eeff"/><stop offset="1" stop-color="#81e7ff"/></linearGradient><path fill="url(#aBcUje74kUovT31UrwrShe)" d="M43,45H21c-1.105,0-2-0.895-2-2V21c0-1.105,0.895-2,2-2h22c1.105,0,2,0.895,2,2v22 C45,44.105,44.105,45,43,45z"/><linearGradient id="aBcUje74kUovT31UrwrShf" x1="39.5" x2="39.5" y1="44.958" y2="29.958" gradientUnits="userSpaceOnUse" spreadMethod="reflect"><stop offset="0" stop-color="#89e4fa"/><stop offset=".406" stop-color="#94e8fc"/><stop offset="1" stop-color="#acf0ff"/></linearGradient><path fill="url(#aBcUje74kUovT31UrwrShf)" d="M34,32.5L34,32.5c0,1.381,1.119,2.5,2.5,2.5h2c1.381,0,2.5,1.119,2.5,2.5v0 c0,1.381-1.119,2.5-2.5,2.5h0c-1.381,0-2.5,1.119-2.5,2.5v0c0,1.381,1.119,2.5,2.5,2.5H43c1.105,0,2-0.895,2-2V30h-8.5 C35.119,30,34,31.119,34,32.5z"/><linearGradient id="aBcUje74kUovT31UrwrShg" x1="49.5" x2="49.5" y1="14.486" y2="29.049" gradientUnits="userSpaceOnUse" spreadMethod="reflect"><stop offset="0" stop-color="#a4a4a4"/><stop offset=".63" stop-color="#7f7f7f"/><stop offset="1" stop-color="#6f6f6f"/><stop offset="1" stop-color="#6f6f6f"/></linearGradient><path fill="url(#aBcUje74kUovT31UrwrShg)" d="M48,34L48,34c1.657,0,3-1.343,3-3v-4c0-1.657-1.343-3-3-3h0V34z"/><linearGradient id="aBcUje74kUovT31UrwrShh" x1="27" x2="27" y1="33" y2="19" gradientUnits="userSpaceOnUse" spreadMethod="reflect"><stop offset="0" stop-color="#ecf9fd"/><stop offset=".848" stop-color="#f2fdff"/><stop offset="1" stop-color="#f4feff"/></linearGradient><path fill="url(#aBcUje74kUovT31UrwrShh)" d="M29.5,33c1.381,0,2.5-1.119,2.5-2.5v0c0-1.381-1.119-2.5-2.5-2.5H28c-1.105,0-2-0.895-2-2v0 c0-1.105,0.895-2,2-2h4.5c1.381,0,2.5-1.119,2.5-2.5v0c0-1.381-1.119-2.5-2.5-2.5H21c-1.105,0-2,0.895-2,2v12H29.5z"/><linearGradient id="aBcUje74kUovT31UrwrShi" x1="32" x2="32" y1="39" y2="26" gradientUnits="userSpaceOnUse" spreadMethod="reflect"><stop offset="0" stop-color="#ff634d"/><stop offset=".204" stop-color="#fe6464"/><stop offset=".521" stop-color="#fc6581"/><stop offset=".794" stop-color="#fa6694"/><stop offset=".989" stop-color="#fa669a"/><stop offset="1" stop-color="#fa669a"/></linearGradient><path fill="url(#aBcUje74kUovT31UrwrShi)" d="M39.905,29.155c-0.342-1.564-1.695-2.808-3.341-3.088c-1.69-0.288-3.223,0.389-4.129,1.545 c-0.213,0.272-0.657,0.272-0.869,0c-0.906-1.156-2.439-1.833-4.129-1.545c-1.646,0.281-3,1.524-3.341,3.088 c-0.322,1.476,0.2,2.849,1.189,3.763l-0.001,0.001l5.79,5.711c0.511,0.493,1.345,0.493,1.855,0l5.787-5.71l-0.001,0 C39.704,32.006,40.227,30.631,39.905,29.155z"/><linearGradient id="aBcUje74kUovT31UrwrShj" x1="28" x2="28" y1="33" y2="26.553" gradientUnits="userSpaceOnUse" spreadMethod="reflect"><stop offset="0" stop-color="#fc6d83"/><stop offset=".161" stop-color="#fc6f8b"/><stop offset=".649" stop-color="#fb749d"/><stop offset="1" stop-color="#fb76a3"/></linearGradient><path fill="url(#aBcUje74kUovT31UrwrShj)" d="M32,30.5c0-1.381-1.119-2.5-2.5-2.5H28c-0.911,0-1.672-0.613-1.913-1.447 c-0.998,0.558-1.751,1.496-1.992,2.601c-0.322,1.476,0.2,2.849,1.189,3.763l-0.001,0.001L25.365,33H29.5 C30.881,33,32,31.881,32,30.5z"/></svg>