<svg xmlns="http://www.w3.org/2000/svg"  viewBox="0 0 48 48" width="50px" height="50px"><linearGradient id="iH5_owIq8xmtQBzGkFJCUa" x1="10.69" x2="24.707" y1="7.022" y2="45.721" gradientUnits="userSpaceOnUse"><stop offset="0" stop-color="#33bef0"/><stop offset="1" stop-color="#0a85d9"/></linearGradient><path fill="url(#iH5_owIq8xmtQBzGkFJCUa)" d="M22.664,36.052c-2.087,0-4.48,1.311-4.48,3.95c0,2.639,2.301,3.998,4.48,3.998 s4.408-1.219,4.408-3.998C27.072,37.222,24.751,36.052,22.664,36.052z"/><linearGradient id="iH5_owIq8xmtQBzGkFJCUb" x1="20.22" x2="34.237" y1="3.57" y2="42.269" gradientUnits="userSpaceOnUse"><stop offset="0" stop-color="#33bef0"/><stop offset="1" stop-color="#0a85d9"/></linearGradient><path fill="url(#iH5_owIq8xmtQBzGkFJCUb)" d="M22.905,4c-4.299,0-7.622,1.422-9.357,2.386C13.205,6.577,13,6.932,13,7.324 c0,1.257,0,4.146,0,5.942c0,0.601,0.684,0.951,1.167,0.593C15.874,12.591,18.647,11,22,11c0.633,0,4.151,0.135,4.151,3.714 c0,5.684-7.89,5.979-7.89,13.643c0,0.974,0.306,2.443,0.475,3.183C18.798,31.81,19.034,32,19.313,32c1.125,0,4.006,0,5.572,0 c0.497,0,0.836-0.496,0.655-0.959c-0.216-0.554-0.419-1.259-0.419-1.919C25.122,23.303,35,22.522,35,14 C35,12.311,34.344,4,22.905,4z"/></svg>