<svg xmlns="http://www.w3.org/2000/svg"  viewBox="0 0 64 64" width="50px" height="50px"><radialGradient id="6mKGLC2Wduz6tIikgM~56a" cx="39.833" cy="35.917" r="26" gradientUnits="userSpaceOnUse" spreadMethod="reflect"><stop offset="0" stop-color="#afeeff"/><stop offset=".193" stop-color="#bbf1ff"/><stop offset=".703" stop-color="#d7f8ff"/><stop offset="1" stop-color="#e1faff"/></radialGradient><path fill="url(#6mKGLC2Wduz6tIikgM~56a)" d="M13,8L13,8c2.209,0,4-1.791,4-4v0c0-2.209-1.791-4-4-4h0c-2.209,0-4,1.791-4,4v0 C9,6.209,10.791,8,13,8z"/><radialGradient id="6mKGLC2Wduz6tIikgM~56b" cx="31.417" cy="29.917" r="28.77" gradientUnits="userSpaceOnUse" spreadMethod="reflect"><stop offset="0" stop-color="#afeeff"/><stop offset=".193" stop-color="#bbf1ff"/><stop offset=".703" stop-color="#d7f8ff"/><stop offset="1" stop-color="#e1faff"/></radialGradient><path fill="url(#6mKGLC2Wduz6tIikgM~56b)" d="M7.5,64L7.5,64c1.933,0,3.5-1.567,3.5-3.5v0c0-1.933-1.567-3.5-3.5-3.5h0 C5.567,57,4,58.567,4,60.5v0C4,62.433,5.567,64,7.5,64z"/><radialGradient id="6mKGLC2Wduz6tIikgM~56c" cx="32" cy="32" r="32" gradientUnits="userSpaceOnUse" spreadMethod="reflect"><stop offset="0" stop-color="#afeeff"/><stop offset=".193" stop-color="#bbf1ff"/><stop offset=".703" stop-color="#d7f8ff"/><stop offset="1" stop-color="#e1faff"/></radialGradient><path fill="url(#6mKGLC2Wduz6tIikgM~56c)" d="M62,20.5L62,20.5c0-2.485-2.015-4.5-4.5-4.5H51c-2.209,0-4-1.791-4-4v0c0-2.209,1.791-4,4-4 h1c2.209,0,4-1.791,4-4v0c0-2.209-1.791-4-4-4L24,0c-2.209,0-4,1.791-4,4v0c0,2.209,1.791,4,4,4h2c1.657,0,3,1.343,3,3v0 c0,1.657-1.343,3-3,3H5.5C3.567,14,2,15.567,2,17.5v0C2,19.433,3.567,21,5.5,21H8c1.657,0,3,1.343,3,3v0c0,1.657-1.343,3-3,3H5 c-2.761,0-5,2.239-5,5v0c0,2.761,2.239,5,5,5h8.5c1.933,0,3.5,1.567,3.5,3.5v0c0,1.933-1.567,3.5-3.5,3.5H6c-2.209,0-4,1.791-4,4v0 c0,2.209,1.791,4,4,4h11.5c1.381,0,2.5,1.119,2.5,2.5v0c0,1.381-1.119,2.5-2.5,2.5h0c-1.933,0-3.5,1.567-3.5,3.5v0 c0,1.933,1.567,3.5,3.5,3.5h42c1.933,0,3.5-1.567,3.5-3.5v0c0-1.933-1.567-3.5-3.5-3.5H59c-1.105,0-2-0.895-2-2v0 c0-1.105,0.895-2,2-2h1c2.209,0,4-1.791,4-4v0c0-2.209-1.791-4-4-4H48.5c-1.381,0-2.5-1.119-2.5-2.5v0c0-1.381,1.119-2.5,2.5-2.5 H60c2.209,0,4-1.791,4-4v0c0-2.209-1.791-4-4-4H47.5c-1.933,0-3.5-1.567-3.5-3.5v0c0-1.933,1.567-3.5,3.5-3.5h10 C59.985,25,62,22.985,62,20.5z"/><linearGradient id="6mKGLC2Wduz6tIikgM~56d" x1="40.5" x2="40.5" y1="69.675" y2="4.34" gradientUnits="userSpaceOnUse" spreadMethod="reflect"><stop offset="0" stop-color="#ffc050"/><stop offset=".004" stop-color="#ffc050"/><stop offset=".641" stop-color="#ffbe75"/><stop offset="1" stop-color="#ffbd85"/><stop offset="1" stop-color="#ffbd85"/></linearGradient><path fill="url(#6mKGLC2Wduz6tIikgM~56d)" d="M54.869,31L52.5,31c-0.828,0-1.5-0.672-1.5-1.5v0c0-0.828,0.672-1.5,1.5-1.5l2.369,0 c1.451,0,2.789-0.972,3.071-2.395C58.319,23.693,56.848,22,55,22H40.25l0.681-2.723C41.641,16.436,42,13.519,42,10.59V10 c0-2.209-1.791-4-4-4h-0.003c-1.167,0-2.178,0.811-2.431,1.95l-0.556,2.502c-0.66,2.971-2.154,5.691-4.305,7.843L26.33,22.67 c-0.885,0.885-1.68,1.854-2.373,2.895L23.667,26H23v24h0.44c1.036,2.904,3.812,5,7.06,5h3c0.112,0,0.222-0.012,0.333-0.017 C33.889,54.986,33.943,55,34,55h17.869c1.451,0,2.789-0.972,3.071-2.395C55.319,50.693,53.848,49,52,49h-0.5 c-0.828,0-1.5-0.672-1.5-1.5l0,0c0-0.828,0.672-1.5,1.5-1.5h2.369c1.451,0,2.789-0.972,3.071-2.395C57.319,41.693,55.848,40,54,40 h-1.5c-0.828,0-1.5-0.672-1.5-1.5l0,0c0-0.828,0.672-1.5,1.5-1.5H55c1.848,0,3.319-1.693,2.94-3.605 C57.657,31.972,56.32,31,54.869,31z"/><linearGradient id="6mKGLC2Wduz6tIikgM~56e" x1="15.5" x2="15.5" y1="62.922" y2="16.332" gradientUnits="userSpaceOnUse" spreadMethod="reflect"><stop offset="0" stop-color="#31995f"/><stop offset=".093" stop-color="#329e62"/><stop offset=".666" stop-color="#39ba71"/><stop offset="1" stop-color="#3bc477"/></linearGradient><path fill="url(#6mKGLC2Wduz6tIikgM~56e)" d="M7,24.813V24.81C7,23.258,8.258,22,9.81,22H21c1.657,0,3,1.343,3,3v27c0,1.657-1.343,3-3,3 h-7.373c-1.504,0-2.775-1.113-2.974-2.604L7.025,25.185C7.008,25.062,7,24.938,7,24.813z"/><linearGradient id="6mKGLC2Wduz6tIikgM~56f" x1="17" x2="17" y1="44.885" y2="52.982" gradientUnits="userSpaceOnUse" spreadMethod="reflect"><stop offset="0" stop-color="#edfbff"/><stop offset="1" stop-color="#b8efff"/></linearGradient><path fill="url(#6mKGLC2Wduz6tIikgM~56f)" d="M17 45A3 3 0 1 0 17 51A3 3 0 1 0 17 45Z"/></svg>