<svg xmlns="http://www.w3.org/2000/svg"  viewBox="0 0 48 48" width="50px" height="50px"><path fill="#8127a9" d="M14,21v-8V7.909c0-0.368-0.221-0.699-0.561-0.84c-0.341-0.14-0.731-0.063-0.991,0.197l-9.091,9.091 c-0.355,0.355-0.355,0.931,0,1.286l9.091,9.091C12.622,26.908,12.855,27,13.091,27c0.117,0,0.235-0.023,0.348-0.069 C13.779,26.79,14,26.459,14,26.091V21z"/><path d="M14,12.209l-3.44,3.44C10.199,16.009,10,16.489,10,17 c0,0.511,0.199,0.991,0.56,1.35L14,21.791V12.209z" opacity=".05"/><path d="M14,12.916l-3.087,3.087C10.646,16.269,10.5,16.624,10.5,17 s0.146,0.731,0.413,0.997L14,21.084V12.916z" opacity=".07"/><linearGradient id="vgbt789~MERaaKaAX_khfa" x1="8.909" x2="8.909" y1="346.11" y2="367.038" gradientTransform="rotate(180 24.455 194.055)" gradientUnits="userSpaceOnUse"><stop offset=".273" stop-color="#912fbd"/><stop offset=".588" stop-color="#8f2ebb"/><stop offset=".758" stop-color="#892bb3"/><stop offset=".894" stop-color="#7e26a5"/><stop offset="1" stop-color="#701f94"/></linearGradient><path fill="url(#vgbt789~MERaaKaAX_khfa)" d="M44,21v19c0,1.105-0.895,2-2,2h-4c-1.105,0-2-0.895-2-2V21H44z"/><linearGradient id="vgbt789~MERaaKaAX_khfb" x1="4.909" x2="37.909" y1="371.11" y2="371.11" gradientTransform="rotate(180 24.455 194.055)" gradientUnits="userSpaceOnUse"><stop offset="0" stop-color="#ae4cd5"/><stop offset="1" stop-color="#ac4ad5"/></linearGradient><path fill="url(#vgbt789~MERaaKaAX_khfb)" d="M11.266,17.643l9.091,9.091C20.531,26.908,20.764,27,21,27c0.117,0,0.235-0.023,0.348-0.069 c0.34-0.141,0.561-0.472,0.561-0.84l0-5.091H44l-5.748-5.657c-1.5-1.5-3.535-2.343-5.657-2.343H21.909V7.909 c0-0.368-0.221-0.699-0.561-0.84c-0.341-0.14-0.731-0.063-0.991,0.197l-9.091,9.091C10.911,16.712,10.911,17.288,11.266,17.643z"/></svg>