<svg xmlns="http://www.w3.org/2000/svg"  viewBox="0 0 64 64" width="50px" height="50px"><radialGradient id="J3WHH_HRBaB7ObkipFBOfa" cx="32.179" cy="31.859" r="33.261" gradientTransform="matrix(1 0 0 -1 0 64)" gradientUnits="userSpaceOnUse"><stop offset="0" stop-color="#9ceeff"/><stop offset=".642" stop-color="#c5f5ff"/><stop offset="1" stop-color="#dcf9ff"/></radialGradient><path fill="url(#J3WHH_HRBaB7ObkipFBOfa)" d="M63.995,23.312C63.896,21.419,62.197,20,60.302,20H60c-1.105,0-2-0.896-2-2s0.895-2,2-2h0.889	c1.451,0,2.781-0.981,3.054-2.406C64.311,11.677,62.851,10,61,10h-9c-1.105,0-2-0.896-2-2s0.895-2,2-2h1.889	c1.451,0,2.781-0.981,3.054-2.406C57.311,1.677,55.851,0,54,0H8.111C6.66,0,5.331,0.981,5.057,2.406C4.689,4.323,6.149,6,8,6h0.5	C9.881,6,11,7.119,11,8.5S9.881,11,8.5,11H4.172c-2.089,0-3.955,1.527-4.153,3.607C-0.209,16.992,1.661,19,4,19c1.105,0,2,0.896,2,2	s-0.895,2-2,2H3.698c-1.895,0-3.594,1.419-3.693,3.312C-0.101,28.331,1.505,30,3.5,30h4.589C8.035,30.66,8,31.326,8,32	c0,1.715,0.182,3.387,0.524,5H3.111c-1.451,0-2.781,0.981-3.054,2.406C-0.311,41.323,1.149,43,3,43h7.665	c0.667,1.292,1.453,2.511,2.335,3.653V47H6.698c-1.895,0-3.594,1.419-3.693,3.312C2.899,52.331,4.505,54,6.5,54h3	c1.381,0,2.5,1.119,2.5,2.5S10.881,59,9.5,59H8.643c-1.308,0-2.499,0.941-2.63,2.242C5.863,62.738,7.034,64,8.5,64H37h16.889	c1.451,0,2.781-0.981,3.054-2.406C57.311,59.677,55.851,58,54,58h-1c-1.105,0-2-0.896-2-2s0.895-2,2-2h5.358	c1.308,0,2.499-0.941,2.629-2.242C61.137,50.261,59.966,49,58.5,49H50v-1.16c1.535-1.741,2.815-3.708,3.799-5.84H60	c2.339,0,4.209-2.008,3.981-4.393C63.783,35.527,61.917,34,59.828,34h-3.931c0.2-2.417,0.051-4.767-0.422-7H60.5	C62.495,27,64.101,25.331,63.995,23.312z"/><circle cx="32" cy="32" r="24" fill="#fff"/><linearGradient id="J3WHH_HRBaB7ObkipFBOfb" x1="31.134" x2="34.462" y1="31.407" y2="50.343" gradientTransform="matrix(1 0 0 -1 0 64)" gradientUnits="userSpaceOnUse"><stop offset="0" stop-color="#e1714d"/><stop offset=".25" stop-color="#e2754e"/><stop offset="1" stop-color="#e47b50"/></linearGradient><path fill="url(#J3WHH_HRBaB7ObkipFBOfb)" d="M42.5,23.421h-0.003C42.461,19.022,37.777,15,32,15c-5.799,0-10.5,4.052-10.5,8.471	l-0.39,6.425C21.05,31.039,21.962,32,23.108,32h17.785c1.146,0,2.057-0.96,1.997-2.104L42.5,23.421z"/><linearGradient id="J3WHH_HRBaB7ObkipFBOfc" x1="32" x2="32" y1=".688" y2="27.895" gradientTransform="matrix(1 0 0 -1 0 64)" gradientUnits="userSpaceOnUse"><stop offset="0" stop-color="#fc724e"/><stop offset=".214" stop-color="#fc7366"/><stop offset=".524" stop-color="#fa7381"/><stop offset=".793" stop-color="#f97492"/><stop offset=".989" stop-color="#f97499"/></linearGradient><path fill="url(#J3WHH_HRBaB7ObkipFBOfc)" d="M32.96,36h-1.92c-5.269,0-9.54,4.271-9.54,9.54l0,0c0,1.359,1.102,2.46,2.46,2.46h16.08	c1.359,0,2.46-1.102,2.46-2.46l0,0C42.5,40.271,38.229,36,32.96,36z"/><linearGradient id="J3WHH_HRBaB7ObkipFBOfd" x1="32" x2="32" y1="15.796" y2="21.379" gradientTransform="matrix(1 0 0 -1 0 64)" gradientUnits="userSpaceOnUse"><stop offset="0" stop-color="#fdc462"/><stop offset=".004" stop-color="#fdc462"/><stop offset=".609" stop-color="#fdc380"/><stop offset="1" stop-color="#fdc28f"/><stop offset="1" stop-color="#fdc28f"/></linearGradient><path fill="url(#J3WHH_HRBaB7ObkipFBOfd)" d="M23.5,26c0-4.694,3.806-9,8.5-9s8.5,4.306,8.5,9s-3.806,8-8.5,8S23.5,30.694,23.5,26z"/><linearGradient id="J3WHH_HRBaB7ObkipFBOfe" x1="32" x2="32" y1="-12.187" y2="57.382" gradientTransform="matrix(1 0 0 -1 0 64)" gradientUnits="userSpaceOnUse"><stop offset="0" stop-color="#005ce2"/><stop offset=".278" stop-color="#0080e8"/><stop offset=".569" stop-color="#009ced"/><stop offset=".82" stop-color="#00b0f1"/><stop offset="1" stop-color="#00b5f2"/></linearGradient><path fill="url(#J3WHH_HRBaB7ObkipFBOfe)" d="M32,57C18.215,57,7,45.785,7,32S18.215,7,32,7s25,11.215,25,25S45.785,57,32,57z M32,10.846	c-11.664,0-21.154,9.49-21.154,21.154S20.336,53.154,32,53.154S53.154,43.664,53.154,32S43.664,10.846,32,10.846z"/><linearGradient id="J3WHH_HRBaB7ObkipFBOff" x1="30.141" x2="33.245" y1="32.86" y2="50.52" gradientTransform="matrix(1 0 0 -1 0 64)" gradientUnits="userSpaceOnUse"><stop offset="0" stop-color="#e1714d"/><stop offset=".25" stop-color="#e2754e"/><stop offset="1" stop-color="#e47b50"/></linearGradient><path fill="url(#J3WHH_HRBaB7ObkipFBOff)" d="M40,19l-5.112-1.917C34.954,16.721,35,16.354,35,15.977v-0.514C35,14.655,34.158,14,33.12,14	c-6.154,0-11.231,3.746-11.555,8.525L21.5,23.471l1.38,0.156L22.808,26l1.84-0.181c4.226-0.415,7.835-2.048,9.579-5.796	c2.362,0.108,3.509,1.841,3.732,4.114C38.116,25.74,39.389,27,41,27l0,0L40,19z"/><linearGradient id="J3WHH_HRBaB7ObkipFBOfg" x1="27.25" x2="27.25" y1="-10.811" y2="28.737" gradientTransform="matrix(1 0 0 -1 0 64)" gradientUnits="userSpaceOnUse"><stop offset="0" stop-color="#ff7d5c"/><stop offset=".214" stop-color="#ff7e72"/><stop offset=".524" stop-color="#fc7e8c"/><stop offset=".793" stop-color="#fa7f9c"/><stop offset=".989" stop-color="#fa7fa2"/><stop offset="1" stop-color="#fa7fa2"/></linearGradient><path fill="url(#J3WHH_HRBaB7ObkipFBOfg)" d="M32.99,45.28C33.12,46.76,31.95,48,30.5,48h-6.54c-0.68,0-1.3-0.28-1.74-0.72	c-0.44-0.44-0.72-1.06-0.72-1.74c0-4.79,3.53-8.76,8.13-9.44c0.89,0.3,1.5,1.19,1.35,2.2c-0.15,1.01-1.1,1.7-2.12,1.7H27.5	c-0.83,0-1.5,0.67-1.5,1.5s0.67,1.5,1.5,1.5h2.82C31.65,43,32.88,43.95,32.99,45.28z"/></svg>