<svg xmlns="http://www.w3.org/2000/svg"  viewBox="0 0 64 64" width="50px" height="50px"><radialGradient id="JrVxpNZG2viclfcizsdOra" cx="36.833" cy="35.917" r="26" gradientUnits="userSpaceOnUse" spreadMethod="reflect"><stop offset="0" stop-color="#afeeff"/><stop offset=".193" stop-color="#bbf1ff"/><stop offset=".703" stop-color="#d7f8ff"/><stop offset="1" stop-color="#e1faff"/></radialGradient><path fill="url(#JrVxpNZG2viclfcizsdOra)" d="M10,8L10,8c2.209,0,4-1.791,4-4v0c0-2.209-1.791-4-4-4h0C7.791,0,6,1.791,6,4v0 C6,6.209,7.791,8,10,8z"/><radialGradient id="JrVxpNZG2viclfcizsdOrb" cx="31.417" cy="29.917" r="28.77" gradientUnits="userSpaceOnUse" spreadMethod="reflect"><stop offset="0" stop-color="#afeeff"/><stop offset=".193" stop-color="#bbf1ff"/><stop offset=".703" stop-color="#d7f8ff"/><stop offset="1" stop-color="#e1faff"/></radialGradient><path fill="url(#JrVxpNZG2viclfcizsdOrb)" d="M7.5,64L7.5,64c1.933,0,3.5-1.567,3.5-3.5v0c0-1.933-1.567-3.5-3.5-3.5h0 C5.567,57,4,58.567,4,60.5v0C4,62.433,5.567,64,7.5,64z"/><radialGradient id="JrVxpNZG2viclfcizsdOrc" cx="32.5" cy="32" r="30.775" gradientUnits="userSpaceOnUse" spreadMethod="reflect"><stop offset="0" stop-color="#afeeff"/><stop offset=".193" stop-color="#bbf1ff"/><stop offset=".703" stop-color="#d7f8ff"/><stop offset="1" stop-color="#e1faff"/></radialGradient><path fill="url(#JrVxpNZG2viclfcizsdOrc)" d="M62,20.5L62,20.5c0-2.485-2.015-4.5-4.5-4.5H44c-2.209,0-4-1.791-4-4v0c0-2.209,1.791-4,4-4 h2c2.209,0,4-1.791,4-4v0c0-2.209-1.791-4-4-4L22,0c-2.209,0-4,1.791-4,4v0c0,2.209,1.791,4,4,4h2c1.657,0,3,1.343,3,3v0 c0,1.657-1.343,3-3,3H10.5C8.567,14,7,15.567,7,17.5v0c0,1.933,1.567,3.5,3.5,3.5H13c1.657,0,3,1.343,3,3v0c0,1.657-1.343,3-3,3H8 c-2.761,0-5,2.239-5,5v0c0,2.761,2.239,5,5,5h5.5c1.933,0,3.5,1.567,3.5,3.5v0c0,1.933-1.567,3.5-3.5,3.5H9c-2.209,0-4,1.791-4,4v0 c0,2.209,1.791,4,4,4h8.5c1.381,0,2.5,1.119,2.5,2.5v0c0,1.381-1.119,2.5-2.5,2.5h0c-1.933,0-3.5,1.567-3.5,3.5v0 c0,1.933,1.567,3.5,3.5,3.5h30c1.933,0,3.5-1.567,3.5-3.5v0c0-1.933-1.567-3.5-3.5-3.5H47c-1.105,0-2-0.895-2-2v0 c0-1.105,0.895-2,2-2h7c2.209,0,4-1.791,4-4v0c0-2.209-1.791-4-4-4h-6.5c-1.381,0-2.5-1.119-2.5-2.5v0c0-1.381,1.119-2.5,2.5-2.5 H48c2.209,0,4-1.791,4-4v0c0-2.209-1.791-4-4-4h-1.5c-1.933,0-3.5-1.567-3.5-3.5v0c0-1.933,1.567-3.5,3.5-3.5h11 C59.985,25,62,22.985,62,20.5z"/><radialGradient id="JrVxpNZG2viclfcizsdOrd" cx="35.917" cy="35.417" r="27.938" gradientUnits="userSpaceOnUse" spreadMethod="reflect"><stop offset="0" stop-color="#afeeff"/><stop offset=".193" stop-color="#bbf1ff"/><stop offset=".703" stop-color="#d7f8ff"/><stop offset="1" stop-color="#e1faff"/></radialGradient><path fill="url(#JrVxpNZG2viclfcizsdOrd)" d="M59,40L59,40c-2.209,0-4-1.791-4-4v0c0-2.209,1.791-4,4-4h0c2.209,0,4,1.791,4,4v0 C63,38.209,61.209,40,59,40z"/><linearGradient id="JrVxpNZG2viclfcizsdOre" x1="32" x2="32" y1="6" y2="29" gradientUnits="userSpaceOnUse" spreadMethod="reflect"><stop offset="0" stop-color="#a4a4a4"/><stop offset=".63" stop-color="#7f7f7f"/><stop offset="1" stop-color="#6f6f6f"/><stop offset="1" stop-color="#6f6f6f"/></linearGradient><path fill="url(#JrVxpNZG2viclfcizsdOre)" d="M32,6c-7.18,0-13,5.82-13,13v10h5V19c0-4.411,3.589-8,8-8s8,3.589,8,8v10h5V19 C45,11.82,39.18,6,32,6z"/><linearGradient id="JrVxpNZG2viclfcizsdOrf" x1="32" x2="32" y1="57" y2="25" gradientUnits="userSpaceOnUse" spreadMethod="reflect"><stop offset="0" stop-color="#ff9757"/><stop offset="1" stop-color="#ffb65b"/><stop offset="1" stop-color="#ffb65b"/></linearGradient><path fill="url(#JrVxpNZG2viclfcizsdOrf)" d="M49,57H15c-1.657,0-3-1.343-3-3V35c0-5.523,4.477-10,10-10h20c5.523,0,10,4.477,10,10v19 C52,55.657,50.657,57,49,57z"/><g><linearGradient id="JrVxpNZG2viclfcizsdOrg" x1="-175.321" x2="-175.321" y1="18.542" y2="41.209" gradientTransform="rotate(180 -78 32)" gradientUnits="userSpaceOnUse" spreadMethod="reflect"><stop offset="0" stop-color="#ffc050"/><stop offset=".004" stop-color="#ffc050"/><stop offset=".641" stop-color="#ffbe75"/><stop offset="1" stop-color="#ffbd85"/><stop offset="1" stop-color="#ffbd85"/></linearGradient><path fill="url(#JrVxpNZG2viclfcizsdOrg)" d="M12,35v4l7.357,0c1.308,0,2.499-0.941,2.63-2.242C22.137,35.261,20.966,34,19.5,34h-0.393 c-0.996,0-1.92-0.681-2.08-1.664C16.824,31.083,17.785,30,19,30l5,0c1.308,0,2.499-0.941,2.63-2.242 C26.779,26.261,25.608,25,24.143,25H22C16.477,25,12,29.477,12,35z"/></g><linearGradient id="JrVxpNZG2viclfcizsdOrh" x1="44.5" x2="44.5" y1="57" y2="32.367" gradientUnits="userSpaceOnUse" spreadMethod="reflect"><stop offset="0" stop-color="#ff8b67"/><stop offset=".847" stop-color="#ffa76a"/><stop offset="1" stop-color="#ffad6b"/><stop offset="1" stop-color="#ffad6b"/></linearGradient><path fill="url(#JrVxpNZG2viclfcizsdOrh)" d="M41,43L41,43c0,1.657,1.343,3,3,3h0.5c1.381,0,2.5,1.119,2.5,2.5v0c0,1.381-1.119,2.5-2.5,2.5 H40c-1.657,0-3,1.343-3,3v0c0,1.657,1.343,3,3,3h9c1.657,0,3-1.343,3-3V40h-8C42.343,40,41,41.343,41,43z"/><g><path fill="#fff" d="M32 48A2 2 0 1 0 32 52 2 2 0 1 0 32 48zM32 46c-1.104 0-2-.896-2-2 0-2.328 1.452-3.565 2.513-4.469 1.031-.878 1.487-1.313 1.487-2.4C34 36.335 33.74 35 32 35s-2 1.335-2 2.131c0 1.104-.896 2-2 2s-2-.896-2-2C26 33.521 28.467 31 32 31s6 2.521 6 6.131c0 2.981-1.741 4.464-2.894 5.445C34.176 43.369 34 43.596 34 44 34 45.104 33.104 46 32 46z"/></g></svg>