<svg xmlns="http://www.w3.org/2000/svg"  viewBox="0 0 64 64" width="50px" height="50px"><radialGradient id="X5j_J1VpGDjo6LQ4W7ewKa" cx="32" cy="32" r="32" gradientTransform="matrix(1 0 0 -1 0 64)" gradientUnits="userSpaceOnUse"><stop offset="0" stop-color="#9ceeff"/><stop offset=".642" stop-color="#c5f5ff"/><stop offset="1" stop-color="#dcf9ff"/></radialGradient><path fill="url(#X5j_J1VpGDjo6LQ4W7ewKa)" d="M63.995,46.312C64.101,48.33,62.495,50,60.5,50H50c-2.209,0-4,1.791-4,4l0,0	c0,2.209,1.791,4,4,4h1c1.851,0,3.311,1.677,2.943,3.594C53.67,63.019,52.34,64,50.889,64H13c-1.851,0-3.311-1.677-2.943-3.594	C10.33,58.981,11.66,58,13.111,58H14c2.209,0,4-1.791,4-4v-1c0-2.209-1.791-4-4-4H4c-2.339,0-4.209-2.008-3.981-4.393	C0.217,42.527,2.083,41,4.172,41H20v-8H5c-2.339,0-3.209-2.008-2.981-4.393C2.217,26.527,3.083,25,5.172,25H20v-5H3.5	c-1.995,0-3.601-1.67-3.495-3.688C0.104,14.419,1.803,13,3.698,13H16.5c1.933,0,3.5-1.567,3.5-3.5l0,0C20,7.567,18.433,6,16.5,6	h-1.53C13.33,6,12,4.67,12,3.03V2.97C12,1.33,13.33,0,14.97,0h34.06C50.67,0,52,1.33,52,2.97v0.06C52,4.67,50.67,6,49.03,6H47	c-1.657,0-3,1.343-3,3l0,0c0,1.657,1.343,3,3,3h13c2.339,0,4.209,2.007,3.981,4.393C63.783,18.473,61.917,20,59.828,20H44v8h15	c2.339,0,4.209,2.007,3.981,4.393C62.783,34.473,60.917,36,58.828,36H44v7h16.302C62.197,43,63.896,44.419,63.995,46.312z M63,61	L63,61c0-1.657-1.343-3-3-3l0,0c-1.657,0-3,1.343-3,3l0,0c0,1.657,1.343,3,3,3l0,0C61.657,64,63,62.657,63,61z M9,3L9,3	c0-1.657-1.343-3-3-3l0,0C4.343,0,3,1.343,3,3l0,0c0,1.657,1.343,3,3,3l0,0C7.657,6,9,4.657,9,3z"/><rect width="44" height="44" x="10" y="10" fill="#fff"/><linearGradient id="X5j_J1VpGDjo6LQ4W7ewKb" x1="32" x2="32" y1="1.446" y2="55.699" gradientTransform="matrix(1 0 0 -1 0 64)" gradientUnits="userSpaceOnUse"><stop offset="0" stop-color="#005ce2"/><stop offset=".278" stop-color="#0080e8"/><stop offset=".569" stop-color="#009ced"/><stop offset=".82" stop-color="#00b0f1"/><stop offset="1" stop-color="#00b5f2"/></linearGradient><path fill="url(#X5j_J1VpGDjo6LQ4W7ewKb)" d="M51,56H13c-2.757,0-5-2.243-5-5V13c0-2.757,2.243-5,5-5h38c2.757,0,5,2.243,5,5v38	C56,53.757,53.757,56,51,56z M13,12c-0.552,0-1,0.448-1,1v38c0,0.552,0.448,1,1,1h38c0.552,0,1-0.448,1-1V13c0-0.552-0.448-1-1-1H13	z"/><linearGradient id="X5j_J1VpGDjo6LQ4W7ewKc" x1="32.804" x2="31.331" y1="26.465" y2="10.259" gradientTransform="matrix(1 0 0 -1 0 64)" gradientUnits="userSpaceOnUse"><stop offset="0" stop-color="#00d772"/><stop offset=".428" stop-color="#00ca71"/><stop offset="1" stop-color="#00b26e"/></linearGradient><path fill="url(#X5j_J1VpGDjo6LQ4W7ewKc)" d="M32.96,37h-1.92c-5.269,0-9.54,4.271-9.54,9.54l0,0c0,1.359,1.102,2.46,2.46,2.46h16.08	c1.359,0,2.46-1.102,2.46-2.46l0,0C42.5,41.271,38.229,37,32.96,37z"/><linearGradient id="X5j_J1VpGDjo6LQ4W7ewKd" x1="32" x2="32" y1="14.796" y2="20.379" gradientTransform="matrix(1 0 0 -1 0 64)" gradientUnits="userSpaceOnUse"><stop offset="0" stop-color="#fdc462"/><stop offset=".004" stop-color="#fdc462"/><stop offset=".609" stop-color="#fdc380"/><stop offset="1" stop-color="#fdc28f"/><stop offset="1" stop-color="#fdc28f"/></linearGradient><path fill="url(#X5j_J1VpGDjo6LQ4W7ewKd)" d="M23.5,27c0-4.694,3.806-9,8.5-9s8.5,4.306,8.5,9s-3.806,8-8.5,8S23.5,31.694,23.5,27z"/><linearGradient id="X5j_J1VpGDjo6LQ4W7ewKe" x1="31.978" x2="32.234" y1="37.541" y2="49.116" gradientTransform="matrix(1 0 0 -1 0 64)" gradientUnits="userSpaceOnUse"><stop offset="0" stop-color="#e1714d"/><stop offset=".25" stop-color="#e2754e"/><stop offset="1" stop-color="#e47b50"/></linearGradient><path fill="url(#X5j_J1VpGDjo6LQ4W7ewKe)" d="M39.539,17c-4.628,0-5.102-2-9.255-2c-3.471,0-5.784,1.791-5.784,4	c0,0.505,0.183,0.986,0.505,1.431C24.078,21.339,23.5,22.601,23.5,24v3c1.203,0,2.28-0.746,2.702-1.873l1.126-3.004	C28.615,22.671,30.244,23,32.02,23c1.848,0,3.392-0.365,4.639-0.911l1.14,3.039C38.22,26.254,39.297,27,40.5,27v-3	c0-1.359-0.546-2.588-1.427-3.49C40.796,18.861,40.963,17,39.539,17z"/><linearGradient id="X5j_J1VpGDjo6LQ4W7ewKf" x1="27.25" x2="27.25" y1="28.536" y2="-2.205" gradientTransform="matrix(1 0 0 -1 0 64)" gradientUnits="userSpaceOnUse"><stop offset="0" stop-color="#00de8b"/><stop offset=".478" stop-color="#00d189"/><stop offset="1" stop-color="#00be86"/></linearGradient><path fill="url(#X5j_J1VpGDjo6LQ4W7ewKf)" d="M30.987,46.759C30.856,48.06,29.663,49,28.356,49H23.96c-0.68,0-1.3-0.28-1.74-0.72	c-0.44-0.44-0.72-1.06-0.72-1.74c0-5.26,4.25-9.52,9.5-9.54h0.04c0.69,0,1.364,0.346,1.688,0.955C33.532,39.466,32.436,41,31,41	h-3.5c-0.828,0-1.5,0.672-1.5,1.5l0,0c0,0.828,0.672,1.5,1.5,1.5h1C29.965,44,31.138,45.263,30.987,46.759z"/></svg>