<svg xmlns="http://www.w3.org/2000/svg"  viewBox="0 0 64 64" width="50px" height="50px"><radialGradient id="QwP9WonCCC4o10jj5O3OBa" cx="33.128" cy="25.511" r="32.462" gradientTransform="matrix(1 0 0 -1 0 66)" gradientUnits="userSpaceOnUse"><stop offset="0" stop-color="#afeeff"/><stop offset=".193" stop-color="#bbf1ff"/><stop offset=".703" stop-color="#d7f8ff"/><stop offset="1" stop-color="#e1faff"/></radialGradient><path fill="url(#QwP9WonCCC4o10jj5O3OBa)" d="M52.03,37.34c0.16,0.98,1.08,1.66,2.08,1.66h4.39c2.63,0,4.75,2.28,4.48,4.96	C62.74,46.3,60.64,48,58.29,48H54c-1.22,0-2.18,1.08-1.97,2.34c0.16,0.98,1.08,1.66,2.08,1.66h3.39c1.24,0,2.37,0.5,3.18,1.32	C61.5,54.13,62,55.26,62,56.5c0,2.49-2.01,4.5-4.5,4.5h-52c-1.52,0-2.9-0.62-3.89-1.61C0.62,58.4,0,57.02,0,55.5	C0,52.46,2.46,50,5.5,50H16c0.83,0,1.58-0.34,2.12-0.88C18.66,48.58,19,47.83,19,47c0-1.66-1.34-3-3-3H4.5	c-2.63,0-4.75-2.28-4.48-4.96C0.26,36.7,2.36,35,4.71,35H20c1.71,0,3.09-1.43,3-3.16C22.91,30.22,21.45,29,19.83,29H4.5	c-2.63,0-4.75-2.28-4.48-4.96C0.26,21.7,2.37,20,4.71,20h6.79c0.69,0,1.32-0.28,1.77-0.73C13.72,18.82,14,18.19,14,17.5	c0-1.38-1.12-2.5-2.5-2.5h-4c-1.52,0-2.9-0.62-3.89-1.61S2,11.02,2,9.5C2,6.46,4.46,4,7.5,4h49c3.21,0,5.8,2.79,5.47,6.06	C61.68,12.92,60.11,15,57.24,15H55.5c-2.49,0-4.5,2.01-4.5,4.5c0,1.24,0.5,2.37,1.32,3.18C53.13,23.5,54.26,24,55.5,24h3	c3.21,0,5.8,2.79,5.47,6.06C63.68,32.92,61.11,35,58.24,35H54C52.78,35,51.82,36.08,52.03,37.34z"/><linearGradient id="QwP9WonCCC4o10jj5O3OBb" x1="32.188" x2="32.188" y1="67.766" y2="40.373" gradientTransform="matrix(1 0 0 -1 0 66)" gradientUnits="userSpaceOnUse"><stop offset=".122" stop-color="#5e6d7b"/><stop offset=".191" stop-color="#5d6b79"/><stop offset="1" stop-color="#515c69"/></linearGradient><path fill="url(#QwP9WonCCC4o10jj5O3OBb)" d="M18.376,6h1.146c0.453,0,0.849,0.304,0.966,0.742l1.923,7.197h0.206l1.833-7.181	c0.113-0.443,0.512-0.753,0.969-0.753h1.167c0.68,0,1.162,0.665,0.95,1.312L24.16,18v7.222c0,0.552-0.448,1-1,1h-1.27	c-0.552,0-1-0.448-1-1v-7.238L17.425,7.309C17.215,6.663,17.697,6,18.376,6z M27.815,14.555c0-1.132,0.393-2.038,1.175-2.707	c0.78-0.673,1.83-1.011,3.15-1.011c1.204,0,2.187,0.354,2.954,1.065c0.766,0.705,1.15,1.619,1.15,2.736V22.2	c0,1.251-0.375,2.236-1.127,2.952c-0.752,0.714-1.783,1.07-3.107,1.07c-1.274,0-2.286-0.374-3.056-1.108	c-0.763-0.734-1.142-1.725-1.142-2.968v-7.592h0.003C27.815,14.554,27.815,14.555,27.815,14.555z M30.803,22.42	c0,0.397,0.102,0.714,0.317,0.933c0.204,0.217,0.498,0.326,0.884,0.326c0.395,0,0.703-0.111,0.935-0.338	c0.231-0.218,0.35-0.529,0.35-0.922v-7.976c0-0.318-0.122-0.576-0.358-0.774c-0.234-0.195-0.545-0.296-0.927-0.296	c-0.355,0-0.646,0.101-0.868,0.296c-0.221,0.198-0.333,0.456-0.333,0.774L30.803,22.42z M47,12.207v13.015c0,0.552-0.448,1-1,1	h-0.903c-0.552,0-1-0.448-1-1V24.66c-0.616,0.457-1.091,0.785-1.673,1.093c-0.576,0.311-1.138,0.469-1.681,0.469	c-0.673,0-1.177-0.215-1.519-0.653c-0.342-0.433-0.509-1.085-0.509-1.96V12.207c0-0.552,0.448-1,1-1h0.901c0.552,0,1,0.448,1,1	v10.391c0,0.341,0.062,0.592,0.186,0.75c0.116,0.15,0.32,0.234,0.588,0.234c0.218,0,0.488-0.103,0.808-0.311	c0.33-0.204,0.629-0.468,0.899-0.786V12.207c0-0.552,0.448-1,1-1H46C46.552,11.207,47,11.655,47,12.207z"/><path fill="#fff" d="M53.376,35.522c0-3.383-2.802-6.124-6.253-6.124c-4.928-0.207-9.974-0.293-15.123-0.286	c-5.146-0.007-10.192,0.081-15.123,0.286c-3.448,0-6.25,2.742-6.25,6.124c-0.205,2.675-0.3,5.353-0.293,8.034	c-0.007,2.677,0.087,5.354,0.295,8.032c0,3.387,2.799,6.129,6.249,6.129c4.931,0.202,9.977,0.289,15.123,0.282	c5.148,0.012,10.195-0.081,15.123-0.282c3.451,0,6.253-2.742,6.253-6.129c0.205-2.678,0.302-5.356,0.29-8.032	C53.678,40.875,53.581,38.198,53.376,35.522z"/><linearGradient id="QwP9WonCCC4o10jj5O3OBc" x1="32.001" x2="32.001" y1="7" y2="46.438" gradientTransform="matrix(1 0 0 -1 0 66)" gradientUnits="userSpaceOnUse"><stop offset="0" stop-color="#ff5840"/><stop offset=".007" stop-color="#ff5840"/><stop offset=".989" stop-color="#fa528c"/><stop offset="1" stop-color="#fa528c"/></linearGradient><path fill="url(#QwP9WonCCC4o10jj5O3OBc)" d="M54.692,35.657c0-3.51-2.982-6.355-6.644-6.355C42.815,29.084,37.466,28.991,32,29.001	c-5.466-0.01-10.815,0.083-16.048,0.301c-3.662,0-6.633,2.845-6.633,6.355c-0.223,2.783-0.318,5.565-0.318,8.348	c0,2.772,0.095,5.555,0.318,8.338c0,3.52,2.972,6.365,6.633,6.365C21.185,58.916,26.534,59.01,32,58.999	c5.466,0.01,10.815-0.083,16.048-0.291c3.662,0,6.644-2.845,6.644-6.365c0.212-2.783,0.318-5.565,0.308-8.338	C55.01,41.222,54.904,38.44,54.692,35.657z"/><path fill="#fff" d="M49.09,48.01c-0.89,0-1.62,0.68-1.69,1.55c-0.01,0.02-0.01,0.05,0,0.08	c-0.01,0.02-0.01,0.04-0.01,0.06v0.14c-0.04,0.59-0.13,0.81-0.19,0.88c-0.11,0.15-0.34,0.23-0.68,0.23c-0.43,0-0.57-0.16-0.65-0.28	c-0.1-0.16-0.22-0.52-0.22-1.38v-2.35h4.83c0.17,0,0.3-0.12,0.31-0.29h-0.01v-3.59c0-1.4-0.36-2.5-1.06-3.26	c-0.72-0.77-1.75-1.17-3.06-1.17c-1.28,0-2.36,0.43-3.16,1.25c-0.82,0.82-1.23,1.88-1.23,3.18v6.31c0,1.41,0.38,2.54,1.11,3.38	c0.75,0.83,1.78,1.25,3.07,1.25c1.43,0,2.52-0.4,3.25-1.18c0.63-0.71,1-1.71,1.06-2.98l0.01-0.32	C50.69,48.67,49.97,48.01,49.09,48.01z M45.651,43.037c0-0.652,0.112-0.953,0.215-1.083c0.133-0.18,0.347-0.261,0.674-0.261	c0.307,0,0.521,0.081,0.644,0.251c0.102,0.15,0.225,0.451,0.225,1.093v1.123h-1.757L45.651,43.037L45.651,43.037z"/><path fill="#fff" d="M28.871,38.995c-0.911,0-1.65,0.739-1.65,1.65v9.193c-0.204,0.241-0.439,0.451-0.705,0.622	c-0.317,0.211-0.49,0.24-0.572,0.24c-0.225,0-0.286-0.07-0.296-0.1c-0.041-0.05-0.112-0.2-0.112-0.552v-8.623v-0.781	c0-0.911-0.739-1.65-1.65-1.65l0,0c-0.911,0-1.65,0.739-1.65,1.65v0.781v9.595c0,0.893,0.184,1.595,0.541,2.056	c0.368,0.502,0.919,0.752,1.645,0.752c0.562,0,1.124-0.161,1.716-0.481c0.368-0.211,0.725-0.481,1.083-0.813v0.004	c0,0.806,0.654,1.46,1.46,1.46h0.38c0.806,0,1.46-0.654,1.46-1.46V40.645C30.521,39.734,29.782,38.995,28.871,38.995L28.871,38.995z"/><path fill="#fff" d="M21.219,34H18h-3.33C13.748,34,13,34.748,13,35.67v0.01c0,0.922,0.748,1.67,1.67,1.67h1.456v13.714	v0.755c0,0.999,0.81,1.81,1.81,1.81l0,0c0.999,0,1.809-0.81,1.81-1.809l0.007-14.469h1.466c0.922,0,1.67-0.748,1.67-1.67V35.67	C22.889,34.748,22.142,34,21.219,34z"/><path fill="#fff" d="M40.85,42.64c0-1.21-0.25-2.15-0.73-2.8c-0.5-0.68-1.24-1.03-2.19-1.03c-0.46,0-0.93,0.12-1.38,0.38	c-0.25,0.13-0.48,0.3-0.71,0.49v-4.02c0-0.917-0.743-1.66-1.66-1.66l0,0c-0.917,0-1.66,0.743-1.66,1.66V53.1	c0.05,0.5,0.46,0.9,0.99,0.9h1.33c0.56,0,1-0.45,1-1v-0.22c0.18,0.28,0.46,0.57,0.71,0.69c0.46,0.22,0.98,0.33,1.54,0.33	c0.89,0,1.58-0.3,2.06-0.9c0.47-0.59,0.71-1.42,0.71-2.48L40.85,42.64z M37.48,50.05c0,0.46-0.09,0.67-0.18,0.78	C37.27,50.87,37.17,51,36.82,51c-0.17,0-0.34-0.03-0.51-0.11c-0.14-0.07-0.3-0.19-0.46-0.35v-8.52c0.13-0.12,0.25-0.22,0.38-0.28	c0.44-0.21,0.83-0.11,1.02,0.15c0.16,0.19,0.23,0.51,0.23,0.91C37.48,42.8,37.48,50.05,37.48,50.05z"/></svg>