<svg xmlns="http://www.w3.org/2000/svg"  viewBox="0 0 64 64" width="50px" height="50px"><radialGradient id="LaGGa1PhOUFCZxV7ihpnMa" cx="32" cy="-257.908" r="33.002" gradientTransform="matrix(1 0 0 -1 0 -225.816)" gradientUnits="userSpaceOnUse"><stop offset="0" stop-color="#efdcb1"/><stop offset="0" stop-color="#f2e0bb"/><stop offset=".011" stop-color="#f2e0bc"/><stop offset=".362" stop-color="#f9edd2"/><stop offset=".699" stop-color="#fef4df"/><stop offset="1" stop-color="#fff7e4"/></radialGradient><path fill="url(#LaGGa1PhOUFCZxV7ihpnMa)" d="M55.454,45.76c0.5,0.898,1.504,1.337,2.532,1.332c1.75-0.008,3.153,1.483,3.002,3.262 c-0.133,1.576-1.554,2.738-3.136,2.738H48v1H26h-8H7c-1.71,0-3.086-1.431-2.996-3.161c0.085-1.623,1.541-2.839,3.166-2.839H8 c1.215,0,2.176-1.083,1.973-2.336c-0.16-0.983-1.084-1.664-2.08-1.664H3c-1.71,0-3.086-1.431-2.996-3.161 c0.085-1.623,1.541-2.839,3.166-2.839H9.5c1.381,0,2.5-1.119,2.5-2.5l0,0c0-1.381-1.119-2.5-2.5-2.5l0,0 c-1.381,0-2.5-1.119-2.5-2.5l0,0c0-1.381,1.119-2.5,2.5-2.5H18v-7h-7.5c-1.995,0-3.601-1.67-3.495-3.688 c0.099-1.893,1.798-3.312,3.693-3.312H18v-4h24h6h8.5c1.995,0,3.601,1.67,3.495,3.688c-0.099,1.893-1.798,3.312-3.693,3.312H53.5 c-1.995,0-3.601,1.67-3.495,3.688c0.099,1.893,1.798,3.312,3.693,3.312H56c1.777,0,3.194,1.546,2.978,3.366 c-0.179,1.509-1.546,2.572-3.064,2.635c-1.197,0.05-2.122,1.153-1.874,2.406c0.188,0.948,1.083,1.593,2.049,1.593H60.5 c1.995,0,3.601,1.67,3.495,3.688c-0.099,1.893-1.798,3.312-3.693,3.312H58C55.808,41.092,54.166,43.442,55.454,45.76z M2.5,33.092 L2.5,33.092c1.381,0,2.5-1.119,2.5-2.5l0,0c0-1.381-1.119-2.5-2.5-2.5l0,0c-1.381,0-2.5,1.119-2.5,2.5l0,0 C0,31.973,1.119,33.092,2.5,33.092z"/><linearGradient id="LaGGa1PhOUFCZxV7ihpnMb" x1="33" x2="33" y1="-231.908" y2="-283.908" gradientTransform="matrix(1 0 0 -1 0 -225.816)" gradientUnits="userSpaceOnUse"><stop offset="0" stop-color="#00d772"/><stop offset=".746" stop-color="#00b26e"/><stop offset="1" stop-color="#00b26e"/></linearGradient><path fill="url(#LaGGa1PhOUFCZxV7ihpnMb)" d="M50,58.092H16c-1.657,0-3-1.343-3-3v-46c0-1.657,1.343-3,3-3h20.757 c0.796,0,1.559,0.316,2.121,0.879l13.243,13.243C52.684,20.776,53,21.539,53,22.335v32.757C53,56.749,51.657,58.092,50,58.092z"/><linearGradient id="LaGGa1PhOUFCZxV7ihpnMc" x1="45.5" x2="45.5" y1="7.092" y2="24.092" gradientUnits="userSpaceOnUse"><stop offset="0" stop-color="#00d772"/><stop offset=".746" stop-color="#00b26e"/><stop offset="1" stop-color="#00b26e"/></linearGradient><path fill="url(#LaGGa1PhOUFCZxV7ihpnMc)" d="M44,14.092c-1.657,0-6-5.343-6-7v14c0,1.657,1.343,3,3,3h12v-1.757 c0-0.434-0.102-0.855-0.279-1.243L44,14.092z"/><linearGradient id="LaGGa1PhOUFCZxV7ihpnMd" x1="38" x2="54.842" y1="-239.547" y2="-239.547" gradientTransform="matrix(1 0 0 -1 0 -225.816)" gradientUnits="userSpaceOnUse"><stop offset="0" stop-color="#00d772"/><stop offset=".318" stop-color="#00d272"/><stop offset=".669" stop-color="#00c570"/><stop offset=".996" stop-color="#00b26e"/><stop offset="1" stop-color="#00b26e"/></linearGradient><path fill="url(#LaGGa1PhOUFCZxV7ihpnMd)" d="M52.121,20.214L38.878,6.971c-0.255-0.255-0.556-0.452-0.878-0.6v11.721c0,1.657,1.343,3,3,3 h11.721C52.574,20.77,52.377,20.469,52.121,20.214z"/><path fill="#f1fcff" d="M45,50.092H21c-1.105,0-2-0.895-2-2l0,0c0-1.105,0.895-2,2-2h24c1.105,0,2,0.895,2,2l0,0 C47,49.197,46.105,50.092,45,50.092z M32,38.092h12.5c1.105,0,2,0.895,2,2l0,0c0,1.105-0.895,2-2,2H32c-1.105,0-2-0.895-2-2l0,0 C30,38.987,30.895,38.092,32,38.092z M21,38.092h9c1.105,0,2,0.895,2,2l0,0c0,1.105-0.895,2-2,2h-9c-1.105,0-2-0.895-2-2l0,0 C19,38.987,19.895,38.092,21,38.092z M23,32.092v16c0,1.105-0.895,1.5-2,1.5v0.5c-1.105,0-2-0.895-2-2v-16c0-1.105,0.895-2,2-2l0,0 C22.105,30.092,23,30.987,23,32.092z M33,32.092v16c0,1.105-0.895,1.5-2,1.5v0.5c-1.105,0-2-0.895-2-2v-16c0-1.105,0.895-2,2-2l0,0 C32.105,30.092,33,30.987,33,32.092z M47,32.092v16c0,1.105-0.895,2-2,2v-0.5c-1.105,0-2-0.395-2-1.5v-16c0-1.105,0.895-2,2-2l0,0 C46.105,30.092,47,30.987,47,32.092z M21,30.092h24c1.105,0,2,0.895,2,2l0,0c0,1.105-0.895,2-2,2H21c-1.105,0-2-0.895-2-2l0,0 C19,30.987,19.895,30.092,21,30.092z"/></svg>