<svg xmlns="http://www.w3.org/2000/svg"  viewBox="0 0 64 64" width="50px" height="50px"><radialGradient id="hlb14vkQhQ_8czSJDGVeKa" cx="32.5" cy="32" r="30.276" gradientUnits="userSpaceOnUse" spreadMethod="reflect"><stop offset="0" stop-color="#afeeff"/><stop offset=".193" stop-color="#bbf1ff"/><stop offset=".703" stop-color="#d7f8ff"/><stop offset="1" stop-color="#e1faff"/></radialGradient><path fill="url(#hlb14vkQhQ_8czSJDGVeKa)" d="M59,21h1.5c2.168,0,3.892-1.998,3.422-4.243C63.58,15.122,62.056,14,60.385,14L51,14 c-1.105,0-2-0.895-2-2c0-1.105,0.895-2,2-2h3.385c1.67,0,3.195-1.122,3.537-2.757C58.392,4.998,56.668,3,54.5,3H34.006H32.5h-24 C6.575,3,5,4.575,5,6.5S6.575,10,8.5,10H11c1.105,0,2,0.895,2,2c0,1.105-0.895,2-2,2l-6.385,0c-1.67,0-3.195,1.122-3.537,2.757 C0.608,19.002,2.332,21,4.5,21H18l0,11L4.615,32c-1.67,0-3.195,1.122-3.537,2.757C0.608,37.002,2.332,39,4.5,39H7 c1.105,0,2,0.895,2,2c0,1.105-0.895,2-2,2H4.5c-2.168,0-3.892,1.998-3.422,4.243C1.42,48.878,2.945,50,4.615,50H12 c1.105,0,2,0.895,2,2c0,1.105-0.895,2-2,2l-3.385,0c-1.67,0-3.195,1.122-3.537,2.757C4.608,59.002,6.332,61,8.5,61h22.494H32.5h21 c1.925,0,3.5-1.575,3.5-3.5S55.425,54,53.5,54H52c-1.105,0-2-0.895-2-2c0-1.105,0.895-2,2-2h5.385c1.67,0,3.195-1.122,3.537-2.757 C61.392,44.998,59.668,43,57.5,43H47l0-11h12.385c1.67,0,3.195-1.122,3.537-2.757C63.392,26.998,61.668,25,59.5,25H59 c-1.105,0-2-0.895-2-2C57,21.895,57.895,21,59,21z"/><linearGradient id="hlb14vkQhQ_8czSJDGVeKb" x1="32" x2="32" y1="57.998" y2="6" gradientUnits="userSpaceOnUse" spreadMethod="reflect"><stop offset="0" stop-color="#ff634d"/><stop offset=".225" stop-color="#fd6467"/><stop offset=".528" stop-color="#fc6583"/><stop offset=".793" stop-color="#fa6694"/><stop offset=".989" stop-color="#fa669a"/></linearGradient><path fill="url(#hlb14vkQhQ_8czSJDGVeKb)" d="M43,11.005c-3.572-1.223-6.46-2.82-8.651-4.289c-1.425-0.955-3.272-0.955-4.697,0 C27.46,8.185,24.573,9.782,21,11.005c-3.889,1.331-7.4,1.811-10.113,1.951c-1.065,0.055-1.888,0.935-1.884,2.001 C9.041,25.628,9.699,38.701,21,50.001c1.659,1.659,5.961,5.08,8.667,7.193c1.372,1.071,3.293,1.071,4.665,0 c2.706-2.113,7.008-5.534,8.667-7.193c11.301-11.3,11.959-24.373,11.998-35.045c0.004-1.066-0.82-1.946-1.884-2.001 C50.4,12.815,46.889,12.336,43,11.005z"/><path fill="#fff" d="M32,44c-7.168,0-13-5.832-13-13s5.832-13,13-13s13,5.832,13,13S39.168,44,32,44z M32,22 c-4.963,0-9,4.038-9,9s4.037,9,9,9s9-4.038,9-9S36.963,22,32,22z"/><path fill="#fff" d="M23.583,36.588l14.005-14.005c0.778-0.778,2.051-0.778,2.828,0l0,0c0.778,0.778,0.778,2.051,0,2.828 L26.412,39.417c-0.778,0.778-2.051,0.778-2.828,0l0,0C22.806,38.639,22.806,37.366,23.583,36.588z"/></svg>