<svg xmlns="http://www.w3.org/2000/svg"  viewBox="0 0 64 64" width="50px" height="50px"><radialGradient id="Hg5Gv3MYXNjw2e8Z9o2g5a" cx="32" cy="-1241" r="33.002" gradientTransform="translate(0 1276)" gradientUnits="userSpaceOnUse"><stop offset="0" stop-color="#afeeff"/><stop offset=".193" stop-color="#bbf1ff"/><stop offset=".703" stop-color="#d7f8ff"/><stop offset="1" stop-color="#e1faff"/></radialGradient><path fill="url(#Hg5Gv3MYXNjw2e8Z9o2g5a)" d="M58,44h2.302c1.733,0,3.348-1.166,3.644-2.873C64.329,38.918,62.638,37,60.5,37h-4.401 c-0.983,0-1.895-0.666-2.067-1.634c-0.219-1.236,0.698-2.313,1.88-2.364C55.918,33.002,58,33,58,33c1.657,0,3-1.343,3-3l0,0 c0-1.657-1.343-3-3-3h-1.302c-1.733,0-3.348-1.166-3.644-2.873C52.671,21.918,54.362,20,56.5,20h1.802 c1.733,0,3.348-1.166,3.644-2.873C62.329,14.918,60.638,13,58.5,13H48h-6l-10,4l-14-4v4H4.698c-1.733,0-3.348,1.166-3.644,2.873 C0.671,22.082,2.362,24,4.5,24h1.802c1.895,0,3.594,1.419,3.693,3.312C10.101,29.33,8.495,31,6.5,31H5.643 c-1.308,0-2.499,0.941-2.63,2.242C2.863,34.738,4.034,36,5.5,36l0,0c0.981,0,1.919,0.552,2.29,1.46C8.528,39.271,7.216,41,5.5,41 H3.17c-1.625,0-3.081,1.216-3.166,2.839C-0.086,45.569,1.29,47,3,47h4.893c0.996,0,1.92,0.681,2.08,1.664 C10.176,49.917,9.215,51,8,51H7.17c-1.625,0-3.081,1.216-3.166,2.839C3.914,55.569,5.29,57,7,57h11h8h22v-1h9.852 c1.582,0,3.003-1.162,3.137-2.738c0.151-1.779-1.252-3.27-3.002-3.262c-1.028,0.004-2.033-0.434-2.532-1.332 C54.166,46.35,55.808,44,58,44z"/><linearGradient id="Hg5Gv3MYXNjw2e8Z9o2g5b" x1="32" x2="32" y1="-1215.083" y2="-1264.083" gradientTransform="translate(0 1276)" gradientUnits="userSpaceOnUse"><stop offset="0" stop-color="#ff8b67"/><stop offset=".847" stop-color="#ffa76a"/><stop offset="1" stop-color="#ffad6b"/><stop offset="1" stop-color="#ffad6b"/></linearGradient><path fill="url(#Hg5Gv3MYXNjw2e8Z9o2g5b)" d="M47,11H36c0,2.209-1.791,4-4,4s-4-1.791-4-4H17c-2.75,0-5,2.25-5,5v39c0,2.75,2.25,5,5,5h30 c2.75,0,5-2.25,5-5V16C52,13.25,49.75,11,47,11z"/><linearGradient id="Hg5Gv3MYXNjw2e8Z9o2g5c" x1="32" x2="32" y1="-1261.681" y2="-1217.101" gradientTransform="translate(0 1276)" gradientUnits="userSpaceOnUse"><stop offset="0" stop-color="#ffcfa2"/><stop offset="1" stop-color="#ffd17c"/></linearGradient><path fill="url(#Hg5Gv3MYXNjw2e8Z9o2g5c)" d="M45,55H19c-1.105,0-2-0.895-2-2V18c0-1.105,0.895-2,2-2h26c1.105,0,2,0.895,2,2v35 C47,54.105,46.105,55,45,55z"/><linearGradient id="Hg5Gv3MYXNjw2e8Z9o2g5d" x1="32" x2="32" y1="-1260" y2="-1221" gradientTransform="translate(0 1276)" gradientUnits="userSpaceOnUse"><stop offset="0" stop-color="#fffaf6"/><stop offset="1" stop-color="#fffaf2"/></linearGradient><path fill="url(#Hg5Gv3MYXNjw2e8Z9o2g5d)" d="M45,55H19c-1.105,0-2-0.895-2-2V18c0-1.105,0.895-2,2-2h26c1.105,0,2,0.895,2,2v35 C47,54.105,46.105,55,45,55z"/><linearGradient id="Hg5Gv3MYXNjw2e8Z9o2g5e" x1="32" x2="32" y1="-1271.694" y2="-1250.728" gradientTransform="translate(0 1276)" gradientUnits="userSpaceOnUse"><stop offset="0" stop-color="#adadad"/><stop offset=".412" stop-color="#969696"/><stop offset="1" stop-color="#6f6f6f"/></linearGradient><path fill="url(#Hg5Gv3MYXNjw2e8Z9o2g5e)" d="M39,11c0-3.866-3.134-7-7-7s-7,3.134-7,7h-4v6c0,1.657,1.343,3,3,3h16c1.657,0,3-1.343,3-3 v-6H39z M32,14c-1.657,0-3-1.343-3-3s1.343-3,3-3c1.657,0,3,1.343,3,3S33.657,14,32,14z"/><linearGradient id="Hg5Gv3MYXNjw2e8Z9o2g5f" x1="32" x2="32" y1="14.943" y2="47.462" gradientTransform="matrix(1 0 0 -1 0 64)" gradientUnits="userSpaceOnUse"><stop offset="0" stop-color="#155cde"/><stop offset=".158" stop-color="#196ce1"/><stop offset=".724" stop-color="#28a1ec"/><stop offset="1" stop-color="#2eb5f0"/></linearGradient><path fill="url(#Hg5Gv3MYXNjw2e8Z9o2g5f)" d="M23,30L23,30c-1.105,0-2-0.895-2-2l0,0c0-1.105,0.895-2,2-2l0,0c1.105,0,2,0.895,2,2l0,0	C25,29.105,24.105,30,23,30z M43,28L43,28c0-1.105-0.895-2-2-2H30c-1.105,0-2,0.895-2,2l0,0c0,1.105,0.895,2,2,2h11	C42.105,30,43,29.105,43,28z M25,36L25,36c0-1.105-0.895-2-2-2l0,0c-1.105,0-2,0.895-2,2l0,0c0,1.105,0.895,2,2,2l0,0	C24.105,38,25,37.105,25,36z M43,36L43,36c0-1.105-0.895-2-2-2H30c-1.105,0-2,0.895-2,2l0,0c0,1.105,0.895,2,2,2h11	C42.105,38,43,37.105,43,36z M25,44L25,44c0-1.105-0.895-2-2-2l0,0c-1.105,0-2,0.895-2,2l0,0c0,1.105,0.895,2,2,2l0,0	C24.105,46,25,45.105,25,44z M43,44L43,44c0-1.105-0.895-2-2-2H30c-1.105,0-2,0.895-2,2l0,0c0,1.105,0.895,2,2,2h11	C42.105,46,43,45.105,43,44z"/></svg>