<svg xmlns="http://www.w3.org/2000/svg"  viewBox="0 0 64 64" width="50px" height="50px"><radialGradient id="Qc6nNp_HoTEe7zHeK2VL3a" cx="30.833" cy="35.917" r="26" gradientUnits="userSpaceOnUse" spreadMethod="reflect"><stop offset="0" stop-color="#f4e9c3"/><stop offset=".219" stop-color="#f8eecd"/><stop offset=".644" stop-color="#fdf4dc"/><stop offset="1" stop-color="#fff6e1"/></radialGradient><path fill="url(#Qc6nNp_HoTEe7zHeK2VL3a)" d="M4,8L4,8c2.209,0,4-1.791,4-4v0c0-2.209-1.791-4-4-4h0C1.791,0,0,1.791,0,4v0 C0,6.209,1.791,8,4,8z"/><radialGradient id="Qc6nNp_HoTEe7zHeK2VL3b" cx="31.417" cy="29.917" r="28.77" gradientUnits="userSpaceOnUse" spreadMethod="reflect"><stop offset="0" stop-color="#f4e9c3"/><stop offset=".219" stop-color="#f8eecd"/><stop offset=".644" stop-color="#fdf4dc"/><stop offset="1" stop-color="#fff6e1"/></radialGradient><path fill="url(#Qc6nNp_HoTEe7zHeK2VL3b)" d="M7.5,64L7.5,64c1.933,0,3.5-1.567,3.5-3.5v0c0-1.933-1.567-3.5-3.5-3.5h0 C5.567,57,4,58.567,4,60.5v0C4,62.433,5.567,64,7.5,64z"/><radialGradient id="Qc6nNp_HoTEe7zHeK2VL3c" cx="32" cy="32" r="32" gradientUnits="userSpaceOnUse" spreadMethod="reflect"><stop offset="0" stop-color="#f4e9c3"/><stop offset=".219" stop-color="#f8eecd"/><stop offset=".644" stop-color="#fdf4dc"/><stop offset="1" stop-color="#fff6e1"/></radialGradient><path fill="url(#Qc6nNp_HoTEe7zHeK2VL3c)" d="M64,20.5L64,20.5c0-2.485-2.015-4.5-4.5-4.5H54c-2.209,0-4-1.791-4-4v0c0-2.209,1.791-4,4-4 h1c2.209,0,4-1.791,4-4v0c0-2.209-1.791-4-4-4L14,0c-2.209,0-4,1.791-4,4v0c0,1.481,0.804,2.773,2,3.465 C12.588,7.805,16.657,14,15,14H5.5C3.567,14,2,15.567,2,17.5v0C2,19.433,3.567,21,5.5,21H6c1.657,0,3,1.343,3,3v0 c0,1.657-1.343,3-3,3H5c-2.761,0-5,2.239-5,5v0c0,2.761,2.239,5,5,5h5.5c1.933,0,3.5,1.567,3.5,3.5v0c0,1.933-1.567,3.5-3.5,3.5H9 c-2.209,0-4,1.791-4,4v0c0,2.209,1.791,4,4,4h8.5c1.381,0,2.5,1.119,2.5,2.5v0c0,1.381-1.119,2.5-2.5,2.5h0 c-1.933,0-3.5,1.567-3.5,3.5v0c0,1.933,1.567,3.5,3.5,3.5h30c1.933,0,3.5-1.567,3.5-3.5v0c0-1.933-1.567-3.5-3.5-3.5H47 c-1.105,0-2-0.895-2-2v0c0-1.105,0.895-2,2-2h8c2.209,0,4-1.791,4-4v0c0-2.209-1.791-4-4-4h-1c-1.381,0-2.5-1.119-2.5-2.5v0 c0-1.381,1.119-2.5,2.5-2.5h6c2.209,0,4-1.791,4-4v0c0-2.209-1.791-4-4-4h-3c-1.933,0-3.5-1.567-3.5-3.5v0 c0-1.933,1.567-3.5,3.5-3.5h2.5C61.985,25,64,22.985,64,20.5z"/><linearGradient id="Qc6nNp_HoTEe7zHeK2VL3d" x1="32" x2="32" y1="55" y2="13" gradientUnits="userSpaceOnUse" spreadMethod="reflect"><stop offset="0" stop-color="#155cde"/><stop offset="1" stop-color="#2eb5f0"/></linearGradient><path fill="url(#Qc6nNp_HoTEe7zHeK2VL3d)" d="M35,52c0,1.657-1.343,3-3,3c-1.657,0-3-1.343-3-3s1.343-3,3-3C33.657,49,35,50.343,35,52z M41.34,40.596C38.886,38.362,35.604,37,32,37s-6.886,1.362-9.34,3.596c-0.844,0.769-0.884,2.073-0.086,2.888l2.838,2.896 c0.755,0.77,2.003,0.838,2.805,0.115C29.212,45.598,30.543,45,32,45s2.788,0.598,3.783,1.496c0.802,0.723,2.05,0.655,2.805-0.115 l2.838-2.896C42.224,42.669,42.185,41.365,41.34,40.596z M49.386,31.822C44.856,27.593,38.732,25,32,25s-12.856,2.593-17.386,6.822 c-0.8,0.747-0.819,2.001-0.053,2.782l2.756,2.808c0.767,0.781,2.012,0.776,2.817,0.032C23.238,34.576,27.412,33,32,33 s8.762,1.576,11.866,4.444c0.804,0.743,2.05,0.749,2.817-0.032l2.756-2.808C50.205,33.823,50.186,32.569,49.386,31.822z M58.362,23.538C51.501,17.014,42.215,13,32,13S12.499,17.014,5.638,23.538c-0.824,0.784-0.855,2.091-0.064,2.909l2.837,2.934 c0.778,0.804,2.053,0.827,2.864,0.056C16.675,24.306,23.969,21,32,21s15.325,3.306,20.725,8.437 c0.811,0.771,2.087,0.748,2.864-0.056l2.837-2.934C59.217,25.629,59.186,24.322,58.362,23.538z"/><linearGradient id="Qc6nNp_HoTEe7zHeK2VL3e" x1="32" x2="32" y1="7.007" y2="56.993" gradientUnits="userSpaceOnUse" spreadMethod="reflect"><stop offset="0" stop-color="#a4a4a4"/><stop offset=".63" stop-color="#7f7f7f"/><stop offset="1" stop-color="#6f6f6f"/><stop offset="1" stop-color="#6f6f6f"/></linearGradient><path fill="url(#Qc6nNp_HoTEe7zHeK2VL3e)" d="M51.022,55.972L8.028,12.978c-1.361-1.361-1.361-3.589,0-4.95l0,0 c1.361-1.361,3.589-1.361,4.95,0l42.994,42.994c1.361,1.361,1.361,3.589,0,4.95l0,0C54.611,57.333,52.383,57.333,51.022,55.972z"/></svg>