<svg xmlns="http://www.w3.org/2000/svg"  viewBox="0 0 48 48" width="50px" height="50px"><path fill="#20a5e5" d="M45.516,22.832l-3.349-3.349c-0.645-0.645-1.69-0.645-2.335,0L28,27v12.799	c0,1.065,1.287,1.598,2.04,0.845l15.476-15.476C46.161,24.523,46.161,23.477,45.516,22.832z"/><path fill="#20a5e5" d="M45.516,22.832L30.04,7.356C29.287,6.603,28,7.136,28,8.201V19H4c-1.105,0-2,0.895-2,2v6	c0,1.105,0.895,2,2,2h37c0.423,0,0.845-0.161,1.167-0.484l3.349-3.349C46.161,24.523,46.161,23.477,45.516,22.832z"/><path fill="#20a5e5" d="M33.872,33H4.128C2.953,33,2,32.047,2,30.872V17.128C2,15.953,2.953,15,4.128,15h29.745	C35.047,15,36,15.953,36,17.128v13.745C36,32.047,35.047,33,33.872,33z"/><path d="M16.694,30.998c-0.463,0-0.898-0.18-1.226-0.505L9.58,24.647c-0.33-0.328-0.512-0.764-0.512-1.228	c0-0.464,0.183-0.899,0.513-1.226l1.039-1.032c0.329-0.326,0.764-0.505,1.226-0.505c0.463,0,0.898,0.18,1.226,0.505l3.622,3.596	l7.304-7.251c0.327-0.325,0.762-0.504,1.225-0.504s0.898,0.18,1.226,0.505l1.04,1.033C27.818,18.867,28,19.303,28,19.767	c0,0.464-0.183,0.899-0.512,1.226l-9.57,9.501C17.592,30.819,17.157,30.998,16.694,30.998z" opacity=".05"/><path d="M16.694,30.498c-0.33,0-0.64-0.128-0.873-0.36l-5.889-5.846c-0.235-0.233-0.364-0.543-0.364-0.873	c0-0.329,0.13-0.639,0.364-0.871l1.04-1.033c0.234-0.231,0.544-0.359,0.874-0.359s0.64,0.128,0.873,0.36l3.975,3.946l7.656-7.601	c0.233-0.232,0.543-0.359,0.873-0.359s0.64,0.128,0.873,0.36l1.041,1.033c0.234,0.233,0.363,0.543,0.363,0.872	c0,0.33-0.129,0.639-0.364,0.871l-9.57,9.501C17.334,30.37,17.024,30.498,16.694,30.498z" opacity=".07"/><path fill="#fff" d="M16.173,29.784l-5.889-5.847c-0.288-0.286-0.288-0.748,0-1.033l1.041-1.033	c0.288-0.286,0.754-0.286,1.041,0l4.328,4.297l8.008-7.951c0.288-0.286,0.754-0.286,1.041,0l1.041,1.033	c0.288,0.286,0.288,0.748,0,1.033l-9.57,9.501C16.927,30.069,16.461,30.069,16.173,29.784z"/></svg>