<svg xmlns="http://www.w3.org/2000/svg"  viewBox="0 0 64 64" width="50px" height="50px"><radialGradient id="gF6r6V~w~qH4EpBbvoHG5a" cx="32" cy="5.707" r="30.48" gradientTransform="matrix(1 0 0 -1.1053 0 38.308)" gradientUnits="userSpaceOnUse"><stop offset="0" stop-color="#eed7a2"/><stop offset=".106" stop-color="#f1dcab"/><stop offset=".437" stop-color="#f8e8c3"/><stop offset=".744" stop-color="#fcefd2"/><stop offset="1" stop-color="#fef2d7"/></radialGradient><path fill="url(#gF6r6V~w~qH4EpBbvoHG5a)" d="M26,52c0,1.1,0.9,2,2,2h7c2.21,0,4,1.79,4,4s-1.79,4-4,4H7c-2.21,0-4-1.79-4-4s1.79-4,4-4h7.5	c2.21,0,4-1.79,4-4s-1.79-4-4-4h-7C5.02,46,3,43.98,3,41.5S5.02,37,7.5,37h7c1.66,0,3-2.34,3-4s-1.34-3-3-3h-8	C3.46,30,1,27.54,1,24.5S3.46,19,6.5,19H35c0.83,0,1.58-0.34,2.12-0.88S38,16.83,38,16c0-1.66-1.34-3-3-3h-6.5	c-3.04,0-5.5-2.46-5.5-5.5S25.46,2,28.5,2h16C47.54,2,50,4.46,50,7.5S47.54,13,44.5,13h-2c-0.96,0-1.84,0.39-2.47,1.03	C39.39,14.66,39,15.54,39,16.5c0,1.93,8.07,6.5,10,6.5h9c0.94,0,1.79,0.33,2.47,0.87C61.99,24.85,63,26.56,63,28.5	c0,3.04-2.46,5.5-5.5,5.5H47.37c-1.06,0-2.04,0.5-2.73,1.32c-0.71,0.81-1.14-0.05-1.14,1.18c0,2.48,1.74,4.5,3.87,4.5H58.5	c2.48,0,4.5,2.02,4.5,4.5S60.98,50,58.5,50H28C26.9,50,26,50.9,26,52z"/><linearGradient id="gF6r6V~w~qH4EpBbvoHG5b" x1="31.5" x2="31.5" y1="65.489" y2="44.212" gradientTransform="matrix(1 0 0 -1 0 66)" gradientUnits="userSpaceOnUse"><stop offset="0" stop-color="#155cde"/><stop offset="1" stop-color="#2eb5f0"/></linearGradient><path fill="url(#gF6r6V~w~qH4EpBbvoHG5b)" d="M10,36.8V11.2C10,9.433,11.24,8,12.769,8H50.23C51.76,8,53,9.433,53,11.2v25.6 c0,1.767-1.151,3.2-2.571,3.2h-37.66C11.24,40,10,38.567,10,36.8z"/><linearGradient id="gF6r6V~w~qH4EpBbvoHG5c" x1="31.5" x2="31.5" y1="-15.813" y2="-9.344" gradientTransform="matrix(1 0 0 -1 0 66)" gradientUnits="userSpaceOnUse"><stop offset="0" stop-color="#41bfec"/><stop offset=".232" stop-color="#4cc5ef"/><stop offset=".644" stop-color="#6bd4f6"/><stop offset="1" stop-color="#8ae4fd"/></linearGradient><path fill="url(#gF6r6V~w~qH4EpBbvoHG5c)" d="M10,54.798V18.2c0-1.767,1.24-3.2,2.769-3.2H50.23c1.53,0,2.77,1.433,2.77,3.2v36.598 c0,1.767-1.151,3.2-2.571,3.2h-37.66C11.24,57.998,10,56.565,10,54.798z"/><linearGradient id="gF6r6V~w~qH4EpBbvoHG5d" x1="15.887" x2="20.36" y1="38.5" y2="38.5" gradientTransform="matrix(1 0 0 -1 0 66)" gradientUnits="userSpaceOnUse"><stop offset="0" stop-color="#71cff1"/><stop offset=".232" stop-color="#79d4f3"/><stop offset=".644" stop-color="#90dff8"/><stop offset="1" stop-color="#a7ebfe"/></linearGradient><path fill="url(#gF6r6V~w~qH4EpBbvoHG5d)" d="M27.5,25c-1.382,0-2.5,1.119-2.5,2.5c0,1.382,1.117,2.5,2.5,2.5c1.382,0,2.5-1.118,2.5-2.5 C30,26.119,28.883,25,27.5,25"/><linearGradient id="gF6r6V~w~qH4EpBbvoHG5e" x1="-17.34" x2="-3.921" y1="43.5" y2="43.5" gradientTransform="matrix(1 0 0 -1 0 66)" gradientUnits="userSpaceOnUse"><stop offset="0" stop-color="#71cff1"/><stop offset=".232" stop-color="#79d4f3"/><stop offset=".644" stop-color="#90dff8"/><stop offset="1" stop-color="#a7ebfe"/></linearGradient><path fill="url(#gF6r6V~w~qH4EpBbvoHG5e)" d="M22.5,15H13c-1.658,0-3,1.343-3,3v12h8.5c1.381,0,2.5-1.119,2.5-2.5S19.881,25,18.5,25h-1 c-1.381,0-2.5-1.12-2.5-2.5l0,0l0,0c0-1.381,1.119-2.5,2.5-2.5h5c1.381,0,2.5-1.12,2.5-2.501S23.881,15,22.5,15"/><g><linearGradient id="gF6r6V~w~qH4EpBbvoHG5f" x1="59.036" x2="59.036" y1="-697.906" y2="-707.919" gradientTransform="matrix(1 0 0 -1 0 -694.938)" gradientUnits="userSpaceOnUse"><stop offset="0" stop-color="#ff634d"/><stop offset=".208" stop-color="#fd6464"/><stop offset=".522" stop-color="#fc6582"/><stop offset=".793" stop-color="#fa6694"/><stop offset=".989" stop-color="#fa669a"/><stop offset="1" stop-color="#fa669a"/></linearGradient><path fill="url(#gF6r6V~w~qH4EpBbvoHG5f)" d="M58.867,4.423l3.709,3.711c0.566,0.564,0.566,1.482,0,2.046l-1.747,1.747l-5.757-5.758 l1.747-1.746C57.385,3.859,58.301,3.859,58.867,4.423"/><linearGradient id="gF6r6V~w~qH4EpBbvoHG5g" x1="48.941" x2="48.941" y1="-704.179" y2="-720.672" gradientTransform="matrix(1 0 0 -1 0 -694.938)" gradientUnits="userSpaceOnUse"><stop offset="0" stop-color="#ff9757"/><stop offset="1" stop-color="#ffb65b"/><stop offset="1" stop-color="#ffb65b"/></linearGradient><path fill="url(#gF6r6V~w~qH4EpBbvoHG5g)" d="M39.934,21.306l5.757,5.757l12.256-12.256L52.19,9.05L39.934,21.306z"/><linearGradient id="gF6r6V~w~qH4EpBbvoHG5h" x1="56.507" x2="56.507" y1="-711.98" y2="-703.342" gradientTransform="matrix(1 0 0 -1 0 -694.938)" gradientUnits="userSpaceOnUse"><stop offset="0" stop-color="#d8d8d8"/><stop offset=".759" stop-color="#c9c9c9"/><stop offset="1" stop-color="#c3c3c3"/></linearGradient><path fill="url(#gF6r6V~w~qH4EpBbvoHG5h)" d="M52.189,9.047l5.757,5.76l2.879-2.878l-5.756-5.76L52.189,9.047z"/><linearGradient id="gF6r6V~w~qH4EpBbvoHG5i" x1="41.847" x2="41.847" y1="-708.676" y2="-723.621" gradientTransform="matrix(1 0 0 -1 0 -694.938)" gradientUnits="userSpaceOnUse"><stop offset="0" stop-color="#ffce76"/><stop offset=".004" stop-color="#ffce76"/><stop offset=".605" stop-color="#ffcd92"/><stop offset="1" stop-color="#ffcca0"/><stop offset="1" stop-color="#ffcca0"/></linearGradient><path fill="url(#gF6r6V~w~qH4EpBbvoHG5i)" d="M45.695,27.062L38,29l1.937-7.695L45.695,27.062z"/><linearGradient id="gF6r6V~w~qH4EpBbvoHG5j" x1="39.945" x2="39.945" y1="-724.741" y2="-720.851" gradientTransform="matrix(1 0 0 -1 0 -694.938)" gradientUnits="userSpaceOnUse"><stop offset="0" stop-color="#a4a4a4"/><stop offset=".63" stop-color="#7f7f7f"/><stop offset="1" stop-color="#6f6f6f"/><stop offset="1" stop-color="#6f6f6f"/></linearGradient><path fill="url(#gF6r6V~w~qH4EpBbvoHG5j)" d="M41.89,28.021L38,29l0.979-3.89L41.89,28.021z"/></g></svg>