<svg xmlns="http://www.w3.org/2000/svg"  viewBox="0 0 64 64" width="50px" height="50px"><radialGradient id="O7~9Rls1MvggJgIVN3Rcxa" cx="32.5" cy="32" r="28.881" gradientUnits="userSpaceOnUse" spreadMethod="reflect"><stop offset="0" stop-color="#afeeff"/><stop offset=".193" stop-color="#bbf1ff"/><stop offset=".703" stop-color="#d7f8ff"/><stop offset="1" stop-color="#e1faff"/></radialGradient><path fill="url(#O7~9Rls1MvggJgIVN3Rcxa)" d="M53,34h5.241c2.868,0,5.442-2.082,5.731-4.936C64.303,25.789,61.711,23,58.5,23l-13.33,0 c-1.624,0-3.081-1.216-3.165-2.839C41.914,18.431,43.29,17,45,17l0.241,0c2.868,0,5.442-2.082,5.731-4.936 C51.303,8.789,48.711,6,45.5,6H33h-7.5h-15C7.462,6,5,8.462,5,11.5v0c0,3.038,2.462,5.5,5.5,5.5H14c1.105,0,2,0.895,2,2v0 c0,1.105-0.895,2-2,2l-8.288,0c-2.347,0-4.453,1.704-4.689,4.038C0.752,27.718,2.873,30,5.5,30l6.33,0 c1.624,0,3.081,1.216,3.165,2.839C15.086,34.569,13.71,36,12,36H7.712c-2.347,0-4.453,1.704-4.689,4.038 C2.753,42.718,4.873,45,7.5,45h1.393c0.996,0,1.92,0.681,2.08,1.664C11.176,47.917,10.215,49,9,49H7.712 c-2.347,0-4.453,1.704-4.689,4.038C2.752,55.718,4.873,58,7.5,58h24c0.086,0,0.166-0.021,0.25-0.025C31.834,57.982,31.914,58,32,58 l17.386,0c1.67,0,3.195-1.122,3.537-2.757C53.392,52.998,51.668,51,49.5,51h-5.393c-0.996,0-1.92-0.681-2.08-1.664 C41.824,48.083,42.785,47,44,47l12.288,0c2.347,0,4.453-1.704,4.689-4.039C61.247,40.282,59.127,38,56.5,38h-3.393 c-0.996,0-1.92-0.681-2.08-1.664C50.824,35.083,51.785,34,53,34z"/><linearGradient id="O7~9Rls1MvggJgIVN3Rcxb" x1="40.005" x2="40.005" y1="48.996" y2="6.394" gradientUnits="userSpaceOnUse" spreadMethod="reflect"><stop offset="0" stop-color="#31995f"/><stop offset=".093" stop-color="#329e62"/><stop offset=".666" stop-color="#39ba71"/><stop offset="1" stop-color="#3bc477"/></linearGradient><path fill="url(#O7~9Rls1MvggJgIVN3Rcxb)" d="M59.975,19.041c-1.321-1.323-3.629-1.323-4.95,0L33.517,40.548l-8.534-8.52 c-0.661-0.66-1.539-1.023-2.473-1.023c-0.001,0-0.002,0-0.003,0c-0.935,0-1.814,0.366-2.474,1.027 c-0.661,0.662-1.024,1.541-1.023,2.476c0,0.935,0.366,1.813,1.027,2.474l11.009,10.991c0.661,0.66,1.539,1.023,2.473,1.023 c0.935,0,1.814-0.364,2.475-1.025l23.981-23.98C60.636,23.329,61,22.45,61,21.515S60.636,19.701,59.975,19.041z"/><linearGradient id="O7~9Rls1MvggJgIVN3Rcxc" x1="23.995" x2="23.995" y1="18.049" y2="58.306" gradientUnits="userSpaceOnUse" spreadMethod="reflect"><stop offset="0" stop-color="#42d778"/><stop offset=".428" stop-color="#3dca76"/><stop offset="1" stop-color="#34b171"/></linearGradient><path fill="url(#O7~9Rls1MvggJgIVN3Rcxc)" d="M43.965,19.041c-1.321-1.323-3.629-1.323-4.95,0L17.507,40.548l-8.534-8.52 c-0.661-0.66-1.539-1.023-2.473-1.023c-0.001,0-0.002,0-0.003,0c-0.935,0-1.814,0.366-2.474,1.027C3.363,32.693,3,33.572,3,34.507 c0,0.935,0.366,1.813,1.027,2.474l11.009,10.991c0.661,0.66,1.539,1.023,2.473,1.023c0.935,0,1.814-0.364,2.475-1.025l23.981-23.98 c0.661-0.661,1.025-1.54,1.025-2.475S44.625,19.701,43.965,19.041z"/></svg>