<svg xmlns="http://www.w3.org/2000/svg"  viewBox="0 0 48 48" width="50px" height="50px"><linearGradient id="uD3WVjhwUJz1qN1Q2TgFla" x1="65.101" x2="65.101" y1="428.467" y2="402.62" gradientTransform="matrix(1.4286 0 0 -1.0833 -69.003 474.159)" gradientUnits="userSpaceOnUse"><stop offset="0" stop-color="#f0f0f0"/><stop offset=".346" stop-color="#e1e3e4"/><stop offset="1" stop-color="#bbc1c4"/></linearGradient><rect width="40" height="28" x="4" y="10" fill="url(#uD3WVjhwUJz1qN1Q2TgFla)"/><path fill="#64717c" d="M23,38h2v6h-2V38z"/><linearGradient id="uD3WVjhwUJz1qN1Q2TgFlb" x1="24" x2="24" y1="7" y2="11" gradientUnits="userSpaceOnUse"><stop offset="0" stop-color="#32bdef"/><stop offset="1" stop-color="#1ea2e4"/></linearGradient><path fill="url(#uD3WVjhwUJz1qN1Q2TgFlb)" d="M44,11H4c-0.552,0-1-0.448-1-1V8c0-0.552,0.448-1,1-1h40c0.552,0,1,0.448,1,1v2	C45,10.552,44.552,11,44,11z"/><path fill="#abb4be" d="M22,44c0,1.104,0.896,2,2,2s2-0.896,2-2s-0.896-2-2-2S22,42.896,22,44"/><linearGradient id="uD3WVjhwUJz1qN1Q2TgFlc" x1="3" x2="45" y1="38" y2="38" gradientUnits="userSpaceOnUse"><stop offset="0" stop-color="#199ae0"/><stop offset="1" stop-color="#0782d8"/></linearGradient><path fill="url(#uD3WVjhwUJz1qN1Q2TgFlc)" d="M44,37H4c-0.552,0-1,0.448-1,1c0,0.552,0.448,1,1,1h40c0.552,0,1-0.448,1-1	C45,37.448,44.552,37,44,37z"/><path fill="#0078d4" d="M19.605,27h-1.577l-0.779-2.29H13.84L13.091,27H11.52l3.245-8.997h1.619L19.605,27z M16.868,23.493 l-1.202-3.589c-0.036-0.117-0.075-0.305-0.115-0.565h-0.024c-0.036,0.238-0.076,0.427-0.121,0.565l-1.19,3.589H16.868z"/><path fill="#0078d4" d="M21.855,27v-9h2.636c0.803,0,1.44,0.191,1.909,0.571c0.47,0.381,0.704,0.876,0.704,1.487 c0,0.511-0.133,0.954-0.4,1.331c-0.266,0.377-0.635,0.644-1.106,0.803v0.025c0.571,0.071,1.029,0.3,1.37,0.687 c0.342,0.387,0.513,0.891,0.513,1.51c0,0.77-0.28,1.393-0.84,1.87S25.373,27,24.52,27H21.855z M23.228,19.199v2.561h0.892 c0.479,0,0.854-0.123,1.127-0.367c0.272-0.245,0.408-0.591,0.408-1.039c0-0.77-0.475-1.155-1.425-1.155H23.228z M23.228,22.958 v2.849h1.176c0.513,0,0.911-0.129,1.191-0.386c0.28-0.258,0.42-0.612,0.42-1.064c0-0.933-0.597-1.4-1.79-1.4H23.228z"/><path fill="#0078d4" d="M36.48,26.49c-0.668,0.34-1.5,0.51-2.493,0.51c-1.287,0-2.318-0.399-3.093-1.196 c-0.776-0.798-1.163-1.844-1.163-3.14c0-1.393,0.436-2.518,1.308-3.377C31.911,18.429,33.013,18,34.345,18 c0.858,0,1.569,0.119,2.135,0.358v1.433c-0.598-0.348-1.258-0.522-1.98-0.522c-0.961,0-1.74,0.301-2.336,0.905 c-0.596,0.603-0.894,1.409-0.894,2.417c0,0.96,0.278,1.724,0.835,2.292c0.557,0.569,1.289,0.854,2.196,0.854 c0.837,0,1.563-0.194,2.178-0.583V26.49z"/></svg>