<svg xmlns="http://www.w3.org/2000/svg"  viewBox="0 0 64 64" width="50px" height="50px"><radialGradient id="6RxkjZzG2VKU7RKuwoNI0a" cx="32" cy="31.5" r="31.259" gradientUnits="userSpaceOnUse" spreadMethod="reflect"><stop offset="0" stop-color="#eed7a2"/><stop offset=".106" stop-color="#f1dcab"/><stop offset=".437" stop-color="#f8e8c3"/><stop offset=".744" stop-color="#fcefd2"/><stop offset="1" stop-color="#fef2d7"/></radialGradient><path fill="url(#6RxkjZzG2VKU7RKuwoNI0a)" d="M59,54c-1.105,0-2-0.895-2-2c0-1.105,0.895-2,2-2h1.5c1.925,0,3.5-1.575,3.5-3.5 S62.425,43,60.5,43H50c-1.381,0-2.5-1.119-2.5-2.5c0-1.381,1.119-2.5,2.5-2.5h8c1.65,0,3-1.35,3-3c0-1.65-1.35-3-3-3H42v-6h18 c2.335,0,4.22-2.028,3.979-4.41C63.77,19.514,61.897,18,59.811,18H59c-1.105,0-2-0.895-2-2c0-1.105,0.895-2,2-2h0.357 c1.308,0,2.499-0.941,2.63-2.242C62.137,10.261,60.966,9,59.5,9h-15C43.672,9,43,8.328,43,7.5S43.672,6,44.5,6h3.857 c1.308,0,2.499-0.941,2.63-2.242C51.137,2.261,49.966,1,48.5,1L15.643,1c-1.308,0-2.499,0.941-2.63,2.242 C12.863,4.739,14.034,6,15.5,6H19c1.105,0,2,0.895,2,2c0,1.105-0.895,2-2,2H6.189c-2.086,0-3.958,1.514-4.168,3.59 C1.78,15.972,3.665,18,6,18h2.5c1.933,0,3.5,1.567,3.5,3.5c0,1.933-1.567,3.5-3.5,3.5H5.189c-2.086,0-3.958,1.514-4.168,3.59 C0.78,30.972,2.665,33,5,33h17v11H6c-1.65,0-3,1.35-3,3c0,1.65,1.35,3,3,3h0c1.105,0,2,0.895,2,2c0,1.105-0.895,2-2,2H4.189 c-2.086,0-3.958,1.514-4.168,3.59C-0.22,59.972,1.665,62,4,62h54.811c2.086,0,3.958-1.514,4.168-3.59C63.22,56.028,61.335,54,59,54z"/><linearGradient id="6RxkjZzG2VKU7RKuwoNI0b" x1="32.5" x2="32.5" y1="74.094" y2="10.539" gradientUnits="userSpaceOnUse" spreadMethod="reflect"><stop offset="0" stop-color="#3cb5ea"/><stop offset="1" stop-color="#7ddefb"/></linearGradient><path fill="url(#6RxkjZzG2VKU7RKuwoNI0b)" d="M51,12H14c-2.209,0-4,1.791-4,4v36c0,2.209,1.791,4,4,4h37c2.209,0,4-1.791,4-4V16 C55,13.791,53.209,12,51,12z"/><linearGradient id="6RxkjZzG2VKU7RKuwoNI0c" x1="32.5" x2="32.5" y1="9.134" y2="23.247" gradientUnits="userSpaceOnUse" spreadMethod="reflect"><stop offset="0" stop-color="#a4a4a4"/><stop offset=".409" stop-color="#8d8d8d"/><stop offset="1" stop-color="#6f6f6f"/><stop offset="1" stop-color="#6f6f6f"/></linearGradient><path fill="url(#6RxkjZzG2VKU7RKuwoNI0c)" d="M10,16v6h45v-6c0-2.209-1.791-4-4-4H14C11.791,12,10,13.791,10,16z"/><path fill="#f1fcff" d="M30,19h19c1.1,0,2-0.9,2-2v0c0-1.1-0.9-2-2-2H30c-1.1,0-2,0.9-2,2v0C28,18.1,28.9,19,30,19z"/><linearGradient id="6RxkjZzG2VKU7RKuwoNI0d" x1="16" x2="16" y1="22.21" y2="13.526" gradientUnits="userSpaceOnUse" spreadMethod="reflect"><stop offset="0" stop-color="#feaa53"/><stop offset=".612" stop-color="#ffcd49"/><stop offset="1" stop-color="#ffde44"/></linearGradient><path fill="url(#6RxkjZzG2VKU7RKuwoNI0d)" d="M16,19L16,19c1.1,0,2-0.9,2-2v0c0-1.1-0.9-2-2-2h0c-1.1,0-2,0.9-2,2v0C14,18.1,14.9,19,16,19z"/><linearGradient id="6RxkjZzG2VKU7RKuwoNI0e" x1="23" x2="23" y1="15.573" y2="23.9" gradientUnits="userSpaceOnUse" spreadMethod="reflect"><stop offset="0" stop-color="#42d778"/><stop offset=".428" stop-color="#3dca76"/><stop offset="1" stop-color="#34b171"/></linearGradient><path fill="url(#6RxkjZzG2VKU7RKuwoNI0e)" d="M23,19L23,19c1.1,0,2-0.9,2-2v0c0-1.1-0.9-2-2-2h0c-1.1,0-2,0.9-2,2v0C21,18.1,21.9,19,23,19z"/></svg>