<svg xmlns="http://www.w3.org/2000/svg"  viewBox="0 0 64 64" width="50px" height="50px"><radialGradient id="Ev3wUGbYnpKVJXuymMtvha" cx="31.999" cy="35" r="31.016" gradientTransform="matrix(1 0 0 -1 0 66)" gradientUnits="userSpaceOnUse"><stop offset="0" stop-color="#f4e9c3"/><stop offset=".219" stop-color="#f8eecd"/><stop offset=".644" stop-color="#fdf4dc"/><stop offset="1" stop-color="#fff6e1"/></radialGradient><path fill="url(#Ev3wUGbYnpKVJXuymMtvha)" d="M59,19.02V19h-7.304c-1.997,0-3.768,1.635-3.694,3.631c0.034,0.909,0.417,1.738,1.028,2.339	C49.66,25.61,50.54,26,51.5,26h8c2.173,0,3.895,2.005,3.418,4.249C62.571,31.882,61.045,33,59.376,33H52c-2.761,0-5,2.239-5,5l0,0	c0,2.761,2.239,5,5,5h7.5c2.173,0,3.895,2.005,3.418,4.249C62.571,48.882,61.045,50,59.376,50H57c-1.205,0-2.173,1.072-1.972,2.326	C55.186,53.314,56.113,54,57.115,54H57.5c2.173,0,3.895,2.005,3.418,4.249C60.571,59.882,59.045,61,57.376,61H8.5	c-2.173,0-3.895-2.005-3.418-4.249C5.429,55.118,6.955,54,8.624,54H11.5c0.69,0,1.32-0.28,1.77-0.73	c0.417-0.417,0.688-0.988,0.725-1.619C14.082,50.196,12.798,49,11.34,49H5c-1.38,0-2.63-0.56-3.54-1.46	c-0.86-0.87-1.41-2.051-1.457-3.358C-0.099,41.334,2.391,39,5.241,39H11c1.205,0,2.173-1.072,1.972-2.326	C12.814,35.686,11.887,35,10.886,35H4.5c-2.173,0-3.895-2.005-3.418-4.249C1.429,29.118,2.955,28,4.624,28H13.5	c1.24,0,2.37-0.5,3.18-1.32c0.791-0.782,1.285-1.862,1.318-3.051C18.07,21.084,15.832,19,13.286,19H4.5	c-2.173,0-3.895-2.005-3.418-4.249C1.429,13.118,2.955,12,4.624,12H10c1.205,0,2.173-1.072,1.972-2.326	C11.814,8.686,10.887,8,9.886,8H8.5C6.327,8,4.605,5.995,5.082,3.751C5.429,2.118,6.955,1,8.624,1H56.5	c2.173,0,3.895,2.005,3.418,4.249C59.571,6.882,58.045,8,56.376,8H55c-1.21,0-2.18,1.08-1.97,2.34C53.19,11.32,54.1,12,55.71,12	h4.666c1.669,0,3.196,1.118,3.542,2.751C64.395,16.995,62.673,19,60.5,19h-1.39C59.07,19,59.04,19.01,59,19.02z"/><linearGradient id="Ev3wUGbYnpKVJXuymMtvhb" x1="32.5" x2="32.5" y1="13.34" y2="53.258" gradientTransform="matrix(1 0 0 -1 0 66)" gradientUnits="userSpaceOnUse"><stop offset="0" stop-color="#155cde"/><stop offset=".278" stop-color="#1f7fe5"/><stop offset=".569" stop-color="#279ceb"/><stop offset=".82" stop-color="#2cafef"/><stop offset="1" stop-color="#2eb5f0"/></linearGradient><path fill="url(#Ev3wUGbYnpKVJXuymMtvhb)" d="M57,41.867l-8-6c-0.441-0.331-0.969-0.5-1.5-0.5c-0.382,0-0.765,0.087-1.118,0.264	C45.535,36.054,45,36.92,45,37.867v3.064C39.384,40.469,33.973,37.424,33.514,32c0.459-5.424,5.87-8.469,11.486-8.931v2.797	c0,0.947,0.535,1.813,1.382,2.236c0.846,0.423,1.859,0.332,2.618-0.236l8-6c0.63-0.472,1-1.213,1-2s-0.37-1.528-1-2l-8-6	c-0.441-0.331-0.969-0.5-1.5-0.5c-0.382,0-0.765,0.087-1.118,0.264C45.535,12.054,45,12.92,45,13.867v3.186	c-5.756,0.361-11.471,2.794-14.742,7.182C26.37,19.86,19.609,17,13.5,17H10c-1.657,0-3,1.343-3,3s1.343,3,3,3h3.5	c6.113,0,14,4.364,14,9s-7.887,9-14,9H10c-1.657,0-3,1.343-3,3s1.343,3,3,3h3.5c6.109,0,12.87-2.86,16.758-7.235	c3.271,4.387,8.985,6.821,14.742,7.182v2.92c0,0.947,0.535,1.813,1.382,2.236c0.846,0.423,1.859,0.332,2.618-0.236l8-6	c0.63-0.472,1-1.213,1-2S57.63,42.339,57,41.867z"/></svg>