<svg xmlns="http://www.w3.org/2000/svg"  viewBox="0 0 64 64" width="50px" height="50px"><radialGradient id="mlTylZvlI7SnOM558oUZia" cx="32.234" cy="35.468" r="37.546" gradientTransform="matrix(1 0 0 -1 0 66)" gradientUnits="userSpaceOnUse"><stop offset="0" stop-color="#f4e9c3"/><stop offset=".219" stop-color="#f8eecd"/><stop offset=".644" stop-color="#fdf4dc"/><stop offset="1" stop-color="#fff6e1"/></radialGradient><path fill="url(#mlTylZvlI7SnOM558oUZia)" d="M52.785,30H44v-3h8l4-12H42.17c-1.624,0-3.081-1.216-3.166-2.839C38.914,10.431,40.29,9,42,9	h3.302c1.733,0,3.347-1.166,3.644-2.873C49.329,3.917,47.638,2,45.5,2H39H24H9.693c-2.35,0-4.449,1.718-4.672,4.058	C4.765,8.742,6.869,11,9.5,11h5.393c0.996,0,1.92,0.681,2.08,1.664C17.177,13.917,16.215,15,15,15h-4.748	c-3.285,0-6.15,2.531-6.249,5.815C3.901,24.213,6.625,27,10,27v7h2v6h3c1.657,0,3,1.343,3,3s-1.343,3-3,3h-1.828	c-2.089,0-3.955,1.527-4.153,3.607C8.791,51.993,10.661,54,13,54h31.828c2.089,0,3.955-1.527,4.153-3.607	C49.209,48.007,47.339,46,45,46h-1c-1.657,0-3-1.343-3-3s1.343-3,3-3h9c2.923,0,5.261-2.509,4.977-5.491	C57.729,31.909,55.397,30,52.785,30z"/><radialGradient id="mlTylZvlI7SnOM558oUZib" cx="32.234" cy="35.468" r="37.546" gradientTransform="matrix(1 0 0 -1 0 66)" gradientUnits="userSpaceOnUse"><stop offset="0" stop-color="#f4e9c3"/><stop offset=".219" stop-color="#f8eecd"/><stop offset=".644" stop-color="#fdf4dc"/><stop offset="1" stop-color="#fff6e1"/></radialGradient><circle cx="56.5" cy="5.5" r="3.5" fill="url(#mlTylZvlI7SnOM558oUZib)"/><linearGradient id="mlTylZvlI7SnOM558oUZic" x1="32" x2="32" y1="8" y2="12" gradientTransform="matrix(1 0 0 -1 0 66)" gradientUnits="userSpaceOnUse"><stop offset="0" stop-color="#848e97"/><stop offset="1" stop-color="#8c96a1"/></linearGradient><path fill="url(#mlTylZvlI7SnOM558oUZic)" d="M56,58H8c-1.104,0-2-0.896-2-2s0.896-2,2-2h48c1.104,0,2,0.896,2,2S57.104,58,56,58z"/><linearGradient id="mlTylZvlI7SnOM558oUZid" x1="9" x2="9" y1="22.234" y2="51.526" gradientTransform="matrix(1 0 0 -1 0 66)" gradientUnits="userSpaceOnUse"><stop offset="0" stop-color="#155cde"/><stop offset=".278" stop-color="#1f7fe5"/><stop offset=".569" stop-color="#279ceb"/><stop offset=".82" stop-color="#2cafef"/><stop offset="1" stop-color="#2eb5f0"/></linearGradient><path fill="url(#mlTylZvlI7SnOM558oUZid)" d="M6.168,35l-4.88-5.836c-0.493-0.589-0.332-1.587,0.308-1.915l3.457-1.772	c1.331-0.682,2.846-0.629,4.141,0.146L17,30.289L6.168,35z"/><linearGradient id="mlTylZvlI7SnOM558oUZie" x1="30.291" x2="34.751" y1="48.726" y2="23.406" gradientTransform="matrix(1 0 0 -1 0 66)" gradientUnits="userSpaceOnUse"><stop offset="0" stop-color="#40daf2"/><stop offset=".259" stop-color="#3bd3ef"/><stop offset=".624" stop-color="#2ec1e8"/><stop offset="1" stop-color="#1ba7dd"/></linearGradient><path fill="url(#mlTylZvlI7SnOM558oUZie)" d="M62,18.03c0,1.96-1.03,4.29-2.84,5.54c-3.02,2.16-6.19,4.13-9.52,5.76l-7.67,3.76	c-5.26,2.57-10.78,4.55-16.47,5.92L8.66,43.05c-2.66,0.7-5.4-0.9-6.1-3.59C1.92,37,3.22,34.48,5.51,33.54l0.52-0.21L27,25.47	c0.67-0.25,1.31-0.57,1.91-0.96l18.16-8.71c2.1-1.05,4.49-1.63,6.86-1.77c0.12-0.01,0.25-0.01,0.37-0.01	c0.45-0.02,0.9-0.03,1.35-0.01c1.56,0.06,3.07,0.33,4.45,0.79c0.86,0.29,1.42,0.95,1.69,1.81c0.08,0.25,0.14,0.51,0.17,0.78	C61.99,17.6,62,17.81,62,18.03z"/><linearGradient id="mlTylZvlI7SnOM558oUZif" x1="27.5" x2="27.5" y1="19.851" y2="63.788" gradientTransform="matrix(1 0 0 -1 0 66)" gradientUnits="userSpaceOnUse"><stop offset="0" stop-color="#155cde"/><stop offset=".278" stop-color="#1f7fe5"/><stop offset=".569" stop-color="#279ceb"/><stop offset=".82" stop-color="#2cafef"/><stop offset="1" stop-color="#2eb5f0"/></linearGradient><path fill="url(#mlTylZvlI7SnOM558oUZif)" d="M9.657,19.654l1.643-0.618c2.86-1.076,5.965-1.319,8.957-0.701l24.125,4.984	c1.883,0.389,2.217,2.946,0.497,3.808L34.24,32.464c-1.478,0.741-3.223,0.713-4.676-0.077L9.53,21.499	C8.767,21.083,8.844,19.96,9.657,19.654z"/><linearGradient id="mlTylZvlI7SnOM558oUZig" x1="56.05" x2="56.05" y1="39.707" y2="58.896" gradientTransform="matrix(1 0 0 -1 0 66)" gradientUnits="userSpaceOnUse"><stop offset="0" stop-color="#155cde"/><stop offset=".278" stop-color="#1f7fe5"/><stop offset=".569" stop-color="#279ceb"/><stop offset=".82" stop-color="#2cafef"/><stop offset="1" stop-color="#2eb5f0"/></linearGradient><path fill="url(#mlTylZvlI7SnOM558oUZig)" d="M61.79,16.61l-7.27,3.63c-0.42,0.21-0.87,0.31-1.3,0.31c-1.36,0-2.63-0.97-2.87-2.43	c-0.21-1.26,0.43-2.51,1.57-3.08l2.38-1.02c0.45-0.02,0.9-0.03,1.35-0.01c1.56,0.06,3.07,0.33,4.45,0.79	C60.96,15.09,61.52,15.75,61.79,16.61z"/></svg>