<svg xmlns="http://www.w3.org/2000/svg"  viewBox="0 0 64 64" width="50px" height="50px"><radialGradient id="cvAS7AZhho6MHmuwslnCxa" cx="32" cy="31.5" r="31.259" gradientUnits="userSpaceOnUse" spreadMethod="reflect"><stop offset="0" stop-color="#eed7a2"/><stop offset=".106" stop-color="#f1dcab"/><stop offset=".437" stop-color="#f8e8c3"/><stop offset=".744" stop-color="#fcefd2"/><stop offset="1" stop-color="#fef2d7"/></radialGradient><path fill="url(#cvAS7AZhho6MHmuwslnCxa)" d="M58,54c-1.105,0-2-0.895-2-2c0-1.105,0.895-2,2-2h2.5c1.925,0,3.5-1.575,3.5-3.5 S62.425,43,60.5,43H50c-1.381,0-2.5-1.119-2.5-2.5c0-1.381,1.119-2.5,2.5-2.5h8c1.65,0,3-1.35,3-3c0-1.65-1.35-3-3-3H42v-6h18 c2.335,0,4.22-2.028,3.979-4.41C63.77,19.514,61.897,18,59.811,18H58c-1.105,0-2-0.895-2-2c0-1.105,0.895-2,2-2h0.357 c1.308,0,2.499-0.941,2.63-2.242C61.137,10.261,59.966,9,58.5,9h-14C43.672,9,43,8.328,43,7.5S43.672,6,44.5,6h3.857 c1.308,0,2.499-0.941,2.63-2.242C51.137,2.261,49.966,1,48.5,1L15.643,1c-1.308,0-2.499,0.941-2.63,2.242 C12.863,4.739,14.034,6,15.5,6H19c1.105,0,2,0.895,2,2c0,1.105-0.895,2-2,2H6.189c-2.086,0-3.958,1.514-4.168,3.59 C1.78,15.972,3.665,18,6,18h2.5c1.933,0,3.5,1.567,3.5,3.5c0,1.933-1.567,3.5-3.5,3.5H5.189c-2.086,0-3.958,1.514-4.168,3.59 C0.78,30.972,2.665,33,5,33h17v11H6c-1.65,0-3,1.35-3,3c0,1.65,1.35,3,3,3h0c1.105,0,2,0.895,2,2c0,1.105-0.895,2-2,2H4.189 c-2.086,0-3.958,1.514-4.168,3.59C-0.22,59.972,1.665,62,4,62h53.811c2.086,0,3.958-1.514,4.168-3.59C62.22,56.028,60.335,54,58,54z"/><linearGradient id="cvAS7AZhho6MHmuwslnCxb" x1="32" x2="32" y1="78.528" y2="14.972" gradientUnits="userSpaceOnUse" spreadMethod="reflect"><stop offset="0" stop-color="#155cde"/><stop offset=".278" stop-color="#1f7fe5"/><stop offset=".569" stop-color="#279ceb"/><stop offset=".82" stop-color="#2cafef"/><stop offset="1" stop-color="#2eb5f0"/></linearGradient><path fill="url(#cvAS7AZhho6MHmuwslnCxb)" d="M50,12H14c-2.209,0-4,1.791-4,4v36c0,2.209,1.791,4,4,4h36c2.209,0,4-1.791,4-4V16 C54,13.791,52.209,12,50,12z"/><linearGradient id="cvAS7AZhho6MHmuwslnCxc" x1="32" x2="32" y1="56" y2="12" gradientUnits="userSpaceOnUse" spreadMethod="reflect"><stop offset=".003" stop-color="#3995e9"/><stop offset="1" stop-color="#4dc0f2"/></linearGradient><path fill="url(#cvAS7AZhho6MHmuwslnCxc)" d="M50,12H25c-1.1,0-2,0.9-2,2c0,1.1,0.9,2,2,2h2c1.1,0,2,0.9,2,2c0,1.1-0.9,2-2,2h-1h-6 c-1.65,0-3,1.35-3,3c0,1.65,1.35,3,3,3h11v6H10v20c0,2.209,1.791,4,4,4h36c2.209,0,4-1.791,4-4V32v-8v-8C54,13.791,52.209,12,50,12z"/><linearGradient id="cvAS7AZhho6MHmuwslnCxd" x1="48" x2="48" y1="20.497" y2="13.42" gradientUnits="userSpaceOnUse" spreadMethod="reflect"><stop offset="0" stop-color="#ff634d"/><stop offset=".204" stop-color="#fe6464"/><stop offset=".521" stop-color="#fc6581"/><stop offset=".794" stop-color="#fa6694"/><stop offset=".989" stop-color="#fa669a"/><stop offset="1" stop-color="#fa669a"/></linearGradient><path fill="url(#cvAS7AZhho6MHmuwslnCxd)" d="M49,20h-2c-0.55,0-1-0.45-1-1v-2c0-0.55,0.45-1,1-1h2c0.55,0,1,0.45,1,1v2 C50,19.55,49.55,20,49,20z"/><linearGradient id="cvAS7AZhho6MHmuwslnCxe" x1="41" x2="41" y1="22.293" y2="16.038" gradientUnits="userSpaceOnUse" spreadMethod="reflect"><stop offset="0" stop-color="#0d47a1"/><stop offset=".365" stop-color="#135fba"/><stop offset=".734" stop-color="#1770cc"/><stop offset="1" stop-color="#1976d2"/></linearGradient><path fill="url(#cvAS7AZhho6MHmuwslnCxe)" d="M42,20h-2c-0.55,0-1-0.45-1-1v-2c0-0.55,0.45-1,1-1h2c0.55,0,1,0.45,1,1v2 C43,19.55,42.55,20,42,20z"/><linearGradient id="cvAS7AZhho6MHmuwslnCxf" x1="34" x2="34" y1="22.35" y2="16.095" gradientUnits="userSpaceOnUse" spreadMethod="reflect"><stop offset="0" stop-color="#0d47a1"/><stop offset=".365" stop-color="#135fba"/><stop offset=".734" stop-color="#1770cc"/><stop offset="1" stop-color="#1976d2"/></linearGradient><path fill="url(#cvAS7AZhho6MHmuwslnCxf)" d="M35,20h-2c-0.55,0-1-0.45-1-1v-2c0-0.55,0.45-1,1-1h2c0.55,0,1,0.45,1,1v2 C36,19.55,35.55,20,35,20z"/><path fill="#f1fcff" d="M48,24H16c-1.105,0-2,0.895-2,2v24c0,1.105,0.895,2,2,2h32c1.105,0,2-0.895,2-2V26 C50,24.895,49.105,24,48,24z"/></svg>