<svg xmlns="http://www.w3.org/2000/svg"  viewBox="0 0 64 64" width="50px" height="50px"><radialGradient id="XMaU7woR8TWaO5fJL1Yqla" cx="32" cy="31.5" r="31.751" gradientUnits="userSpaceOnUse" spreadMethod="reflect"><stop offset="0" stop-color="#ecd59c"/><stop offset=".242" stop-color="#efd9a4"/><stop offset=".627" stop-color="#f6e5bb"/><stop offset="1" stop-color="#fff3d8"/></radialGradient><path fill="url(#XMaU7woR8TWaO5fJL1Yqla)" d="M60.5,32c2.168,0,3.892-1.998,3.422-4.243C63.58,26.122,62.056,25,60.385,25L43,25v-7 l14.386,0c1.67,0,3.195-1.122,3.537-2.757C61.392,12.997,59.668,11,57.5,11H46c-1.105,0-2-0.895-2-2v0c0-1.105,0.895-2,2-2l4.385,0 c1.67,0,3.195-1.122,3.537-2.757C54.392,1.998,52.668,0,50.5,0L10.615,0C8.944,0,7.42,1.122,7.078,2.757C6.608,5.002,8.332,7,10.5,7 H13c1.105,0,2,0.895,2,2v0c0,1.105-0.895,2-2,2l-6.385,0c-1.67,0-3.195,1.122-3.537,2.757C2.608,16.002,4.332,18,6.5,18H22l0,15 L3.614,33c-1.67,0-3.195,1.122-3.537,2.757C-0.392,38.002,1.332,40,3.5,40H4c1.105,0,2,0.895,2,2v0c0,1.105-0.895,2-2,2H3.615 c-1.67,0-3.195,1.122-3.537,2.757C-0.392,49.002,1.332,51,3.5,51h21.115C25.932,51,27,52.068,27,53.385v0.229 C27,54.932,25.932,56,24.615,56l-5,0c-1.67,0-3.195,1.122-3.537,2.757C15.608,61.002,17.332,63,19.5,63l38.885,0 c1.67,0,3.195-1.122,3.537-2.757C62.392,57.998,60.668,56,58.5,56h-3.115C54.068,56,53,54.932,53,53.615v-0.229 C53,52.068,54.068,51,55.385,51h0c1.67,0,3.195-1.122,3.537-2.757C59.392,45.998,57.668,44,55.5,44H43l0-12H60.5z"/><linearGradient id="XMaU7woR8TWaO5fJL1Yqlb" x1="32" x2="32" y1="9" y2="59" gradientUnits="userSpaceOnUse" spreadMethod="reflect"><stop offset="0" stop-color="#42d778"/><stop offset=".428" stop-color="#3dca76"/><stop offset="1" stop-color="#34b171"/></linearGradient><path fill="url(#XMaU7woR8TWaO5fJL1Yqlb)" d="M52,9H12c-2.761,0-5,2.239-5,5v30v12.35C7,57.814,8.186,59,9.65,59h0.007 c0.844,0,1.638-0.402,2.137-1.083l5.041-6.874C17.777,49.759,19.274,49,20.867,49H52c2.761,0,5-2.239,5-5V14 C57,11.239,54.761,9,52,9z"/><linearGradient id="XMaU7woR8TWaO5fJL1Yqlc" x1="14.5" x2="14.5" y1="13.262" y2="39.596" gradientUnits="userSpaceOnUse" spreadMethod="reflect"><stop offset="0" stop-color="#62de8f"/><stop offset=".478" stop-color="#5dd18d"/><stop offset="1" stop-color="#56be89"/></linearGradient><path fill="url(#XMaU7woR8TWaO5fJL1Yqlc)" d="M18,21.5L18,21.5c0-1.381-1.119-2.5-2.5-2.5h-1c-1.381,0-2.5-1.119-2.5-2.5v0 c0-1.381,1.119-2.5,2.5-2.5h5c1.381,0,2.5-1.119,2.5-2.5v0c0-1.381-1.119-2.5-2.5-2.5H12c-2.761,0-5,2.239-5,5v10h8.5 C16.881,24,18,22.881,18,21.5z"/><linearGradient id="XMaU7woR8TWaO5fJL1Yqld" x1="23" x2="23" y1="15.686" y2="37.604" gradientUnits="userSpaceOnUse" spreadMethod="reflect"><stop offset="0" stop-color="#62de8f"/><stop offset=".478" stop-color="#5dd18d"/><stop offset="1" stop-color="#56be89"/></linearGradient><path fill="url(#XMaU7woR8TWaO5fJL1Yqld)" d="M23 20A2 2 0 1 0 23 24A2 2 0 1 0 23 20Z"/><g><linearGradient id="XMaU7woR8TWaO5fJL1Yqle" x1="45.5" x2="45.5" y1="49" y2="32" gradientUnits="userSpaceOnUse" spreadMethod="reflect"><stop offset="0" stop-color="#37ab6a"/><stop offset=".422" stop-color="#39b66f"/><stop offset="1" stop-color="#3ac074"/></linearGradient><path fill="url(#XMaU7woR8TWaO5fJL1Yqle)" d="M45,35L45,35c0,1.657,1.343,3,3,3h0.5c1.381,0,2.5,1.119,2.5,2.5v0 c0,1.381-1.119,2.5-2.5,2.5L37,43c-1.657,0-3,1.343-3,3v0c0,1.657,1.343,3,3,3h15c2.761,0,5-2.239,5-5V32l-9,0 C46.343,32,45,33.343,45,35z"/><linearGradient id="XMaU7woR8TWaO5fJL1Yqlf" x1="40" x2="40" y1="47.248" y2="32.859" gradientUnits="userSpaceOnUse" spreadMethod="reflect"><stop offset="0" stop-color="#37ab6a"/><stop offset=".422" stop-color="#39b66f"/><stop offset="1" stop-color="#3ac074"/></linearGradient><path fill="url(#XMaU7woR8TWaO5fJL1Yqlf)" d="M40 32A3 3 0 1 0 40 38A3 3 0 1 0 40 32Z"/></g><g><path fill="#fff" d="M32 25A3 3 0 1 0 32 31 3 3 0 1 0 32 25zM43 25A3 3 0 1 0 43 31 3 3 0 1 0 43 25zM21 25A3 3 0 1 0 21 31 3 3 0 1 0 21 25z"/></g></svg>