<svg xmlns="http://www.w3.org/2000/svg"  viewBox="0 0 48 48" width="50px" height="50px"><linearGradient id="hoOdddA1SEopqhgO_bnzAa" x1="36.25" x2="36.25" y1="38.043" y2="23.006" gradientUnits="userSpaceOnUse"><stop offset="0" stop-color="#912fbd"/><stop offset="1" stop-color="#9332bf"/></linearGradient><path fill="url(#hoOdddA1SEopqhgO_bnzAa)" d="M44.516,25.668L32.668,37.516c-0.645,0.645-1.69,0.645-2.335,0l-2.349-2.349	c-0.645-0.645-0.645-1.69,0-2.335l11.849-11.849c0.645-0.645,1.69-0.645,2.335,0l2.349,2.349	C45.161,23.977,45.161,25.023,44.516,25.668z"/><linearGradient id="hoOdddA1SEopqhgO_bnzAb" x1="558.976" x2="581.718" y1="35.709" y2="12.967" gradientTransform="matrix(-1 0 0 1 592 0)" gradientUnits="userSpaceOnUse"><stop offset="0" stop-color="#ae4cd5"/><stop offset="1" stop-color="#ac4ad5"/></linearGradient><path fill="url(#hoOdddA1SEopqhgO_bnzAb)" d="M4.5,28H41l-2.25-8H4.5C3.672,20,3,20.672,3,21.5v5C3,27.328,3.672,28,4.5,28z"/><linearGradient id="hoOdddA1SEopqhgO_bnzAc" x1="33.436" x2="38.157" y1="21.564" y2="16.843" gradientUnits="userSpaceOnUse"><stop offset="0" stop-color="#ae4cd5"/><stop offset="1" stop-color="#ac4ad5"/></linearGradient><path fill="url(#hoOdddA1SEopqhgO_bnzAc)" d="M44.516,23.332L31.667,10.484c-0.645-0.645-1.69-0.645-2.335,0l-2.349,2.349	c-0.645,0.645-0.645,1.69,0,2.335L39.816,28h2.368l2.333-2.333C45.161,25.023,45.161,23.977,44.516,23.332z"/></svg>