<svg xmlns="http://www.w3.org/2000/svg"  viewBox="0 0 64 64" width="50px" height="50px"><radialGradient id="PbrmnlOgsBT7eCSBa0cAea" cx="225" cy="32.5" r="31.751" gradientTransform="matrix(-1 0 0 1 257 0)" gradientUnits="userSpaceOnUse" spreadMethod="reflect"><stop offset="0" stop-color="#afeeff"/><stop offset=".193" stop-color="#bbf1ff"/><stop offset=".703" stop-color="#d7f8ff"/><stop offset="1" stop-color="#e1faff"/></radialGradient><path fill="url(#PbrmnlOgsBT7eCSBa0cAea)" d="M2.499,19.008H6c1.1,0,2-0.9,2-2c0-1.1-0.9-2-2-2H4c-1.85,0-3.32-1.69-2.94-3.6 c0.28-1.43,1.62-2.4,3.07-2.4L18.502,9c0.83,0,1.5-0.67,1.5-1.5c0-0.83-0.67-1.5-1.5-1.5h-5.91c-1.14,0-2.2-0.72-2.5-1.82 C9.642,2.52,10.902,1,12.502,1h48.906c1.14,0,2.2,0.72,2.5,1.82c0.45,1.66-0.81,3.18-2.41,3.18H59.5c-0.69,0-1.32,0.28-1.77,0.73 C57.28,7.18,57,7.81,57,8.5c0,1.38,1.12,2.5,2.5,2.5H61c1.65,0,3,1.35,3,3c0,1.65-1.35,3-3,3H49c0,0,0,27,0.05,27H59.5 c2.475,0,4.5,2.025,4.5,4.5c0,2.475-2.025,4.5-4.5,4.5h-5c-1.38,0-2.5,1.12-2.5,2.5s1.12,2.5,2.5,2.5H58c1.66,0,3,1.34,3,3 c0,1.66-1.34,3-3,3H3c-1.66,0-3-1.34-3-3c0-1.66,1.34-3,3-3h3.5C7.88,58,9,56.88,9,55.5S7.88,53,6.5,53h-1C3.025,53,1,50.975,1,48.5 C1,46.025,3.025,44,5.5,44H18V24L2.589,24.008c-1.14,0-2.2-0.72-2.5-1.82C-0.351,20.527,0.909,19.008,2.499,19.008z"/><linearGradient id="PbrmnlOgsBT7eCSBa0cAeb" x1="33" x2="33" y1="54.645" y2="9.355" gradientUnits="userSpaceOnUse" spreadMethod="reflect"><stop offset="0" stop-color="#ffc66c"/><stop offset="1" stop-color="#ffc490"/></linearGradient><path fill="url(#PbrmnlOgsBT7eCSBa0cAeb)" d="M40.075,13.711L27.157,9.674c-1.403-0.438-2.907-0.424-4.302,0.041l-10.804,3.601 C10.826,13.725,10,14.871,10,16.162v35.242c0,1.769,1.733,3.018,3.411,2.459l10.67-3.557c0.597-0.199,1.242-0.205,1.844-0.017 l12.918,4.037c1.403,0.438,2.907,0.424,4.302-0.041l10.804-3.601C55.174,50.275,56,49.129,56,47.838V12.596 c0-1.769-1.733-3.018-3.411-2.459l-10.67,3.557C41.322,13.893,40.677,13.899,40.075,13.711z"/><linearGradient id="PbrmnlOgsBT7eCSBa0cAec" x1="48.5" x2="48.5" y1="54.644" y2="10.002" gradientUnits="userSpaceOnUse" spreadMethod="reflect"><stop offset="0" stop-color="#ffcf7d"/><stop offset="1" stop-color="#ffcda0"/></linearGradient><path fill="url(#PbrmnlOgsBT7eCSBa0cAec)" d="M52.589,10.137l-10.67,3.557c-0.298,0.099-0.608,0.151-0.919,0.154v40.797 c0.725-0.007,1.448-0.127,2.144-0.359l10.804-3.602C55.174,50.275,56,49.129,56,47.838V12.596C56,10.827,54.267,9.578,52.589,10.137 z"/><linearGradient id="PbrmnlOgsBT7eCSBa0cAed" x1="33" x2="33" y1="54.644" y2="9.356" gradientUnits="userSpaceOnUse" spreadMethod="reflect"><stop offset="0" stop-color="#ffa673"/><stop offset="1" stop-color="#ffb680"/></linearGradient><path fill="url(#PbrmnlOgsBT7eCSBa0cAed)" d="M41,13.847c-0.312,0.003-0.624-0.042-0.925-0.136L27.157,9.674 C26.455,9.455,25.727,9.349,25,9.356v40.796c0.312-0.003,0.624,0.042,0.925,0.136l12.918,4.037c0.702,0.219,1.43,0.325,2.157,0.318 V13.847z"/><linearGradient id="PbrmnlOgsBT7eCSBa0cAee" x1="768.194" x2="768.194" y1="155.032" y2="145.018" gradientTransform="rotate(-90 339.5 435.5)" gradientUnits="userSpaceOnUse" spreadMethod="reflect"><stop offset="0" stop-color="#ff634d"/><stop offset=".208" stop-color="#fd6464"/><stop offset=".522" stop-color="#fc6582"/><stop offset=".793" stop-color="#fa6694"/><stop offset=".989" stop-color="#fa669a"/><stop offset="1" stop-color="#fa669a"/></linearGradient><path fill="url(#PbrmnlOgsBT7eCSBa0cAee)" d="M57.577,6.975l-3.711-3.709c-0.564-0.566-1.482-0.566-2.046,0l-1.747,1.747l5.758,5.757 l1.746-1.747C58.141,8.457,58.141,7.541,57.577,6.975"/><linearGradient id="PbrmnlOgsBT7eCSBa0cAef" x1="758.099" x2="758.099" y1="131.127" y2="147.62" gradientTransform="rotate(-90 339.5 435.5)" gradientUnits="userSpaceOnUse" spreadMethod="reflect"><stop offset="0" stop-color="#42d778"/><stop offset=".428" stop-color="#3dca76"/><stop offset="1" stop-color="#34b171"/></linearGradient><path fill="url(#PbrmnlOgsBT7eCSBa0cAef)" d="M40.694 25.908L34.937 20.15 47.193 7.894 52.95 13.652z"/><linearGradient id="PbrmnlOgsBT7eCSBa0cAeg" x1="765.666" x2="765.666" y1="138.359" y2="155.733" gradientTransform="rotate(-90 339.5 435.5)" gradientUnits="userSpaceOnUse" spreadMethod="reflect"><stop offset="0" stop-color="#a4a4a4"/><stop offset=".63" stop-color="#7f7f7f"/><stop offset="1" stop-color="#6f6f6f"/><stop offset="1" stop-color="#6f6f6f"/></linearGradient><path fill="url(#PbrmnlOgsBT7eCSBa0cAeg)" d="M52.953 13.652L47.193 7.896 50.071 5.016 55.831 10.773z"/><linearGradient id="PbrmnlOgsBT7eCSBa0cAeh" x1="-576" x2="-575" y1="-192" y2="-192" gradientTransform="matrix(-14.9451 0 0 14.9451 -8560.122 2893.455)" gradientUnits="userSpaceOnUse" spreadMethod="reflect"><stop offset="0" stop-color="#ffdd9f"/><stop offset=".004" stop-color="#ffdd9f"/><stop offset=".527" stop-color="#ffdcb1"/><stop offset="1" stop-color="#ffdbbd"/><stop offset="1" stop-color="#ffdbbd"/></linearGradient><path fill="url(#PbrmnlOgsBT7eCSBa0cAeh)" d="M34.938 20.146L33 27.841 40.695 25.904 34.938 20.146"/><linearGradient id="PbrmnlOgsBT7eCSBa0cAei" x1="749.104" x2="749.104" y1="128.197" y2="132.087" gradientTransform="rotate(-90 339.5 435.5)" gradientUnits="userSpaceOnUse" spreadMethod="reflect"><stop offset="0" stop-color="#a4a4a4"/><stop offset=".63" stop-color="#7f7f7f"/><stop offset="1" stop-color="#6f6f6f"/><stop offset="1" stop-color="#6f6f6f"/></linearGradient><path fill="url(#PbrmnlOgsBT7eCSBa0cAei)" d="M33.979 23.952L33 27.841 36.89 26.862z"/></svg>