<svg xmlns="http://www.w3.org/2000/svg"  viewBox="0 0 48 48" width="50px" height="50px"><linearGradient id="t1Pvot74FybiP8S9kaukka" x1="18.188" x2="29.446" y1="6.001" y2="40.865" gradientUnits="userSpaceOnUse"><stop offset="0" stop-color="#bd4ff4"/><stop offset=".587" stop-color="#a235ec"/><stop offset="1" stop-color="#8c20e5"/></linearGradient><path fill="url(#t1Pvot74FybiP8S9kaukka)" d="M40,6H8C6.895,6,6,6.895,6,8v32c0,1.105,0.895,2,2,2h32c1.105,0,2-0.895,2-2V8	C42,6.895,41.105,6,40,6z"/><path d="M34,21h-7v-7c0-1.105-0.895-2-2-2h-2c-1.105,0-2,0.895-2,2v7h-7c-1.105,0-2,0.895-2,2v2	c0,1.105,0.895,2,2,2h7v7c0,1.105,0.895,2,2,2h2c1.105,0,2-0.895,2-2v-7h7c1.105,0,2-0.895,2-2v-2C36,21.895,35.105,21,34,21z" opacity=".05"/><path d="M34,21.5h-7.5V14c0-0.828-0.672-1.5-1.5-1.5h-2c-0.828,0-1.5,0.672-1.5,1.5v7.5H14	c-0.828,0-1.5,0.672-1.5,1.5v2c0,0.828,0.672,1.5,1.5,1.5h7.5V34c0,0.828,0.672,1.5,1.5,1.5h2c0.828,0,1.5-0.672,1.5-1.5v-7.5H34	c0.828,0,1.5-0.672,1.5-1.5v-2C35.5,22.172,34.828,21.5,34,21.5z" opacity=".07"/><path fill="#fff" d="M23,13h2c0.552,0,1,0.448,1,1v20c0,0.552-0.448,1-1,1h-2c-0.552,0-1-0.448-1-1V14	C22,13.448,22.448,13,23,13z"/><path fill="#fff" d="M35,23v2c0,0.552-0.448,1-1,1H14c-0.552,0-1-0.448-1-1v-2c0-0.552,0.448-1,1-1h20	C34.552,22,35,22.448,35,23z"/></svg>