<svg xmlns="http://www.w3.org/2000/svg"  viewBox="0 0 48 48" width="50px" height="50px"><path fill="#50e6ff" d="M4,38V15h40v23c0,1.1-0.9,2-2,2H6C4.9,40,4,39.1,4,38z"/><linearGradient id="LsSlicCxOOXyUz~OA3wSJa" x1="4.614" x2="42.936" y1="-198.259" y2="-190.467" gradientTransform="translate(0 206)" gradientUnits="userSpaceOnUse"><stop offset="0" stop-color="#0077d2"/><stop offset="1" stop-color="#0b59a2"/></linearGradient><path fill="url(#LsSlicCxOOXyUz~OA3wSJa)" d="M44,10v5H4v-5c0-1.1,0.9-2,2-2h36C43.1,8,44,8.9,44,10z"/><linearGradient id="LsSlicCxOOXyUz~OA3wSJb" x1="6.751" x2="8.032" y1="-195.584" y2="-193.731" gradientTransform="translate(0 206)" gradientUnits="userSpaceOnUse"><stop offset="0" stop-color="#75daff"/><stop offset="1" stop-color="#49bef1"/></linearGradient><circle cx="7.5" cy="11.5" r="1.5" fill="url(#LsSlicCxOOXyUz~OA3wSJb)"/><linearGradient id="LsSlicCxOOXyUz~OA3wSJc" x1="11.751" x2="13.032" y1="-195.584" y2="-193.731" gradientTransform="translate(0 206)" gradientUnits="userSpaceOnUse"><stop offset="0" stop-color="#75daff"/><stop offset="1" stop-color="#49bef1"/></linearGradient><circle cx="12.5" cy="11.5" r="1.5" fill="url(#LsSlicCxOOXyUz~OA3wSJc)"/><linearGradient id="LsSlicCxOOXyUz~OA3wSJd" x1="16.751" x2="18.032" y1="-195.584" y2="-193.731" gradientTransform="translate(0 206)" gradientUnits="userSpaceOnUse"><stop offset="0" stop-color="#75daff"/><stop offset="1" stop-color="#49bef1"/></linearGradient><circle cx="17.5" cy="11.5" r="1.5" fill="url(#LsSlicCxOOXyUz~OA3wSJd)"/><path d="M42,40c1.1,0,2-0.9,2-2v-1.122c-0.67,0.055-1.429,0.161-2.286,0.327	c-0.893-0.896-1.78-2.053-2.587-3.37c0.716-2.702,0.83-4.667,0.351-5.812C39.061,26.775,38.001,26,36.711,26	c-1.044,0-1.923,0.414-2.58,1.251c-0.411,0.688-0.62,1.44-0.62,2.236c0,1.364,0.495,3.135,1.362,4.884	c-0.549,1.815-1.369,3.791-2.326,5.629H42z" opacity=".05"/><path d="M42,40c1.1,0,2-0.9,2-2v-0.62c-0.708,0.06-1.521,0.18-2.448,0.367	c-1.028-0.991-2.047-2.309-2.963-3.835c0.735-2.698,0.871-4.636,0.414-5.73c-0.352-1.053-1.208-1.681-2.292-1.681	c-0.883,0-1.614,0.33-2.151,1.008c-0.364,0.609-0.549,1.274-0.549,1.979c0,1.341,0.508,3.094,1.398,4.836	c-0.538,1.829-1.35,3.808-2.306,5.676H42z M37.427,37.448c0.303,0.408,0.613,0.792,0.93,1.149c-0.54,0.154-1.079,0.323-1.613,0.497	C36.977,38.549,37.214,37.995,37.427,37.448z" opacity=".07"/><path fill="#e52030" d="M29.822,47.091c-0.383,0-0.67-0.096-0.957-0.191c-1.052-0.574-1.148-1.435-0.957-2.105	c0.383-1.148,2.487-2.583,5.262-3.827l0,0c1.244-2.296,2.2-4.688,2.774-6.697c-0.957-1.818-1.435-3.54-1.435-4.784	c0-0.67,0.191-1.244,0.478-1.722C35.371,27.287,35.945,27,36.711,27c0.861,0,1.531,0.478,1.818,1.339	c0.478,1.148,0.191,3.253-0.478,5.645c0.957,1.626,2.105,3.157,3.348,4.305c1.818-0.383,3.444-0.574,4.497-0.383	C47.713,38.194,48,39.437,48,39.916c0,2.009-2.105,2.009-2.87,2.009c-1.435,0-2.87-0.574-4.114-1.626l0,0	c-2.296,0.574-4.592,1.339-6.41,2.2c-0.957,1.626-1.913,2.966-2.774,3.731C30.971,46.9,30.301,47.091,29.822,47.091z M37.285,36.376	c-0.383,1.148-0.957,2.392-1.435,3.54c1.148-0.383,2.296-0.765,3.444-1.052C38.529,38.098,37.859,37.237,37.285,36.376z"/></svg>