<svg xmlns="http://www.w3.org/2000/svg"  viewBox="0 0 64 64" width="50px" height="50px"><radialGradient id="nALtvfcAiJ7msROx1rAdua" cx="437.333" cy="42.267" r="352.587" gradientUnits="userSpaceOnUse" spreadMethod="reflect"><stop offset="0" stop-color="#f4e09d"/><stop offset=".226" stop-color="#f8e8b5"/><stop offset=".513" stop-color="#fcf0cd"/><stop offset=".778" stop-color="#fef4dc"/><stop offset="1" stop-color="#fff6e1"/></radialGradient><path fill="url(#nALtvfcAiJ7msROx1rAdua)" d="M0,30.5L0,30.5C0,29.119,1.119,28,2.5,28h0C3.881,28,5,29.119,5,30.5v0 C5,31.881,3.881,33,2.5,33h0C1.119,33,0,31.881,0,30.5z M58,41l2.302,0c1.895,0,3.594-1.419,3.693-3.312 C64.101,35.67,62.495,34,60.5,34h-2.411c-0.965,0-1.861-0.645-2.048-1.592c-0.248-1.254,0.677-2.356,1.874-2.406 c1.518-0.064,2.885-1.126,3.064-2.635C61.194,25.546,59.777,24,58,24l-4.302,0c-1.895,0-3.594-1.419-3.693-3.312 C49.899,18.67,51.505,17,53.5,17l2.5,0c1.895,0,3.594-1.419,3.693-3.312C59.799,11.67,58.194,10,56.198,10H21v4l-10.302,0 c-1.895,0-3.594,1.419-3.693,3.312C6.899,19.33,8.505,21,10.5,21H18v7H9c-1.381,0-2.5,1.119-2.5,2.5v0C6.5,31.881,7.619,33,9,33h0.5 c1.381,0,2.5,1.119,2.5,2.5v0c0,1.381-1.119,2.5-2.5,2.5l-6.33,0c-1.624,0-3.081,1.216-3.166,2.839C-0.086,42.569,1.29,44,3,44 l4.893,0c0.996,0,1.92,0.681,2.08,1.664C10.176,46.917,9.215,48,8,48l-0.83,0c-1.624,0-3.081,1.216-3.166,2.839 C3.914,52.569,5.29,54,7,54h38v-1l12.852,0c1.582,0,3.003-1.162,3.137-2.738c0.151-1.779-1.252-3.27-3.002-3.262 c-1.028,0.004-2.033-0.434-2.532-1.332C54.166,43.35,55.808,41,58,41z M58,41l2.302,0c1.895,0,3.594-1.419,3.693-3.312 C64.101,35.67,62.495,34,60.5,34h-2.411c-0.965,0-1.861-0.645-2.048-1.592c-0.248-1.254,0.677-2.356,1.874-2.406 c1.518-0.064,2.885-1.126,3.064-2.635C61.194,25.546,59.777,24,58,24l-4.302,0c-1.895,0-3.594-1.419-3.693-3.312 C49.899,18.67,51.505,17,53.5,17l2.5,0c1.895,0,3.594-1.419,3.693-3.312C59.799,11.67,58.194,10,56.198,10H21v4l-10.302,0 c-1.895,0-3.594,1.419-3.693,3.312C6.899,19.33,8.505,21,10.5,21H18v7H9c-1.381,0-2.5,1.119-2.5,2.5v0C6.5,31.881,7.619,33,9,33h0.5 c1.381,0,2.5,1.119,2.5,2.5v0c0,1.381-1.119,2.5-2.5,2.5l-6.33,0c-1.624,0-3.081,1.216-3.166,2.839C-0.086,42.569,1.29,44,3,44 l4.893,0c0.996,0,1.92,0.681,2.08,1.664C10.176,46.917,9.215,48,8,48l-0.83,0c-1.624,0-3.081,1.216-3.166,2.839 C3.914,52.569,5.29,54,7,54h38v-1l12.852,0c1.582,0,3.003-1.162,3.137-2.738c0.151-1.779-1.252-3.27-3.002-3.262 c-1.028,0.004-2.033-0.434-2.532-1.332C54.166,43.35,55.808,41,58,41z"/><linearGradient id="nALtvfcAiJ7msROx1rAdub" x1="30" x2="30" y1="58" y2="12" gradientUnits="userSpaceOnUse" spreadMethod="reflect"><stop offset="0" stop-color="#2077e2"/><stop offset=".237" stop-color="#2582e5"/><stop offset=".658" stop-color="#34a1ec"/><stop offset="1" stop-color="#42bef3"/></linearGradient><path fill="url(#nALtvfcAiJ7msROx1rAdub)" d="M44,58H16c-1.657,0-3-1.343-3-3V15c0-1.657,1.343-3,3-3h14.757 c0.796,0,1.559,0.316,2.121,0.879l13.243,13.243C46.684,26.684,47,27.447,47,28.243V55C47,56.657,45.657,58,44,58z"/><linearGradient id="nALtvfcAiJ7msROx1rAduc" x1="36" x2="36" y1="52" y2="6" gradientUnits="userSpaceOnUse" spreadMethod="reflect"><stop offset="0" stop-color="#49cff0"/><stop offset=".214" stop-color="#54d3f2"/><stop offset=".595" stop-color="#73dff8"/><stop offset="1" stop-color="#9aedff"/></linearGradient><path fill="url(#nALtvfcAiJ7msROx1rAduc)" d="M50,52H22c-1.657,0-3-1.343-3-3V9c0-1.657,1.343-3,3-3h18l13,13v30 C53,50.657,51.657,52,50,52z"/><linearGradient id="nALtvfcAiJ7msROx1rAdud" x1="36" x2="36" y1="52" y2="6" gradientUnits="userSpaceOnUse" spreadMethod="reflect"><stop offset="0" stop-color="#41bfec"/><stop offset=".232" stop-color="#4cc5ef"/><stop offset=".644" stop-color="#6bd4f6"/><stop offset="1" stop-color="#8ae4fd"/></linearGradient><path fill="url(#nALtvfcAiJ7msROx1rAdud)" d="M50,52H22c-1.657,0-3-1.343-3-3V9c0-1.657,1.343-3,3-3h16.757 c0.796,0,1.559,0.316,2.121,0.879l11.243,11.243C52.684,18.684,53,19.447,53,20.243V49C53,50.657,51.657,52,50,52z"/><linearGradient id="nALtvfcAiJ7msROx1rAdue" x1="40.879" x2="47.31" y1="18.121" y2="11.69" gradientUnits="userSpaceOnUse" spreadMethod="reflect"><stop offset="0" stop-color="#c6effd"/><stop offset=".375" stop-color="#b7ecfd"/><stop offset="1" stop-color="#95e6fd"/></linearGradient><path fill="url(#nALtvfcAiJ7msROx1rAdue)" d="M52.121,18.121L40.879,6.879c-0.256-0.256-0.556-0.452-0.879-0.6V16c0,1.657,1.343,3,3,3 h9.721C52.574,18.677,52.377,18.377,52.121,18.121z"/><linearGradient id="nALtvfcAiJ7msROx1rAduf" x1="46.5" x2="46.5" y1="22.083" y2="16.083" gradientUnits="userSpaceOnUse" spreadMethod="reflect"><stop offset="0" stop-color="#42c6ee"/><stop offset=".48" stop-color="#3bc3ed"/><stop offset="1" stop-color="#2ebeea"/></linearGradient><path fill="url(#nALtvfcAiJ7msROx1rAduf)" d="M53,20.243c0-0.434-0.102-0.855-0.279-1.243H43c-1.657,0-3-1.343-3-3v3c0,1.657,1.343,3,3,3 h10V20.243z"/><g><path fill="#f1fcff" d="M35.5 38c-.829 0-1.5-.671-1.5-1.5 0-2.488 1.388-3.824 2.504-4.896C37.487 30.658 38 30.118 38 29.108c0-2.046-2.244-2.105-2.5-2.105-.843 0-2.322.361-2.515 1.712-.117.82-.883 1.388-1.697 1.272-.82-.118-1.39-.877-1.272-1.697.422-2.946 3.139-4.288 5.485-4.288 2.733 0 5.5 1.754 5.5 5.105 0 2.333-1.34 3.622-2.417 4.657C37.572 34.738 37 35.345 37 36.5 37 37.329 36.329 38 35.5 38zM35.5 40A1.5 1.5 0 1 0 35.5 43 1.5 1.5 0 1 0 35.5 40z"/></g></svg>