<svg xmlns="http://www.w3.org/2000/svg"  viewBox="0 0 48 48" width="50px" height="50px"><linearGradient id="_hJYChLD5zxziwZTobIGga" x1="13.25" x2="13.25" y1="42.071" y2="28.237" gradientUnits="userSpaceOnUse"><stop offset=".365" stop-color="#199ae0"/><stop offset=".699" stop-color="#1898de"/><stop offset=".819" stop-color="#1691d8"/><stop offset=".905" stop-color="#1186cc"/><stop offset=".974" stop-color="#0a75bc"/><stop offset="1" stop-color="#076cb3"/></linearGradient><path fill="url(#_hJYChLD5zxziwZTobIGga)" d="M2.484,25.168l15.849,15.849c0.645,0.645,1.69,0.645,2.335,0l3.349-3.349	c0.645-0.645,0.645-1.69,0-2.335L8.168,19.484c-0.645-0.645-1.69-0.645-2.335,0l-3.349,3.349	C1.839,23.477,1.839,24.523,2.484,25.168z"/><linearGradient id="_hJYChLD5zxziwZTobIGgb" x1="13.588" x2="38.039" y1="35.985" y2="11.533" gradientUnits="userSpaceOnUse"><stop offset="0" stop-color="#32bdef"/><stop offset="1" stop-color="#1ea2e4"/></linearGradient><path fill="url(#_hJYChLD5zxziwZTobIGgb)" d="M44,19H17.684l6.333-6.333c0.645-0.645,0.645-1.69,0-2.335l-3.349-3.349 c-0.645-0.645-1.69-0.645-2.335,0L2.484,22.832c-0.645,0.645-0.645,1.69,0,2.335l3.349,3.349C6.155,28.839,6.577,29,7,29h37 c1.105,0,2-0.895,2-2v-6C46,19.895,45.105,19,44,19z"/></svg>