<svg xmlns="http://www.w3.org/2000/svg"  viewBox="0 0 64 64" width="50px" height="50px"><radialGradient id="OCPLEtffRq4njdwV4TJRIa" cx="30.125" cy="27.125" r="33.699" gradientUnits="userSpaceOnUse" spreadMethod="reflect"><stop offset="0" stop-color="#c5f1ff"/><stop offset=".35" stop-color="#cdf3ff"/><stop offset=".907" stop-color="#e4faff"/><stop offset="1" stop-color="#e9fbff"/></radialGradient><path fill="url(#OCPLEtffRq4njdwV4TJRIa)" d="M45,8L45,8c2.209,0,4-1.791,4-4v0c0-2.209-1.791-4-4-4h0c-2.209,0-4,1.791-4,4v0 C41,6.209,42.791,8,45,8z"/><radialGradient id="OCPLEtffRq4njdwV4TJRIb" cx="31" cy="32" r="31.504" gradientUnits="userSpaceOnUse" spreadMethod="reflect"><stop offset="0" stop-color="#c5f1ff"/><stop offset=".35" stop-color="#cdf3ff"/><stop offset=".907" stop-color="#e4faff"/><stop offset="1" stop-color="#e9fbff"/></radialGradient><path fill="url(#OCPLEtffRq4njdwV4TJRIb)" d="M62,47.5L62,47.5c0-2.485-2.015-4.5-4.5-4.5H32c-1.105,0-2-0.895-2-2V22c0-1.105,0.895-2,2-2 h10c2.209,0,4-1.791,4-4v0c0-2.209-1.791-4-4-4H32c-1.105,0-2-0.895-2-2v0c0-1.105,0.895-2,2-2h1c2.209,0,4-1.791,4-4v0 c0-2.209-1.791-4-4-4H8.5C5.462,0,3,2.462,3,5.5v0C3,8.538,5.462,11,8.5,11h3c3.038,0,5.5,2.462,5.5,5.5v0 c0,3.038-2.462,5.5-5.5,5.5h-6C2.462,22,0,24.462,0,27.5v0C0,30.538,2.462,33,5.5,33H14c1.657,0,3,1.343,3,3v0c0,1.657-1.343,3-3,3 H6.5C4.015,39,2,41.015,2,43.5v0C2,45.985,4.015,48,6.5,48H14c2.209,0,4,1.791,4,4v0c0,2.209-1.791,4-4,4h-1c-2.209,0-4,1.791-4,4v0 c0,2.209,1.791,4,4,4h40c2.209,0,4-1.791,4-4v0c0-2.209-1.791-4-4-4h-3c-1.105,0-2-0.895-2-2v0c0-1.105,0.895-2,2-2h7.5 C59.985,52,62,49.985,62,47.5z"/><linearGradient id="OCPLEtffRq4njdwV4TJRIc" x1="30" x2="30" y1="52" y2="9" gradientUnits="userSpaceOnUse" spreadMethod="reflect"><stop offset="0" stop-color="#ff8b67"/><stop offset=".847" stop-color="#ffa76a"/><stop offset="1" stop-color="#ffad6b"/><stop offset="1" stop-color="#ffad6b"/></linearGradient><path fill="url(#OCPLEtffRq4njdwV4TJRIc)" d="M26,13L26,13c0-2.209-1.791-4-4-4H12c-2.209,0-4,1.791-4,4v34c0,2.761,2.239,5,5,5h39V20 c0-2.209-1.791-4-4-4H29C27.343,16,26,14.657,26,13z"/><linearGradient id="OCPLEtffRq4njdwV4TJRId" x1="35.5" x2="35.5" y1="52" y2="23" gradientUnits="userSpaceOnUse" spreadMethod="reflect"><stop offset="0" stop-color="#ffc050"/><stop offset=".004" stop-color="#ffc050"/><stop offset=".641" stop-color="#ffbe75"/><stop offset="1" stop-color="#ffbd85"/><stop offset="1" stop-color="#ffbd85"/></linearGradient><path fill="url(#OCPLEtffRq4njdwV4TJRId)" d="M19,52h33c3.314,0,6-2.686,6-6V27c0-2.209-1.791-4-4-4H22c-2.209,0-4,1.791-4,4v20 c0,2.761-2.239,5-5,5H19z"/><linearGradient id="OCPLEtffRq4njdwV4TJRIe" x1="31" x2="31" y1="52" y2="23" gradientUnits="userSpaceOnUse" spreadMethod="reflect"><stop offset="0" stop-color="#ffc96a"/><stop offset=".004" stop-color="#ffc96a"/><stop offset=".578" stop-color="#ffc887"/><stop offset="1" stop-color="#ffc797"/><stop offset="1" stop-color="#ffc797"/></linearGradient><path fill="url(#OCPLEtffRq4njdwV4TJRIe)" d="M18,27v20c0,2.761-2.239,5-5,5h0h22c1.657,0,3-1.343,3-3v0c0-1.657-1.343-3-3-3h-4 c-1.657,0-3-1.343-3-3v0c0-1.657,1.343-3,3-3h4.5c1.381,0,2.5-1.119,2.5-2.5v0c0-1.381-1.119-2.5-2.5-2.5H34c-1.657,0-3-1.343-3-3 v0c0-1.657,1.343-3,3-3h12c1.657,0,3-1.343,3-3v0c0-1.657-1.343-3-3-3H22C19.791,23,18,24.791,18,27z"/><linearGradient id="OCPLEtffRq4njdwV4TJRIf" x1="45.5" x2="45.5" y1="40" y2="35" gradientUnits="userSpaceOnUse" spreadMethod="reflect"><stop offset="0" stop-color="#ffc96a"/><stop offset=".004" stop-color="#ffc96a"/><stop offset=".578" stop-color="#ffc887"/><stop offset="1" stop-color="#ffc797"/><stop offset="1" stop-color="#ffc797"/></linearGradient><path fill="url(#OCPLEtffRq4njdwV4TJRIf)" d="M45.5,40L45.5,40c1.381,0,2.5-1.119,2.5-2.5v0c0-1.381-1.119-2.5-2.5-2.5h0 c-1.381,0-2.5,1.119-2.5,2.5v0C43,38.881,44.119,40,45.5,40z"/></svg>