<svg xmlns="http://www.w3.org/2000/svg"  viewBox="0 0 64 64" width="50px" height="50px"><radialGradient id="J1Njq1R3UQQed7g~_gGw~a" cx="36.833" cy="35.917" r="26" gradientUnits="userSpaceOnUse" spreadMethod="reflect"><stop offset="0" stop-color="#afeeff"/><stop offset=".193" stop-color="#bbf1ff"/><stop offset=".703" stop-color="#d7f8ff"/><stop offset="1" stop-color="#e1faff"/></radialGradient><path fill="url(#J1Njq1R3UQQed7g~_gGw~a)" d="M10,8L10,8c2.209,0,4-1.791,4-4v0c0-2.209-1.791-4-4-4h0C7.791,0,6,1.791,6,4v0 C6,6.209,7.791,8,10,8z"/><radialGradient id="J1Njq1R3UQQed7g~_gGw~b" cx="31.417" cy="29.917" r="28.77" gradientUnits="userSpaceOnUse" spreadMethod="reflect"><stop offset="0" stop-color="#afeeff"/><stop offset=".193" stop-color="#bbf1ff"/><stop offset=".703" stop-color="#d7f8ff"/><stop offset="1" stop-color="#e1faff"/></radialGradient><path fill="url(#J1Njq1R3UQQed7g~_gGw~b)" d="M7.5,64L7.5,64c1.933,0,3.5-1.567,3.5-3.5v0c0-1.933-1.567-3.5-3.5-3.5h0 C5.567,57,4,58.567,4,60.5v0C4,62.433,5.567,64,7.5,64z"/><radialGradient id="J1Njq1R3UQQed7g~_gGw~c" cx="32" cy="32" r="32" gradientUnits="userSpaceOnUse" spreadMethod="reflect"><stop offset="0" stop-color="#afeeff"/><stop offset=".193" stop-color="#bbf1ff"/><stop offset=".703" stop-color="#d7f8ff"/><stop offset="1" stop-color="#e1faff"/></radialGradient><path fill="url(#J1Njq1R3UQQed7g~_gGw~c)" d="M62,20.5L62,20.5c0-2.485-2.015-4.5-4.5-4.5H49c-2.209,0-4-1.791-4-4v0c0-2.209,1.791-4,4-4 h2c2.209,0,4-1.791,4-4v0c0-2.209-1.791-4-4-4L20,0c-2.209,0-4,1.791-4,4v0c0,2.209,1.791,4,4,4h2c1.657,0,3,1.343,3,3v0 c0,1.657-1.343,3-3,3H7.5C5.567,14,4,15.567,4,17.5v0C4,19.433,5.567,21,7.5,21H9c1.657,0,3,1.343,3,3v0c0,1.657-1.343,3-3,3H5 c-2.761,0-5,2.239-5,5v0c0,2.761,2.239,5,5,5h2.5c1.933,0,3.5,1.567,3.5,3.5v0c0,1.933-1.567,3.5-3.5,3.5H6c-2.209,0-4,1.791-4,4v0 c0,2.209,1.791,4,4,4h11.5c1.381,0,2.5,1.119,2.5,2.5v0c0,1.381-1.119,2.5-2.5,2.5h0c-1.933,0-3.5,1.567-3.5,3.5v0 c0,1.933,1.567,3.5,3.5,3.5h30c1.933,0,3.5-1.567,3.5-3.5v0c0-1.933-1.567-3.5-3.5-3.5H47c-1.105,0-2-0.895-2-2v0 c0-1.105,0.895-2,2-2h13c2.209,0,4-1.791,4-4v0c0-2.209-1.791-4-4-4h-3.5c-1.381,0-2.5-1.119-2.5-2.5v0c0-1.381,1.119-2.5,2.5-2.5 H57c2.209,0,4-1.791,4-4v0c0-2.209-1.791-4-4-4h-4.5c-1.933,0-3.5-1.567-3.5-3.5v0c0-1.933,1.567-3.5,3.5-3.5h5 C59.985,25,62,22.985,62,20.5z"/><linearGradient id="J1Njq1R3UQQed7g~_gGw~d" x1="33.25" x2="33.25" y1="14.529" y2="77.777" gradientUnits="userSpaceOnUse" spreadMethod="reflect"><stop offset="0" stop-color="#b2b2b2"/><stop offset=".296" stop-color="#a9a9a9"/><stop offset=".771" stop-color="#929292"/><stop offset="1" stop-color="#848484"/><stop offset="1" stop-color="#848484"/></linearGradient><path fill="url(#J1Njq1R3UQQed7g~_gGw~d)" d="M16,28h34.5c1.933,0,3.5,1.567,3.5,3.5v0c0,1.933-1.567,3.5-3.5,3.5H16 c-1.933,0-3.5-1.567-3.5-3.5v0C12.5,29.567,14.067,28,16,28z M12.5,16.5L12.5,16.5c0,1.933,1.567,3.5,3.5,3.5h34.5 c1.933,0,3.5-1.567,3.5-3.5v0c0-1.933-1.567-3.5-3.5-3.5H16C14.067,13,12.5,14.567,12.5,16.5z M12.5,46.5L12.5,46.5 c0,1.933,1.567,3.5,3.5,3.5h34.5c1.933,0,3.5-1.567,3.5-3.5v0c0-1.933-1.567-3.5-3.5-3.5H16C14.067,43,12.5,44.567,12.5,46.5z"/><linearGradient id="J1Njq1R3UQQed7g~_gGw~e" x1="27" x2="27" y1="61.771" y2="-1.477" gradientUnits="userSpaceOnUse" spreadMethod="reflect"><stop offset="0" stop-color="#ffc050"/><stop offset=".64" stop-color="#ffbe75"/><stop offset="1" stop-color="#ffbd85"/></linearGradient><path fill="url(#J1Njq1R3UQQed7g~_gGw~e)" d="M14.5,28h25c1.933,0,3.5,1.567,3.5,3.5v0c0,1.933-1.567,3.5-3.5,3.5h-25 c-1.933,0-3.5-1.567-3.5-3.5v0C11,29.567,12.567,28,14.5,28z M11,16.5L11,16.5c0,1.933,1.567,3.5,3.5,3.5h10 c1.933,0,3.5-1.567,3.5-3.5v0c0-1.933-1.567-3.5-3.5-3.5h-10C12.567,13,11,14.567,11,16.5z M11,46.5L11,46.5 c0,1.933,1.567,3.5,3.5,3.5h6c1.933,0,3.5-1.567,3.5-3.5v0c0-1.933-1.567-3.5-3.5-3.5h-6C12.567,43,11,44.567,11,46.5z"/><linearGradient id="J1Njq1R3UQQed7g~_gGw~f" x1="26" x2="26" y1="23" y2="10" gradientUnits="userSpaceOnUse" spreadMethod="reflect"><stop offset="0" stop-color="#ff634d"/><stop offset=".204" stop-color="#fe6464"/><stop offset=".521" stop-color="#fc6581"/><stop offset=".794" stop-color="#fa6694"/><stop offset=".989" stop-color="#fa669a"/></linearGradient><path fill="url(#J1Njq1R3UQQed7g~_gGw~f)" d="M27,23h-2c-1.657,0-3-1.343-3-3v-7c0-1.657,1.343-3,3-3h2c1.657,0,3,1.343,3,3v7 C30,21.657,28.657,23,27,23z"/><linearGradient id="J1Njq1R3UQQed7g~_gGw~g" x1="22" x2="22" y1="53" y2="40" gradientUnits="userSpaceOnUse" spreadMethod="reflect"><stop offset="0" stop-color="#ff634d"/><stop offset=".204" stop-color="#fe6464"/><stop offset=".521" stop-color="#fc6581"/><stop offset=".794" stop-color="#fa6694"/><stop offset=".989" stop-color="#fa669a"/></linearGradient><path fill="url(#J1Njq1R3UQQed7g~_gGw~g)" d="M23,53h-2c-1.657,0-3-1.343-3-3v-7c0-1.657,1.343-3,3-3h2c1.657,0,3,1.343,3,3v7 C26,51.657,24.657,53,23,53z"/><linearGradient id="J1Njq1R3UQQed7g~_gGw~h" x1="41" x2="41" y1="38" y2="25" gradientUnits="userSpaceOnUse" spreadMethod="reflect"><stop offset="0" stop-color="#ff634d"/><stop offset=".204" stop-color="#fe6464"/><stop offset=".521" stop-color="#fc6581"/><stop offset=".794" stop-color="#fa6694"/><stop offset=".989" stop-color="#fa669a"/></linearGradient><path fill="url(#J1Njq1R3UQQed7g~_gGw~h)" d="M42,38h-2c-1.657,0-3-1.343-3-3v-7c0-1.657,1.343-3,3-3h2c1.657,0,3,1.343,3,3v7 C45,36.657,43.657,38,42,38z"/></svg>