<svg xmlns="http://www.w3.org/2000/svg"  viewBox="0 0 64 64" width="50px" height="50px"><radialGradient id="QfITwQvU8hZ1CLOckTO5ha" cx="32.5" cy="31.5" r="30.516" gradientUnits="userSpaceOnUse" spreadMethod="reflect"><stop offset="0" stop-color="#afeeff"/><stop offset=".193" stop-color="#bbf1ff"/><stop offset=".703" stop-color="#d7f8ff"/><stop offset="1" stop-color="#e1faff"/></radialGradient><path fill="url(#QfITwQvU8hZ1CLOckTO5ha)" d="M59,20h1.5c2.168,0,3.892-1.998,3.422-4.243C63.58,14.122,62.056,13,60.385,13L53,13 c-1.105,0-2-0.895-2-2c0-1.105,0.895-2,2-2h3.385c1.67,0,3.195-1.122,3.537-2.757C60.392,3.998,58.668,2,56.5,2H34.006H32.5h-24 C6.575,2,5,3.575,5,5.5S6.575,9,8.5,9H10c1.105,0,2,0.895,2,2c0,1.105-0.895,2-2,2l-5.385,0c-1.67,0-3.195,1.122-3.537,2.757 C0.608,18.002,2.332,20,4.5,20H18v12L4.615,32c-1.67,0-3.195,1.122-3.537,2.757C0.608,37.002,2.332,39,4.5,39H5c1.105,0,2,0.895,2,2 c0,1.105-0.895,2-2,2H4.5c-2.168,0-3.892,1.998-3.422,4.243C1.42,48.878,2.945,50,4.615,50H10c1.105,0,2,0.895,2,2 c0,1.105-0.895,2-2,2l-1.385,0c-1.67,0-3.195,1.122-3.537,2.757C4.608,59.002,6.332,61,8.5,61h22.494H32.5h23 c1.925,0,3.5-1.575,3.5-3.5S57.425,54,55.5,54H55c-1.105,0-2-0.895-2-2c0-1.105,0.895-2,2-2h4.385c1.67,0,3.195-1.122,3.537-2.757 C63.392,44.998,61.668,43,59.5,43H47V31h12.385c1.67,0,3.195-1.122,3.537-2.757C63.392,25.998,61.668,24,59.5,24H59 c-1.105,0-2-0.895-2-2C57,20.895,57.895,20,59,20z"/><linearGradient id="QfITwQvU8hZ1CLOckTO5hb" x1="32" x2="32" y1="64.713" y2="-42.785" gradientUnits="userSpaceOnUse" spreadMethod="reflect"><stop offset="0" stop-color="#155cde"/><stop offset=".278" stop-color="#1f7fe5"/><stop offset=".569" stop-color="#279ceb"/><stop offset=".82" stop-color="#2cafef"/><stop offset="1" stop-color="#2eb5f0"/></linearGradient><path fill="url(#QfITwQvU8hZ1CLOckTO5hb)" d="M57,31c0,13.805-11.195,25-25,25S7,44.805,7,31S18.195,6,32,6S57,17.195,57,31z"/><linearGradient id="QfITwQvU8hZ1CLOckTO5hc" x1="32" x2="32" y1="51" y2="11" gradientUnits="userSpaceOnUse" spreadMethod="reflect"><stop offset="0" stop-color="#e6f4fd"/><stop offset="1" stop-color="#e7f8fe"/></linearGradient><path fill="url(#QfITwQvU8hZ1CLOckTO5hc)" d="M32,11c-11.044,0-20,8.956-20,20s8.956,20,20,20s20-8.956,20-20S43.044,11,32,11z M32,15 c2.209,0,4,1.791,4,4c0,2.209-1.791,4-4,4s-4-1.791-4-4C28,16.791,29.791,15,32,15z M43.181,27.992L36,28.644v7.03l2.897,8.692 c0.349,1.048-0.217,2.181-1.265,2.53c-0.209,0.07-0.423,0.104-0.633,0.104c-0.837,0-1.618-0.53-1.897-1.368L32,36.324l-3.103,9.309 c-0.349,1.048-1.485,1.617-2.53,1.265c-1.048-0.35-1.614-1.482-1.265-2.53L28,35.675v-7.03l-7.181-0.653 c-1.1-0.101-1.911-1.073-1.811-2.173c0.1-1.101,1.087-1.897,2.173-1.812L32,24.992l10.819-0.984 c1.104-0.082,2.073,0.711,2.173,1.812C45.092,26.919,44.281,27.892,43.181,27.992z"/></svg>