<svg xmlns="http://www.w3.org/2000/svg"  viewBox="0 0 64 64" width="50px" height="50px"><radialGradient id="o98DcTMwOUa7SFSM7ooXHa" cx="33" cy="31.5" r="31.251" gradientTransform="matrix(-1 0 0 1 66 0)" gradientUnits="userSpaceOnUse" spreadMethod="reflect"><stop offset="0" stop-color="#f4e9c3"/><stop offset=".219" stop-color="#f8eecd"/><stop offset=".644" stop-color="#fdf4dc"/><stop offset="1" stop-color="#fff6e1"/></radialGradient><path fill="url(#o98DcTMwOUa7SFSM7ooXHa)" d="M5.5,32c-2.168,0-3.892-1.998-3.422-4.243C2.42,26.122,3.944,25,5.615,25l4.885,0 c1.933,0,3.5-1.567,3.5-3.5v0c0-1.933-1.567-3.5-3.5-3.5l-1.886,0c-1.67,0-3.195-1.122-3.537-2.757C4.608,12.997,6.332,11,8.5,11H20 c1.105,0,2-0.895,2-2v0c0-1.105-0.895-2-2-2l-4.385,0c-1.67,0-3.195-1.122-3.537-2.757C11.608,1.998,13.332,0,15.5,0l39.885,0 c1.67,0,3.195,1.122,3.537,2.757C59.392,5.002,57.668,7,55.5,7H53c-1.105,0-2,0.895-2,2v0c0,1.105,0.895,2,2,2l6.385,0 c1.67,0,3.195,1.122,3.537,2.757C63.392,16.002,61.668,18,59.5,18H44l0,15l16.385,0c1.67,0,3.195,1.122,3.537,2.757 C64.392,38.002,62.668,40,60.5,40H54c-1.105,0-2,0.895-2,2v0c0,1.105,0.895,2,2,2l2.385,0c1.67,0,3.195,1.122,3.537,2.757 C60.392,49.002,58.668,51,56.5,51H41.386C40.068,51,39,52.068,39,53.385v0.229C39,54.932,40.068,56,41.386,56l5,0 c1.67,0,3.195,1.122,3.537,2.757C50.392,61.002,48.668,63,46.5,63L7.615,63c-1.67,0-3.195-1.122-3.537-2.757 C3.608,57.998,5.332,56,7.5,56h3.115C11.932,56,13,54.932,13,53.615v-0.229C13,52.068,11.932,51,10.615,51h0 c-1.67,0-3.195-1.122-3.537-2.757C6.608,45.998,8.332,44,10.5,44H23l-6-12H5.5z"/><linearGradient id="o98DcTMwOUa7SFSM7ooXHb" x1="32" x2="32" y1="59.733" y2="15.732" gradientTransform="matrix(-1 0 0 1 64 0)" gradientUnits="userSpaceOnUse" spreadMethod="reflect"><stop offset="0" stop-color="#155cde"/><stop offset=".278" stop-color="#1f7fe5"/><stop offset=".569" stop-color="#279ceb"/><stop offset=".82" stop-color="#2cafef"/><stop offset="1" stop-color="#2eb5f0"/></linearGradient><path fill="url(#o98DcTMwOUa7SFSM7ooXHb)" d="M28,18h9v-5.539c0-2.12,2.504-3.244,4.089-1.836l12.24,10.88c0.895,0.796,0.895,2.194,0,2.99 l-12.24,10.88C39.505,36.783,37,35.658,37,33.539V28h-9c-4.411,0-8,3.589-8,8s3.589,8,8,8h1c2.762,0,5,2.239,5,5s-2.238,5-5,5h-1 c-9.925,0-18-8.075-18-18S18.075,18,28,18z"/></svg>