<svg xmlns="http://www.w3.org/2000/svg"  viewBox="0 0 64 64" width="50px" height="50px"><radialGradient id="A5Ck3ZwLFsv3XxkSYBkKGa" cx="36.833" cy="35.917" r="26" gradientUnits="userSpaceOnUse" spreadMethod="reflect"><stop offset="0" stop-color="#f4e9c3"/><stop offset=".219" stop-color="#f8eecd"/><stop offset=".644" stop-color="#fdf4dc"/><stop offset="1" stop-color="#fff6e1"/></radialGradient><path fill="url(#A5Ck3ZwLFsv3XxkSYBkKGa)" d="M10,8L10,8c2.209,0,4-1.791,4-4v0c0-2.209-1.791-4-4-4h0C7.791,0,6,1.791,6,4v0 C6,6.209,7.791,8,10,8z"/><radialGradient id="A5Ck3ZwLFsv3XxkSYBkKGb" cx="31.417" cy="29.917" r="28.77" gradientUnits="userSpaceOnUse" spreadMethod="reflect"><stop offset="0" stop-color="#f4e9c3"/><stop offset=".219" stop-color="#f8eecd"/><stop offset=".644" stop-color="#fdf4dc"/><stop offset="1" stop-color="#fff6e1"/></radialGradient><path fill="url(#A5Ck3ZwLFsv3XxkSYBkKGb)" d="M7.5,64L7.5,64c1.933,0,3.5-1.567,3.5-3.5v0c0-1.933-1.567-3.5-3.5-3.5h0 C5.567,57,4,58.567,4,60.5v0C4,62.433,5.567,64,7.5,64z"/><radialGradient id="A5Ck3ZwLFsv3XxkSYBkKGc" cx="32" cy="32" r="32" gradientUnits="userSpaceOnUse" spreadMethod="reflect"><stop offset="0" stop-color="#f4e9c3"/><stop offset=".219" stop-color="#f8eecd"/><stop offset=".644" stop-color="#fdf4dc"/><stop offset="1" stop-color="#fff6e1"/></radialGradient><path fill="url(#A5Ck3ZwLFsv3XxkSYBkKGc)" d="M62,20.5L62,20.5c0-2.485-2.015-4.5-4.5-4.5H49c-2.209,0-4-1.791-4-4v0c0-2.209,1.791-4,4-4 h2c2.209,0,4-1.791,4-4v0c0-2.209-1.791-4-4-4L20,0c-2.209,0-4,1.791-4,4v0c0,2.209,1.791,4,4,4h2c1.657,0,3,1.343,3,3v0 c0,1.657-1.343,3-3,3H7.5C5.567,14,4,15.567,4,17.5v0C4,19.433,5.567,21,7.5,21H9c1.657,0,3,1.343,3,3v0c0,1.657-1.343,3-3,3H5 c-2.761,0-5,2.239-5,5v0c0,2.761,2.239,5,5,5h0.5C7.433,37,9,38.567,9,40.5v0C9,42.433,7.433,44,5.5,44H5c-2.209,0-4,1.791-4,4v0 c0,2.209,1.791,4,4,4h12.5c1.381,0,2.5,1.119,2.5,2.5v0c0,1.381-1.119,2.5-2.5,2.5h0c-1.933,0-3.5,1.567-3.5,3.5v0 c0,1.933,1.567,3.5,3.5,3.5h30c1.933,0,3.5-1.567,3.5-3.5v0c0-1.933-1.567-3.5-3.5-3.5H47c-1.105,0-2-0.895-2-2v0 c0-1.105,0.895-2,2-2h13c2.209,0,4-1.791,4-4v0c0-2.209-1.791-4-4-4h-2.5c-1.381,0-2.5-1.119-2.5-2.5v0c0-1.381,1.119-2.5,2.5-2.5 H58c2.209,0,4-1.791,4-4v0c0-2.209-1.791-4-4-4h-5.5c-1.933,0-3.5-1.567-3.5-3.5v0c0-1.933,1.567-3.5,3.5-3.5h5 C59.985,25,62,22.985,62,20.5z"/><linearGradient id="A5Ck3ZwLFsv3XxkSYBkKGd" x1="32.5" x2="32.5" y1="56.962" y2="-6.45" gradientUnits="userSpaceOnUse" spreadMethod="reflect"><stop offset="0" stop-color="#155cde"/><stop offset=".158" stop-color="#196ce1"/><stop offset=".724" stop-color="#28a1ec"/><stop offset="1" stop-color="#2eb5f0"/></linearGradient><path fill="url(#A5Ck3ZwLFsv3XxkSYBkKGd)" d="M51,18H23c-1.65,0-3-1.35-3-3v0c0-1.65,1.35-3,3-3h28c1.65,0,3,1.35,3,3v0 C54,16.65,52.65,18,51,18z M54,48L54,48c0-1.65-1.35-3-3-3H23c-1.65,0-3,1.35-3,3v0c0,1.65,1.35,3,3,3h28C52.65,51,54,49.65,54,48z M54,26L54,26c0-1.65-1.35-3-3-3H23c-1.65,0-3,1.35-3,3v0c0,1.65,1.35,3,3,3h28C52.65,29,54,27.65,54,26z M54,37L54,37 c0-1.65-1.35-3-3-3H23c-1.65,0-3,1.35-3,3v0c0,1.65,1.35,3,3,3h28C52.65,40,54,38.65,54,37z M17,15L17,15c0-1.65-1.35-3-3-3h0 c-1.65,0-3,1.35-3,3v0c0,1.65,1.35,3,3,3h0C15.65,18,17,16.65,17,15z M17,48L17,48c0-1.65-1.35-3-3-3h0c-1.65,0-3,1.35-3,3v0 c0,1.65,1.35,3,3,3h0C15.65,51,17,49.65,17,48z M17,26L17,26c0-1.65-1.35-3-3-3h0c-1.65,0-3,1.35-3,3v0c0,1.65,1.35,3,3,3h0 C15.65,29,17,27.65,17,26z M17,37L17,37c0-1.65-1.35-3-3-3h0c-1.65,0-3,1.35-3,3v0c0,1.65,1.35,3,3,3h0C15.65,40,17,38.65,17,37z"/></svg>