<svg xmlns="http://www.w3.org/2000/svg"  viewBox="0 0 64 64" width="50px" height="50px"><radialGradient id="~CmS7RVy4e~OQ5~hDYD7Za" cx="32.5" cy="31.5" r="30.516" gradientUnits="userSpaceOnUse" spreadMethod="reflect"><stop offset="0" stop-color="#afeeff"/><stop offset=".193" stop-color="#bbf1ff"/><stop offset=".703" stop-color="#d7f8ff"/><stop offset="1" stop-color="#e1faff"/></radialGradient><path fill="url(#~CmS7RVy4e~OQ5~hDYD7Za)" d="M59,20h1.5c2.168,0,3.892-1.998,3.422-4.243C63.58,14.122,62.056,13,60.385,13L53,13 c-1.105,0-2-0.895-2-2c0-1.105,0.895-2,2-2h3.385c1.67,0,3.195-1.122,3.537-2.757C60.392,3.998,58.668,2,56.5,2H34.006H32.5h-24 C6.575,2,5,3.575,5,5.5S6.575,9,8.5,9H10c1.105,0,2,0.895,2,2c0,1.105-0.895,2-2,2l-5.385,0c-1.67,0-3.195,1.122-3.537,2.757 C0.608,18.002,2.332,20,4.5,20H18v12L4.615,32c-1.67,0-3.195,1.122-3.537,2.757C0.608,37.002,2.332,39,4.5,39H5c1.105,0,2,0.895,2,2 c0,1.105-0.895,2-2,2H4.5c-2.168,0-3.892,1.998-3.422,4.243C1.42,48.878,2.945,50,4.615,50H10c1.105,0,2,0.895,2,2 c0,1.105-0.895,2-2,2l-1.385,0c-1.67,0-3.195,1.122-3.537,2.757C4.608,59.002,6.332,61,8.5,61h22.494H32.5h23 c1.925,0,3.5-1.575,3.5-3.5S57.425,54,55.5,54H55c-1.105,0-2-0.895-2-2c0-1.105,0.895-2,2-2h4.385c1.67,0,3.195-1.122,3.537-2.757 C63.392,44.998,61.668,43,59.5,43H47V31h12.385c1.67,0,3.195-1.122,3.537-2.757C63.392,25.998,61.668,24,59.5,24H59 c-1.105,0-2-0.895-2-2C57,20.895,57.895,20,59,20z"/><linearGradient id="~CmS7RVy4e~OQ5~hDYD7Zb" x1="32" x2="32" y1="56" y2="6" gradientUnits="userSpaceOnUse" spreadMethod="reflect"><stop offset="0" stop-color="#ff634d"/><stop offset=".204" stop-color="#fe6464"/><stop offset=".521" stop-color="#fc6581"/><stop offset=".794" stop-color="#fa6694"/><stop offset=".989" stop-color="#fa669a"/><stop offset="1" stop-color="#fa669a"/></linearGradient><path fill="url(#~CmS7RVy4e~OQ5~hDYD7Zb)" d="M57,31c0,13.805-11.195,25-25,25S7,44.805,7,31S18.195,6,32,6S57,17.195,57,31z"/><path fill="#fff" d="M21 34L21 34c-1.1 0-2-.9-2-2V19c0-1.1.9-2 2-2h0c1.1 0 2 .9 2 2v13C23 33.1 22.1 34 21 34zM27 36L27 36c-1.1 0-2-.9-2-2V16c0-1.1.9-2 2-2h0c1.1 0 2 .9 2 2v18C29 35.1 28.1 36 27 36zM33 36L33 36c-1.1 0-2-.9-2-2V15c0-1.1.9-2 2-2h0c1.1 0 2 .9 2 2v19C35 35.1 34.1 36 33 36zM39 37L39 37c-1.1 0-2-.9-2-2V17c0-1.1.9-2 2-2h0c1.1 0 2 .9 2 2v18C41 36.1 40.1 37 39 37z"/><path fill="#fff" d="M19,31v9c0,4.418,3.582,8,8,8h8.112c2.455,0,4.774-1.127,6.291-3.057l8.125-10.341 C49.834,34.212,50,33.731,50,33.235v-0.025C50,31.99,49.01,31,47.789,31h0c-0.51,0-1.005,0.177-1.4,0.5L36,40L19,31z"/><path fill="#fff" d="M30 30A11 4 0 1 0 30 38A11 4 0 1 0 30 30Z"/><path fill="#fff" d="M27 32H41V40H27z"/></svg>