<svg xmlns="http://www.w3.org/2000/svg"  viewBox="0 0 64 64" width="50px" height="50px"><radialGradient id="rO7Q1Mbz73gNJd8KksYX6a" cx="248.889" cy="-128.111" r="182.984" gradientUnits="userSpaceOnUse" spreadMethod="reflect"><stop offset="0" stop-color="#f4e9c3"/><stop offset=".219" stop-color="#f8eecd"/><stop offset=".644" stop-color="#fdf4dc"/><stop offset="1" stop-color="#fff6e1"/></radialGradient><path fill="url(#rO7Q1Mbz73gNJd8KksYX6a)" d="M58.5,3L58.5,3C60.985,3,63,5.015,63,7.5v0c0,2.485-2.015,4.5-4.5,4.5h0 C56.015,12,54,9.985,54,7.5v0C54,5.015,56.015,3,58.5,3z M0,40L0,40c0,2.761,2.239,5,5,5h5c2.761,0,5,2.238,5,5v0 c0,2.762-2.238,5-5,5H9.434C7.52,55,6,56.52,6,58.395L6,58.5C6,60.433,7.567,62,9.5,62h38c1.926,0,3.49-1.556,3.5-3.483l0-0.017 c0.01-1.93-1.552-3.5-3.483-3.5H47c-2.209,0-4-1.791-4-4v0c0-2.209,1.791-4,4-4h12c2.761,0,5-2.239,5-5v0c0-2.761-2.239-5-5-5h-3 c-2.209,0-4-1.791-4-4v0c0-2.209,1.791-4,4-4h2.5c3.038,0,5.5-2.462,5.5-5.5v0c0-3.038-2.462-5.5-5.5-5.5H45c-1.657,0-3-1.343-3-3v0 c0-1.657,1.343-3,3-3h1.5c2.485,0,4.5-2.015,4.5-4.5v0C51,5.015,48.985,3,46.5,3H31H9C6.791,3,5,4.791,5,7v0c0,2.209,1.791,4,4,4h8 c1.933,0,3.5,1.567,3.5,3.5v0c0,1.933-1.567,3.5-3.5,3.5H4c-2.209,0-4,1.791-4,4l0,0c0,2.209,1.791,4,4,4h1.5 c2.485,0,4.5,2.015,4.5,4.5v0c0,2.485-2.015,4.5-4.5,4.5H5C2.239,35,0,37.239,0,40z"/><linearGradient id="rO7Q1Mbz73gNJd8KksYX6b" x1="32.001" x2="32.001" y1="52" y2="11.002" gradientUnits="userSpaceOnUse" spreadMethod="reflect"><stop offset="0" stop-color="#155cde"/><stop offset=".278" stop-color="#1f7fe5"/><stop offset=".569" stop-color="#279ceb"/><stop offset=".82" stop-color="#2cafef"/><stop offset="1" stop-color="#2eb5f0"/></linearGradient><path fill="url(#rO7Q1Mbz73gNJd8KksYX6b)" d="M19,45v4c0,1.65-1.35,3-3,3h-1c-1.65,0-3-1.35-3-3v-4c0-1.65,1.35-3,3-3h1 C17.65,42,19,43.35,19,45z M26,42h-1c-1.65,0-3,1.35-3,3v4c0,1.65,1.35,3,3,3h1c1.65,0,3-1.35,3-3v-4C29,43.35,27.65,42,26,42z M37.5,19H27v-5.54c0-2.12-2.5-3.24-4.09-1.83L10.67,22.51c-0.89,0.79-0.89,2.19,0,2.98l12.24,10.88C24.5,37.78,27,36.66,27,34.54 V29h10.5c3.59,0,6.5,2.91,6.5,6.5v0c0,3.59-2.91,6.5-6.5,6.5H35c-1.657,0-3,1.343-3,3v4c0,1.657,1.343,3,3,3h2.5 C46.613,52,54,44.612,54,35.5v0C54,26.387,46.613,19,37.5,19z"/></svg>