<svg xmlns="http://www.w3.org/2000/svg"  viewBox="0 0 64 64" width="50px" height="50px"><radialGradient id="mlOPB6MgzT0e4apRfleBda" cx="36.833" cy="35.917" r="26" gradientUnits="userSpaceOnUse" spreadMethod="reflect"><stop offset="0" stop-color="#afeeff"/><stop offset=".193" stop-color="#bbf1ff"/><stop offset=".703" stop-color="#d7f8ff"/><stop offset="1" stop-color="#e1faff"/></radialGradient><path fill="url(#mlOPB6MgzT0e4apRfleBda)" d="M10,8L10,8c2.209,0,4-1.791,4-4v0c0-2.209-1.791-4-4-4h0C7.791,0,6,1.791,6,4v0 C6,6.209,7.791,8,10,8z"/><radialGradient id="mlOPB6MgzT0e4apRfleBdb" cx="31.417" cy="29.917" r="28.77" gradientUnits="userSpaceOnUse" spreadMethod="reflect"><stop offset="0" stop-color="#afeeff"/><stop offset=".193" stop-color="#bbf1ff"/><stop offset=".703" stop-color="#d7f8ff"/><stop offset="1" stop-color="#e1faff"/></radialGradient><path fill="url(#mlOPB6MgzT0e4apRfleBdb)" d="M7.5,64L7.5,64c1.933,0,3.5-1.567,3.5-3.5v0c0-1.933-1.567-3.5-3.5-3.5h0 C5.567,57,4,58.567,4,60.5v0C4,62.433,5.567,64,7.5,64z"/><radialGradient id="mlOPB6MgzT0e4apRfleBdc" cx="32.5" cy="32" r="30.775" gradientUnits="userSpaceOnUse" spreadMethod="reflect"><stop offset="0" stop-color="#afeeff"/><stop offset=".193" stop-color="#bbf1ff"/><stop offset=".703" stop-color="#d7f8ff"/><stop offset="1" stop-color="#e1faff"/></radialGradient><path fill="url(#mlOPB6MgzT0e4apRfleBdc)" d="M62,20.5L62,20.5c0-2.485-2.015-4.5-4.5-4.5H44c-2.209,0-4-1.791-4-4v0c0-2.209,1.791-4,4-4 h2c2.209,0,4-1.791,4-4v0c0-2.209-1.791-4-4-4L22,0c-2.209,0-4,1.791-4,4v0c0,2.209,1.791,4,4,4h2c1.657,0,3,1.343,3,3v0 c0,1.657-1.343,3-3,3H10.5C8.567,14,7,15.567,7,17.5v0c0,1.933,1.567,3.5,3.5,3.5H13c1.657,0,3,1.343,3,3v0c0,1.657-1.343,3-3,3H8 c-2.761,0-5,2.239-5,5v0c0,2.761,2.239,5,5,5h5.5c1.933,0,3.5,1.567,3.5,3.5v0c0,1.933-1.567,3.5-3.5,3.5H9c-2.209,0-4,1.791-4,4v0 c0,2.209,1.791,4,4,4h8.5c1.381,0,2.5,1.119,2.5,2.5v0c0,1.381-1.119,2.5-2.5,2.5h0c-1.933,0-3.5,1.567-3.5,3.5v0 c0,1.933,1.567,3.5,3.5,3.5h30c1.933,0,3.5-1.567,3.5-3.5v0c0-1.933-1.567-3.5-3.5-3.5H47c-1.105,0-2-0.895-2-2v0 c0-1.105,0.895-2,2-2h7c2.209,0,4-1.791,4-4v0c0-2.209-1.791-4-4-4h-6.5c-1.381,0-2.5-1.119-2.5-2.5v0c0-1.381,1.119-2.5,2.5-2.5 H48c2.209,0,4-1.791,4-4v0c0-2.209-1.791-4-4-4h-1.5c-1.933,0-3.5-1.567-3.5-3.5v0c0-1.933,1.567-3.5,3.5-3.5h11 C59.985,25,62,22.985,62,20.5z"/><radialGradient id="mlOPB6MgzT0e4apRfleBdd" cx="35.917" cy="35.417" r="27.938" gradientUnits="userSpaceOnUse" spreadMethod="reflect"><stop offset="0" stop-color="#afeeff"/><stop offset=".193" stop-color="#bbf1ff"/><stop offset=".703" stop-color="#d7f8ff"/><stop offset="1" stop-color="#e1faff"/></radialGradient><path fill="url(#mlOPB6MgzT0e4apRfleBdd)" d="M59,40L59,40c-2.209,0-4-1.791-4-4v0c0-2.209,1.791-4,4-4h0c2.209,0,4,1.791,4,4v0 C63,38.209,61.209,40,59,40z"/><linearGradient id="mlOPB6MgzT0e4apRfleBde" x1="32" x2="32" y1="6" y2="29" gradientUnits="userSpaceOnUse" spreadMethod="reflect"><stop offset="0" stop-color="#a4a4a4"/><stop offset=".63" stop-color="#7f7f7f"/><stop offset="1" stop-color="#6f6f6f"/><stop offset="1" stop-color="#6f6f6f"/></linearGradient><path fill="url(#mlOPB6MgzT0e4apRfleBde)" d="M32,6c-7.18,0-13,5.82-13,13v10h5V19c0-4.411,3.589-8,8-8s8,3.589,8,8v10h5V19 C45,11.82,39.18,6,32,6z"/><linearGradient id="mlOPB6MgzT0e4apRfleBdf" x1="32" x2="32" y1="25" y2="57" gradientUnits="userSpaceOnUse" spreadMethod="reflect"><stop offset="0" stop-color="#42d778"/><stop offset=".428" stop-color="#3dca76"/><stop offset="1" stop-color="#34b171"/></linearGradient><path fill="url(#mlOPB6MgzT0e4apRfleBdf)" d="M49,57H15c-1.657,0-3-1.343-3-3V35c0-5.523,4.477-10,10-10h20c5.523,0,10,4.477,10,10v19 C52,55.657,50.657,57,49,57z"/><linearGradient id="mlOPB6MgzT0e4apRfleBdg" x1="44.5" x2="44.5" y1="57" y2="32.367" gradientUnits="userSpaceOnUse" spreadMethod="reflect"><stop offset="0" stop-color="#37ab6a"/><stop offset=".422" stop-color="#39b66f"/><stop offset="1" stop-color="#3ac074"/></linearGradient><path fill="url(#mlOPB6MgzT0e4apRfleBdg)" d="M41,43L41,43c0,1.657,1.343,3,3,3h0.5c1.381,0,2.5,1.119,2.5,2.5v0c0,1.381-1.119,2.5-2.5,2.5 H40c-1.657,0-3,1.343-3,3v0c0,1.657,1.343,3,3,3h9c1.657,0,3-1.343,3-3V40h-8C42.343,40,41,41.343,41,43z"/><linearGradient id="mlOPB6MgzT0e4apRfleBdh" x1="19.5" x2="19.5" y1="29.262" y2="55.596" gradientUnits="userSpaceOnUse" spreadMethod="reflect"><stop offset="0" stop-color="#62de8f"/><stop offset=".478" stop-color="#5dd18d"/><stop offset="1" stop-color="#56be89"/></linearGradient><path fill="url(#mlOPB6MgzT0e4apRfleBdh)" d="M23,37.5L23,37.5c0-1.381-1.119-2.5-2.5-2.5h-1c-1.381,0-2.5-1.119-2.5-2.5v0 c0-1.381,1.119-2.5,2.5-2.5h5c1.381,0,2.5-1.119,2.5-2.5v0c0-1.381-1.119-2.5-2.5-2.5H22c-5.523,0-10,4.477-10,10v5h8.5 C21.881,40,23,38.881,23,37.5z"/><g><path fill="#fff" d="M32 38A3 3 0 1 0 32 44 3 3 0 1 0 32 38zM42 38A3 3 0 1 0 42 44 3 3 0 1 0 42 38zM22 38A3 3 0 1 0 22 44 3 3 0 1 0 22 38z"/></g></svg>