<svg xmlns="http://www.w3.org/2000/svg"  viewBox="0 0 64 64" width="50px" height="50px"><radialGradient id="myjtcyKoHtDTrjB7I9vLda" cx="32" cy="10780" r="33.002" gradientTransform="translate(0 -10748)" gradientUnits="userSpaceOnUse"><stop offset="0" stop-color="#efdcb1"/><stop offset="0" stop-color="#f2e0bb"/><stop offset=".011" stop-color="#f2e0bc"/><stop offset=".362" stop-color="#f9edd2"/><stop offset=".699" stop-color="#fef4df"/><stop offset="1" stop-color="#fff7e4"/></radialGradient><path fill="url(#myjtcyKoHtDTrjB7I9vLda)" d="M55.454,45.668c0.5,0.898,1.504,1.337,2.532,1.332c1.75-0.008,3.153,1.483,3.002,3.262	C60.855,51.838,59.434,53,57.852,53H48v1H26h-8H7c-1.71,0-3.086-1.431-2.996-3.161C4.089,49.216,5.545,48,7.17,48H8	c1.215,0,2.176-1.083,1.973-2.336C9.813,44.681,8.889,44,7.893,44H3c-1.71,0-3.086-1.431-2.996-3.161C0.089,39.216,1.545,38,3.17,38	H9.5c1.381,0,7.5-3.619,7.5-5l2-2c-2,0-8.119,0-9.5,0l0,0C8.119,31,7,29.881,7,28.5l0,0C7,27.119,8.119,26,9.5,26H18v-5h-7.5	c-1.995,0-3.601-1.67-3.495-3.688C7.104,15.419,8.803,14,10.698,14H18v-4h24h6h8.5c1.995,0,3.601,1.67,3.495,3.688	C59.896,15.581,58.197,17,56.302,17H53.5c-1.995,0-3.601,1.67-3.495,3.688C50.104,22.581,51.803,24,53.698,24H56	c1.777,0,3.194,1.546,2.978,3.366c-0.179,1.509-1.546,2.572-3.064,2.635c-1.197,0.05-2.122,1.153-1.874,2.406	C54.228,33.355,55.123,34,56.089,34H60.5c1.995,0,3.601,1.67,3.495,3.688C63.896,39.581,62.197,41,60.302,41H58	C55.808,41,54.166,43.35,55.454,45.668z M2.5,31L2.5,31C3.881,31,5,29.881,5,28.5l0,0C5,27.119,3.881,26,2.5,26l0,0	C1.119,26,0,27.119,0,28.5l0,0C0,29.881,1.119,31,2.5,31z M2.5,31L2.5,31C3.881,31,5,29.881,5,28.5l0,0C5,27.119,3.881,26,2.5,26	l0,0C1.119,26,0,27.119,0,28.5l0,0C0,29.881,1.119,31,2.5,31z"/><linearGradient id="myjtcyKoHtDTrjB7I9vLdb" x1="-1452.231" x2="-1451.231" y1="5046.539" y2="5046.539" gradientTransform="matrix(0 -52 -52 0 262453 -75458)" gradientUnits="userSpaceOnUse"><stop offset="0" stop-color="#67ccf0"/><stop offset=".232" stop-color="#70d1f2"/><stop offset=".644" stop-color="#89ddf8"/><stop offset="1" stop-color="#a1e9fd"/></linearGradient><path fill="url(#myjtcyKoHtDTrjB7I9vLdb)" d="M36.757,6H16c-1.657,0-3,1.343-3,3v46c0,1.657,1.343,3,3,3h34c1.657,0,3-1.343,3-3V22.243	c0-0.796-0.317-1.56-0.879-2.121L38.878,6.879C38.316,6.317,37.553,6,36.757,6"/><linearGradient id="myjtcyKoHtDTrjB7I9vLdc" x1="37.935" x2="45.148" y1="-689.459" y2="-681.864" gradientTransform="matrix(1 0 0 -1 0 -668)" gradientUnits="userSpaceOnUse"><stop offset="0" stop-color="#c6effd"/><stop offset=".375" stop-color="#b7ecfd"/><stop offset="1" stop-color="#95e6fd"/></linearGradient><path fill="url(#myjtcyKoHtDTrjB7I9vLdc)" d="M52.121,20.122L38.878,6.879c-0.255-0.255-0.556-0.452-0.878-0.6V18c0,1.657,1.343,3,3,3	h11.721C52.574,20.678,52.377,20.377,52.121,20.122z"/><linearGradient id="myjtcyKoHtDTrjB7I9vLdd" x1="45.5" x2="45.5" y1="10772.083" y2="10766.083" gradientTransform="translate(0 -10748)" gradientUnits="userSpaceOnUse"><stop offset="0" stop-color="#42c6ee"/><stop offset=".48" stop-color="#3bc3ed"/><stop offset="1" stop-color="#2ebeea"/></linearGradient><path fill="url(#myjtcyKoHtDTrjB7I9vLdd)" d="M41,21c-1.657,0-3-1.343-3-3v3c0,1.657,1.343,3,3,3h12v-1.757	c0-0.434-0.102-0.855-0.279-1.243H41z"/><linearGradient id="myjtcyKoHtDTrjB7I9vLde" x1="32.5" x2="32.5" y1="-730.702" y2="-716.877" gradientTransform="matrix(1 0 0 -1 0 -668)" gradientUnits="userSpaceOnUse"><stop offset="0" stop-color="#42c6ee"/><stop offset=".48" stop-color="#3bc3ed"/><stop offset="1" stop-color="#2ebeea"/></linearGradient><path fill="url(#myjtcyKoHtDTrjB7I9vLde)" d="M13,29h39c2.761,0,5,2.239,5,5v12c0,2.761-2.239,5-5,5H13c-2.761,0-5-2.239-5-5V34	C8,31.239,10.239,29,13,29z"/><path fill="#fff" d="M19,36.078c0-0.728,0.398-1.125,1.128-1.125H23.1c2.295,0,3.9,1.244,3.9,3.453	c0,2.143-1.539,3.479-3.914,3.479h-1.539v1.892c0,0.701-0.57,1.27-1.274,1.27c-0.703,0-1.274-0.568-1.274-1.27L19,36.078L19,36.078z M22.728,39.94c1.022,0,1.765-0.396,1.765-1.495c0-1.098-0.73-1.548-1.751-1.548h-1.194v3.043H22.728z"/><path fill="#fff" d="M29,36.078c0-0.728,0.404-1.125,1.143-1.125h2.341c2.973,0,5.516,1.323,5.516,4.975	c0,3.334-2.126,5.014-5.516,5.014h-2.341c-0.74,0-1.143-0.396-1.143-1.124C29,43.818,29,36.078,29,36.078z M32.484,42.931	c1.668,0,2.839-0.661,2.839-3.043c0-2.156-1.076-2.937-2.839-2.937h-0.928v5.979L32.484,42.931L32.484,42.931z"/><path fill="#fff" d="M40,36.078c0-0.728,0.412-1.125,1.167-1.125h4.776c0.576,0,1.057,0.463,1.057,1.019	c0,0.569-0.48,1.032-1.057,1.032h-3.308v2.302h2.676c0.563,0,1.029,0.45,1.029,0.992c0,0.556-0.467,1.006-1.029,1.006h-2.676v2.474	c0,0.701-0.59,1.27-1.318,1.27S40,44.479,40,43.777V36.078z"/></svg>