<svg xmlns="http://www.w3.org/2000/svg"  viewBox="0 0 64 64" width="50px" height="50px"><radialGradient id="UqDKV0pC23B2ju8NzWpvna" cx="51.175" cy="41.173" r="14.018" gradientUnits="userSpaceOnUse" spreadMethod="reflect"><stop offset="0" stop-color="#f4e9c3"/><stop offset=".219" stop-color="#f8eecd"/><stop offset=".644" stop-color="#fdf4dc"/><stop offset="1" stop-color="#fff6e1"/></radialGradient><path fill="url(#UqDKV0pC23B2ju8NzWpvna)" d="M56.5,49c-1.381,0-2.5,1.119-2.5,2.5c0,1.381,1.119,2.5,2.5,2.5s2.5-1.119,2.5-2.5 C59,50.119,57.881,49,56.5,49z"/><radialGradient id="UqDKV0pC23B2ju8NzWpvnb" cx="-36.162" cy="-74.265" r="151.835" gradientUnits="userSpaceOnUse" spreadMethod="reflect"><stop offset="0" stop-color="#f4e9c3"/><stop offset=".219" stop-color="#f8eecd"/><stop offset=".644" stop-color="#fdf4dc"/><stop offset="1" stop-color="#fff6e1"/></radialGradient><path fill="url(#UqDKV0pC23B2ju8NzWpvnb)" d="M56,32h5c1.65,0,3-1.35,3-3c0-1.65-1.35-3-3-3h-1c-1.65,0-3-1.35-3-3c0-1.65,1.35-3,3-3 s3-1.35,3-3c0-1.65-1.35-3-3-3h-5.5c-1.375,0-2.5-1.125-2.5-2.5S53.125,9,54.5,9h1C56.875,9,58,7.875,58,6.5S56.875,4,55.5,4H31v5 v5H14h-4H5c-1.65,0-3,1.35-3,3c0,1.65,1.35,3,3,3h5v4H2.5C1.125,24,0,25.125,0,26.5S1.125,29,2.5,29S5,30.125,5,31.5 S3.875,34,2.5,34S0,35.125,0,36.5S1.125,39,2.5,39h1C4.875,39,6,40.125,6,41.5S4.875,44,3.5,44S1,45.125,1,46.5S2.125,49,3.5,49H10 h3.5H37v5h12.5c1.381,0,2.5-1.119,2.5-2.5S50.881,49,49.5,49h0h-1c-1.375,0-2.5-1.125-2.5-2.5s1.125-2.5,2.5-2.5h10.33 c1.625,0,3.081-1.217,3.166-2.839C61.999,41.107,62,41.053,62,41c0-1.656-1.343-3-3-3c0,0-0.359,0-3,0c-1.65,0-3-1.35-3-3 C53,33.35,54.35,32,56,32z"/><linearGradient id="UqDKV0pC23B2ju8NzWpvnc" x1="25" x2="25" y1="3" y2="61" gradientUnits="userSpaceOnUse" spreadMethod="reflect"><stop offset="0" stop-color="#a4a4a4"/><stop offset=".619" stop-color="gray"/><stop offset="1" stop-color="#6f6f6f"/><stop offset="1" stop-color="#6f6f6f"/></linearGradient><path fill="url(#UqDKV0pC23B2ju8NzWpvnc)" d="M38,61H12c-2.761,0-5-2.239-5-5V8c0-2.761,2.239-5,5-5h26c2.761,0,5,2.239,5,5v48 C43,58.761,40.761,61,38,61z"/><linearGradient id="UqDKV0pC23B2ju8NzWpvnd" x1="25" x2="25" y1="10" y2="76.129" gradientUnits="userSpaceOnUse" spreadMethod="reflect"><stop offset="0" stop-color="#dff9ff"/><stop offset="0" stop-color="#dff9ff"/><stop offset=".173" stop-color="#d8f8ff"/><stop offset=".423" stop-color="#c5f4ff"/><stop offset=".72" stop-color="#a5eeff"/><stop offset="1" stop-color="#81e7ff"/></linearGradient><path fill="url(#UqDKV0pC23B2ju8NzWpvnd)" d="M37,51H13c-1.657,0-3-1.343-3-3V13c0-1.657,1.343-3,3-3h24c1.657,0,3,1.343,3,3v35 C40,49.657,38.657,51,37,51z"/><path fill="#bcbcbc" d="M30,8H20c-0.552,0-1-0.448-1-1v0c0-0.552,0.448-1,1-1h10c0.552,0,1,0.448,1,1v0 C31,7.552,30.552,8,30,8z"/><path fill="#9e9e9e" d="M25 53A3 3 0 1 0 25 59A3 3 0 1 0 25 53Z"/><linearGradient id="UqDKV0pC23B2ju8NzWpvne" x1="33" x2="33" y1="50.958" y2="35.958" gradientUnits="userSpaceOnUse" spreadMethod="reflect"><stop offset="0" stop-color="#89e4fa"/><stop offset=".406" stop-color="#94e8fc"/><stop offset="1" stop-color="#acf0ff"/></linearGradient><path fill="url(#UqDKV0pC23B2ju8NzWpvne)" d="M30,38.5L30,38.5c0,1.381,1.119,2.5,2.5,2.5h0c1.381,0,2.5,1.119,2.5,2.5v0 c0,1.381-1.119,2.5-2.5,2.5h-4c-1.381,0-2.5,1.119-2.5,2.5v0c0,1.381,1.119,2.5,2.5,2.5H37c1.657,0,3-1.343,3-3v-2v-5v-5h-7.5 C31.119,36,30,37.119,30,38.5z"/><linearGradient id="UqDKV0pC23B2ju8NzWpvnf" x1="30.5" x2="30.5" y1="24" y2="19" gradientUnits="userSpaceOnUse" spreadMethod="reflect"><stop offset="0" stop-color="#ecf9fd"/><stop offset=".848" stop-color="#f2fdff"/><stop offset="1" stop-color="#f4feff"/></linearGradient><path fill="url(#UqDKV0pC23B2ju8NzWpvnf)" d="M28,21.5L28,21.5c0,1.381,1.119,2.5,2.5,2.5h0c1.381,0,2.5-1.119,2.5-2.5v0 c0-1.381-1.119-2.5-2.5-2.5h0C29.119,19,28,20.119,28,21.5z"/><linearGradient id="UqDKV0pC23B2ju8NzWpvng" x1="20" x2="20" y1="43" y2="10" gradientUnits="userSpaceOnUse" spreadMethod="reflect"><stop offset="0" stop-color="#ecf9fd"/><stop offset=".848" stop-color="#f2fdff"/><stop offset="1" stop-color="#f4feff"/></linearGradient><path fill="url(#UqDKV0pC23B2ju8NzWpvng)" d="M21.5,24h1c1.381,0,2.5-1.119,2.5-2.5v0c0-1.381-1.119-2.5-2.5-2.5H19c-1.105,0-2-0.895-2-2 v0c0-1.105,0.895-2,2-2h8.5c1.381,0,2.5-1.119,2.5-2.5v0c0-1.381-1.119-2.5-2.5-2.5H13c-1.657,0-3,1.343-3,3v30h9.5 c1.381,0,2.5-1.119,2.5-2.5v0c0-1.381-1.119-2.5-2.5-2.5H19c-1.105,0-2-0.895-2-2v0c0-1.105,0.895-2,2-2h5.5 c1.381,0,2.5-1.119,2.5-2.5v0c0-1.381-1.119-2.5-2.5-2.5h-3c-1.381,0-2.5-1.119-2.5-2.5v0C19,25.119,20.119,24,21.5,24z"/><path fill="#bcbcbc" d="M42.781,48H43V12h-0.219c-1.028,0-1.989,0.322-2.794,0.867C39.989,12.912,40,12.954,40,13v34.142 C40.803,47.681,41.758,48,42.781,48z"/><linearGradient id="UqDKV0pC23B2ju8NzWpvnh" x1="44" x2="44" y1="44" y2="3.369" gradientUnits="userSpaceOnUse" spreadMethod="reflect"><stop offset="0" stop-color="#155cde"/><stop offset=".278" stop-color="#1f7fe5"/><stop offset=".569" stop-color="#279ceb"/><stop offset=".82" stop-color="#2cafef"/><stop offset="1" stop-color="#2eb5f0"/></linearGradient><path fill="url(#UqDKV0pC23B2ju8NzWpvnh)" d="M57.243,27.811l-2.628-0.657c-0.253-0.945-0.626-1.84-1.106-2.667l1.349-2.248 c0.236-0.393,0.174-0.897-0.15-1.222l-1.724-1.724c-0.324-0.324-0.828-0.386-1.222-0.15l-2.248,1.349 c-0.827-0.481-1.721-0.853-2.667-1.106l-0.657-2.628C46.078,16.312,45.678,16,45.219,16h-2.438c-0.459,0-0.859,0.312-0.97,0.757 l-0.657,2.628c-0.945,0.253-1.84,0.626-2.667,1.106l-2.248-1.349c-0.393-0.236-0.897-0.174-1.222,0.15l-1.724,1.724 c-0.324,0.324-0.386,0.828-0.15,1.222l1.349,2.248c-0.481,0.827-0.853,1.721-1.106,2.667l-2.628,0.657 C30.312,27.922,30,28.322,30,28.781v2.438c0,0.459,0.312,0.859,0.757,0.97l2.628,0.657c0.253,0.945,0.626,1.84,1.106,2.667 l-1.349,2.248c-0.236,0.393-0.174,0.897,0.15,1.222l1.724,1.724c0.324,0.324,0.828,0.386,1.222,0.15l2.248-1.349 c0.827,0.481,1.721,0.853,2.667,1.106l0.657,2.628C41.922,43.688,42.322,44,42.781,44h2.438c0.459,0,0.859-0.312,0.97-0.758 l0.657-2.628c0.945-0.253,1.84-0.626,2.667-1.106l2.248,1.349c0.393,0.236,0.897,0.174,1.222-0.15l1.724-1.724 c0.324-0.324,0.386-0.828,0.15-1.222l-1.349-2.248c0.481-0.827,0.853-1.721,1.106-2.667l2.628-0.657 C57.688,32.078,58,31.678,58,31.219v-2.438C58,28.322,57.688,27.922,57.243,27.811z"/><linearGradient id="UqDKV0pC23B2ju8NzWpvni" x1="44" x2="44" y1="35.35" y2="24.916" gradientUnits="userSpaceOnUse" spreadMethod="reflect"><stop offset="0" stop-color="#3da1eb"/><stop offset="1" stop-color="#51b9f2"/></linearGradient><path fill="url(#UqDKV0pC23B2ju8NzWpvni)" d="M44 24A6 6 0 1 0 44 36A6 6 0 1 0 44 24Z"/><path fill="#fff" d="M44 27A3 3 0 1 0 44 33A3 3 0 1 0 44 27Z"/></svg>