<svg xmlns="http://www.w3.org/2000/svg"  viewBox="0 0 64 64" width="50px" height="50px"><radialGradient id="79Yla3NA23p8wKydwy1~ga" cx="-117.362" cy="8714.514" r="180.803" gradientTransform="translate(0 -8674)" gradientUnits="userSpaceOnUse"><stop offset="0" stop-color="#f4e9c3"/><stop offset=".219" stop-color="#f8eecd"/><stop offset=".644" stop-color="#fdf4dc"/><stop offset="1" stop-color="#fff6e1"/></radialGradient><path fill="url(#79Yla3NA23p8wKydwy1~ga)" d="M59.5,33h-4.401c-0.982,0-1.893-0.663-2.066-1.63C53.011,31.244,53,31.119,53,30.996	c0.002-1.06,0.829-1.927,1.873-1.992c1.515-0.095,2.906-1.098,3.101-2.604C57.991,26.264,58,26.13,58,25.997	C57.998,24.342,56.656,23,55,23h-5v-6.941c0.626-0.641,1.492-1.047,2.456-1.059c0.001,0,0.002,0,0.003,0c0.004,0,0.007,0,0.01,0	c0.001,0,0.003,0,0.004,0c0.003,0,0.007,0,0.01,0c0.001,0,0.002,0,0.004,0c0.005,0,0.009,0,0.013,0h1.802	c1.884,0,3.574-1.402,3.691-3.278c0.001-0.011,0.001-0.022,0.002-0.033C57.998,11.625,58,11.563,58,11.5C58,9.567,56.433,8,54.5,8	H47h-6l4,4H14h-2.302c-1.896,0-3.594,1.419-3.693,3.312c-0.001,0.024-0.002,0.047-0.003,0.071C7.937,17.369,9.528,19,11.5,19H14v8	H9.5C8.119,27,7,28.119,7,29.5S8.119,32,9.5,32l0,0c1.381,0,2.5,1.119,2.5,2.5S10.881,37,9.5,37H4.17	c-1.625,0-3.081,1.217-3.166,2.839C1.002,39.893,1,39.947,1,40c0,1.656,1.343,3,3,3h4.893c0.996,0,1.919,0.681,2.08,1.664	C10.991,44.777,11,44.888,11,44.997C11.001,46.103,10.106,47,9,47H8.17c-1.624,0-3.081,1.217-3.165,2.839	C5.002,49.893,5,49.947,5,50c0,1.656,1.343,3,3,3h6v-1h36h4.83c1.57,0,3.083-1.271,3.165-2.839C58.086,47.431,56.71,46,55,46h-0.013	c-0.006,0-0.011,0-0.017,0c-0.777,0-1.539-0.254-2.078-0.768c-0.17-0.162-0.318-0.35-0.438-0.564C51.166,42.35,52.809,40,55,40	h4.302c1.896,0,3.595-1.42,3.693-3.313C63.1,34.669,61.495,33,59.5,33z"/><radialGradient id="79Yla3NA23p8wKydwy1~gb" cx="-9.546" cy="8704.613" r="14.612" gradientTransform="translate(0 -8674)" gradientUnits="userSpaceOnUse"><stop offset="0" stop-color="#f4e9c3"/><stop offset=".219" stop-color="#f8eecd"/><stop offset=".644" stop-color="#fdf4dc"/><stop offset="1" stop-color="#fff6e1"/></radialGradient><path fill="url(#79Yla3NA23p8wKydwy1~gb)" d="M5,29.5C5,28.119,3.881,27,2.5,27S0,28.119,0,29.5S1.119,32,2.5,32S5,30.881,5,29.5z"/><linearGradient id="79Yla3NA23p8wKydwy1~gc" x1="32" x2="32" y1="8677" y2="8735" gradientTransform="translate(0 -8674)" gradientUnits="userSpaceOnUse"><stop offset="0" stop-color="#a4a4a4"/><stop offset=".619" stop-color="gray"/><stop offset="1" stop-color="#6f6f6f"/><stop offset="1" stop-color="#6f6f6f"/></linearGradient><path fill="url(#79Yla3NA23p8wKydwy1~gc)" d="M45,61H19c-2.761,0-5-2.239-5-5V8c0-2.761,2.239-5,5-5h26c2.761,0,5,2.239,5,5v48	C50,58.761,47.761,61,45,61z"/><linearGradient id="79Yla3NA23p8wKydwy1~gd" x1="32" x2="32" y1="8680" y2="8755.807" gradientTransform="translate(0 -8674)" gradientUnits="userSpaceOnUse"><stop offset="0" stop-color="#dff9ff"/><stop offset="0" stop-color="#dff9ff"/><stop offset=".173" stop-color="#d8f8ff"/><stop offset=".423" stop-color="#c5f4ff"/><stop offset=".72" stop-color="#a5eeff"/><stop offset="1" stop-color="#81e7ff"/></linearGradient><path fill="url(#79Yla3NA23p8wKydwy1~gd)" d="M44,53H20c-1.657,0-3-1.343-3-3V9c0-1.657,1.343-3,3-3h24c1.657,0,3,1.343,3,3v41	C47,51.657,45.657,53,44,53z"/><path fill="#9e9e9e" d="M29,55h6c1.105,0,2,0.895,2,2l0,0c0,1.105-0.895,2-2,2h-6c-1.105,0-2-0.895-2-2l0,0	C27,55.895,27.895,55,29,55z"/><linearGradient id="79Yla3NA23p8wKydwy1~ge" x1="40" x2="40" y1="13" y2="30.796" gradientTransform="matrix(1 0 0 -1 0 66)" gradientUnits="userSpaceOnUse"><stop offset="0" stop-color="#89e4fa"/><stop offset=".406" stop-color="#94e8fc"/><stop offset="1" stop-color="#acf0ff"/></linearGradient><path fill="url(#79Yla3NA23p8wKydwy1~ge)" d="M45,38h-5.5H36v5h3.5c1.381,0,2.5,1.119,2.5,2.5S40.881,48,39.5,48h-4	c-1.381,0-2.5,1.119-2.5,2.5s1.119,2.5,2.5,2.5H44c1.657,0,3-1.343,3-3v-2v-5v-5H45z"/><linearGradient id="79Yla3NA23p8wKydwy1~gf" x1="27" x2="27" y1="8713" y2="8680" gradientTransform="translate(0 -8674)" gradientUnits="userSpaceOnUse"><stop offset="0" stop-color="#ecf9fd"/><stop offset=".848" stop-color="#f2fdff"/><stop offset="1" stop-color="#f4feff"/></linearGradient><path fill="url(#79Yla3NA23p8wKydwy1~gf)" d="M28.5,20h1c1.381,0,2.5-1.119,2.5-2.5l0,0c-4,0-2.619-2.5-4-2.5h-2c-1.105,0-2-0.895-2-2l0,0	c0-1.105,0.895-2,2-2h8.5c1.381,0,2.5-1.119,2.5-2.5l0,0C37,7.119,35.881,6,34.5,6H20c-1.657,0-3,1.343-3,3v30h10.5	c1.381,0,2.5-1.119,2.5-2.5l0,0c0-1.381-1.119-2.5-2.5-2.5H27c-1.105,0-2-0.895-2-2l0,0c0-1.105,0.895-2,2-2h4.5	c1.381,0,2.5-1.119,2.5-2.5l0,0c0-1.381-1.119-2.5-2.5-2.5h-3c-1.381,0-2.5-1.119-2.5-2.5l0,0C26,21.119,27.119,20,28.5,20z"/><linearGradient id="79Yla3NA23p8wKydwy1~gg" x1="22.5" x2="22.5" y1="12.489" y2="59.907" gradientTransform="matrix(1 0 0 -1 0 66)" gradientUnits="userSpaceOnUse"><stop offset="0" stop-color="#42d778"/><stop offset=".996" stop-color="#34b171"/><stop offset="1" stop-color="#34b171"/></linearGradient><path fill="url(#79Yla3NA23p8wKydwy1~gg)" d="M22.5,33c-0.828,0-1.5-0.672-1.5-1.5v-7c0-0.828,0.672-1.5,1.5-1.5s1.5,0.672,1.5,1.5v7	C24,32.328,23.328,33,22.5,33z"/><linearGradient id="79Yla3NA23p8wKydwy1~gh" x1="41.5" x2="41.5" y1="12.489" y2="59.907" gradientTransform="matrix(1 0 0 -1 0 66)" gradientUnits="userSpaceOnUse"><stop offset="0" stop-color="#42d778"/><stop offset=".996" stop-color="#34b171"/><stop offset="1" stop-color="#34b171"/></linearGradient><path fill="url(#79Yla3NA23p8wKydwy1~gh)" d="M41.5,33c-0.828,0-1.5-0.672-1.5-1.5v-7c0-0.828,0.672-1.5,1.5-1.5s1.5,0.672,1.5,1.5v7	C43,32.328,42.328,33,41.5,33z"/><linearGradient id="79Yla3NA23p8wKydwy1~gi" x1="32" x2="32" y1="12.489" y2="59.907" gradientUnits="userSpaceOnUse"><stop offset="0" stop-color="#42d778"/><stop offset=".996" stop-color="#34b171"/><stop offset="1" stop-color="#34b171"/></linearGradient><path fill="url(#79Yla3NA23p8wKydwy1~gi)" d="M25,24v11c0,1.105,0.895,2,2,2v4.5c0,0.828,0.672,1.5,1.5,1.5s1.5-0.672,1.5-1.5V37h4v4.5	c0,0.828,0.672,1.5,1.5,1.5s1.5-0.672,1.5-1.5V37c1.105,0,2-0.895,2-2V24H25z"/><linearGradient id="79Yla3NA23p8wKydwy1~gj" x1="32" x2="32" y1="12.489" y2="59.907" gradientUnits="userSpaceOnUse"><stop offset="0" stop-color="#42d778"/><stop offset=".996" stop-color="#34b171"/><stop offset="1" stop-color="#34b171"/></linearGradient><path fill="url(#79Yla3NA23p8wKydwy1~gj)" d="M25,23h14c0-2.381-1.191-4.481-3.008-5.746l0.903-1.806c0.247-0.494,0.047-1.095-0.447-1.342	c-0.494-0.245-1.095-0.047-1.342,0.447l-0.903,1.806C33.51,16.129,32.77,16,32,16c-0.77,0-1.509,0.129-2.203,0.359l-0.904-1.807	c-0.248-0.494-0.848-0.692-1.342-0.447c-0.494,0.247-0.694,0.848-0.447,1.342l0.903,1.807C26.192,18.518,25,20.619,25,23z"/></svg>