<svg xmlns="http://www.w3.org/2000/svg"  viewBox="0 0 64 64" width="50px" height="50px"><radialGradient id="EAOTsbBIblXlO6w6WJRwKa" cx="-159" cy="32.5" r="31.751" gradientTransform="matrix(-1 0 0 1 -127 0)" gradientUnits="userSpaceOnUse" spreadMethod="reflect"><stop offset="0" stop-color="#afeeff"/><stop offset=".193" stop-color="#bbf1ff"/><stop offset=".703" stop-color="#d7f8ff"/><stop offset="1" stop-color="#e1faff"/></radialGradient><path fill="url(#EAOTsbBIblXlO6w6WJRwKa)" d="M2.499,19.008H6c1.1,0,2-0.9,2-2c0-1.1-0.9-2-2-2H4c-1.85,0-3.32-1.69-2.94-3.6 c0.28-1.43,1.62-2.4,3.07-2.4L18.502,9c0.83,0,1.5-0.67,1.5-1.5c0-0.83-0.67-1.5-1.5-1.5h-5.91c-1.14,0-2.2-0.72-2.5-1.82 C9.642,2.52,10.902,1,12.502,1h48.906c1.14,0,2.2,0.72,2.5,1.82c0.45,1.66-0.81,3.18-2.41,3.18H59.5c-0.69,0-1.32,0.28-1.77,0.73 C57.28,7.18,57,7.81,57,8.5c0,1.38,1.12,2.5,2.5,2.5H61c1.65,0,3,1.35,3,3c0,1.65-1.35,3-3,3H49c0,0,0,27,0.05,27H59.5 c2.475,0-2.5,2.025-2.5,4.5c0,2.475,4.975,4.5,2.5,4.5h-5c-1.38,0-2.5,1.12-2.5,2.5s1.12,2.5,2.5,2.5H58c1.66,0-3,1.34-3,3 c0,1.66-1.34,3-3,3H3c-1.66,0-3-1.34-3-3c0-1.66,1.34-3,3-3h3.5C7.88,58,9,56.88,9,55.5S7.88,53,6.5,53h-1C3.025,53,1,50.975,1,48.5 C1,46.025,3.025,44,5.5,44H18V24L2.589,24.008c-1.14,0-2.2-0.72-2.5-1.82C-0.351,20.527,0.909,19.008,2.499,19.008z"/><linearGradient id="EAOTsbBIblXlO6w6WJRwKb" x1="33" x2="33" y1="64.275" y2="6.901" gradientUnits="userSpaceOnUse" spreadMethod="reflect"><stop offset="0" stop-color="#ffc050"/><stop offset=".004" stop-color="#ffc050"/><stop offset=".641" stop-color="#ffbe75"/><stop offset="1" stop-color="#ffbd85"/></linearGradient><path fill="url(#EAOTsbBIblXlO6w6WJRwKb)" d="M40.075,13.711L27.157,9.674c-1.403-0.438-2.907-0.424-4.302,0.041l-10.804,3.601 C10.826,13.725,10,14.871,10,16.162v35.242c0,1.769,1.733,3.018,3.411,2.459l10.67-3.557c0.597-0.199,1.242-0.205,1.844-0.017 l12.918,4.037c1.403,0.438,2.907,0.424,4.302-0.041l10.804-3.601C55.174,50.275,56,49.129,56,47.838V12.596 c0-1.769-1.733-3.018-3.411-2.459l-10.67,3.557C41.322,13.893,40.677,13.899,40.075,13.711z"/><linearGradient id="EAOTsbBIblXlO6w6WJRwKc" x1="48.5" x2="48.5" y1="58.465" y2="7.252" gradientUnits="userSpaceOnUse" spreadMethod="reflect"><stop offset="0" stop-color="#ffc96a"/><stop offset=".004" stop-color="#ffc96a"/><stop offset=".578" stop-color="#ffc887"/><stop offset="1" stop-color="#ffc797"/></linearGradient><path fill="url(#EAOTsbBIblXlO6w6WJRwKc)" d="M52.589,10.137l-10.67,3.557c-0.298,0.099-0.608,0.151-0.919,0.154v40.797 c0.725-0.007,1.448-0.127,2.144-0.359l10.804-3.602C55.174,50.275,56,49.129,56,47.838V12.596C56,10.827,54.267,9.578,52.589,10.137 z"/><linearGradient id="EAOTsbBIblXlO6w6WJRwKd" x1="33" x2="33" y1="54.644" y2="9.356" gradientUnits="userSpaceOnUse" spreadMethod="reflect"><stop offset="0" stop-color="#ff9c63"/><stop offset="1" stop-color="#ffae72"/></linearGradient><path fill="url(#EAOTsbBIblXlO6w6WJRwKd)" d="M41,13.847c-0.312,0.003-0.624-0.042-0.925-0.136L27.157,9.674 C26.455,9.455,25.727,9.349,25,9.356v40.796c0.312-0.003,0.624,0.042,0.925,0.136l12.918,4.037c0.702,0.219,1.43,0.325,2.157,0.318 V13.847z"/><linearGradient id="EAOTsbBIblXlO6w6WJRwKe" x1="52" x2="52" y1="67.852" y2="43.852" gradientUnits="userSpaceOnUse" spreadMethod="reflect"><stop offset="0" stop-color="#155cde"/><stop offset=".625" stop-color="#2289e7"/><stop offset="1" stop-color="#289fec"/></linearGradient><path fill="url(#EAOTsbBIblXlO6w6WJRwKe)" d="M64,52c0,6.626-5.374,12-12,12s-12-5.374-12-12s5.374-12,12-12S64,45.374,64,52z"/><path fill="#fff" d="M54.5,47c-1.933,0-3.5,1.567-3.5,3.5s1.567,3.5,3.5,3.5s3.5-1.567,3.5-3.5S56.433,47,54.5,47z M54.5,52c-0.828,0-1.5-0.672-1.5-1.5c0-0.828,0.672-1.5,1.5-1.5s1.5,0.672,1.5,1.5C56,51.328,55.328,52,54.5,52z"/><path fill="#fff" d="M53 57c-.553 0-1-.448-1-1s.447-1 1-1c1.654 0 3-1.17 3-2.609V50.5c0-.552.447-1 1-1s1 .448 1 1v1.891C58 54.932 55.757 57 53 57zM45 51h4c.55 0 1 .45 1 1l0 0c0 .55-.45 1-1 1h-4c-.55 0-1-.45-1-1l0 0C44 51.45 44.45 51 45 51z"/><path fill="#fff" d="M48,50v4c0,0.55-0.45,1-1,1l0,0c-0.55,0-1-0.45-1-1v-4c0-0.55,0.45-1,1-1l0,0 C47.55,49,48,49.45,48,50z"/></svg>