<svg xmlns="http://www.w3.org/2000/svg"  viewBox="0 0 64 64" width="50px" height="50px"><radialGradient id="qtNYuTOzunV5wqeiFYCtIa" cx="36.833" cy="35.917" r="26" gradientUnits="userSpaceOnUse" spreadMethod="reflect"><stop offset="0" stop-color="#afeeff"/><stop offset=".193" stop-color="#bbf1ff"/><stop offset=".703" stop-color="#d7f8ff"/><stop offset="1" stop-color="#e1faff"/></radialGradient><path fill="url(#qtNYuTOzunV5wqeiFYCtIa)" d="M10,8L10,8c2.209,0,4-1.791,4-4v0c0-2.209-1.791-4-4-4h0C7.791,0,6,1.791,6,4v0 C6,6.209,7.791,8,10,8z"/><radialGradient id="qtNYuTOzunV5wqeiFYCtIb" cx="31.417" cy="29.917" r="28.77" gradientUnits="userSpaceOnUse" spreadMethod="reflect"><stop offset="0" stop-color="#afeeff"/><stop offset=".193" stop-color="#bbf1ff"/><stop offset=".703" stop-color="#d7f8ff"/><stop offset="1" stop-color="#e1faff"/></radialGradient><path fill="url(#qtNYuTOzunV5wqeiFYCtIb)" d="M7.5,64L7.5,64c1.933,0,3.5-1.567,3.5-3.5v0c0-1.933-1.567-3.5-3.5-3.5h0 C5.567,57,4,58.567,4,60.5v0C4,62.433,5.567,64,7.5,64z"/><radialGradient id="qtNYuTOzunV5wqeiFYCtIc" cx="32.5" cy="32" r="30.775" gradientUnits="userSpaceOnUse" spreadMethod="reflect"><stop offset="0" stop-color="#afeeff"/><stop offset=".193" stop-color="#bbf1ff"/><stop offset=".703" stop-color="#d7f8ff"/><stop offset="1" stop-color="#e1faff"/></radialGradient><path fill="url(#qtNYuTOzunV5wqeiFYCtIc)" d="M62,20.5L62,20.5c0-2.485-2.015-4.5-4.5-4.5H44c-2.209,0-4-1.791-4-4v0c0-2.209,1.791-4,4-4 h2c2.209,0,4-1.791,4-4v0c0-2.209-1.791-4-4-4L22,0c-2.209,0-4,1.791-4,4v0c0,2.209,1.791,4,4,4h2c1.657,0,3,1.343,3,3v0 c0,1.657-1.343,3-3,3H10.5C8.567,14,7,15.567,7,17.5v0c0,1.933,1.567,3.5,3.5,3.5H13c1.657,0,3,1.343,3,3v0c0,1.657-1.343,3-3,3H8 c-2.761,0-5,2.239-5,5v0c0,2.761,2.239,5,5,5h5.5c1.933,0,3.5,1.567,3.5,3.5v0c0,1.933-1.567,3.5-3.5,3.5H9c-2.209,0-4,1.791-4,4v0 c0,2.209,1.791,4,4,4h8.5c1.381,0,2.5,1.119,2.5,2.5v0c0,1.381-1.119,2.5-2.5,2.5h0c-1.933,0-3.5,1.567-3.5,3.5v0 c0,1.933,1.567,3.5,3.5,3.5h30c1.933,0,3.5-1.567,3.5-3.5v0c0-1.933-1.567-3.5-3.5-3.5H47c-1.105,0-2-0.895-2-2v0 c0-1.105,0.895-2,2-2h7c2.209,0,4-1.791,4-4v0c0-2.209-1.791-4-4-4h-5.5c-1.381,0-2.5-1.119-2.5-2.5v0c0-1.381,1.119-2.5,2.5-2.5 H49c2.209,0,4-1.791,4-4v0c0-2.209-1.791-4-4-4h-1.5c-1.933,0-3.5-1.567-3.5-3.5v0c0-1.933,1.567-3.5,3.5-3.5h10 C59.985,25,62,22.985,62,20.5z"/><radialGradient id="qtNYuTOzunV5wqeiFYCtId" cx="35.917" cy="35.417" r="27.938" gradientUnits="userSpaceOnUse" spreadMethod="reflect"><stop offset="0" stop-color="#afeeff"/><stop offset=".193" stop-color="#bbf1ff"/><stop offset=".703" stop-color="#d7f8ff"/><stop offset="1" stop-color="#e1faff"/></radialGradient><path fill="url(#qtNYuTOzunV5wqeiFYCtId)" d="M59,40L59,40c-2.209,0-4-1.791-4-4v0c0-2.209,1.791-4,4-4h0c2.209,0,4,1.791,4,4v0 C63,38.209,61.209,40,59,40z"/><linearGradient id="qtNYuTOzunV5wqeiFYCtIe" x1="34" x2="34" y1="68.75" y2="36.75" gradientUnits="userSpaceOnUse" spreadMethod="reflect"><stop offset="0" stop-color="#ffc662"/><stop offset=".004" stop-color="#ffc662"/><stop offset=".609" stop-color="#ffc582"/><stop offset="1" stop-color="#ffc491"/><stop offset="1" stop-color="#ffc491"/></linearGradient><path fill="url(#qtNYuTOzunV5wqeiFYCtIe)" d="M37,29H26v29c0,1.657,1.343,3,3,3h8h2c1.657,0,3-1.343,3-3v0c0-1.657-1.343-3-3-3h-0.5 c-0.828,0-1.5-0.672-1.5-1.5l0,0c0-0.828,0.672-1.5,1.5-1.5H39c1.657,0,3-1.343,3-3v0c0-1.657-1.343-3-3-3h-0.5 c-0.828,0-1.5-0.672-1.5-1.5V29z"/><linearGradient id="qtNYuTOzunV5wqeiFYCtIf" x1="32" x2="32" y1="61" y2="36.131" gradientUnits="userSpaceOnUse" spreadMethod="reflect"><stop offset="0" stop-color="#ff8b67"/><stop offset=".847" stop-color="#ffa76a"/><stop offset="1" stop-color="#ffad6b"/><stop offset="1" stop-color="#ffad6b"/></linearGradient><path fill="url(#qtNYuTOzunV5wqeiFYCtIf)" d="M34,61h-4V48c0-1.105,0.895-2,2-2h0c1.105,0,2,0.895,2,2V61z"/><g><linearGradient id="qtNYuTOzunV5wqeiFYCtIg" x1="32" x2="32" y1="35" y2="3" gradientUnits="userSpaceOnUse" spreadMethod="reflect"><stop offset="0" stop-color="#31995f"/><stop offset=".093" stop-color="#329e62"/><stop offset=".666" stop-color="#39ba71"/><stop offset="1" stop-color="#3bc477"/></linearGradient><path fill="url(#qtNYuTOzunV5wqeiFYCtIg)" d="M23,35h18c4.418,0,8-3.582,8-8v-8c0-8.837-7.163-16-16-16h-2c-8.837,0-16,7.163-16,16v8 C15,31.418,18.582,35,23,35z"/><linearGradient id="qtNYuTOzunV5wqeiFYCtIh" x1="26" x2="26" y1="3" y2="35" gradientUnits="userSpaceOnUse" spreadMethod="reflect"><stop offset="0" stop-color="#44c975"/><stop offset=".267" stop-color="#37be6c"/><stop offset=".763" stop-color="#13a154"/><stop offset="1" stop-color="#009147"/></linearGradient><path fill="url(#qtNYuTOzunV5wqeiFYCtIh)" d="M28,8l6.357,0c1.308,0,2.5-0.941,2.63-2.242C37.137,4.261,35.966,3,34.5,3H31 c-8.837,0-16,7.163-16,16v8c0,4.418,3.582,8,8,8h1c-1.215,0-2.176-1.083-1.973-2.336c0.16-0.983,1.083-1.664,2.08-1.664l3.25,0 c1.308,0,2.5-0.941,2.63-2.242C30.137,27.261,28.966,26,27.5,26h-4c-1.381,0-2.5-1.119-2.5-2.5v0c0-1.381,1.119-2.5,2.5-2.5H32v-7 h-4c-1.657,0-3-1.343-3-3v0C25,9.343,26.343,8,28,8z"/></g><path fill="#fff" d="M32 13A4 4 0 1 0 32 21A4 4 0 1 0 32 13Z"/></svg>