<svg xmlns="http://www.w3.org/2000/svg"  viewBox="0 0 48 48" width="50px" height="50px"><linearGradient id="zxv8lVPoWYZ8AJS8AUuqWa" x1="5.35" x2="42.639" y1="23.774" y2="23.774" gradientUnits="userSpaceOnUse"><stop offset="0" stop-color="#ae4cd5"/><stop offset="1" stop-color="#ac4ad5"/></linearGradient><path fill="url(#zxv8lVPoWYZ8AJS8AUuqWa)" d="M41.772,24.357l-11.886,1.605l8.592,9.249c0.416,0.447,0.337,1.159-0.167,1.505l-6.837,4.696 c-0.49,0.337-1.164,0.174-1.446-0.35L24,29.887l-6.029,11.179c-0.282,0.522-0.954,0.686-1.444,0.351l-6.879-4.699 c-0.506-0.346-0.585-1.06-0.167-1.508l8.633-9.247L6.217,24.356c-0.628-0.085-1.02-0.725-0.81-1.323l2.636-7.5 c0.192-0.546,0.806-0.815,1.337-0.588l11.078,4.748L18.573,7.105c-0.091-0.605,0.378-1.148,0.989-1.148h8.877 c0.611,0,1.08,0.544,0.989,1.148l-1.886,12.587l10.989-4.747c0.529-0.229,1.141,0.036,1.337,0.578l2.711,7.503 C42.796,23.626,42.404,24.272,41.772,24.357z"/></svg>