<svg xmlns="http://www.w3.org/2000/svg"  viewBox="0 0 64 64" width="50px" height="50px"><radialGradient id="kgucm22B_7BXP5ZvUeIapa" cx="32" cy="31.5" r="30.775" gradientUnits="userSpaceOnUse" spreadMethod="reflect"><stop offset="0" stop-color="#f4e9c3"/><stop offset=".219" stop-color="#f8eecd"/><stop offset=".644" stop-color="#fdf4dc"/><stop offset="1" stop-color="#fff6e1"/></radialGradient><path fill="url(#kgucm22B_7BXP5ZvUeIapa)" d="M60,37h-1h-2c-2.2,0-4-1.8-4-4s1.8-4,4-4h2h0.017c2.759,0,4.992-2.241,4.983-5 c-0.009-2.764-2.253-5-5.017-5H56c-2.761,0-5-2.238-5-5c0-2.762,2.238-5,5-5h0.565C58.48,9,60,7.48,60,5.605V5.5 C60,3.567,58.433,2,56.5,2h-46C8.574,2,7.01,3.556,7,5.483L7,5.5C6.99,7.43,8.552,9,10.483,9H11c2.209,0,4,1.791,4,4 c0,2.209-1.791,4-4,4H5c-2.761,0-5,2.239-5,5s2.239,5,5,5h1c2.209,0,4,1.791,4,4c0,2.209-1.791,4-4,4H5.5C2.462,35,0,37.462,0,40.5 C0,43.538,2.462,46,5.5,46H16c1.657,0,3,1.343,3,3s-1.343,3-3,3h-0.5c-2.485,0-4.5,2.015-4.5,4.5s2.015,4.5,4.5,4.5H33h22 c2.209,0,4-1.791,4-4c0-2.209-1.791-4-4-4h-1c-2.209,0-4-1.791-4-4c0-2.209,1.791-4,4-4h6c2.209,0,4-1.791,4-4 C64,38.791,62.209,37,60,37z"/><linearGradient id="kgucm22B_7BXP5ZvUeIapb" x1="11.5" x2="11.5" y1="4.983" y2="43.484" gradientUnits="userSpaceOnUse" spreadMethod="reflect"><stop offset="0" stop-color="#a4a4a4"/><stop offset=".63" stop-color="#7f7f7f"/><stop offset="1" stop-color="#6f6f6f"/><stop offset="1" stop-color="#6f6f6f"/></linearGradient><path fill="url(#kgucm22B_7BXP5ZvUeIapb)" d="M20,43h-6C7.925,43,3,38.075,3,32v0c0-6.075,4.925-11,11-11h6V43z"/><linearGradient id="kgucm22B_7BXP5ZvUeIapc" x1="28.5" x2="28.5" y1="12.157" y2="52.463" gradientUnits="userSpaceOnUse" spreadMethod="reflect"><stop offset="0" stop-color="#adadad"/><stop offset=".476" stop-color="#9a9a9a"/><stop offset="1" stop-color="#8a8a8a"/></linearGradient><path fill="url(#kgucm22B_7BXP5ZvUeIapc)" d="M32.26,11.625L20,21v10v12.013l12.26,9.375c1.94,1.484,4.74,0.1,4.74-2.343V31V13.968 C37,11.525,34.2,10.141,32.26,11.625z"/><linearGradient id="kgucm22B_7BXP5ZvUeIapd" x1="51" x2="51" y1="43.007" y2="21.007" gradientUnits="userSpaceOnUse" spreadMethod="reflect"><stop offset="0" stop-color="#ff634d"/><stop offset=".204" stop-color="#fe6464"/><stop offset=".521" stop-color="#fc6581"/><stop offset=".794" stop-color="#fa6694"/><stop offset=".989" stop-color="#fa669a"/><stop offset="1" stop-color="#fa669a"/></linearGradient><path fill="url(#kgucm22B_7BXP5ZvUeIapd)" d="M60,43.007c-0.512,0-1.024-0.195-1.414-0.586l-18-18c-0.781-0.781-0.781-2.047,0-2.828 c0.78-0.781,2.048-0.781,2.828,0l18,18c0.781,0.781,0.781,2.047,0,2.828C61.024,42.812,60.512,43.007,60,43.007z"/><g><linearGradient id="kgucm22B_7BXP5ZvUeIape" x1="51" x2="51" y1="43.007" y2="21.007" gradientUnits="userSpaceOnUse" spreadMethod="reflect"><stop offset="0" stop-color="#ff634d"/><stop offset=".204" stop-color="#fe6464"/><stop offset=".521" stop-color="#fc6581"/><stop offset=".794" stop-color="#fa6694"/><stop offset=".989" stop-color="#fa669a"/><stop offset="1" stop-color="#fa669a"/></linearGradient><path fill="url(#kgucm22B_7BXP5ZvUeIape)" d="M42,43.007c-0.512,0-1.024-0.195-1.414-0.586c-0.781-0.781-0.781-2.047,0-2.828l18-18 c0.78-0.781,2.048-0.781,2.828,0c0.781,0.781,0.781,2.047,0,2.828l-18,18C43.024,42.812,42.512,43.007,42,43.007z"/></g></svg>