<svg xmlns="http://www.w3.org/2000/svg"  viewBox="0 0 64 64" width="50px" height="50px"><radialGradient id="KMqvRpZ6tMVGkbKKdepV9a" cx="33.001" cy="34.5" r="31.25" gradientTransform="matrix(1 0 0 -1 0 66)" gradientUnits="userSpaceOnUse"><stop offset="0" stop-color="#f4e9c3"/><stop offset=".219" stop-color="#f8eecd"/><stop offset=".644" stop-color="#fdf4dc"/><stop offset="1" stop-color="#fff6e1"/></radialGradient><path fill="url(#KMqvRpZ6tMVGkbKKdepV9a)" d="M55.38,51h4.12c1.933,0,3.5-1.567,3.5-3.5S61.433,44,59.5,44h-4H53l-5.24-10H59.5	c2.49,0,4.5-2.01,4.5-4.5c0-0.19-0.01-0.37-0.03-0.55c-0.13-1.02-0.59-1.94-1.29-2.63C61.87,25.5,60.74,25,59.5,25h-4	c-1.93,0-3.5-1.57-3.5-3.5c0-0.96,0.39-1.84,1.03-2.47C53.66,18.39,54.54,18,55.5,18h1.89c1.67,0,3.19-1.12,3.53-2.76	C61.39,13,59.67,11,57.5,11H46c-1.1,0-2-0.9-2-2c0-0.56,0.22-1.06,0.59-1.42C44.95,7.22,45.45,7,46,7h4.39	c1.67,0,3.19-1.12,3.53-2.76C54.39,2,52.67,0,50.5,0H10.61C8.94,0,7.42,1.12,7.08,2.76C6.61,5,8.33,7,10.5,7H13c1.1,0,2,0.89,2,2	c0,0.55-0.22,1.05-0.59,1.41C14.05,10.78,13.55,11,13,11H6.61c-1.67,0-3.19,1.12-3.53,2.76C2.61,16,4.33,18,6.5,18H22v15H5.61	c-1.67,0-3.19,1.12-3.53,2.76C1.61,38,3.33,40,5.5,40H12c1.1,0,2,0.9,2,2c0,0.55-0.22,1.05-0.59,1.41C13.05,43.78,12.55,44,12,44	H9.61c-1.67,0-3.19,1.12-3.53,2.76C5.61,49,7.33,51,9.5,51h15.11c1.32,0,2.39,1.07,2.39,2.38v0.23c0,1.32-1.07,2.39-2.39,2.39h-5	c-1.67,0-3.19,1.12-3.53,2.76C15.61,61,17.33,63,19.5,63h38.88c1.67,0,3.2-1.12,3.54-2.76C62.39,58,60.67,56,58.5,56h-3.12	C54.07,56,53,54.93,53,53.62v-0.23C53,52.07,54.07,51,55.38,51z"/><linearGradient id="KMqvRpZ6tMVGkbKKdepV9b" x1="32" x2="32" y1="14.627" y2="47.682" gradientTransform="matrix(1 0 0 -1 0 66)" gradientUnits="userSpaceOnUse"><stop offset="0" stop-color="#155cde"/><stop offset=".278" stop-color="#1f7fe5"/><stop offset=".569" stop-color="#279ceb"/><stop offset=".82" stop-color="#2cafef"/><stop offset="1" stop-color="#2eb5f0"/></linearGradient><path fill="url(#KMqvRpZ6tMVGkbKKdepV9b)" d="M57.865,45.248c-0.39-3.841-1.455-7.745-3.403-11.388c-1.938-3.633-4.805-6.987-8.473-9.475	c-3.659-2.486-8.078-4.03-12.538-4.447l-8.184-0.906v-4.25c0-2.396-2.82-3.667-4.606-2.075L6.874,25.006	c-1.008,0.9-1.008,2.48,0,3.38L20.66,40.685c1.784,1.592,4.606,0.32,4.606-2.075v-4.251l7.986-0.889	c2.431-0.347,4.89-0.117,7.255,0.767c2.354,0.893,4.593,2.468,6.446,4.606c1.856,2.135,3.315,4.801,4.284,7.737l0.029,0.089	c0.489,1.483,1.953,2.481,3.566,2.315C56.697,48.791,58.055,47.119,57.865,45.248z"/></svg>