<svg xmlns="http://www.w3.org/2000/svg"  viewBox="0 0 64 64" width="50px" height="50px"><radialGradient id="2SCNNZQty1uQf9Alc4lUva" cx="36.847" cy="41.51" r="40.927" gradientUnits="userSpaceOnUse" spreadMethod="reflect"><stop offset="0" stop-color="#c5f1ff"/><stop offset=".35" stop-color="#cdf3ff"/><stop offset=".907" stop-color="#e4faff"/><stop offset="1" stop-color="#e9fbff"/></radialGradient><path fill="url(#2SCNNZQty1uQf9Alc4lUva)" d="M64,24L64,24c0-2.761-2.239-5-5-5h-5c-2.761,0-5-2.238-5-5v0c0-2.762,2.238-5,5-5h0.565 C56.48,9,58,7.48,58,5.605L58,5.5C58,3.567,56.433,2,54.5,2l-38,0c-1.926,0-3.49,1.556-3.5,3.483L13,5.5 C12.99,7.43,14.552,9,16.483,9H17c2.209,0,4,1.791,4,4v0c0,2.209-1.791,4-4,4H5c-2.761,0-5,2.239-5,5v0c0,2.761,2.239,5,5,5h1 c2.209,0,4,1.791,4,4v0c0,2.209-1.791,4-4,4H5.5C2.462,35,0,37.462,0,40.5v0C0,43.538,2.462,46,5.5,46H13c1.657,0,3,1.343,3,3v0 c0,1.657-1.343,3-3,3H5.5C3.015,52,1,54.015,1,56.5v0C1,58.985,3.015,61,5.5,61H33h22c2.209,0,4-1.791,4-4v0c0-2.209-1.791-4-4-4 h-6.5c-1.933,0-3.5-1.567-3.5-3.5v0c0-1.933,1.567-3.5,3.5-3.5H60c2.209,0,4-1.791,4-4v0c0-2.209-1.791-4-4-4h-3 c-2.485,0-4.5-2.015-4.5-4.5v0c0-2.485,2.015-4.5,4.5-4.5h2C61.761,29,64,26.761,64,24z"/><linearGradient id="2SCNNZQty1uQf9Alc4lUvb" x1="13.5" x2="13.5" y1="56" y2="42" gradientUnits="userSpaceOnUse" spreadMethod="reflect"><stop offset="0" stop-color="#ffce76"/><stop offset="1" stop-color="#ffcca0"/></linearGradient><path fill="url(#2SCNNZQty1uQf9Alc4lUvb)" d="M16,56h-5c-1.105,0-2-0.895-2-2V44c0-1.105,0.895-2,2-2h5c1.105,0,2,0.895,2,2v10 C18,55.105,17.105,56,16,56z"/><linearGradient id="2SCNNZQty1uQf9Alc4lUvc" x1="49.5" x2="49.5" y1="56" y2="8" gradientUnits="userSpaceOnUse" spreadMethod="reflect"><stop offset="0" stop-color="#ffce76"/><stop offset="1" stop-color="#ffcca0"/></linearGradient><path fill="url(#2SCNNZQty1uQf9Alc4lUvc)" d="M52,56h-5c-1.105,0-2-0.895-2-2V10c0-1.105,0.895-2,2-2h5c1.105,0,2,0.895,2,2v44 C54,55.105,53.105,56,52,56z"/><linearGradient id="2SCNNZQty1uQf9Alc4lUvd" x1="37.5" x2="37.5" y1="56" y2="20" gradientUnits="userSpaceOnUse" spreadMethod="reflect"><stop offset="0" stop-color="#ffce76"/><stop offset="1" stop-color="#ffcca0"/></linearGradient><path fill="url(#2SCNNZQty1uQf9Alc4lUvd)" d="M40,56h-5c-1.105,0-2-0.895-2-2V22c0-1.105,0.895-2,2-2h5c1.105,0,2,0.895,2,2v32 C42,55.105,41.105,56,40,56z"/><linearGradient id="2SCNNZQty1uQf9Alc4lUve" x1="25.5" x2="25.5" y1="56" y2="32" gradientUnits="userSpaceOnUse" spreadMethod="reflect"><stop offset="0" stop-color="#ffce76"/><stop offset="1" stop-color="#ffcca0"/></linearGradient><path fill="url(#2SCNNZQty1uQf9Alc4lUve)" d="M28,56h-5c-1.105,0-2-0.895-2-2V34c0-1.105,0.895-2,2-2h5c1.105,0,2,0.895,2,2v20 C30,55.105,29.105,56,28,56z"/></svg>