<svg xmlns="http://www.w3.org/2000/svg"  viewBox="0 0 64 64" width="50px" height="50px"><radialGradient id="ws4H1i6I_qiYcoSyVixQra" cx="32" cy="30.5" r="31.259" gradientUnits="userSpaceOnUse" spreadMethod="reflect"><stop offset="0" stop-color="#afeeff"/><stop offset=".193" stop-color="#bbf1ff"/><stop offset=".703" stop-color="#d7f8ff"/><stop offset="1" stop-color="#e1faff"/></radialGradient><path fill="url(#ws4H1i6I_qiYcoSyVixQra)" d="M19,6.5C19,7.329,18.328,8,17.5,8l-10,0c-1.466,0-2.637,1.261-2.487,2.758 C5.143,12.059,6.335,13,7.643,13L10,13c1.215,0,2.176,1.083,1.973,2.336C11.813,16.319,10.889,17,9.893,17H4.189 c-2.086,0-3.958,1.514-4.168,3.59C-0.22,22.972,1.665,25,4,25l1.83,0c1.624,0,3.081,1.216,3.165,2.839C9.086,29.569,7.71,31,6,31 l-1,0c-1.848,0-3.319,1.693-2.94,3.605C2.343,36.028,3.68,37,5.131,37L7.5,37c1.466,0,2.637,1.261,2.487,2.758 C9.857,41.059,8.665,42,7.357,42L6.5,42c-2.168,0-3.892,1.998-3.422,4.243C3.42,47.878,4.944,49,6.615,49h4.278 c0.996,0,1.92,0.681,2.08,1.664C13.176,51.917,12.215,53,11.001,53l-6.812,0c-2.086,0-3.958,1.514-4.168,3.59 C-0.22,58.972,1.665,61,4,61h3.188c0,0,0,0,0.001,0L32,61l23.811,0c2.086,0,3.958-1.514,4.168-3.59C60.22,55.028,58.335,53,56,53 c0,0,0,0-0.001,0l-2.878,0c-0.997,0-1.927-0.675-2.093-1.658C50.819,50.093,51.788,49,53,49h6c0,0,0,0,0.001,0h1.385 c1.67,0,3.195-1.122,3.537-2.757C64.392,43.998,62.668,42,60.5,42l-2.857,0c-1.308,0-2.499-0.941-2.63-2.242 C54.863,38.261,56.034,37,57.5,37h1.369c1.451,0,2.789-0.972,3.071-2.395C62.319,32.693,60.848,31,59,31l-3.83,0 c-1.624,0-3.081-1.216-3.165-2.839C51.914,26.431,53.29,25,55,25h4c2.335,0,4.22-2.028,3.979-4.41 c-0.21-2.075-2.082-3.59-4.168-3.59h-0.704c-0.996,0-5.92-0.681-6.08-1.664C51.824,14.083,52.785,13,54,13l5.357,0 c1.308,0,2.5-0.941,2.63-2.242C62.137,9.261,60.966,8,59.5,8h-14C44.672,8,44,7.329,44,6.5S44.672,5,45.5,5l0.857,0 c1.308,0,2.5-0.941,2.63-2.242C49.137,1.261,47.966,0,46.5,0L13.643,0c-1.308,0-2.5,0.941-2.63,2.242C10.863,3.739,12.034,5,13.5,5 l4,0C18.328,5,19,5.672,19,6.5L19,6.5z"/><linearGradient id="ws4H1i6I_qiYcoSyVixQrb" x1="32" x2="32" y1="5" y2="74.96" gradientUnits="userSpaceOnUse" spreadMethod="reflect"><stop offset="0" stop-color="#42d778"/><stop offset=".428" stop-color="#3dca76"/><stop offset="1" stop-color="#34b171"/></linearGradient><path fill="url(#ws4H1i6I_qiYcoSyVixQrb)" d="M56.368,18.539l-10.02,9.891C45.076,29.686,43,28.731,43,26.891V20H19c-1.105,0-2,0.895-2,2v6 c0,1.657-1.343,3-3,3h0c-1.657,0-3-1.343-3-3v-6c0-4.418,3.582-8,8-8h24V7.109c0-1.841,2.076-2.795,3.348-1.539l10.02,9.891 C57.225,16.308,57.225,17.692,56.368,18.539z M7.632,48.539l10.02,9.891C18.924,59.686,21,58.731,21,56.891V50h25 c4.418,0,8-3.582,8-8v-6c0-1.657-1.343-3-3-3h0c-1.657,0-3,1.343-3,3v6c0,1.105-0.895,2-2,2H21v-6.891 c0-1.841-2.076-2.795-3.348-1.539l-10.02,9.891C6.775,46.308,6.775,47.693,7.632,48.539z"/></svg>