<svg xmlns="http://www.w3.org/2000/svg"  viewBox="0 0 48 48" width="50px" height="50px"><radialGradient id="fUhqpS4zHevXIDzdomMUKa" cx="50.216" cy="39.712" r="51.161" gradientUnits="userSpaceOnUse"><stop offset=".131" stop-color="#23d9d6"/><stop offset=".214" stop-color="#21bddd"/><stop offset=".364" stop-color="#1e90e7"/><stop offset=".508" stop-color="#1b6cf0"/><stop offset=".642" stop-color="#1953f6"/><stop offset=".764" stop-color="#1843fa"/><stop offset=".862" stop-color="#183efb"/></radialGradient><path fill="url(#fUhqpS4zHevXIDzdomMUKa)" d="M42,7H16c-0.552,0-1,0.448-1,1v22c0,0.552,0.448,1,1,1h26c0.552,0,1-0.448,1-1V8	C43,7.448,42.552,7,42,7z"/><path d="M22.5,16c-0.171,0-7.5,0-7.5,0v5c0,0,7.329,0,7.5,0c1.381,0,2.5-1.119,2.5-2.5	C25,17.119,23.881,16,22.5,16z" opacity=".05"/><path d="M22.5,16.5c-0.174,0-7.5,0-7.5,0v4c0,0,7.326,0,7.5,0c1.105,0,2-0.895,2-2	C24.5,17.395,23.605,16.5,22.5,16.5z" opacity=".07"/><linearGradient id="fUhqpS4zHevXIDzdomMUKb" x1="6.239" x2="11.739" y1="8.239" y2="13.739" gradientUnits="userSpaceOnUse"><stop offset="0" stop-color="#32bdef"/><stop offset="1" stop-color="#1ea2e4"/></linearGradient><path fill="url(#fUhqpS4zHevXIDzdomMUKb)" d="M9,15c-2.2,0-4-1.8-4-4s1.8-4,4-4s4,1.8,4,4S11.2,15,9,15"/><linearGradient id="fUhqpS4zHevXIDzdomMUKc" x1="10.87" x2="19.368" y1="14.922" y2="36.645" gradientUnits="userSpaceOnUse"><stop offset="0" stop-color="#32bdef"/><stop offset="1" stop-color="#1ea2e4"/></linearGradient><path fill="url(#fUhqpS4zHevXIDzdomMUKc)" d="M22.5,17H9c-2.209,0-4,1.791-4,4v9c0,0.552,0.448,1,1,1h6c0.552,0,1-0.448,1-1v-9	c0-0.552,0.448-1,1-1h8.5c0.828,0,1.5-0.672,1.5-1.5S23.328,17,22.5,17z"/><linearGradient id="fUhqpS4zHevXIDzdomMUKd" x1="6.239" x2="11.739" y1="34.239" y2="39.739" gradientUnits="userSpaceOnUse"><stop offset="0" stop-color="#32bdef"/><stop offset="1" stop-color="#1ea2e4"/></linearGradient><path fill="url(#fUhqpS4zHevXIDzdomMUKd)" d="M9,41c-2.2,0-4-1.8-4-4s1.8-4,4-4s4,1.8,4,4S11.2,41,9,41"/><linearGradient id="fUhqpS4zHevXIDzdomMUKe" x1="16.239" x2="21.739" y1="34.239" y2="39.739" gradientUnits="userSpaceOnUse"><stop offset="0" stop-color="#32bdef"/><stop offset="1" stop-color="#1ea2e4"/></linearGradient><path fill="url(#fUhqpS4zHevXIDzdomMUKe)" d="M19,41c-2.2,0-4-1.8-4-4s1.8-4,4-4s4,1.8,4,4S21.2,41,19,41"/><linearGradient id="fUhqpS4zHevXIDzdomMUKf" x1="26.239" x2="31.739" y1="34.239" y2="39.739" gradientUnits="userSpaceOnUse"><stop offset="0" stop-color="#32bdef"/><stop offset="1" stop-color="#1ea2e4"/></linearGradient><path fill="url(#fUhqpS4zHevXIDzdomMUKf)" d="M29,41c-2.2,0-4-1.8-4-4s1.8-4,4-4s4,1.8,4,4S31.2,41,29,41"/><linearGradient id="fUhqpS4zHevXIDzdomMUKg" x1="36.239" x2="41.739" y1="34.239" y2="39.739" gradientUnits="userSpaceOnUse"><stop offset="0" stop-color="#32bdef"/><stop offset="1" stop-color="#1ea2e4"/></linearGradient><path fill="url(#fUhqpS4zHevXIDzdomMUKg)" d="M39,41c-2.2,0-4-1.8-4-4s1.8-4,4-4s4,1.8,4,4S41.2,41,39,41"/></svg>