<svg xmlns="http://www.w3.org/2000/svg"  viewBox="0 0 64 64" width="50px" height="50px"><radialGradient id="YIXOEG8BlhYNZfOJ~0bbXa" cx="41.125" cy="27.125" r="33.699" gradientUnits="userSpaceOnUse" spreadMethod="reflect"><stop offset="0" stop-color="#c5f1ff"/><stop offset=".35" stop-color="#cdf3ff"/><stop offset=".907" stop-color="#e4faff"/><stop offset="1" stop-color="#e9fbff"/></radialGradient><path fill="url(#YIXOEG8BlhYNZfOJ~0bbXa)" d="M56,8L56,8c2.209,0,4-1.791,4-4v0c0-2.209-1.791-4-4-4h0c-2.209,0-4,1.791-4,4v0 C52,6.209,53.791,8,56,8z"/><radialGradient id="YIXOEG8BlhYNZfOJ~0bbXb" cx="31.5" cy="32" r="31.751" gradientUnits="userSpaceOnUse" spreadMethod="reflect"><stop offset="0" stop-color="#c5f1ff"/><stop offset=".35" stop-color="#cdf3ff"/><stop offset=".907" stop-color="#e4faff"/><stop offset="1" stop-color="#e9fbff"/></radialGradient><path fill="url(#YIXOEG8BlhYNZfOJ~0bbXb)" d="M63,47.5L63,47.5c0-2.485-2.015-4.5-4.5-4.5H32c-1.105,0-2-0.895-2-2V22c0-1.105,0.895-2,2-2 h21c2.209,0,4-1.791,4-4v0c0-2.209-1.791-4-4-4H43c-1.105,0-2-0.895-2-2v0c0-1.105,0.895-2,2-2h1c2.209,0,4-1.791,4-4v0 c0-2.209-1.791-4-4-4H8.5C5.462,0,3,2.462,3,5.5v0C3,8.538,5.462,11,8.5,11h3c3.038,0,5.5,2.462,5.5,5.5v0 c0,3.038-2.462,5.5-5.5,5.5h-6C2.462,22,0,24.462,0,27.5v0C0,30.538,2.462,33,5.5,33H14c1.657,0,3,1.343,3,3v0c0,1.657-1.343,3-3,3 H6.5C4.015,39,2,41.015,2,43.5v0C2,45.985,4.015,48,6.5,48H14c2.209,0,4,1.791,4,4v0c0,2.209-1.791,4-4,4h-1c-2.209,0-4,1.791-4,4 v0c0,2.209,1.791,4,4,4h44c2.209,0,4-1.791,4-4v0c0-2.209-1.791-4-4-4h-1c-1.105,0-2-0.895-2-2v0c0-1.105,0.895-2,2-2h2.5 C60.985,52,63,49.985,63,47.5z"/><linearGradient id="YIXOEG8BlhYNZfOJ~0bbXc" x1="32" x2="32" y1="26.236" y2="10.236" gradientUnits="userSpaceOnUse" spreadMethod="reflect"><stop offset="0" stop-color="#ff8b67"/><stop offset=".847" stop-color="#ffa76a"/><stop offset="1" stop-color="#ffad6b"/><stop offset="1" stop-color="#ffad6b"/></linearGradient><path fill="url(#YIXOEG8BlhYNZfOJ~0bbXc)" d="M32,5L32,5c2.75,0,5,2.25,5,5v6c0,2.75-2.25,5-5,5h0c-2.75,0-5-2.25-5-5v-6 C27,7.25,29.25,5,32,5z"/><linearGradient id="YIXOEG8BlhYNZfOJ~0bbXd" x1="32" x2="32" y1="59" y2="43" gradientUnits="userSpaceOnUse" spreadMethod="reflect"><stop offset="0" stop-color="#ff9757"/><stop offset="1" stop-color="#ffb65b"/><stop offset="1" stop-color="#ffb65b"/></linearGradient><path fill="url(#YIXOEG8BlhYNZfOJ~0bbXd)" d="M32,43L32,43c3.3,0,6,2.7,6,6v4c0,3.3-2.7,6-6,6h0c-3.3,0-6-2.7-6-6v-4C26,45.7,28.7,43,32,43 z"/><linearGradient id="YIXOEG8BlhYNZfOJ~0bbXe" x1="32" x2="32" y1="43.07" y2="14.07" gradientUnits="userSpaceOnUse" spreadMethod="reflect"><stop offset="0" stop-color="#ffc050"/><stop offset=".004" stop-color="#ffc050"/><stop offset=".641" stop-color="#ffbe75"/><stop offset="1" stop-color="#ffbd85"/><stop offset="1" stop-color="#ffbd85"/></linearGradient><path fill="url(#YIXOEG8BlhYNZfOJ~0bbXe)" d="M44.963,22.548C43.201,16.87,37.948,13,32.003,13H32h-0.003c-5.945,0-11.198,3.87-12.96,9.548 L13,42h19h19L44.963,22.548z"/><linearGradient id="YIXOEG8BlhYNZfOJ~0bbXf" x1="32" x2="32" y1="60.599" y2="38.529" gradientUnits="userSpaceOnUse" spreadMethod="reflect"><stop offset="0" stop-color="#ffc96a"/><stop offset=".004" stop-color="#ffc96a"/><stop offset=".578" stop-color="#ffc887"/><stop offset="1" stop-color="#ffc797"/><stop offset="1" stop-color="#ffc797"/></linearGradient><path fill="url(#YIXOEG8BlhYNZfOJ~0bbXf)" d="M50.5,52h-37C10.475,52,8,49.525,8,46.5v0c0-3.025,2.475-5.5,5.5-5.5h37 c3.025,0,5.5,2.475,5.5,5.5v0C56,49.525,53.525,52,50.5,52z"/><g opacity=".75"><linearGradient id="YIXOEG8BlhYNZfOJ~0bbXg" x1="40.345" x2="40.345" y1="37.103" y2="14.155" gradientUnits="userSpaceOnUse" spreadMethod="reflect"><stop offset="0" stop-color="#ff9757"/><stop offset="1" stop-color="#ffb65b"/><stop offset="1" stop-color="#ffb65b"/></linearGradient><path fill="url(#YIXOEG8BlhYNZfOJ~0bbXg)" d="M46.034,26H40.5c-1.381,0-2.5,1.119-2.5,2.5c0,1.381,1.119,2.5,2.5,2.5h2 c1.381,0,2.5,1.119,2.5,2.5c0,1.381-1.119,2.5-2.5,2.5h-10c-1.381,0-2.5,1.119-2.5,2.5c0,1.381,1.119,2.5,2.5,2.5h18.19L46.034,26z"/><linearGradient id="YIXOEG8BlhYNZfOJ~0bbXh" x1="33.5" x2="33.5" y1="33.816" y2="20.999" gradientUnits="userSpaceOnUse" spreadMethod="reflect"><stop offset="0" stop-color="#ff9757"/><stop offset="1" stop-color="#ffb65b"/><stop offset="1" stop-color="#ffb65b"/></linearGradient><path fill="url(#YIXOEG8BlhYNZfOJ~0bbXh)" d="M33.5 26A2.5 2.5 0 1 0 33.5 31A2.5 2.5 0 1 0 33.5 26Z"/></g></svg>