<svg xmlns="http://www.w3.org/2000/svg"  viewBox="0 0 64 64" width="50px" height="50px"><radialGradient id="PPBlCWSAV_cF_dVQryxkUa" cx="31.697" cy="31.844" r="33.403" gradientUnits="userSpaceOnUse" spreadMethod="reflect"><stop offset="0" stop-color="#afeeff"/><stop offset=".193" stop-color="#bbf1ff"/><stop offset=".703" stop-color="#d7f8ff"/><stop offset="1" stop-color="#e1faff"/></radialGradient><path fill="url(#PPBlCWSAV_cF_dVQryxkUa)" d="M59,20h1.5c2.168,0,3.892-1.998,3.422-4.243C63.58,14.122,62.056,13,60.385,13L53,13 c-1.105,0-2-0.895-2-2c0-1.105,0.895-2,2-2h3.385c1.67,0,3.195-1.122,3.537-2.757C60.392,3.998,58.668,2,56.5,2H34.006H32.5h-24 C6.575,2,5,3.575,5,5.5S6.575,9,8.5,9H10c1.105,0,2,0.895,2,2c0,1.105-0.895,2-2,2l-5.385,0c-1.67,0-3.195,1.122-3.537,2.757 C0.608,18.002,2.332,20,4.5,20H15l-3,12l-7.385,0c-1.67,0-3.195,1.122-3.537,2.757C0.608,37.002,2.332,39,4.5,39H5 c1.105,0,2,0.895,2,2c0,1.105-0.895,2-2,2H4.5c-2.168,0-3.892,1.998-3.422,4.243C1.42,48.878,2.945,50,4.615,50H10 c1.105,0,2,0.895,2,2c0,1.105-0.895,2-2,2l-1.385,0c-1.67,0-3.195,1.122-3.537,2.757C4.608,59.002,6.332,61,8.5,61h22.494H32.5h23 c1.925,0,3.5-1.575,3.5-3.5S57.425,54,55.5,54H55c-1.105,0-2-0.895-2-2c0-1.105,0.895-2,2-2h4.385c1.67,0,3.195-1.122,3.537-2.757 C63.392,44.998,61.668,43,59.5,43H47l6-12h6.385c1.67,0,3.195-1.122,3.537-2.757C63.392,25.998,61.668,24,59.5,24H59 c-1.105,0-2-0.895-2-2C57,20.895,57.895,20,59,20z"/><linearGradient id="PPBlCWSAV_cF_dVQryxkUb" x1="32.019" x2="32.019" y1="5" y2="82.011" gradientUnits="userSpaceOnUse" spreadMethod="reflect"><stop offset="0" stop-color="#42d778"/><stop offset=".428" stop-color="#3dca76"/><stop offset="1" stop-color="#34b171"/></linearGradient><path fill="url(#PPBlCWSAV_cF_dVQryxkUb)" d="M52.782,16.545c-1.66-3.71-4.156-6.562-7.489-8.554C41.959,5.998,37.978,5,33.356,5 c-4.55,0-8.636,1.11-12.254,3.328c-3.622,2.213-6.482,5.353-8.58,9.416c-2.103,4.06-3.483,8.631-3.483,13.772 c0,5.359,0.512,9.936,2.198,13.785c1.685,3.851,4.242,6.761,7.668,8.737C22.331,56.011,26.474,57,31.339,57 c1.934,0,3.856-0.224,5.76-0.681c1.05-0.25,1.684-0.535,2.496-0.872c1.043-0.433,1.594-1.579,1.325-2.675 c-0.318-1.298-1.659-2.032-2.939-1.65c-0.631,0.188-1.008,0.348-1.721,0.494c-1.677,0.345-3.28,0.515-4.809,0.515 c-5.803,0-10.161-1.794-13.071-5.383c-2.911-3.588-4.715-8.666-4.421-15.232c0.203-4.323,1.602-8.157,3.206-11.503 c1.601-3.349,3.795-5.932,6.577-7.751C26.522,10.442,29.69,9.9,33.247,9.9c5.691,0,9.988,1.374,12.891,4.851 c2.9,3.474,4.174,8.451,3.862,14.925c-0.111,3.231-0.719,5.839-1.861,7.831c-1.142,1.995-2.706,2.637-4.4,2.637 c-1.105,0-1.766-0.534-2.272-1.314c-0.508-0.777-0.669-1.901-0.484-3.365l1.97-13.16c0.14-1.024-0.305-2.041-1.152-2.634 l-1.136-0.828C38.805,17.619,36.542,17,33.908,17c-2.138,0-4.128,0.661-5.969,1.941s-3.295,2.874-4.501,5.255 c-1.207,2.384-1.978,5.108-2.309,8.168c-0.368,3.747,0.186,6.759,1.659,9.041C24.26,43.686,26.271,45,28.96,45 c2.966,0,5.371-1.4,7.213-3.995c0.591,1.278,1.46,2.265,2.611,2.948C39.937,44.638,41.304,45,42.89,45 c3.591,0,6.453-1.413,8.58-4.205c2.127-2.792,3.293-6.562,3.497-11.311C55.168,24.567,54.441,20.255,52.782,16.545z M35.287,35.796 C33.933,38.748,32.027,40,29.806,40c-0.476,0-2.038-0.232-2.881-1.538c-0.84-1.301-1.074-3.034-0.826-5.559 c0.265-2.444,0.87-4.614,1.799-6.448c0.765-1.511,1.63-2.53,2.893-3.407C31.819,22.333,32.81,22,33.908,22 c1.056,0,2.1,0.201,3.064,0.524c0.724,0.242,1.065,1.002,0.968,1.759C37.545,27.341,37.083,31.878,35.287,35.796z"/></svg>