<svg xmlns="http://www.w3.org/2000/svg"  viewBox="0 0 64 64" width="50px" height="50px"><radialGradient id="tZ22JTidbO9JbrXmiRMDTa" cx="32" cy="32" r="30.537" gradientUnits="userSpaceOnUse" spreadMethod="reflect"><stop offset="0" stop-color="#f4e9c3"/><stop offset=".219" stop-color="#f8eecd"/><stop offset=".644" stop-color="#fdf4dc"/><stop offset="1" stop-color="#fff6e1"/></radialGradient><path fill="url(#tZ22JTidbO9JbrXmiRMDTa)" d="M64,24.025L64,24.025C64,21.25,61.75,19,58.975,19H54.5c-2.485,0-4.5-2.015-4.5-4.5v0 c0-2.485,2.015-4.5,4.5-4.5h1c1.933,0,3.5-1.567,3.5-3.5v0C59,4.567,57.433,3,55.5,3h-47C6.567,3,5,4.567,5,6.5v0 C5,8.433,6.567,10,8.5,10h1c2.485,0,4.5,2.015,4.5,4.5v0c0,2.485-2.015,4.5-4.5,4.5H4c-2.209,0-4,1.791-4,4v0c0,2.209,1.791,4,4,4 h2.5c1.933,0,3.5,1.567,3.5,3.5v0c0,1.933-1.567,3.5-3.499,3.5H6.499C3.462,34.001,1,36.463,1,39.5v0C1,42.538,3.462,45,6.5,45h4 c1.933,0,3.5,1.567,3.5,3.5v0c0,1.933-1.567,3.5-3.5,3.5h0C8.015,52,6,54.015,6,56.5v0c0,2.485,2.015,4.5,4.5,4.5h45 c2.485,0,4.5-2.015,4.5-4.5v0c0-2.485-2.015-4.5-4.5-4.5h-2.01C51.563,52,50,50.437,50,48.51v-0.001c0-1.927,1.563-3.49,3.49-3.49 h5.5c2.214,0,4.01-1.795,4.01-4.01v0c0-2.214-1.795-4.01-4.01-4.01h-1.02C55.777,37,54,35.223,54,33.03v-0.009 c0-2.193,1.777-3.97,3.97-3.97h1.005C61.75,29.051,64,26.801,64,24.025z M31,38h5v5h-5V38z"/><linearGradient id="tZ22JTidbO9JbrXmiRMDTb" x1="32" x2="32" y1="53.328" y2="9.433" gradientUnits="userSpaceOnUse" spreadMethod="reflect"><stop offset="0" stop-color="#155cde"/><stop offset=".278" stop-color="#1f7fe5"/><stop offset=".569" stop-color="#279ceb"/><stop offset=".82" stop-color="#2cafef"/><stop offset="1" stop-color="#2eb5f0"/></linearGradient><path fill="url(#tZ22JTidbO9JbrXmiRMDTb)" d="M34.47,17.138l21.892,25.607C57.793,44.419,56.604,47,54.402,47H9.598 c-2.202,0-3.391-2.581-1.96-4.255L29.53,17.138C30.827,15.621,33.173,15.621,34.47,17.138z"/><linearGradient id="tZ22JTidbO9JbrXmiRMDTc" x1="26.34" x2="26.34" y1="33.866" y2="18.866" gradientUnits="userSpaceOnUse" spreadMethod="reflect"><stop offset="0" stop-color="#3999ea"/><stop offset=".317" stop-color="#3ba0ec"/><stop offset="1" stop-color="#3facee"/></linearGradient><path fill="url(#tZ22JTidbO9JbrXmiRMDTc)" d="M28.73,21.73C28.28,22.18,28,22.81,28,23.5s0.28,1.32,0.73,1.77C29.18,25.72,29.81,26,30.5,26 s1.32,0.28,1.77,0.73C32.72,27.18,33,27.81,33,28.5c0,1.38-1.12,2.5-2.5,2.5H17.68l11.85-13.86C30.18,16.38,31.09,16,32,16 s1.82,0.38,2.47,1.14l0.33,0.38v0.01c0.13,0.3,0.2,0.63,0.2,0.97c0,1.38-1.12,2.5-2.5,2.5h-2C29.81,21,29.18,21.28,28.73,21.73z"/><linearGradient id="tZ22JTidbO9JbrXmiRMDTd" x1="39.992" x2="39.992" y1="50.096" y2="29.78" gradientUnits="userSpaceOnUse" spreadMethod="reflect"><stop offset="0" stop-color="#1664cf"/><stop offset=".281" stop-color="#1b75d7"/><stop offset=".707" stop-color="#2088e0"/><stop offset="1" stop-color="#228fe3"/></linearGradient><path fill="url(#tZ22JTidbO9JbrXmiRMDTd)" d="M54.4,47H32.5c-0.69,0-1.32-0.28-1.77-0.73C30.28,45.82,30,45.19,30,44.5 c0-1.38,1.12-2.5,2.5-2.5h7c0.69,0,1.32-0.28,1.77-0.73C41.72,40.82,42,40.19,42,39.5c0-1.38-1.12-2.5-2.5-2.5h-1 c-0.69,0-1.32-0.28-1.77-0.73C36.28,35.82,36,35.19,36,34.5c0-1.38,1.12-2.5,2.5-2.5h8.67l9.19,10.75C57.79,44.42,56.6,47,54.4,47z M25.5,47c1.381,0,2.5-1.119,2.5-2.5S26.881,42,25.5,42S23,43.119,23,44.5S24.119,47,25.5,47z"/></svg>