<svg xmlns="http://www.w3.org/2000/svg"  viewBox="0 0 64 64" width="50px" height="50px"><radialGradient id="E_xW8r4UcNyrbCEarMBLqa" cx="213.125" cy="289.333" r="195.624" gradientTransform="matrix(1 0 0 -1 0 66)" gradientUnits="userSpaceOnUse"><stop offset="0" stop-color="#eed7a2"/><stop offset=".106" stop-color="#f1dcab"/><stop offset=".437" stop-color="#f8e8c3"/><stop offset=".744" stop-color="#fcefd2"/><stop offset="1" stop-color="#fef2d7"/></radialGradient><path fill="url(#E_xW8r4UcNyrbCEarMBLqa)" d="M54.5,16H44.172c-2.089,0-3.955-1.527-4.153-3.607C39.791,10.008,41.661,8,44,8h7.828	c2.089,0,3.955-1.527,4.153-3.607C56.209,2.008,54.339,0,52,0H20.172c-2.089,0-3.955,1.527-4.153,3.607C15.791,5.992,17.661,8,20,8	h3.83c1.625,0,3.08,1.217,3.165,2.839C27.086,12.569,25.71,14,24,14H10c-1.657,0-3,1.343-3,3v1c0,1.657,1.343,3,3,3h2.888	c1.451,0,2.781,0.981,3.055,2.405c0.369,1.917-1.091,3.594-2.943,3.594H9.852C7.172,26.999,5,29.171,5,31.851v0.124	c0,2.787,2.237,5.026,4.999,5.024c3.294,0,7.001,0,7.001,0v5H9.172c-2.089,0-3.955,1.527-4.153,3.607	C4.791,47.991,6.661,49.999,9,49.999h5.408c1.67,0,3.187,1.133,3.518,2.77C18.381,55.021,16.672,57,14.5,57l-2.808,0.001	c-1.892,0.001-3.587,1.418-3.687,3.308c-0.107,2.019,1.492,3.69,3.487,3.69C17.29,64,25.886,64,33,64c2.179,0,4.224,0,6,0h6.302	c1.895,0,3.594-1.419,3.693-3.312C49.101,58.67,47.495,57,45.5,57h-0.304C43.431,57,42,55.569,42,53.804l0,0	c0-1.512,1.055-2.836,2.539-3.127C47.659,50.065,52,48.649,52,47c0-2.209-1.791-4-4-4h0.5c-1.381,0-2.5-1.119-2.5-2.5V40h2.828	c2.089,0,3.955-1.527,4.153-3.607C53.209,34.008,51.339,32,49,32h-1.302c-1.895,0-3.594-1.419-3.693-3.312	C43.899,26.67,45.505,25,47.5,25h6.806c2.35,0,4.449-1.718,4.673-4.057C59.235,18.259,57.131,16,54.5,16z"/><radialGradient id="E_xW8r4UcNyrbCEarMBLqb" cx="35.833" cy="93.917" r="25.535" gradientTransform="matrix(1 0 0 -1 0 66)" gradientUnits="userSpaceOnUse"><stop offset="0" stop-color="#eed7a2"/><stop offset=".106" stop-color="#f1dcab"/><stop offset=".437" stop-color="#f8e8c3"/><stop offset=".744" stop-color="#fcefd2"/><stop offset="1" stop-color="#fef2d7"/></radialGradient><circle cx="9" cy="4" r="4" fill="url(#E_xW8r4UcNyrbCEarMBLqb)"/><linearGradient id="E_xW8r4UcNyrbCEarMBLqc" x1="32" x2="32" y1="53.393" y2="-4.168" gradientTransform="matrix(1 0 0 -1 0 66)" gradientUnits="userSpaceOnUse"><stop offset="0" stop-color="#7ddefb"/><stop offset="1" stop-color="#3cb5ea"/></linearGradient><path fill="url(#E_xW8r4UcNyrbCEarMBLqc)" d="M60.01,45.98c0,3.32-2.68,6.01-6,6.01L21.84,52l-11.83,0.01c-0.62,0-1.22-0.09-1.78-0.27	c-0.75-0.24-1.45-0.62-2.05-1.11c-0.15-0.13-0.29-0.26-0.42-0.39c-0.68-0.68-1.19-1.51-1.48-2.44c-0.06-0.18-0.11-0.38-0.15-0.57	c-0.08-0.39-0.12-0.79-0.12-1.21L4,37v-8L3.99,18.02c0-3.32,2.68-6.01,6-6.01l44-0.02c3.31,0,6,2.68,6,5.99L60.01,45.98z"/><linearGradient id="E_xW8r4UcNyrbCEarMBLqd" x1="42.4" x2="42.4" y1="28.511" y2="49.022" gradientTransform="matrix(1 0 0 -1 0 66)" gradientUnits="userSpaceOnUse"><stop offset="0" stop-color="#2875e3"/><stop offset=".014" stop-color="#2876e3"/><stop offset=".588" stop-color="#2e88e7"/><stop offset="1" stop-color="#308ee8"/></linearGradient><path fill="url(#E_xW8r4UcNyrbCEarMBLqd)" d="M55,21v10c0,2.21-1.79,4-4,4H33.8c-2.21,0-4-1.79-4-4V21c0-2.21,1.79-4,4-4H51	C53.21,17,55,18.79,55,21z"/><linearGradient id="E_xW8r4UcNyrbCEarMBLqe" x1="14.502" x2="14.502" y1="37" y2="14" gradientTransform="matrix(1 0 0 -1 0 66)" gradientUnits="userSpaceOnUse"><stop offset="0" stop-color="#96e5fc"/><stop offset="1" stop-color="#75d0f3"/></linearGradient><path fill="url(#E_xW8r4UcNyrbCEarMBLqe)" d="M25,49.16C24.91,50.78,23.46,52,21.84,52H10c-0.62,0-1.21-0.09-1.77-0.26	c-0.75-0.24-1.45-0.62-2.05-1.11c-0.14-0.12-0.28-0.25-0.42-0.39c-0.68-0.68-1.19-1.51-1.48-2.44c-0.06-0.18-0.11-0.38-0.15-0.57	C4.04,46.83,4,46.42,4,46V29h6.878c0.997,0,1.928,0.675,2.093,1.658C13.181,31.907,12.212,33,11,33h-1c-1.105,0-2,0.895-2,2l0,0	c0,1.105,0.895,2,2,2h6.36c1.311,0,2.506,0.946,2.631,2.251C19.134,40.746,17.966,42,16.5,42h-2.378	c-0.997,0-1.928,0.675-2.093,1.658C11.819,44.907,12.788,46,14,46h8C23.71,46,25.08,47.42,25,49.16z"/><linearGradient id="E_xW8r4UcNyrbCEarMBLqf" x1="35.32" x2="35.32" y1="14.511" y2="59.705" gradientTransform="matrix(1 0 0 -1 0 66)" gradientUnits="userSpaceOnUse"><stop offset="0" stop-color="#155cde"/><stop offset=".278" stop-color="#1f7fe5"/><stop offset=".569" stop-color="#279ceb"/><stop offset=".82" stop-color="#2cafef"/><stop offset="1" stop-color="#2eb5f0"/></linearGradient><path fill="url(#E_xW8r4UcNyrbCEarMBLqf)" d="M34.43,27.59c-0.37,0.36-0.59,0.86-0.59,1.41c0,1.1,0.9,2,2,2h2c0.55,0,1.05,0.22,1.41,0.59	c0.37,0.36,0.59,0.86,0.59,1.41c0,1.1-0.9,2-2,2H33.8c-2.21,0-4-1.79-4-4V21c0-2.21,1.79-4,4-4h6.04c0,1.1-0.9,2-2,2	c-0.55,0-1.05,0.22-1.41,0.59c-0.37,0.36-0.59,0.86-0.59,1.41c0,1.1,0.9,2,2,2h1c0.55,0,1.05,0.22,1.41,0.59	c0.37,0.36,0.59,0.86,0.59,1.41c0,1.1-0.9,2-2,2h-3C35.29,27,34.79,27.22,34.43,27.59z"/></svg>