<svg xmlns="http://www.w3.org/2000/svg"  viewBox="0 0 64 64" width="50px" height="50px"><radialGradient id="5ht56uZ9tsu7Mrx1LLr8na" cx="32" cy="31.5" r="31.259" gradientUnits="userSpaceOnUse" spreadMethod="reflect"><stop offset="0" stop-color="#c5f1ff"/><stop offset=".35" stop-color="#cdf3ff"/><stop offset=".907" stop-color="#e4faff"/><stop offset="1" stop-color="#e9fbff"/></radialGradient><path fill="url(#5ht56uZ9tsu7Mrx1LLr8na)" d="M46,6l2.357,0c1.308,0,2.499-0.941,2.63-2.242C51.137,2.261,49.966,1,48.5,1L15.643,1 c-1.308,0-2.499,0.941-2.63,2.242C12.863,4.739,14.034,6,15.5,6h3.393c0.996,0,1.92,0.681,2.08,1.664C21.176,8.917,20.215,10,19,10 L6.189,10c-2.086,0-3.958,1.514-4.168,3.59C1.78,15.972,3.665,18,6,18l2.302,0c1.895,0,3.594,1.419,3.693,3.312 C12.101,23.33,10.495,25,8.5,25l-4.311,0c-2.086,0-3.958,1.514-4.168,3.59C-0.22,30.972,1.665,33,4,33h18v11H6.131 c-1.451,0-2.789,0.972-3.071,2.395C2.681,48.307,4.152,50,6,50h0c1.215,0,2.176,1.083,1.973,2.336C7.813,53.319,6.889,54,5.893,54 H4.189c-2.086,0-3.958,1.514-4.168,3.59C-0.22,59.972,1.665,62,4,62l53.811,0c2.009,0,3.841-1.398,4.142-3.385 c0.368-2.434-1.497-4.553-3.85-4.614c-0.809-0.021-1.608-0.396-1.923-1.141C55.564,51.401,56.618,50,58,50l2.386,0 c1.67,0,3.195-1.122,3.537-2.757C64.392,44.998,62.668,43,60.5,43l-4.357,0c-1.308,0-2.499-0.941-2.63-2.242 C53.363,39.261,54.534,38,56,38l0,0c1.848,0,3.319-1.693,2.94-3.605C58.657,32.972,57.32,32,55.869,32H42v-3h18 c2.335,0,4.22-2.028,3.979-4.41c-0.21-2.075-2.082-3.59-4.168-3.59L53.5,21c-1.381,0-2.5-1.119-2.5-2.5v0c0-1.381,1.119-2.5,2.5-2.5 H57c1.657,0,3-1.343,3-3v0c0-1.657-1.343-3-3-3H46c-1.105,0-2-0.895-2-2v0C44,6.895,44.895,6,46,6z"/><linearGradient id="5ht56uZ9tsu7Mrx1LLr8nb" x1="25" x2="25" y1="13.805" y2="45.805" gradientUnits="userSpaceOnUse" spreadMethod="reflect"><stop offset="0" stop-color="#42d778"/><stop offset=".428" stop-color="#3dca76"/><stop offset="1" stop-color="#34b171"/></linearGradient><path fill="url(#5ht56uZ9tsu7Mrx1LLr8nb)" d="M41,16H9c-2.209,0-4,1.791-4,4v24c0,2.209,1.791,4,4,4h32c2.209,0,4-1.791,4-4V20 C45,17.791,43.209,16,41,16z"/><linearGradient id="5ht56uZ9tsu7Mrx1LLr8nc" x1="52" x2="52" y1="41.557" y2="13.557" gradientUnits="userSpaceOnUse" spreadMethod="reflect"><stop offset="0" stop-color="#31995f"/><stop offset=".093" stop-color="#329e62"/><stop offset=".666" stop-color="#39ba71"/><stop offset="1" stop-color="#3bc477"/></linearGradient><path fill="url(#5ht56uZ9tsu7Mrx1LLr8nc)" d="M56.74,18h-0.005c-0.478,0-0.943,0.151-1.329,0.432L45,26v12l10.406,7.568 C55.792,45.849,56.257,46,56.735,46h0.005c1.248,0,2.26-1.012,2.26-2.26V20.26C59,19.012,57.988,18,56.74,18z"/><linearGradient id="5ht56uZ9tsu7Mrx1LLr8nd" x1="32" x2="32" y1="7.029" y2="56.971" gradientUnits="userSpaceOnUse" spreadMethod="reflect"><stop offset="0" stop-color="#a4a4a4"/><stop offset=".63" stop-color="#7f7f7f"/><stop offset="1" stop-color="#6f6f6f"/><stop offset="1" stop-color="#6f6f6f"/></linearGradient><path fill="url(#5ht56uZ9tsu7Mrx1LLr8nd)" d="M51,55.95L8.05,13c-1.361-1.361-1.361-3.589,0-4.95l0,0c1.361-1.361,3.589-1.361,4.95,0 L55.95,51c1.361,1.361,1.361,3.589,0,4.95l0,0C54.589,57.311,52.361,57.311,51,55.95z"/></svg>