<svg xmlns="http://www.w3.org/2000/svg"  viewBox="0 0 64 64" width="50px" height="50px"><radialGradient id="0s9AHyobNDm8hduiB_Ah9a" cx="-117.362" cy="41.791" r="180.784" gradientUnits="userSpaceOnUse" spreadMethod="reflect"><stop offset="0" stop-color="#f5e3a5"/><stop offset=".25" stop-color="#f8e9b6"/><stop offset=".724" stop-color="#fcf2d2"/><stop offset="1" stop-color="#fef5dc"/></radialGradient><path fill="url(#0s9AHyobNDm8hduiB_Ah9a)" d="M59.5,33h-4.401c-0.982,0-1.893-0.663-2.066-1.63C53.011,31.244,53,31.119,53,30.996 c0.002-1.06,0.829-1.927,1.873-1.992c1.515-0.095,2.906-1.098,3.101-2.604C57.991,26.264,58,26.13,58,25.997 C57.998,24.342,56.656,23,55,23h-5v-4.941c0.626-0.641,1.492-1.047,2.456-1.059c0.001,0,0.002,0,0.003,0c0.004,0,0.007,0,0.01,0 c0.001,0,0.003,0,0.004,0c0.003,0,0.007,0,0.01,0c0.001,0,0.002,0,0.004,0c0.005,0,0.009,0,0.013,0h1.802 c1.884,0,3.574-1.402,3.691-3.278c0.001-0.011,0.001-0.022,0.002-0.033C57.998,13.625,58,13.563,58,13.5c0-1.933-1.567-3.5-3.5-3.5 H47h-6l7,7H14v-3h-2.302c-1.896,0-3.594,1.419-3.693,3.311c-0.001,0.024-0.002,0.047-0.003,0.071C7.937,19.369,9.528,21,11.5,21H14 v7H9c-1.381,0-2.5,1.119-2.5,2.5S7.619,33,9,33h0.5c1.381,0,2.5,1.119,2.5,2.5c0,1.381-1.119,2.5-2.5,2.5H4.17 c-1.625,0-3.081,1.217-3.166,2.839C1.002,40.893,1,40.947,1,41c0,1.656,1.343,3,3,3h4.893c0.996,0,1.919,0.681,2.08,1.664 C10.991,45.777,11,45.888,11,45.997C11.001,47.103,10.106,48,9,48H8.17c-1.624,0-3.081,1.217-3.165,2.839 C5.002,50.893,5,50.947,5,51c0,1.656,1.343,3,3,3h6v-2l18-11l18,11h4.83c1.57,0,3.083-1.271,3.165-2.839 C58.086,47.431,56.71,46,55,46h-0.013c-0.006,0-0.011,0-0.017,0c-0.777,0-1.539-0.254-2.078-0.768 c-0.17-0.162-0.318-0.35-0.438-0.564C51.166,42.35,52.809,40,55,40h4.302c1.896,0,3.595-1.42,3.693-3.313 C63.1,34.669,61.495,33,59.5,33z"/><radialGradient id="0s9AHyobNDm8hduiB_Ah9b" cx="-9.546" cy="31.613" r="14.612" gradientUnits="userSpaceOnUse" spreadMethod="reflect"><stop offset="0" stop-color="#f5e3a5"/><stop offset=".25" stop-color="#f8e9b6"/><stop offset=".724" stop-color="#fcf2d2"/><stop offset="1" stop-color="#fef5dc"/></radialGradient><path fill="url(#0s9AHyobNDm8hduiB_Ah9b)" d="M5,30.5C5,29.119,3.881,28,2.5,28C1.119,28,0,29.119,0,30.5S1.119,33,2.5,33 C3.881,33,5,31.881,5,30.5z"/><linearGradient id="0s9AHyobNDm8hduiB_Ah9c" x1="32" x2="32" y1="56.969" y2="10" gradientUnits="userSpaceOnUse" spreadMethod="reflect"><stop offset="0" stop-color="#ff634d"/><stop offset=".204" stop-color="#fe6464"/><stop offset=".521" stop-color="#fc6581"/><stop offset=".794" stop-color="#fa6694"/><stop offset=".989" stop-color="#fa669a"/><stop offset="1" stop-color="#fa669a"/></linearGradient><path fill="url(#0s9AHyobNDm8hduiB_Ah9c)" d="M47.08,56.969L47.08,56.969c-0.697,0-1.371-0.249-1.9-0.703l-11.064-9.484 c-1.217-1.043-3.014-1.043-4.231,0L18.82,56.266c-0.529,0.454-1.203,0.703-1.9,0.703h0c-1.613,0-2.92-1.307-2.92-2.92V14 c0-2.209,1.791-4,4-4h28c2.209,0,4,1.791,4,4v40.049C50,55.662,48.693,56.969,47.08,56.969z"/></svg>