<svg xmlns="http://www.w3.org/2000/svg"  viewBox="0 0 64 64" width="50px" height="50px"><radialGradient id="nLKzCiJpCjrL788gJ5Eeha" cx="32.5" cy="31.5" r="31.004" gradientUnits="userSpaceOnUse" spreadMethod="reflect"><stop offset="0" stop-color="#f4e9c3"/><stop offset=".219" stop-color="#f8eecd"/><stop offset=".644" stop-color="#fdf4dc"/><stop offset="1" stop-color="#fff6e1"/></radialGradient><path fill="url(#nLKzCiJpCjrL788gJ5Eeha)" d="M60,54c-1.105,0-2-0.895-2-2c0-1.105,0.895-2,2-2h0.5c1.925,0,3.5-1.575,3.5-3.5 S62.425,43,60.5,43H50c-1.381,0-2.5-1.119-2.5-2.5c0-1.381,1.119-2.5,2.5-2.5h8c1.65,0,3-1.35,3-3c0-1.65-1.35-3-3-3H42v-6h18 c2.335,0,4.22-2.028,3.979-4.41C63.77,19.514,61.897,18,59.811,18H58c-1.105,0-2-0.895-2-2c0-1.105,0.895-2,2-2h0.357 c1.308,0,2.499-0.941,2.63-2.242C61.137,10.261,59.966,9,58.5,9h-13C44.672,9,44,8.328,44,7.5S44.672,6,45.5,6h3.857 c1.308,0,2.499-0.941,2.63-2.242C52.137,2.261,50.966,1,49.5,1L15.643,1c-1.308,0-2.499,0.941-2.63,2.242 C12.863,4.739,14.034,6,15.5,6H19c1.105,0,2,0.895,2,2c0,1.105-0.895,2-2,2H6.189c-2.086,0-3.958,1.514-4.168,3.59 C1.78,15.972,3.665,18,6,18h2.5c1.933,0,3.5,1.567,3.5,3.5c0,1.933-1.567,3.5-3.5,3.5H5.189c-2.086,0-3.958,1.514-4.168,3.59 C0.78,30.972,2.665,33,5,33h17v11h-9c-1.65,0-3,1.35-3,3c0,1.65,1.35,3,3,3h0c1.105,0,2,0.895,2,2c0,1.105-0.895,2-2,2h-1.811 c-2.086,0-3.958,1.514-4.168,3.59C6.78,59.972,8.665,62,11,62h48.811c2.086,0,3.958-1.514,4.168-3.59C64.22,56.028,62.335,54,60,54z"/><linearGradient id="nLKzCiJpCjrL788gJ5Eehb" x1="25" x2="25" y1="36.229" y2="1.548" gradientUnits="userSpaceOnUse" spreadMethod="reflect"><stop offset="0" stop-color="#3cb5ea"/><stop offset="1" stop-color="#7ddefb"/></linearGradient><path fill="url(#nLKzCiJpCjrL788gJ5Eehb)" d="M11,8h28c1.657,0,3,1.343,3,3v22c0,1.657-1.343,3-3,3H11c-1.657,0-3-1.343-3-3V11 C8,9.343,9.343,8,11,8z"/><linearGradient id="nLKzCiJpCjrL788gJ5Eehc" x1="32" x2="32" y1="29.229" y2="8.096" gradientUnits="userSpaceOnUse" spreadMethod="reflect"><stop offset="0" stop-color="#155cde"/><stop offset=".278" stop-color="#1f7fe5"/><stop offset=".569" stop-color="#279ceb"/><stop offset=".82" stop-color="#2cafef"/><stop offset="1" stop-color="#2eb5f0"/></linearGradient><path fill="url(#nLKzCiJpCjrL788gJ5Eehc)" d="M28.5,20h7c0.828,0,1.5,0.672,1.5,1.5v6c0,0.828-0.672,1.5-1.5,1.5h-7 c-0.828,0-1.5-0.672-1.5-1.5v-6C27,20.672,27.672,20,28.5,20z"/><linearGradient id="nLKzCiJpCjrL788gJ5Eehd" x1="18" x2="18" y1="29.229" y2="8.793" gradientUnits="userSpaceOnUse" spreadMethod="reflect"><stop offset="0" stop-color="#155cde"/><stop offset=".278" stop-color="#1f7fe5"/><stop offset=".569" stop-color="#279ceb"/><stop offset=".82" stop-color="#2cafef"/><stop offset="1" stop-color="#2eb5f0"/></linearGradient><path fill="url(#nLKzCiJpCjrL788gJ5Eehd)" d="M14.5,20h7c0.828,0,1.5,0.672,1.5,1.5v6c0,0.828-0.672,1.5-1.5,1.5h-7 c-0.828,0-1.5-0.672-1.5-1.5v-6C13,20.672,13.672,20,14.5,20z"/><linearGradient id="nLKzCiJpCjrL788gJ5Eehe" x1="25" x2="25" y1="15.452" y2="-4.753" gradientUnits="userSpaceOnUse" spreadMethod="reflect"><stop offset="0" stop-color="#155cde"/><stop offset=".278" stop-color="#1f7fe5"/><stop offset=".569" stop-color="#279ceb"/><stop offset=".82" stop-color="#2cafef"/><stop offset="1" stop-color="#2eb5f0"/></linearGradient><path fill="url(#nLKzCiJpCjrL788gJ5Eehe)" d="M11,8h28c1.657,0,3,1.343,3,3v3H8v-3C8,9.343,9.343,8,11,8z"/><linearGradient id="nLKzCiJpCjrL788gJ5Eehf" x1="39" x2="39" y1="37.783" y2="74.475" gradientUnits="userSpaceOnUse" spreadMethod="reflect"><stop offset="0" stop-color="#42d778"/><stop offset=".996" stop-color="#34b171"/></linearGradient><path fill="url(#nLKzCiJpCjrL788gJ5Eehf)" d="M25,28h28c1.657,0,3,1.343,3,3v22c0,1.657-1.343,3-3,3H25c-1.657,0-3-1.343-3-3V31 C22,29.343,23.343,28,25,28z"/><linearGradient id="nLKzCiJpCjrL788gJ5Eehg" x1="46" x2="46" y1="46.631" y2="25.914" gradientUnits="userSpaceOnUse" spreadMethod="reflect"><stop offset="0" stop-color="#31995f"/><stop offset=".093" stop-color="#329e62"/><stop offset=".666" stop-color="#39ba71"/><stop offset="1" stop-color="#3bc477"/></linearGradient><path fill="url(#nLKzCiJpCjrL788gJ5Eehg)" d="M42.5,40h7c0.828,0,1.5,0.672,1.5,1.5v6c0,0.828-0.672,1.5-1.5,1.5h-7 c-0.828,0-1.5-0.672-1.5-1.5v-6C41,40.672,41.672,40,42.5,40z"/><linearGradient id="nLKzCiJpCjrL788gJ5Eehh" x1="32" x2="32" y1="46.554" y2="26.114" gradientUnits="userSpaceOnUse" spreadMethod="reflect"><stop offset="0" stop-color="#31995f"/><stop offset=".093" stop-color="#329e62"/><stop offset=".666" stop-color="#39ba71"/><stop offset="1" stop-color="#3bc477"/></linearGradient><path fill="url(#nLKzCiJpCjrL788gJ5Eehh)" d="M28.5,40h7c0.828,0,1.5,0.672,1.5,1.5v6c0,0.828-0.672,1.5-1.5,1.5h-7 c-0.828,0-1.5-0.672-1.5-1.5v-6C27,40.672,27.672,40,28.5,40z"/><linearGradient id="nLKzCiJpCjrL788gJ5Eehi" x1="39" x2="39" y1="34" y2="11.349" gradientUnits="userSpaceOnUse" spreadMethod="reflect"><stop offset="0" stop-color="#31995f"/><stop offset=".093" stop-color="#329e62"/><stop offset=".666" stop-color="#39ba71"/><stop offset="1" stop-color="#3bc477"/></linearGradient><path fill="url(#nLKzCiJpCjrL788gJ5Eehi)" d="M25,28h28c1.657,0,3,1.343,3,3v3H22v-3C22,29.343,23.343,28,25,28z"/></svg>