<svg xmlns="http://www.w3.org/2000/svg"  viewBox="0 0 64 64" width="50px" height="50px"><radialGradient id="0Y9S5n4XNfd0iciqMf7uGa" cx="32.5" cy="32" r="28.881" gradientUnits="userSpaceOnUse" spreadMethod="reflect"><stop offset="0" stop-color="#afeeff"/><stop offset=".193" stop-color="#bbf1ff"/><stop offset=".703" stop-color="#d7f8ff"/><stop offset="1" stop-color="#e1faff"/></radialGradient><path fill="url(#0Y9S5n4XNfd0iciqMf7uGa)" d="M53,34h5.241c2.868,0,5.442-2.082,5.731-4.936C64.303,25.789,61.711,23,58.5,23l-13.33,0 c-1.624,0-3.081-1.216-3.165-2.839C41.914,18.431,43.29,17,45,17l0.241,0c2.868,0,5.442-2.082,5.731-4.936 C51.303,8.789,48.711,6,45.5,6H33h-7.5H12c-3.038,0-5.5,2.462-5.5,5.5v0c0,3.038,2.462,5.5,5.5,5.5h2c1.105,0,2,0.895,2,2v0 c0,1.105-0.895,2-2,2l-8.288,0c-2.347,0-4.453,1.704-4.689,4.038C0.752,27.718,2.873,30,5.5,30l6.33,0 c1.624,0,3.081,1.216,3.165,2.839C15.086,34.569,13.71,36,12,36H7.712c-2.347,0-4.453,1.704-4.689,4.038 C2.753,42.718,4.873,45,7.5,45h1.393c0.996,0,1.92,0.681,2.08,1.664C11.176,47.917,10.215,49,9,49H7.712 c-2.347,0-4.453,1.704-4.689,4.038C2.752,55.718,4.873,58,7.5,58h24c0.086,0,0.166-0.021,0.25-0.025C31.834,57.982,31.914,58,32,58 l17.386,0c1.67,0,3.195-1.122,3.537-2.757C53.392,52.998,51.668,51,49.5,51h-5.393c-0.996,0-1.92-0.681-2.08-1.664 C41.824,48.083,42.785,47,44,47l12.288,0c2.347,0,4.453-1.704,4.689-4.039C61.247,40.282,59.127,38,56.5,38h-3.393 c-0.996,0-1.92-0.681-2.08-1.664C50.824,35.083,51.785,34,53,34z"/><linearGradient id="0Y9S5n4XNfd0iciqMf7uGb" x1="32" x2="32" y1="61" y2="-10.028" gradientUnits="userSpaceOnUse" spreadMethod="reflect"><stop offset="0" stop-color="#feaa53"/><stop offset=".612" stop-color="#ffcd49"/><stop offset="1" stop-color="#ffde44"/></linearGradient><path fill="url(#0Y9S5n4XNfd0iciqMf7uGb)" d="M22.73,60.86L22.73,60.86c0.577,0.288,1.278,0.118,1.658-0.403L46.79,29.772 c0.32-0.445,0.27-1.057-0.117-1.444v0C46.462,28.118,46.178,28,45.881,28H33l9.9-23.193c0.203-0.488,0.092-1.051-0.282-1.424v0 C42.373,3.137,42.041,3,41.695,3H27.89c-0.57,0-1.116,0.226-1.519,0.629v0c-0.244,0.244-0.425,0.542-0.529,0.87l-8.779,27.699 c-0.153,0.493-0.02,1.029,0.344,1.394h0C17.667,33.854,18.021,34,18.389,34H30l-7.941,25.291 C21.869,59.908,22.153,60.572,22.73,60.86z"/><linearGradient id="0Y9S5n4XNfd0iciqMf7uGc" x1="31" x2="31" y1="9" y2="58.971" gradientUnits="userSpaceOnUse" spreadMethod="reflect"><stop offset="0" stop-color="#a4a4a4"/><stop offset=".63" stop-color="#7f7f7f"/><stop offset="1" stop-color="#6f6f6f"/><stop offset="1" stop-color="#6f6f6f"/></linearGradient><path fill="url(#0Y9S5n4XNfd0iciqMf7uGc)" d="M50,57.95L7.05,14.971c-1.361-1.361-1.361-3.589,0-4.95l0,0c1.361-1.361,3.589-1.361,4.95,0 L54.95,53c1.361,1.361,1.361,3.589,0,4.95l0,0C53.589,59.311,51.361,59.311,50,57.95z"/></svg>