<svg xmlns="http://www.w3.org/2000/svg"  viewBox="0 0 64 64" width="50px" height="50px"><radialGradient id="JFS0A3Z3KQueX6DDsR~gea" cx="32" cy="30.5" r="31.259" gradientUnits="userSpaceOnUse"><stop offset="0" stop-color="#c5f1ff"/><stop offset=".35" stop-color="#cdf3ff"/><stop offset=".907" stop-color="#e4faff"/><stop offset="1" stop-color="#e9fbff"/></radialGradient><path fill="url(#JFS0A3Z3KQueX6DDsR~gea)" d="M58,53c-1.105,0-2-0.895-2-2c0-1.105,0.895-2,2-2h2.5c1.925,0,3.5-1.575,3.5-3.5	S62.425,42,60.5,42H50c-1.381,0-2.5-1.119-2.5-2.5c0-1.381,1.119-2.5,2.5-2.5h8c1.65,0,3-1.35,3-3c0-1.65-1.35-3-3-3H42v-6h18	c2.335,0,4.22-2.028,3.979-4.41C63.77,18.514,61.897,17,59.811,17H58c-1.105,0-2-0.895-2-2c0-1.105,0.895-2,2-2h0.357	c1.308,0,2.499-0.941,2.63-2.242C61.137,9.261,59.966,8,58.5,8h-14C43.672,8,43,7.328,43,6.5S43.672,5,44.5,5h3.857	c1.308,0,2.499-0.941,2.63-2.242C51.137,1.261,49.966,0,48.5,0L15.643,0c-1.308,0-2.499,0.941-2.63,2.242	C12.863,3.739,14.034,5,15.5,5H19c1.105,0,2,0.895,2,2c0,1.105-0.895,2-2,2H6.189c-2.086,0-3.958,1.514-4.168,3.59	C1.78,14.972,3.665,17,6,17h2.5c1.933,0,3.5,1.567,3.5,3.5c0,1.933-1.567,3.5-3.5,3.5H5.189c-2.086,0-3.958,1.514-4.168,3.59	C0.78,29.972,2.665,32,5,32h17v11H6c-1.65,0-3,1.35-3,3c0,1.65,1.35,3,3,3h0c1.105,0,2,0.895,2,2c0,1.105-0.895,2-2,2H4.189	c-2.086,0-3.958,1.514-4.168,3.59C-0.22,58.972,1.665,61,4,61h53.811c2.086,0,3.958-1.514,4.168-3.59C62.22,55.028,60.335,53,58,53z"/><linearGradient id="JFS0A3Z3KQueX6DDsR~geb" x1="32" x2="32" y1="60.521" y2="16.521" gradientUnits="userSpaceOnUse"><stop offset="0" stop-color="#155cde"/><stop offset=".278" stop-color="#1f7fe5"/><stop offset=".569" stop-color="#279ceb"/><stop offset=".82" stop-color="#2cafef"/><stop offset="1" stop-color="#2eb5f0"/></linearGradient><path fill="url(#JFS0A3Z3KQueX6DDsR~geb)" d="M50,11H14c-2.209,0-4,1.791-4,4v36c0,2.209,1.791,4,4,4h36c2.209,0,4-1.791,4-4V15	C54,12.791,52.209,11,50,11z"/><path fill="#fff" d="M42.902,42.529C45.135,39.978,46.5,36.649,46.5,33c0-7.995-6.505-14.5-14.5-14.5S17.5,25.005,17.5,33	S24.005,47.5,32,47.5c2.484,0,4.823-0.629,6.868-1.735l0.537,0.586C39.784,46.765,40.319,47,40.88,47h3.847	c0.87,0,1.325-1.034,0.737-1.676L42.902,42.529z M32,41.5c-4.687,0-8.5-3.813-8.5-8.5s3.813-8.5,8.5-8.5s8.5,3.813,8.5,8.5	c0,1.899-0.634,3.648-1.69,5.065l-2.215-2.417C36.216,35.235,35.681,35,35.12,35h-3.847c-0.87,0-1.325,1.034-0.737,1.676	l4.051,4.419C33.77,41.356,32.902,41.5,32,41.5z"/></svg>