<svg xmlns="http://www.w3.org/2000/svg"  viewBox="0 0 64 64" width="50px" height="50px"><radialGradient id="kj8dYXlchqC4WQHu9opfva" cx="32" cy="32" r="33.002" gradientUnits="userSpaceOnUse" spreadMethod="reflect"><stop offset="0" stop-color="#f4e09d"/><stop offset=".226" stop-color="#f8e8b5"/><stop offset=".513" stop-color="#fcf0cd"/><stop offset=".778" stop-color="#fef4dc"/><stop offset="1" stop-color="#fff6e1"/></radialGradient><path fill="url(#kj8dYXlchqC4WQHu9opfva)" d="M55.454,45.668c0.5,0.898,1.504,1.337,2.532,1.332c1.75-0.008,3.153,1.483,3.002,3.262 C60.855,51.838,59.434,53,57.852,53L48,53v1H26h-8H7c-1.71,0-3.086-1.431-2.996-3.161C4.089,49.216,5.545,48,7.17,48L8,48 c1.215,0,2.176-1.083,1.973-2.336C9.813,44.681,8.889,44,7.893,44L3,44c-1.71,0-3.086-1.431-2.996-3.161 C0.089,39.216,1.545,38,3.17,38l6.33,0c1.381,0,2.5-1.119,2.5-2.5v0c0-1.381-1.119-2.5-2.5-2.5h0C8.119,33,7,31.881,7,30.5v0 C7,29.119,8.119,28,9.5,28H18v-7h-7.5c-1.995,0-3.601-1.67-3.495-3.688C7.104,15.419,8.803,14,10.698,14L18,14v-4h24h6h8.5 c1.995,0,3.601,1.67,3.495,3.688C59.896,15.581,58.197,17,56.302,17L53.5,17c-1.995,0-3.601,1.67-3.495,3.688 C50.104,22.581,51.803,24,53.698,24L56,24c1.777,0,3.194,1.546,2.978,3.366c-0.179,1.509-1.546,2.572-3.064,2.635 c-1.197,0.05-2.122,1.153-1.874,2.406C54.228,33.355,55.123,34,56.089,34H60.5c1.995,0,3.601,1.67,3.495,3.688 C63.896,39.581,62.197,41,60.302,41L58,41C55.808,41,54.166,43.35,55.454,45.668z M2.5,33L2.5,33C3.881,33,5,31.881,5,30.5v0 C5,29.119,3.881,28,2.5,28h0C1.119,28,0,29.119,0,30.5v0C0,31.881,1.119,33,2.5,33z"/><linearGradient id="kj8dYXlchqC4WQHu9opfvb" x1="33" x2="33" y1="58" y2="6" gradientUnits="userSpaceOnUse" spreadMethod="reflect"><stop offset="0" stop-color="#41bfec"/><stop offset=".235" stop-color="#4cc5ef"/><stop offset=".651" stop-color="#6bd4f6"/><stop offset="1" stop-color="#89e4fd"/></linearGradient><path fill="url(#kj8dYXlchqC4WQHu9opfvb)" d="M50,58H16c-1.657,0-3-1.343-3-3V9c0-1.657,1.343-3,3-3h20.757 c0.796,0,1.559,0.316,2.121,0.879l13.243,13.243C52.684,20.684,53,21.447,53,22.243V55C53,56.657,51.657,58,50,58z"/><linearGradient id="kj8dYXlchqC4WQHu9opfvc" x1="38.879" x2="46.454" y1="20.121" y2="12.546" gradientUnits="userSpaceOnUse" spreadMethod="reflect"><stop offset="0" stop-color="#c7effd"/><stop offset=".369" stop-color="#b8ecfd"/><stop offset="1" stop-color="#95e5fd"/></linearGradient><path fill="url(#kj8dYXlchqC4WQHu9opfvc)" d="M52.121,20.122L38.878,6.879c-0.255-0.255-0.556-0.452-0.878-0.6V18c0,1.657,1.343,3,3,3 h11.721C52.574,20.678,52.377,20.377,52.121,20.122z"/><linearGradient id="kj8dYXlchqC4WQHu9opfvd" x1="45.5" x2="45.5" y1="24.083" y2="18.083" gradientUnits="userSpaceOnUse" spreadMethod="reflect"><stop offset="0" stop-color="#42c6ee"/><stop offset=".534" stop-color="#3bc3ed"/><stop offset="1" stop-color="#31bfeb"/></linearGradient><path fill="url(#kj8dYXlchqC4WQHu9opfvd)" d="M41,21c-1.657,0-3-1.343-3-3v3c0,1.657,1.343,3,3,3h12v-1.757 c0-0.434-0.102-0.855-0.279-1.243H41z"/><linearGradient id="kj8dYXlchqC4WQHu9opfve" x1="33" x2="33" y1="55.734" y2="17.447" gradientUnits="userSpaceOnUse" spreadMethod="reflect"><stop offset="0" stop-color="#155cde"/><stop offset=".201" stop-color="#1868e0"/><stop offset=".564" stop-color="#2187e7"/><stop offset="1" stop-color="#2eb5f0"/></linearGradient><path fill="url(#kj8dYXlchqC4WQHu9opfve)" d="M24,45.001c-0.544,0-1.085-0.221-1.48-0.654l-5-5.5c-0.693-0.764-0.693-1.928,0-2.691l5-5.5 c0.742-0.816,2.008-0.878,2.825-0.134c0.817,0.742,0.877,2.008,0.135,2.825l-3.777,4.154l3.777,4.154 c0.743,0.817,0.683,2.083-0.135,2.825C24.962,44.829,24.48,45.001,24,45.001z M43.48,44.346l5-5.5c0.693-0.764,0.693-1.928,0-2.691 l-5-5.5c-0.744-0.816-2.008-0.878-2.825-0.134c-0.817,0.742-0.877,2.008-0.135,2.825l3.777,4.154l-3.777,4.154 c-0.743,0.817-0.683,2.083,0.135,2.825c0.383,0.349,0.865,0.521,1.345,0.521C42.543,45.001,43.085,44.78,43.48,44.346z M31.923,48.551l6-21c0.304-1.063-0.312-2.169-1.374-2.473c-1.061-0.305-2.169,0.312-2.472,1.373l-6,21 c-0.304,1.063,0.312,2.169,1.374,2.473c0.184,0.053,0.368,0.078,0.55,0.078C30.871,50.002,31.672,49.428,31.923,48.551z"/></svg>