<svg xmlns="http://www.w3.org/2000/svg"  viewBox="0 0 48 48" width="50px" height="50px"><linearGradient id="056Sxi48ecyXRTKfmKttea" x1="-1746" x2="-1746" y1="-2926.877" y2="-2932.902" gradientTransform="rotate(180 -861 -1445.945)" gradientUnits="userSpaceOnUse"><stop offset="0" stop-color="#a1aab3"/><stop offset="1" stop-color="#8f979e"/></linearGradient><path fill="url(#056Sxi48ecyXRTKfmKttea)" d="M14,38v-3h20v3l13,0.521V40c0,0.6-0.4,1-1,1H2c-0.6,0-1-0.4-1-1v-1.4L14,38z"/><linearGradient id="056Sxi48ecyXRTKfmKtteb" x1="8.364" x2="38.396" y1="-2899.198" y2="-2924.536" gradientTransform="matrix(1 0 0 -1 0 -2891.89)" gradientUnits="userSpaceOnUse"><stop offset="0" stop-color="#a1aab3"/><stop offset="1" stop-color="#8f979e"/></linearGradient><path fill="url(#056Sxi48ecyXRTKfmKtteb)" d="M42,34H6c-1.1,0-2-0.9-2-2V9c0-1.1,0.9-2,2-2h36c1.1,0,2,0.9,2,2v23C44,33.1,43.1,34,42,34z"/><radialGradient id="056Sxi48ecyXRTKfmKttec" cx="234.462" cy="-3657.517" r="97.034" gradientTransform="matrix(.8095 0 0 -.7188 -141.356 -2572.169)" gradientUnits="userSpaceOnUse"><stop offset=".323" stop-color="#23d9d6"/><stop offset=".427" stop-color="#23d4d7"/><stop offset=".542" stop-color="#21c7dc"/><stop offset=".664" stop-color="#1fb0e2"/><stop offset=".789" stop-color="#1c91ec"/><stop offset=".917" stop-color="#1969f8"/><stop offset=".944" stop-color="#1860fb"/></radialGradient><rect width="36" height="23" x="6" y="9" fill="url(#056Sxi48ecyXRTKfmKttec)"/><linearGradient id="056Sxi48ecyXRTKfmKtted" x1="24" x2="24" y1="-2925.879" y2="-2930.9" gradientTransform="matrix(1 0 0 -1 0 -2891.89)" gradientUnits="userSpaceOnUse"><stop offset="0" stop-color="#484b4f"/><stop offset=".028" stop-color="#565b61"/><stop offset=".066" stop-color="#626a72"/><stop offset=".114" stop-color="#6b757d"/><stop offset=".181" stop-color="#717b84"/><stop offset=".367" stop-color="#727d86"/></linearGradient><path fill="url(#056Sxi48ecyXRTKfmKtted)" d="M46.924,38.3l-2.89-3.5c-0.399-0.5-0.997-0.8-1.595-0.8H5.565c-0.598,0-1.196,0.3-1.595,0.8 l-2.89,3.6c-0.199,0.3,0,0.7,0.299,0.7h14.949c0.399,0,0.698-0.2,0.897-0.6l0.399-0.9c0.199-0.3,0.498-0.6,0.897-0.6h10.763 c0.399,0,0.698,0.2,0.897,0.6l0.399,0.9c0.199,0.3,0.498,0.6,0.897,0.6h14.949C46.924,39,47.123,38.6,46.924,38.3z"/><path fill="#fff" d="M34.5,15h-15c-0.276,0-0.5-0.224-0.5-0.5v-1c0-0.276,0.224-0.5,0.5-0.5h15 c0.276,0,0.5,0.224,0.5,0.5v1C35,14.776,34.776,15,34.5,15z"/><path fill="#fff" d="M14,26.5v-13c0-0.276,0.224-0.5,0.5-0.5h1c0.276,0,0.5,0.224,0.5,0.5v13c0,0.276-0.224,0.5-0.5,0.5 h-1C14.224,27,14,26.776,14,26.5z"/><path fill="#fff" d="M34.5,19h-15c-0.276,0-0.5-0.224-0.5-0.5v-1c0-0.276,0.224-0.5,0.5-0.5h15 c0.276,0,0.5,0.224,0.5,0.5v1C35,18.776,34.776,19,34.5,19z"/><path fill="#fff" d="M34.5,23h-15c-0.276,0-0.5-0.224-0.5-0.5v-1c0-0.276,0.224-0.5,0.5-0.5h15 c0.276,0,0.5,0.224,0.5,0.5v1C35,22.776,34.776,23,34.5,23z"/><path fill="#fff" d="M30.5,27h-11c-0.276,0-0.5-0.224-0.5-0.5v-1c0-0.276,0.224-0.5,0.5-0.5h11 c0.276,0,0.5,0.224,0.5,0.5v1C31,26.776,30.776,27,30.5,27z"/></svg>