<svg xmlns="http://www.w3.org/2000/svg"  viewBox="0 0 64 64" width="50px" height="50px"><radialGradient id="4c2I0UvVu2I7AYc5uGZ3La" cx="32" cy="34" r="33.002" gradientUnits="userSpaceOnUse" spreadMethod="reflect"><stop offset="0" stop-color="#afeeff"/><stop offset=".193" stop-color="#bbf1ff"/><stop offset=".703" stop-color="#d7f8ff"/><stop offset="1" stop-color="#e1faff"/></radialGradient><path fill="url(#4c2I0UvVu2I7AYc5uGZ3La)" d="M58,43l2.302,0c1.733,0,3.348-1.166,3.644-2.873C64.329,37.918,62.638,36,60.5,36h-4.401 c-0.983,0-1.895-0.666-2.067-1.634c-0.219-1.236,0.698-2.313,1.88-2.364C55.918,32.002,58,32,58,32c1.657,0,3-1.343,3-3v0 c0-1.657-1.343-3-3-3l-1.302,0c-1.733,0-3.348-1.166-3.644-2.873C52.671,20.918,54.362,19,56.5,19l1.802,0 c1.733,0,3.348-1.166,3.644-2.873C62.329,13.918,60.638,12,58.5,12H48h-6l-10,4l-14-4v4L4.698,16c-1.733,0-3.348,1.166-3.644,2.873 C0.671,21.082,2.362,23,4.5,23l1.802,0c1.895,0,3.594,1.419,3.693,3.312C10.101,28.33,8.495,30,6.5,30l-0.857,0 c-1.308,0-2.499,0.941-2.63,2.242C2.863,33.738,4.034,35,5.5,35h0c0.981,0,1.919,0.552,2.29,1.46C8.528,38.271,7.216,40,5.5,40H3.17 c-1.625,0-3.081,1.216-3.166,2.839C-0.086,44.569,1.29,46,3,46h4.893c0.996,0,1.92,0.681,2.08,1.664C10.176,48.917,9.215,50,8,50 H7.17c-1.625,0-3.081,1.216-3.166,2.839C3.914,54.569,5.29,56,7,56h11h8h22v-1h9.852c1.582,0,3.003-1.162,3.137-2.738 c0.151-1.779-1.252-3.27-3.002-3.262c-1.028,0.004-2.033-0.434-2.532-1.332C54.166,45.35,55.808,43,58,43z"/><linearGradient id="4c2I0UvVu2I7AYc5uGZ3Lb" x1="32" x2="32" y1="59.917" y2="10.917" gradientUnits="userSpaceOnUse" spreadMethod="reflect"><stop offset="0" stop-color="#ff8b67"/><stop offset=".847" stop-color="#ffa76a"/><stop offset="1" stop-color="#ffad6b"/><stop offset="1" stop-color="#ffad6b"/></linearGradient><path fill="url(#4c2I0UvVu2I7AYc5uGZ3Lb)" d="M47,10H36c0,2.209-1.791,4-4,4s-4-1.791-4-4H17c-2.75,0-5,2.25-5,5v39c0,2.75,2.25,5,5,5h30 c2.75,0,5-2.25,5-5V15C52,12.25,49.75,10,47,10z"/><linearGradient id="4c2I0UvVu2I7AYc5uGZ3Lc" x1="32" x2="32" y1="13.319" y2="57.899" gradientUnits="userSpaceOnUse" spreadMethod="reflect"><stop offset="0" stop-color="#ffcfa2"/><stop offset="1" stop-color="#ffd17c"/></linearGradient><path fill="url(#4c2I0UvVu2I7AYc5uGZ3Lc)" d="M45,54H19c-1.105,0-2-0.895-2-2V17c0-1.105,0.895-2,2-2h26c1.105,0,2,0.895,2,2v35 C47,53.105,46.105,54,45,54z"/><linearGradient id="4c2I0UvVu2I7AYc5uGZ3Ld" x1="32" x2="32" y1="15" y2="54" gradientUnits="userSpaceOnUse" spreadMethod="reflect"><stop offset="0" stop-color="#fff1e3"/><stop offset="1" stop-color="#fff1d8"/></linearGradient><path fill="url(#4c2I0UvVu2I7AYc5uGZ3Ld)" d="M45,54H19c-1.105,0-2-0.895-2-2V17c0-1.105,0.895-2,2-2h26c1.105,0,2,0.895,2,2v35 C47,53.105,46.105,54,45,54z"/><linearGradient id="4c2I0UvVu2I7AYc5uGZ3Le" x1="32" x2="32" y1="3.306" y2="24.272" gradientUnits="userSpaceOnUse" spreadMethod="reflect"><stop offset="0" stop-color="#adadad"/><stop offset=".412" stop-color="#969696"/><stop offset="1" stop-color="#6f6f6f"/></linearGradient><path fill="url(#4c2I0UvVu2I7AYc5uGZ3Le)" d="M39,10c0-3.866-3.134-7-7-7s-7,3.134-7,7h-4v6c0,1.657,1.343,3,3,3h16c1.657,0,3-1.343,3-3v-6 H39z M32,13c-1.657,0-3-1.343-3-3s1.343-3,3-3s3,1.343,3,3S33.657,13,32,13z"/><linearGradient id="4c2I0UvVu2I7AYc5uGZ3Lf" x1="25.5" x2="25.5" y1="46.444" y2="21.089" gradientUnits="userSpaceOnUse" spreadMethod="reflect"><stop offset="0" stop-color="#f29265"/><stop offset="1" stop-color="#f9ae7f"/></linearGradient><path fill="url(#4c2I0UvVu2I7AYc5uGZ3Lf)" d="M31,29L31,29c0,1.105-0.895,2-2,2h-7c-1.105,0-2-0.895-2-2v0c0-1.105,0.895-2,2-2h7 C30.105,27,31,27.895,31,29z M31,43L31,43c0,1.105-0.895,2-2,2h-7c-1.105,0-2-0.895-2-2v0c0-1.105,0.895-2,2-2h7 C30.105,41,31,41.895,31,43z"/><linearGradient id="4c2I0UvVu2I7AYc5uGZ3Lg" x1="39" x2="39" y1="24" y2="32.999" gradientUnits="userSpaceOnUse" spreadMethod="reflect"><stop offset="0" stop-color="#40d277"/><stop offset=".704" stop-color="#38bc73"/><stop offset="1" stop-color="#34b171"/></linearGradient><path fill="url(#4c2I0UvVu2I7AYc5uGZ3Lg)" d="M45,25.998c0,0.51-0.2,1.02-0.58,1.41l-3.59,3.59l-1.416,1.416 c-0.781,0.781-2.047,0.781-2.828,0l-3.006-3.006c-0.38-0.39-0.58-0.9-0.58-1.41c0-0.52,0.2-1.03,0.58-1.42 c0.78-0.77,2.05-0.77,2.83,0l1.59,1.59l3.59-3.59c0.78-0.77,2.05-0.77,2.83,0C44.8,24.967,45,25.477,45,25.998z"/><linearGradient id="4c2I0UvVu2I7AYc5uGZ3Lh" x1="39" x2="39" y1="47.999" y2="37.999" gradientUnits="userSpaceOnUse" spreadMethod="reflect"><stop offset="0" stop-color="#ff5840"/><stop offset=".007" stop-color="#ff5840"/><stop offset=".989" stop-color="#fa528c"/><stop offset="1" stop-color="#fa528c"/></linearGradient><path fill="url(#4c2I0UvVu2I7AYc5uGZ3Lh)" d="M41.828,43l1.588-1.588c0.778-0.778,0.778-2.051,0-2.828c-0.778-0.778-2.051-0.778-2.828,0 L39,40.171l-1.588-1.588c-0.778-0.778-2.051-0.778-2.828,0c-0.778,0.778-0.778,2.051,0,2.828L36.172,43l-1.588,1.588 c-0.778,0.778-0.778,2.051,0,2.828s2.051,0.778,2.828,0L39,45.828l1.588,1.588c0.778,0.778,2.051,0.778,2.828,0s0.778-2.051,0-2.828 L41.828,43z"/></svg>