<svg xmlns="http://www.w3.org/2000/svg"  viewBox="0 0 64 64" width="50px" height="50px"><radialGradient id="GPEhk0GWWua9j~WBmQNVRa" cx="32" cy="34" r="31.504" gradientTransform="matrix(1 0 0 -1 0 66)" gradientUnits="userSpaceOnUse"><stop offset="0" stop-color="#efe7c2"/><stop offset=".219" stop-color="#f4eccc"/><stop offset=".644" stop-color="#f9f3db"/><stop offset="1" stop-color="#fbf5e0"/></radialGradient><path fill="url(#GPEhk0GWWua9j~WBmQNVRa)" d="M54.29,42H43V32h6.5c1.24,0,2.37-0.5,3.18-1.32c0.79-0.78,1.28-1.86,1.32-3.05	c0.07-2.55-2.17-4.63-4.71-4.63H39v-7.19c0.31,0.12,0.65,0.19,1,0.19h20c1.85,0,3.32-1.69,2.94-3.6c-0.29-1.43-0.62-2.4-2.64-2.4	H49.64C48.3,10,47.09,9.02,47,7.69c-0.05-0.77,0.24-1.47,0.73-1.96C48.18,5.28,48.81,5,49.5,5h6c1.6,0,2.86-1.52,2.41-3.18	C57.61,0.72,56.54,0,55.4,0H10.5C8.9,0,7.64,1.52,8.09,3.18C8.39,4.28,9.46,5,10.59,5h1.91c0.69,0,1.32,0.28,1.77,0.73	C14.72,6.18,15,6.81,15,7.5v1c0,1.38-1.12,2.5-2.5,2.5H8c-1.71,0-3.08,1.42-3,3.16C5.09,15.78,6.54,17,8.16,17h0.36	c0.02,0,0.04,0.01,0.07,0.01h4c1.21,0,2.18,1.09,1.97,2.34c-0.15,0.94-1.03,1.6-1.97,1.65H7.5c-0.06,0-0.12,0-0.18,0.01	c-0.89,0.04-1.7,0.42-2.29,1.02c-0.52,0.51-0.87,1.19-0.99,1.94C4.01,24.14,4,24.32,4,24.5C4,26.43,5.57,28,7.5,28H17	c0,1.1,0.5,8,0.5,8c0.83,0-0.25,1.41,0.06,3H7c-3.57,0-6.42,3.13-5.95,6.79C1.44,48.81,4.16,51,7.21,51H9.5	c2.17,0,3.89,1.99,3.42,4.23C12.59,56.87,11.07,58,9.4,58H8c-1.71,0-3.08,1.43-3,3.16C5.09,62.78,6.54,64,8.16,64H52	c1.71,0,3.08-1.43,3-3.16C54.91,59.22,53.46,58,51.83,58H50.5c-0.96,0-1.84-0.39-2.47-1.03C47.39,56.34,47,55.46,47,54.5	c0-1.93,1.57-3.5,3.5-3.5h4c2.63,0,4.75-2.28,4.48-4.96C58.74,43.7,56.63,42,54.29,42z"/><linearGradient id="GPEhk0GWWua9j~WBmQNVRb" x1="29.5" x2="29.5" y1="50.309" y2="15.258" gradientTransform="matrix(1 0 0 -1 0 66)" gradientUnits="userSpaceOnUse"><stop offset="0" stop-color="#e5f8ff"/><stop offset="0" stop-color="#e5f8ff"/><stop offset=".173" stop-color="#e0f7ff"/><stop offset=".423" stop-color="#d2f3ff"/><stop offset=".72" stop-color="#bbecfd"/><stop offset="1" stop-color="#a4e5fd"/></linearGradient><path fill="url(#GPEhk0GWWua9j~WBmQNVRb)" d="M55,13v27c0,2.05-1.24,3.81-3,4.59C51.39,44.85,50.71,45,50,45H9c-0.71,0-1.39-0.15-2-0.41	C5.24,43.81,4,42.05,4,40V13c0-0.71,0.15-1.39,0.41-2C4.92,9.85,5.85,8.92,7,8.42C7.61,8.15,8.29,8,9,8h41c0.71,0,1.39,0.15,2,0.42	c1.15,0.5,2.08,1.43,2.59,2.58C54.85,11.61,55,12.29,55,13z"/><linearGradient id="GPEhk0GWWua9j~WBmQNVRc" x1="44.5" x2="44.5" y1="-5.532" y2="40.26" gradientTransform="matrix(1 0 0 -1 0 66)" gradientUnits="userSpaceOnUse"><stop offset="0" stop-color="#a7e2f8"/><stop offset=".406" stop-color="#afe6fa"/><stop offset="1" stop-color="#c0effd"/></linearGradient><path fill="url(#GPEhk0GWWua9j~WBmQNVRc)" d="M48,25h-2.5h-2c-1.381,0-2.5,1.119-2.5,2.5l0,0c0,1.381,1.119,2.5,2.5,2.5h1.858	c1.308,0,2.499,0.941,2.629,2.243C48.137,33.739,46.966,35,45.5,35h-6.858c-1.308,0-2.499,0.941-2.629,2.243	C35.863,38.739,37.034,40,38.5,40H53v-5v-5v-5H48z"/><linearGradient id="GPEhk0GWWua9j~WBmQNVRd" x1="29.5" x2="29.5" y1="16.532" y2="21.16" gradientTransform="matrix(1 0 0 -1 0 66)" gradientUnits="userSpaceOnUse"><stop offset=".122" stop-color="#636d7a"/><stop offset=".191" stop-color="#616b78"/><stop offset="1" stop-color="#555c68"/></linearGradient><polygon fill="url(#GPEhk0GWWua9j~WBmQNVRd)" points="25,45 34,45 36,50 23,50"/><linearGradient id="GPEhk0GWWua9j~WBmQNVRe" x1="29.5" x2="29.5" y1="13.383" y2="15.766" gradientTransform="matrix(1 0 0 -1 0 66)" gradientUnits="userSpaceOnUse"><stop offset="0" stop-color="#727982"/><stop offset="1" stop-color="#7b828d"/></linearGradient><path fill="url(#GPEhk0GWWua9j~WBmQNVRe)" d="M18,49h23c1.657,0,3,1.343,3,3l0,0c0,0.552-0.448,1-1,1H16c-0.552,0-1-0.448-1-1l0,0	C15,50.343,16.343,49,18,49z"/><linearGradient id="GPEhk0GWWua9j~WBmQNVRf" x1="16.5" x2="16.5" y1="39.617" y2="71.155" gradientTransform="matrix(1 0 0 -1 0 66)" gradientUnits="userSpaceOnUse"><stop offset="0" stop-color="#eef8fc"/><stop offset=".848" stop-color="#f4fcff"/><stop offset="1" stop-color="#f6fdff"/></linearGradient><path fill="url(#GPEhk0GWWua9j~WBmQNVRf)" d="M25.996,14.156C25.915,15.779,24.461,17,22.836,17H16.5c-1.381,0-2.5,1.119-2.5,2.5l0,0	c0,1.381,1.119,2.5,2.5,2.5h2c1.464,0,2.62,1.24,2.492,2.731C20.878,26.044,19.678,27,18.36,27H7V11h16	C24.712,11,26.083,12.424,25.996,14.156z"/><linearGradient id="GPEhk0GWWua9j~WBmQNVRg" x1="29.5" x2="29.5" y1="21.969" y2="54.592" gradientTransform="matrix(1 0 0 -1 0 66)" gradientUnits="userSpaceOnUse"><stop offset="0" stop-color="#727982"/><stop offset="1" stop-color="#7b828d"/></linearGradient><path fill="url(#GPEhk0GWWua9j~WBmQNVRg)" d="M34,45h16c0.71,0,1.39-0.15,2-0.41c1.76-0.78,3-2.54,3-4.59V13c0-0.71-0.15-1.39-0.41-2	C54.08,9.85,53.15,8.92,52,8.42C51.39,8.15,50.71,8,50,8H9C8.29,8,7.61,8.15,7,8.42C5.85,8.92,4.92,9.85,4.41,11	C4.15,11.61,4,12.29,4,13v27c0,2.05,1.24,3.81,3,4.59C7.61,44.85,8.29,45,9,45h16H34z M7,40V14c0-0.412,0.086-0.833,0.238-1.189	c0.307-0.692,0.875-1.26,1.571-1.563C9.182,11.083,9.583,11,10,11h39c0.417,0,0.818,0.083,1.203,0.254	c0.684,0.297,1.252,0.865,1.548,1.53C51.914,13.167,52,13.588,52,14v26H7z"/><linearGradient id="GPEhk0GWWua9j~WBmQNVRh" x1="52.999" x2="52.999" y1="45.327" y2="33.883" gradientTransform="matrix(1 0 0 -1 0 66)" gradientUnits="userSpaceOnUse"><stop offset="0" stop-color="#82d57d"/><stop offset=".996" stop-color="#6cae74"/></linearGradient><path fill="url(#GPEhk0GWWua9j~WBmQNVRh)" d="M49.149,43.646c-0.855-1.991-1.066-3.982-1.133-5.972c-0.096-1.991,0.235-3.982,0.521-5.972	c0.308-1.991,0.733-3.982,1.252-5.972c0.567-1.991,1.184-3.982,2.127-5.972c0.308-0.65,1.103-0.936,1.775-0.638	c0.301,0.133,0.526,0.36,0.656,0.629l0.005,0.009c0.96,1.991,1.561,3.982,2.106,5.972c0.493,1.991,0.882,3.982,1.143,5.972	c0.243,1.991,0.506,3.982,0.353,5.972c-0.183,1.991-0.472,3.982-1.498,5.972l-0.123,0.24c-0.973,1.887-3.344,2.654-5.297,1.714	C50.151,45.173,49.502,44.464,49.149,43.646z"/><linearGradient id="GPEhk0GWWua9j~WBmQNVRi" x1="46.56" x2="50.387" y1="37.778" y2="25.871" gradientTransform="matrix(1 0 0 -1 0 66)" gradientUnits="userSpaceOnUse"><stop offset="0" stop-color="#82d57d"/><stop offset=".821" stop-color="#6cae74"/></linearGradient><path fill="url(#GPEhk0GWWua9j~WBmQNVRi)" d="M48.571,45.826c-1.189-1.163-1.827-2.516-2.343-3.911c-0.54-1.386-0.715-2.898-0.927-4.396	c-0.194-1.505-0.288-3.044-0.302-4.611c0.027-1.581,0.098-3.177,0.447-4.868c0.146-0.709,0.823-1.161,1.512-1.011	c0.215,0.047,0.405,0.147,0.561,0.284l0.012,0.01c1.279,1.133,2.251,2.37,3.175,3.625c0.88,1.269,1.67,2.57,2.351,3.907	c0.666,1.343,1.349,2.68,1.675,4.14c0.301,1.468,0.512,2.968,0.091,4.683l-0.074,0.304c-0.504,2.055-2.53,3.301-4.525,2.782	C49.587,46.598,49.018,46.26,48.571,45.826z"/><linearGradient id="GPEhk0GWWua9j~WBmQNVRj" x1="56.515" x2="54.004" y1="38.324" y2="16.876" gradientTransform="matrix(1 0 0 -1 0 66)" gradientUnits="userSpaceOnUse"><stop offset="0" stop-color="#82d57d"/><stop offset=".311" stop-color="#7ece7b"/><stop offset=".763" stop-color="#73bb77"/><stop offset=".996" stop-color="#6cae74"/></linearGradient><path fill="url(#GPEhk0GWWua9j~WBmQNVRj)" d="M49.148,47.515c-0.32-1.983-0.008-3.783,0.446-5.543c0.425-1.767,1.269-3.413,2.07-5.072	c0.822-1.652,1.758-3.272,2.788-4.864c1.076-1.579,2.201-3.143,3.647-4.615c0.541-0.55,1.432-0.565,1.99-0.032	c0.211,0.202,0.345,0.452,0.4,0.716l0.002,0.009c0.423,2.013,0.494,3.924,0.51,5.819c-0.035,1.881-0.173,3.731-0.436,5.546	c-0.28,1.809-0.542,3.624-1.211,5.321c-0.699,1.688-1.502,3.346-3.029,4.794l-0.228,0.216c-1.645,1.559-4.261,1.51-5.844-0.111	C49.642,49.076,49.275,48.311,49.148,47.515z"/><linearGradient id="GPEhk0GWWua9j~WBmQNVRk" x1="53" x2="53" y1="13.19" y2="19.364" gradientTransform="matrix(1 0 0 -1 0 66)" gradientUnits="userSpaceOnUse"><stop offset="0" stop-color="#c97050"/><stop offset=".25" stop-color="#ca7451"/><stop offset="1" stop-color="#cd7a53"/></linearGradient><path fill="url(#GPEhk0GWWua9j~WBmQNVRk)" d="M60.99,41.32l-0.64,7.71C60.17,51.27,58.13,53,55.69,53h-5.37c-1.73,0-3.25-0.86-4.05-2.15	c-0.17-0.26-0.3-0.55-0.4-0.85c-0.12-0.31-0.19-0.64-0.22-0.97l-0.64-7.71C45,41.28,45,41.24,45,41.2v-0.15	c0.05-1.13,1.07-2.05,2.34-2.05h11.32C60.03,39,61.11,40.07,60.99,41.32z"/><linearGradient id="GPEhk0GWWua9j~WBmQNVRl" x1="48.501" x2="48.501" y1="-16.787" y2="-6.446" gradientTransform="matrix(1 0 0 -1 0 66)" gradientUnits="userSpaceOnUse"><stop offset="0" stop-color="#cd7c5c"/><stop offset=".25" stop-color="#ce805d"/><stop offset="1" stop-color="#d2845f"/></linearGradient><path fill="url(#GPEhk0GWWua9j~WBmQNVRl)" d="M48,45.5c0,0.83,0.67,1.5,1.5,1.5s1.5,0.67,1.5,1.5S50.33,50,49.5,50h-3.63	c-0.12-0.31-0.19-0.64-0.22-0.97l-0.64-7.71C45,41.28,45,41.24,45,41.2l0.01-0.05c0-0.04,0-0.07-0.01-0.1	C44.96,39.93,45.88,39,47.05,39h2.31c1.3,0,2.5,0.94,2.63,2.24c0.15,1.5-1.02,2.76-2.49,2.76C48.67,44,48,44.67,48,45.5z"/></svg>