<svg xmlns="http://www.w3.org/2000/svg"  viewBox="0 0 48 48" width="50px" height="50px"><linearGradient id="SmvAGWGsYSypB2jfYhoCma" x1="24" x2="24" y1="32.787" y2="50.837" gradientUnits="userSpaceOnUse"><stop offset="0" stop-color="#899198"/><stop offset="1" stop-color="#787e85"/></linearGradient><path fill="url(#SmvAGWGsYSypB2jfYhoCma)" d="M6,34v5c0,1.657,1.343,3,3,3h30c1.656,0,3-1.343,3-3v-5H6z"/><linearGradient id="SmvAGWGsYSypB2jfYhoCmb" x1="24" x2="24" y1="3.255" y2="36.128" gradientUnits="userSpaceOnUse"><stop offset="0" stop-color="#c3cdd9"/><stop offset="1" stop-color="#9fa7b0"/></linearGradient><path fill="url(#SmvAGWGsYSypB2jfYhoCmb)" d="M39,6H23c-1.657,0-3,1.343-3,3v10H9c-1.657,0-3,1.343-3,3v12c0,1.657,1.343,3,3,3h30	c1.657,0,3-1.343,3-3V9C42,7.343,40.657,6,39,6z"/><path d="M22.036,32.876c-0.466,0-0.904-0.159-1.27-0.46l-3.473-2.875c-0.461-0.381-0.726-0.943-0.726-1.541	s0.265-1.16,0.726-1.541l3.474-2.874c0.363-0.301,0.803-0.461,1.269-0.461c1.105,0,2.005,0.898,2.005,2.001V25.5h4.587V17	c0-1.103,0.897-2,2-2h1c1.103,0,2,0.897,2,2v11.5c0,1.103-0.897,2-2,2h-7.587v0.375C24.041,31.978,23.142,32.876,22.036,32.876z" opacity=".05"/><path d="M22.036,32.376c-0.349,0-0.677-0.12-0.951-0.346l-3.473-2.874c-0.346-0.286-0.544-0.707-0.544-1.156	s0.198-0.87,0.544-1.156l3.474-2.874c0.273-0.227,0.602-0.346,0.95-0.346c0.83,0,1.505,0.673,1.505,1.501V26h5.587v-9	c0-0.827,0.673-1.5,1.5-1.5h1c0.827,0,1.5,0.673,1.5,1.5v11.5c0,0.827-0.673,1.5-1.5,1.5h-8.087v0.875	C23.541,31.703,22.866,32.376,22.036,32.376z" opacity=".07"/><linearGradient id="SmvAGWGsYSypB2jfYhoCmc" x1="21.598" x2="30.623" y1="16.807" y2="31.487" gradientUnits="userSpaceOnUse"><stop offset="0" stop-color="#f44f5a"/><stop offset=".443" stop-color="#ee3d4a"/><stop offset="1" stop-color="#e52030"/></linearGradient><path fill="url(#SmvAGWGsYSypB2jfYhoCmc)" d="M31.628,16h-1c-0.552,0-1,0.448-1,1v9.5h-6.586v-1.374c0-0.846-0.986-1.31-1.638-0.77	l-3.473,2.874c-0.483,0.4-0.483,1.141,0,1.541l3.473,2.874c0.652,0.54,1.638,0.076,1.638-0.77V29.5h8.586c0.552,0,1-0.448,1-1V17	C32.628,16.448,32.18,16,31.628,16z"/></svg>