<svg xmlns="http://www.w3.org/2000/svg"  viewBox="0 0 64 64" width="50px" height="50px"><radialGradient id="NVwDrZn7bf~zWuWWCwOfIa" cx="32" cy="1749.5" r="31.259" gradientTransform="translate(0 -1718)" gradientUnits="userSpaceOnUse"><stop offset="0" stop-color="#eed7a2"/><stop offset=".106" stop-color="#f1dcab"/><stop offset=".437" stop-color="#f8e8c3"/><stop offset=".744" stop-color="#fcefd2"/><stop offset="1" stop-color="#fef2d7"/></radialGradient><path fill="url(#NVwDrZn7bf~zWuWWCwOfIa)" d="M60.5,43H50.143c-1.308,0-2.499-0.941-2.63-2.242C47.363,39.261,48.534,38,50,38h7.869	c1.451,0,2.789-0.972,3.071-2.395C61.319,33.693,59.848,32,58,32H42v-7h18.5c1.933,0,3.5-1.567,3.5-3.5l0,0	c0-1.933-1.567-3.5-3.5-3.5h-1.393c-0.996,0-1.92-0.681-2.08-1.664C56.824,15.083,57.785,14,59,14h0.357	c1.308,0,2.499-0.941,2.63-2.242C62.137,10.261,60.966,9,59.5,9h-17C41.672,9,41,8.328,41,7.5S41.672,6,42.5,6h5.857	c1.308,0,2.499-0.941,2.63-2.242C51.137,2.261,49.966,1,48.5,1H15.643c-1.308,0-2.499,0.941-2.63,2.242	C12.863,4.739,14.034,6,15.5,6h1.393c0.996,0,1.92,0.681,2.08,1.664C19.176,8.917,18.215,10,17,10H6.189	c-2.086,0-3.958,1.514-4.168,3.59C1.78,15.972,3.665,18,6,18h2.302c1.895,0,3.594,1.419,3.693,3.312C12.101,23.33,10.495,25,8.5,25	H5.189c-2.086,0-3.958,1.514-4.168,3.59C0.78,30.972,2.665,33,5,33h17v11H6.131c-1.451,0-2.789,0.972-3.071,2.395	C2.681,48.307,4.152,50,6,50c1.215,0,2.176,1.083,1.973,2.336C7.813,53.319,6.889,54,5.893,54H4.189	c-2.086,0-3.958,1.514-4.168,3.59C-0.22,59.972,1.665,62,4,62h53.811c2.009,0,3.841-1.398,4.142-3.385	c0.368-2.434-1.497-4.553-3.85-4.614c-0.809-0.021-1.608-0.396-1.923-1.141C55.564,51.401,56.618,50,58,50h2.386	c1.67,0,3.195-1.122,3.537-2.757C64.392,44.998,62.668,43,60.5,43z"/><linearGradient id="NVwDrZn7bf~zWuWWCwOfIb" x1="32" x2="32" y1="9.681" y2="54.983" gradientTransform="matrix(1 0 0 -1 0 66)" gradientUnits="userSpaceOnUse"><stop offset="0" stop-color="#50c2e8"/><stop offset="1" stop-color="#66e1f5"/></linearGradient><path fill="url(#NVwDrZn7bf~zWuWWCwOfIb)" d="M54,22L32,10L10,22v30c0,2.209,1.791,4,4,4h36c2.209,0,4-1.791,4-4V22z"/><linearGradient id="NVwDrZn7bf~zWuWWCwOfIc" x1="32" x2="32" y1="72.957" y2="31.355" gradientTransform="matrix(1 0 0 -1 0 66)" gradientUnits="userSpaceOnUse"><stop offset="0" stop-color="#155cde"/><stop offset=".122" stop-color="#196ae1"/><stop offset=".509" stop-color="#2493e9"/><stop offset=".815" stop-color="#2bacee"/><stop offset="1" stop-color="#2eb5f0"/></linearGradient><path fill="url(#NVwDrZn7bf~zWuWWCwOfIc)" d="M28.615,8.963L6.875,21.857C5.713,22.547,5,23.798,5,25.149l0,0	c0,2.986,3.286,4.833,5.872,3.299l21.125-12.529l21.131,12.53c2.586,1.533,5.872-0.313,5.872-3.3l0,0	c0-1.351-0.713-2.603-1.875-3.292L35.379,8.963C33.294,7.727,30.7,7.727,28.615,8.963z"/><linearGradient id="NVwDrZn7bf~zWuWWCwOfId" x1="-702" x2="-702" y1="568" y2="556.819" gradientTransform="matrix(-1 0 0 1 -670 -516)" gradientUnits="userSpaceOnUse"><stop offset="0" stop-color="#ff9757"/><stop offset="1" stop-color="#ffb65b"/><stop offset="1" stop-color="#ffb65b"/></linearGradient><path fill="url(#NVwDrZn7bf~zWuWWCwOfId)" d="M32,52L32,52c-2.209,0-4-1.791-4-4v-3h8v3C36,50.209,34.209,52,32,52z"/><linearGradient id="NVwDrZn7bf~zWuWWCwOfIe" x1="32" x2="32" y1="43.809" y2="35.809" gradientTransform="matrix(1 0 0 -1 0 66)" gradientUnits="userSpaceOnUse"><stop offset="0" stop-color="#ff8b67"/><stop offset=".847" stop-color="#ffa76a"/><stop offset="1" stop-color="#ffad6b"/><stop offset="1" stop-color="#ffad6b"/></linearGradient><path fill="url(#NVwDrZn7bf~zWuWWCwOfIe)" d="M32,22L32,22c1.657,0,3,1.343,3,3v5h-6v-5C29,23.343,30.343,22,32,22z"/><linearGradient id="NVwDrZn7bf~zWuWWCwOfIf" x1="32" x2="32" y1="19.468" y2="49.173" gradientTransform="matrix(1 0 0 -1 0 66)" gradientUnits="userSpaceOnUse"><stop offset="0" stop-color="#ffc050"/><stop offset=".004" stop-color="#ffc050"/><stop offset=".641" stop-color="#ffbe75"/><stop offset="1" stop-color="#ffbd85"/><stop offset="1" stop-color="#ffbd85"/></linearGradient><path fill="url(#NVwDrZn7bf~zWuWWCwOfIf)" d="M43,43H21l1.07-4l1.13-4.24c1-3.76,4.27-6.44,8.11-6.73C31.54,28.01,31.77,28,32,28	c2.12,0,4.11,0.74,5.68,2c0.38,0.3,0.74,0.64,1.07,1c0.96,1.05,1.67,2.33,2.05,3.76L42.73,42L43,43z"/><linearGradient id="NVwDrZn7bf~zWuWWCwOfIg" x1="32" x2="32" y1="13.638" y2="24.202" gradientTransform="matrix(1 0 0 -1 0 66)" gradientUnits="userSpaceOnUse"><stop offset="0" stop-color="#ffc96a"/><stop offset=".004" stop-color="#ffc96a"/><stop offset=".512" stop-color="#ffc887"/><stop offset="1" stop-color="#ffc797"/><stop offset="1" stop-color="#ffc797"/></linearGradient><path fill="url(#NVwDrZn7bf~zWuWWCwOfIg)" d="M21.5,42h21c1.381,0,2.5,1.119,2.5,2.5l0,0c0,1.381-1.119,2.5-2.5,2.5h-21	c-1.381,0-2.5-1.119-2.5-2.5l0,0C19,43.119,20.119,42,21.5,42z"/><linearGradient id="NVwDrZn7bf~zWuWWCwOfIh" x1="37.865" x2="37.865" y1="9.119" y2="34.036" gradientTransform="matrix(1 0 0 -1 0 66)" gradientUnits="userSpaceOnUse"><stop offset="0" stop-color="#ffa241"/><stop offset=".926" stop-color="#ffaf6c"/><stop offset="1" stop-color="#ffb070"/><stop offset="1" stop-color="#ffb070"/></linearGradient><path fill="url(#NVwDrZn7bf~zWuWWCwOfIh)" d="M42.73,42H35c-0.55,0-1.05-0.22-1.41-0.59C33.22,41.05,33,40.55,33,40c0-1.1,0.9-2,2-2h2.5	c0.83,0,1.5-0.67,1.5-1.5S38.33,35,37.5,35H37c-0.55,0-1.05-0.22-1.41-0.59C35.22,34.05,35,33.55,35,33c0-1.1,0.9-2,2-2h1.75	c0.96,1.05,1.67,2.33,2.05,3.76L42.73,42z"/></svg>