<svg xmlns="http://www.w3.org/2000/svg"  viewBox="0 0 64 64" width="50px" height="50px"><radialGradient id="yb7~CQxEfdhJ0E_08kwJea" cx="32" cy="34" r="30.537" gradientTransform="matrix(1 0 0 -1 0 66)" gradientUnits="userSpaceOnUse"><stop offset="0" stop-color="#eed7a2"/><stop offset=".106" stop-color="#f1dcab"/><stop offset=".437" stop-color="#f8e8c3"/><stop offset=".744" stop-color="#fcefd2"/><stop offset="1" stop-color="#fef2d7"/></radialGradient><path fill="url(#yb7~CQxEfdhJ0E_08kwJea)" d="M60.5,54H60c-0.55,0-1.05-0.22-1.41-0.59C58.22,53.05,58,52.55,58,52c0-1.1,0.9-2,2-2h0.84	c1.49,0,2.87-1.02,3.11-2.49C64.26,45.62,62.83,44,61,44H45.7c-1.74,0-3.35-0.17-3.65-1.87C41.67,39.92,43.36,38,45.5,38H58	c1.71,0,3.08-1.42,3-3.16C60.91,33.22,59.46,32,57.84,32H54.7c-1.74,0-3.35-1.17-3.65-2.87C50.67,26.92,52.36,25,54.5,25h2.81	c2.35,0,4.45-1.72,4.67-4.06C62.24,18.26,60.13,16,57.5,16c0,0-3.84,0-6.5-0.01V16h-4.5c-0.96,0-1.84-0.39-2.47-1.03	c-0.61-0.6-0.99-1.43-1.03-2.34C42.93,10.64,44.7,9,46.7,9h6.13c1.49,0,2.87-1,3.13-2.46C56.29,4.64,54.83,3,53,3H12.17	C10.68,3,9.3,4,9.04,5.46C8.71,7.36,10.17,9,12,9h6.5c0.69,0,1.32,0.28,1.77,0.73c0.42,0.42,0.69,0.99,0.73,1.62	C21.08,12.8,19.8,14,18.34,14H5.7c-1.74,0-3.35,1.17-3.64,2.87C1.67,19.08,3.36,21,5.5,21h4.27c2.34,0,4.38,1.92,4.23,4.26	c-0.07,1-0.51,1.9-1.17,2.57C12.1,28.55,11.1,29,10,29H4.17c-1.49,0-2.87,1-3.13,2.46C0.71,33.36,2.17,35,4,35h12.5	c1.91,0,3.46,1.53,3.5,3.44c0.03,1.43-1.23,2.56-2.66,2.56H4.5C2.015,41,0,43.015,0,45.5S1.515,50,4,50l0,0	c0.74,0,1.4,0.41,1.75,1.02C5.91,51.31,6,51.64,6,52c0,0.55-0.22,1.05-0.59,1.41C5.05,53.78,4.55,54,4,54H3.5	c-2.17,0-3.89,1.99-3.42,4.23C0.41,59.87,1.93,61,3.6,61h56.9c0.96,0,1.84-0.39,2.47-1.03C63.61,59.34,64,58.46,64,57.5	C64,55.57,62.43,54,60.5,54z"/><linearGradient id="yb7~CQxEfdhJ0E_08kwJeb" x1="20.499" x2="20.499" y1="13.047" y2="56.186" gradientTransform="matrix(1 0 0 -1 0 66)" gradientUnits="userSpaceOnUse"><stop offset="0" stop-color="#41bfec"/><stop offset=".232" stop-color="#4cc5ef"/><stop offset=".644" stop-color="#6bd4f6"/><stop offset="1" stop-color="#8ae4fd"/></linearGradient><path fill="url(#yb7~CQxEfdhJ0E_08kwJeb)" d="M32,8v40.8c-0.84,0-1.69,0.13-2.51,0.4l-0.59,0.2l-0.31,0.11l-0.18,0.06L24.16,51L24,51.05	l-11.34,3.82C12.39,54.96,12.11,55,11.84,55c-2.16,0-3.51-2.52-2.5-4.6l7.41-15.24L16.83,35l0.12-0.25l12.02-24.74	C29.62,8.67,30.81,8,32,8z"/><linearGradient id="yb7~CQxEfdhJ0E_08kwJec" x1="43.5" x2="43.5" y1="7.737" y2="60.52" gradientTransform="matrix(1 0 0 -1 0 66)" gradientUnits="userSpaceOnUse"><stop offset="0" stop-color="#155cde"/><stop offset=".122" stop-color="#196ae1"/><stop offset=".509" stop-color="#2493e9"/><stop offset=".815" stop-color="#2bacee"/><stop offset="1" stop-color="#2eb5f0"/></linearGradient><path fill="url(#yb7~CQxEfdhJ0E_08kwJec)" d="M55,51.88c0,1.64-1.19,3.12-2.84,3.12c-0.27,0-0.56-0.04-0.82-0.13L34.51,49.2	c-0.82-0.27-1.67-0.4-2.51-0.4V8c1.19,0,2.37,0.67,3.03,2.01L41.82,24l0.85,1.76l0.04,0.07L48.62,38l0.83,1.7l0.34,0.68l4.87,10.02	C54.9,50.88,55,51.4,55,51.88z"/><linearGradient id="yb7~CQxEfdhJ0E_08kwJed" x1="41.809" x2="41.809" y1="19" y2="51.913" gradientTransform="matrix(1 0 0 -1 0 66)" gradientUnits="userSpaceOnUse"><stop offset="0" stop-color="#155cde"/><stop offset=".183" stop-color="#1765e0"/><stop offset=".477" stop-color="#1e7ce5"/><stop offset=".844" stop-color="#29a3ec"/><stop offset="1" stop-color="#2eb5f0"/></linearGradient><path fill="url(#yb7~CQxEfdhJ0E_08kwJed)" d="M48.62,38H37.57c-1.51,0-2.71-1.26-2.56-2.76c0.14-1.3,1.37-2.24,2.7-2.24h2.45	c0.57,0,1.08-0.22,1.45-0.59c0.38-0.36,0.6-0.86,0.6-1.41c0-1.1-0.92-2-2.05-2h-0.54c-1.51,0-2.71-1.26-2.55-2.76	c0.13-1.3,1.36-2.24,2.7-2.24h2.05l0.85,1.76l0.04,0.07L48.62,38z"/><linearGradient id="yb7~CQxEfdhJ0E_08kwJee" x1="20.965" x2="22.127" y1="36.022" y2="47.806" gradientTransform="matrix(1 0 0 -1 0 66)" gradientUnits="userSpaceOnUse"><stop offset="0" stop-color="#81dcf7"/><stop offset=".48" stop-color="#8ce1f9"/><stop offset="1" stop-color="#9ee8fd"/></linearGradient><path fill="url(#yb7~CQxEfdhJ0E_08kwJee)" d="M29,48c0,0.22-0.03,0.43-0.07,0.63v0.01c-0.07,0.31-0.18,0.6-0.34,0.87l-0.18,0.06L24.16,51	H24v0.05l-11.34,3.82C12.39,54.96,12.11,55,11.84,55c-2.16,0-3.51-2.52-2.5-4.6l7.41-15.24L16.83,35h5.34	c1.56,0,2.83,1.27,2.83,2.83v0.34c0,1.56-1.27,2.83-2.83,2.83H20c-0.55,0-1.05,0.22-1.41,0.59C18.22,41.95,18,42.45,18,43	c0,1.1,0.9,2,2,2h6c0.89,0,1.68,0.4,2.23,1.01c0.01,0.01,0.02,0.02,0.03,0.03c0.1,0.12,0.19,0.23,0.27,0.36	c0.05,0.08,0.09,0.17,0.14,0.26c0.03,0.07,0.07,0.13,0.1,0.2c0.05,0.12,0.09,0.25,0.12,0.38C28.95,47.48,29,47.73,29,48z"/></svg>