<svg xmlns="http://www.w3.org/2000/svg"  viewBox="0 0 64 64" width="50px" height="50px"><radialGradient id="LHa5nHrPOd2Vr63hkFPMDa" cx="57" cy="59" r="5" gradientTransform="matrix(1 0 0 -1 0 66)" gradientUnits="userSpaceOnUse"><stop offset="0" stop-color="#f4e9c3"/><stop offset=".219" stop-color="#f8eecd"/><stop offset=".644" stop-color="#fdf4dc"/><stop offset="1" stop-color="#fff6e1"/></radialGradient><circle cx="57" cy="7" r="5" fill="url(#LHa5nHrPOd2Vr63hkFPMDa)"/><radialGradient id="LHa5nHrPOd2Vr63hkFPMDb" cx="32" cy="34.5" r="30.775" gradientTransform="matrix(1 0 0 -1 0 66)" gradientUnits="userSpaceOnUse"><stop offset="0" stop-color="#f4e9c3"/><stop offset=".219" stop-color="#f8eecd"/><stop offset=".644" stop-color="#fdf4dc"/><stop offset="1" stop-color="#fff6e1"/></radialGradient><path fill="url(#LHa5nHrPOd2Vr63hkFPMDb)" d="M64,40.5c0,1.52-0.62,2.9-1.61,3.89C61.4,45.38,60.02,46,58.5,46H45c-1.66,0-3,1.34-3,3	c0,0.83,0.34,1.58,0.88,2.12C43.42,51.66,44.17,52,45,52h1.5c2.49,0,4.5,2.01,4.5,4.5c0,1.24-0.5,2.37-1.32,3.18	C48.87,60.5,47.74,61,46.5,61H5c-2.21,0-4-1.79-4-4c0-1.1,0.45-2.1,1.17-2.83C2.9,53.45,3.9,53,5,53h10.5c1.93,0,3.5-1.57,3.5-3.5	c0-0.96-0.39-1.84-1.03-2.47C17.34,46.39,16.46,46,15.5,46H4c-2.21,0-4-1.79-4-4c0-1.1,0.45-2.1,1.17-2.83C1.9,38.45,2.9,38,4,38	h1.5c2.48,0,4.5-2.01,4.5-4.5c0-1.24-0.5-2.37-1.32-3.18C7.86,29.5,6.74,29,5.5,29H5c-2.76,0-5-2.24-5-5s2.24-5,5-5h5	c2.76,0,5-2.24,5-5c0-1.38-0.56-2.63-1.46-3.54C12.63,9.56,11.38,9,10,9H9.43C7.52,9,6,7.48,6,5.61V5.5C6,3.57,7.57,2,9.5,2h35	c1.93,0,3.49,1.56,3.5,3.48V5.5C48.01,7.43,46.45,9,44.52,9H46c-2.21,0-4,1.79-4,4s1.79,4,4,4h13c2.76,0,5,2.24,5,5	c0,1.38-0.56,2.63-1.46,3.54C61.63,26.44,60.38,27,59,27h-1c-2.21,0-4,1.79-4,4c0,1.1,0.45,2.1,1.17,2.83C55.9,34.55,56.9,35,58,35	h0.5C61.54,35,64,37.46,64,40.5z"/><linearGradient id="LHa5nHrPOd2Vr63hkFPMDc" x1="32" x2="32" y1="5.255" y2="64.239" gradientTransform="matrix(1 0 0 -1 0 66)" gradientUnits="userSpaceOnUse"><stop offset="0" stop-color="#155cde"/><stop offset=".158" stop-color="#196ce1"/><stop offset=".724" stop-color="#28a1ec"/><stop offset="1" stop-color="#2eb5f0"/></linearGradient><path fill="url(#LHa5nHrPOd2Vr63hkFPMDc)" d="M7.766,56.996c-0.714,0-1.43-0.253-2.003-0.768c-1.233-1.107-1.335-3.004-0.228-4.236	c2.548-2.838,5.712-2.625,7.809-2.488c1.874,0.125,2.418,0.077,2.946-0.509c0.528-0.588,0.517-1.133,0.191-2.985	c-0.363-2.067-0.911-5.192,1.636-8.029c2.546-2.836,5.712-2.626,7.808-2.485c1.875,0.125,2.417,0.079,2.943-0.507	c0.525-0.585,0.513-1.128,0.187-2.978c-0.365-2.067-0.916-5.192,1.631-8.028c2.546-2.836,5.714-2.623,7.807-2.483	c1.878,0.125,2.416,0.079,2.941-0.506c0.525-0.585,0.514-1.128,0.188-2.979c-0.364-2.067-0.914-5.192,1.632-8.027	c2.547-2.836,5.709-2.623,7.807-2.483C52.934,7.631,53.476,7.585,54,7c1.107-1.233,3.003-1.334,4.237-0.228	c1.232,1.107,1.334,3.004,0.228,4.236c-2.547,2.835-5.713,2.623-7.807,2.483c-1.875-0.124-2.416-0.08-2.94,0.505	c-0.525,0.584-0.514,1.128-0.188,2.978c0.364,2.068,0.914,5.192-1.632,8.028c-2.547,2.835-5.711,2.624-7.808,2.484	c-1.878-0.125-2.416-0.08-2.941,0.506c-0.524,0.584-0.513,1.127-0.187,2.976c0.365,2.068,0.916,5.192-1.631,8.028	c-2.546,2.838-5.712,2.622-7.808,2.486c-1.876-0.125-2.417-0.079-2.943,0.507c-0.527,0.587-0.516,1.131-0.19,2.983	c0.363,2.068,0.912,5.193-1.637,8.031c-2.547,2.837-5.712,2.624-7.809,2.487C11.069,55.364,10.526,55.412,10,56	C9.407,56.66,8.588,56.996,7.766,56.996z"/></svg>