<svg xmlns="http://www.w3.org/2000/svg"  viewBox="0 0 64 64" width="50px" height="50px"><radialGradient id="vJ4E5O5J3d0wXwVPFo_P9a" cx="30.125" cy="27.125" r="33.699" gradientUnits="userSpaceOnUse" spreadMethod="reflect"><stop offset="0" stop-color="#c5f1ff"/><stop offset=".35" stop-color="#cdf3ff"/><stop offset=".907" stop-color="#e4faff"/><stop offset="1" stop-color="#e9fbff"/></radialGradient><path fill="url(#vJ4E5O5J3d0wXwVPFo_P9a)" d="M45,8L45,8c2.209,0,4-1.791,4-4v0c0-2.209-1.791-4-4-4h0c-2.209,0-4,1.791-4,4v0 C41,6.209,42.791,8,45,8z"/><radialGradient id="vJ4E5O5J3d0wXwVPFo_P9b" cx="31" cy="32" r="31.504" gradientUnits="userSpaceOnUse" spreadMethod="reflect"><stop offset="0" stop-color="#c5f1ff"/><stop offset=".35" stop-color="#cdf3ff"/><stop offset=".907" stop-color="#e4faff"/><stop offset="1" stop-color="#e9fbff"/></radialGradient><path fill="url(#vJ4E5O5J3d0wXwVPFo_P9b)" d="M62,47.5L62,47.5c0-2.485-2.015-4.5-4.5-4.5H32c-1.105,0-2-0.895-2-2V22c0-1.105,0.895-2,2-2 h10c2.209,0,4-1.791,4-4v0c0-2.209-1.791-4-4-4H32c-1.105,0-2-0.895-2-2v0c0-1.105,0.895-2,2-2h1c2.209,0,4-1.791,4-4v0 c0-2.209-1.791-4-4-4H8.5C5.462,0,3,2.462,3,5.5v0C3,8.538,5.462,11,8.5,11h3c3.038,0,5.5,2.462,5.5,5.5v0 c0,3.038-2.462,5.5-5.5,5.5h-6C2.462,22,0,24.462,0,27.5v0C0,30.538,2.462,33,5.5,33H14c1.657,0,3,1.343,3,3v0c0,1.657-1.343,3-3,3 H6.5C4.015,39,2,41.015,2,43.5v0C2,45.985,4.015,48,6.5,48H14c2.209,0,4,1.791,4,4v0c0,2.209-1.791,4-4,4h-1c-2.209,0-4,1.791-4,4v0 c0,2.209,1.791,4,4,4h40c2.209,0,4-1.791,4-4v0c0-2.209-1.791-4-4-4h-3c-1.105,0-2-0.895-2-2v0c0-1.105,0.895-2,2-2h7.5 C59.985,52,62,49.985,62,47.5z"/><linearGradient id="vJ4E5O5J3d0wXwVPFo_P9c" x1="32" x2="32" y1="40.994" y2="-2.006" gradientUnits="userSpaceOnUse" spreadMethod="reflect"><stop offset="0" stop-color="#ff8b67"/><stop offset=".847" stop-color="#ffa76a"/><stop offset="1" stop-color="#ffad6b"/><stop offset="1" stop-color="#ffad6b"/></linearGradient><path fill="url(#vJ4E5O5J3d0wXwVPFo_P9c)" d="M26,13L26,13c0-2.209-1.791-4-4-4H12c-2.209,0-4,1.791-4,4v34c0,2.761,2.239,5,5,5h38 c2.761,0,5-2.239,5-5V21c0-2.761-2.239-5-5-5H29C27.343,16,26,14.657,26,13z"/><linearGradient id="vJ4E5O5J3d0wXwVPFo_P9d" x1="32" x2="32" y1="52" y2="16" gradientUnits="userSpaceOnUse" spreadMethod="reflect"><stop offset="0" stop-color="#ffc050"/><stop offset=".004" stop-color="#ffc050"/><stop offset=".641" stop-color="#ffbe75"/><stop offset="1" stop-color="#ffbd85"/><stop offset="1" stop-color="#ffbd85"/></linearGradient><path fill="url(#vJ4E5O5J3d0wXwVPFo_P9d)" d="M13,16h38c2.761,0,5,2.239,5,5v26c0,2.761-2.239,5-5,5H13c-2.761,0-5-2.239-5-5V21 C8,18.239,10.239,16,13,16z"/><linearGradient id="vJ4E5O5J3d0wXwVPFo_P9e" x1="27" x2="27" y1="52" y2="16" gradientUnits="userSpaceOnUse" spreadMethod="reflect"><stop offset="0" stop-color="#ffc96a"/><stop offset=".004" stop-color="#ffc96a"/><stop offset=".578" stop-color="#ffc887"/><stop offset="1" stop-color="#ffc797"/><stop offset="1" stop-color="#ffc797"/></linearGradient><path fill="url(#vJ4E5O5J3d0wXwVPFo_P9e)" d="M46,19.5L46,19.5c0-1.933-1.567-3.5-3.5-3.5H13c-2.761,0-5,2.239-5,5v2v8v7v7v2 c0,2.761,2.239,5,5,5h12.5c1.933,0,3.5-1.567,3.5-3.5v0c0-1.933-1.567-3.5-3.5-3.5h-4c-1.933,0-3.5-1.567-3.5-3.5v0 c0-1.933,1.567-3.5,3.5-3.5h8c1.933,0,3.5-1.567,3.5-3.5v0c0-1.933-1.567-3.5-3.5-3.5H25c-2.209,0-4-1.791-4-4v0 c0-2.209,1.791-4,4-4h17.5C44.433,23,46,21.433,46,19.5z"/><linearGradient id="vJ4E5O5J3d0wXwVPFo_P9f" x1="33.463" x2="29.909" y1="54.323" y2="10.183" gradientUnits="userSpaceOnUse" spreadMethod="reflect"><stop offset="0" stop-color="#155cde"/><stop offset=".278" stop-color="#1f7fe5"/><stop offset=".569" stop-color="#279ceb"/><stop offset=".82" stop-color="#2cafef"/><stop offset="1" stop-color="#2eb5f0"/></linearGradient><path fill="url(#vJ4E5O5J3d0wXwVPFo_P9f)" d="M38.5,44h-13c-0.828,0-1.5-0.672-1.5-1.5v-17c0-0.828,0.672-1.5,1.5-1.5h8.672 c0.53,0,1.039,0.211,1.414,0.586l3.828,3.828C39.789,28.789,40,29.298,40,29.828V42.5C40,43.328,39.328,44,38.5,44z"/><linearGradient id="vJ4E5O5J3d0wXwVPFo_P9g" x1="37" x2="37" y1="56.599" y2="9.394" gradientUnits="userSpaceOnUse" spreadMethod="reflect"><stop offset="0" stop-color="#7fa6ed"/><stop offset=".354" stop-color="#85bdf2"/><stop offset=".731" stop-color="#8ad0f6"/><stop offset="1" stop-color="#8cd6f7"/></linearGradient><path fill="url(#vJ4E5O5J3d0wXwVPFo_P9g)" d="M35.586,24.586C35.211,24.211,34.702,24,34.172,24H34v4.5c0,0.828,0.672,1.5,1.5,1.5H40 v-0.172c0-0.53-0.211-1.039-0.586-1.414L35.586,24.586z"/></svg>