<svg xmlns="http://www.w3.org/2000/svg"  viewBox="0 0 64 64" width="50px" height="50px"><radialGradient id="PgItZfg~0l0byo7pqLW~ua" cx="32" cy="31.5" r="31.259" gradientUnits="userSpaceOnUse" spreadMethod="reflect"><stop offset="0" stop-color="#afeeff"/><stop offset=".193" stop-color="#bbf1ff"/><stop offset=".703" stop-color="#d7f8ff"/><stop offset="1" stop-color="#e1faff"/></radialGradient><path fill="url(#PgItZfg~0l0byo7pqLW~ua)" d="M60.5,43l-10.357,0c-1.308,0-2.499-0.941-2.63-2.242C47.363,39.261,48.534,38,50,38h7.869 c1.451,0,2.789-0.972,3.071-2.395C61.319,33.693,59.848,32,58,32H42v-7h18.5c1.933,0,3.5-1.567,3.5-3.5v0c0-1.933-1.567-3.5-3.5-3.5 h-1.393c-0.996,0-1.92-0.681-2.08-1.664C56.824,15.083,57.785,14,59,14l0.357,0c1.308,0,2.499-0.941,2.63-2.242 C62.137,10.261,60.966,9,59.5,9h-15C43.672,9,43,8.328,43,7.5S43.672,6,44.5,6l3.857,0c1.308,0,2.499-0.941,2.63-2.242 C51.137,2.261,49.966,1,48.5,1L15.643,1c-1.308,0-2.499,0.941-2.63,2.242C12.863,4.739,14.034,6,15.5,6h1.393 c0.996,0,1.92,0.681,2.08,1.664C19.176,8.917,18.215,10,17,10L6.189,10c-2.086,0-3.958,1.514-4.168,3.59C1.78,15.972,3.665,18,6,18 l2.302,0c1.895,0,3.594,1.419,3.693,3.312C12.101,23.33,10.495,25,8.5,25l-3.311,0c-2.086,0-3.958,1.514-4.168,3.59 C0.78,30.972,2.665,33,5,33h17v11H6.131c-1.451,0-2.789,0.972-3.071,2.395C2.681,48.307,4.152,50,6,50 c1.215,0,2.176,1.083,1.973,2.336C7.813,53.319,6.889,54,5.893,54H4.189c-2.086,0-3.958,1.514-4.168,3.59 C-0.22,59.972,1.665,62,4,62l53.811,0c2.009,0,3.841-1.398,4.142-3.385c0.368-2.434-1.497-4.553-3.85-4.614 c-0.809-0.021-1.608-0.396-1.923-1.141C55.564,51.401,56.618,50,58,50l2.386,0c1.67,0,3.195-1.122,3.537-2.757 C64.392,44.998,62.668,43,60.5,43z"/><linearGradient id="PgItZfg~0l0byo7pqLW~ub" x1="32" x2="32" y1="59.425" y2="10.425" gradientUnits="userSpaceOnUse" spreadMethod="reflect"><stop offset="0" stop-color="#ff9757"/><stop offset="1" stop-color="#ffb65b"/><stop offset="1" stop-color="#ffb65b"/></linearGradient><path fill="url(#PgItZfg~0l0byo7pqLW~ub)" d="M54,19L32,7L10,19v33c0,2.209,1.791,4,4,4h36c2.209,0,4-1.791,4-4V19z"/><linearGradient id="PgItZfg~0l0byo7pqLW~uc" x1="21" x2="21" y1="67.039" y2="21.283" gradientUnits="userSpaceOnUse" spreadMethod="reflect"><stop offset="0" stop-color="#f9af70"/><stop offset="1" stop-color="#ffb37b"/></linearGradient><path fill="url(#PgItZfg~0l0byo7pqLW~uc)" d="M32,17.5L32,17.5c0-1.381-1.119-2.5-2.5-2.5H15c-2.761,0-5,2.239-5,5v24h9 c1.657,0,3-1.343,3-3v0c0-1.657-1.343-3-3-3h0c-1.657,0-3-1.343-3-3v0c0-1.657,1.343-3,3-3h8c1.657,0,3-1.343,3-3v0 c0-1.657-1.343-3-3-3h-3c-1.657,0-3-1.343-3-3v0c0-1.657,1.343-3,3-3h5.5C30.881,20,32,18.881,32,17.5z"/><linearGradient id="PgItZfg~0l0byo7pqLW~ud" x1="47.5" x2="47.5" y1="56" y2="31.412" gradientUnits="userSpaceOnUse" spreadMethod="reflect"><stop offset="0" stop-color="#ff8b67"/><stop offset=".847" stop-color="#ffa76a"/><stop offset="1" stop-color="#ffad6b"/><stop offset="1" stop-color="#ffad6b"/></linearGradient><path fill="url(#PgItZfg~0l0byo7pqLW~ud)" d="M54,52V39c-3.083,0-6.118,0-7.872,0c-1.451,0-2.786,0.972-3.068,2.395 C42.681,43.307,44.152,45,46,45h0.5c1.381,0,2.5,1.119,2.5,2.5c0,1.381-1.119,2.5-2.5,2.5h-2.369c-1.451,0-2.789,0.972-3.071,2.395 C40.681,54.307,42.152,56,44,56h6C52.209,56,54,54.209,54,52z"/><linearGradient id="PgItZfg~0l0byo7pqLW~ue" x1="18.786" x2="18.786" y1="36.8" y2="12.8" gradientTransform="matrix(.9333 0 0 .8333 14.467 25.333)" gradientUnits="userSpaceOnUse" spreadMethod="reflect"><stop offset="0" stop-color="#ffd791"/><stop offset=".309" stop-color="#ffda99"/><stop offset=".79" stop-color="#ffe1af"/><stop offset="1" stop-color="#ffe5bb"/></linearGradient><path fill="url(#PgItZfg~0l0byo7pqLW~ue)" d="M39,56H25V38c0-1.105,0.895-2,2-2h10c1.105,0,2,0.895,2,2V56z"/><linearGradient id="PgItZfg~0l0byo7pqLW~uf" x1="32" x2="32" y1="26" y2="5.036" gradientUnits="userSpaceOnUse" spreadMethod="reflect"><stop offset="0" stop-color="#ff634d"/><stop offset=".204" stop-color="#fe6464"/><stop offset=".521" stop-color="#fc6581"/><stop offset=".794" stop-color="#fa6694"/><stop offset=".989" stop-color="#fa669a"/><stop offset="1" stop-color="#fa669a"/></linearGradient><path fill="url(#PgItZfg~0l0byo7pqLW~uf)" d="M28.615,5.963L6.875,18.857C5.713,19.547,5,20.798,5,22.149v0 c0,2.986,3.286,4.833,5.872,3.299l21.125-12.529l21.131,12.53C55.714,26.982,59,25.136,59,22.149v0 c0-1.351-0.713-2.603-1.875-3.292L35.379,5.963C33.294,4.727,30.7,4.727,28.615,5.963z"/></svg>