<svg xmlns="http://www.w3.org/2000/svg"  viewBox="0 0 64 64" width="50px" height="50px"><radialGradient id="LJLVQkJuZHZJagApcppGKa" cx="32.001" cy="-4800" r="27.459" gradientTransform="matrix(1 0 0 -1 0 -4768)" gradientUnits="userSpaceOnUse"><stop offset="0" stop-color="#efdcb1"/><stop offset="0" stop-color="#efdcb1"/><stop offset=".092" stop-color="#f2e0b9"/><stop offset=".415" stop-color="#f9eccf"/><stop offset=".724" stop-color="#fdf4dc"/><stop offset="1" stop-color="#fff6e1"/></radialGradient><path fill="url(#LJLVQkJuZHZJagApcppGKa)" d="M58,41h2.302c1.895,0,3.594-1.419,3.693-3.312C64.101,35.67,62.495,34,60.5,34h-3.411	c-0.965,0-1.861-0.645-2.048-1.592C55,29,59.718,30.052,60.915,30.002c1.518-0.064,2.885-1.126,3.064-2.635	C64.194,25.546,62.777,24,61,24H42.698c-1.895,0-4.594-1.419-4.693-3.312C37.899,18.67,39.505,17,41.5,17H56	c1.895,0,3.594-1.419,3.693-3.312C59.799,11.67,58.194,10,56.198,10H48h-6H18v4H7.698c-1.895,0-3.594,1.419-3.693,3.312	C3.899,19.33,5.505,21,7.5,21H18v5H5.5C3.575,26,2,27.575,2,29.5S3.575,33,5.5,33H9h5.5c1.381,0,2.5,1.119,2.5,2.5	S15.881,38,14.5,38H3.17c-1.624,0-3.081,1.216-3.165,2.839C-0.086,42.569,1.29,44,3,44h4.893c0.996,0,1.92,0.681,2.08,1.664	C10.176,46.917,9.215,48,8,48H5.17c-1.624,0-3.081,1.216-3.165,2.839C1.914,52.569,3.29,54,5,54h13h8h22v-1h9.852	c1.582,0,3.003-1.162,3.137-2.738c0.151-1.78-1.252-3.27-3.002-3.262c-1.028,0.004-2.033-0.434-2.532-1.333	C54.166,43.35,55.808,41,58,41z"/><linearGradient id="LJLVQkJuZHZJagApcppGKb" x1="30" x2="30" y1="-4828.564" y2="-4773.459" gradientTransform="matrix(1 0 0 -1 0 -4768)" gradientUnits="userSpaceOnUse"><stop offset="0" stop-color="#42bfec"/><stop offset=".441" stop-color="#5ecef2"/><stop offset="1" stop-color="#88e4fc"/></linearGradient><path fill="url(#LJLVQkJuZHZJagApcppGKb)" d="M43,58H17c-3.314,0-6-2.686-6-6V12c0-3.314,2.686-6,6-6h26c3.314,0,6,2.686,6,6v40	C49,55.314,46.314,58,43,58z"/><linearGradient id="LJLVQkJuZHZJagApcppGKc" x1="32" x2="32" y1="58.511" y2="43.955" gradientUnits="userSpaceOnUse"><stop offset="0" stop-color="#34b6e8"/><stop offset="1" stop-color="#4cc6ef"/></linearGradient><circle cx="32" cy="49" r="2" fill="url(#LJLVQkJuZHZJagApcppGKc)"/><linearGradient id="LJLVQkJuZHZJagApcppGKd" x1="38.5" x2="38.5" y1="58.511" y2="43.955" gradientUnits="userSpaceOnUse"><stop offset="0" stop-color="#34b6e8"/><stop offset="1" stop-color="#4cc6ef"/></linearGradient><path fill="url(#LJLVQkJuZHZJagApcppGKd)" d="M49,47v5c0,0.2-0.01,0.39-0.03,0.58c-0.01,0.16-0.04,0.33-0.07,0.49	c-0.02,0.15-0.06,0.29-0.1,0.44v0.01c-0.04,0.16-0.09,0.32-0.15,0.48c-0.81,2.33-3.04,4-5.65,4H30c-1.1,0-2-0.9-2-2	c0-0.08,0-0.15,0.01-0.22c0.05-0.46,0.26-0.88,0.58-1.19C28.95,54.22,29.45,54,30,54h13.5c0.83,0,1.5-0.67,1.5-1.5S44.33,51,43.5,51	H39c-1.1,0-2-0.9-2-2s0.9-2,2-2H49z"/><linearGradient id="LJLVQkJuZHZJagApcppGKe" x1="20" x2="20" y1="-4826.147" y2="-4772.603" gradientTransform="matrix(1 0 0 -1 0 -4768)" gradientUnits="userSpaceOnUse"><stop offset="0" stop-color="#5ec9ef"/><stop offset=".495" stop-color="#7ad7f5"/><stop offset="1" stop-color="#9ae8fc"/></linearGradient><path fill="url(#LJLVQkJuZHZJagApcppGKe)" d="M19.5,21H11v-9c0-3.314,2.686-6,6-6h6.5C24.881,6,26,7.119,26,8.5l0,0	c0,1.381-1.119,2.5-2.5,2.5h-5c-1.381,0-2.5,1.119-2.5,2.5l0,0c0,1.381,1.119,2.5,2.5,2.5h1c1.381,0,2.5,1.119,2.5,2.5l0,0	C22,19.881,20.881,21,19.5,21z M27,17c-1.105,0-2,0.895-2,2s0.895,2,2,2s2-0.895,2-2S28.105,17,27,17z"/><linearGradient id="LJLVQkJuZHZJagApcppGKf" x1="42" x2="42" y1="55.128" y2="12.95" gradientUnits="userSpaceOnUse"><stop offset="0" stop-color="#0d47a1"/><stop offset=".365" stop-color="#135fba"/><stop offset=".734" stop-color="#1770cc"/><stop offset="1" stop-color="#1976d2"/></linearGradient><path fill="url(#LJLVQkJuZHZJagApcppGKf)" d="M45,22.109V29H28c-1.657,0-3,1.343-3,3c0,1.657,1.343,3,3,3h17v6.891	c0,1.841,2.076,2.795,3.348,1.539l10.02-9.891c0.843-0.832,0.843-2.246,0-3.078l-10.02-9.891C47.076,19.314,45,20.269,45,22.109z"/><linearGradient id="LJLVQkJuZHZJagApcppGKg" x1="18" x2="18" y1="55.128" y2="12.95" gradientUnits="userSpaceOnUse"><stop offset="0" stop-color="#0d47a1"/><stop offset=".365" stop-color="#135fba"/><stop offset=".734" stop-color="#1770cc"/><stop offset="1" stop-color="#1976d2"/></linearGradient><circle cx="18" cy="32" r="3" fill="url(#LJLVQkJuZHZJagApcppGKg)"/></svg>