<svg xmlns="http://www.w3.org/2000/svg"  viewBox="0 0 48 48" width="50px" height="50px"><radialGradient id="3GCAsD6x8d8XKSxm5Un6Da" cx="11.301" cy="2.99" r="49.147" gradientUnits="userSpaceOnUse"><stop offset="0" stop-color="#ffcf54"/><stop offset=".261" stop-color="#fdcb4d"/><stop offset=".639" stop-color="#f7c13a"/><stop offset="1" stop-color="#f0b421"/></radialGradient><path fill="url(#3GCAsD6x8d8XKSxm5Un6Da)" d="M26.7,25.2L23,19C22.4,11.4,18.1,4,7,4v39.9h5c1.105,0,2-0.895,2-2v-2.5l2.6,0.5	c2.9,0.6,5.6-1.5,5.8-4.4L23,29l2.9-1.2C26.9,27.4,27.3,26.2,26.7,25.2z"/><path fill="#199be2" d="M39.419,34c0,3.948-1.937,7.436-4.905,9.592l2.942,2.942c0.606,0.606,1.588,0.615,2.205,0.021	C42.952,43.382,45,38.931,45,34s-2.048-9.382-5.339-12.554c-0.617-0.594-1.599-0.585-2.205,0.021l-2.942,2.942	C37.482,26.564,39.419,30.052,39.419,34z"/><path fill="#35c1f1" d="M39.419,34c0-3.948-1.937-7.436-4.905-9.592l-4.036,4.036c1.996,1.051,3.359,3.143,3.359,5.556	s-1.363,4.505-3.359,5.556l4.036,4.036C37.482,41.436,39.419,37.948,39.419,34z"/><path fill="#50e6ff" d="M26.772,35.85l3.706,3.706c1.996-1.051,3.359-3.143,3.359-5.556s-1.363-4.505-3.359-5.556	l-3.706,3.706C25.751,33.172,25.751,34.828,26.772,35.85z"/></svg>