<svg xmlns="http://www.w3.org/2000/svg"  viewBox="0 0 48 48" width="50px" height="50px"><linearGradient id="Tj4hGtuM1X_5esgTLprlAa" x1="-48.604" x2="-62.919" y1="621.007" y2="635.322" gradientTransform="rotate(180 -12.81 330.805)" gradientUnits="userSpaceOnUse"><stop offset=".365" stop-color="#199ae0"/><stop offset=".699" stop-color="#1898de"/><stop offset=".819" stop-color="#1691d8"/><stop offset=".905" stop-color="#1186cc"/><stop offset=".974" stop-color="#0a75bc"/><stop offset="1" stop-color="#076cb3"/></linearGradient><path fill="url(#Tj4hGtuM1X_5esgTLprlAa)" d="M43.799,25.901L28.315,41.384c-0.774,0.774-2.028,0.774-2.802,0l-3.312-3.312 c-0.774-0.774-0.774-2.028,0-2.802l15.483-15.483c0.774-0.774,2.028-0.774,2.802,0l3.312,3.312 C44.572,23.873,44.572,25.127,43.799,25.901z"/><linearGradient id="Tj4hGtuM1X_5esgTLprlAb" x1="-67.656" x2="-49.223" y1="634.162" y2="652.594" gradientTransform="rotate(180 -12.81 330.805)" gradientUnits="userSpaceOnUse"><stop offset="0" stop-color="#32bdef"/><stop offset="1" stop-color="#1ea2e4"/></linearGradient><path fill="url(#Tj4hGtuM1X_5esgTLprlAb)" d="M37.685,29.213L22.201,13.729c-0.774-0.774-0.774-2.028,0-2.802l3.312-3.312 c0.774-0.774,2.028-0.774,2.802,0l15.483,15.483c0.774,0.774,0.774,2.028,0,2.802l-3.312,3.312 C39.713,29.986,38.459,29.986,37.685,29.213z"/><linearGradient id="Tj4hGtuM1X_5esgTLprlAc" x1="-30.604" x2="-44.919" y1="621.007" y2="635.322" gradientTransform="rotate(180 -12.81 330.805)" gradientUnits="userSpaceOnUse"><stop offset=".365" stop-color="#199ae0"/><stop offset=".699" stop-color="#1898de"/><stop offset=".819" stop-color="#1691d8"/><stop offset=".905" stop-color="#1186cc"/><stop offset=".974" stop-color="#0a75bc"/><stop offset="1" stop-color="#076cb3"/></linearGradient><path fill="url(#Tj4hGtuM1X_5esgTLprlAc)" d="M25.799,25.901L10.315,41.384c-0.774,0.774-2.028,0.774-2.802,0l-3.312-3.312 c-0.774-0.774-0.774-2.028,0-2.802l15.483-15.483c0.774-0.774,2.028-0.774,2.802,0l3.312,3.312 C26.572,23.873,26.572,25.127,25.799,25.901z"/><linearGradient id="Tj4hGtuM1X_5esgTLprlAd" x1="-49.656" x2="-31.223" y1="634.162" y2="652.594" gradientTransform="rotate(180 -12.81 330.805)" gradientUnits="userSpaceOnUse"><stop offset="0" stop-color="#32bdef"/><stop offset="1" stop-color="#1ea2e4"/></linearGradient><path fill="url(#Tj4hGtuM1X_5esgTLprlAd)" d="M19.685,29.213L4.201,13.729c-0.774-0.774-0.774-2.028,0-2.802l3.312-3.312 c0.774-0.774,2.028-0.774,2.802,0l15.483,15.483c0.774,0.774,0.774,2.028,0,2.802l-3.312,3.312 C21.713,29.986,20.459,29.986,19.685,29.213z"/></svg>