<svg xmlns="http://www.w3.org/2000/svg"  viewBox="0 0 64 64" width="50px" height="50px"><radialGradient id="fggtW5EEu24m3PPLa8lf8a" cx="224" cy="30.5" r="31.259" gradientTransform="rotate(180 128 31.5)" gradientUnits="userSpaceOnUse" spreadMethod="reflect"><stop offset="0" stop-color="#eed7a2"/><stop offset=".106" stop-color="#f1dcab"/><stop offset=".437" stop-color="#f8e8c3"/><stop offset=".744" stop-color="#fcefd2"/><stop offset="1" stop-color="#fef2d7"/></radialGradient><path fill="url(#fggtW5EEu24m3PPLa8lf8a)" d="M5,10c1.105,0,2,0.895,2,2c0,1.105-0.895,2-2,2H3.5C1.575,14,0,15.575,0,17.5S1.575,21,3.5,21 H14c1.381,0,2.5,1.119,2.5,2.5c0,1.381-1.119,2.5-2.5,2.5H6c-1.65,0-3,1.35-3,3c0,1.65,1.35,3,3,3h16v6H4 c-2.335,0-4.22,2.028-3.979,4.41C0.23,44.486,2.103,46,4.189,46H9c1.105,0,2,0.895,2,2c0,1.105-0.895,2-2,2H8.643 c-1.308,0-2.499,0.941-2.63,2.242C5.863,53.739,7.034,55,8.5,55h11c0.828,0,1.5,0.672,1.5,1.5S20.328,58,19.5,58h-3.857 c-1.308,0-2.499,0.941-2.63,2.242C12.863,61.739,14.034,63,15.5,63l32.857,0c1.308,0,2.499-0.941,2.63-2.242 C51.137,59.261,49.966,58,48.5,58H45c-1.105,0-2-0.895-2-2c0-1.105,0.895-2,2-2h12.811c2.086,0,3.958-1.514,4.168-3.59 C62.22,48.028,60.335,46,58,46h-2.5c-1.933,0-3.5-1.567-3.5-3.5c0-1.933,1.567-3.5,3.5-3.5h3.311c2.086,0,3.958-1.514,4.168-3.59 C63.22,33.028,61.335,31,59,31H42V20h16c1.65,0,3-1.35,3-3c0-1.65-1.35-3-3-3h0c-1.105,0-2-0.895-2-2c0-1.105,0.895-2,2-2h1.811 c2.086,0,3.958-1.514,4.168-3.59C64.22,4.028,62.335,2,60,2H5.189C3.103,2,1.231,3.514,1.021,5.59C0.78,7.972,2.665,10,5,10z"/><linearGradient id="fggtW5EEu24m3PPLa8lf8b" x1="32" x2="32" y1="65.389" y2="16.896" gradientUnits="userSpaceOnUse" spreadMethod="reflect"><stop offset="0" stop-color="#3cb5ea"/><stop offset="1" stop-color="#7ddefb"/></linearGradient><path fill="url(#fggtW5EEu24m3PPLa8lf8b)" d="M50,9H14c-2.209,0-4,1.791-4,4v33c0,2.209,1.791,4,4,4h12l4.42,6.188 C30.784,56.697,31.372,57,31.998,57h0.003c0.627,0,1.214-0.303,1.579-0.812L38,50h12c2.209,0,4-1.791,4-4V13 C54,10.791,52.209,9,50,9z"/><linearGradient id="fggtW5EEu24m3PPLa8lf8c" x1="32" x2="32" y1="15.777" y2="9.827" gradientUnits="userSpaceOnUse" spreadMethod="reflect"><stop offset="0" stop-color="#2875e3"/><stop offset=".014" stop-color="#2876e3"/><stop offset=".588" stop-color="#2e88e7"/><stop offset="1" stop-color="#308ee8"/></linearGradient><path fill="url(#fggtW5EEu24m3PPLa8lf8c)" d="M10,13v4h44v-4c0-2.209-1.791-4-4-4H14C11.791,9,10,10.791,10,13z"/><linearGradient id="fggtW5EEu24m3PPLa8lf8d" x1="20.5" x2="20.5" y1="58.125" y2="14.53" gradientUnits="userSpaceOnUse" spreadMethod="reflect"><stop offset="0" stop-color="#0d47a1"/><stop offset=".365" stop-color="#135fba"/><stop offset=".734" stop-color="#1770cc"/><stop offset="1" stop-color="#1976d2"/></linearGradient><path fill="url(#fggtW5EEu24m3PPLa8lf8d)" d="M32,26H17.985c-1.765,0-2.648,2.133-1.401,3.381l4.517,4.517L8.035,46.964 c-1.381,1.381-1.381,3.619,0,5v0c1.381,1.381,3.619,1.381,5,0l13.066-13.066l4.517,4.517C31.867,44.664,34,43.78,34,42.015V28 C34,26.895,33.105,26,32,26z"/></svg>