<svg xmlns="http://www.w3.org/2000/svg"  viewBox="0 0 64 64" width="50px" height="50px"><radialGradient id="O7~TzoQBBxG43yUHyiUqaa" cx="32" cy="32" r="32" gradientUnits="userSpaceOnUse" spreadMethod="reflect"><stop offset="0" stop-color="#f4e9c3"/><stop offset=".219" stop-color="#f8eecd"/><stop offset=".644" stop-color="#fdf4dc"/><stop offset="1" stop-color="#fff6e1"/></radialGradient><path fill="url(#O7~TzoQBBxG43yUHyiUqaa)" d="M56,3.5C56,1.567,57.567,0,59.5,0S63,1.567,63,3.5S61.433,7,59.5,7S56,5.433,56,3.5z M4,56 c-2.209,0-4,1.791-4,4c0,2.209,1.791,4,4,4s4-1.791,4-4C8,57.791,6.209,56,4,56z M12,16l-8.386,0c-1.67,0-3.195,1.122-3.537,2.757 C-0.392,21.002,1.332,23,3.5,23l0.912,0c1.139,0,2.202,0.721,2.497,1.821C7.355,26.484,6.096,28,4.5,28h0C2.015,28,0,30.015,0,32.5 l0,0C0,34.985,2.015,37,4.5,37h2.33c1.624,0,3.081,1.216,3.166,2.839C10.086,41.569,8.71,43,7,43l-1.302,0 c-1.895,0-3.594,1.419-3.693,3.312C1.899,48.33,3.505,50,5.5,50l11.33,0c1.624,0,3.081,1.216,3.166,2.839 C20.086,54.569,18.71,56,17,56l-1.828,0c-2.089,0-3.955,1.527-4.153,3.607C10.791,61.993,12.661,64,15,64l35.828,0 c2.089,0,3.955-1.527,4.153-3.607C55.209,58.007,53.339,56,51,56l-1.828,0c-2.089,0-3.955-1.527-4.153-3.607 C44.791,50.007,46.661,48,49,48l10.307,0c2.35,0,4.449-1.718,4.672-4.058C64.235,41.258,62.131,39,59.5,39l-0.802,0 c-1.895,0-3.594-1.419-3.693-3.312C54.899,33.67,56.505,32,58.5,32l1.328,0c2.089,0,3.955-1.527,4.153-3.607 C64.209,26.007,62.339,24,60,24l-7.357,0c-1.308,0-2.499-0.941-2.63-2.242C49.863,20.261,51.034,19,52.5,19l1.328,0 c2.089,0,3.955-1.527,4.153-3.607C58.209,13.007,56.339,11,54,11l-4.893,0c-0.996,0-1.92-0.681-2.08-1.664 C46.824,8.083,47.785,7,49,7l0.302,0c1.895,0,3.594-1.419,3.693-3.312C53.101,1.67,51.495,0,49.5,0H24.357H12.5L6.236,0 c-2.607,0-4.948,1.893-5.21,4.487C0.725,7.465,3.081,10,6,10l6,0c1.657,0,3,1.343,3,3v0C15,14.657,13.657,16,12,16z"/><linearGradient id="O7~TzoQBBxG43yUHyiUqab" x1="32" x2="32" y1="8" y2="56" gradientUnits="userSpaceOnUse" spreadMethod="reflect"><stop offset="0" stop-color="#42d778"/><stop offset=".428" stop-color="#3dca76"/><stop offset="1" stop-color="#34b171"/></linearGradient><path fill="url(#O7~TzoQBBxG43yUHyiUqab)" d="M52.908,39H47h-5.929c-1.326,0-2.598,0.527-3.536,1.464l-2.917,2.917 c-5.801-3.356-10.644-8.199-14-14l2.917-2.917C24.473,25.527,25,24.255,25,22.929V17v-5.908C25,9.384,23.616,8,21.908,8H11.092 C9.384,8,8,9.384,8,11.092v1.985c0,3.522,0.419,7.044,1.417,10.422c4.41,14.916,16.168,26.674,31.084,31.084 C43.879,55.581,47.401,56,50.923,56h1.985C54.616,56,56,54.616,56,52.908V42.092C56,40.384,54.616,39,52.908,39z"/></svg>