<svg xmlns="http://www.w3.org/2000/svg"  viewBox="0 0 48 48" width="50px" height="50px"><linearGradient id="1Tj77KVr84vZZRnDi8jK~a" x1="20.362" x2="12.401" y1="16.277" y2="16.277" gradientUnits="userSpaceOnUse"><stop offset="0" stop-color="#0362b0"/><stop offset=".112" stop-color="#036abd"/><stop offset=".258" stop-color="#036fc5"/><stop offset=".5" stop-color="#0370c8"/><stop offset=".742" stop-color="#036fc5"/><stop offset=".888" stop-color="#036abd"/><stop offset="1" stop-color="#0362b0"/></linearGradient><path fill="url(#1Tj77KVr84vZZRnDi8jK~a)" d="M12,13.277h4.5c0.276,0,0.5,0.224,0.5,0.5v5c0,0.276-0.224,0.5-0.5,0.5H12V13.277z"/><linearGradient id="1Tj77KVr84vZZRnDi8jK~b" x1="25.851" x2="35.558" y1="16.277" y2="16.277" gradientUnits="userSpaceOnUse"><stop offset="0" stop-color="#0362b0"/><stop offset=".112" stop-color="#036abd"/><stop offset=".258" stop-color="#036fc5"/><stop offset=".5" stop-color="#0370c8"/><stop offset=".742" stop-color="#036fc5"/><stop offset=".888" stop-color="#036abd"/><stop offset="1" stop-color="#0362b0"/></linearGradient><path fill="url(#1Tj77KVr84vZZRnDi8jK~b)" d="M31.5,13.277H36v6h-4.5c-0.276,0-0.5-0.224-0.5-0.5v-5C31,13.5,31.224,13.277,31.5,13.277z"/><linearGradient id="1Tj77KVr84vZZRnDi8jK~c" x1="9" x2="9" y1="-42.384" y2="-68.062" gradientTransform="translate(0 87.894)" gradientUnits="userSpaceOnUse"><stop offset="0" stop-color="#32bdef"/><stop offset="1" stop-color="#1ea2e4"/></linearGradient><path fill="url(#1Tj77KVr84vZZRnDi8jK~c)" d="M12,21.447c0-0.552-0.448-1-1-1H7c-0.552,0-1,0.448-1,1V36.79	c0,1.061,0.421,2.078,1.172,2.829L12,44.447V21.447z"/><linearGradient id="1Tj77KVr84vZZRnDi8jK~d" x1="12" x2="36" y1="-46.447" y2="-46.447" gradientTransform="translate(0 87.894)" gradientUnits="userSpaceOnUse"><stop offset="0" stop-color="#0362b0"/><stop offset=".112" stop-color="#036abd"/><stop offset=".258" stop-color="#036fc5"/><stop offset=".5" stop-color="#0370c8"/><stop offset=".742" stop-color="#036fc5"/><stop offset=".888" stop-color="#036abd"/><stop offset="1" stop-color="#0362b0"/></linearGradient><rect width="24" height="6" x="12" y="38.447" fill="url(#1Tj77KVr84vZZRnDi8jK~d)"/><linearGradient id="1Tj77KVr84vZZRnDi8jK~e" x1="173" x2="173" y1="-42.384" y2="-68.062" gradientTransform="matrix(-1 0 0 1 212 87.894)" gradientUnits="userSpaceOnUse"><stop offset="0" stop-color="#32bdef"/><stop offset="1" stop-color="#1ea2e4"/></linearGradient><path fill="url(#1Tj77KVr84vZZRnDi8jK~e)" d="M36,44.447l4.828-4.828C41.579,38.868,42,37.851,42,36.79V21.447c0-0.552-0.448-1-1-1h-4	c-0.552,0-1,0.448-1,1V44.447z"/><linearGradient id="1Tj77KVr84vZZRnDi8jK~f" x1="39" x2="39" y1="-68.13" y2="-79.899" gradientTransform="matrix(1 0 0 -1 0 -55.34)" gradientUnits="userSpaceOnUse"><stop offset="0" stop-color="#32bdef"/><stop offset="1" stop-color="#1ea2e4"/></linearGradient><path fill="url(#1Tj77KVr84vZZRnDi8jK~f)" d="M40.828,18.105L36,13.277v10c0,0.552,0.448,1,1,1h4c0.552,0,1-0.448,1-1v-2.343	C42,19.873,41.579,18.856,40.828,18.105z"/><linearGradient id="1Tj77KVr84vZZRnDi8jK~g" x1="147" x2="147" y1="-68.13" y2="-79.899" gradientTransform="rotate(180 78 -27.67)" gradientUnits="userSpaceOnUse"><stop offset="0" stop-color="#32bdef"/><stop offset="1" stop-color="#1ea2e4"/></linearGradient><path fill="url(#1Tj77KVr84vZZRnDi8jK~g)" d="M6,20.934v2.343c0,0.552,0.448,1,1,1h4c0.552,0,1-0.448,1-1v-10l-4.828,4.828	C6.421,18.856,6,19.873,6,20.934z"/><linearGradient id="1Tj77KVr84vZZRnDi8jK~h" x1="22.262" x2="29.279" y1="-18.676" y2="-46.894" gradientTransform="matrix(1 0 0 -1 0 -18)" gradientUnits="userSpaceOnUse"><stop offset="0" stop-color="#32bdef"/><stop offset="1" stop-color="#1ea2e4"/></linearGradient><path fill="url(#1Tj77KVr84vZZRnDi8jK~h)" d="M31.789,7.168L25.061,0.44c-0.586-0.586-1.536-0.586-2.121,0l-6.728,6.728	c-0.448,0.447-0.131,1.211,0.501,1.211H21v19c0,0.552,0.448,1,1,1h4c0.552,0,1-0.448,1-1v-19h4.287	C31.919,8.379,32.236,7.615,31.789,7.168z"/></svg>