<svg xmlns="http://www.w3.org/2000/svg"  viewBox="0 0 64 64" width="50px" height="50px"><radialGradient id="~q2i83kNH9iSrVXcZ24oCa" cx="36.833" cy="35.917" r="26" gradientUnits="userSpaceOnUse" spreadMethod="reflect"><stop offset="0" stop-color="#afeeff"/><stop offset=".193" stop-color="#bbf1ff"/><stop offset=".703" stop-color="#d7f8ff"/><stop offset="1" stop-color="#e1faff"/></radialGradient><path fill="url(#~q2i83kNH9iSrVXcZ24oCa)" d="M10,8L10,8c2.209,0,4-1.791,4-4v0c0-2.209-1.791-4-4-4h0C7.791,0,6,1.791,6,4v0 C6,6.209,7.791,8,10,8z"/><radialGradient id="~q2i83kNH9iSrVXcZ24oCb" cx="31.417" cy="29.917" r="28.77" gradientUnits="userSpaceOnUse" spreadMethod="reflect"><stop offset="0" stop-color="#afeeff"/><stop offset=".193" stop-color="#bbf1ff"/><stop offset=".703" stop-color="#d7f8ff"/><stop offset="1" stop-color="#e1faff"/></radialGradient><path fill="url(#~q2i83kNH9iSrVXcZ24oCb)" d="M7.5,64L7.5,64c1.933,0,3.5-1.567,3.5-3.5v0c0-1.933-1.567-3.5-3.5-3.5h0 C5.567,57,4,58.567,4,60.5v0C4,62.433,5.567,64,7.5,64z"/><radialGradient id="~q2i83kNH9iSrVXcZ24oCc" cx="32.5" cy="32" r="30.775" gradientUnits="userSpaceOnUse" spreadMethod="reflect"><stop offset="0" stop-color="#afeeff"/><stop offset=".193" stop-color="#bbf1ff"/><stop offset=".703" stop-color="#d7f8ff"/><stop offset="1" stop-color="#e1faff"/></radialGradient><path fill="url(#~q2i83kNH9iSrVXcZ24oCc)" d="M62,20.5L62,20.5c0-2.485-2.015-4.5-4.5-4.5H44c-2.209,0-4-1.791-4-4v0c0-2.209,1.791-4,4-4 h2c2.209,0,4-1.791,4-4v0c0-2.209-1.791-4-4-4L22,0c-2.209,0-4,1.791-4,4v0c0,2.209,1.791,4,4,4h2c1.657,0,3,1.343,3,3v0 c0,1.657-1.343,3-3,3H10.5C8.567,14,7,15.567,7,17.5v0c0,1.933,1.567,3.5,3.5,3.5H13c1.657,0,3,1.343,3,3v0c0,1.657-1.343,3-3,3H8 c-2.761,0-5,2.239-5,5v0c0,2.761,2.239,5,5,5h5.5c1.933,0,3.5,1.567,3.5,3.5v0c0,1.933-1.567,3.5-3.5,3.5H9c-2.209,0-4,1.791-4,4v0 c0,2.209,1.791,4,4,4h8.5c1.381,0,2.5,1.119,2.5,2.5v0c0,1.381-1.119,2.5-2.5,2.5h0c-1.933,0-3.5,1.567-3.5,3.5v0 c0,1.933,1.567,3.5,3.5,3.5h30c1.933,0,3.5-1.567,3.5-3.5v0c0-1.933-1.567-3.5-3.5-3.5H47c-1.105,0-2-0.895-2-2v0 c0-1.105,0.895-2,2-2h7c2.209,0,4-1.791,4-4v0c0-2.209-1.791-4-4-4h-6.5c-1.381,0-2.5-1.119-2.5-2.5v0c0-1.381,1.119-2.5,2.5-2.5 H48c2.209,0,4-1.791,4-4v0c0-2.209-1.791-4-4-4h-1.5c-1.933,0-3.5-1.567-3.5-3.5v0c0-1.933,1.567-3.5,3.5-3.5h11 C59.985,25,62,22.985,62,20.5z"/><radialGradient id="~q2i83kNH9iSrVXcZ24oCd" cx="35.917" cy="35.417" r="27.938" gradientUnits="userSpaceOnUse" spreadMethod="reflect"><stop offset="0" stop-color="#afeeff"/><stop offset=".193" stop-color="#bbf1ff"/><stop offset=".703" stop-color="#d7f8ff"/><stop offset="1" stop-color="#e1faff"/></radialGradient><path fill="url(#~q2i83kNH9iSrVXcZ24oCd)" d="M59,40L59,40c-2.209,0-4-1.791-4-4v0c0-2.209,1.791-4,4-4h0c2.209,0,4,1.791,4,4v0 C63,38.209,61.209,40,59,40z"/><linearGradient id="~q2i83kNH9iSrVXcZ24oCe" x1="32" x2="32" y1="6" y2="29" gradientUnits="userSpaceOnUse" spreadMethod="reflect"><stop offset="0" stop-color="#a4a4a4"/><stop offset=".63" stop-color="#7f7f7f"/><stop offset="1" stop-color="#6f6f6f"/><stop offset="1" stop-color="#6f6f6f"/></linearGradient><path fill="url(#~q2i83kNH9iSrVXcZ24oCe)" d="M32,6c-7.18,0-13,5.82-13,13v10h5V19c0-4.411,3.589-8,8-8s8,3.589,8,8v10h5V19 C45,11.82,39.18,6,32,6z"/><linearGradient id="~q2i83kNH9iSrVXcZ24oCf" x1="32" x2="32" y1="57" y2="25" gradientUnits="userSpaceOnUse" spreadMethod="reflect"><stop offset="0" stop-color="#ff9757"/><stop offset="1" stop-color="#ffb65b"/><stop offset="1" stop-color="#ffb65b"/></linearGradient><path fill="url(#~q2i83kNH9iSrVXcZ24oCf)" d="M49,57H15c-1.657,0-3-1.343-3-3V35c0-5.523,4.477-10,10-10h20c5.523,0,10,4.477,10,10v19 C52,55.657,50.657,57,49,57z"/><linearGradient id="~q2i83kNH9iSrVXcZ24oCg" x1="32" x2="32" y1="34" y2="50" gradientUnits="userSpaceOnUse" spreadMethod="reflect"><stop offset="0" stop-color="#a4a4a4"/><stop offset=".63" stop-color="#7f7f7f"/><stop offset="1" stop-color="#6f6f6f"/><stop offset="1" stop-color="#6f6f6f"/></linearGradient><path fill="url(#~q2i83kNH9iSrVXcZ24oCg)" d="M37,39c0-2.761-2.239-5-5-5s-5,2.239-5,5c0,2.049,1.236,3.806,3,4.578V48c0,1.105,0.895,2,2,2 s2-0.895,2-2v-4.422C35.764,42.806,37,41.049,37,39z"/><linearGradient id="~q2i83kNH9iSrVXcZ24oCh" x1="-770.5" x2="-770.5" y1="793.875" y2="807.944" gradientTransform="rotate(180 -366 416)" gradientUnits="userSpaceOnUse" spreadMethod="reflect"><stop offset="0" stop-color="#ffc050"/><stop offset=".004" stop-color="#ffc050"/><stop offset=".641" stop-color="#ffbe75"/><stop offset="1" stop-color="#ffbd85"/><stop offset="1" stop-color="#ffbd85"/></linearGradient><path fill="url(#~q2i83kNH9iSrVXcZ24oCh)" d="M38.5,25L38.5,25c1.381,0,2.5,1.119,2.5,2.5v0c0,1.381-1.119,2.5-2.5,2.5h0 c-1.381,0-2.5-1.119-2.5-2.5v0C36,26.119,37.119,25,38.5,25z"/><linearGradient id="~q2i83kNH9iSrVXcZ24oCi" x1="-755" x2="-755" y1="786.542" y2="809.208" gradientTransform="rotate(180 -366 416)" gradientUnits="userSpaceOnUse" spreadMethod="reflect"><stop offset="0" stop-color="#ffc050"/><stop offset=".004" stop-color="#ffc050"/><stop offset=".641" stop-color="#ffbe75"/><stop offset="1" stop-color="#ffbd85"/><stop offset="1" stop-color="#ffbd85"/></linearGradient><path fill="url(#~q2i83kNH9iSrVXcZ24oCi)" d="M12,35v4l9.357,0c1.308,0,2.499-0.941,2.63-2.242C24.137,35.261,22.966,34,21.5,34h-0.393 c-0.996,0-1.92-0.681-2.08-1.664C18.824,31.083,19.785,30,21,30l10.357,0c1.308,0,2.499-0.941,2.63-2.242 C34.137,26.261,32.966,25,31.5,25H22C16.477,25,12,29.477,12,35z"/><linearGradient id="~q2i83kNH9iSrVXcZ24oCj" x1="44.5" x2="44.5" y1="57" y2="32.367" gradientUnits="userSpaceOnUse" spreadMethod="reflect"><stop offset="0" stop-color="#ff8b67"/><stop offset=".847" stop-color="#ffa76a"/><stop offset="1" stop-color="#ffad6b"/><stop offset="1" stop-color="#ffad6b"/></linearGradient><path fill="url(#~q2i83kNH9iSrVXcZ24oCj)" d="M41,43L41,43c0,1.657,1.343,3,3,3h0.5c1.381,0,2.5,1.119,2.5,2.5v0 c0,1.381-1.119,2.5-2.5,2.5H40c-1.657,0-3,1.343-3,3v0c0,1.657,1.343,3,3,3h9c1.657,0,3-1.343,3-3V40h-8C42.343,40,41,41.343,41,43z"/></svg>