<svg xmlns="http://www.w3.org/2000/svg"  viewBox="0 0 64 64" width="50px" height="50px"><radialGradient id="FloOH36NEh_ZOGMArBsuAa" cx="25.128" cy="34.12" r="32.623" gradientTransform="matrix(1 0 0 -1 0 66)" gradientUnits="userSpaceOnUse"><stop offset="0" stop-color="#f4e9c3"/><stop offset=".219" stop-color="#f8eecd"/><stop offset=".644" stop-color="#fdf4dc"/><stop offset="1" stop-color="#fff6e1"/></radialGradient><path fill="url(#FloOH36NEh_ZOGMArBsuAa)" d="M60.5,32c2.168,0,3.892-1.998,3.422-4.243C63.58,26.122,62.056,25,60.385,25H43v-7h14.386	c1.67,0,3.195-1.122,3.537-2.757C61.392,12.997,59.668,11,57.5,11H46c-1.105,0-2-0.895-2-2s0.895-2,2-2h4.385	c1.67,0,3.195-1.122,3.537-2.757C54.392,1.998,52.668,0,50.5,0H10.615C8.944,0,7.42,1.122,7.078,2.757C6.608,5.002,8.332,7,10.5,7	H13c1.105,0,2,0.895,2,2s-0.895,2-2,2H6.615c-1.67,0-3.195,1.122-3.537,2.757C2.608,16.002,4.332,18,6.5,18H22v15H3.614	c-1.67,0-3.195,1.122-3.537,2.757C-0.392,38.002,1.332,40,3.5,40H4c1.105,0,2,0.895,2,2s-0.895,2-2,2H3.615	c-1.67,0-3.195,1.122-3.537,2.757C-0.392,49.002,1.332,51,3.5,51h21.115C25.932,51,27,52.068,27,53.385v0.229	C27,54.932,25.932,56,24.615,56h-5c-1.67,0-3.195,1.122-3.537,2.757C15.608,61.002,17.332,63,19.5,63h38.885	c1.67,0,3.195-1.122,3.537-2.757C62.392,57.998,60.668,56,58.5,56h-3.115C54.068,56,53,54.932,53,53.615v-0.229	C53,52.068,54.068,51,55.385,51H56.5c1.933,0,3.5-1.567,3.5-3.5S58.433,44,56.5,44h-1H51h-8V32H60.5z"/><linearGradient id="FloOH36NEh_ZOGMArBsuAb" x1="39.5" x2="39.5" y1="9443.675" y2="9477.193" gradientTransform="translate(0 -9414)" gradientUnits="userSpaceOnUse"><stop offset="0" stop-color="#40daf2"/><stop offset="1" stop-color="#1ba7dd"/></linearGradient><path fill="url(#FloOH36NEh_ZOGMArBsuAb)" d="M51,33H28c-2.2,0-4,1.8-4,4v13c0,2.2,1.8,4,4,4h17.901c1.09,0,2.093,0.591,2.622,1.543	l1.692,3.045c0.402,0.723,1.097,1.278,1.917,1.388C53.679,60.184,55,58.987,55,57.482V50V37C55,34.8,53.2,33,51,33z"/><linearGradient id="FloOH36NEh_ZOGMArBsuAc" x1="28.5" x2="28.5" y1="9460" y2="9417.088" gradientTransform="translate(0 -9414)" gradientUnits="userSpaceOnUse"><stop offset="0" stop-color="#155cde"/><stop offset=".007" stop-color="#155dde"/><stop offset=".459" stop-color="#238ce8"/><stop offset=".804" stop-color="#2baaee"/><stop offset="1" stop-color="#2eb5f0"/></linearGradient><path fill="url(#FloOH36NEh_ZOGMArBsuAc)" d="M45,9H12c-2.2,0-4,1.8-4,4v20v5v4.688c0,1.47,0.932,2.85,2.356,3.212	c1.428,0.363,2.862-0.292,3.543-1.519l2.402-4.323C17.007,38.788,18.345,38,19.798,38H45c2.2,0,4-1.8,4-4V13C49,10.8,47.2,9,45,9z"/><linearGradient id="FloOH36NEh_ZOGMArBsuAd" x1="81.34" x2="27.575" y1="9452.5" y2="9452.5" gradientTransform="translate(0 -9414)" gradientUnits="userSpaceOnUse"><stop offset="0" stop-color="#40daf2"/><stop offset=".17" stop-color="#34caeb"/><stop offset=".439" stop-color="#26b6e3"/><stop offset=".714" stop-color="#1eabdf"/><stop offset="1" stop-color="#1ba7dd"/></linearGradient><path fill="url(#FloOH36NEh_ZOGMArBsuAd)" d="M45,44c4.873,0,8.937-3.506,9.818-8.126C54.326,34.221,52.807,33,51,33h-2v1c0,2.2-1.8,4-4,4	H24v6H45z"/><line x1="16.5" x2="40.5" y1="16.5" y2="16.5" fill="none" stroke="#fff" stroke-linecap="round" stroke-linejoin="round" stroke-miterlimit="10" stroke-width="3"/><line x1="16.5" x2="40.5" y1="23.5" y2="23.5" fill="none" stroke="#fff" stroke-linecap="round" stroke-linejoin="round" stroke-miterlimit="10" stroke-width="3"/><line x1="16.5" x2="27.5" y1="30.5" y2="30.5" fill="none" stroke="#fff" stroke-linecap="round" stroke-linejoin="round" stroke-miterlimit="10" stroke-width="3"/></svg>