<svg xmlns="http://www.w3.org/2000/svg"  viewBox="0 0 64 64" width="50px" height="50px"><radialGradient id="xMW6Rpl3e0wc0_88WkIX3a" cx="32.705" cy="32.575" r="57.221" gradientTransform="matrix(1 0 0 -1 0 66)" gradientUnits="userSpaceOnUse"><stop offset="0" stop-color="#afeeff"/><stop offset=".193" stop-color="#bbf1ff"/><stop offset=".703" stop-color="#d7f8ff"/><stop offset="1" stop-color="#e1faff"/></radialGradient><path fill="url(#xMW6Rpl3e0wc0_88WkIX3a)" d="M53.01,49.78c-0.07,0.92,0.28,1.75,0.87,2.34C54.42,52.66,55.17,53,56,53h4	c1.1,0,2.1,0.45,2.83,1.17c0.66,0.67,1.1,1.57,1.17,2.57c0.15,2.34-1.89,4.26-4.23,4.26H4.61c-1,0-1.9-0.4-2.55-1.05	C1.4,59.3,1,58.4,1,57.4C1,55.52,2.52,54,4.43,54h7.07c0.96,0,1.84-0.39,2.47-1.03C14.61,52.34,15,51.46,15,50.5	c0-1.93-1.57-3.5-3.5-3.5h-5c-1.8,0-3.42-0.73-4.6-1.9c-1.13-1.14-1.84-2.68-1.9-4.4C-0.11,37.02,3.09,34,6.78,34h6.72	c1.24,0,2.37-0.5,3.18-1.32C17.5,31.87,18,30.74,18,29.5c0-2.49-2.02-4.5-4.5-4.5H4c-2.21,0-4-1.79-4-4v-0.01	C0,18.79,1.79,17,3.99,17h13.49c1.94,0,3.52-1.58,3.52-3.52v-0.09c0-1.87-1.52-3.39-3.39-3.39h-5.6C10.9,10,9.9,9.55,9.18,8.83	C8.49,8.14,8.05,7.22,8,6.19C7.9,3.89,9.92,2,12.22,2H55.5c1.24,0,2.37,0.5,3.18,1.32C59.5,4.13,60,5.26,60,6.5	c0,2.48-2.01,4.5-4.5,4.5h-9.8c-0.24,0-0.7,0-0.7,0h-2.5c-1.38,0-2.5,1.12-2.5,2.5c0,0.69,0.28,1.32,0.73,1.77	c0.42,0.42,0.98,0.69,1.61,0.72V16H57c3.87,0,7,3.13,7,7c0,0.15,0,0.31-0.03,0.46c-0.1,1.75-0.85,3.32-2.02,4.49	C60.68,29.22,58.94,30,57,30h-7c-0.83,0-1.58,0.34-2.12,0.88c-0.56,0.56-0.9,1.34-0.88,2.2c0.03,1.09,1,1.92,2.09,1.92h9.41	c3.04,0,5.5,2.46,5.5,5.5c0,2.96-2.33,6.37-5.26,6.49H58.4c-0.04,0-0.08,0-0.12,0.01h-2.11C54.57,47,53.12,48.18,53.01,49.78z"/><linearGradient id="xMW6Rpl3e0wc0_88WkIX3b" x1="32" x2="32" y1="22.489" y2="39.881" gradientTransform="matrix(1 0 0 -1 0 66)" gradientUnits="userSpaceOnUse"><stop offset="0" stop-color="#ffe79f"/><stop offset=".258" stop-color="#ffe9a7"/><stop offset=".66" stop-color="#ffefbd"/><stop offset="1" stop-color="#fff5d5"/></linearGradient><path fill="url(#xMW6Rpl3e0wc0_88WkIX3b)" d="M59,26v12c0,2.76-2.24,5-5,5H10c-2.76,0-5-2.24-5-5V26c0-2.76,2.24-5,5-5h44	C56.76,21,59,23.24,59,26z"/><linearGradient id="xMW6Rpl3e0wc0_88WkIX3c" x1="24.5" x2="24.5" y1="44.872" y2="23.255" gradientTransform="matrix(1 0 0 -1 0 66)" gradientUnits="userSpaceOnUse"><stop offset="0" stop-color="#42d778"/><stop offset=".996" stop-color="#34b171"/><stop offset="1" stop-color="#34b171"/></linearGradient><path fill="url(#xMW6Rpl3e0wc0_88WkIX3c)" d="M44,26v12c0,2.76-2.24,5-5,5H10c-2.76,0-5-2.24-5-5V26c0-2.76,2.24-5,5-5h29	C41.76,21,44,23.24,44,26z"/><linearGradient id="xMW6Rpl3e0wc0_88WkIX3d" x1="35" x2="35" y1="44.362" y2="23.139" gradientTransform="matrix(1 0 0 -1 0 66)" gradientUnits="userSpaceOnUse"><stop offset="0" stop-color="#42cb78"/><stop offset="1" stop-color="#35a571"/></linearGradient><path fill="url(#xMW6Rpl3e0wc0_88WkIX3d)" d="M44,26v12c0,2.76-2.24,5-5,5H28c-0.55,0-1.05-0.22-1.41-0.59C26.22,42.05,26,41.55,26,41	c0-1.1,0.9-2,2-2h5c0.55,0,1.05-0.22,1.41-0.59C34.78,38.05,35,37.55,35,37c0-1.1-0.9-2-2-2h-0.5c-0.69,0-1.32-0.28-1.77-0.73	C30.28,33.82,30,33.19,30,32.5c0-1.38,1.12-2.5,2.5-2.5H36c0.55,0,1.05-0.22,1.41-0.59C37.78,29.05,38,28.55,38,28c0-1.1-0.9-2-2-2	h-1.5c-0.69,0-1.32-0.28-1.77-0.73C32.28,24.82,32,24.19,32,23.5c0-1.38,1.12-2.5,2.5-2.5H39C41.76,21,44,23.24,44,26z"/></svg>