<svg xmlns="http://www.w3.org/2000/svg"  viewBox="0 0 64 64" width="50px" height="50px"><radialGradient id="ZsvrUBmvRVEYoIrOlYkv3a" cx="32.979" cy="32.702" r="33.841" gradientTransform="matrix(1 0 0 -1 0 66)" gradientUnits="userSpaceOnUse"><stop offset="0" stop-color="#afeeff"/><stop offset=".193" stop-color="#bbf1ff"/><stop offset=".703" stop-color="#d7f8ff"/><stop offset="1" stop-color="#e1faff"/></radialGradient><path fill="url(#ZsvrUBmvRVEYoIrOlYkv3a)" d="M62.98,58.49c-0.25,2.6-2.58,4.51-5.2,4.51H6c-2.92,0-5.26-2.51-4.98-5.49	C1.27,54.91,3.6,53,6.22,53H6.5C8.99,53,9,46.99,9,44.5h2c0-2.49-2.01-3.5-4.5-3.5h-2c-2.63,0-4.73-2.25-4.48-4.94	C0.24,33.72,2.34,32,4.69,32H16l-3-7l-5.5-2c-3.22,0-5.79-2.76-5.47-6.04C2.3,14.1,4.86,12,7.74,12h6.76c0.69,0,1.32-0.28,1.77-0.73	C16.72,10.82,17,10.19,17,9.5C17,8.12,15.88,7,14.5,7H14c-1.85,0-3.31-1.68-2.94-3.59C11.33,1.98,12.66,1,14.11,1H50	c1.85,0,3.31,1.68,2.94,3.59C52.67,6.02,51.34,7,49.89,7H49.5c-0.69,0-1.32,0.28-1.77,0.73C47.28,8.18,47,8.81,47,9.5	c0,1.38,1.12,2.5,2.5,2.5h7c3.22,0,5.79,2.76,5.47,6.04C61.7,20.9,59.14,23,56.26,23L51,25l-3,7h11.31c2.35,0,4.45,1.72,4.67,4.06	C64.23,38.75,62.13,41,59.5,41h-2c-2.49,0-4.5,1.01-4.5,3.5l3,0.5c0,2.49-0.99,8,1.5,8H58C60.92,53,63.26,55.51,62.98,58.49z"/><linearGradient id="ZsvrUBmvRVEYoIrOlYkv3b" x1="39.75" x2="39.75" y1="58" y2="53" gradientTransform="matrix(1 0 0 -1 0 66)" gradientUnits="userSpaceOnUse"><stop offset=".122" stop-color="#5e6d7b"/><stop offset=".5" stop-color="#5d6b79"/><stop offset=".87" stop-color="#55616e"/><stop offset="1" stop-color="#515c69"/></linearGradient><path fill="url(#ZsvrUBmvRVEYoIrOlYkv3b)" d="M36.498,14.5c-0.72,0-1.355-0.52-1.478-1.253c-0.137-0.817,0.416-1.591,1.232-1.727	l2.056-0.343C39.818,10.927,41.5,9.56,41.5,8c0-0.828,0.672-1.5,1.5-1.5s1.5,0.672,1.5,1.5c0,3.248-2.897,5.671-5.698,6.137	l-2.055,0.343C36.663,14.493,36.58,14.5,36.498,14.5z"/><linearGradient id="ZsvrUBmvRVEYoIrOlYkv3c" x1="24.25" x2="24.25" y1="58" y2="53" gradientTransform="matrix(1 0 0 -1 0 66)" gradientUnits="userSpaceOnUse"><stop offset=".122" stop-color="#5e6d7b"/><stop offset=".5" stop-color="#5d6b79"/><stop offset=".87" stop-color="#55616e"/><stop offset="1" stop-color="#515c69"/></linearGradient><path fill="url(#ZsvrUBmvRVEYoIrOlYkv3c)" d="M27.502,14.5c-0.082,0-0.165-0.007-0.249-0.021l-2.056-0.343	C22.397,13.671,19.5,11.248,19.5,8c0-0.828,0.672-1.5,1.5-1.5s1.5,0.672,1.5,1.5c0,1.56,1.682,2.927,3.19,3.178l2.057,0.343	c0.816,0.136,1.369,0.909,1.232,1.727C28.857,13.98,28.222,14.5,27.502,14.5z"/><linearGradient id="ZsvrUBmvRVEYoIrOlYkv3d" x1="32" x2="32" y1="31" y2="25.998" gradientTransform="matrix(1 0 0 -1 0 66)" gradientUnits="userSpaceOnUse"><stop offset=".122" stop-color="#5e6d7b"/><stop offset=".5" stop-color="#5d6b79"/><stop offset=".87" stop-color="#55616e"/><stop offset="1" stop-color="#515c69"/></linearGradient><path fill="url(#ZsvrUBmvRVEYoIrOlYkv3d)" d="M58.5,40c-0.158,0-0.318-0.024-0.477-0.078C56.429,39.388,51.831,38,49.734,38H14.266	c-2.681,0-5.858,0.723-8.095,1.842c-0.737,0.372-1.642,0.071-2.013-0.671c-0.37-0.741-0.07-1.642,0.671-2.013	C7.45,35.848,11.154,35,14.266,35h35.469c2.964,0,8.608,1.865,9.243,2.078c0.785,0.264,1.208,1.113,0.944,1.898	C59.712,39.604,59.127,40,58.5,40z"/><linearGradient id="ZsvrUBmvRVEYoIrOlYkv3e" x1="32" x2="32" y1="55.789" y2="50.126" gradientTransform="matrix(1 0 0 -1 0 66)" gradientUnits="userSpaceOnUse"><stop offset=".122" stop-color="#5e6d7b"/><stop offset=".5" stop-color="#5d6b79"/><stop offset=".87" stop-color="#55616e"/><stop offset="1" stop-color="#515c69"/></linearGradient><ellipse cx="32" cy="19" fill="url(#ZsvrUBmvRVEYoIrOlYkv3e)" rx="10" ry="9"/><linearGradient id="ZsvrUBmvRVEYoIrOlYkv3f" x1="32" x2="32" y1="50" y2="42.074" gradientTransform="matrix(1 0 0 -1 0 66)" gradientUnits="userSpaceOnUse"><stop offset=".198" stop-color="#5e6d7b"/><stop offset=".377" stop-color="#5d6b79"/><stop offset=".688" stop-color="#54606d"/><stop offset="1" stop-color="#515c69"/></linearGradient><path fill="url(#ZsvrUBmvRVEYoIrOlYkv3f)" d="M31,15h2c8.284,0,15,6.716,15,15v3H16v-3C16,21.716,22.716,15,31,15z"/><linearGradient id="ZsvrUBmvRVEYoIrOlYkv3g" x1="32" x2="32" y1="49" y2="36" gradientTransform="matrix(1 0 0 -1 0 66)" gradientUnits="userSpaceOnUse"><stop offset=".122" stop-color="#5e6d7b"/><stop offset=".5" stop-color="#5d6b79"/><stop offset=".87" stop-color="#55616e"/><stop offset="1" stop-color="#515c69"/></linearGradient><path fill="url(#ZsvrUBmvRVEYoIrOlYkv3g)" d="M48.66,30H16.321c-0.199,0-0.397-0.041-0.58-0.121l-4.334-1.894	c-2.031-0.886-3.488-2.822-3.802-5.054l-0.591-4.22c-0.115-0.82,0.445-1.58,1.249-1.697c0.797-0.112,1.549,0.453,1.665,1.273	l0.591,4.219c0.169,1.201,0.952,2.244,2.046,2.721L16.623,27h31.689l3.278-1.67c1.008-0.514,1.704-1.499,1.863-2.636l0.618-4.406	c0.115-0.82,0.865-1.384,1.665-1.273c0.805,0.118,1.364,0.878,1.249,1.697l-0.618,4.406c-0.295,2.11-1.589,3.94-3.46,4.895	l-3.589,1.829C49.114,29.946,48.888,30,48.66,30z"/><linearGradient id="ZsvrUBmvRVEYoIrOlYkv3h" x1="32" x2="32" y1="23" y2="8" gradientTransform="matrix(1 0 0 -1 0 66)" gradientUnits="userSpaceOnUse"><stop offset=".122" stop-color="#5e6d7b"/><stop offset=".5" stop-color="#5d6b79"/><stop offset=".87" stop-color="#55616e"/><stop offset="1" stop-color="#515c69"/></linearGradient><path fill="url(#ZsvrUBmvRVEYoIrOlYkv3h)" d="M54.109,58c-0.108,0-0.218-0.012-0.328-0.036c-0.813-0.18-1.326-0.98-1.145-1.789l1.287-5.763	c0.262-1.173-0.353-2.367-1.464-2.84L48.772,46h-32.61l-4.516,1.684c-1.166,0.436-1.841,1.675-1.571,2.884l1.253,5.607	c0.181,0.809-0.332,1.609-1.145,1.789c-0.817,0.177-1.619-0.33-1.799-1.139l-1.253-5.607c-0.595-2.659,0.891-5.386,3.455-6.343	l4.773-1.779C15.528,43.032,15.708,43,15.889,43h33.192c0.204,0,0.407,0.041,0.594,0.121l3.973,1.693	c2.443,1.041,3.797,3.669,3.22,6.249l-1.287,5.762C55.424,57.524,54.802,58,54.109,58z"/><linearGradient id="ZsvrUBmvRVEYoIrOlYkv3i" x1="31.996" x2="31.996" y1="1.463" y2="50.73" gradientTransform="matrix(1 0 0 -1 0 66)" gradientUnits="userSpaceOnUse"><stop offset="0" stop-color="#feaa53"/><stop offset=".612" stop-color="#ffcd49"/><stop offset="1" stop-color="#ffde44"/></linearGradient><path fill="url(#ZsvrUBmvRVEYoIrOlYkv3i)" d="M49.66,44.79c-0.02,0.07-0.04,0.14-0.06,0.21c-0.08,0.25-0.17,0.51-0.26,0.76l-0.03,0.08	c-2.04,5.9-6.91,10.24-12.79,11.72c-0.23,0.06-0.46,0.11-0.69,0.16c-0.02,0-0.03,0.01-0.05,0.01h-0.01	c-0.41,0.08-0.82,0.16-1.24,0.22c-0.32,0.05-0.63,0.08-0.95,0.11c-0.52,0.05-1.05,0.07-1.58,0.07c-1.29,0-2.55-0.13-3.77-0.39h-0.01	c-0.02,0-0.04-0.01-0.06-0.01c-0.23-0.05-0.45-0.1-0.68-0.16c-5.87-1.49-10.75-5.82-12.81-11.69c-0.35-0.98-0.64-1.99-0.87-3	c-0.53-2.24-0.8-4.53-0.8-6.83V36c0.01-3.18,0.53-6.36,1.55-9.42l0.18-0.55c0.1-0.6,0.33-1.15,0.67-1.62c0.89-1.22,2.53-1.67,4-1.27	l2.72,0.75c0.04,0.01,0.06,0.02,0.09,0.02c1.51,0.42,3.03,0.72,4.57,0.94c0.04,0.01,0.09,0.01,0.13,0.02	c1.26,0.18,2.53,0.28,3.8,0.33c3.75,0.13,7.51-0.31,11.16-1.3l2.74-0.76c1.46-0.4,3.1,0.04,3.99,1.27c0.34,0.46,0.58,1.01,0.67,1.62	l0.13,0.39C51.43,32.38,51.52,38.81,49.66,44.79z"/><linearGradient id="ZsvrUBmvRVEYoIrOlYkv3j" x1="42" x2="42" y1="21.362" y2="37.264" gradientTransform="matrix(1 0 0 -1 0 66)" gradientUnits="userSpaceOnUse"><stop offset=".198" stop-color="#5e6d7b"/><stop offset=".377" stop-color="#5d6b79"/><stop offset=".688" stop-color="#54606d"/><stop offset="1" stop-color="#515c69"/></linearGradient><ellipse cx="42" cy="33.5" fill="url(#ZsvrUBmvRVEYoIrOlYkv3j)" rx="5" ry="5.5"/><linearGradient id="ZsvrUBmvRVEYoIrOlYkv3k" x1="21.5" x2="21.5" y1="12.936" y2="21.068" gradientTransform="matrix(1 0 0 -1 0 66)" gradientUnits="userSpaceOnUse"><stop offset=".198" stop-color="#5e6d7b"/><stop offset=".377" stop-color="#5d6b79"/><stop offset=".688" stop-color="#54606d"/><stop offset="1" stop-color="#515c69"/></linearGradient><ellipse cx="21.5" cy="48" fill="url(#ZsvrUBmvRVEYoIrOlYkv3k)" rx="2.5" ry="3"/><linearGradient id="ZsvrUBmvRVEYoIrOlYkv3l" x1="41.297" x2="41.297" y1="13.817" y2="56.722" gradientTransform="matrix(1 0 0 -1 0 66)" gradientUnits="userSpaceOnUse"><stop offset="0" stop-color="#feaa53"/><stop offset=".612" stop-color="#ffcd49"/><stop offset="1" stop-color="#ffde44"/></linearGradient><path fill="url(#ZsvrUBmvRVEYoIrOlYkv3l)" d="M49.6,45c-0.08,0.25-0.17,0.51-0.26,0.76l-0.03,0.08c-2.04,5.9-6.91,10.24-12.79,11.72	c-0.23,0.06-0.46,0.11-0.69,0.16c-0.02,0-0.03,0.01-0.05,0.01h-0.01c-0.41,0.08-0.82,0.16-1.24,0.22c-0.32,0.05-0.63,0.08-0.95,0.11	c-0.33-0.38-0.54-0.85-0.58-1.38c-0.05-0.76,0.24-1.46,0.73-1.95c0.42-0.42,0.98-0.69,1.61-0.72C35.39,54,35.45,54,35.5,54H40	c1.1,0,2-0.9,2-2c0-0.74-0.4-1.38-1-1.73L42.5,45H49.6z"/><linearGradient id="ZsvrUBmvRVEYoIrOlYkv3m" x1="42.5" x2="42.5" y1="12.936" y2="21.068" gradientTransform="matrix(1 0 0 -1 0 66)" gradientUnits="userSpaceOnUse"><stop offset=".198" stop-color="#5e6d7b"/><stop offset=".377" stop-color="#5d6b79"/><stop offset=".688" stop-color="#54606d"/><stop offset="1" stop-color="#515c69"/></linearGradient><ellipse cx="42.5" cy="48" fill="url(#ZsvrUBmvRVEYoIrOlYkv3m)" rx="2.5" ry="3"/><linearGradient id="ZsvrUBmvRVEYoIrOlYkv3n" x1="31.995" x2="31.995" y1="8.32" y2="33.404" gradientTransform="matrix(1 0 0 -1 0 66)" gradientUnits="userSpaceOnUse"><stop offset=".198" stop-color="#5e6d7b"/><stop offset=".377" stop-color="#5d6b79"/><stop offset=".688" stop-color="#54606d"/><stop offset="1" stop-color="#515c69"/></linearGradient><path fill="url(#ZsvrUBmvRVEYoIrOlYkv3n)" d="M35.83,57.72c-0.02,0-0.03,0.01-0.05,0.01h-0.01c-0.41,0.08-0.82,0.16-1.24,0.22	c-0.32,0.05-0.63,0.08-0.95,0.11c-0.52,0.05-1.05,0.07-1.58,0.07c-1.29,0-2.55-0.13-3.77-0.39h-0.01c-0.02,0-0.04-0.01-0.06-0.01	L31,36c0.07-0.55,0.58-0.94,1.13-0.87c0.46,0.06,0.81,0.43,0.87,0.87l2.34,18.01L35.83,57.72z"/><linearGradient id="ZsvrUBmvRVEYoIrOlYkv3o" x1="-17.003" x2="35.186" y1="36.501" y2="36.501" gradientTransform="matrix(1 0 0 -1 0 66)" gradientUnits="userSpaceOnUse"><stop offset="0" stop-color="#febb75"/><stop offset=".612" stop-color="#ffd76d"/><stop offset="1" stop-color="#ffe569"/></linearGradient><path fill="url(#ZsvrUBmvRVEYoIrOlYkv3o)" d="M27,25.5c0,0.7-0.29,1.34-0.76,1.79l-0.04,0.05l-0.24,0.18C25.55,27.82,25.05,28,24.5,28H22	c-0.55,0-1.13,0.28-1.49,0.65c-0.36,0.36-0.58,0.85-0.58,1.4s0.22,1.05,0.58,1.41c0.37,0.36,0.87,0.59,1.42,0.59	c1.21,0,2.17,1.08,1.97,2.33c-0.15,0.86-0.88,1.48-1.73,1.62H13c0.01-3.18,0.53-6.36,1.55-9.42l0.18-0.55	c0.1-0.6,0.33-1.15,0.67-1.62c0.89-1.22,2.53-1.67,4-1.27l2.72,0.75c0.04,0.01,0.06,0.02,0.09,0.02c1.51,0.42,3.03,0.72,4.57,0.94	c0.04,0.01,0.09,0.01,0.13,0.02C26.97,25.07,27,25.28,27,25.5z"/><linearGradient id="ZsvrUBmvRVEYoIrOlYkv3p" x1="22" x2="22" y1="21.362" y2="37.264" gradientTransform="matrix(1 0 0 -1 0 66)" gradientUnits="userSpaceOnUse"><stop offset=".198" stop-color="#5e6d7b"/><stop offset=".377" stop-color="#5d6b79"/><stop offset=".688" stop-color="#54606d"/><stop offset="1" stop-color="#515c69"/></linearGradient><ellipse cx="22" cy="33.5" fill="url(#ZsvrUBmvRVEYoIrOlYkv3p)" rx="5" ry="5.5"/></svg>