<svg xmlns="http://www.w3.org/2000/svg"  viewBox="0 0 48 48" width="50px" height="50px"><path fill="#50e6ff" d="M39,16v25c0,1.105-0.895,2-2,2H11c-1.105,0-2-0.895-2-2V7c0-1.105,0.895-2,2-2h17L39,16z"/><linearGradient id="rxioSRbGe7jM0ZqrAvjYJa" x1="28.529" x2="33.6" y1="646.528" y2="651.6" gradientTransform="matrix(1 0 0 -1 0 662)" gradientUnits="userSpaceOnUse"><stop offset="0" stop-color="#3079d6"/><stop offset="1" stop-color="#297cd2"/></linearGradient><path fill="url(#rxioSRbGe7jM0ZqrAvjYJa)" d="M28,5v9c0,1.105,0.895,2,2,2h9L28,5z"/><linearGradient id="rxioSRbGe7jM0ZqrAvjYJb" x1="20.896" x2="25.752" y1="20.564" y2="33.906" gradientUnits="userSpaceOnUse"><stop offset="0" stop-color="#2aa4f4"/><stop offset="1" stop-color="#007ad9"/></linearGradient><path fill="url(#rxioSRbGe7jM0ZqrAvjYJb)" d="M19,35.177V21.823c0-0.656,0.752-1.047,1.314-0.683l10.309,6.677 c0.502,0.325,0.502,1.041,0,1.367l-10.309,6.677C19.752,36.225,19,35.833,19,35.177z"/></svg>