<svg xmlns="http://www.w3.org/2000/svg"  viewBox="0 0 48 48" width="50px" height="50px"><linearGradient id="_ERvEVPTqF~ClV4S7_OfMa" x1="14.636" x2="39.485" y1="41.361" y2="-5.373" gradientTransform="matrix(1 0 0 -1 0 50)" gradientUnits="userSpaceOnUse"><stop offset="0" stop-color="#32bdef"/><stop offset="1" stop-color="#1ea2e4"/></linearGradient><path fill="url(#_ERvEVPTqF~ClV4S7_OfMa)" d="M36,9H12v34c0,1.105,0.895,2,2,2h20c1.105,0,2-0.895,2-2V9z"/><path fill="#50e6ff" d="M36,9H12V6c0-1.105,0.895-2,2-2h20c1.105,0,2,0.895,2,2V9z"/><circle cx="20" cy="6.5" r=".75" fill="#0c63ad"/><path fill="#0c63ad" d="M27.5,5.75c-0.194,0-4.806,0-5,0c-0.414,0-0.75,0.336-0.75,0.75s0.336,0.75,0.75,0.75	c0.194,0,4.806,0,5,0c0.414,0,0.75-0.336,0.75-0.75S27.914,5.75,27.5,5.75z"/><path d="M27,20v7c0,1.65-1.35,3-3,3H12V17h12C25.65,17,27,18.35,27,20z" opacity=".05"/><path d="M26.5,20v7c0,1.38-1.12,2.5-2.5,2.5H12v-12h12	C25.38,17.5,26.5,18.62,26.5,20z" opacity=".07"/><linearGradient id="_ERvEVPTqF~ClV4S7_OfMb" x1="10.077" x2="18.502" y1="32.938" y2="17.093" gradientTransform="matrix(1 0 0 -1 0 50)" gradientUnits="userSpaceOnUse"><stop offset="0" stop-color="#0077d2"/><stop offset="1" stop-color="#0b59a2"/></linearGradient><path fill="url(#_ERvEVPTqF~ClV4S7_OfMb)" d="M24,29H3c-1.103,0-2-0.897-2-2v-7c0-1.103,0.897-2,2-2h21c1.103,0,2,0.897,2,2v7	C26,28.103,25.103,29,24,29z"/><linearGradient id="_ERvEVPTqF~ClV4S7_OfMc" x1="11.689" x2="18.483" y1="30.213" y2="16.284" gradientTransform="matrix(1 0 0 -1 0 50)" gradientUnits="userSpaceOnUse"><stop offset="0" stop-color="#fcfcfc"/><stop offset=".495" stop-color="#f4f4f4"/><stop offset=".869" stop-color="#e8e8e8"/><stop offset="1" stop-color="#e8e8e8"/></linearGradient><rect width="21" height="7" x="3" y="20" fill="url(#_ERvEVPTqF~ClV4S7_OfMc)"/><circle cx="7.5" cy="23.5" r="1.5" fill="#0b5aa4"/><circle cx="13.5" cy="23.5" r="1.5" fill="#0b5aa4"/><circle cx="19.5" cy="23.5" r="1.5" fill="#0b5aa4"/></svg>