<svg xmlns="http://www.w3.org/2000/svg"  viewBox="0 0 64 64" width="50px" height="50px"><radialGradient id="Pxk3POoVd8XkA3dGxtBFha" cx="32.5" cy="32" r="31.751" gradientUnits="userSpaceOnUse" spreadMethod="reflect"><stop offset="0" stop-color="#edd7a1"/><stop offset=".258" stop-color="#f0dba9"/><stop offset=".667" stop-color="#f7e7c0"/><stop offset="1" stop-color="#fff3d8"/></radialGradient><path fill="url(#Pxk3POoVd8XkA3dGxtBFha)" d="M61.501,18.008H56c-1.1,0-2-0.9-2-2c0-1.1,0.9-2.008,2-2.008h3c1.85,0,3.32-1.69,2.94-3.6 C61.66,8.97,60.32,8,58.87,8H45.5C44.67,8,44,7.33,44,6.5C44,5.67,44.67,5,45.5,5h5.91c1.14,0,2.2-0.72,2.5-1.82 C54.36,1.52,53.1,0,51.5,0H7.59c-1.14,0-2.2,0.72-2.5,1.82C4.64,3.48,5.9,5,7.5,5h3c0.69,0,1.32,0.28,1.77,0.73 C12.72,6.18,13,6.81,13,7.5c0,1.38-1.12,2.5-2.5,2.5H4c-1.65,0-3,1.35-3,3c0,1.65,1.35,3,3,3h21c0.35,0,0.69-0.07,1-0.19V23 c0,0-10.282,19.859-10.05,21H5.5C3.025,44,1,46.025,1,48.5C1,50.975,3.025,53,5.5,53h19c1.38,0,2.5,1.12,2.5,2.5S25.88,58,24.5,58 H19c-1.66,0-3,1.34-3,3c0,1.66,1.34,3,3,3h40c1.66,0,3-1.34,3-3c0-1.66-1.34-3-3-3h-5.5c-1.38,0-2.5-1.12-2.5-2.5s1.12-2.5,2.5-2.5 h4c2.475,0,4.5-2.025,4.5-4.5c0-2.475-2.025-4.5-4.5-4.5H47.437C47.751,42.413,48.9,23,50,23h11.411c1.14,0,2.2-0.713,2.5-1.813 C64.351,19.527,63.091,18.008,61.501,18.008z"/><linearGradient id="Pxk3POoVd8XkA3dGxtBFhb" x1="163.835" x2="110.672" y1="129" y2="129" gradientTransform="rotate(90 129 32)" gradientUnits="userSpaceOnUse" spreadMethod="reflect"><stop offset="0" stop-color="#155cde"/><stop offset=".278" stop-color="#1f7fe5"/><stop offset=".569" stop-color="#279ceb"/><stop offset=".82" stop-color="#2cafef"/><stop offset="1" stop-color="#2eb5f0"/></linearGradient><path fill="url(#Pxk3POoVd8XkA3dGxtBFhb)" d="M6,48V16c0-1.657,1.343-3,3-3h46c1.657,0,3,1.343,3,3v32c0,1.657-1.343,3-3,3H9 C7.343,51,6,49.657,6,48z"/><path fill="#f1fcff" d="M48,32.005v0.004c0,0.635-0.263,1.245-0.732,1.697l-8.052,7.763C38.864,41.809,38.383,42,37.882,42 h-0.007C36.839,42,36,41.201,36,40.214V23.736C36,22.777,36.816,22,37.823,22l0,0c0.485,0,0.949,0.184,1.291,0.511l8.147,7.791 C47.734,30.754,48,31.367,48,32.005z M16.739,33.698l8.147,7.791C25.228,41.816,25.693,42,26.177,42h0 C27.184,42,28,41.223,28,40.264V23.786C28,22.799,27.161,22,26.125,22h-0.007c-0.501,0-0.982,0.191-1.334,0.531l-8.052,7.763 C16.263,30.746,16,31.355,16,31.99v0.004C16,32.633,16.266,33.246,16.739,33.698z"/></svg>