<svg xmlns="http://www.w3.org/2000/svg"  viewBox="0 0 64 64" width="50px" height="50px"><radialGradient id="T2RuMsk2x~oURRXVn4pYra" cx="32" cy="32" r="32" gradientUnits="userSpaceOnUse" spreadMethod="reflect"><stop offset="0" stop-color="#afeeff"/><stop offset=".193" stop-color="#bbf1ff"/><stop offset=".703" stop-color="#d7f8ff"/><stop offset="1" stop-color="#e1faff"/></radialGradient><path fill="url(#T2RuMsk2x~oURRXVn4pYra)" d="M64,60c0,2.209-1.791,4-4,4s-4-1.791-4-4c0-2.209,1.791-4,4-4S64,57.791,64,60z M58.5,7 C60.433,7,62,5.433,62,3.5S60.433,0,58.5,0S55,1.567,55,3.5S56.567,7,58.5,7z M48,56h-6c-1.657,0-3-1.343-3-3s1.343-3,3-3h14 c1.657,0,3-1.343,3-3v-1c0-1.657-1.343-3-3-3h-3c-1.657,0-3-1.343-3-3s1.343-3,3-3h5c2.761,0,5-2.239,5-5s-2.239-5-5-5h-5.5 c-1.933,0-3.5-1.567-3.5-3.5s1.567-3.5,3.5-3.5H57c2.209,0,4-1.791,4-4c0-2.209-1.791-4-4-4h-8.5c-1.381,0-2.5-1.119-2.5-2.5 C46,8.119,47.119,7,48.5,7C50.433,7,52,5.433,52,3.5S50.433,0,48.5,0h-30C16.567,0,15,1.567,15,3.5S16.567,7,18.5,7H19 c1.105,0,2,0.895,2,2c0,1.105-0.895,2-2,2l-0.163,0.867C16.469,11.948,14.815,12,14.5,12H6c-2.209,0-4,1.791-4,4v0.02 c0,2.206,1.794,3.991,4,3.98c1.93-0.01,3.5,1.552,3.5,3.482V23.5C9.5,25.433,7.933,27,6,27H5c-2.761,0-5,2.239-5,5s2.239,5,5,5h1 c1.657,0,3,1.343,3,3s-1.343,3-3,3H3.5C1.567,43,0,44.567,0,46.5S1.567,50,3.5,50H21c0.465,0,2.074-0.158,4.194-0.385 C25.694,50.283,26,51.102,26,52c0,2.209-1.791,4-4,4h-2c-2.209,0-4,1.791-4,4c0,2.209,1.791,4,4,4h28c2.209,0,4-1.791,4-4 C52,57.791,50.209,56,48,56z"/><linearGradient id="T2RuMsk2x~oURRXVn4pYrb" x1="53" x2="53" y1="26" y2="13" gradientUnits="userSpaceOnUse" spreadMethod="reflect"><stop offset="0" stop-color="#ff634d"/><stop offset=".204" stop-color="#fe6464"/><stop offset=".521" stop-color="#fc6581"/><stop offset=".794" stop-color="#fa6694"/><stop offset=".989" stop-color="#fa669a"/><stop offset="1" stop-color="#fa669a"/></linearGradient><path fill="url(#T2RuMsk2x~oURRXVn4pYrb)" d="M53,26L53,26c1.65,0,3-1.35,3-3v-7c0-1.65-1.35-3-3-3h0c-1.65,0-3,1.35-3,3v7 C50,24.65,51.35,26,53,26z"/><linearGradient id="T2RuMsk2x~oURRXVn4pYrc" x1="53" x2="53" y1="36" y2="23" gradientUnits="userSpaceOnUse" spreadMethod="reflect"><stop offset="0" stop-color="#feaa53"/><stop offset=".612" stop-color="#ffcd49"/><stop offset="1" stop-color="#ffde44"/></linearGradient><path fill="url(#T2RuMsk2x~oURRXVn4pYrc)" d="M53,36L53,36c1.65,0,3-1.35,3-3v-7c0-1.65-1.35-3-3-3h0c-1.65,0-3,1.35-3,3v7 C50,34.65,51.35,36,53,36z"/><linearGradient id="T2RuMsk2x~oURRXVn4pYrd" x1="53" x2="53" y1="33" y2="46" gradientUnits="userSpaceOnUse" spreadMethod="reflect"><stop offset="0" stop-color="#42d778"/><stop offset=".428" stop-color="#3dca76"/><stop offset="1" stop-color="#34b171"/></linearGradient><path fill="url(#T2RuMsk2x~oURRXVn4pYrd)" d="M53,46L53,46c1.65,0,3-1.35,3-3v-7c0-1.65-1.35-3-3-3h0c-1.65,0-3,1.35-3,3v7 C50,44.65,51.35,46,53,46z"/><linearGradient id="T2RuMsk2x~oURRXVn4pYre" x1="95.453" x2="146.453" y1="50.5" y2="50.5" gradientTransform="matrix(0 -1 -1 0 82.5 162.5)" gradientUnits="userSpaceOnUse" spreadMethod="reflect"><stop offset="0" stop-color="#155cde"/><stop offset=".278" stop-color="#1f7fe5"/><stop offset=".569" stop-color="#279ceb"/><stop offset=".82" stop-color="#2cafef"/><stop offset="1" stop-color="#2eb5f0"/></linearGradient><path fill="url(#T2RuMsk2x~oURRXVn4pYre)" d="M11,10v45c0,1.657,1.343,3,3,3h36c1.657,0,3-1.343,3-3V10c0-1.657-1.343-3-3-3H14 C12.343,7,11,8.343,11,10z"/><path fill="#fff" d="M43,34H26c-1.105,0-2-0.895-2-2V21c0-1.105,0.895-2,2-2h17c1.105,0,2,0.895,2,2v11 C45,33.105,44.105,34,43,34z"/><linearGradient id="T2RuMsk2x~oURRXVn4pYrf" x1="34.5" x2="34.5" y1="23" y2="30" gradientUnits="userSpaceOnUse" spreadMethod="reflect"><stop offset="0" stop-color="#d8d8d8"/><stop offset=".759" stop-color="#c9c9c9"/><stop offset="1" stop-color="#c3c3c3"/></linearGradient><path fill="url(#T2RuMsk2x~oURRXVn4pYrf)" d="M29,23h11c0.552,0,1,0.448,1,1v0c0,0.552-0.448,1-1,1H29c-0.552,0-1-0.448-1-1v0 C28,23.448,28.448,23,29,23z M29,28h11c0.552,0,1,0.448,1,1v0c0,0.552-0.448,1-1,1H29c-0.552,0-1-0.448-1-1v0 C28,28.448,28.448,28,29,28z"/><linearGradient id="T2RuMsk2x~oURRXVn4pYrg" x1="42.5" x2="42.5" y1="59.492" y2="18.236" gradientUnits="userSpaceOnUse" spreadMethod="reflect"><stop offset="0" stop-color="#155cde"/><stop offset=".278" stop-color="#1f7fe5"/><stop offset=".569" stop-color="#279ceb"/><stop offset=".82" stop-color="#2cafef"/><stop offset="1" stop-color="#2eb5f0"/></linearGradient><path fill="url(#T2RuMsk2x~oURRXVn4pYrg)" d="M43.5,43H53v12c0,1.657-1.343,3-3,3H34.5c-1.381,0-2.5-1.119-2.5-2.5v0 c0-1.381,1.119-2.5,2.5-2.5h11c1.381,0,2.5-1.119,2.5-2.5v0c0-1.381-1.119-2.5-2.5-2.5h-2c-1.381,0-2.5-1.119-2.5-2.5v0 C41,44.119,42.119,43,43.5,43z M36.5,48c1.381,0,2.5-1.119,2.5-2.5S37.881,43,36.5,43c-1.381,0-2.5,1.119-2.5,2.5S35.119,48,36.5,48 z"/><path fill="#196ae1" d="M21,47.5c0,3.04-2.46,5.5-5.5,5.5c-1.86,0-3.5-0.93-4.5-2.34v-6.32c1-1.41,2.64-2.34,4.5-2.34 C18.54,42,21,44.46,21,47.5z"/><path fill="#1e7de5" d="M21,32.5c0,3.04-2.46,5.5-5.5,5.5c-1.86,0-3.5-0.93-4.5-2.34v-6.32c1-1.41,2.64-2.34,4.5-2.34 C18.54,27,21,29.46,21,32.5z"/><path fill="#238fe8" d="M21,17.5c0,3.04-2.46,5.5-5.5,5.5c-1.86,0-3.5-0.93-4.5-2.34v-6.32c1-1.41,2.64-2.34,4.5-2.34 C18.54,12,21,14.46,21,17.5z"/><linearGradient id="T2RuMsk2x~oURRXVn4pYrh" x1="18" x2="18" y1="6.5" y2="17.5" gradientTransform="rotate(-90 33 32.5)" gradientUnits="userSpaceOnUse" spreadMethod="reflect"><stop offset="0" stop-color="#a4a4a4"/><stop offset=".63" stop-color="#7f7f7f"/><stop offset="1" stop-color="#6f6f6f"/><stop offset="1" stop-color="#6f6f6f"/></linearGradient><path fill="url(#T2RuMsk2x~oURRXVn4pYrh)" d="M18,47.5L18,47.5c0,1.375-1.125,2.5-2.5,2.5h-6C8.125,50,7,48.875,7,47.5v0 C7,46.125,8.125,45,9.5,45h6C16.875,45,18,46.125,18,47.5z"/><linearGradient id="T2RuMsk2x~oURRXVn4pYri" x1="33" x2="33" y1="6.5" y2="17.5" gradientTransform="rotate(-90 33 32.5)" gradientUnits="userSpaceOnUse" spreadMethod="reflect"><stop offset="0" stop-color="#a4a4a4"/><stop offset=".63" stop-color="#7f7f7f"/><stop offset="1" stop-color="#6f6f6f"/><stop offset="1" stop-color="#6f6f6f"/></linearGradient><path fill="url(#T2RuMsk2x~oURRXVn4pYri)" d="M18,32.5L18,32.5c0,1.375-1.125,2.5-2.5,2.5h-6C8.125,35,7,33.875,7,32.5v0 C7,31.125,8.125,30,9.5,30h6C16.875,30,18,31.125,18,32.5z"/><linearGradient id="T2RuMsk2x~oURRXVn4pYrj" x1="48" x2="48" y1="6.5" y2="17.5" gradientTransform="rotate(-90 33 32.5)" gradientUnits="userSpaceOnUse" spreadMethod="reflect"><stop offset="0" stop-color="#a4a4a4"/><stop offset=".63" stop-color="#7f7f7f"/><stop offset="1" stop-color="#6f6f6f"/><stop offset="1" stop-color="#6f6f6f"/></linearGradient><path fill="url(#T2RuMsk2x~oURRXVn4pYrj)" d="M18,17.5L18,17.5c0,1.375-1.125,2.5-2.5,2.5h-6C8.125,20,7,18.875,7,17.5v0 C7,16.125,8.125,15,9.5,15h6C16.875,15,18,16.125,18,17.5z"/></svg>