<svg xmlns="http://www.w3.org/2000/svg"  viewBox="0 0 64 64" width="50px" height="50px"><radialGradient id="joKCm2fLGfxyLbWdVNLoTa" cx="32.5" cy="34.5" r="31.5" gradientTransform="matrix(1 0 0 -1 0 66)" gradientUnits="userSpaceOnUse"><stop offset="0" stop-color="#eed7a2"/><stop offset=".106" stop-color="#f1dcab"/><stop offset=".437" stop-color="#f8e8c3"/><stop offset=".744" stop-color="#fcefd2"/><stop offset="1" stop-color="#fef2d7"/></radialGradient><path fill="url(#joKCm2fLGfxyLbWdVNLoTa)" d="M60.98,59.41C60.77,61.49,58.9,63,56.81,63H7c-2.34,0-4.22-2.03-3.98-4.41	C3.23,56.51,5.1,55,7.19,55h5.31c0.96,0,1.84-0.39,2.47-1.03C15.61,53.34,16,52.46,16,51.5c0-1.93-1.57-3.5-3.5-3.5H6	c-1.65,0-3-1.35-3-3s1.35-3,3-3h16V32H5c-2.34,0-4.22-2.03-3.98-4.41C1.23,25.51,3.1,24,5.19,24H8.5c1.93,0,3.5-1.57,3.5-3.5	S10.43,17,8.5,17H6c-2.34,0-4.22-2.03-3.98-4.41C2.23,10.51,4.1,9,6.19,9H19c1.1,0,2-0.9,2-2c0-1.11-0.9-2-2-2h-3.5	c-1.47,0-2.64-1.26-2.49-2.76C13.14,0.94,14.34,0,15.64,0H48.5c1.47,0,2.64,1.26,2.49,2.76C50.86,4.06,49.66,5,48.36,5H44.5	C43.67,5,43,5.67,43,6.5S43.67,8,44.5,8h15c1.47,0,2.64,1.26,2.49,2.76c-0.13,1.3-1.33,2.24-2.63,2.24H59c-1.1,0-2,0.9-2,2	s0.9,2,2,2h0.81c2.09,0,3.96,1.51,4.17,3.59C64.22,22.97,62.33,25,60,25H42v6h16c1.65,0,3,1.35,3,3s-1.35,3-3,3h-8	c-1.38,0-2.5,1.12-2.5,2.5S48.62,41,50,41h10.5c1.92,0,3.5,1.58,3.5,3.5S62.42,48,60.5,48h-8c-1.93,0-3.5,1.57-3.5,3.5	c0,0.96,0.39,1.84,1.03,2.47C50.66,54.61,51.54,55,52.5,55H57C59.33,55,61.22,57.03,60.98,59.41z"/><linearGradient id="joKCm2fLGfxyLbWdVNLoTb" x1="32.5" x2="32.5" y1="10910.653" y2="10899.662" gradientTransform="translate(0 -10894)" gradientUnits="userSpaceOnUse"><stop offset=".122" stop-color="#5e6d7b"/><stop offset=".191" stop-color="#5d6b79"/><stop offset="1" stop-color="#515c69"/></linearGradient><path fill="url(#joKCm2fLGfxyLbWdVNLoTb)" d="M51,11H14c-2.209,0-4,1.791-4,4v36c0,2.209,1.791,4,4,4h37c2.209,0,4-1.791,4-4V15	C55,12.791,53.209,11,51,11z"/><linearGradient id="joKCm2fLGfxyLbWdVNLoTc" x1="32.5" x2="32.5" y1="10915" y2="10905" gradientTransform="translate(0 -10894)" gradientUnits="userSpaceOnUse"><stop offset="0" stop-color="#3281e6"/><stop offset="1" stop-color="#3a99eb"/></linearGradient><path fill="url(#joKCm2fLGfxyLbWdVNLoTc)" d="M10,15v6h45v-6c0-2.209-1.791-4-4-4H14C11.791,11,10,12.791,10,15z"/><linearGradient id="joKCm2fLGfxyLbWdVNLoTd" x1="49" x2="49" y1="10912.497" y2="10905.42" gradientTransform="translate(0 -10894)" gradientUnits="userSpaceOnUse"><stop offset="0" stop-color="#ff634d"/><stop offset=".204" stop-color="#fe6464"/><stop offset=".521" stop-color="#fc6581"/><stop offset=".794" stop-color="#fa6694"/><stop offset=".989" stop-color="#fa669a"/><stop offset="1" stop-color="#fa669a"/></linearGradient><path fill="url(#joKCm2fLGfxyLbWdVNLoTd)" d="M50,18h-2c-0.55,0-1-0.45-1-1v-2c0-0.55,0.45-1,1-1h2c0.55,0,1,0.45,1,1v2	C51,17.55,50.55,18,50,18z"/><linearGradient id="joKCm2fLGfxyLbWdVNLoTe" x1="42" x2="42" y1="10914.293" y2="10908.038" gradientTransform="translate(0 -10894)" gradientUnits="userSpaceOnUse"><stop offset="0" stop-color="#0d47a1"/><stop offset=".365" stop-color="#135fba"/><stop offset=".734" stop-color="#1770cc"/><stop offset="1" stop-color="#1976d2"/></linearGradient><path fill="url(#joKCm2fLGfxyLbWdVNLoTe)" d="M43,18h-2c-0.55,0-1-0.45-1-1v-2c0-0.55,0.45-1,1-1h2c0.55,0,1,0.45,1,1v2	C44,17.55,43.55,18,43,18z"/><linearGradient id="joKCm2fLGfxyLbWdVNLoTf" x1="35" x2="35" y1="10914.35" y2="10908.095" gradientTransform="translate(0 -10894)" gradientUnits="userSpaceOnUse"><stop offset="0" stop-color="#0d47a1"/><stop offset=".365" stop-color="#135fba"/><stop offset=".734" stop-color="#1770cc"/><stop offset="1" stop-color="#1976d2"/></linearGradient><path fill="url(#joKCm2fLGfxyLbWdVNLoTf)" d="M36,18h-2c-0.55,0-1-0.45-1-1v-2c0-0.55,0.45-1,1-1h2c0.55,0,1,0.45,1,1v2	C37,17.55,36.55,18,36,18z"/><path fill="#fff" d="M21.499,47c-0.576,0-1.154-0.197-1.626-0.602c-1.048-0.898-1.17-2.478-0.271-3.525l4.606-5.373	l-4.606-5.373c-0.898-1.048-0.776-2.627,0.271-3.525c1.049-0.896,2.625-0.778,3.525,0.271l6,7c0.802,0.937,0.802,2.317,0,3.254l-6,7	C22.903,46.704,22.203,47,21.499,47z"/><path fill="#fff" d="M43.5,47h-9c-1.381,0-2.5-1.119-2.5-2.5l0,0c0-1.381,1.119-2.5,2.5-2.5h9c1.381,0,2.5,1.119,2.5,2.5	l0,0C46,45.881,44.881,47,43.5,47z"/></svg>