<svg xmlns="http://www.w3.org/2000/svg"  viewBox="0 0 64 64" width="50px" height="50px"><radialGradient id="Ej3NQbKvl17o~3DO0EbVUa" cx="32" cy="2942" r="30.537" gradientTransform="translate(0 -2910)" gradientUnits="userSpaceOnUse"><stop offset="0" stop-color="#f4e9c3"/><stop offset=".219" stop-color="#f8eecd"/><stop offset=".644" stop-color="#fdf4dc"/><stop offset="1" stop-color="#fff6e1"/></radialGradient><path fill="url(#Ej3NQbKvl17o~3DO0EbVUa)" d="M64,24.025L64,24.025C64,21.25,61.75,19,58.975,19H46.5c-2.485,0-4.5-2.015-4.5-4.5l0,0	c0-2.485,2.015-4.5,4.5-4.5h9c1.933,0,3.5-1.567,3.5-3.5l0,0C59,4.567,57.433,3,55.5,3h-50C3.567,3,2,4.567,2,6.5l0,0	C2,8.433,3.567,10,5.5,10l0,0c2.485,0,4.5,2.015,4.5,4.5l0,0c0,2.485-2.015,4.5-4.5,4.5H4c-2.209,0-4,1.791-4,4l0,0	c0,2.209,1.791,4,4,4h10.5c1.933,0,3.5,1.567,3.5,3.5l0,0c0,1.933-1.567,3.5-3.499,3.5H6.499C3.462,34.001,1,36.463,1,39.5l0,0	C1,42.538,3.462,45,6.5,45h11c1.933,0,3.5,1.567,3.5,3.5l0,0c0,1.933-1.567,3.5-3.5,3.5h-7C8.015,52,6,54.015,6,56.5l0,0	c0,2.485,2.015,4.5,4.5,4.5h45c2.485,0,4.5-2.015,4.5-4.5l0,0c0-2.485-2.015-4.5-4.5-4.5h-7.01C46.563,52,45,50.437,45,48.51v-0.001	c0-1.927,1.563-3.49,3.49-3.49h10.5c2.214,0,4.01-1.795,4.01-4.01l0,0c0-2.214-1.795-4.01-4.01-4.01h-1.02	C55.777,37,54,35.223,54,33.03v-0.009c0-2.193,1.777-3.97,3.97-3.97h1.005C61.75,29.051,64,26.801,64,24.025z"/><linearGradient id="Ej3NQbKvl17o~3DO0EbVUb" x1="33" x2="33" y1="4.404" y2="57.054" gradientTransform="matrix(1 0 0 -1 0 66)" gradientUnits="userSpaceOnUse"><stop offset="0" stop-color="#41bfec"/><stop offset=".232" stop-color="#4cc5ef"/><stop offset=".644" stop-color="#6bd4f6"/><stop offset="1" stop-color="#8ae4fd"/></linearGradient><rect width="36" height="30" x="15" y="13" fill="url(#Ej3NQbKvl17o~3DO0EbVUb)"/><linearGradient id="Ej3NQbKvl17o~3DO0EbVUc" x1="33" x2="33" y1="52" y2="26.681" gradientTransform="matrix(1 0 0 -1 0 66)" gradientUnits="userSpaceOnUse"><stop offset="0" stop-color="#42c6ee"/><stop offset=".48" stop-color="#3bc3ed"/><stop offset="1" stop-color="#2ebeea"/></linearGradient><path fill="url(#Ej3NQbKvl17o~3DO0EbVUc)" d="M51,14v16.07c-0.94,2.24-2.22,4.25-3.87,6.99C46.41,38.25,45.05,39,43.56,39h-27.5	C15.69,39,15,39,15,39V27.03c1.09-3.67,1.63-9.35,1.61-13.03C16.61,14,51,14,51,14z"/><linearGradient id="Ej3NQbKvl17o~3DO0EbVUd" x1="30.496" x2="30.496" y1="51.979" y2="-.444" gradientTransform="matrix(1 0 0 -1 0 66)" gradientUnits="userSpaceOnUse"><stop offset="0" stop-color="#c6effd"/><stop offset=".375" stop-color="#b7ecfd"/><stop offset="1" stop-color="#95e6fd"/></linearGradient><path fill="url(#Ej3NQbKvl17o~3DO0EbVUd)" d="M41.561,36H14.057c-2.895,0-4.884-2.703-3.719-5.116C13.217,24.923,14.64,18.961,14.607,13	h36.386c0.007,12-1.81,14.346-5.862,21.061C44.414,35.249,43.051,36,41.561,36z"/><linearGradient id="Ej3NQbKvl17o~3DO0EbVUe" x1="33" x2="33" y1="51.851" y2="59.779" gradientTransform="matrix(1 0 0 -1 0 66)" gradientUnits="userSpaceOnUse"><stop offset="0" stop-color="#ff8b67"/><stop offset=".847" stop-color="#ffa76a"/><stop offset="1" stop-color="#ffad6b"/><stop offset="1" stop-color="#ffad6b"/></linearGradient><path fill="url(#Ej3NQbKvl17o~3DO0EbVUe)" d="M50.5,14h-35c-1.933,0-3.5-1.567-3.5-3.5l0,0C12,8.567,13.567,7,15.5,7h35	c1.933,0,3.5,1.567,3.5,3.5l0,0C54,12.433,52.433,14,50.5,14z"/><linearGradient id="Ej3NQbKvl17o~3DO0EbVUf" x1="32.5" x2="32.5" y1="10.106" y2="17.83" gradientTransform="matrix(1 0 0 -1 0 66)" gradientUnits="userSpaceOnUse"><stop offset="0" stop-color="#e3714d"/><stop offset=".25" stop-color="#e4754e"/><stop offset="1" stop-color="#e77b50"/></linearGradient><path fill="url(#Ej3NQbKvl17o~3DO0EbVUf)" d="M32.5,56c-1.381,0-2.5-1.119-2.5-2.5v-9c0-1.381,1.119-2.5,2.5-2.5s2.5,1.119,2.5,2.5v9	C35,54.881,33.881,56,32.5,56z"/><linearGradient id="Ej3NQbKvl17o~3DO0EbVUg" x1="21" x2="21" y1="10.106" y2="17.83" gradientTransform="matrix(1 0 0 -1 0 66)" gradientUnits="userSpaceOnUse"><stop offset="0" stop-color="#e3714d"/><stop offset=".25" stop-color="#e4754e"/><stop offset="1" stop-color="#e77b50"/></linearGradient><path fill="url(#Ej3NQbKvl17o~3DO0EbVUg)" d="M18.498,56c-0.411,0-0.827-0.101-1.212-0.314c-1.207-0.671-1.642-2.192-0.972-3.399l5-9	c0.671-1.207,2.192-1.643,3.399-0.972s1.642,2.192,0.972,3.399l-5,9C20.229,55.536,19.376,56,18.498,56z"/><linearGradient id="Ej3NQbKvl17o~3DO0EbVUh" x1="-1484.999" x2="-1484.999" y1="10.106" y2="17.83" gradientTransform="rotate(180 -720 33)" gradientUnits="userSpaceOnUse"><stop offset="0" stop-color="#e3714d"/><stop offset=".25" stop-color="#e4754e"/><stop offset="1" stop-color="#e77b50"/></linearGradient><path fill="url(#Ej3NQbKvl17o~3DO0EbVUh)" d="M47.502,56c-0.878,0-1.73-0.464-2.188-1.286l-5-9c-0.67-1.207-0.235-2.729,0.972-3.399	c1.206-0.671,2.729-0.235,3.399,0.972l5,9c0.67,1.207,0.235,2.729-0.972,3.399C48.329,55.899,47.913,56,47.502,56z"/><linearGradient id="Ej3NQbKvl17o~3DO0EbVUi" x1="33" x2="33" y1="18.894" y2="24.556" gradientTransform="matrix(1 0 0 -1 0 66)" gradientUnits="userSpaceOnUse"><stop offset="0" stop-color="#ff8b67"/><stop offset=".847" stop-color="#ffa76a"/><stop offset="1" stop-color="#ffad6b"/><stop offset="1" stop-color="#ffad6b"/></linearGradient><path fill="url(#Ej3NQbKvl17o~3DO0EbVUi)" d="M51.5,47h-37c-1.381,0-2.5-1.119-2.5-2.5l0,0c0-1.381,1.119-2.5,2.5-2.5h37	c1.381,0,2.5,1.119,2.5,2.5l0,0C54,45.881,52.881,47,51.5,47z"/><linearGradient id="Ej3NQbKvl17o~3DO0EbVUj" x1="33" x2="33" y1="18.894" y2="24.556" gradientTransform="matrix(1 0 0 -1 0 66)" gradientUnits="userSpaceOnUse"><stop offset="0" stop-color="#ff8b67"/><stop offset=".847" stop-color="#ffa76a"/><stop offset="1" stop-color="#ffad6b"/><stop offset="1" stop-color="#ffad6b"/></linearGradient><path fill="url(#Ej3NQbKvl17o~3DO0EbVUj)" d="M48.5,47h-31c-1.381,0-2.5-1.119-2.5-2.5l0,0c0-1.381,1.119-2.5,2.5-2.5h31	c1.381,0,2.5,1.119,2.5,2.5l0,0C51,45.881,49.881,47,48.5,47z"/></svg>