<svg xmlns="http://www.w3.org/2000/svg"  viewBox="0 0 64 64" width="50px" height="50px"><radialGradient id="syy_qkVuuuZXv8L7z7xhSa" cx="32" cy="35" r="31.504" gradientTransform="matrix(1 0 0 -1 0 66)" gradientUnits="userSpaceOnUse"><stop offset="0" stop-color="#eed7a2"/><stop offset=".106" stop-color="#f1dcab"/><stop offset=".437" stop-color="#f8e8c3"/><stop offset=".744" stop-color="#fcefd2"/><stop offset="1" stop-color="#fef2d7"/></radialGradient><path fill="url(#syy_qkVuuuZXv8L7z7xhSa)" d="M62.98,58.41C62.77,60.49,60.9,62,58.81,62H4c-2.34,0-4.22-2.03-3.98-4.41	C0.23,55.51,2.1,54,4.19,54H5c1.11,0,2-0.9,2-2c0-0.55-0.22-1.05-0.58-1.41C6.06,50.22,5.56,50,5,50c-1.65,0-3-1.35-3-3s1.35-3,3-3	h17V32H5c-2.34,0-4.22-2.03-3.98-4.41C1.23,25.51,3.1,24,5.19,24H8.5c1.93,0,3.5-1.57,3.5-3.5S10.43,17,8.5,17h-2	c-2.4,0-4.36-1.87-4.49-4.24C2,12.67,2,12.59,2,12.5c0-1.24,0.5-2.37,1.32-3.18C4.13,8.5,5.26,8,6.5,8h13.23	c0-0.01,0.01-0.01,0.01-0.02C20.46,7.86,21,7.25,21,6.5C21,5.67,20.33,5,19.5,5h-4c-1.47,0-2.64-1.26-2.49-2.76	C13.14,0.94,14.34,0,15.64,0H48.5c1.47,0,2.64,1.26,2.49,2.76C50.86,4.06,49.66,5,48.36,5H45.5C44.67,5,44,5.67,44,6.5	S44.67,8,45.5,8h14c1.47,0,2.64,1.26,2.49,2.76c-0.13,1.3-1.33,2.24-2.63,2.24H59c-1.1,0-2,0.9-2,2s0.9,2,2,2h0.81	c2.09,0,3.96,1.51,4.17,3.59C64.22,22.97,62.33,25,60,25H42v7h17c1.65,0,3,1.35,3,3s-1.35,3-3,3h-9c-1.38,0-2.5,1.12-2.5,2.5	S48.62,43,50,43h10.5c1.92,0,3.5,1.58,3.5,3.5S62.42,50,60.5,50H59c-1.1,0-2,0.9-2,2s0.9,2,2,2C61.33,54,63.22,56.03,62.98,58.41z"/><linearGradient id="syy_qkVuuuZXv8L7z7xhSb" x1="32" x2="32" y1="5" y2="67.501" gradientTransform="matrix(1 0 0 -1 0 66)" gradientUnits="userSpaceOnUse"><stop offset="0" stop-color="#155cde"/><stop offset=".278" stop-color="#1f7fe5"/><stop offset=".569" stop-color="#279ceb"/><stop offset=".82" stop-color="#2cafef"/><stop offset="1" stop-color="#2eb5f0"/></linearGradient><path fill="url(#syy_qkVuuuZXv8L7z7xhSb)" d="M55,20v26c0,5.5-4.5,10-10,10H19c-5.5,0-10-4.5-10-10V20c0-5.5,4.5-10,10-10h26	C50.5,10,55,14.5,55,20z"/><path fill="#fff" d="M14.102,38.613L17.974,27.2c0.428-1.287,1.63-2.2,3.056-2.2c1.407,0,2.608,0.914,3.036,2.2	l3.831,11.288C27.959,38.696,28,38.904,28,39.112C28,40.149,27.164,41,26.146,41c-0.836,0-1.529-0.56-1.773-1.308L23.7,37.513	h-5.543l-0.672,2.221C17.261,40.481,16.589,41,15.773,41C14.795,41,14,40.191,14,39.195C14,38.987,14.041,38.801,14.102,38.613z M22.742,34.443l-0.978-3.175c-0.309-1.006-0.492-1.733-0.713-2.636h-0.245c-0.222,0.902-0.405,1.63-0.713,2.636l-0.978,3.175	H22.742z"/><path fill="#fff" d="M30,27.258c0-1.114,0.597-1.723,1.692-1.723h4.457c3.443,0,5.85,1.906,5.85,5.291	c0,3.283-2.308,5.33-5.87,5.33H33.82v2.898c0,1.075-0.856,1.946-1.91,1.946C30.856,41,30,40.128,30,39.054V27.258z M35.592,33.177	c1.533,0,2.647-0.609,2.647-2.291s-1.095-2.371-2.627-2.371h-1.791v4.661L35.592,33.177L35.592,33.177z"/><path fill="#fff" d="M44,27.296c0-1.061,0.896-1.921,2.001-1.921S48,26.235,48,27.296v11.582	c0,1.061-0.895,1.921-1.999,1.921S44,39.938,44,38.878V27.296z"/></svg>