<svg xmlns="http://www.w3.org/2000/svg"  viewBox="0 0 64 64" width="50px" height="50px"><radialGradient id="bXfa8b3FZ8BvbmipixpaLa" cx="32" cy="31.5" r="30.775" gradientUnits="userSpaceOnUse"><stop offset="0" stop-color="#f4e9c3"/><stop offset=".219" stop-color="#f8eecd"/><stop offset=".644" stop-color="#fdf4dc"/><stop offset="1" stop-color="#fff6e1"/></radialGradient><path fill="url(#bXfa8b3FZ8BvbmipixpaLa)" d="M57,2c2.761,0,5,2.239,5,5s-2.239,5-5,5s-5-2.239-5-5S54.239,2,57,2z M64,40.5 c0,1.52-0.62,2.9-1.61,3.89C61.4,45.38,60.02,46,58.5,46H42c-1.66,0-3,1.34-3,3c0,0.83,0.34,1.58,0.88,2.12 C40.42,51.66,41.17,52,42,52h4.5c2.49,0,4.5,2.01,4.5,4.5c0,1.24-0.5,2.37-1.32,3.18C48.87,60.5,47.74,61,46.5,61H5 c-2.21,0-4-1.79-4-4c0-1.1,0.45-2.1,1.17-2.83C2.9,53.45,3.9,53,5,53h6.5c1.93,0,3.5-1.57,3.5-3.5c0-0.96-0.39-1.84-1.03-2.47 C13.34,46.39,12.46,46,11.5,46H4c-2.21,0-4-1.79-4-4c0-1.1,0.45-2.1,1.17-2.83C1.9,38.45,2.9,38,4,38h1.5c2.48,0,4.5-2.01,4.5-4.5 c0-1.24-0.5-2.37-1.32-3.18C7.86,29.5,6.74,29,5.5,29H5c-2.76,0-5-2.24-5-5s2.24-5,5-5h5c2.76,0,5-2.24,5-5 c0-1.38-0.56-2.63-1.46-3.54C12.63,9.56,11.38,9,10,9H9.43C7.52,9,6,7.48,6,5.61V5.5C6,3.57,7.57,2,9.5,2h35 c1.93,0,3.49,1.56,3.5,3.48V5.5C48.01,7.43,46.45,9,44.52,9H38c-2.21,0-4,1.79-4,4s1.79,4,4,4h21c2.76,0,5,2.24,5,5 c0,1.38-0.56,2.63-1.46,3.54C61.63,26.44,60.38,27,59,27h-1c-2.21,0-4,1.79-4,4c0,1.1,0.45,2.1,1.17,2.83C55.9,34.55,56.9,35,58,35 h0.5C61.54,35,64,37.46,64,40.5z"/><linearGradient id="bXfa8b3FZ8BvbmipixpaLb" x1="8" x2="56" y1="32" y2="32" gradientUnits="userSpaceOnUse"><stop offset="0" stop-color="#155cde"/><stop offset=".158" stop-color="#196ce1"/><stop offset=".724" stop-color="#28a1ec"/><stop offset="1" stop-color="#2eb5f0"/></linearGradient><path fill="url(#bXfa8b3FZ8BvbmipixpaLb)" d="M55.121,8.879c-1.171-1.172-3.071-1.172-4.242,0l-42,42c-1.172,1.171-1.172,3.071,0,4.242 C9.464,55.707,10.232,56,11,56s1.536-0.293,2.121-0.879l42-42C56.293,11.95,56.293,10.05,55.121,8.879z"/></svg>