<svg xmlns="http://www.w3.org/2000/svg" xmlns:xlink="http://www.w3.org/1999/xlink" width="50" height="53" version="1.1" viewBox="0 0 50 53"><title>181 - Idea (Flat)</title><desc>Created with Sketch.</desc><g id="Page-1" fill="none" fill-rule="evenodd" stroke="none" stroke-width="1"><g id="181---Idea-(Flat)"><path id="Fill-938" fill="#F0CE49" d="M25,9 C16.163,9 9,16.164 9,25 C9,32.089 13.615,38.092 20,40.192 L20,50 L22,50 L22,53 L28,53 L28,50 L30,50 L30,40.192 C36.385,38.092 41,32.089 41,25 C41,16.164 33.836,9 25,9"/><path id="Fill-939" fill="#F0CE49" d="M25,0 C24.447,0 24,0.447 24,1 L24,5 C24,5.553 24.447,6 25,6 C25.553,6 26,5.553 26,5 L26,1 C26,0.447 25.553,0 25,0"/><path id="Fill-940" fill="#F0CE49" d="M49,24 L45,24 C44.447,24 44,24.447 44,25 C44,25.553 44.447,26 45,26 L49,26 C49.553,26 50,25.553 50,25 C50,24.447 49.553,24 49,24"/><path id="Fill-941" fill="#F0CE49" d="M5,24 L1,24 C0.447,24 0,24.447 0,25 C0,25.553 0.447,26 1,26 L5,26 C5.553,26 6,25.553 6,25 C6,24.447 5.553,24 5,24"/><path id="Fill-942" fill="#F0CE49" d="M41.264,7.323 L38.436,10.15 C38.045,10.541 38.045,11.174 38.436,11.565 C38.631,11.76 38.887,11.858 39.143,11.858 C39.398,11.858 39.654,11.76 39.85,11.565 L42.678,8.737 C43.068,8.346 43.068,7.713 42.678,7.323 C42.287,6.932 41.654,6.932 41.264,7.323"/><path id="Fill-943" fill="#F0CE49" d="M10.15,38.436 L7.322,41.264 C6.932,41.655 6.932,42.287 7.322,42.678 C7.518,42.873 7.773,42.971 8.029,42.971 C8.285,42.971 8.541,42.873 8.736,42.678 L11.564,39.85 C11.955,39.459 11.955,38.826 11.564,38.436 C11.174,38.045 10.541,38.045 10.15,38.436"/><path id="Fill-944" fill="#F0CE49" d="M39.85,38.436 C39.459,38.045 38.826,38.045 38.436,38.436 C38.045,38.826 38.045,39.459 38.436,39.85 L41.264,42.678 C41.459,42.873 41.715,42.971 41.971,42.971 C42.227,42.971 42.482,42.873 42.678,42.678 C43.068,42.287 43.068,41.655 42.678,41.264 L39.85,38.436"/><path id="Fill-945" fill="#F0CE49" d="M8.736,7.323 C8.346,6.932 7.713,6.932 7.322,7.323 C6.932,7.713 6.932,8.346 7.322,8.737 L10.15,11.565 C10.346,11.76 10.602,11.858 10.857,11.858 C11.113,11.858 11.369,11.76 11.564,11.565 C11.955,11.174 11.955,10.541 11.564,10.15 L8.736,7.323"/><path id="Fill-946" fill="#F8E7A1" d="M14,26 C13.447,26 13,25.553 13,25 C13,18.383 18.383,13 25,13 C25.553,13 26,13.448 26,14 C26,14.553 25.553,15 25,15 C19.486,15 15,19.487 15,25 C15,25.553 14.553,26 14,26"/><path id="Fill-1933" fill="#556080" d="M20,43 L20,50 L22,50 L22,53 L28,53 L28,50 L30,50 L30,43 L20,43"/></g></g></svg>