<?xml version="1.0" encoding="UTF-8" standalone="no"?>
<svg width="58px" height="54px" viewBox="0 0 58 54" version="1.1" xmlns="http://www.w3.org/2000/svg" xmlns:xlink="http://www.w3.org/1999/xlink" xmlns:sketch="http://www.bohemiancoding.com/sketch/ns">
    <!-- Generator: Sketch 3.2.2 (9983) - http://www.bohemiancoding.com/sketch -->
    <title>62 - Important Archive (Flat)</title>
    <desc>Created with Sketch.</desc>
    <defs></defs>
    <g id="Page-1" stroke="none" stroke-width="1" fill="none" fill-rule="evenodd" sketch:type="MSPage">
        <g id="Icons" sketch:type="MSArtboardGroup" transform="translate(-1081.000000, -4080.000000)">
            <g id="62---Important-Archive-(Flat)" sketch:type="MSLayerGroup" transform="translate(1081.000000, 4080.000000)">
                <path d="M52.767,54 L5.233,54 C5.099,54 4.985,53.902 4.965,53.77 L0.047,21.312 C0.022,21.148 0.149,21 0.315,21 L57.685,21 C57.851,21 57.978,21.148 57.953,21.312 L53.035,53.77 C53.015,53.902 52.901,54 52.767,54" id="Fill-1426" fill="#F8B563" sketch:type="MSShapeGroup"></path>
                <path d="M54.044,21 L54.044,5.768 C54.044,5.344 53.7,5 53.276,5 L22.479,5 C22.209,5 21.959,4.858 21.821,4.627 L19.268,0.373 C19.129,0.142 18.879,0 18.609,0 L4.812,0 C4.388,0 4.044,0.344 4.044,0.768 L4.044,21 L54.044,21" id="Fill-1427" fill="#B5885B" sketch:type="MSShapeGroup"></path>
                <path d="M7.044,17 L51.044,17 L51.044,21 L7.044,21 L7.044,17 Z" id="Fill-1428" fill="#FFFFFF" sketch:type="MSShapeGroup"></path>
                <path d="M8.044,14 L50.044,14 L50.044,17 L8.044,17 L8.044,14 Z" id="Fill-1429" fill="#E8EDEE" sketch:type="MSShapeGroup"></path>
                <path d="M9.044,11 L49.044,11 L49.044,14 L9.044,14 L9.044,11 Z" id="Fill-1430" fill="#C7CBC7" sketch:type="MSShapeGroup"></path>
                <path d="M2.424,37 L3.229,42.313 L8.542,37 L2.424,37" id="Fill-1431" fill="#424A60" sketch:type="MSShapeGroup"></path>
                <path d="M11.37,37 L8.542,37 L3.229,42.313 L4.15,48.392 L15.542,37 L11.37,37" id="Fill-1432" fill="#F0CE49" sketch:type="MSShapeGroup"></path>
                <path d="M18.37,37 L15.542,37 L4.15,48.392 L4.242,49 L11.542,49 L23.542,37 L18.37,37" id="Fill-1433" fill="#424A60" sketch:type="MSShapeGroup"></path>
                <path d="M26.37,37 L23.542,37 L11.542,49 L19.542,49 L31.542,37 L26.37,37" id="Fill-1434" fill="#F0CE49" sketch:type="MSShapeGroup"></path>
                <path d="M34.37,37 L31.542,37 L19.542,49 L27.542,49 L39.542,37 L34.37,37" id="Fill-1435" fill="#424A60" sketch:type="MSShapeGroup"></path>
                <path d="M42.37,37 L39.542,37 L27.542,49 L35.542,49 L47.542,37 L42.37,37" id="Fill-1436" fill="#F0CE49" sketch:type="MSShapeGroup"></path>
                <path d="M50.37,37 L47.542,37 L35.542,49 L43.542,49 L55.542,37 L50.37,37" id="Fill-1437" fill="#424A60" sketch:type="MSShapeGroup"></path>
                <path d="M55.542,37 L43.542,49 L53.758,49 L55.576,37 L55.542,37" id="Fill-1438" fill="#F0CE49" sketch:type="MSShapeGroup"></path>
            </g>
        </g>
    </g>
</svg>