<svg xmlns="http://www.w3.org/2000/svg" xmlns:xlink="http://www.w3.org/1999/xlink" width="60" height="31" version="1.1" viewBox="0 0 60 31"><title>188 - Infinity (Flat)</title><desc>Created with Sketch.</desc><g id="Page-1" fill="none" fill-rule="evenodd" stroke="none" stroke-width="1"><g id="188---Infinity-(Flat)" stroke="#424A60" stroke-linecap="round" stroke-width="2" transform="translate(1.000000, 1.000000)"><path id="Stroke-858" d="M29,14.5 C29,22.508 22.508,29 14.5,29 C6.492,29 0,22.508 0,14.5 C0,6.492 6.492,0 14.5,0 C17.483,0 20.256,0.901 22.562,2.446 C23.358,2.979 24.098,3.589 24.771,4.266 M29,14.5 C29,6.492 35.492,0 43.5,0 C51.508,0 58,6.492 58,14.5 C58,22.508 51.508,29 43.5,29 C39.497,29 35.873,27.378 33.249,24.755"/></g></g></svg>