<svg xmlns="http://www.w3.org/2000/svg" xmlns:xlink="http://www.w3.org/1999/xlink" width="58" height="58" version="1.1" viewBox="0 0 58 58"><title>154 - Internet (Flat)</title><desc>Created with Sketch.</desc><g id="Page-1" fill="none" fill-rule="evenodd" stroke="none" stroke-width="1"><g id="154---Internet-(Flat)" transform="translate(1.000000, 1.000000)"><path id="Fill-1046" fill="#7383BF" d="M56,28 C56,43.464 43.464,56 28,56 C12.536,56 0,43.464 0,28 C0,12.536 12.536,0 28,0 C43.464,0 56,12.536 56,28 L56,28 Z"/><path id="Stroke-1047" stroke="#556080" stroke-linecap="round" stroke-width="2" d="M56,28 C56,43.464 43.464,56 28,56 C12.536,56 0,43.464 0,28 C0,12.536 12.536,0 28,0 C43.464,0 56,12.536 56,28 L56,28 Z"/><path id="Stroke-1048" stroke="#556080" stroke-linecap="round" stroke-width="2" d="M28,56 L28,0 M28,0 C27.786,0 27.574,0.012 27.361,0.016 C19.213,6.616 14,16.698 14,28 C14,39.303 19.213,49.384 27.361,55.984 C27.574,55.989 27.786,56 28,56 M7.698,8.728 C13.478,12.683 20.468,15 28,15 C35.532,15 42.522,12.683 48.302,8.728 M48.862,46.67 C42.975,42.476 35.779,40 28,40 C20.221,40 13.025,42.476 7.138,46.67 M28,56 C28.214,56 28.426,55.989 28.639,55.984 C36.787,49.384 42,39.303 42,28 C42,16.698 36.787,6.616 28.639,0.016 C28.426,0.012 28.214,0 28,0 M0,28 L56,28"/></g></g></svg>