<svg xmlns="http://www.w3.org/2000/svg" xmlns:xlink="http://www.w3.org/1999/xlink" width="58" height="58" version="1.1" viewBox="0 0 58 58"><title>85 - Key (Flat)</title><desc>Created with Sketch.</desc><g id="Page-1" fill="none" fill-rule="evenodd" stroke="none" stroke-width="1"><g id="Icons" fill="#D8A852" transform="translate(-722.000000, -3838.000000)"><g id="85---Key-(Flat)" transform="translate(722.000000, 3838.000000)"><path id="Fill-1326" d="M41,0 C31.626,0 24,7.626 24,17 C24,20.195 24.902,23.175 26.441,25.731 L0.586,51.586 C-0.195,52.367 -0.195,53.633 0.586,54.414 C0.977,54.805 1.488,55 2,55 C2.512,55 3.023,54.805 3.414,54.414 L7,50.828 L13.586,57.414 C13.977,57.805 14.488,58 15,58 C15.512,58 16.023,57.805 16.414,57.414 C17.195,56.633 17.195,55.367 16.414,54.586 L9.828,48 L12,45.828 L16.586,50.414 C16.977,50.805 17.488,51 18,51 C18.512,51 19.023,50.805 19.414,50.414 C20.195,49.633 20.195,48.367 19.414,47.586 L14.828,43 L17,40.828 L23.586,47.414 C23.977,47.805 24.488,48 25,48 C25.512,48 26.023,47.805 26.414,47.414 C27.195,46.633 27.195,45.367 26.414,44.586 L19.828,38 L28.903,28.926 C31.988,32.054 36.269,34 41,34 C50.374,34 58,26.374 58,17 C58,7.626 50.374,0 41,0 L41,0 Z M41,30 C33.832,30 28,24.168 28,17 C28,9.832 33.832,4 41,4 C48.168,4 54,9.832 54,17 C54,24.168 48.168,30 41,30 L41,30 Z"/></g></g></g></svg>