<svg xmlns="http://www.w3.org/2000/svg" enable-background="new 0 0 48 48" version="1" viewBox="0 0 48 48"><path fill="#37474F" d="M8,41V7c0-2.2,1.8-4,4-4h24c2.2,0,4,1.8,4,4v34c0,2.2-1.8,4-4,4H12C9.8,45,8,43.2,8,41z"/><path fill="#eee" d="M35,6H13c-0.6,0-1,0.4-1,1v29c0,0.6,0.4,1,1,1h22c0.6,0,1-0.4,1-1V7C36,6.4,35.6,6,35,6z"/><rect width="8" height="2" x="20" y="40" fill="#546E7A"/><g fill="#A1A1A1"><rect width="16" height="3" x="16" y="11"/><rect width="16" height="2" x="16" y="18"/><rect width="12" height="2" x="16" y="22"/><rect width="16" height="2" x="16" y="26"/><rect width="12" height="2" x="16" y="30"/></g></svg>