<svg xmlns="http://www.w3.org/2000/svg" xmlns:xlink="http://www.w3.org/1999/xlink" width="52" height="51" version="1.1" viewBox="0 0 52 51"><title>325 - Knob (Flat)</title><desc>Created with Sketch.</desc><g id="Page-1" fill="none" fill-rule="evenodd" stroke="none" stroke-width="1"><g id="Icons" transform="translate(-724.000000, -961.000000)"><g id="325---Knob-(Flat)" transform="translate(725.000000, 962.000000)"><path id="Fill-1248" fill="#C7CBC7" d="M36.314,44.314 C30.065,50.562 19.935,50.562 13.686,44.314 C7.438,38.065 7.438,27.935 13.686,21.687 C19.935,15.438 30.065,15.438 36.314,21.687 C42.562,27.935 42.562,38.065 36.314,44.314 L36.314,44.314 Z"/><path id="Stroke-1249" stroke="#949493" stroke-width="2" d="M36.314,44.314 C30.065,50.562 19.935,50.562 13.686,44.314 C7.438,38.065 7.438,27.935 13.686,21.687 C19.935,15.438 30.065,15.438 36.314,21.687 C42.562,27.935 42.562,38.065 36.314,44.314 L36.314,44.314 Z"/><path id="Stroke-1250" stroke="#949493" stroke-linecap="round" stroke-width="2" d="M36.314,21.687 L25,33"/><path id="Stroke-1251" stroke="#F0CE49" stroke-linecap="round" stroke-width="2" d="M25,0 L25,6"/><path id="Stroke-1252" stroke="#D75A4A" stroke-linecap="round" stroke-width="2" d="M49.749,10.251 L45.506,14.494"/><path id="Stroke-1253" stroke="#659C35" stroke-linecap="round" stroke-width="2" d="M4.494,14.494 L0.251,10.251"/><path id="Stroke-1254" stroke="#ED8A19" stroke-linecap="round" stroke-width="2" d="M34.059,1.193 L32.506,6.988"/><path id="Stroke-1255" stroke="#A4E869" stroke-linecap="round" stroke-width="2" d="M15.941,1.193 L17.494,6.988 M17.494,6.988 L15.941,1.193"/><path id="Stroke-1256" stroke="#DD691D" stroke-linecap="round" stroke-width="2" d="M42.5,4.689 L39.5,9.885"/><path id="Stroke-1257" stroke="#88C057" stroke-linecap="round" stroke-width="2" d="M10.5,9.885 L7.5,4.689"/></g></g></g></svg>