<svg xmlns="http://www.w3.org/2000/svg" xmlns:xlink="http://www.w3.org/1999/xlink" width="55" height="59" version="1.1" viewBox="0 0 55 59"><title>7 - Presentation (Flat)</title><desc>Created with Sketch.</desc><g id="Page-1" fill="none" fill-rule="evenodd" stroke="none" stroke-width="1"><g id="Icons" transform="translate(-483.000000, -4797.000000)"><g id="7---Presentation-(Flat)" transform="translate(483.000000, 4798.000000)"><path id="Fill-1741" fill="#556080" d="M55,44 L0,44 L6,8 L49,8 L55,44"/><path id="Fill-1742" fill="#424A60" d="M55,44 L0,44 L1.414,37 L53.586,37 L55,44"/><path id="Fill-1743" fill="#E8EDEE" d="M24,44 L31,44 L31,55 L24,55 L24,44 Z"/><path id="Stroke-1744" stroke="#424A60" stroke-linecap="round" stroke-width="2" d="M14,16 L14,5 C14,2.25 16.25,0 19,0 C21.75,0 24,2.25 24,5"/><path id="Fill-1745" fill="#B0B6BB" d="M21,55 L34,55 L34,57.94 L21,57.94 L21,55 Z"/></g></g></g></svg>