<?xml version="1.0" encoding="UTF-8" standalone="no"?>
<svg width="60px" height="57px" viewBox="0 0 60 57" version="1.1" xmlns="http://www.w3.org/2000/svg" xmlns:xlink="http://www.w3.org/1999/xlink" xmlns:sketch="http://www.bohemiancoding.com/sketch/ns">
    <!-- Generator: Sketch 3.2.2 (9983) - http://www.bohemiancoding.com/sketch -->
    <title>179 - LAN (Flat)</title>
    <desc>Created with Sketch.</desc>
    <defs></defs>
    <g id="Page-1" stroke="none" stroke-width="1" fill="none" fill-rule="evenodd" sketch:type="MSPage">
        <g id="179---LAN-(Flat)" sketch:type="MSLayerGroup" transform="translate(1.000000, 0.000000)">
            <path d="M54.392,19 L3.608,19 C1.615,19 0,17.385 0,15.392 L0,3.608 C0,1.616 1.615,0 3.608,0 L54.392,0 C56.384,0 58,1.616 58,3.608 L58,15.392 C58,17.385 56.384,19 54.392,19" id="Fill-987" fill="#424A60" sketch:type="MSShapeGroup"></path>
            <path d="M33,52 C33,54.209 31.209,56 29,56 C26.791,56 25,54.209 25,52 C25,49.791 26.791,48 29,48 C31.209,48 33,49.791 33,52 L33,52 Z" id="Stroke-988" stroke="#424A60" stroke-width="2" stroke-linecap="round" sketch:type="MSShapeGroup"></path>
            <path d="M54.392,38 L3.608,38 C1.615,38 0,36.385 0,34.392 L0,22.609 C0,20.616 1.615,19 3.608,19 L54.392,19 C56.384,19 58,20.616 58,22.609 L58,34.392 C58,36.385 56.384,38 54.392,38" id="Fill-989" fill="#556080" sketch:type="MSShapeGroup"></path>
            <path d="M0,52 L25,52 M33,52 L58,52" id="Stroke-990" stroke="#424A60" stroke-width="2" stroke-linecap="round" sketch:type="MSShapeGroup"></path>
            <path d="M29,48 L29,38" id="Stroke-991" stroke="#424A60" stroke-width="2" sketch:type="MSShapeGroup"></path>
            <path d="M13,9.5 C13,11.433 11.433,13 9.5,13 C7.567,13 6,11.433 6,9.5 C6,7.567 7.567,6 9.5,6 C11.433,6 13,7.567 13,9.5" id="Fill-1998" fill="#7383BF" sketch:type="MSShapeGroup"></path>
            <path d="M13,28.5 C13,30.433 11.433,32 9.5,32 C7.567,32 6,30.433 6,28.5 C6,26.567 7.567,25 9.5,25 C11.433,25 13,26.567 13,28.5" id="Fill-1999" fill="#7383BF" sketch:type="MSShapeGroup"></path>
            <path d="M49,9 C49.552,9 50,8.552 50,8 C50,7.448 49.552,7 49,7 C48.448,7 48,7.448 48,8 C48,8.552 48.448,9 49,9" id="Fill-2000" fill="#7383BF" sketch:type="MSShapeGroup"></path>
            <path d="M45,9 C45.552,9 46,8.552 46,8 C46,7.448 45.552,7 45,7 C44.448,7 44,7.448 44,8 C44,8.552 44.448,9 45,9" id="Fill-2001" fill="#7383BF" sketch:type="MSShapeGroup"></path>
            <path d="M51,12 C51.552,12 52,11.552 52,11 C52,10.448 51.552,10 51,10 C50.448,10 50,10.448 50,11 C50,11.552 50.448,12 51,12" id="Fill-2002" fill="#7383BF" sketch:type="MSShapeGroup"></path>
            <path d="M47,12 C47.552,12 48,11.552 48,11 C48,10.448 47.552,10 47,10 C46.448,10 46,10.448 46,11 C46,11.552 46.448,12 47,12" id="Fill-2003" fill="#7383BF" sketch:type="MSShapeGroup"></path>
            <path d="M41,9 C41.552,9 42,8.552 42,8 C42,7.448 41.552,7 41,7 C40.448,7 40,7.448 40,8 C40,8.552 40.448,9 41,9" id="Fill-2004" fill="#7383BF" sketch:type="MSShapeGroup"></path>
            <path d="M43,12 C43.552,12 44,11.552 44,11 C44,10.448 43.552,10 43,10 C42.448,10 42,10.448 42,11 C42,11.552 42.448,12 43,12" id="Fill-2005" fill="#7383BF" sketch:type="MSShapeGroup"></path>
            <path d="M37,9 C37.552,9 38,8.552 38,8 C38,7.448 37.552,7 37,7 C36.448,7 36,7.448 36,8 C36,8.552 36.448,9 37,9" id="Fill-2006" fill="#7383BF" sketch:type="MSShapeGroup"></path>
            <path d="M39,12 C39.552,12 40,11.552 40,11 C40,10.448 39.552,10 39,10 C38.448,10 38,10.448 38,11 C38,11.552 38.448,12 39,12" id="Fill-2007" fill="#7383BF" sketch:type="MSShapeGroup"></path>
            <path d="M33,9 C33.552,9 34,8.552 34,8 C34,7.448 33.552,7 33,7 C32.448,7 32,7.448 32,8 C32,8.552 32.448,9 33,9" id="Fill-2008" fill="#7383BF" sketch:type="MSShapeGroup"></path>
            <path d="M35,12 C35.552,12 36,11.552 36,11 C36,10.448 35.552,10 35,10 C34.448,10 34,10.448 34,11 C34,11.552 34.448,12 35,12" id="Fill-2009" fill="#7383BF" sketch:type="MSShapeGroup"></path>
            <path d="M49,26 C48.448,26 48,26.448 48,27 C48,27.552 48.448,28 49,28 C49.552,28 50,27.552 50,27 C50,26.448 49.552,26 49,26" id="Fill-2010" fill="#7383BF" sketch:type="MSShapeGroup"></path>
            <path d="M45,26 C44.448,26 44,26.448 44,27 C44,27.552 44.448,28 45,28 C45.552,28 46,27.552 46,27 C46,26.448 45.552,26 45,26" id="Fill-2011" fill="#7383BF" sketch:type="MSShapeGroup"></path>
            <path d="M51,29 C50.448,29 50,29.448 50,30 C50,30.552 50.448,31 51,31 C51.552,31 52,30.552 52,30 C52,29.448 51.552,29 51,29" id="Fill-2012" fill="#7383BF" sketch:type="MSShapeGroup"></path>
            <path d="M47,29 C46.448,29 46,29.448 46,30 C46,30.552 46.448,31 47,31 C47.552,31 48,30.552 48,30 C48,29.448 47.552,29 47,29" id="Fill-2013" fill="#7383BF" sketch:type="MSShapeGroup"></path>
            <path d="M41,26 C40.448,26 40,26.448 40,27 C40,27.552 40.448,28 41,28 C41.552,28 42,27.552 42,27 C42,26.448 41.552,26 41,26" id="Fill-2014" fill="#7383BF" sketch:type="MSShapeGroup"></path>
            <path d="M43,29 C42.448,29 42,29.448 42,30 C42,30.552 42.448,31 43,31 C43.552,31 44,30.552 44,30 C44,29.448 43.552,29 43,29" id="Fill-2015" fill="#7383BF" sketch:type="MSShapeGroup"></path>
            <path d="M37,26 C36.448,26 36,26.448 36,27 C36,27.552 36.448,28 37,28 C37.552,28 38,27.552 38,27 C38,26.448 37.552,26 37,26" id="Fill-2016" fill="#7383BF" sketch:type="MSShapeGroup"></path>
            <path d="M39,29 C38.448,29 38,29.448 38,30 C38,30.552 38.448,31 39,31 C39.552,31 40,30.552 40,30 C40,29.448 39.552,29 39,29" id="Fill-2017" fill="#7383BF" sketch:type="MSShapeGroup"></path>
            <path d="M33,26 C32.448,26 32,26.448 32,27 C32,27.552 32.448,28 33,28 C33.552,28 34,27.552 34,27 C34,26.448 33.552,26 33,26" id="Fill-2018" fill="#7383BF" sketch:type="MSShapeGroup"></path>
            <path d="M35,29 C34.448,29 34,29.448 34,30 C34,30.552 34.448,31 35,31 C35.552,31 36,30.552 36,30 C36,29.448 35.552,29 35,29" id="Fill-2019" fill="#7383BF" sketch:type="MSShapeGroup"></path>
        </g>
    </g>
</svg>