<svg xmlns="http://www.w3.org/2000/svg" enable-background="new 0 0 48 48" version="1" viewBox="0 0 48 48"><g fill="#FF9800"><rect width="46" height="2" x="1" y="38"/><rect width="4" height="16" x="25" y="18"/><rect width="4" height="16" x="31" y="18"/><rect width="4" height="16" x="37" y="18"/><rect width="4" height="16" x="19" y="18"/><rect width="4" height="16" x="13" y="18"/><rect width="4" height="16" x="7" y="18"/><polygon points="43 16 5 16 5 13 24 4 43 13"/><rect width="38" height="2" x="5" y="34"/></g><g fill="#EF6C00"><rect width="4" height="2" x="25" y="16"/><rect width="4" height="2" x="31" y="16"/><rect width="4" height="2" x="37" y="16"/><rect width="4" height="2" x="19" y="16"/><rect width="4" height="2" x="13" y="16"/><rect width="4" height="2" x="7" y="16"/><rect width="42" height="2" x="3" y="36"/><circle cx="24" cy="11" r="2"/></g></svg>