<?xml version="1.0" encoding="UTF-8" standalone="no"?>
<svg width="44px" height="60px" viewBox="0 0 44 60" version="1.1" xmlns="http://www.w3.org/2000/svg" xmlns:xlink="http://www.w3.org/1999/xlink" xmlns:sketch="http://www.bohemiancoding.com/sketch/ns">
    <!-- Generator: Sketch 3.2.2 (9983) - http://www.bohemiancoding.com/sketch -->
    <title>303 - Locations (Flat)</title>
    <desc>Created with Sketch.</desc>
    <defs></defs>
    <g id="Page-1" stroke="none" stroke-width="1" fill="none" fill-rule="evenodd" sketch:type="MSPage">
        <g id="Icons" sketch:type="MSArtboardGroup" transform="translate(-967.000000, -1197.000000)">
            <g id="303---Locations-(Flat)" sketch:type="MSLayerGroup" transform="translate(967.000000, 1197.000000)">
                <path d="M43.809,12.208 C43.112,6.89 40.332,0 29.419,0 C18.506,0 15.727,6.89 15.03,12.208 C14.648,15.123 14.862,18.084 15.469,20.96 C18.804,36.773 27.05,46.253 29.001,48.321 C29.229,48.563 29.609,48.563 29.838,48.321 C31.789,46.253 40.035,36.773 43.37,20.96 C43.977,18.084 44.191,15.123 43.809,12.208 L43.809,12.208 Z M29.419,22 C24.759,22 20.982,18.223 20.982,13.563 C20.982,8.903 24.759,5.125 29.419,5.125 C34.079,5.125 37.857,8.903 37.857,13.563 C37.857,18.223 34.079,22 29.419,22 L29.419,22 Z" id="Fill-275" fill="#25AE88" sketch:type="MSShapeGroup"></path>
                <path d="M28.97,23.706 C28.273,18.388 25.494,11.498 14.581,11.498 C3.668,11.498 0.888,18.388 0.191,23.706 C-0.191,26.62 0.023,29.582 0.63,32.458 C3.965,48.271 12.211,57.751 14.162,59.818 C14.391,60.061 14.771,60.061 14.999,59.818 C16.95,57.751 25.196,48.271 28.531,32.458 C29.138,29.582 29.352,26.62 28.97,23.706 L28.97,23.706 Z M14.581,33.498 C9.921,33.498 6.143,29.72 6.143,25.06 C6.143,20.4 9.921,16.623 14.581,16.623 C19.24,16.623 23.018,20.4 23.018,25.06 C23.018,29.72 19.24,33.498 14.581,33.498 L14.581,33.498 Z" id="Fill-1850" fill="#ECBA16" sketch:type="MSShapeGroup"></path>
            </g>
        </g>
    </g>
</svg>