<?xml version="1.0" encoding="UTF-8" standalone="no"?>
<svg width="58px" height="58px" viewBox="0 0 58 58" version="1.1" xmlns="http://www.w3.org/2000/svg" xmlns:xlink="http://www.w3.org/1999/xlink" xmlns:sketch="http://www.bohemiancoding.com/sketch/ns">
    <!-- Generator: Sketch 3.2.2 (9983) - http://www.bohemiancoding.com/sketch -->
    <title>157 - Location Area (Flat)</title>
    <desc>Created with Sketch.</desc>
    <defs></defs>
    <g id="Page-1" stroke="none" stroke-width="1" fill="none" fill-rule="evenodd" sketch:type="MSPage">
        <g id="157---Location-Area-(Flat)" sketch:type="MSLayerGroup" transform="translate(0.000000, -1.000000)">
            <path d="M58,51 C58,55.418 45.016,59 29,59 C12.984,59 0,55.418 0,51 C0,46.582 12.984,43 29,43 C45.016,43 58,46.582 58,51" id="Fill-2694" fill="#23A24D" sketch:type="MSShapeGroup"></path>
            <path d="M41.676,6.324 L41.676,6.324 C34.578,-0.775 23.069,-0.775 15.97,6.324 C9.574,12.72 8.854,24.764 14.282,32 L28.823,53 L43.365,32 C48.792,24.764 48.072,12.72 41.676,6.324 L41.676,6.324 Z M29,25 C25.686,25 23,22.314 23,19 C23,15.687 25.686,13 29,13 C32.314,13 35,15.687 35,19 C35,22.314 32.314,25 29,25 L29,25 Z" id="Fill-2695" fill="#ECBA16" sketch:type="MSShapeGroup"></path>
        </g>
    </g>
</svg>