<?xml version="1.0" encoding="UTF-8" standalone="no"?>
<svg width="58px" height="58px" viewBox="0 0 58 58" version="1.1" xmlns="http://www.w3.org/2000/svg" xmlns:xlink="http://www.w3.org/1999/xlink" xmlns:sketch="http://www.bohemiancoding.com/sketch/ns">
    <!-- Generator: Sketch 3.2.2 (9983) - http://www.bohemiancoding.com/sketch -->
    <title>155 - Location Pin (Flat)</title>
    <desc>Created with Sketch.</desc>
    <defs></defs>
    <g id="Page-1" stroke="none" stroke-width="1" fill="none" fill-rule="evenodd" sketch:type="MSPage">
        <g id="155---Location-Pin-(Flat)" sketch:type="MSLayerGroup" transform="translate(0.000000, -1.000000)">
            <path d="M48,38 L39.563,38 L29.177,53 L18.79,38 L10,38 L0,59 L58,59 L48,38" id="Fill-211" fill="#F0CE49" sketch:type="MSShapeGroup"></path>
            <path d="M42.03,6.324 L42.03,6.324 C34.931,-0.775 23.422,-0.775 16.324,6.324 C9.928,12.72 9.208,24.764 14.635,32 L29.177,53 L43.718,32 C49.145,24.764 48.426,12.72 42.03,6.324 L42.03,6.324 Z M29.354,25 C26.04,25 23.354,22.314 23.354,19 C23.354,15.687 26.04,13 29.354,13 C32.667,13 35.354,15.687 35.354,19 C35.354,22.314 32.667,25 29.354,25 L29.354,25 Z" id="Fill-1949" fill="#9777A8" sketch:type="MSShapeGroup"></path>
        </g>
    </g>
</svg>