<svg xmlns="http://www.w3.org/2000/svg" xmlns:xlink="http://www.w3.org/1999/xlink" width="28" height="58" version="1.1" viewBox="0 0 28 58"><title>306 - Location Pin (Flat)</title><desc>Created with Sketch.</desc><g id="Page-1" fill="none" fill-rule="evenodd" stroke="none" stroke-width="1"><g id="Icons" transform="translate(-615.000000, -1199.000000)"><g id="306---Location-Pin-(Flat)" transform="translate(615.000000, 1199.000000)"><path id="Stroke-276" stroke="#556080" stroke-linecap="round" stroke-width="2" d="M14,28 L14,57"/><path id="Fill-621" fill="#DD342E" d="M28,14 C28,21.732 21.732,28 14,28 C6.268,28 0,21.732 0,14 C0,6.268 6.268,0 14,0 C21.732,0 28,6.268 28,14"/><path id="Fill-622" fill="#F86363" d="M12,10 C12,11.657 10.657,13 9,13 C7.343,13 6,11.657 6,10 C6,8.343 7.343,7 9,7 C10.657,7 12,8.343 12,10"/></g></g></g></svg>