<svg xmlns="http://www.w3.org/2000/svg" xmlns:xlink="http://www.w3.org/1999/xlink" width="58" height="51" version="1.1" viewBox="0 0 58 51"><title>53 - Lock Folder (Flat)</title><desc>Created with Sketch.</desc><g id="Page-1" fill="none" fill-rule="evenodd" stroke="none" stroke-width="1"><g id="Icons" transform="translate(-961.000000, -4202.000000)"><g id="53---Lock-Folder-(Flat)" transform="translate(961.000000, 4202.000000)"><path id="Fill-82" fill="#556080" d="M25,7 L20,0 L0,0 L0,51 L58,51 L58,14 L30,14 L25,7"/><path id="Fill-83" fill="#3C4451" d="M30,14 L58,14 L58,7 L25,7 L30,14"/><path id="Path" stroke="#424A60" stroke-linecap="round" stroke-width="2" d="M24,32 L24,25 C24,22.239 26.239,20 29,20 C31.761,20 34,22.239 34,25 L34,32"/><path id="Fill-3076" fill="#7383BF" d="M20,30 L38,30 L38,44 L20,44 L20,30 Z"/><path id="Fill-3077" fill="#424A60" d="M32,36 C32,34.343 30.657,33 29,33 C27.343,33 26,34.343 26,36 C26,37.305 26.837,38.403 28,38.817 L28,41 C28,41.553 28.447,42 29,42 C29.553,42 30,41.553 30,41 L30,38.817 C31.163,38.403 32,37.305 32,36"/></g></g></g></svg>