<svg xmlns="http://www.w3.org/2000/svg" xmlns:xlink="http://www.w3.org/1999/xlink" width="54" height="60" version="1.1" viewBox="0 0 54 60"><title>320 - Lock Orientation (Flat)</title><desc>Created with Sketch.</desc><g id="Page-1" fill="none" fill-rule="evenodd" stroke="none" stroke-width="1"><g id="Icons" transform="translate(-123.000000, -1077.000000)"><g id="320---Lock-Orientation-(Flat)" transform="translate(124.000000, 1078.000000)"><path id="Stroke-1210" stroke="#949493" stroke-linecap="round" stroke-width="2" d="M31,23 L21,23 L21,15 C21,12.239 23.239,10 26,10 C28.761,10 31,12.239 31,15 L31,23 L31,23 Z"/><path id="Stroke-1211" stroke="#38454F" stroke-linecap="round" stroke-linejoin="round" stroke-width="2" d="M26,52 C11.641,52 0,40.359 0,26 C0,11.641 11.641,0 26,0 C40.359,0 52,11.641 52,26 C52,33.135 49.126,39.599 44.472,44.297 M26,52 L20,58 M26,52 L20,46"/><path id="Fill-2504" fill="#EC7937" d="M16,21 L36,21 L36,38 L16,38 L16,21 Z"/><path id="Fill-2505" fill="#FFF" d="M29,28 C29,26.343 27.657,25 26,25 C24.343,25 23,26.343 23,28 C23,29.317 23.854,30.424 25.035,30.827 C25.024,30.886 25,30.939 25,31 L25,34 C25,34.553 25.448,35 26,35 C26.552,35 27,34.553 27,34 L27,31 C27,30.939 26.976,30.886 26.965,30.827 C28.146,30.424 29,29.317 29,28"/></g></g></g></svg>