<svg xmlns="http://www.w3.org/2000/svg" xmlns:xlink="http://www.w3.org/1999/xlink" width="42" height="52" version="1.1" viewBox="0 0 42 52"><title>286 - Locked (Flat)</title><desc>Created with Sketch.</desc><g id="Page-1" fill="none" fill-rule="evenodd" stroke="none" stroke-width="1"><g id="Icons" transform="translate(-609.000000, -1442.000000)"><g id="286---Locked-(Flat)" transform="translate(609.000000, 1442.000000)"><path id="Fill-638" fill="#C7CBC7" d="M35.771,52 L6.229,52 C2.789,52 0,49.211 0,45.771 L0,26.229 C0,22.789 2.789,20 6.229,20 L35.771,20 C39.211,20 42,22.789 42,26.229 L42,45.771 C42,49.211 39.211,52 35.771,52"/><path id="Fill-2539" fill="#E8EDEE" d="M35.771,20 L21,20 L21,52 L35.771,52 C39.211,52 42,49.211 42,45.771 L42,26.229 C42,22.789 39.211,20 35.771,20"/><path id="Fill-2540" fill="#4B4C4F" d="M21,40 L21,40 C19.35,40 18,38.65 18,37 L18,31 C18,29.35 19.35,28 21,28 C22.65,28 24,29.35 24,31 L24,37 C24,38.65 22.65,40 21,40"/><path id="Fill-2544" fill="#546A79" d="M6.229,20 L10,20 L10,13.5 C10,8.262 14.935,4 21,4 C27.065,4 32,8.262 32,13.5 L32,20 L35.771,20 C35.848,20 35.923,20.009 36,20.012 L36,13.5 C36,6.075 29.25,0 21,0 C12.75,0 6,6.075 6,13.5 L6,20.012 C6.077,20.009 6.152,20 6.229,20"/></g></g></g></svg>