<svg xmlns="http://www.w3.org/2000/svg" xmlns:xlink="http://www.w3.org/1999/xlink" width="42" height="58" version="1.1" viewBox="0 0 42 58"><title>288 - Locked (Flat)</title><desc>Created with Sketch.</desc><g id="Page-1" fill="none" fill-rule="evenodd" stroke="none" stroke-width="1"><g id="Icons" transform="translate(-368.000000, -1438.000000)"><g id="288---Locked-(Flat)" transform="translate(368.000000, 1439.000000)"><path id="Fill-256" fill="#C7CBC7" d="M34,31 L7,31 L7,12.601 C7,5.653 13.056,0 20.5,0 C27.944,0 34,5.653 34,12.601 L34,31 L34,31 Z M11,27 L30,27 L30,12.601 C30,7.859 25.738,4 20.5,4 C15.262,4 11,7.859 11,12.601 L11,27 L11,27 Z"/><path id="Stroke-257" stroke="#C7CBC7" stroke-width="2" d="M34,31 L7,31 L7,12.601 C7,5.653 13.056,0 20.5,0 C27.944,0 34,5.653 34,12.601 L34,31 L34,31 Z M11,27 L30,27 L30,12.601 C30,7.859 25.738,4 20.5,4 C15.262,4 11,7.859 11,12.601 L11,27 L11,27 Z"/><path id="Fill-260" fill="#7383BF" d="M0,25 L42,25 L42,57 L0,57 L0,25 Z"/><path id="Fill-261" fill="#6879AF" d="M21,25 L42,25 L42,57 L21,57 L21,25 Z"/><path id="Fill-1859" fill="#ECBA16" d="M34.586,56 L41,49.586 L41,46 L35.414,46 L25.414,56 L34.586,56"/><path id="Fill-1860" fill="#4F5970" d="M1,46 L1,53.586 L8.586,46 L1,46"/><path id="Fill-1861" fill="#424A60" d="M22.586,56 L32.586,46 L23.414,46 L13.414,56 L22.586,56"/><path id="Fill-1862" fill="#EBCC18" d="M20.586,46 L11.414,46 L1.707,55.707 C1.512,55.903 1.256,56 1,56 L10.586,56 L20.586,46"/><path id="Fill-1863" fill="#424A60" d="M41,56 L41,52.414 L37.414,56 L41,56"/><path id="Fill-2530" fill="#4F5970" d="M21,48.414 L13.414,56 L21,56 L21,48.414"/></g></g></g></svg>