<svg xmlns="http://www.w3.org/2000/svg" xmlns:xlink="http://www.w3.org/1999/xlink" width="57" height="57" version="1.1" viewBox="0 0 57 57"><title>210 - Enhance (Flat)</title><desc>Created with Sketch.</desc><g id="Page-1" fill="none" fill-rule="evenodd" stroke="none" stroke-width="1"><g id="210---Enhance-(Flat)"><path id="Fill-232" fill="#424A60" d="M40.928,12.014 L0.586,52.356 L4.829,56.598 L45.17,16.256 L40.928,12.014"/><path id="Fill-1013" fill="#ECBA16" d="M41,9 C40.448,9 40,8.553 40,8 L40,1 C40,0.448 40.448,0 41,0 C41.552,0 42,0.448 42,1 L42,8 C42,8.553 41.552,9 41,9"/><path id="Fill-1014" fill="#ECBA16" d="M41,32 C40.448,32 40,31.553 40,31 L40,24 C40,23.448 40.448,23 41,23 C41.552,23 42,23.448 42,24 L42,31 C42,31.553 41.552,32 41,32"/><path id="Fill-1015" fill="#ECBA16" d="M56,17 L49,17 C48.448,17 48,16.553 48,16 C48,15.448 48.448,15 49,15 L56,15 C56.552,15 57,15.448 57,16 C57,16.553 56.552,17 56,17"/><path id="Fill-1016" fill="#ECBA16" d="M33,17 L26,17 C25.448,17 25,16.553 25,16 C25,15.448 25.448,15 26,15 L33,15 C33.552,15 34,15.448 34,16 C34,16.553 33.552,17 33,17"/><path id="Fill-1017" fill="#ECBA16" d="M47,11 C46.744,11 46.488,10.903 46.293,10.707 C45.902,10.317 45.902,9.684 46.293,9.293 L51.243,4.343 C51.633,3.952 52.266,3.952 52.657,4.343 C53.047,4.733 53.047,5.366 52.657,5.757 L47.707,10.707 C47.512,10.903 47.256,11 47,11"/><path id="Fill-1018" fill="#ECBA16" d="M51.95,27.95 C51.694,27.95 51.438,27.853 51.243,27.657 L46.293,22.707 C45.902,22.317 45.902,21.684 46.293,21.293 C46.684,20.903 47.316,20.903 47.707,21.293 L52.657,26.243 C53.047,26.634 53.047,27.267 52.657,27.657 C52.461,27.853 52.206,27.95 51.95,27.95"/><path id="Fill-1019" fill="#ECBA16" d="M35,11 C34.744,11 34.488,10.903 34.293,10.707 L29.343,5.757 C28.953,5.366 28.953,4.733 29.343,4.343 C29.734,3.952 30.367,3.952 30.757,4.343 L35.707,9.293 C36.098,9.684 36.098,10.317 35.707,10.707 C35.512,10.903 35.256,11 35,11"/><path id="Fill-2604" fill="#7383BF" d="M35.048,26.378 L45.213,16.213 L40.971,11.971 L30.805,22.136 L35.048,26.378"/></g></g></svg>