<svg xmlns="http://www.w3.org/2000/svg" xmlns:xlink="http://www.w3.org/1999/xlink" width="58" height="52" version="1.1" viewBox="0 0 58 52"><title>108 - Magnet (Flat)</title><desc>Created with Sketch.</desc><g id="Page-1" fill="none" fill-rule="evenodd" stroke="none" stroke-width="1"><g id="108---Magnet-(Flat)"><path id="Fill-1327" fill="#424A60" d="M58,38 L26,38 C19.373,38 14,32.628 14,26 C14,19.373 19.373,14 26,14 L58,14 L58,0 L26,0 C11.641,0 0,11.641 0,26 C0,40.359 11.641,52 26,52 L58,52 L58,38"/><path id="Fill-1328" fill="#ECBA16" d="M41,0 L45,0 L45,14 L41,14 L41,0 Z"/><path id="Fill-1329" fill="#ECBA16" d="M41,38 L45,38 L45,52 L41,52 L41,38 Z"/><path id="Fill-1330" fill="#DD342E" d="M45.031,38 L58,38 L58,52 L45.031,52 L45.031,38 Z"/><path id="Fill-1331" fill="#DD342E" d="M45.031,0 L58,0 L58,14 L45.031,14 L45.031,0 Z"/></g></g></svg>