<svg xmlns="http://www.w3.org/2000/svg" xmlns:xlink="http://www.w3.org/1999/xlink" width="58" height="52" version="1.1" viewBox="0 0 58 52"><title>106 - Magnet (Flat)</title><desc>Created with Sketch.</desc><g id="Page-1" fill="none" fill-rule="evenodd" stroke="none" stroke-width="1"><g id="106---Magnet-(Flat)"><path id="Fill-168" fill="#424A60" d="M58,38 L26,38 C19.373,38 14,32.628 14,26 C14,19.373 19.373,14 26,14 L58,14 L58,0 L26,0 C11.641,0 0,11.641 0,26 C0,40.359 11.641,52 26,52 L58,52 L58,38"/><path id="Fill-169" fill="#DD342E" d="M44,0 L58,0 L58,14 L44,14 L44,0 Z"/><path id="Fill-170" fill="#F0CE49" d="M44,38 L58,38 L58,52 L44,52 L44,38 Z"/><path id="Fill-1349" fill="#FFF" d="M54,8 L48,8 C47.447,8 47,7.553 47,7 C47,6.447 47.447,6 48,6 L54,6 C54.553,6 55,6.447 55,7 C55,7.553 54.553,8 54,8"/><path id="Fill-1350" fill="#FFF" d="M51,11 C50.447,11 50,10.553 50,10 L50,4 C50,3.447 50.447,3 51,3 C51.553,3 52,3.447 52,4 L52,10 C52,10.553 51.553,11 51,11"/><path id="Fill-1351" fill="#FFF" d="M54,46 L48,46 C47.447,46 47,45.553 47,45 C47,44.448 47.447,44 48,44 L54,44 C54.553,44 55,44.448 55,45 C55,45.553 54.553,46 54,46"/></g></g></svg>