<svg xmlns="http://www.w3.org/2000/svg" xmlns:xlink="http://www.w3.org/1999/xlink" width="59" height="52" version="1.1" viewBox="0 0 59 52"><title>107 - Magnet (Flat)</title><desc>Created with Sketch.</desc><g id="Page-1" fill="none" fill-rule="evenodd" stroke="none" stroke-width="1"><g id="107---Magnet-(Flat)"><path id="Fill-1332" fill="#424A60" d="M46,38 L26,38 C19.373,38 14,32.628 14,26 C14,19.373 19.373,14 26,14 L46,14 L46,0 L26,0 C11.641,0 0,11.641 0,26 C0,40.359 11.641,52 26,52 L46,52 L46,38"/><path id="Fill-1333" fill="#C7CBC7" d="M53,4 L54,4 C54.552,4 55,3.553 55,3 C55,2.448 54.552,2 54,2 L53,2 C52.448,2 52,2.448 52,3 C52,3.553 52.448,4 53,4"/><path id="Fill-1334" fill="#C7CBC7" d="M49,4 L50,4 C50.552,4 51,3.553 51,3 C51,2.448 50.552,2 50,2 L49,2 C48.448,2 48,2.448 48,3 C48,3.553 48.448,4 49,4"/><path id="Fill-1335" fill="#C7CBC7" d="M57,4 L58,4 C58.552,4 59,3.553 59,3 C59,2.448 58.552,2 58,2 L57,2 C56.448,2 56,2.448 56,3 C56,3.553 56.448,4 57,4"/><path id="Fill-1336" fill="#C7CBC7" d="M54,10 L53,10 C52.448,10 52,10.447 52,11 C52,11.553 52.448,12 53,12 L54,12 C54.552,12 55,11.553 55,11 C55,10.447 54.552,10 54,10"/><path id="Fill-1337" fill="#C7CBC7" d="M49,12 L50,12 C50.552,12 51,11.553 51,11 C51,10.447 50.552,10 50,10 L49,10 C48.448,10 48,10.447 48,11 C48,11.553 48.448,12 49,12"/><path id="Fill-1338" fill="#C7CBC7" d="M58,10 L57,10 C56.448,10 56,10.447 56,11 C56,11.553 56.448,12 57,12 L58,12 C58.552,12 59,11.553 59,11 C59,10.447 58.552,10 58,10"/><path id="Fill-1339" fill="#C7CBC7" d="M50,7 C50,7.553 50.448,8 51,8 L52,8 C52.552,8 53,7.553 53,7 C53,6.447 52.552,6 52,6 L51,6 C50.448,6 50,6.447 50,7"/><path id="Fill-1340" fill="#C7CBC7" d="M54,7 C54,7.553 54.448,8 55,8 L56,8 C56.552,8 57,7.553 57,7 C57,6.447 56.552,6 56,6 L55,6 C54.448,6 54,6.447 54,7"/><path id="Fill-1341" fill="#C7CBC7" d="M54,41 L53,41 C52.448,41 52,41.448 52,42 C52,42.553 52.448,43 53,43 L54,43 C54.552,43 55,42.553 55,42 C55,41.448 54.552,41 54,41"/><path id="Fill-1342" fill="#C7CBC7" d="M49,43 L50,43 C50.552,43 51,42.553 51,42 C51,41.448 50.552,41 50,41 L49,41 C48.448,41 48,41.448 48,42 C48,42.553 48.448,43 49,43"/><path id="Fill-1343" fill="#C7CBC7" d="M58,41 L57,41 C56.448,41 56,41.448 56,42 C56,42.553 56.448,43 57,43 L58,43 C58.552,43 59,42.553 59,42 C59,41.448 58.552,41 58,41"/><path id="Fill-1344" fill="#C7CBC7" d="M54,49 L53,49 C52.448,49 52,49.447 52,50 C52,50.553 52.448,51 53,51 L54,51 C54.552,51 55,50.553 55,50 C55,49.447 54.552,49 54,49"/><path id="Fill-1345" fill="#C7CBC7" d="M50,49 L49,49 C48.448,49 48,49.447 48,50 C48,50.553 48.448,51 49,51 L50,51 C50.552,51 51,50.553 51,50 C51,49.447 50.552,49 50,49"/><path id="Fill-1346" fill="#C7CBC7" d="M58,49 L57,49 C56.448,49 56,49.447 56,50 C56,50.553 56.448,51 57,51 L58,51 C58.552,51 59,50.553 59,50 C59,49.447 58.552,49 58,49"/><path id="Fill-1347" fill="#C7CBC7" d="M53,46 C53,45.447 52.552,45 52,45 L51,45 C50.448,45 50,45.447 50,46 C50,46.553 50.448,47 51,47 L52,47 C52.552,47 53,46.553 53,46"/><path id="Fill-1348" fill="#C7CBC7" d="M57,46 C57,45.447 56.552,45 56,45 L55,45 C54.448,45 54,45.447 54,46 C54,46.553 54.448,47 55,47 L56,47 C56.552,47 57,46.553 57,46"/><path id="Fill-3012" fill="#ECBA16" d="M32,0 L46,0 L46,14 L32,14 L32,0 Z"/><path id="Fill-3013" fill="#ECBA16" d="M32,38 L46,38 L46,52 L32,52 L32,38 Z"/></g></g></svg>