<svg xmlns="http://www.w3.org/2000/svg" xmlns:xlink="http://www.w3.org/1999/xlink" width="58" height="49" version="1.1" viewBox="0 0 58 49"><title>158 - Map (Flat)</title><desc>Created with Sketch.</desc><g id="Page-1" fill="none" fill-rule="evenodd" stroke="none" stroke-width="1"><g id="158---Map-(Flat)"><path id="Fill-2665" fill="#D6C990" d="M0,26.088 L0,49 L2.785,47.886 L12.291,38.38 L0,26.088"/><path id="Fill-2666" fill="#D6C990" d="M15,5.019 L11.415,1.434 L0,6 L0,10.532 L15,25.532 L15,5.019"/><path id="Fill-2667" fill="#F8E7A1" d="M29,21.671 L29,19.019 L15,5.019 L15,25.532 L20.069,30.601 L29,21.671"/><path id="Fill-2668" fill="#7383BF" d="M29,39.532 L29,37.227 L27.848,38.38 L29,39.532"/><path id="Fill-2669" fill="#6472A0" d="M38.104,28.123 L29,37.227 L29,39.532 L35.628,46.16 L43,43 L43,33.019 L38.104,28.123"/><path id="Fill-2670" fill="#D6C990" d="M43,7.671 L43,0 L30.776,5.239 L38.104,12.567 L43,7.671"/><path id="Fill-2671" fill="#D6C990" d="M30.326,20.345 L29,19.019 L29,21.671 L30.326,20.345"/><path id="Fill-2672" fill="#F8E7A1" d="M48.23,2.441 L43,0 L43,7.671 L48.23,2.441"/><path id="Fill-2673" fill="#7383BF" d="M58,32.463 L58,8.227 L45.882,20.345 L58,32.463"/><path id="Fill-2674" fill="#7383BF" d="M43,43 L58,49 L58,48.019 L43,33.019 L43,43"/><path id="Fill-2675" fill="#D1AF43" d="M15,35.671 L15,25.532 L0,10.532 L0,26.088 L12.291,38.38 L15,35.671"/><path id="Fill-2676" fill="#F0CE49" d="M20.759,45.469 L29,49 L29,39.532 L27.848,38.38 L20.759,45.469"/><path id="Fill-2677" fill="#F0CE49" d="M15,25.532 L15,35.671 L20.069,30.601 L15,25.532"/><path id="Fill-2678" fill="#D1AF43" d="M29,49 L35.628,46.16 L29,39.532 L29,49"/><path id="Fill-2679" fill="#D1AF43" d="M15,0 L11.415,1.434 L15,5.019 L15,0"/><path id="Fill-2680" fill="#F0CE49" d="M29,6 L15,0 L15,5.019 L29,19.019 L29,6"/><path id="Fill-2681" fill="#D6C990" d="M29,19.019 L30.326,20.345 L38.104,12.567 L30.776,5.239 L29,6 L29,19.019"/><path id="Fill-2682" fill="#D1AF43" d="M43,33.019 L43,23.227 L38.104,28.123 L43,33.019"/><path id="Fill-2682" fill="#D1AF43" d="M43,33.019 L43,23.227 L38.104,28.123 L43,33.019"/><path id="Fill-2688" fill="#D1AF43" d="M29,21.671 L29,37.227 L38.104,28.123 L30.326,20.345 L29,21.671"/><path id="Fill-2683" fill="#F0CE49" d="M45.882,20.345 L43,23.227 L43,33.019 L58,48.019 L58,32.463 L45.882,20.345"/><path id="Fill-2684" fill="#D1AF43" d="M15,41.088 L12.291,38.38 L2.785,47.886 L15,43 L15,41.088"/><path id="Fill-2685" fill="#F0CE49" d="M15,43 L18.345,44.434 L15,41.088 L15,43"/><path id="Fill-2686" fill="#F0CE49" d="M20.069,30.601 L27.848,38.38 L29,37.227 L29,21.671 L20.069,30.601"/><path id="Fill-2687" fill="#D1AF43" d="M43,7.671 L38.104,12.567 L43,17.463 L43,7.671"/><path id="Fill-2688" fill="#D1AF43" d="M29,21.671 L29,37.227 L38.104,28.123 L30.326,20.345 L29,21.671"/><path id="Fill-2689" fill="#F0CE49" d="M43,17.463 L45.882,20.345 L58,8.227 L58,7 L48.23,2.441 L43,7.671 L43,17.463"/><path id="Fill-2690" fill="#D1AF43" d="M12.291,38.38 L15,41.088 L15,35.671 L12.291,38.38"/><path id="Fill-2691" fill="#F0CE49" d="M20.069,30.601 L15,35.671 L15,41.088 L18.345,44.434 L20.759,45.469 L27.848,38.38 L20.069,30.601"/><path id="Fill-2692" fill="#D1AF43" d="M38.104,12.567 L30.326,20.345 L38.104,28.123 L43,23.227 L43,17.463 L38.104,12.567"/><path id="Fill-2670" fill="#D6C990" d="M43,7.671 L43,0 L30.776,5.239 L38.104,12.567 L43,7.671"/><path id="Fill-2676" fill="#F0CE49" d="M20.759,45.469 L29,49 L29,39.532 L27.848,38.38 L20.759,45.469"/><path id="Fill-2677" fill="#F0CE49" d="M15,25.532 L15,35.671 L20.069,30.601 L15,25.532"/><path id="Fill-2684" fill="#D1AF43" d="M15,41.088 L12.291,38.38 L2.785,47.886 L15,43 L15,41.088"/><path id="Fill-2686" fill="#F0CE49" d="M20.069,30.601 L27.848,38.38 L29,37.227 L29,21.671 L20.069,30.601"/><path id="Fill-2687" fill="#D1AF43" d="M43,7.671 L38.104,12.567 L43,17.463 L43,7.671"/><path id="Fill-2690" fill="#D1AF43" d="M12.291,38.38 L15,41.088 L15,35.671 L12.291,38.38"/><path id="Fill-2691" fill="#F0CE49" d="M20.069,30.601 L15,35.671 L15,41.088 L18.345,44.434 L20.759,45.469 L27.848,38.38 L20.069,30.601"/><path id="Fill-2692" fill="#D1AF43" d="M38.104,12.567 L30.326,20.345 L38.104,28.123 L43,23.227 L43,17.463 L38.104,12.567"/><path id="Fill-2693" fill="#F0CE49" d="M43,23.227 L45.882,20.345 L43,17.463 L43,23.227"/><path id="Fill-2693" fill="#F0CE49" d="M43,23.227 L45.882,20.345 L43,17.463 L43,23.227"/><path id="Fill-2681" fill="#D1AF43" d="M29,19.019 L30.326,20.345 L38.104,12.567 L30.776,5.239 L29,6 L29,19.019"/></g></g></svg>