<svg xmlns="http://www.w3.org/2000/svg" xmlns:xlink="http://www.w3.org/1999/xlink" width="53" height="49" version="1.1" viewBox="0 0 53 49"><title>160 - Map (Flat)</title><desc>Created with Sketch.</desc><g id="Page-1" fill="none" fill-rule="evenodd" stroke="none" stroke-width="1"><g id="160---Map-(Flat)"><path id="Fill-2653" fill="#42B05C" d="M18,21.243 L2.256,5.499 L0,6 L0,49 L2.099,48.534 L18,32.632 L18,21.243"/><path id="Fill-2654" fill="#48A0DC" d="M9.372,46.918 L18,45 L18,38.29 L9.372,46.918"/><path id="Fill-2655" fill="#42B05C" d="M18,2 L6.884,4.47 L18,15.586 L18,2"/><path id="Fill-2656" fill="#42B05C" d="M49.449,1.184 L35,6 L35,15.633 L49.449,1.184"/><path id="Fill-2657" fill="#48A0DC" d="M35,21.289 L35,48 L53,41 L53,3.289 L35,21.289"/><path id="Fill-2658" fill="#3D994F" d="M26.523,24.109 L35,15.633 L35,6 L18,2 L18,15.586 L26.523,24.109"/><path id="Fill-2659" fill="#3D994F" d="M18,21.243 L18,32.632 L23.695,26.938 L18,21.243"/><path id="Fill-2660" fill="#4393BF" d="M18,38.29 L18,45 L35,48 L35,21.289 L18,38.29"/><path id="Fill-2661" fill="#F0CE49" d="M18,15.586 L6.884,4.47 L2.256,5.499 L18,21.243 L18,15.586"/><path id="Fill-2662" fill="#F0CE49" d="M18,32.632 L2.099,48.534 L9.372,46.918 L18,38.29 L18,32.632"/><path id="Fill-2663" fill="#F0CE49" d="M35,21.289 L53,3.289 L53,0 L49.449,1.184 L35,15.633 L35,21.289"/><path id="Fill-2664" fill="#D6B445" d="M26.523,24.109 L18,15.586 L18,21.243 L23.695,26.938 L18,32.632 L18,38.29 L35,21.289 L35,15.633 L26.523,24.109"/></g></g></svg>