<svg xmlns="http://www.w3.org/2000/svg" xmlns:xlink="http://www.w3.org/1999/xlink" width="60" height="30" version="1.1" viewBox="0 0 60 30"><title>312 - More (Flat)</title><desc>Created with Sketch.</desc><g id="Page-1" fill="none" fill-rule="evenodd" stroke="none" stroke-width="1"><g id="Icons" transform="translate(-1080.000000, -1092.000000)"><g id="312---More-(Flat)" transform="translate(1081.000000, 1093.000000)"><path id="Fill-601" fill="#7383BF" d="M20,14 C20,15.657 18.657,17 17,17 C15.343,17 14,15.657 14,14 C14,12.343 15.343,11 17,11 C18.657,11 20,12.343 20,14"/><path id="Fill-602" fill="#7383BF" d="M32,14 C32,15.657 30.657,17 29,17 C27.343,17 26,15.657 26,14 C26,12.343 27.343,11 29,11 C30.657,11 32,12.343 32,14"/><path id="Fill-603" fill="#7383BF" d="M44,14 C44,15.657 42.657,17 41,17 C39.343,17 38,15.657 38,14 C38,12.343 39.343,11 41,11 C42.657,11 44,12.343 44,14"/><path id="Stroke-605" stroke="#556080" stroke-linecap="round" stroke-width="2" d="M0,14 L14,0 M0,14 L14,28 M58,14 L44,28 M58,14 L44,0"/></g></g></g></svg>