<svg xmlns="http://www.w3.org/2000/svg" xmlns:xlink="http://www.w3.org/1999/xlink" width="14" height="58" version="1.1" viewBox="0 0 14 58"><title>339 - More (Flat)</title><desc>Created with Sketch.</desc><g id="Page-1" fill="none" fill-rule="evenodd" stroke="none" stroke-width="1"><g id="Icons" fill="#7383BF" transform="translate(-265.000000, -838.000000)"><g id="339---More-(Flat)" transform="translate(265.000000, 838.000000)"><path id="Fill-519" d="M7,14 C3.134,14 0,10.866 0,7 C0,3.134 3.134,0 7,0 C10.866,0 14,3.134 14,7 C14,10.866 10.866,14 7,14"/><path id="Fill-520" d="M7,58 C3.134,58 0,54.866 0,51 C0,47.134 3.134,44 7,44 C10.866,44 14,47.134 14,51 C14,54.866 10.866,58 7,58"/><path id="Fill-521" d="M7,36 C3.134,36 0,32.866 0,29 C0,25.134 3.134,22 7,22 C10.866,22 14,25.134 14,29 C14,32.866 10.866,36 7,36"/></g></g></g></svg>