<svg xmlns="http://www.w3.org/2000/svg" xmlns:xlink="http://www.w3.org/1999/xlink" width="53" height="48" version="1.1" viewBox="0 0 53 48"><title>267 - Movie Camera (Flat)</title><desc>Created with Sketch.</desc><g id="Page-1" fill="none" fill-rule="evenodd" stroke="none" stroke-width="1"><g id="267---Movie-Camera-(Flat)"><path id="Stroke-236" stroke="#7383BF" stroke-linecap="round" stroke-width="2" d="M20.132,31 L12.711,47 M20.132,31 L27.553,47"/><path id="Fill-705" fill="#F0CE49" d="M50.02,28.928 L37.511,16.974 C36.815,16.271 36.832,15.127 37.549,14.446 L50.058,2.9 C51.172,1.842 53,2.639 53,4.183 L53,27.683 C53,29.252 51.12,30.038 50.02,28.928"/><path id="Fill-2599" fill="#363D4B" d="M34.827,31 L3.791,31 C1.697,31 0,29.303 0,27.209 L0,3.944 C0,1.775 1.775,0 3.944,0 L35.056,0 C37.234,0 39,1.766 39,3.944 L39,26.827 C39,29.122 37.122,31 34.827,31"/><path id="Fill-2600" fill="#F0CE49" d="M17,11.5 C17,14.538 14.538,17 11.5,17 C8.462,17 6,14.538 6,11.5 C6,8.463 8.462,6 11.5,6 C14.538,6 17,8.463 17,11.5"/><path id="Stroke-2601" stroke="#FFF" stroke-linecap="round" stroke-width="2" d="M13,12 L18,17"/></g></g></svg>