<svg xmlns="http://www.w3.org/2000/svg" xmlns:xlink="http://www.w3.org/1999/xlink" width="56" height="40" version="1.1" viewBox="0 0 56 40"><title>270 - Movie Camera (Flat)</title><desc>Created with Sketch.</desc><g id="Page-1" fill="none" fill-rule="evenodd" stroke="none" stroke-width="1"><g id="270---Movie-Camera-(Flat)" transform="translate(1.000000, 1.000000)"><path id="Fill-698" fill="#424A60" d="M39.693,38 L2.307,38 C1.033,38 0,36.967 0,35.693 L0,10.307 C0,9.033 1.033,8 2.307,8 L39.693,8 C40.967,8 42,9.033 42,10.307 L42,35.693 C42,36.967 40.967,38 39.693,38"/><path id="Fill-699" fill="#556080" d="M51.074,38.188 L42,34 L42,12 L51.074,7.812 C52.907,6.966 55,8.305 55,10.324 L55,35.676 C55,37.695 52.907,39.034 51.074,38.188"/><path id="Stroke-700" stroke="#424A60" stroke-linecap="round" stroke-width="2" d="M0,0 L32,0 C33.1,0 34,0.9 34,2 L34,8"/></g></g></svg>