<?xml version="1.0" encoding="UTF-8" standalone="no"?>
<svg width="52px" height="52px" viewBox="0 0 52 52" version="1.1" xmlns="http://www.w3.org/2000/svg" xmlns:xlink="http://www.w3.org/1999/xlink" xmlns:sketch="http://www.bohemiancoding.com/sketch/ns">
    <!-- Generator: Sketch 3.2.2 (9983) - http://www.bohemiancoding.com/sketch -->
    <title>269 - Music Album (Flat)</title>
    <desc>Created with Sketch.</desc>
    <defs></defs>
    <g id="Page-1" stroke="none" stroke-width="1" fill="none" fill-rule="evenodd" sketch:type="MSPage">
        <g id="269---Music-Album-(Flat)" sketch:type="MSLayerGroup">
            <path d="M40.824,52 L11.176,52 C5.003,52 0,46.997 0,40.824 L0,11.176 C0,5.004 5.003,0 11.176,0 L40.824,0 C46.996,0 52,5.004 52,11.176 L52,40.824 C52,46.997 46.996,52 40.824,52" id="Fill-701" fill="#EA6148" sketch:type="MSShapeGroup"></path>
            <path d="M42.66,8.107 C42.443,7.917 42.154,7.827 41.871,7.866 L19.871,10.723 C19.373,10.787 19,11.211 19,11.714 L19,35.737 C17.629,34.409 15.674,33.572 13.5,33.572 C9.364,33.572 6,36.584 6,40.286 C6,43.988 9.364,47 13.5,47 C17.636,47 21,43.988 21,40.286 L21,19.878 L41,17.281 L41,29.289 C39.643,27.972 37.714,27.143 35.571,27.143 C31.476,27.143 28.143,30.156 28.143,33.857 C28.143,37.56 31.476,40.571 35.571,40.571 C39.667,40.571 43,37.56 43,33.857 L43,8.857 C43,8.57 42.876,8.296 42.66,8.107" id="Fill-702" fill="#F0CE49" sketch:type="MSShapeGroup"></path>
        </g>
    </g>
</svg>