<?xml version="1.0" encoding="UTF-8" standalone="no"?>
<svg width="58px" height="58px" viewBox="0 0 58 58" version="1.1" xmlns="http://www.w3.org/2000/svg" xmlns:xlink="http://www.w3.org/1999/xlink" xmlns:sketch="http://www.bohemiancoding.com/sketch/ns">
    <!-- Generator: Sketch 3.2.2 (9983) - http://www.bohemiancoding.com/sketch -->
    <title>236 - Mute (Flat)</title>
    <desc>Created with Sketch.</desc>
    <defs></defs>
    <g id="Page-1" stroke="none" stroke-width="1" fill="none" fill-rule="evenodd" sketch:type="MSPage">
        <g id="236---Mute-(Flat)" sketch:type="MSLayerGroup">
            <path d="M49.506,8.494 C60.831,19.819 60.831,38.181 49.506,49.506 C38.181,60.831 19.819,60.831 8.494,49.506 C-2.831,38.181 -2.831,19.819 8.494,8.494 C19.819,-2.831 38.181,-2.831 49.506,8.494" id="Fill-793" fill="#D75A4A" sketch:type="MSShapeGroup"></path>
            <path d="M22.427,20 L14.104,20 C12.942,20 12,20.942 12,22.104 L12,34.896 C12,36.058 12.942,37 14.104,37 L22.427,37 C22.802,37 23.17,37.101 23.494,37.291 L36.83,49.707 C38.232,50.531 40,49.52 40,47.893 L40,9.107 C40,7.48 38.232,6.469 36.83,7.294 L23.494,19.709 C23.17,19.9 22.802,20 22.427,20" id="Fill-1924" fill="#FFFFFF" sketch:type="MSShapeGroup"></path>
            <path d="M50.866,9.962 C50.43,9.462 49.982,8.97 49.506,8.494 C49.03,8.018 48.538,7.57 48.038,7.134 L7.134,48.038 C7.57,48.538 8.018,49.03 8.494,49.506 C8.97,49.982 9.462,50.431 9.962,50.866 L50.866,9.962" id="Fill-2603" fill="#424A60" sketch:type="MSShapeGroup"></path>
        </g>
    </g>
</svg>