<svg xmlns="http://www.w3.org/2000/svg" xmlns:xlink="http://www.w3.org/1999/xlink" width="47" height="57" version="1.1" viewBox="0 0 47 57"><title>317 - Mute (Flat)</title><desc>Created with Sketch.</desc><g id="Page-1" fill="none" fill-rule="evenodd" stroke="none" stroke-width="1"><g id="Icons" transform="translate(-487.000000, -1079.000000)"><g id="317---Mute-(Flat)" transform="translate(488.000000, 1079.000000)"><path id="Path" stroke="#556080" stroke-linecap="round" stroke-width="2" d="M38,28 L38,34 C38,42.271 31.271,49 23,49 C14.728,49 8,42.271 8,34 L8,28"/><path id="Path" stroke="#556080" stroke-linecap="round" stroke-width="2" d="M23,49 L23,56"/><path id="Path" stroke="#556080" stroke-linecap="round" stroke-width="2" d="M29,56 L17,56"/><path id="Fill-2509" fill="#C7CBC7" d="M23,44 L23,44 C17.5,44 13,39.5 13,34 L13,10 C13,4.5 17.5,0 23,0 C28.5,0 33,4.5 33,10 L33,34 C33,39.5 28.5,44 23,44"/><path id="Fill-2510" fill="#B0B6BB" d="M33,34 L33,10 C33,4.5 28.5,0 23,0 L23,44 C28.5,44 33,39.5 33,34"/><path id="Stroke-2511" stroke="#D75A4A" stroke-linecap="round" stroke-width="2" d="M0,49 L45,4"/></g></g></g></svg>