<svg xmlns="http://www.w3.org/2000/svg" xmlns:xlink="http://www.w3.org/1999/xlink" width="54" height="46" version="1.1" viewBox="0 0 54 46"><title>231 - Mute (Flat)</title><desc>Created with Sketch.</desc><g id="Page-1" fill="none" fill-rule="evenodd" stroke="none" stroke-width="1"><g id="231---Mute-(Flat)" transform="translate(1.000000, 1.000000)"><path id="Stroke-722" stroke="#C7CBC7" stroke-linecap="round" stroke-linejoin="round" stroke-width="2" d="M36,13 L52,29 M36,29 L52,13"/><path id="Fill-883" fill="#E8EDEE" d="M0,12 L0,31 L11,30.995 L24.83,43.7 C26.232,44.544 28,43.509 28,41.844 L28,2.156 C28,0.491 26.232,-0.543 24.83,0.301 L11,12 L0,12 L0,12 Z"/><path id="Stroke-884" stroke="#C7CBC7" stroke-linecap="round" stroke-linejoin="round" stroke-width="2" d="M0,12 L0,31 L11,30.995 L24.83,43.7 C26.232,44.544 28,43.509 28,41.844 L28,2.156 C28,0.491 26.232,-0.543 24.83,0.301 L11,12 L0,12 L0,12 Z"/><path id="Fill-885" fill="#E8EDEE" d="M11,12 L11,17"/><path id="Stroke-886" stroke="#C7CBC7" stroke-linecap="round" stroke-width="2" d="M11,12 L11,17"/><path id="Fill-887" fill="#E8EDEE" d="M11,26 L11,31"/><path id="Stroke-888" stroke="#C7CBC7" stroke-linecap="round" stroke-width="2" d="M11,26 L11,31"/></g></g></svg>