<svg xmlns="http://www.w3.org/2000/svg" xmlns:xlink="http://www.w3.org/1999/xlink" width="53" height="53" version="1.1" viewBox="0 0 53 53"><title>197 - Network (Flat)</title><desc>Created with Sketch.</desc><g id="Page-1" fill="none" fill-rule="evenodd" stroke="none" stroke-width="1"><g id="197---Network-(Flat)"><path id="Fill-913" fill="#424A60" d="M27,28 L29,28 L29,46 L27,46 L27,28 Z"/><path id="Fill-914" fill="#424A60" d="M31.707,21.707 L30.293,20.293 L45.293,5.293 L46.707,6.707 L31.707,21.707"/><path id="Fill-915" fill="#424A60" d="M6.707,46.707 L5.293,45.293 L25.293,25.293 L26.707,26.707 L6.707,46.707"/><path id="Fill-916" fill="#424A60" d="M23.293,20.707 L12.293,9.707 L13.707,8.293 L24.707,19.293 L23.293,20.707"/><path id="Fill-917" fill="#424A60" d="M44.293,41.707 L29.293,26.707 L30.707,25.293 L45.707,40.293 L44.293,41.707"/><path id="Fill-2605" fill="#42B05C" d="M53,5 C53,7.762 50.761,10 48,10 C45.239,10 43,7.762 43,5 C43,2.239 45.239,0 48,0 C50.761,0 53,2.239 53,5"/><path id="Fill-2606" fill="#7383BF" d="M33,48 C33,50.761 30.761,53 28,53 C25.239,53 23,50.761 23,48 C23,45.239 25.239,43 28,43 C30.761,43 33,45.239 33,48"/><path id="Fill-2607" fill="#57D9AB" d="M10,46 C10,48.762 7.761,51 5,51 C2.239,51 0,48.762 0,46 C0,43.239 2.239,41 5,41 C7.761,41 10,43.239 10,46"/><path id="Fill-2608" fill="#D75A4A" d="M15,8 C15,9.657 13.657,11 12,11 C10.343,11 9,9.657 9,8 C9,6.343 10.343,5 12,5 C13.657,5 15,6.343 15,8"/><path id="Fill-2609" fill="#ECBA16" d="M47,40 C47,41.657 45.657,43 44,43 C42.343,43 41,41.657 41,40 C41,38.343 42.343,37 44,37 C45.657,37 47,38.343 47,40"/><path id="Fill-2610" fill="#4B6DAA" d="M35,24 C35,27.866 31.866,31 28,31 C24.134,31 21,27.866 21,24 C21,20.134 24.134,17 28,17 C31.866,17 35,20.134 35,24"/></g></g></svg>