<svg xmlns="http://www.w3.org/2000/svg" xmlns:xlink="http://www.w3.org/1999/xlink" width="58" height="57" version="1.1" viewBox="0 0 58 57"><title>180 - Network (Flat)</title><desc>Created with Sketch.</desc><g id="Page-1" fill="none" fill-rule="evenodd" stroke="none" stroke-width="1"><g id="180---Network-(Flat)"><path id="Fill-984" fill="#556080" d="M54.392,19 L3.608,19 C1.615,19 0,17.385 0,15.392 L0,3.608 C0,1.616 1.615,0 3.608,0 L54.392,0 C56.384,0 58,1.616 58,3.608 L58,15.392 C58,17.385 56.384,19 54.392,19"/><path id="Fill-985" fill="#424A60" d="M54.392,38 L3.608,38 C1.615,38 0,36.385 0,34.392 L0,22.609 C0,20.616 1.615,19 3.608,19 L54.392,19 C56.384,19 58,20.616 58,22.609 L58,34.392 C58,36.385 56.384,38 54.392,38"/><path id="Fill-986" fill="#556080" d="M54.392,57 L3.608,57 C1.615,57 0,55.385 0,53.392 L0,41.608 C0,39.615 1.615,38 3.608,38 L54.392,38 C56.384,38 58,39.615 58,41.608 L58,53.392 C58,55.385 56.384,57 54.392,57"/><path id="Fill-1951" fill="#7383BF" d="M13,9.5 C13,11.433 11.433,13 9.5,13 C7.567,13 6,11.433 6,9.5 C6,7.567 7.567,6 9.5,6 C11.433,6 13,7.567 13,9.5"/><path id="Fill-1952" fill="#7383BF" d="M50,8 C50,8.552 49.552,9 49,9 C48.448,9 48,8.552 48,8 C48,7.448 48.448,7 49,7 C49.552,7 50,7.448 50,8"/><path id="Fill-1953" fill="#7383BF" d="M46,8 C46,8.552 45.552,9 45,9 C44.448,9 44,8.552 44,8 C44,7.448 44.448,7 45,7 C45.552,7 46,7.448 46,8"/><path id="Fill-1954" fill="#7383BF" d="M52,11 C52,11.552 51.552,12 51,12 C50.448,12 50,11.552 50,11 C50,10.448 50.448,10 51,10 C51.552,10 52,10.448 52,11"/><path id="Fill-1955" fill="#7383BF" d="M48,11 C48,11.552 47.552,12 47,12 C46.448,12 46,11.552 46,11 C46,10.448 46.448,10 47,10 C47.552,10 48,10.448 48,11"/><path id="Fill-1956" fill="#7383BF" d="M42,8 C42,8.552 41.552,9 41,9 C40.448,9 40,8.552 40,8 C40,7.448 40.448,7 41,7 C41.552,7 42,7.448 42,8"/><path id="Fill-1957" fill="#7383BF" d="M44,11 C44,11.552 43.552,12 43,12 C42.448,12 42,11.552 42,11 C42,10.448 42.448,10 43,10 C43.552,10 44,10.448 44,11"/><path id="Fill-1958" fill="#7383BF" d="M38,8 C38,8.552 37.552,9 37,9 C36.448,9 36,8.552 36,8 C36,7.448 36.448,7 37,7 C37.552,7 38,7.448 38,8"/><path id="Fill-1959" fill="#7383BF" d="M40,11 C40,11.552 39.552,12 39,12 C38.448,12 38,11.552 38,11 C38,10.448 38.448,10 39,10 C39.552,10 40,10.448 40,11"/><path id="Fill-1960" fill="#7383BF" d="M34,8 C34,8.552 33.552,9 33,9 C32.448,9 32,8.552 32,8 C32,7.448 32.448,7 33,7 C33.552,7 34,7.448 34,8"/><path id="Fill-1961" fill="#7383BF" d="M36,11 C36,11.552 35.552,12 35,12 C34.448,12 34,11.552 34,11 C34,10.448 34.448,10 35,10 C35.552,10 36,10.448 36,11"/><path id="Fill-1962" fill="#7383BF" d="M13,28.5 C13,30.433 11.433,32 9.5,32 C7.567,32 6,30.433 6,28.5 C6,26.567 7.567,25 9.5,25 C11.433,25 13,26.567 13,28.5"/><path id="Fill-1963" fill="#7383BF" d="M50,27 C50,27.552 49.552,28 49,28 C48.448,28 48,27.552 48,27 C48,26.448 48.448,26 49,26 C49.552,26 50,26.448 50,27"/><path id="Fill-1964" fill="#7383BF" d="M46,27 C46,27.552 45.552,28 45,28 C44.448,28 44,27.552 44,27 C44,26.448 44.448,26 45,26 C45.552,26 46,26.448 46,27"/><path id="Fill-1965" fill="#7383BF" d="M52,30 C52,30.552 51.552,31 51,31 C50.448,31 50,30.552 50,30 C50,29.448 50.448,29 51,29 C51.552,29 52,29.448 52,30"/><path id="Fill-1966" fill="#7383BF" d="M48,30 C48,30.552 47.552,31 47,31 C46.448,31 46,30.552 46,30 C46,29.448 46.448,29 47,29 C47.552,29 48,29.448 48,30"/><path id="Fill-1967" fill="#7383BF" d="M42,27 C42,27.552 41.552,28 41,28 C40.448,28 40,27.552 40,27 C40,26.448 40.448,26 41,26 C41.552,26 42,26.448 42,27"/><path id="Fill-1968" fill="#7383BF" d="M44,30 C44,30.552 43.552,31 43,31 C42.448,31 42,30.552 42,30 C42,29.448 42.448,29 43,29 C43.552,29 44,29.448 44,30"/><path id="Fill-1969" fill="#7383BF" d="M38,27 C38,27.552 37.552,28 37,28 C36.448,28 36,27.552 36,27 C36,26.448 36.448,26 37,26 C37.552,26 38,26.448 38,27"/><path id="Fill-1970" fill="#7383BF" d="M40,30 C40,30.552 39.552,31 39,31 C38.448,31 38,30.552 38,30 C38,29.448 38.448,29 39,29 C39.552,29 40,29.448 40,30"/><path id="Fill-1971" fill="#7383BF" d="M34,27 C34,27.552 33.552,28 33,28 C32.448,28 32,27.552 32,27 C32,26.448 32.448,26 33,26 C33.552,26 34,26.448 34,27"/><path id="Fill-1972" fill="#7383BF" d="M36,30 C36,30.552 35.552,31 35,31 C34.448,31 34,30.552 34,30 C34,29.448 34.448,29 35,29 C35.552,29 36,29.448 36,30"/><path id="Fill-1973" fill="#7383BF" d="M13,47.5 C13,49.433 11.433,51 9.5,51 C7.567,51 6,49.433 6,47.5 C6,45.567 7.567,44 9.5,44 C11.433,44 13,45.567 13,47.5"/><path id="Fill-1988" fill="#7383BF" d="M50,46 C50,46.552 49.552,47 49,47 C48.448,47 48,46.552 48,46 C48,45.448 48.448,45 49,45 C49.552,45 50,45.448 50,46"/><path id="Fill-1989" fill="#7383BF" d="M46,46 C46,46.552 45.552,47 45,47 C44.448,47 44,46.552 44,46 C44,45.448 44.448,45 45,45 C45.552,45 46,45.448 46,46"/><path id="Fill-1990" fill="#7383BF" d="M52,49 C52,49.552 51.552,50 51,50 C50.448,50 50,49.552 50,49 C50,48.448 50.448,48 51,48 C51.552,48 52,48.448 52,49"/><path id="Fill-1991" fill="#7383BF" d="M48,49 C48,49.552 47.552,50 47,50 C46.448,50 46,49.552 46,49 C46,48.448 46.448,48 47,48 C47.552,48 48,48.448 48,49"/><path id="Fill-1992" fill="#7383BF" d="M42,46 C42,46.552 41.552,47 41,47 C40.448,47 40,46.552 40,46 C40,45.448 40.448,45 41,45 C41.552,45 42,45.448 42,46"/><path id="Fill-1993" fill="#7383BF" d="M44,49 C44,49.552 43.552,50 43,50 C42.448,50 42,49.552 42,49 C42,48.448 42.448,48 43,48 C43.552,48 44,48.448 44,49"/><path id="Fill-1994" fill="#7383BF" d="M38,46 C38,46.552 37.552,47 37,47 C36.448,47 36,46.552 36,46 C36,45.448 36.448,45 37,45 C37.552,45 38,45.448 38,46"/><path id="Fill-1995" fill="#7383BF" d="M40,49 C40,49.552 39.552,50 39,50 C38.448,50 38,49.552 38,49 C38,48.448 38.448,48 39,48 C39.552,48 40,48.448 40,49"/><path id="Fill-1996" fill="#7383BF" d="M34,46 C34,46.552 33.552,47 33,47 C32.448,47 32,46.552 32,46 C32,45.448 32.448,45 33,45 C33.552,45 34,45.448 34,46"/><path id="Fill-1997" fill="#7383BF" d="M36,49 C36,49.552 35.552,50 35,50 C34.448,50 34,49.552 34,49 C34,48.448 34.448,48 35,48 C35.552,48 36,48.448 36,49"/></g></g></svg>