<?xml version="1.0" encoding="UTF-8" standalone="no"?>
<svg width="56px" height="58px" viewBox="0 0 56 58" version="1.1" xmlns="http://www.w3.org/2000/svg" xmlns:xlink="http://www.w3.org/1999/xlink" xmlns:sketch="http://www.bohemiancoding.com/sketch/ns">
    <!-- Generator: Sketch 3.2.2 (9983) - http://www.bohemiancoding.com/sketch -->
    <title>31 - Newspaper (Flat)</title>
    <desc>Created with Sketch.</desc>
    <defs></defs>
    <g id="Page-1" stroke="none" stroke-width="1" fill="none" fill-rule="evenodd" sketch:type="MSPage">
        <g id="Icons" sketch:type="MSArtboardGroup" transform="translate(-1202.000000, -4438.000000)">
            <g id="31---Newspaper-(Flat)" sketch:type="MSLayerGroup" transform="translate(1202.000000, 4438.000000)">
                <path d="M5,58 L5,58 C2.25,58 0,55.75 0,53 L0,30 L10,30 L10,53 C10,55.75 7.75,58 5,58" id="Fill-11" fill="#CEC9AE" sketch:type="MSShapeGroup"></path>
                <path d="M10,0 L55.99,0 L55.99,11 L10,11 L10,0 Z" id="Fill-12" fill="#CEC9AE" sketch:type="MSShapeGroup"></path>
                <path d="M10,35 L10,53 C10,55.75 7.75,58 5,58 L51,58 C53.756,58 55.99,55.766 55.99,53.011 L55.99,13 L10,13 L10,35" id="Fill-13" fill="#EDEBDA" sketch:type="MSShapeGroup"></path>
                <path d="M10,11 L55.99,11 L55.99,13 L10,13 L10,11 Z" id="Fill-14" fill="#F4F3ED" sketch:type="MSShapeGroup"></path>
                <path d="M16,16 L28,16 L28,28 L16,28 L16,16 Z" id="Fill-1643" fill="#61B972" sketch:type="MSShapeGroup"></path>
                <path d="M50,17 L34,17 C33.447,17 33,16.553 33,16 C33,15.447 33.447,15 34,15 L50,15 C50.553,15 51,15.447 51,16 C51,16.553 50.553,17 50,17" id="Fill-1644" fill="#CEC9AE" sketch:type="MSShapeGroup"></path>
                <path d="M50,23 L34,23 C33.447,23 33,22.553 33,22 C33,21.447 33.447,21 34,21 L50,21 C50.553,21 51,21.447 51,22 C51,22.553 50.553,23 50,23" id="Fill-1645" fill="#CEC9AE" sketch:type="MSShapeGroup"></path>
                <path d="M50,29 L34,29 C33.447,29 33,28.553 33,28 C33,27.447 33.447,27 34,27 L50,27 C50.553,27 51,27.447 51,28 C51,28.553 50.553,29 50,29" id="Fill-1646" fill="#CEC9AE" sketch:type="MSShapeGroup"></path>
                <path d="M50,35 L17,35 C16.447,35 16,34.553 16,34 C16,33.447 16.447,33 17,33 L50,33 C50.553,33 51,33.447 51,34 C51,34.553 50.553,35 50,35" id="Fill-1647" fill="#CEC9AE" sketch:type="MSShapeGroup"></path>
                <path d="M32,41 L17,41 C16.447,41 16,40.553 16,40 C16,39.447 16.447,39 17,39 L32,39 C32.553,39 33,39.447 33,40 C33,40.553 32.553,41 32,41" id="Fill-1648" fill="#CEC9AE" sketch:type="MSShapeGroup"></path>
                <path d="M32,47 L17,47 C16.447,47 16,46.553 16,46 C16,45.447 16.447,45 17,45 L32,45 C32.553,45 33,45.447 33,46 C33,46.553 32.553,47 32,47" id="Fill-1649" fill="#CEC9AE" sketch:type="MSShapeGroup"></path>
                <path d="M32,53 L17,53 C16.447,53 16,52.553 16,52 C16,51.447 16.447,51 17,51 L32,51 C32.553,51 33,51.447 33,52 C33,52.553 32.553,53 32,53" id="Fill-1650" fill="#CEC9AE" sketch:type="MSShapeGroup"></path>
                <path d="M38,40 L50,40 L50,52 L38,52 L38,40 Z" id="Fill-1651" fill="#F8B563" sketch:type="MSShapeGroup"></path>
                <path d="M22,4 L44,4 L44,8 L22,8 L22,4 Z" id="Fill-1652" fill="#8E8872" sketch:type="MSShapeGroup"></path>
            </g>
        </g>
    </g>
</svg>