<svg xmlns="http://www.w3.org/2000/svg" enable-background="new 0 0 48 48" version="1" viewBox="0 0 48 48"><path fill="#90A4AE" d="M8,39V9c0-3.3,2.7-6,6-6h20c3.3,0,6,2.7,6,6v30c0,3.3-2.7,6-6,6H14C10.7,45,8,42.3,8,39z"/><path fill="#ECEFF1" d="M34,7H14c-1.1,0-2,0.9-2,2v26c0,1.1,0.9,2,2,2h20c1.1,0,2-0.9,2-2V9C36,7.9,35.1,7,34,7z"/><g fill="#B0BEC5"><rect width="16" height="3" x="16" y="12"/><rect width="16" height="2" x="16" y="19"/><rect width="12" height="2" x="16" y="23"/><rect width="16" height="2" x="16" y="27"/><rect width="12" height="2" x="16" y="31"/></g><path fill="none" stroke="#eee" stroke-miterlimit="10" stroke-width="2" d="M22,43v-1c0-1.1,0.9-2,2-2h0c1.1,0,2,0.9,2,2v1"/></svg>