<svg xmlns="http://www.w3.org/2000/svg" xmlns:xlink="http://www.w3.org/1999/xlink" width="41" height="57" version="1.1" viewBox="0 0 41 57"><title>27 - Notebook (Flat)</title><desc>Created with Sketch.</desc><g id="Page-1" fill="none" fill-rule="evenodd" stroke="none" stroke-width="1"><g id="27---Notebook-(Flat)"><path id="Fill-1716" fill="#424A60" d="M38.003,51.997 L0,51.997 L0,0 L38.003,0 C39.658,0 41,1.342 41,2.997 L41,49 C41,50.655 39.658,51.997 38.003,51.997"/><path id="Fill-1717" fill="#F0CE49" d="M30,0 L35,0 L35,51.997 L30,51.997 L30,0 Z"/><path id="Fill-1718" fill="#7383BF" d="M0,17.007 L30,17.007 L30,35.007 L0,35.007 L0,17.007 Z"/><path id="Fill-1719" fill="#7383BF" d="M35,17.007 L41,17.007 L41,35.007 L35,35.007 L35,17.007 Z"/><path id="Fill-1720" fill="#DD342E" d="M10,56.997 L7,54.997 L4,56.997 L4,51.997 L10,51.997 L10,56.997"/></g></g></svg>