<svg xmlns="http://www.w3.org/2000/svg" xmlns:xlink="http://www.w3.org/1999/xlink" width="52" height="58" version="1.1" viewBox="0 0 52 58"><title>40 - Note (Flat)</title><desc>Created with Sketch.</desc><g id="Page-1" fill="none" fill-rule="evenodd" stroke="none" stroke-width="1"><g id="Icons" transform="translate(-124.000000, -4438.000000)"><g id="40---Note-(Flat)" transform="translate(124.000000, 4438.000000)"><path id="Fill-65" fill="#EDEBDA" d="M39,5 L0,5 L0,58 L52,58 L52,5 L39,5"/><path id="Fill-66" fill="#918553" d="M19,9 C19,10.104 18.105,11 17,11 C15.895,11 15,10.104 15,9 C15,7.896 15.895,7 17,7 C18.105,7 19,7.896 19,9"/><path id="Fill-67" fill="#918553" d="M25,9 C25,10.104 24.105,11 23,11 C21.895,11 21,10.104 21,9 C21,7.896 21.895,7 23,7 C24.105,7 25,7.896 25,9"/><path id="Fill-68" fill="#918553" d="M31,9 C31,10.104 30.105,11 29,11 C27.895,11 27,10.104 27,9 C27,7.896 27.895,7 29,7 C30.105,7 31,7.896 31,9"/><path id="Fill-69" fill="#918553" d="M37,9 C37,10.104 36.105,11 35,11 C33.895,11 33,10.104 33,9 C33,7.896 33.895,7 35,7 C36.105,7 37,7.896 37,9"/><path id="Fill-70" fill="#D8A852" d="M35,0 C33.87,0 32.838,0.391 32,1.025 C32.534,1.43 32.979,1.937 33.315,2.52 C33.796,2.193 34.376,2 35,2 C36.654,2 38,3.346 38,5 C38,6.655 36.654,8 35,8 C34.447,8 34,8.448 34,9 C34,9.553 34.447,10 35,10 C37.757,10 40,7.757 40,5 C40,2.243 37.757,0 35,0"/><path id="Fill-71" fill="#A37F46" d="M30.685,2.52 C30.261,3.254 30,4.093 30,5 L32,5 C32,3.97 31.478,3.061 30.685,2.52"/><path id="Fill-72" fill="#A37F46" d="M24.685,2.52 C24.261,3.254 24,4.093 24,5 L26,5 C26,3.97 25.478,3.061 24.685,2.52"/><path id="Fill-73" fill="#D8A852" d="M33.315,2.52 C32.979,1.937 32.534,1.43 32,1.025 C31.162,0.391 30.13,0 29,0 C27.87,0 26.838,0.391 26,1.025 C26.534,1.43 26.979,1.937 27.315,2.52 C27.796,2.193 28.376,2 29,2 C29.624,2 30.204,2.193 30.685,2.52 C31.478,3.061 32,3.97 32,5 C32,6.655 30.654,8 29,8 C28.447,8 28,8.448 28,9 C28,9.553 28.447,10 29,10 C31.757,10 34,7.757 34,5 C34,4.093 33.739,3.254 33.315,2.52"/><path id="Fill-74" fill="#A37F46" d="M18.685,2.52 C18.261,3.254 18,4.093 18,5 L20,5 C20,3.97 19.478,3.061 18.685,2.52"/><path id="Fill-75" fill="#D8A852" d="M27.315,2.52 C26.979,1.937 26.534,1.43 26,1.025 C25.162,0.391 24.13,0 23,0 C21.87,0 20.838,0.391 20,1.025 C20.534,1.43 20.979,1.937 21.315,2.52 C21.796,2.193 22.376,2 23,2 C23.624,2 24.204,2.193 24.685,2.52 C25.478,3.061 26,3.97 26,5 C26,6.655 24.654,8 23,8 C22.447,8 22,8.448 22,9 C22,9.553 22.447,10 23,10 C25.757,10 28,7.757 28,5 C28,4.093 27.739,3.254 27.315,2.52"/><path id="Fill-76" fill="#D8A852" d="M21.315,2.52 C20.979,1.937 20.534,1.43 20,1.025 C19.162,0.391 18.13,0 17,0 C14.243,0 12,2.243 12,5 L14,5 C14,3.346 15.346,2 17,2 C17.624,2 18.204,2.193 18.685,2.52 C19.478,3.061 20,3.97 20,5 C20,6.655 18.654,8 17,8 C16.447,8 16,8.448 16,9 C16,9.553 16.447,10 17,10 C19.757,10 22,7.757 22,5 C22,4.093 21.739,3.254 21.315,2.52"/><path id="Fill-1680" fill="#CEC9AE" d="M0,16 L52,16 L52,18 L0,18 L0,16 Z"/><path id="Fill-1681" fill="#CEC9AE" d="M0,26 L52,26 L52,28 L0,28 L0,26 Z"/><path id="Fill-1682" fill="#CEC9AE" d="M0,36 L52,36 L52,38 L0,38 L0,36 Z"/><path id="Fill-1683" fill="#CEC9AE" d="M0,46 L40,46 L40,48 L0,48 L0,46 Z"/><path id="Fill-1684" fill="#EDD87E" d="M40,58 L40,46 L52,46 L40,58"/><path id="Fill-3132" fill="#CEC9AE" d="M52,46 L52,58 L40,58 L52,46"/><path id="Fill-3133" fill="#E54C4C" d="M7,5 L9,5 L9,58 L7,58 L7,5 Z"/></g></g></g></svg>