<svg xmlns="http://www.w3.org/2000/svg" xmlns:xlink="http://www.w3.org/1999/xlink" width="53" height="54" version="1.1" viewBox="0 0 53 54"><title>342 - Notification (Flat)</title><desc>Created with Sketch.</desc><g id="Page-1" fill="none" fill-rule="evenodd" stroke="none" stroke-width="1"><g id="Icons" transform="translate(-1087.000000, -717.000000)"><g id="342---Notification-(Flat)" transform="translate(1087.000000, 718.000000)"><path id="Fill-278" fill="#42B05C" d="M43,18 C38.029,18 34,13.971 34,9 C34,8.312 34.084,7.645 34.231,7 L4.235,7 C1.896,7 0,8.896 0,11.235 L0,48.765 C0,51.104 1.896,53 4.235,53 L41.765,53 C44.104,53 46,51.104 46,48.765 L46,17.477 C45.06,17.81 44.054,18 43,18"/><path id="Fill-505" fill="#DD342E" d="M52,9 C52,13.971 47.971,18 43,18 C38.029,18 34,13.971 34,9 C34,4.03 38.029,0 43,0 C47.971,0 52,4.03 52,9 L52,9 Z"/><path id="Stroke-506" stroke="#FFF" stroke-linecap="round" stroke-width="2" d="M52,9 C52,13.971 47.971,18 43,18 C38.029,18 34,13.971 34,9 C34,4.03 38.029,0 43,0 C47.971,0 52,4.03 52,9 L52,9 Z"/></g></g></g></svg>