<svg xmlns="http://www.w3.org/2000/svg" xmlns:xlink="http://www.w3.org/1999/xlink" width="58" height="26" version="1.1" viewBox="0 0 58 26"><title>330 - OFF Trigger (Flat)</title><desc>Created with Sketch.</desc><g id="Page-1" fill="none" fill-rule="evenodd" stroke="none" stroke-width="1"><g id="Icons" transform="translate(-121.000000, -974.000000)"><g id="330---OFF-Trigger-(Flat)" transform="translate(121.000000, 974.000000)"><path id="Fill-1235" fill="#839494" d="M52,7 L24.526,7 C25.463,8.796 26,10.834 26,13 C26,15.166 25.463,17.204 24.526,19 L52,19 C55.314,19 58,16.314 58,13 C58,9.687 55.314,7 52,7"/><path id="Fill-2502" fill="#C7CBC7" d="M26,13 C26,20.18 20.18,26 13,26 C5.82,26 0,20.18 0,13 C0,5.82 5.82,0 13,0 C20.18,0 26,5.82 26,13"/></g></g></g></svg>