<svg xmlns="http://www.w3.org/2000/svg" xmlns:xlink="http://www.w3.org/1999/xlink" width="59" height="32" version="1.1" viewBox="0 0 59 32"><title>328 - OFF Trigger (Flat)</title><desc>Created with Sketch.</desc><g id="Page-1" fill="none" fill-rule="evenodd" stroke="none" stroke-width="1"><g id="Icons" transform="translate(-360.000000, -971.000000)"><g id="328---OFF-Trigger-(Flat)" transform="translate(361.000000, 972.000000)"><path id="Fill-1237" fill="#C7CBC7" d="M55.008,30 L2.992,30 C1.34,30 0,28.661 0,27.008 L0,2.992 C0,1.34 1.34,0 2.992,0 L55.008,0 C56.66,0 58,1.34 58,2.992 L58,27.008 C58,28.661 56.66,30 55.008,30"/><path id="Fill-1238" fill="#FFF" d="M27.008,30 L2.992,30 C1.34,30 0,28.661 0,27.008 L0,2.992 C0,1.34 1.34,0 2.992,0 L27.008,0 C28.66,0 30,1.34 30,2.992 L30,27.008 C30,28.661 28.66,30 27.008,30 L27.008,30 Z"/><path id="Stroke-1239" stroke="#E8EDEE" stroke-width="2" d="M27.008,30 L2.992,30 C1.34,30 0,28.661 0,27.008 L0,2.992 C0,1.34 1.34,0 2.992,0 L27.008,0 C28.66,0 30,1.34 30,2.992 L30,27.008 C30,28.661 28.66,30 27.008,30 L27.008,30 Z"/><path id="Stroke-1240" stroke="#B0B6BB" stroke-linecap="round" stroke-width="2" d="M12,12 L12,18 M15,12 L15,18 M18,12 L18,18"/></g></g></g></svg>