<?xml version="1.0" encoding="UTF-8" standalone="no"?>
<svg width="59px" height="32px" viewBox="0 0 59 32" version="1.1" xmlns="http://www.w3.org/2000/svg" xmlns:xlink="http://www.w3.org/1999/xlink" xmlns:sketch="http://www.bohemiancoding.com/sketch/ns">
    <!-- Generator: Sketch 3.2.2 (9983) - http://www.bohemiancoding.com/sketch -->
    <title>328 - OFF Trigger (Flat)</title>
    <desc>Created with Sketch.</desc>
    <defs></defs>
    <g id="Page-1" stroke="none" stroke-width="1" fill="none" fill-rule="evenodd" sketch:type="MSPage">
        <g id="Icons" sketch:type="MSArtboardGroup" transform="translate(-360.000000, -971.000000)">
            <g id="328---OFF-Trigger-(Flat)" sketch:type="MSLayerGroup" transform="translate(361.000000, 972.000000)">
                <path d="M55.008,30 L2.992,30 C1.34,30 0,28.661 0,27.008 L0,2.992 C0,1.34 1.34,0 2.992,0 L55.008,0 C56.66,0 58,1.34 58,2.992 L58,27.008 C58,28.661 56.66,30 55.008,30" id="Fill-1237" fill="#C7CBC7" sketch:type="MSShapeGroup"></path>
                <path d="M27.008,30 L2.992,30 C1.34,30 0,28.661 0,27.008 L0,2.992 C0,1.34 1.34,0 2.992,0 L27.008,0 C28.66,0 30,1.34 30,2.992 L30,27.008 C30,28.661 28.66,30 27.008,30 L27.008,30 Z" id="Fill-1238" fill="#FFFFFF" sketch:type="MSShapeGroup"></path>
                <path d="M27.008,30 L2.992,30 C1.34,30 0,28.661 0,27.008 L0,2.992 C0,1.34 1.34,0 2.992,0 L27.008,0 C28.66,0 30,1.34 30,2.992 L30,27.008 C30,28.661 28.66,30 27.008,30 L27.008,30 Z" id="Stroke-1239" stroke="#E8EDEE" stroke-width="2" sketch:type="MSShapeGroup"></path>
                <path d="M12,12 L12,18 M15,12 L15,18 M18,12 L18,18" id="Stroke-1240" stroke="#B0B6BB" stroke-width="2" stroke-linecap="round" sketch:type="MSShapeGroup"></path>
            </g>
        </g>
    </g>
</svg>