<svg xmlns="http://www.w3.org/2000/svg" xmlns:xlink="http://www.w3.org/1999/xlink" width="58" height="34" version="1.1" viewBox="0 0 58 34"><title>321 - ON (Flat)</title><desc>Created with Sketch.</desc><g id="Page-1" fill="none" fill-rule="evenodd" stroke="none" stroke-width="1"><g id="Icons" transform="translate(-1201.000000, -971.000000)"><g id="321---ON-(Flat)" transform="translate(1201.000000, 971.000000)"><path id="Fill-547" fill="#38454F" d="M41,34 L17,34 C7.65,34 0,26.35 0,17 C0,7.65 7.65,0 17,0 L41,0 C50.35,0 58,7.65 58,17 C58,26.35 50.35,34 41,34"/><path id="Fill-548" fill="#E0E2E3" d="M29,17 C29,23.627 23.627,29 17,29 C10.373,29 5,23.627 5,17 C5,10.373 10.373,5 17,5 C23.627,5 29,10.373 29,17"/><path id="Stroke-550" stroke="#61B972" stroke-linecap="round" stroke-width="2" d="M36,17 L40,21 M40,21 L48,13"/></g></g></g></svg>