<svg xmlns="http://www.w3.org/2000/svg" xmlns:xlink="http://www.w3.org/1999/xlink" width="58" height="58" version="1.1" viewBox="0 0 58 58"><title>323 - ON OFF Trigger (Flat)</title><desc>Created with Sketch.</desc><g id="Page-1" fill="none" fill-rule="evenodd" stroke="none" stroke-width="1"><g id="Icons" transform="translate(-961.000000, -958.000000)"><g id="323---ON-OFF-Trigger-(Flat)" transform="translate(961.000000, 958.000000)"><path id="Fill-532" fill="#556080" d="M51.471,58 L6.529,58 C2.923,58 0,55.077 0,51.472 L0,6.529 C0,2.923 2.923,0 6.529,0 L51.471,0 C55.077,0 58,2.923 58,6.529 L58,51.472 C58,55.077 55.077,58 51.471,58"/><path id="Fill-533" fill="#A4E869" d="M43,26 L15,26 C9.5,26 5,21.5 5,16 C5,10.5 9.5,6 15,6 L43,6 C48.5,6 53,10.5 53,16 C53,21.5 48.5,26 43,26 L43,26 Z"/><path id="Stroke-534" stroke="#434D68" stroke-linecap="round" stroke-width="2" d="M43,26 L15,26 C9.5,26 5,21.5 5,16 C5,10.5 9.5,6 15,6 L43,6 C48.5,6 53,10.5 53,16 C53,21.5 48.5,26 43,26 L43,26 Z"/><path id="Fill-535" fill="#D75A4A" d="M15,52 L43,52 C48.5,52 53,47.5 53,42 C53,36.5 48.5,32 43,32 L15,32 C9.5,32 5,36.5 5,42 C5,47.5 9.5,52 15,52 L15,52 Z"/><path id="Stroke-536" stroke="#434D68" stroke-linecap="round" stroke-width="2" d="M15,52 L43,52 C48.5,52 53,47.5 53,42 C53,36.5 48.5,32 43,32 L15,32 C9.5,32 5,36.5 5,42 C5,47.5 9.5,52 15,52 L15,52 Z"/><path id="Fill-1838" fill="#E8EDEE" d="M53,16 C53,21.523 48.523,26 43,26 C37.477,26 33,21.523 33,16 C33,10.477 37.477,6 43,6 C48.523,6 53,10.477 53,16 L53,16 Z"/><path id="Stroke-1839" stroke="#FFF" stroke-linecap="round" stroke-width="2" d="M53,16 C53,21.523 48.523,26 43,26 C37.477,26 33,21.523 33,16 C33,10.477 37.477,6 43,6 C48.523,6 53,10.477 53,16 L53,16 Z"/><path id="Fill-1840" fill="#E8EDEE" d="M5,42 C5,47.523 9.477,52 15,52 C20.523,52 25,47.523 25,42 C25,36.477 20.523,32 15,32 C9.477,32 5,36.477 5,42 L5,42 Z"/><path id="Stroke-1841" stroke="#FFF" stroke-linecap="round" stroke-width="2" d="M5,42 C5,47.523 9.477,52 15,52 C20.523,52 25,47.523 25,42 C25,36.477 20.523,32 15,32 C9.477,32 5,36.477 5,42 L5,42 Z"/></g></g></g></svg>