<svg xmlns="http://www.w3.org/2000/svg" xmlns:xlink="http://www.w3.org/1999/xlink" width="58" height="58" version="1.1" viewBox="0 0 58 58"><title>324 - ON OFF Switch (Flat)</title><desc>Created with Sketch.</desc><g id="Page-1" fill="none" fill-rule="evenodd" stroke="none" stroke-width="1"><g id="Icons" transform="translate(-841.000000, -958.000000)"><g id="324---ON-OFF-Switch-(Flat)" transform="translate(841.000000, 958.000000)"><path id="Fill-526" fill="#E8EDEE" d="M45,26 L13,26 C5.85,26 0,20.15 0,13 C0,5.85 5.85,0 13,0 L45,0 C52.15,0 58,5.85 58,13 C58,20.15 52.15,26 45,26"/><path id="Fill-527" fill="#E8EDEE" d="M13,58 L45,58 C52.15,58 58,52.15 58,45 C58,37.85 52.15,32 45,32 L13,32 C5.85,32 0,37.85 0,45 C0,52.15 5.85,58 13,58"/><path id="Fill-528" fill="#88C057" d="M54,13 C54,17.971 49.971,22 45,22 C40.029,22 36,17.971 36,13 C36,8.029 40.029,4 45,4 C49.971,4 54,8.029 54,13 L54,13 Z"/><path id="Stroke-529" stroke="#659C35" stroke-linecap="round" stroke-width="2" d="M54,13 C54,17.971 49.971,22 45,22 C40.029,22 36,17.971 36,13 C36,8.029 40.029,4 45,4 C49.971,4 54,8.029 54,13 L54,13 Z"/><path id="Fill-530" fill="#ED7161" d="M4,45 C4,49.971 8.029,54 13,54 C17.971,54 22,49.971 22,45 C22,40.03 17.971,36 13,36 C8.029,36 4,40.03 4,45 L4,45 Z"/><path id="Stroke-531" stroke="#D75A4A" stroke-linecap="round" stroke-width="2" d="M4,45 C4,49.971 8.029,54 13,54 C17.971,54 22,49.971 22,45 C22,40.03 17.971,36 13,36 C8.029,36 4,40.03 4,45 L4,45 Z"/></g></g></g></svg>