<svg xmlns="http://www.w3.org/2000/svg" xmlns:xlink="http://www.w3.org/1999/xlink" width="58" height="26" version="1.1" viewBox="0 0 58 26"><title>329 - ON Trigger (Flat)</title><desc>Created with Sketch.</desc><g id="Page-1" fill="none" fill-rule="evenodd" stroke="none" stroke-width="1"><g id="Icons" transform="translate(-241.000000, -974.000000)"><g id="329---ON-Trigger-(Flat)" transform="translate(241.000000, 974.000000)"><path id="Fill-1236" fill="#839494" d="M6,7 L33.474,7 C32.537,8.796 32,10.834 32,13 C32,15.166 32.537,17.204 33.474,19 L6,19 C2.686,19 0,16.314 0,13 C0,9.687 2.686,7 6,7"/><path id="Fill-2503" fill="#61B972" d="M32,13 C32,20.18 37.82,26 45,26 C52.18,26 58,20.18 58,13 C58,5.82 52.18,0 45,0 C37.82,0 32,5.82 32,13"/></g></g></g></svg>