<?xml version="1.0" encoding="UTF-8" standalone="no"?>
<svg width="59px" height="32px" viewBox="0 0 59 32" version="1.1" xmlns="http://www.w3.org/2000/svg" xmlns:xlink="http://www.w3.org/1999/xlink" xmlns:sketch="http://www.bohemiancoding.com/sketch/ns">
    <!-- Generator: Sketch 3.2.2 (9983) - http://www.bohemiancoding.com/sketch -->
    <title>327 - ON Trigger (Flat)</title>
    <desc>Created with Sketch.</desc>
    <defs></defs>
    <g id="Page-1" stroke="none" stroke-width="1" fill="none" fill-rule="evenodd" sketch:type="MSPage">
        <g id="Icons" sketch:type="MSArtboardGroup" transform="translate(-481.000000, -971.000000)">
            <g id="327---ON-Trigger-(Flat)" sketch:type="MSLayerGroup" transform="translate(481.000000, 972.000000)">
                <path d="M2.992,0 L55.008,0 C56.66,0 58,1.34 58,2.992 L58,27.008 C58,28.661 56.66,30 55.008,30 L2.992,30 C1.34,30 0,28.661 0,27.008 L0,2.992 C0,1.34 1.34,0 2.992,0" id="Fill-1241" fill="#61B972" sketch:type="MSShapeGroup"></path>
                <path d="M30.992,0 L55.008,0 C56.66,0 58,1.34 58,2.992 L58,27.008 C58,28.661 56.66,30 55.008,30 L30.992,30 C29.34,30 28,28.661 28,27.008 L28,2.992 C28,1.34 29.34,0 30.992,0 L30.992,0 Z" id="Fill-1242" fill="#FFFFFF" sketch:type="MSShapeGroup"></path>
                <path d="M30.992,0 L55.008,0 C56.66,0 58,1.34 58,2.992 L58,27.008 C58,28.661 56.66,30 55.008,30 L30.992,30 C29.34,30 28,28.661 28,27.008 L28,2.992 C28,1.34 29.34,0 30.992,0 L30.992,0 Z" id="Stroke-1243" stroke="#E8EDEE" stroke-width="2" sketch:type="MSShapeGroup"></path>
                <path d="M46,18 L46,12 M43,18 L43,12 M40,18 L40,12" id="Stroke-1244" stroke="#B0B6BB" stroke-width="2" stroke-linecap="round" sketch:type="MSShapeGroup"></path>
            </g>
        </g>
    </g>
</svg>