<svg xmlns="http://www.w3.org/2000/svg" xmlns:xlink="http://www.w3.org/1999/xlink" width="59" height="32" version="1.1" viewBox="0 0 59 32"><title>327 - ON Trigger (Flat)</title><desc>Created with Sketch.</desc><g id="Page-1" fill="none" fill-rule="evenodd" stroke="none" stroke-width="1"><g id="Icons" transform="translate(-481.000000, -971.000000)"><g id="327---ON-Trigger-(Flat)" transform="translate(481.000000, 972.000000)"><path id="Fill-1241" fill="#61B972" d="M2.992,0 L55.008,0 C56.66,0 58,1.34 58,2.992 L58,27.008 C58,28.661 56.66,30 55.008,30 L2.992,30 C1.34,30 0,28.661 0,27.008 L0,2.992 C0,1.34 1.34,0 2.992,0"/><path id="Fill-1242" fill="#FFF" d="M30.992,0 L55.008,0 C56.66,0 58,1.34 58,2.992 L58,27.008 C58,28.661 56.66,30 55.008,30 L30.992,30 C29.34,30 28,28.661 28,27.008 L28,2.992 C28,1.34 29.34,0 30.992,0 L30.992,0 Z"/><path id="Stroke-1243" stroke="#E8EDEE" stroke-width="2" d="M30.992,0 L55.008,0 C56.66,0 58,1.34 58,2.992 L58,27.008 C58,28.661 56.66,30 55.008,30 L30.992,30 C29.34,30 28,28.661 28,27.008 L28,2.992 C28,1.34 29.34,0 30.992,0 L30.992,0 Z"/><path id="Stroke-1244" stroke="#B0B6BB" stroke-linecap="round" stroke-width="2" d="M46,18 L46,12 M43,18 L43,12 M40,18 L40,12"/></g></g></g></svg>