<svg xmlns="http://www.w3.org/2000/svg" xmlns:xlink="http://www.w3.org/1999/xlink" width="58" height="54" version="1.1" viewBox="0 0 58 54"><title>64 - Open Folder (Flat)</title><desc>Created with Sketch.</desc><g id="Page-1" fill="none" fill-rule="evenodd" stroke="none" stroke-width="1"><g id="Icons" transform="translate(-841.000000, -4080.000000)"><g id="64---Open-Folder-(Flat)" transform="translate(840.000000, 4080.000000)"><path id="Fill-1417" fill="#F8B563" d="M53.723,54 L6.189,54 C6.055,54 5.941,53.902 5.921,53.77 L1.003,21.312 C0.978,21.148 1.105,21 1.271,21 L58.641,21 C58.807,21 58.933,21.148 58.909,21.312 L53.991,53.77 C53.971,53.902 53.857,54 53.723,54"/><path id="Fill-1418" fill="#B5885B" d="M54.956,21 L54.956,5.768 C54.956,5.344 54.612,5 54.188,5 L23.391,5 C23.121,5 22.871,4.858 22.732,4.627 L20.179,0.373 C20.041,0.142 19.791,0 19.521,0 L5.724,0 C5.3,0 4.956,0.344 4.956,0.768 L4.956,21 L54.956,21"/><path id="Fill-1419" fill="#FFF" d="M8.956,14 L50.956,14 L50.956,21 L8.956,21 L8.956,14 Z"/></g></g></g></svg>