<?xml version="1.0" encoding="UTF-8" standalone="no"?>
<svg width="58px" height="47px" viewBox="0 0 58 47" version="1.1" xmlns="http://www.w3.org/2000/svg" xmlns:xlink="http://www.w3.org/1999/xlink" xmlns:sketch="http://www.bohemiancoding.com/sketch/ns">
    <!-- Generator: Sketch 3.2.2 (9983) - http://www.bohemiancoding.com/sketch -->
    <title>60 - Open Folder (Flat)</title>
    <desc>Created with Sketch.</desc>
    <defs></defs>
    <g id="Page-1" stroke="none" stroke-width="1" fill="none" fill-rule="evenodd" sketch:type="MSPage">
        <g id="Icons" sketch:type="MSArtboardGroup" transform="translate(-121.000000, -4202.000000)">
            <g id="60---Open-Folder-(Flat)" sketch:type="MSLayerGroup" transform="translate(120.000000, 4202.000000)">
                <path d="M47.324,47 L2.565,47 C1.535,47 0.786,46.022 1.055,45.028 L11.221,17.156 C11.405,16.474 12.024,16 12.731,16 L57.49,16 C58.52,16 59,16.985 59,17.973 L48.834,45.844 C48.65,46.526 48.031,47 47.324,47" id="Fill-1457" fill="#F0CE49" sketch:type="MSShapeGroup"></path>
                <path d="M51.268,7 L26,7 L21,0 L2.732,0 C1.776,0 1,0.775 1,1.733 L1,44.46 C1.069,44.462 1.138,44.466 1.205,44.47 L11.221,17.156 C11.405,16.474 12.024,16 12.731,16 L53,16 L53,8.732 C53,7.776 52.224,7 51.268,7" id="Fill-1458" fill="#ECBA16" sketch:type="MSShapeGroup"></path>
            </g>
        </g>
    </g>
</svg>