<svg xmlns="http://www.w3.org/2000/svg" enable-background="new 0 0 48 48" version="1" viewBox="0 0 48 48"><path fill="#90CAF9" d="M42,42H6V10c0-2.2,1.8-4,4-4h28c2.2,0,4,1.8,4,4V42z"/><rect width="36" height="2" x="6" y="42" fill="#64B5F6"/><g fill="#1565C0"><rect width="6" height="5" x="31" y="27"/><rect width="6" height="5" x="21" y="27"/><rect width="6" height="5" x="11" y="27"/><rect width="6" height="5" x="31" y="35"/><rect width="6" height="5" x="11" y="35"/><rect width="6" height="5" x="31" y="19"/><rect width="6" height="5" x="21" y="19"/><rect width="6" height="5" x="11" y="19"/><rect width="6" height="5" x="31" y="11"/><rect width="6" height="5" x="21" y="11"/><rect width="6" height="5" x="11" y="11"/><rect width="6" height="9" x="21" y="35"/></g></svg>