<svg xmlns="http://www.w3.org/2000/svg" xmlns:xlink="http://www.w3.org/1999/xlink" width="58" height="58" version="1.1" viewBox="0 0 58 58"><title>201 - Percent (Flat)</title><desc>Created with Sketch.</desc><g id="Page-1" fill="none" fill-rule="evenodd" stroke="none" stroke-width="1"><g id="201---Percent-(Flat)"><path id="Fill-820" fill="#E8EDEE" d="M0,0 L58,0 L58,58 L0,58 L0,0 Z"/><path id="Path" stroke="#424A60" stroke-width="2" d="M11,47 L47,11 L11,47 Z"/><path id="Path" stroke="#424A60" stroke-width="2" d="M21,16 C21,18.761 18.761,21 16,21 C13.239,21 11,18.761 11,16 C11,13.239 13.239,11 16,11 C18.761,11 21,13.239 21,16 L21,16 Z"/><path id="Path" stroke="#424A60" stroke-width="2" d="M47,42 C47,44.762 44.761,47 42,47 C39.239,47 37,44.762 37,42 C37,39.239 39.239,37 42,37 C44.761,37 47,39.239 47,42 L47,42 Z"/></g></g></svg>