<svg xmlns="http://www.w3.org/2000/svg" xmlns:xlink="http://www.w3.org/1999/xlink" width="38" height="38" version="1.1" viewBox="0 0 38 38"><title>215 - Percent (Flat)</title><desc>Created with Sketch.</desc><g id="Page-1" fill="none" fill-rule="evenodd" stroke="none" stroke-width="1"><g id="215---Percent-(Flat)" stroke="#F0CE49" stroke-width="2" transform="translate(1.000000, 1.000000)"><path id="Stroke-813" d="M0,36 L36,0 L0,36 Z M10,5 C10,7.761 7.761,10 5,10 C2.239,10 0,7.761 0,5 C0,2.239 2.239,0 5,0 C7.761,0 10,2.239 10,5 L10,5 Z M36,31 C36,33.762 33.761,36 31,36 C28.239,36 26,33.762 26,31 C26,28.239 28.239,26 31,26 C33.761,26 36,28.239 36,31 L36,31 Z"/></g></g></svg>