<svg xmlns="http://www.w3.org/2000/svg" xmlns:xlink="http://www.w3.org/1999/xlink" width="32" height="58" version="1.1" viewBox="0 0 32 58"><title>11 - Phone Chat (Flat)</title><desc>Created with Sketch.</desc><g id="Page-1" fill="none" fill-rule="evenodd" stroke="none" stroke-width="1"><g id="11---Phone-Chat-(Flat)"><path id="Fill-9" fill="#424A60" d="M28.595,58 L3.405,58 C1.525,58 0,56.475 0,54.595 L0,3.406 C0,1.525 1.525,0 3.405,0 L28.595,0 C30.475,0 32,1.525 32,3.406 L32,54.595 C32,56.475 30.475,58 28.595,58"/><path id="Fill-10" fill="#E8EDEE" d="M0,6 L32,6 L32,46 L0,46 L0,6 Z"/><path id="Fill-1464" fill="#262B35" d="M19,52 C19,53.657 17.657,55 16,55 C14.343,55 13,53.657 13,52 C13,50.344 14.343,49 16,49 C17.657,49 19,50.344 19,52"/><path id="Fill-1465" fill="#262B35" d="M16,4 L12,4 C11.447,4 11,3.553 11,3 C11,2.448 11.447,2 12,2 L16,2 C16.553,2 17,2.448 17,3 C17,3.553 16.553,4 16,4"/><path id="Fill-1466" fill="#262B35" d="M20,4 L19,4 C18.447,4 18,3.553 18,3 C18,2.448 18.447,2 19,2 L20,2 C20.553,2 21,2.448 21,3 C21,3.553 20.553,4 20,4"/><path id="Fill-1524" fill="#48A0DC" d="M24,11 L8,11 C5.791,11 4,12.791 4,15 L4,23 L8,19 L24,19 C26.209,19 28,17.209 28,15 C28,12.791 26.209,11 24,11"/><path id="Fill-1525" fill="#61B972" d="M8,28 L24,28 C26.209,28 28,29.791 28,32 L28,40 L24,36 L8,36 C5.791,36 4,34.209 4,32 C4,29.791 5.791,28 8,28"/></g></g></svg>