<svg xmlns="http://www.w3.org/2000/svg" xmlns:xlink="http://www.w3.org/1999/xlink" width="50" height="58" version="1.1" viewBox="0 0 50 58"><title>10 - Phone Message (Flat)</title><desc>Created with Sketch.</desc><g id="Page-1" fill="none" fill-rule="evenodd" stroke="none" stroke-width="1"><g id="10---Phone-Message-(Flat)"><path id="Fill-1482" fill="#424A60" d="M28.595,58 L3.405,58 C1.525,58 0,56.475 0,54.595 L0,3.406 C0,1.525 1.525,0 3.405,0 L28.595,0 C30.475,0 32,1.525 32,3.406 L32,54.595 C32,56.475 30.475,58 28.595,58"/><path id="Fill-1483" fill="#E8EDEE" d="M0,6 L32,6 L32,46 L0,46 L0,6 Z"/><path id="Fill-1484" fill="#262B35" d="M19,52 C19,53.657 17.657,55 16,55 C14.343,55 13,53.657 13,52 C13,50.344 14.343,49 16,49 C17.657,49 19,50.344 19,52"/><path id="Fill-1485" fill="#262B35" d="M16,4 L12,4 C11.447,4 11,3.553 11,3 C11,2.448 11.447,2 12,2 L16,2 C16.553,2 17,2.448 17,3 C17,3.553 16.553,4 16,4"/><path id="Fill-1486" fill="#262B35" d="M20,4 L19,4 C18.447,4 18,3.553 18,3 C18,2.448 18.447,2 19,2 L20,2 C20.553,2 21,2.448 21,3 C21,3.553 20.553,4 20,4"/><path id="Fill-2249" fill="#25AE88" d="M50,12 L14,12 L14,31 L18,31 L18,37 L26,31 L50,31 L50,12"/><path id="Fill-2250" fill="#57D9AB" d="M20,20 L30,20 C30.552,20 31,19.553 31,19 C31,18.447 30.552,18 30,18 L20,18 C19.448,18 19,18.447 19,19 C19,19.553 19.448,20 20,20"/><path id="Fill-2251" fill="#57D9AB" d="M44,23 L20,23 C19.448,23 19,23.448 19,24 C19,24.553 19.448,25 20,25 L44,25 C44.552,25 45,24.553 45,24 C45,23.448 44.552,23 44,23"/></g></g></svg>