<svg xmlns="http://www.w3.org/2000/svg" xmlns:xlink="http://www.w3.org/1999/xlink" width="32" height="58" version="1.1" viewBox="0 0 32 58"><title>12 - Phone Profile (Flat)</title><desc>Created with Sketch.</desc><g id="Page-1" fill="none" fill-rule="evenodd" stroke="none" stroke-width="1"><g id="12---Phone-Profile-(Flat)"><path id="Fill-1467" fill="#424A60" d="M28.595,58 L3.405,58 C1.525,58 0,56.475 0,54.595 L0,3.406 C0,1.525 1.525,0 3.405,0 L28.595,0 C30.475,0 32,1.525 32,3.406 L32,54.595 C32,56.475 30.475,58 28.595,58"/><path id="Fill-1468" fill="#E8EDEE" d="M0,6 L32,6 L32,46 L0,46 L0,6 Z"/><path id="Fill-1469" fill="#262B35" d="M19,52 C19,53.657 17.657,55 16,55 C14.343,55 13,53.657 13,52 C13,50.344 14.343,49 16,49 C17.657,49 19,50.344 19,52"/><path id="Fill-1470" fill="#262B35" d="M16,4 L12,4 C11.447,4 11,3.553 11,3 C11,2.448 11.447,2 12,2 L16,2 C16.553,2 17,2.448 17,3 C17,3.553 16.553,4 16,4"/><path id="Fill-1471" fill="#262B35" d="M20,4 L19,4 C18.447,4 18,3.553 18,3 C18,2.448 18.447,2 19,2 L20,2 C20.553,2 21,2.448 21,3 C21,3.553 20.553,4 20,4"/><path id="Fill-1520" fill="#7383BF" d="M28,21 C28,27.627 22.627,33 16,33 C9.372,33 4,27.627 4,21 C4,14.373 9.372,9 16,9 C22.627,9 28,14.373 28,21"/><path id="Fill-1521" fill="#424A60" d="M18.932,28.568 C18.485,28.344 18.202,27.887 18.202,27.387 L18.202,26.029 C18.3,25.918 18.411,25.775 18.53,25.607 C19.001,24.941 19.358,24.208 19.606,23.439 C20.05,23.302 20.376,22.892 20.376,22.405 L20.376,20.956 C20.376,20.637 20.235,20.352 20.014,20.153 L20.014,18.057 C20.014,18.057 20.444,14.795 16.028,14.795 C11.612,14.795 12.042,18.057 12.042,18.057 L12.042,20.153 C11.822,20.352 11.68,20.637 11.68,20.956 L11.68,22.405 C11.68,22.787 11.881,23.123 12.181,23.317 C12.543,24.894 13.492,26.029 13.492,26.029 L13.492,27.353 C13.492,27.836 13.228,28.28 12.804,28.512 L9.571,30.275 C9.35,30.396 9.153,30.547 8.974,30.714 C10.951,32.146 13.373,33 16,33 C18.623,33 21.041,32.149 23.016,30.722 C22.829,30.557 22.622,30.412 22.393,30.298 L18.932,28.568"/><path id="Fill-1522" fill="#B0B6BB" d="M3,37 L29,37 L29,43 L3,43 L3,37 Z"/><path id="Fill-1523" fill="#61B972" d="M3,37 L9,37 L9,43 L3,43 L3,37 Z"/></g></g></svg>