<?xml version="1.0" encoding="UTF-8" standalone="no"?>
<svg width="56px" height="58px" viewBox="0 0 56 58" version="1.1" xmlns="http://www.w3.org/2000/svg" xmlns:xlink="http://www.w3.org/1999/xlink" xmlns:sketch="http://www.bohemiancoding.com/sketch/ns">
    <!-- Generator: Sketch 3.2.2 (9983) - http://www.bohemiancoding.com/sketch -->
    <title>20 - Phone Vibration (Flat)</title>
    <desc>Created with Sketch.</desc>
    <defs></defs>
    <g id="Page-1" stroke="none" stroke-width="1" fill="none" fill-rule="evenodd" sketch:type="MSPage">
        <g id="20---Phone-Vibration-(Flat)" sketch:type="MSLayerGroup">
            <path d="M12,3.844 C12,3.163 12.204,2.532 12.548,2 L2.525,4.686 C0.708,5.172 -0.37,7.04 0.117,8.857 L11.926,52.932 C11.938,52.974 12,52.966 12,52.923 L12,3.844" id="Fill-6" fill="#E8EDEE" sketch:type="MSShapeGroup"></path>
            <path d="M44,2.844 C44,2.163 43.795,1.532 43.451,1 L53.475,3.686 C55.292,4.173 56.37,6.04 55.883,7.857 L44.073,51.932 C44.062,51.974 44,51.966 44,51.923 L44,2.844" id="Fill-7" fill="#E8EDEE" sketch:type="MSShapeGroup"></path>
            <path d="M40.595,58 L15.405,58 C13.525,58 12,56.475 12,54.595 L12,3.406 C12,1.525 13.525,0 15.405,0 L40.595,0 C42.475,0 44,1.525 44,3.406 L44,54.595 C44,56.475 42.475,58 40.595,58" id="Fill-1487" fill="#424A60" sketch:type="MSShapeGroup"></path>
            <path d="M12,6 L44,6 L44,46 L12,46 L12,6 Z" id="Fill-1488" fill="#A4E869" sketch:type="MSShapeGroup"></path>
            <path d="M31,52 C31,53.657 29.657,55 28,55 C26.343,55 25,53.657 25,52 C25,50.344 26.343,49 28,49 C29.657,49 31,50.344 31,52" id="Fill-1489" fill="#262B35" sketch:type="MSShapeGroup"></path>
            <path d="M28,4 L24,4 C23.447,4 23,3.553 23,3 C23,2.448 23.447,2 24,2 L28,2 C28.553,2 29,2.448 29,3 C29,3.553 28.553,4 28,4" id="Fill-1490" fill="#262B35" sketch:type="MSShapeGroup"></path>
            <path d="M32,4 L31,4 C30.447,4 30,3.553 30,3 C30,2.448 30.447,2 31,2 L32,2 C32.553,2 33,2.448 33,3 C33,3.553 32.553,4 32,4" id="Fill-1491" fill="#262B35" sketch:type="MSShapeGroup"></path>
        </g>
    </g>
</svg>