<svg xmlns="http://www.w3.org/2000/svg" xmlns:xlink="http://www.w3.org/1999/xlink" width="54" height="58" version="1.1" viewBox="0 0 54 58"><title>16 - Phone Upload (Flat)</title><desc>Created with Sketch.</desc><g id="Page-1" fill="none" fill-rule="evenodd" stroke="none" stroke-width="1"><g id="16---Phone-Upload-(Flat)"><path id="Fill-3147" fill="#E8EDEE" d="M28.595,58 L3.405,58 C1.525,58 0,56.475 0,54.595 L0,3.406 C0,1.525 1.525,0 3.405,0 L28.595,0 C30.475,0 32,1.525 32,3.406 L32,54.595 C32,56.475 30.475,58 28.595,58"/><path id="Fill-3148" fill="#FFF" d="M19,53 C19,54.657 17.657,56 16,56 C14.343,56 13,54.657 13,53 C13,51.343 14.343,50 16,50 C17.657,50 19,51.343 19,53"/><path id="Fill-3149" fill="#424A60" d="M16,4 L12,4 C11.447,4 11,3.553 11,3 C11,2.448 11.447,2 12,2 L16,2 C16.553,2 17,2.448 17,3 C17,3.553 16.553,4 16,4"/><path id="Fill-3150" fill="#424A60" d="M20,4 L19,4 C18.447,4 18,3.553 18,3 C18,2.448 18.447,2 19,2 L20,2 C20.553,2 21,2.448 21,3 C21,3.553 20.553,4 20,4"/><path id="Fill-3151" fill="#424A60" d="M0,6 L32,6 L32,48 L0,48 L0,6 Z"/><path id="Path" stroke="#ECBA16" stroke-linecap="round" stroke-width="2" d="M15,26 L53,26"/><path id="Path" stroke="#ECBA16" stroke-linecap="round" stroke-width="2" d="M41,14 L53,26"/><path id="Path" stroke="#ECBA16" stroke-linecap="round" stroke-width="2" d="M41,38 L53,26"/></g></g></svg>