<svg xmlns="http://www.w3.org/2000/svg" xmlns:xlink="http://www.w3.org/1999/xlink" width="58" height="46" version="1.1" viewBox="0 0 58 46"><title>278 - Picture (Flat)</title><desc>Created with Sketch.</desc><g id="Page-1" fill="none" fill-rule="evenodd" stroke="none" stroke-width="1"><g id="Icons" transform="translate(-361.000000, -1565.000000)"><g id="278---Picture-(Flat)" transform="translate(362.000000, 1566.000000)"><path id="Fill-663" fill="#C3E1ED" d="M0,0 L56,0 L56,44 L0,44 L0,0 Z"/><path id="Stroke-664" stroke="#E8EDEE" stroke-width="2" d="M0,0 L56,0 L56,44 L0,44 L0,0 Z"/><path id="Fill-2563" fill="#ED8A19" d="M21.569,10.569 C21.569,14.197 18.628,17.138 15,17.138 C11.372,17.138 8.431,14.197 8.431,10.569 C8.431,6.941 11.372,4 15,4 C18.628,4 21.569,6.941 21.569,10.569"/><path id="Fill-2564" fill="#199172" d="M55,29.111 L54,28 L42,17 L31.5,28.5 L41,38 L55,38 L55,29.111"/><path id="Fill-2568" fill="#199172" d="M1,42 L25,42 L10.017,27.017 L1,34.957 L1,42"/><path id="Fill-2569" fill="#6B5B4B" d="M1,38 L55,38 L55,43 L1,43 L1,38 Z"/><path id="Fill-2570" fill="#25AE88" d="M36.983,33.983 L26.017,23.017 L9,38 L41,38 L36.983,33.983"/></g></g></g></svg>