<svg xmlns="http://www.w3.org/2000/svg" xmlns:xlink="http://www.w3.org/1999/xlink" width="58" height="58" version="1.1" viewBox="0 0 58 58"><title>248 - Play (Flat)</title><desc>Created with Sketch.</desc><g id="Page-1" fill="none" fill-rule="evenodd" stroke="none" stroke-width="1"><g id="248---Play-(Flat)"><path id="Fill-758" fill="#ECBA16" d="M58,29 C58,45.017 45.016,58 29,58 C12.984,58 0,45.017 0,29 C0,12.984 12.984,0 29,0 C45.016,0 58,12.984 58,29"/><path id="Fill-1883" fill="#FFF" d="M44,29 L22,44 L22,14 L44,29"/><path id="Fill-1884" fill="#FFF" d="M22,45 C21.84,45 21.679,44.962 21.533,44.884 C21.205,44.711 21,44.371 21,44 L21,14 C21,13.629 21.205,13.289 21.533,13.116 C21.86,12.942 22.256,12.966 22.564,13.174 L44.563,28.174 C44.836,28.36 45,28.669 45,29 C45,29.331 44.836,29.64 44.563,29.826 L22.564,44.826 C22.394,44.942 22.197,45 22,45 L22,45 Z M23,15.893 L23,42.107 L42.225,29 L23,15.893 L23,15.893 Z"/></g></g></svg>