<?xml version="1.0" encoding="UTF-8" standalone="no"?>
<svg width="58px" height="58px" viewBox="0 0 58 58" version="1.1" xmlns="http://www.w3.org/2000/svg" xmlns:xlink="http://www.w3.org/1999/xlink" xmlns:sketch="http://www.bohemiancoding.com/sketch/ns">
    <!-- Generator: Sketch 3.2.2 (9983) - http://www.bohemiancoding.com/sketch -->
    <title>248 - Play (Flat)</title>
    <desc>Created with Sketch.</desc>
    <defs></defs>
    <g id="Page-1" stroke="none" stroke-width="1" fill="none" fill-rule="evenodd" sketch:type="MSPage">
        <g id="248---Play-(Flat)" sketch:type="MSLayerGroup">
            <path d="M58,29 C58,45.017 45.016,58 29,58 C12.984,58 0,45.017 0,29 C0,12.984 12.984,0 29,0 C45.016,0 58,12.984 58,29" id="Fill-758" fill="#ECBA16" sketch:type="MSShapeGroup"></path>
            <path d="M44,29 L22,44 L22,14 L44,29" id="Fill-1883" fill="#FFFFFF" sketch:type="MSShapeGroup"></path>
            <path d="M22,45 C21.84,45 21.679,44.962 21.533,44.884 C21.205,44.711 21,44.371 21,44 L21,14 C21,13.629 21.205,13.289 21.533,13.116 C21.86,12.942 22.256,12.966 22.564,13.174 L44.563,28.174 C44.836,28.36 45,28.669 45,29 C45,29.331 44.836,29.64 44.563,29.826 L22.564,44.826 C22.394,44.942 22.197,45 22,45 L22,45 Z M23,15.893 L23,42.107 L42.225,29 L23,15.893 L23,15.893 Z" id="Fill-1884" fill="#FFFFFF" sketch:type="MSShapeGroup"></path>
        </g>
    </g>
</svg>