<svg xmlns="http://www.w3.org/2000/svg" xmlns:xlink="http://www.w3.org/1999/xlink" width="47" height="58" version="1.1" viewBox="0 0 47 58"><title>103 - Privacy (Flat)</title><desc>Created with Sketch.</desc><g id="Page-1" fill="none" fill-rule="evenodd" stroke="none" stroke-width="1"><g id="103---Privacy-(Flat)" fill="#F8B563"><path id="Fill-1361" d="M26,10 L26,25.5 C26,26.328 25.328,27 24.5,27 C23.672,27 23,26.328 23,25.5 L23,3 C23,1.343 21.657,0 20,0 C18.343,0 17,1.343 17,3 L17,25.5 C17,26.328 16.328,27 15.5,27 C14.672,27 14,26.328 14,25.5 L14,7.5 C14,6.12 12.881,5 11.5,5 C10.119,5 9,6.12 9,7.5 L9,27.5 C9,28.328 8.328,29 7.5,29 C6.672,29 6,28.328 6,27.5 L6,15 C6,13.62 4.881,12.5 3.5,12.5 L3.49,12.5 C2.109,12.5 0.99,13.62 0.99,15 L0.99,42.129 C1.826,54.208 8.45,57.066 17.8,57.066 C24.466,57.066 30.216,53.658 32.977,48.715 C34.138,46.841 41.171,35.89 41.775,34.747 C42.478,33.413 43.509,31.807 44.81,30.745 C45.503,30.178 45.964,29.427 46.391,28.64 C46.5,28.438 46.817,25.993 45,26 C43.424,26.006 41.625,26.67 40.32,27.552 C38.857,28.542 36.958,30.248 35.336,33.084 C34.809,34.005 33.866,34.648 32.804,34.672 C31.804,34.694 32.063,34.204 32,32.136 L32,10 C32,8.343 30.657,7 29,7 C27.343,7 26,8.343 26,10"/></g></g></svg>