<svg xmlns="http://www.w3.org/2000/svg" xmlns:xlink="http://www.w3.org/1999/xlink" width="53" height="53" version="1.1" viewBox="0 0 53 53"><title>295 - Profile (Flat)</title><desc>Created with Sketch.</desc><g id="Page-1" fill="none" fill-rule="evenodd" stroke="none" stroke-width="1"><g id="Icons" transform="translate(-724.000000, -1320.000000)"><g id="295---Profile-(Flat)" transform="translate(724.000000, 1320.000000)"><path id="Fill-628" fill="#E8EDEE" d="M18.612,41.552 L10.705,45.866 C10.241,46.119 9.824,46.429 9.436,46.769 C14.047,50.655 19.998,53 26.5,53 C32.954,53 38.867,50.69 43.464,46.856 C43.04,46.498 42.58,46.176 42.07,45.921 L33.603,41.688 C32.509,41.141 31.818,40.023 31.818,38.8 L31.818,35.478 C32.056,35.207 32.328,34.858 32.619,34.448 C33.773,32.818 34.646,31.025 35.251,29.144 C36.336,28.809 37.136,27.806 37.136,26.614 L37.136,23.068 C37.136,22.288 36.79,21.591 36.25,21.104 L36.25,15.978 C36.25,15.978 37.303,8 26.5,8 C15.697,8 16.75,15.978 16.75,15.978 L16.75,21.104 C16.21,21.591 15.864,22.288 15.864,23.068 L15.864,26.614 C15.864,27.548 16.355,28.37 17.089,28.845 C17.975,32.702 20.295,35.478 20.295,35.478 L20.295,38.717 C20.295,39.899 19.65,40.987 18.612,41.552"/><path id="Fill-3181" fill="#556080" d="M26.953,0.004 C12.32,-0.246 0.254,11.414 0.004,26.047 C-0.138,34.344 3.56,41.801 9.448,46.76 C9.833,46.424 10.246,46.116 10.705,45.866 L18.612,41.552 C19.65,40.987 20.295,39.899 20.295,38.717 L20.295,35.478 C20.295,35.478 17.975,32.702 17.089,28.845 C16.355,28.37 15.864,27.548 15.864,26.614 L15.864,23.068 C15.864,22.288 16.21,21.591 16.75,21.104 L16.75,15.978 C16.75,15.978 15.697,8 26.5,8 C37.303,8 36.25,15.978 36.25,15.978 L36.25,21.104 C36.79,21.591 37.136,22.288 37.136,23.068 L37.136,26.614 C37.136,27.806 36.336,28.809 35.251,29.144 C34.646,31.025 33.773,32.818 32.619,34.448 C32.328,34.858 32.056,35.207 31.818,35.478 L31.818,38.8 C31.818,40.023 32.509,41.141 33.603,41.688 L42.07,45.921 C42.578,46.176 43.037,46.496 43.46,46.853 C49.17,42.09 52.859,34.971 52.996,26.953 C53.246,12.32 41.586,0.254 26.953,0.004"/></g></g></g></svg>