<?xml version="1.0" encoding="UTF-8" standalone="no"?>
<svg width="53px" height="53px" viewBox="0 0 53 53" version="1.1" xmlns="http://www.w3.org/2000/svg" xmlns:xlink="http://www.w3.org/1999/xlink" xmlns:sketch="http://www.bohemiancoding.com/sketch/ns">
    <!-- Generator: Sketch 3.2.2 (9983) - http://www.bohemiancoding.com/sketch -->
    <title>296 - Profile (Flat)</title>
    <desc>Created with Sketch.</desc>
    <defs></defs>
    <g id="Page-1" stroke="none" stroke-width="1" fill="none" fill-rule="evenodd" sketch:type="MSPage">
        <g id="Icons" sketch:type="MSArtboardGroup" transform="translate(-603.000000, -1320.000000)">
            <g id="296---Profile-(Flat)" sketch:type="MSLayerGroup" transform="translate(603.000000, 1320.000000)">
                <path d="M11.487,44.641 L20.6,40.733 C21.093,40.486 21.496,39.688 21.779,39.119 C22.034,38.605 21.653,38 21.079,38 L14.634,38 C14.634,38 12.304,37.772 10.507,37 C9.455,36.548 9.092,35.951 9.75,35.014 C11.675,32.274 15.654,25.822 15.783,19.159 C15.783,19.158 16.003,8.902 26.123,8.818 C32.026,8.867 34.815,12.342 36.113,15.229 C36.838,16.839 37.148,18.596 37.265,20.358 C37.684,26.709 40.919,32.518 42.426,35 C42.937,35.842 42.69,36.963 41.845,37.469 C40.458,38.298 38.761,38 38.761,38 L32.273,38 C31.64,38 31.36,38.886 31.857,39.279 C32.263,39.599 32.65,39.888 32.859,40.002 L40.439,44.589 C41.534,45.186 42.407,46.072 43,47.119 C38.451,50.795 32.664,53 26.359,53 C19.785,53 13.775,50.601 9.143,46.637 C9.748,45.812 10.537,45.116 11.487,44.641" id="Fill-627" fill="#E8EDEE" sketch:type="MSShapeGroup"></path>
                <path d="M26.5,0 C11.864,0 0,11.865 0,26.5 C0,34.522 3.57,41.707 9.202,46.566 C9.799,45.773 10.565,45.102 11.487,44.641 L20.6,40.733 C21.093,40.486 21.496,39.688 21.779,39.119 C22.034,38.605 21.653,38 21.079,38 L14.634,38 C14.634,38 12.304,37.772 10.507,37 C9.455,36.548 9.092,35.951 9.75,35.014 C11.675,32.274 15.654,25.822 15.783,19.159 C15.783,19.158 16.003,8.902 26.123,8.818 C32.026,8.867 34.815,12.342 36.113,15.229 C36.838,16.839 37.148,18.596 37.265,20.358 C37.684,26.709 40.919,32.518 42.426,35 C42.937,35.842 42.69,36.963 41.845,37.469 C40.458,38.298 38.761,38 38.761,38 L32.273,38 C31.64,38 31.36,38.886 31.857,39.279 C32.263,39.599 32.65,39.888 32.859,40.002 L40.439,44.589 C41.525,45.181 42.391,46.059 42.984,47.094 C43.01,47.12 43.039,47.143 43.064,47.169 C49.117,42.313 53,34.864 53,26.5 C53,11.865 41.136,0 26.5,0" id="Fill-3180" fill="#556080" sketch:type="MSShapeGroup"></path>
            </g>
        </g>
    </g>
</svg>