<svg xmlns="http://www.w3.org/2000/svg" xmlns:xlink="http://www.w3.org/1999/xlink" width="58" height="58" version="1.1" viewBox="0 0 58 58"><title>293 - Profile (Flat)</title><desc>Created with Sketch.</desc><g id="Page-1" fill="none" fill-rule="evenodd" stroke="none" stroke-width="1"><g id="Icons" transform="translate(-960.000000, -1318.000000)"><g id="293---Profile-(Flat)" transform="translate(960.000000, 1318.000000)"><path id="Fill-272" fill="#F86363" d="M58,29 C58,45.017 45.016,58 29,58 C12.984,58 0,45.017 0,29 C0,12.984 12.984,0 29,0 C45.016,0 58,12.984 58,29"/><path id="Fill-273" fill="#F8B563" d="M52.932,45.376 C52.275,38.985 46.875,34 40.311,34 L34.365,34 C33.611,34 33,33.389 33,32.635 L33,31.99 C33,31.407 33.379,30.908 33.925,30.703 C39.729,28.521 43.703,18.999 42.896,12.27 C42.134,5.919 36.97,0.801 30.614,0.091 C30.097,0.033 29.585,0.005 29.079,0.002 C29.063,0.002 29.047,0.001 29.031,0.001 C21.285,-0.016 15,6.258 15,14 C15,20.024 18.807,28.755 24.145,30.729 C24.668,30.922 25,31.442 25,32 L25,32.635 C25,33.389 24.389,34 23.635,34 L17.689,34 C11.125,34 5.725,38.985 5.068,45.376 C10.293,52.998 19.061,58 29,58 C38.939,58 47.707,52.998 52.932,45.376"/><path id="Fill-274" fill="#F8E713" d="M33.492,6.61 C37.207,7.632 40.705,9.917 42.945,12.933 C42.929,12.711 42.922,12.485 42.896,12.27 C42.134,5.919 36.97,0.801 30.614,0.09 C30.097,0.033 29.585,0.005 29.079,0.002 C29.063,0.002 29.047,0.001 29.031,0.001 C22.111,-0.014 16.371,4.996 15.223,11.583 L15.227,11.583 C15.406,11.835 15.581,12.09 15.773,12.333 C15.843,12.246 15.913,12.16 15.985,12.075 C17.986,9.695 21.326,9.144 24.168,10.403 C25.034,10.787 25.992,11 27,11 C29.942,11 32.456,9.183 33.492,6.61"/><path id="Fill-1852" fill="#F8E713" d="M33.925,30.703 C33.379,30.908 33,31.407 33,31.99 L33,32.635 C33,33.389 33.611,34 34.365,34 L40.311,34 C41.234,34 42.133,34.104 43,34.292 L43,14 L42.988,14 C43.002,20.24 39.236,28.706 33.925,30.703"/><path id="Fill-1853" fill="#F8E713" d="M17.689,34 L23.635,34 C24.389,34 25,33.389 25,32.635 L25,32 C25,31.442 24.668,30.922 24.145,30.729 C18.807,28.755 15,20.024 15,14 L15,34.292 C15.867,34.104 16.766,34 17.689,34"/><path id="Fill-1854" fill="#D39450" d="M38,40 C34.039,40 30.618,42.322 29,45.67 C27.382,42.322 23.961,40 20,40 C19.447,40 19,40.447 19,41 C19,41.553 19.447,42 20,42 C24.411,42 28,45.589 28,50 L28,53 L30,53 L30,50 C30,45.589 33.589,42 38,42 C38.553,42 39,41.553 39,41 C39,40.447 38.553,40 38,40"/><path id="Fill-2524" fill="#25AE88" d="M52.932,45.376 C52.549,41.65 50.547,38.412 47.65,36.351 L29,53 L10.35,36.351 C7.453,38.412 5.451,41.65 5.068,45.376 C10.293,52.998 19.061,58 29,58 C38.939,58 47.707,52.998 52.932,45.376"/><path id="Fill-2525" fill="#229974" d="M43,47 L43,54.392 C43.685,54.013 44.35,53.604 45,53.172 L45,47 L43,47"/><path id="Fill-2526" fill="#229974" d="M13,53.172 C13.65,53.604 14.315,54.013 15,54.392 L15,47 L13,47 L13,53.172"/></g></g></g></svg>