<svg xmlns="http://www.w3.org/2000/svg" xmlns:xlink="http://www.w3.org/1999/xlink" width="58" height="58" version="1.1" viewBox="0 0 58 58"><title>153 - Radar (Flat)</title><desc>Created with Sketch.</desc><g id="Page-1" fill="none" fill-rule="evenodd" stroke="none" stroke-width="1"><g id="153---Radar-(Flat)"><path id="Fill-208" fill="#A4E869" d="M57,29 C57,44.464 44.464,57 29,57 C13.536,57 1,44.464 1,29 C1,13.536 13.536,1 29,1 C44.464,1 57,13.536 57,29"/><path id="Fill-1049" fill="#88C057" d="M29,57.984 C21.574,57.984 14.147,55.156 8.494,49.503 C-1.663,39.346 -2.815,23.044 5.813,11.584 C6.145,11.144 6.771,11.053 7.214,11.387 C7.655,11.719 7.743,12.346 7.411,12.787 C-0.622,23.456 0.452,38.632 9.908,48.089 C20.435,58.616 37.565,58.616 48.092,48.089 C58.619,37.562 58.619,20.433 48.092,9.905 C38.638,0.449 23.461,-0.625 12.79,7.408 C12.348,7.742 11.722,7.651 11.39,7.211 C11.058,6.77 11.146,6.143 11.587,5.811 C23.049,-2.818 39.35,-1.667 49.506,8.49 C60.812,19.798 60.812,38.196 49.506,49.503 C43.852,55.156 36.426,57.984 29,57.984"/><path id="Fill-1946" fill="#88C057" d="M29,50.987 C23.366,50.987 17.732,48.842 13.443,44.553 C4.865,35.975 4.865,22.019 13.443,13.441 C22.021,4.862 35.979,4.862 44.557,13.441 C47.11,15.994 49.01,19.171 50.05,22.627 C50.209,23.156 49.909,23.714 49.38,23.873 C48.85,24.032 48.293,23.731 48.134,23.203 C47.19,20.063 45.463,17.176 43.143,14.854 C35.345,7.057 22.655,7.057 14.857,14.854 C7.06,22.652 7.06,35.341 14.857,43.139 C22.656,50.938 35.344,50.938 43.143,43.139 C46.451,39.83 48.498,35.431 48.906,30.751 C48.954,30.201 49.454,29.794 49.989,29.842 C50.539,29.89 50.946,30.375 50.898,30.925 C50.449,36.073 48.197,40.912 44.557,44.553 C40.268,48.842 34.634,50.987 29,50.987"/><path id="Fill-1947" fill="#88C057" d="M29,42.99 C25.256,42.99 21.74,41.536 19.101,38.897 C16.461,36.257 15.007,32.741 15.007,28.997 C15.007,25.253 16.461,21.737 19.101,19.098 C21.74,16.458 25.256,15.004 29,15.004 C32.744,15.004 36.26,16.458 38.899,19.098 C41.539,21.737 42.993,25.253 42.993,28.997 C42.993,32.741 41.539,36.257 38.899,38.897 C36.26,41.536 32.744,42.99 29,42.99 L29,42.99 Z M29,17.004 C25.79,17.004 22.776,18.25 20.515,20.512 C18.253,22.774 17.007,25.787 17.007,28.997 C17.007,32.207 18.253,35.221 20.515,37.483 C22.776,39.744 25.79,40.99 29,40.99 C32.21,40.99 35.224,39.744 37.485,37.483 C39.747,35.221 40.993,32.207 40.993,28.997 C40.993,25.787 39.747,22.774 37.485,20.512 C35.224,18.25 32.21,17.004 29,17.004 L29,17.004 Z"/><path id="Fill-1948" fill="#ECBA16" d="M29,29.997 C28.744,29.997 28.488,29.9 28.293,29.704 C27.902,29.314 27.902,28.681 28.293,28.29 L50.793,5.79 C51.184,5.4 51.816,5.4 52.207,5.79 C52.598,6.181 52.598,6.814 52.207,7.204 L29.707,29.704 C29.512,29.9 29.256,29.997 29,29.997"/><path id="Fill-2696" fill="#7383BF" d="M11.828,11.825 C10.266,13.387 7.734,13.387 6.172,11.825 C4.609,10.263 4.609,7.731 6.172,6.169 C7.734,4.606 10.266,4.606 11.828,6.169 C13.391,7.731 13.391,10.263 11.828,11.825"/><path id="Fill-2697" fill="#CC4B4C" d="M52.334,29.704 C50.772,31.266 48.24,31.266 46.678,29.704 C45.115,28.142 45.115,25.609 46.678,24.047 C48.24,22.485 50.772,22.485 52.334,24.047 C53.897,25.609 53.897,28.142 52.334,29.704"/></g></g></svg>