<svg xmlns="http://www.w3.org/2000/svg" xmlns:xlink="http://www.w3.org/1999/xlink" width="58" height="49" version="1.1" viewBox="0 0 58 49"><title>128 - Reading List (Flat)</title><desc>Created with Sketch.</desc><g id="Page-1" fill="none" fill-rule="evenodd" stroke="none" stroke-width="1"><g id="128---Reading-List-(Flat)"><path id="Fill-1066" fill="#556080" d="M55,45 L33,45 C31.35,45 29,46.75 29,49 L29,3 C29,1.35 30.35,0 32,0 L55,0 C56.65,0 58,1.35 58,3 L58,42 C58,43.65 56.65,45 55,45"/><path id="Fill-1067" fill="#7383BF" d="M3,45 L25,45 C26.65,45 29,46.75 29,49 L29,3 C29,1.35 27.65,0 26,0 L3,0 C1.35,0 0,1.35 0,3 L0,42 C0,43.65 1.35,45 3,45"/></g></g></svg>