<svg xmlns="http://www.w3.org/2000/svg" xmlns:xlink="http://www.w3.org/1999/xlink" width="55" height="46" version="1.1" viewBox="0 0 55 46"><title>191 - Receive (Flat)</title><desc>Created with Sketch.</desc><g id="Page-1" fill="none" fill-rule="evenodd" stroke="none" stroke-width="1"><g id="191---Receive-(Flat)"><path id="Fill-841" fill="#E8EDEE" d="M34.944,15.858 L40.063,20.977 L23.046,20.931 L23,3.914 L28.119,9.033 C33.562,3.251 38.602,3.082 38.602,3.082 C41.456,2.821 43.914,3.22 46,3.925 L46,0 L0,0 L0,46 L46,46 L46,9.385 C38.281,10.405 34.944,15.858 34.944,15.858"/><path id="Fill-2613" fill="#ED8A19" d="M28.119,9.033 L23,3.914 L23.046,20.931 L40.063,20.977 L34.944,15.858 C34.944,15.858 40.656,6.5 54.451,10.001 C54.451,10.001 49.134,2.117 38.602,3.082 C38.602,3.082 33.562,3.251 28.119,9.033"/></g></g></svg>