<svg xmlns="http://www.w3.org/2000/svg" xmlns:xlink="http://www.w3.org/1999/xlink" width="60" height="26" version="1.1" viewBox="0 0 60 26"><title>371 - Record (Flat)</title><desc>Created with Sketch.</desc><g id="Page-1" fill="none" fill-rule="evenodd" stroke="none" stroke-width="1"><g id="Icons" transform="translate(-1200.000000, -373.000000)"><g id="371---Record-(Flat)" transform="translate(1200.000000, 373.000000)"><path id="Fill-493" fill="#DD342E" d="M25,13 C25,19.627 19.627,25 13,25 C6.373,25 1,19.627 1,13 C1,6.373 6.373,1 13,1 C19.627,1 25,6.373 25,13"/><path id="Fill-494" fill="#B12621" d="M13,26 C5.832,26 0,20.169 0,13 C0,5.832 5.832,0 13,0 C20.168,0 26,5.832 26,13 C26,20.169 20.168,26 13,26 L13,26 Z M13,2 C6.935,2 2,6.935 2,13 C2,19.065 6.935,24 13,24 C19.065,24 24,19.065 24,13 C24,6.935 19.065,2 13,2 L13,2 Z"/><path id="Fill-495" fill="#DD342E" d="M59,13 C59,19.627 53.627,25 47,25 C40.373,25 35,19.627 35,13 C35,6.373 40.373,1 47,1 C53.627,1 59,6.373 59,13"/><path id="Fill-496" fill="#B12621" d="M47,26 C39.832,26 34,20.169 34,13 C34,5.832 39.832,0 47,0 C54.168,0 60,5.832 60,13 C60,20.169 54.168,26 47,26 L47,26 Z M47,2 C40.935,2 36,6.935 36,13 C36,19.065 40.935,24 47,24 C53.065,24 58,19.065 58,13 C58,6.935 53.065,2 47,2 L47,2 Z"/><path id="Fill-497" fill="#B12621" d="M47,26 L13,26 C12.447,26 12,25.552 12,25 C12,24.448 12.447,24 13,24 L47,24 C47.553,24 48,24.448 48,25 C48,25.552 47.553,26 47,26"/></g></g></g></svg>