<svg xmlns="http://www.w3.org/2000/svg" xmlns:xlink="http://www.w3.org/1999/xlink" width="52" height="52" version="1.1" viewBox="0 0 52 52"><title>222 - Restart (Flat)</title><desc>Created with Sketch.</desc><g id="Page-1" fill="none" fill-rule="evenodd" stroke="none" stroke-width="1"><g id="222---Restart-(Flat)" transform="translate(1.000000, 1.000000)"><path id="Fill-797" fill="#E8EDEE" d="M50,25 C50,38.807 38.807,50 25,50 C11.193,50 0,38.807 0,25 C0,11.193 11.193,0 25,0 C38.807,0 50,11.193 50,25 L50,25 Z"/><path id="Stroke-798" stroke="#38454F" stroke-linecap="round" stroke-width="2" d="M50,25 C50,38.807 38.807,50 25,50 C11.193,50 0,38.807 0,25 C0,11.193 11.193,0 25,0 C38.807,0 50,11.193 50,25 L50,25 Z"/><path id="Fill-1927" fill="#38454F" d="M30,34 L15,24.83 L30,16.17 L30,34 L30,34 Z"/><path id="Stroke-1928" stroke="#38454F" stroke-linecap="round" stroke-width="2" d="M30,34 L15,24.83 L30,16.17 L30,34 L30,34 Z"/></g></g></svg>