<svg xmlns="http://www.w3.org/2000/svg" xmlns:xlink="http://www.w3.org/1999/xlink" width="45" height="58" version="1.1" viewBox="0 0 45 58"><title>46 - Resumee (Flat)</title><desc>Created with Sketch.</desc><g id="Page-1" fill="none" fill-rule="evenodd" stroke="none" stroke-width="1"><g id="Icons" transform="translate(-608.000000, -4318.000000)"><g id="46---Resumee-(Flat)" transform="translate(608.000000, 4318.000000)"><path id="Fill-1632" fill="#EDEBDA" d="M45,14 L31,0 L0,0 L0,58 L45,58 L45,14"/><path id="Fill-2183" fill="#CEC9AE" d="M31,0 L31,14 L45,14 L31,0"/><path id="Fill-2184" fill="#CEC9AE" d="M27,34 L10,34 C9.448,34 9,34.447 9,35 C9,35.553 9.448,36 10,36 L27,36 C27.552,36 28,35.553 28,35 C28,34.447 27.552,34 27,34"/><path id="Fill-2185" fill="#CEC9AE" d="M38,30 C38,29.448 37.552,29 37,29 L30,29 C29.448,29 29,29.448 29,30 C29,30.553 29.448,31 30,31 L37,31 C37.552,31 38,30.553 38,30"/><path id="Fill-2186" fill="#CEC9AE" d="M15,31 L25,31 C25.552,31 26,30.553 26,30 C26,29.448 25.552,29 25,29 L15,29 C14.448,29 14,29.448 14,30 C14,30.553 14.448,31 15,31"/><path id="Fill-2187" fill="#CEC9AE" d="M10,31 C10.27,31 10.52,30.89 10.71,30.71 C10.89,30.52 11,30.26 11,30 C11,29.74 10.89,29.48 10.71,29.29 C10.34,28.92 9.65,28.93 9.29,29.29 C9.11,29.48 9,29.74 9,30 C9,30.26 9.11,30.52 9.29,30.7 C9.47,30.89 9.73,31 10,31"/><path id="Fill-2188" fill="#CEC9AE" d="M31.29,34.29 C31.11,34.479 31,34.73 31,35 C31,35.27 31.1,35.52 31.29,35.71 C31.48,35.89 31.74,36 32,36 C32.26,36 32.52,35.89 32.71,35.71 C32.9,35.52 33,35.27 33,35 C33,34.739 32.89,34.479 32.71,34.29 C32.33,33.92 31.67,33.92 31.29,34.29"/><path id="Fill-2189" fill="#CEC9AE" d="M36.29,34.29 C36.11,34.479 36,34.73 36,35 C36,35.27 36.1,35.52 36.29,35.71 C36.48,35.89 36.74,36 37,36 C37.26,36 37.52,35.89 37.71,35.7 C37.9,35.51 38,35.26 38,35 C38,34.739 37.89,34.479 37.71,34.29 C37.33,33.92 36.67,33.92 36.29,34.29"/><path id="Fill-2190" fill="#7383BF" d="M15.525,39.166 C13.334,40.307 12.597,42.487 12.329,44.748 C11.915,44.402 11.501,44.055 11.087,43.708 C10.106,42.886 8.683,44.293 9.673,45.122 C10.608,45.906 11.544,46.69 12.479,47.473 C13.141,48.028 14.155,47.685 14.186,46.766 C14.259,44.599 14.363,42.023 16.534,40.893 C17.679,40.298 16.667,38.572 15.525,39.166"/><path id="Fill-2191" fill="#7383BF" d="M30.863,44.25 C30.44,43.67 30.004,43.187 29.231,43.128 C27.774,43.019 25.273,45.104 24.239,43.261 C23.977,42.793 23.329,42.621 22.871,42.902 C21.455,43.771 19.604,45.021 18.115,43.402 C17.24,42.451 15.829,43.869 16.701,44.816 C18.572,46.85 20.985,46.227 23.107,45.075 C23.556,45.557 24.091,45.885 24.804,46.142 C25.713,46.47 28.891,44.922 29.136,45.259 C29.889,46.289 31.625,45.293 30.863,44.25"/><path id="Fill-2192" fill="#CEC9AE" d="M19.593,21.093 L17.082,19.81 C16.91,19.722 16.802,19.546 16.802,19.353 L16.802,18.584 C18.091,18.029 18.832,16.95 19.192,15.601 C19.736,15.433 20.136,14.93 20.136,14.333 L20.136,13.667 C20.136,13.156 19.842,12.715 19.417,12.491 C19.123,9.984 17.466,8.97 14.802,8.97 C14.676,8.97 14.553,8.975 14.431,8.985 C13.526,9.056 12.61,8.886 11.857,8.379 C11.544,8.168 11.28,7.944 11.095,7.708 C11.01,7.601 10.841,7.669 10.857,7.805 C10.884,8.038 10.923,8.31 10.982,8.607 C11.203,9.714 11.071,9.553 10.643,10.597 C10.406,11.175 10.254,11.815 10.183,12.494 C9.761,12.719 9.469,13.158 9.469,13.667 L9.469,14.333 C9.469,14.93 9.869,15.433 10.412,15.601 C10.773,16.95 11.513,18.029 12.802,18.584 L12.802,19.348 C12.802,19.543 12.691,19.721 12.516,19.808 L9.942,21.075 C9.507,21.313 9.191,21.694 9,22.135 C10.637,23.305 12.637,24 14.802,24 C16.96,24 18.952,23.31 20.586,22.149 C20.382,21.702 20.048,21.32 19.593,21.093"/></g></g></g></svg>