<?xml version="1.0" encoding="UTF-8" standalone="no"?>
<svg width="60px" height="54px" viewBox="0 0 60 54" version="1.1" xmlns="http://www.w3.org/2000/svg" xmlns:xlink="http://www.w3.org/1999/xlink" xmlns:sketch="http://www.bohemiancoding.com/sketch/ns">
    <!-- Generator: Sketch 3.2.2 (9983) - http://www.bohemiancoding.com/sketch -->
    <title>88 - Ringing Alarm (Flat)</title>
    <desc>Created with Sketch.</desc>
    <defs></defs>
    <g id="Page-1" stroke="none" stroke-width="1" fill="none" fill-rule="evenodd" sketch:type="MSPage">
        <g id="Icons" sketch:type="MSArtboardGroup" transform="translate(-360.000000, -3840.000000)">
            <g id="88---Ringing-Alarm-(Flat)" sketch:type="MSLayerGroup" transform="translate(360.000000, 3841.000000)">
                <path d="M34,8 L34,4 C34,1.791 32.209,0 30,0 C27.791,0 26,1.791 26,4 L26,8.073" id="Stroke-207" stroke="#DC9628" stroke-width="2" stroke-linecap="round" stroke-linejoin="round" sketch:type="MSShapeGroup"></path>
                <path d="M16.491,46.639 C27.192,48.486 33.15,48.486 43.851,46.639 L53.341,45 C48.656,40.343 46.024,34.586 46.024,28 L46.024,19 C46.063,12.954 42.067,8.523 38.079,6.699 C33.079,4.415 27.264,4.406 22.272,6.707 C18.319,8.53 14.038,12.958 14,19 L14,28 C14,34.586 11.685,40.343 7,45 L16.491,46.639" id="Fill-1316" fill="#EEAF4B" sketch:type="MSShapeGroup"></path>
                <path d="M19,21.991 L18.994,21.991 C18.441,21.987 17.997,21.537 18,20.985 C18.03,16.303 21.752,13.342 23.948,12.331 C27.796,10.556 32.541,10.558 36.416,12.329 C36.918,12.558 37.14,13.151 36.91,13.654 C36.681,14.156 36.088,14.378 35.584,14.147 C32.231,12.614 28.115,12.61 24.785,14.147 C23.019,14.961 20.023,17.32 20,20.997 C19.997,21.548 19.549,21.991 19,21.991" id="Fill-1317" fill="#FBD490" sketch:type="MSShapeGroup"></path>
                <path d="M21.905,47.46 C23.35,50.728 26.508,53 30.183,53 C33.859,53 37.017,50.727 38.461,47.457 C32.533,48.209 27.83,48.211 21.905,47.46" id="Fill-1318" fill="#DC9628" sketch:type="MSShapeGroup"></path>
                <path d="M4.095,35.967 C3.839,35.967 3.583,35.869 3.388,35.674 C1.203,33.49 0,30.58 0,27.484 C0,24.386 1.203,21.478 3.388,19.293 C3.778,18.902 4.411,18.902 4.802,19.293 C5.192,19.684 5.192,20.316 4.802,20.707 C2.995,22.514 2,24.92 2,27.484 C2,30.046 2.995,32.452 4.802,34.26 C5.192,34.651 5.192,35.283 4.802,35.674 C4.606,35.869 4.351,35.967 4.095,35.967" id="Fill-1319" fill="#F3EDBF" sketch:type="MSShapeGroup"></path>
                <path d="M8.305,33.691 C8.049,33.691 7.793,33.593 7.598,33.398 C4.261,30.061 4.261,24.63 7.598,21.293 C7.989,20.902 8.622,20.902 9.012,21.293 C9.403,21.684 9.403,22.317 9.012,22.707 C6.455,25.265 6.455,29.426 9.012,31.984 C9.403,32.374 9.403,33.007 9.012,33.398 C8.817,33.593 8.561,33.691 8.305,33.691" id="Fill-1320" fill="#F3EDBF" sketch:type="MSShapeGroup"></path>
                <path d="M55.905,35.967 C55.649,35.967 55.394,35.869 55.198,35.674 C54.808,35.283 54.808,34.651 55.198,34.26 C57.005,32.452 58,30.046 58,27.484 C58,24.92 57.005,22.514 55.198,20.707 C54.808,20.316 54.808,19.684 55.198,19.293 C55.589,18.902 56.222,18.902 56.612,19.293 C58.797,21.478 60,24.386 60,27.484 C60,30.58 58.797,33.49 56.612,35.674 C56.417,35.869 56.161,35.967 55.905,35.967" id="Fill-1321" fill="#F3EDBF" sketch:type="MSShapeGroup"></path>
                <path d="M51.695,33.691 C51.439,33.691 51.183,33.593 50.988,33.398 C50.597,33.007 50.597,32.374 50.988,31.984 C53.545,29.426 53.545,25.265 50.988,22.707 C50.597,22.317 50.597,21.684 50.988,21.293 C51.378,20.902 52.011,20.902 52.402,21.293 C55.739,24.63 55.739,30.061 52.402,33.398 C52.206,33.593 51.951,33.691 51.695,33.691" id="Fill-1322" fill="#F3EDBF" sketch:type="MSShapeGroup"></path>
            </g>
        </g>
    </g>
</svg>