<?xml version="1.0" encoding="UTF-8" standalone="no"?>
<svg width="60px" height="58px" viewBox="0 0 60 58" version="1.1" xmlns="http://www.w3.org/2000/svg" xmlns:xlink="http://www.w3.org/1999/xlink" xmlns:sketch="http://www.bohemiancoding.com/sketch/ns">
    <!-- Generator: Sketch 3.2.2 (9983) - http://www.bohemiancoding.com/sketch -->
    <title>14 - Ringing Phone (Flat)</title>
    <desc>Created with Sketch.</desc>
    <defs></defs>
    <g id="Page-1" stroke="none" stroke-width="1" fill="none" fill-rule="evenodd" sketch:type="MSPage">
        <g id="14---Ringing-Phone-(Flat)" sketch:type="MSLayerGroup">
            <path d="M42.595,58 L17.405,58 C15.525,58 14,56.475 14,54.595 L14,3.406 C14,1.525 15.525,0 17.405,0 L42.595,0 C44.475,0 46,1.525 46,3.406 L46,54.595 C46,56.475 44.475,58 42.595,58" id="Fill-1492" fill="#E8EDEE" sketch:type="MSShapeGroup"></path>
            <path d="M33,53 C33,54.657 31.657,56 30,56 C28.343,56 27,54.657 27,53 C27,51.343 28.343,50 30,50 C31.657,50 33,51.343 33,53" id="Fill-1493" fill="#FFFFFF" sketch:type="MSShapeGroup"></path>
            <path d="M30,4 L26,4 C25.447,4 25,3.553 25,3 C25,2.448 25.447,2 26,2 L30,2 C30.553,2 31,2.448 31,3 C31,3.553 30.553,4 30,4" id="Fill-1494" fill="#424A60" sketch:type="MSShapeGroup"></path>
            <path d="M34,4 L33,4 C32.447,4 32,3.553 32,3 C32,2.448 32.447,2 33,2 L34,2 C34.553,2 35,2.448 35,3 C35,3.553 34.553,4 34,4" id="Fill-1495" fill="#424A60" sketch:type="MSShapeGroup"></path>
            <path d="M55.905,20.242 C55.649,20.242 55.394,20.145 55.198,19.949 C54.808,19.559 54.808,18.926 55.198,18.535 C58.935,14.799 58.935,8.72 55.198,4.983 C54.808,4.593 54.808,3.96 55.198,3.57 C55.589,3.179 56.222,3.179 56.612,3.57 C61.128,8.085 61.128,15.434 56.612,19.949 C56.417,20.145 56.161,20.242 55.905,20.242" id="Fill-1516" fill="#7383BF" sketch:type="MSShapeGroup"></path>
            <path d="M51.694,18.242 C51.438,18.242 51.183,18.145 50.987,17.949 C50.597,17.559 50.597,16.926 50.987,16.535 C52.225,15.299 52.905,13.652 52.905,11.897 C52.905,10.144 52.225,8.496 50.987,7.259 C50.597,6.868 50.597,6.235 50.987,5.845 C51.378,5.454 52.011,5.454 52.401,5.845 C54.017,7.459 54.905,9.61 54.905,11.897 C54.905,14.186 54.017,16.335 52.401,17.949 C52.206,18.145 51.95,18.242 51.694,18.242" id="Fill-1517" fill="#7383BF" sketch:type="MSShapeGroup"></path>
            <path d="M4.095,20.242 C3.839,20.242 3.583,20.145 3.388,19.949 C-1.128,15.434 -1.128,8.085 3.388,3.57 C3.778,3.179 4.411,3.179 4.802,3.57 C5.192,3.96 5.192,4.593 4.802,4.983 C1.065,8.72 1.065,14.799 4.802,18.535 C5.192,18.926 5.192,19.559 4.802,19.949 C4.606,20.145 4.351,20.242 4.095,20.242" id="Fill-1518" fill="#7383BF" sketch:type="MSShapeGroup"></path>
            <path d="M8.306,17.967 C8.05,17.967 7.794,17.869 7.599,17.674 C5.983,16.06 5.095,13.909 5.095,11.621 C5.095,9.333 5.983,7.184 7.599,5.569 C7.989,5.179 8.622,5.179 9.013,5.569 C9.403,5.96 9.403,6.593 9.013,6.984 C7.775,8.22 7.095,9.867 7.095,11.621 C7.095,13.375 7.775,15.023 9.013,16.26 C9.403,16.651 9.403,17.283 9.013,17.674 C8.817,17.869 8.562,17.967 8.306,17.967" id="Fill-1519" fill="#7383BF" sketch:type="MSShapeGroup"></path>
            <path d="M14,6 L46,6 L46,48 L14,48 L14,6 Z" id="Fill-3141" fill="#424A60" sketch:type="MSShapeGroup"></path>
        </g>
    </g>
</svg>