<?xml version="1.0" encoding="UTF-8" standalone="no"?>
<svg width="58px" height="59px" viewBox="0 0 58 59" version="1.1" xmlns="http://www.w3.org/2000/svg" xmlns:xlink="http://www.w3.org/1999/xlink" xmlns:sketch="http://www.bohemiancoding.com/sketch/ns">
    <!-- Generator: Sketch 3.2.2 (9983) - http://www.bohemiancoding.com/sketch -->
    <title>311 - Roadmap (Flat)</title>
    <desc>Created with Sketch.</desc>
    <defs></defs>
    <g id="Page-1" stroke="none" stroke-width="1" fill="none" fill-rule="evenodd" sketch:type="MSPage">
        <g id="Icons" sketch:type="MSArtboardGroup" transform="translate(-1201.000000, -1078.000000)">
            <g id="311---Roadmap-(Flat)" sketch:type="MSLayerGroup" transform="translate(1201.000000, 1077.000000)">
                <path d="M44.57,60 C44.018,60 43.57,59.553 43.57,59 C43.57,58.447 44.018,58 44.57,58 L46.5,58 C47.053,58 47.535,58.447 47.535,58.999 C47.535,59.552 47.123,59.999 46.57,59.999 L46.57,58.999 L46.541,59.999 L44.57,60 L44.57,60 Z M40.57,60 L38.57,60 C38.018,60 37.57,59.553 37.57,59 C37.57,58.447 38.018,58 38.57,58 L40.57,58 C41.123,58 41.57,58.447 41.57,59 C41.57,59.553 41.123,60 40.57,60 L40.57,60 Z M34.57,60 L32.57,60 C32.018,60 31.57,59.553 31.57,59 C31.57,58.447 32.018,58 32.57,58 L34.57,58 C35.123,58 35.57,58.447 35.57,59 C35.57,59.553 35.123,60 34.57,60 L34.57,60 Z M28.57,60 L26.57,60 C26.018,60 25.57,59.553 25.57,59 C25.57,58.447 26.018,58 26.57,58 L28.57,58 C29.123,58 29.57,58.447 29.57,59 C29.57,59.553 29.123,60 28.57,60 L28.57,60 Z M22.57,60 L20.57,60 C20.018,60 19.57,59.553 19.57,59 C19.57,58.447 20.018,58 20.57,58 L22.57,58 C23.123,58 23.57,58.447 23.57,59 C23.57,59.553 23.123,60 22.57,60 L22.57,60 Z M16.57,60 L14.57,60 C14.018,60 13.57,59.553 13.57,59 C13.57,58.447 14.018,58 14.57,58 L16.57,58 C17.123,58 17.57,58.447 17.57,59 C17.57,59.553 17.123,60 16.57,60 L16.57,60 Z M50.037,58.282 C49.821,58.282 49.604,58.212 49.42,58.068 C48.985,57.727 48.911,57.098 49.252,56.664 C49.577,56.251 49.8,55.782 49.915,55.272 C50.036,54.733 50.571,54.396 51.11,54.517 C51.649,54.638 51.987,55.173 51.866,55.712 C51.688,56.504 51.328,57.261 50.824,57.9 C50.627,58.151 50.334,58.282 50.037,58.282 L50.037,58.282 Z M50.038,52.719 C49.741,52.719 49.448,52.588 49.251,52.337 C48.931,51.93 48.517,51.593 48.054,51.363 C47.56,51.117 47.357,50.518 47.604,50.022 C47.85,49.528 48.447,49.325 48.944,49.572 C49.671,49.934 50.32,50.462 50.823,51.101 C51.164,51.534 51.09,52.163 50.655,52.505 C50.473,52.648 50.254,52.719 50.038,52.719 L50.038,52.719 Z M44.571,51 L42.571,51 C42.019,51 41.571,50.553 41.571,50 C41.571,49.447 42.019,49 42.571,49 L44.571,49 C45.124,49 45.571,49.447 45.571,50 C45.571,50.553 45.124,51 44.571,51 L44.571,51 Z M38.571,51 L36.571,51 C36.019,51 35.571,50.553 35.571,50 C35.571,49.447 36.019,49 36.571,49 L38.571,49 C39.124,49 39.571,49.447 39.571,50 C39.571,50.553 39.124,51 38.571,51 L38.571,51 Z M32.629,50.594 C32.49,50.594 32.349,50.564 32.214,50.503 C31.478,50.167 30.812,49.659 30.287,49.036 C29.932,48.613 29.986,47.982 30.409,47.627 C30.832,47.271 31.462,47.326 31.818,47.749 C32.152,48.146 32.577,48.47 33.046,48.685 C33.548,48.914 33.769,49.507 33.539,50.01 C33.371,50.377 33.009,50.594 32.629,50.594 L32.629,50.594 Z M30.08,45.65 C30.018,45.65 29.954,45.645 29.891,45.633 C29.348,45.528 28.993,45.004 29.097,44.462 C29.252,43.653 29.58,42.906 30.069,42.24 C30.397,41.795 31.022,41.701 31.468,42.027 C31.913,42.355 32.008,42.981 31.681,43.426 C31.368,43.85 31.16,44.325 31.062,44.839 C30.969,45.317 30.55,45.65 30.08,45.65 L30.08,45.65 Z M34.284,42.005 C33.751,42.005 33.308,41.584 33.286,41.046 C33.264,40.494 33.692,40.028 34.244,40.006 C34.329,40.002 34.414,40 34.5,40 L36.285,40 C36.838,40 37.285,40.447 37.285,41 C37.285,41.553 36.838,42 36.285,42 L34.326,42.004 C34.312,42.005 34.298,42.005 34.284,42.005 L34.284,42.005 Z M52.5,42 L52.285,42 C51.732,42 51.285,41.553 51.285,41 C51.285,40.447 51.732,40 52.285,40 L52.5,40 C52.969,40 53.423,39.909 53.852,39.729 C54.356,39.515 54.946,39.755 55.16,40.265 C55.374,40.773 55.135,41.359 54.625,41.573 C53.951,41.856 53.236,42 52.5,42 L52.5,42 Z M48.285,42 L46.285,42 C45.732,42 45.285,41.553 45.285,41 C45.285,40.447 45.732,40 46.285,40 L48.285,40 C48.838,40 49.285,40.447 49.285,41 C49.285,41.553 48.838,42 48.285,42 L48.285,42 Z M42.285,42 L40.285,42 C39.732,42 39.285,41.553 39.285,41 C39.285,40.447 39.732,40 40.285,40 L42.285,40 C42.838,40 43.285,40.447 43.285,41 C43.285,41.553 42.838,42 42.285,42 L42.285,42 Z M56.818,38.77 C56.726,38.77 56.631,38.757 56.537,38.729 C56.007,38.574 55.703,38.019 55.858,37.488 C55.952,37.168 56,36.836 56,36.5 C56.002,36.308 55.986,36.126 55.958,35.948 C55.87,35.403 56.241,34.89 56.787,34.803 C57.33,34.713 57.845,35.086 57.933,35.632 C57.979,35.925 58.002,36.22 58,36.508 C58,37.026 57.926,37.548 57.778,38.051 C57.65,38.487 57.251,38.77 56.818,38.77 L56.818,38.77 Z M54.75,33.604 C54.58,33.604 54.407,33.561 54.249,33.469 C53.796,33.206 53.302,33.052 52.779,33.011 C52.229,32.968 51.817,32.486 51.86,31.936 C51.903,31.384 52.387,30.977 52.936,31.017 C53.759,31.081 54.539,31.324 55.253,31.738 C55.73,32.016 55.894,32.628 55.616,33.105 C55.431,33.425 55.095,33.604 54.75,33.604 L54.75,33.604 Z M48.857,33 L46.857,33 C46.305,33 45.857,32.553 45.857,32 C45.857,31.447 46.305,31 46.857,31 L48.857,31 C49.41,31 49.857,31.447 49.857,32 C49.857,32.553 49.41,33 48.857,33 L48.857,33 Z M42.857,33 L40.857,33 C40.305,33 39.857,32.553 39.857,32 C39.857,31.447 40.305,31 40.857,31 L42.857,31 C43.41,31 43.857,31.447 43.857,32 C43.857,32.553 43.41,33 42.857,33 L42.857,33 Z M36.857,33 L34.857,33 C34.305,33 33.857,32.553 33.857,32 C33.857,31.447 34.305,31 34.857,31 L36.857,31 C37.41,31 37.857,31.447 37.857,32 C37.857,32.553 37.41,33 36.857,33 L36.857,33 Z M30.857,33 L30.5,33 C29.822,32.999 29.163,32.877 28.537,32.639 C28.021,32.441 27.763,31.863 27.959,31.348 C28.157,30.831 28.738,30.574 29.25,30.77 C29.648,30.922 30.069,30.999 30.502,31 L30.857,31 C31.41,31 31.857,31.447 31.857,32 C31.857,32.553 31.41,33 30.857,33 L30.857,33 Z M26.224,29.905 C25.804,29.905 25.412,29.639 25.273,29.218 C25.092,28.666 25,28.088 25,27.5 C25.001,27.262 25.016,27.031 25.044,26.806 C25.112,26.26 25.596,25.875 26.161,25.938 C26.709,26.007 27.098,26.508 27.028,27.056 C27.01,27.203 27.001,27.354 27,27.505 C27,27.875 27.059,28.242 27.174,28.593 C27.346,29.117 27.061,29.683 26.536,29.855 C26.433,29.89 26.327,29.905 26.224,29.905 L26.224,29.905 Z M28.128,24.676 C27.794,24.676 27.468,24.509 27.278,24.205 C26.986,23.736 27.129,23.119 27.598,22.827 C28.298,22.391 29.069,22.124 29.892,22.033 C30.444,21.977 30.935,22.369 30.995,22.918 C31.056,23.467 30.659,23.961 30.11,24.021 C29.589,24.079 29.1,24.248 28.656,24.524 C28.491,24.627 28.309,24.676 28.128,24.676 L28.128,24.676 Z M42,24 L40,24 C39.447,24 39,23.553 39,23 C39,22.447 39.447,22 40,22 L42,22 C42.553,22 43,22.447 43,23 C43,23.553 42.553,24 42,24 L42,24 Z M36,24 L34,24 C33.447,24 33,23.553 33,23 C33,22.447 33.447,22 34,22 L36,22 C36.553,22 37,22.447 37,23 C37,23.553 36.553,24 36,24 L36,24 Z" id="Fill-617" fill="#ED8A19" sketch:type="MSShapeGroup"></path>
                <path d="M52.97,3.669 L52.97,3.669 C49.813,0.11 44.694,0.11 41.537,3.669 C38.38,7.228 38.38,12.998 41.537,16.557 L47.253,23 L52.97,16.557 C56.127,12.998 56.127,7.228 52.97,3.669 L52.97,3.669 Z M47.5,14 C45.015,14 43,11.985 43,9.5 C43,7.015 45.015,5 47.5,5 C49.985,5 52,7.015 52,9.5 C52,11.985 49.985,14 47.5,14 L47.5,14 Z" id="Fill-1845" fill="#25B99A" sketch:type="MSShapeGroup"></path>
                <path d="M18.778,29.64 C14.482,24.787 7.518,24.787 3.222,29.64 C-1.074,34.493 -1.074,42.36 3.222,47.213 L11,56 L18.778,47.213 C23.074,42.36 23.074,34.493 18.778,29.64 L18.778,29.64 Z M11,42 C8.239,42 6,39.762 6,37 C6,34.239 8.239,32 11,32 C13.761,32 16,34.239 16,37 C16,39.762 13.761,42 11,42 L11,42 Z" id="Fill-1846" fill="#3083C9" sketch:type="MSShapeGroup"></path>
            </g>
        </g>
    </g>
</svg>