<svg xmlns="http://www.w3.org/2000/svg" xmlns:xlink="http://www.w3.org/1999/xlink" width="58" height="58" version="1.1" viewBox="0 0 58 58"><title>17 - Rotate Portrait (Flat)</title><desc>Created with Sketch.</desc><g id="Page-1" fill="none" fill-rule="evenodd" stroke="none" stroke-width="1"><g id="17---Rotate-Portrait-(Flat)"><path id="Fill-3159" fill="#7FABDA" d="M27,3.406 L27,26 L54.594,26 C56.475,26 58,27.525 58,29.405 L58,3.406 C58,1.525 56.475,0 54.594,0 L30.405,0 C28.525,0 27,1.525 27,3.406"/><path id="Stroke-3160" stroke="#88C057" stroke-linecap="round" stroke-width="2" d="M14,7 C7.367,7 2,12.367 2,19 M13,13 L19,7 M19,7 L13,1 M19,7 L14,7"/><path id="Fill-3161" fill="#E8EDEE" d="M58,29.405 L58,54.595 C58,56.475 56.475,58 54.595,58 L3.405,58 C1.525,58 0,56.475 0,54.595 L0,29.405 C0,27.525 1.525,26 3.405,26 L54.595,26 C56.475,26 58,27.525 58,29.405"/><path id="Fill-3162" fill="#FFF" d="M53,39 C54.657,39 56,40.344 56,42 C56,43.657 54.657,45 53,45 C51.343,45 50,43.657 50,42 C50,40.344 51.343,39 53,39"/><path id="Fill-3163" fill="#424A60" d="M4,42 L4,46 C4,46.553 3.553,47 3,47 C2.447,47 2,46.553 2,46 L2,42 C2,41.448 2.447,41 3,41 C3.553,41 4,41.448 4,42"/><path id="Fill-3164" fill="#424A60" d="M4,38 L4,39 C4,39.553 3.553,40 3,40 C2.447,40 2,39.553 2,39 L2,38 C2,37.447 2.447,37 3,37 C3.553,37 4,37.447 4,38"/><path id="Fill-3165" fill="#424A60" d="M6,26 L48,26 L48,58 L6,58 L6,26 Z"/><path id="Fill-3166" fill="#E8EDEE" d="M27,3.406 L27,6 L58,6 L58,3.406 C58,1.525 56.476,0 54.595,0 L30.405,0 C28.524,0 27,1.525 27,3.406"/></g></g></svg>