<svg xmlns="http://www.w3.org/2000/svg" enable-background="new 0 0 48 48" version="1" viewBox="0 0 48 48"><path fill="#42A5F5" d="M39,45H9c0,0-3-0.1-3-8h36C42,44.9,39,45,39,45z"/><rect width="32" height="34" x="8" y="3" fill="#90CAF9"/><g fill="#1976D2"><rect width="16" height="2" x="18" y="15"/><rect width="16" height="2" x="18" y="19"/><rect width="16" height="2" x="18" y="23"/><rect width="16" height="2" x="18" y="27"/><rect width="16" height="2" x="18" y="31"/></g><g fill="#1976D2"><rect width="2" height="2" x="14" y="15"/><rect width="2" height="2" x="14" y="19"/><rect width="2" height="2" x="14" y="23"/><rect width="2" height="2" x="14" y="27"/><rect width="2" height="2" x="14" y="31"/></g></svg>