<svg xmlns="http://www.w3.org/2000/svg" enable-background="new 0 0 48 48" version="1" viewBox="0 0 48 48"><rect width="14.6" height="44.8" x="16.7" y="1.6" fill="#FFA000" transform="matrix(-.707 -.707 .707 -.707 24 57.941)"/><g fill="#9E6400"><rect width="6.6" height="2" x="17.9" y="20.2" transform="matrix(-.707 -.707 .707 -.707 21.177 51.125)"/><rect width="3.7" height="2" x="22.3" y="15.2" transform="matrix(-.707 -.707 .707 -.707 29.833 44.71)"/><rect width="6.6" height="2" x="25.9" y="12.2" transform="matrix(-.707 -.707 .707 -.707 40.49 43.125)"/><rect width="2" height="3.7" x="31.2" y="6.3" transform="matrix(.707 -.707 .707 .707 3.643 25.147)"/><rect width="3.7" height="2" x="6.3" y="31.2" transform="matrix(-.707 -.707 .707 -.707 -8.794 60.71)"/><rect width="6.6" height="2" x="9.9" y="28.2" transform="matrix(-.707 -.707 .707 -.707 1.863 59.125)"/><rect width="3.7" height="2" x="14.3" y="23.2" transform="matrix(-.707 -.707 .707 -.707 10.52 52.71)"/></g></svg>