<svg xmlns="http://www.w3.org/2000/svg" xmlns:xlink="http://www.w3.org/1999/xlink" width="46" height="47" version="1.1" viewBox="0 0 46 47"><title>261 - Save (Flat)</title><desc>Created with Sketch.</desc><g id="Page-1" fill="none" fill-rule="evenodd" stroke="none" stroke-width="1"><g id="261---Save-(Flat)"><path id="Fill-233" fill="#424A60" d="M46,8 L46,47 L0,47 L0,0 L38,0 L46,8"/><path id="Fill-234" fill="#E8EDEE" d="M7,26 L38,26 L38,47 L7,47 L7,26 Z"/><path id="Fill-235" fill="#ECBA16" d="M7,26 L38,26 L38,38.037 L7,38.037 L7,26 Z"/><path id="Fill-708" fill="#C7CBC7" d="M9,0 L35,0 L35,16 L9,16 L9,0 Z"/><path id="Fill-709" fill="#FFF" d="M12,31 L19,31 C19.553,31 20,30.553 20,30 C20,29.448 19.553,29 19,29 L12,29 C11.447,29 11,29.448 11,30 C11,30.553 11.447,31 12,31"/><path id="Fill-710" fill="#FFF" d="M22,33 L12,33 C11.447,33 11,33.447 11,34 C11,34.553 11.447,35 12,35 L22,35 C22.553,35 23,34.553 23,34 C23,33.447 22.553,33 22,33"/><path id="Fill-711" fill="#FFF" d="M25.71,33.29 C25.34,32.92 24.67,32.92 24.3,33.29 C24.109,33.479 24,33.729 24,34 C24,34.27 24.109,34.52 24.29,34.71 C24.479,34.89 24.729,35 25,35 C25.27,35 25.52,34.89 25.71,34.71 C25.89,34.52 26,34.26 26,34 C26,33.74 25.89,33.479 25.71,33.29"/><path id="Stroke-712" stroke="#424A60" stroke-linecap="round" stroke-width="2" d="M27,4 L31,4 L31,12 L27,12 L27,4 Z"/><path id="Fill-2602" fill="#E8EDEE" d="M24,16 L9,16 L9,0 L16,0 L24,16"/></g></g></svg>