<svg xmlns="http://www.w3.org/2000/svg" xmlns:xlink="http://www.w3.org/1999/xlink" width="47" height="59" version="1.1" viewBox="0 0 47 59"><title>44 - Search File (Flat)</title><desc>Created with Sketch.</desc><g id="Page-1" fill="none" fill-rule="evenodd" stroke="none" stroke-width="1"><g id="Icons" transform="translate(-848.000000, -4318.000000)"><g id="44---Search-File-(Flat)" transform="translate(848.000000, 4318.000000)"><path id="Fill-1693" fill="#EDEBDA" d="M43,20 L28,5 L5,5 L5,55 L43,55 L43,20"/><path id="Fill-1694" fill="#FFF" d="M36.281,37.453 C36.281,43.434 31.433,48.281 25.453,48.281 C19.473,48.281 14.625,43.434 14.625,37.453 C14.625,31.473 19.473,26.625 25.453,26.625 C31.433,26.625 36.281,31.473 36.281,37.453 L36.281,37.453 Z"/><path id="Stroke-1695" stroke="#7383BF" stroke-linecap="round" stroke-width="2" d="M36.281,37.453 C36.281,43.434 31.433,48.281 25.453,48.281 C19.473,48.281 14.625,43.434 14.625,37.453 C14.625,31.473 19.473,26.625 25.453,26.625 C31.433,26.625 36.281,31.473 36.281,37.453 L36.281,37.453 Z"/><path id="Stroke-1696" stroke="#7383BF" stroke-linecap="round" stroke-width="2" d="M33.244,45.244 L46,58"/><path id="Fill-1697" fill="#CEC9AE" d="M25.625,35 L19.625,35 C19.072,35 18.625,34.553 18.625,34 C18.625,33.447 19.072,33 19.625,33 L25.625,33 C26.178,33 26.625,33.447 26.625,34 C26.625,34.553 26.178,35 25.625,35"/><path id="Fill-1698" fill="#CEC9AE" d="M31.625,41 L19.625,41 C19.072,41 18.625,40.553 18.625,40 C18.625,39.447 19.072,39 19.625,39 L31.625,39 C32.178,39 32.625,39.447 32.625,40 C32.625,40.553 32.178,41 31.625,41"/><path id="Fill-1699" fill="#E2DBBF" d="M5,5 L28,5 L38,15 L38,0 L0,0 L0,50 L5,50 L5,5"/><path id="Fill-2205" fill="#CEC9AE" d="M42.712,20 L28,20 L28,5.288 C28,5.182 28.129,5.129 28.204,5.204 L42.796,19.796 C42.871,19.872 42.818,20 42.712,20"/></g></g></g></svg>