<svg xmlns="http://www.w3.org/2000/svg" xmlns:xlink="http://www.w3.org/1999/xlink" width="51" height="53" version="1.1" viewBox="0 0 51 53"><title>378 - Search (Flat)</title><desc>Created with Sketch.</desc><g id="Page-1" fill="none" fill-rule="evenodd" stroke="none" stroke-width="1"><g id="Icons" transform="translate(-365.000000, -361.000000)"><g id="378---Search-(Flat)" transform="translate(365.000000, 361.000000)"><path id="Fill-293" fill="#57ABC1" d="M41,21 C41,32.046 32.046,41 21,41 C9.954,41 1,32.046 1,21 C1,9.954 9.954,1 21,1 C32.046,1 41,9.954 41,21"/><path id="Stroke-294" stroke="#556080" stroke-linecap="round" stroke-width="2" d="M34.454,35.798 L50,51.966"/><path id="Fill-2949" fill="#7CCBD8" d="M2.019,27.253 C2.867,29.835 4.259,32.271 6.186,34.399 L34.399,6.187 C32.271,4.259 29.835,2.868 27.253,2.02 L2.019,27.253"/><path id="Fill-2950" fill="#556080" d="M21,42 C9.42,42 0,32.58 0,21 C0,9.42 9.42,0 21,0 C32.58,0 42,9.42 42,21 C42,32.58 32.58,42 21,42 L21,42 Z M21,2 C10.523,2 2,10.523 2,21 C2,31.477 10.523,40 21,40 C31.477,40 40,31.477 40,21 C40,10.523 31.477,2 21,2 L21,2 Z"/></g></g></g></svg>