<svg xmlns="http://www.w3.org/2000/svg" xmlns:xlink="http://www.w3.org/1999/xlink" width="52" height="47" version="1.1" viewBox="0 0 52 47"><title>196 - Search (Flat)</title><desc>Created with Sketch.</desc><g id="Page-1" fill="none" fill-rule="evenodd" stroke="none" stroke-width="1"><g id="196---Search-(Flat)"><path id="Fill-947" fill="#7383BF" d="M22,36 C22,42.075 17.075,47 11,47 C4.925,47 0,42.075 0,36 C0,29.925 4.925,25 11,25 C17.075,25 22,29.925 22,36"/><path id="Fill-948" fill="#424A60" d="M14.264,0.368 C10.921,0.519 8.148,3.032 7.355,6.283 L1.425,30.596 C3.314,27.258 6.891,25 11,25 C17.075,25 22,29.925 22,36 L22,7.754 C22,3.557 18.503,0.177 14.264,0.368"/><path id="Fill-949" fill="#363D4B" d="M22,13 L30,13 L30,26 L22,26 L22,13 Z"/><path id="Fill-950" fill="#7383BF" d="M30,36 C30,42.075 34.925,47 41,47 C47.075,47 52,42.075 52,36 C52,29.925 47.075,25 41,25 C34.925,25 30,29.925 30,36"/><path id="Fill-951" fill="#424A60" d="M30,36.44 L30,36 C30,36.149 30.016,36.293 30.022,36.44 L30,36.44"/><path id="Fill-952" fill="#424A60" d="M37.736,0.368 C41.078,0.519 43.852,3.032 44.645,6.283 L50.575,30.596 C48.686,27.258 45.109,25 41,25 C34.925,25 30,29.925 30,36 L30,7.754 C30,3.557 33.497,0.177 37.736,0.368"/><path id="Fill-2951" fill="#7FABDA" d="M19,36 C19,40.418 15.418,44 11,44 C6.582,44 3,40.418 3,36 C3,31.582 6.582,28 11,28 C15.418,28 19,31.582 19,36"/><path id="Fill-2952" fill="#7FABDA" d="M49,36 C49,40.418 45.418,44 41,44 C36.582,44 33,40.418 33,36 C33,31.582 36.582,28 41,28 C45.418,28 49,31.582 49,36"/><path id="Fill-2953" fill="#A2C9ED" d="M35.299,41.609 L46.609,30.3 C45.62,29.326 44.377,28.616 42.991,28.26 L33.26,37.991 C33.616,39.377 34.326,40.62 35.299,41.609"/><path id="Fill-2954" fill="#A2C9ED" d="M13.754,28.497 L3.497,38.755 C3.976,40.059 4.78,41.205 5.819,42.09 L17.089,30.819 C16.205,29.78 15.059,28.977 13.754,28.497"/><path id="Fill-2955" fill="#424A60" d="M24,13 L28.023,13 L28.023,26 L24,26 L24,13 Z"/><path id="Fill-2956" fill="#556080" d="M34,27.515 C35.902,25.944 38.341,25 41,25 C41.282,25 41.554,25.036 41.831,25.057 L37.996,0.403 C37.908,0.396 37.825,0.372 37.736,0.368 C36.385,0.307 35.111,0.612 34,1.187 L34,27.515"/><path id="Fill-2957" fill="#556080" d="M11,25 C13.659,25 16.098,25.944 18,27.515 L18,1.187 C16.889,0.612 15.615,0.307 14.264,0.368 C14.175,0.372 14.092,0.396 14.004,0.403 L10.169,25.057 C10.446,25.036 10.718,25 11,25"/></g></g></svg>