<svg xmlns="http://www.w3.org/2000/svg" xmlns:xlink="http://www.w3.org/1999/xlink" width="58" height="46" version="1.1" viewBox="0 0 58 46"><title>354 - Select Windows (Flat)</title><desc>Created with Sketch.</desc><g id="Page-1" fill="none" fill-rule="evenodd" stroke="none" stroke-width="1"><g id="Icons" transform="translate(-841.000000, -604.000000)"><g id="354---Select-Windows-(Flat)" transform="translate(841.000000, 604.000000)"><path id="Fill-341" fill="#71C3AA" d="M14,0 L58,0 L58,32 L14,32 L14,0 Z"/><path id="Fill-342" fill="#13A085" d="M7,39 L7,14 L0,14 L0,46 L44,46 L44,39 L7,39"/><path id="Fill-343" fill="#25B99A" d="M14,32 L14,7 L7,7 L7,39 L51,39 L51,32 L14,32"/><path id="Fill-376" fill="#39EBAF" d="M33,36 C32.448,36 32,36.448 32,37 C32,37.552 32.448,38 33,38 C33.552,38 34,37.552 34,37 C34,36.448 33.552,36 33,36"/><path id="Fill-377" fill="#39EBAF" d="M36,33 C35.448,33 35,33.448 35,34 C35,34.552 35.448,35 36,35 C36.552,35 37,34.552 37,34 C37,33.448 36.552,33 36,33"/><path id="Fill-378" fill="#39EBAF" d="M39,36 C38.448,36 38,36.448 38,37 C38,37.552 38.448,38 39,38 C39.552,38 40,37.552 40,37 C40,36.448 39.552,36 39,36"/><path id="Fill-379" fill="#39EBAF" d="M45,36 C44.448,36 44,36.448 44,37 C44,37.552 44.448,38 45,38 C45.552,38 46,37.552 46,37 C46,36.448 45.552,36 45,36"/><path id="Fill-380" fill="#39EBAF" d="M42,33 C41.448,33 41,33.448 41,34 C41,34.552 41.448,35 42,35 C42.552,35 43,34.552 43,34 C43,33.448 42.552,33 42,33"/><path id="Fill-381" fill="#39EBAF" d="M48,33 C47.448,33 47,33.448 47,34 C47,34.552 47.448,35 48,35 C48.552,35 49,34.552 49,34 C49,33.448 48.552,33 48,33"/><path id="Fill-382" fill="#39EBAF" d="M27,36 C26.448,36 26,36.448 26,37 C26,37.552 26.448,38 27,38 C27.552,38 28,37.552 28,37 C28,36.448 27.552,36 27,36"/><path id="Fill-383" fill="#39EBAF" d="M30,33 C29.448,33 29,33.448 29,34 C29,34.552 29.448,35 30,35 C30.552,35 31,34.552 31,34 C31,33.448 30.552,33 30,33"/><path id="Fill-384" fill="#39EBAF" d="M9,36 C8.448,36 8,36.448 8,37 C8,37.552 8.448,38 9,38 C9.552,38 10,37.552 10,37 C10,36.448 9.552,36 9,36"/><path id="Fill-385" fill="#39EBAF" d="M9,30 C8.448,30 8,30.448 8,31 C8,31.552 8.448,32 9,32 C9.552,32 10,31.552 10,31 C10,30.448 9.552,30 9,30"/><path id="Fill-386" fill="#39EBAF" d="M12,33 C11.448,33 11,33.448 11,34 C11,34.552 11.448,35 12,35 C12.552,35 13,34.552 13,34 C13,33.448 12.552,33 12,33"/><path id="Fill-387" fill="#39EBAF" d="M12,27 C11.448,27 11,27.448 11,28 C11,28.552 11.448,29 12,29 C12.552,29 13,28.552 13,28 C13,27.448 12.552,27 12,27"/><path id="Fill-388" fill="#39EBAF" d="M15,36 C14.448,36 14,36.448 14,37 C14,37.552 14.448,38 15,38 C15.552,38 16,37.552 16,37 C16,36.448 15.552,36 15,36"/><path id="Fill-389" fill="#39EBAF" d="M21,36 C20.448,36 20,36.448 20,37 C20,37.552 20.448,38 21,38 C21.552,38 22,37.552 22,37 C22,36.448 21.552,36 21,36"/><path id="Fill-390" fill="#39EBAF" d="M18,33 C17.448,33 17,33.448 17,34 C17,34.552 17.448,35 18,35 C18.552,35 19,34.552 19,34 C19,33.448 18.552,33 18,33"/><path id="Fill-391" fill="#39EBAF" d="M24,33 C23.448,33 23,33.448 23,34 C23,34.552 23.448,35 24,35 C24.552,35 25,34.552 25,34 C25,33.448 24.552,33 24,33"/><path id="Fill-392" fill="#39EBAF" d="M9,24 C8.448,24 8,24.448 8,25 C8,25.552 8.448,26 9,26 C9.552,26 10,25.552 10,25 C10,24.448 9.552,24 9,24"/><path id="Fill-393" fill="#39EBAF" d="M9,18 C8.448,18 8,18.448 8,19 C8,19.552 8.448,20 9,20 C9.552,20 10,19.552 10,19 C10,18.448 9.552,18 9,18"/><path id="Fill-394" fill="#39EBAF" d="M12,21 C11.448,21 11,21.448 11,22 C11,22.552 11.448,23 12,23 C12.552,23 13,22.552 13,22 C13,21.448 12.552,21 12,21"/><path id="Fill-395" fill="#39EBAF" d="M12,15 C11.448,15 11,15.448 11,16 C11,16.552 11.448,17 12,17 C12.552,17 13,16.552 13,16 C13,15.448 12.552,15 12,15"/><path id="Fill-396" fill="#39EBAF" d="M9,12 C8.448,12 8,12.448 8,13 C8,13.552 8.448,14 9,14 C9.552,14 10,13.552 10,13 C10,12.448 9.552,12 9,12"/><path id="Fill-397" fill="#39EBAF" d="M12,9 C11.448,9 11,9.448 11,10 C11,10.552 11.448,11 12,11 C12.552,11 13,10.552 13,10 C13,9.448 12.552,9 12,9"/></g></g></g></svg>