<svg xmlns="http://www.w3.org/2000/svg" xmlns:xlink="http://www.w3.org/1999/xlink" width="54" height="50" version="1.1" viewBox="0 0 54 50"><title>355 - Select Tabs (Flat)</title><desc>Created with Sketch.</desc><g id="Page-1" fill="none" fill-rule="evenodd" stroke="none" stroke-width="1"><g id="Icons" transform="translate(-723.000000, -600.000000)"><g id="355---Select-Tabs-(Flat)" transform="translate(723.000000, 601.000000)"><path id="Fill-339" fill="#694F87" d="M0,12 L54,12 L54,49 L0,49 L0,12 Z"/><path id="Stroke-340" stroke="#556080" stroke-linecap="round" stroke-width="2" d="M2,8 L52,8 M5,4 L49,4 M8,0 L46,0"/><path id="Fill-2271" fill="#BF4D90" d="M45,14 C44.448,14 44,14.448 44,15 C44,15.552 44.448,16 45,16 C45.552,16 46,15.552 46,15 C46,14.448 45.552,14 45,14"/><path id="Fill-2272" fill="#BF4D90" d="M45,20 C44.448,20 44,20.448 44,21 C44,21.552 44.448,22 45,22 C45.552,22 46,21.552 46,21 C46,20.448 45.552,20 45,20"/><path id="Fill-2273" fill="#BF4D90" d="M48,17 C47.448,17 47,17.448 47,18 C47,18.552 47.448,19 48,19 C48.552,19 49,18.552 49,18 C49,17.448 48.552,17 48,17"/><path id="Fill-2274" fill="#BF4D90" d="M48,23 C47.448,23 47,23.448 47,24 C47,24.552 47.448,25 48,25 C48.552,25 49,24.552 49,24 C49,23.448 48.552,23 48,23"/><path id="Fill-2275" fill="#BF4D90" d="M51,16 C51.552,16 52,15.552 52,15 C52,14.448 51.552,14 51,14 C50.448,14 50,14.448 50,15 C50,15.552 50.448,16 51,16"/><path id="Fill-2276" fill="#BF4D90" d="M51,20 C50.448,20 50,20.448 50,21 C50,21.552 50.448,22 51,22 C51.552,22 52,21.552 52,21 C52,20.448 51.552,20 51,20"/><path id="Fill-2277" fill="#BF4D90" d="M45,26 C44.448,26 44,26.448 44,27 C44,27.552 44.448,28 45,28 C45.552,28 46,27.552 46,27 C46,26.448 45.552,26 45,26"/><path id="Fill-2278" fill="#BF4D90" d="M45,32 C44.448,32 44,32.448 44,33 C44,33.552 44.448,34 45,34 C45.552,34 46,33.552 46,33 C46,32.448 45.552,32 45,32"/><path id="Fill-2279" fill="#BF4D90" d="M48,29 C47.448,29 47,29.448 47,30 C47,30.552 47.448,31 48,31 C48.552,31 49,30.552 49,30 C49,29.448 48.552,29 48,29"/><path id="Fill-2280" fill="#BF4D90" d="M48,35 C47.448,35 47,35.448 47,36 C47,36.552 47.448,37 48,37 C48.552,37 49,36.552 49,36 C49,35.448 48.552,35 48,35"/><path id="Fill-2281" fill="#BF4D90" d="M51,26 C50.448,26 50,26.448 50,27 C50,27.552 50.448,28 51,28 C51.552,28 52,27.552 52,27 C52,26.448 51.552,26 51,26"/><path id="Fill-2282" fill="#BF4D90" d="M51,32 C50.448,32 50,32.448 50,33 C50,33.552 50.448,34 51,34 C51.552,34 52,33.552 52,33 C52,32.448 51.552,32 51,32"/><path id="Fill-2283" fill="#BF4D90" d="M45,38 C44.448,38 44,38.448 44,39 C44,39.552 44.448,40 45,40 C45.552,40 46,39.552 46,39 C46,38.448 45.552,38 45,38"/><path id="Fill-2284" fill="#BF4D90" d="M45,44 C44.448,44 44,44.448 44,45 C44,45.552 44.448,46 45,46 C45.552,46 46,45.552 46,45 C46,44.448 45.552,44 45,44"/><path id="Fill-2285" fill="#BF4D90" d="M48,41 C47.448,41 47,41.448 47,42 C47,42.552 47.448,43 48,43 C48.552,43 49,42.552 49,42 C49,41.448 48.552,41 48,41"/><path id="Fill-2286" fill="#BF4D90" d="M48,47 C47.448,47 47,47.448 47,48 C47,48.552 47.448,49 48,49 C48.552,49 49,48.552 49,48 C49,47.448 48.552,47 48,47"/><path id="Fill-2287" fill="#BF4D90" d="M51,38 C50.448,38 50,38.448 50,39 C50,39.552 50.448,40 51,40 C51.552,40 52,39.552 52,39 C52,38.448 51.552,38 51,38"/><path id="Fill-2288" fill="#BF4D90" d="M51,44 C50.448,44 50,44.448 50,45 C50,45.552 50.448,46 51,46 C51.552,46 52,45.552 52,45 C52,44.448 51.552,44 51,44"/><path id="Fill-2289" fill="#BF4D90" d="M27,14 C26.448,14 26,14.448 26,15 C26,15.552 26.448,16 27,16 C27.552,16 28,15.552 28,15 C28,14.448 27.552,14 27,14"/><path id="Fill-2290" fill="#BF4D90" d="M27,20 C26.448,20 26,20.448 26,21 C26,21.552 26.448,22 27,22 C27.552,22 28,21.552 28,21 C28,20.448 27.552,20 27,20"/><path id="Fill-2291" fill="#BF4D90" d="M30,17 C29.448,17 29,17.448 29,18 C29,18.552 29.448,19 30,19 C30.552,19 31,18.552 31,18 C31,17.448 30.552,17 30,17"/><path id="Fill-2292" fill="#BF4D90" d="M30,23 C29.448,23 29,23.448 29,24 C29,24.552 29.448,25 30,25 C30.552,25 31,24.552 31,24 C31,23.448 30.552,23 30,23"/><path id="Fill-2293" fill="#BF4D90" d="M33,14 C32.448,14 32,14.448 32,15 C32,15.552 32.448,16 33,16 C33.552,16 34,15.552 34,15 C34,14.448 33.552,14 33,14"/><path id="Fill-2294" fill="#BF4D90" d="M39,14 C38.448,14 38,14.448 38,15 C38,15.552 38.448,16 39,16 C39.552,16 40,15.552 40,15 C40,14.448 39.552,14 39,14"/><path id="Fill-2295" fill="#BF4D90" d="M33,20 C32.448,20 32,20.448 32,21 C32,21.552 32.448,22 33,22 C33.552,22 34,21.552 34,21 C34,20.448 33.552,20 33,20"/><path id="Fill-2296" fill="#BF4D90" d="M39,20 C38.448,20 38,20.448 38,21 C38,21.552 38.448,22 39,22 C39.552,22 40,21.552 40,21 C40,20.448 39.552,20 39,20"/><path id="Fill-2297" fill="#BF4D90" d="M36,17 C35.448,17 35,17.448 35,18 C35,18.552 35.448,19 36,19 C36.552,19 37,18.552 37,18 C37,17.448 36.552,17 36,17"/><path id="Fill-2298" fill="#BF4D90" d="M42,17 C41.448,17 41,17.448 41,18 C41,18.552 41.448,19 42,19 C42.552,19 43,18.552 43,18 C43,17.448 42.552,17 42,17"/><path id="Fill-2299" fill="#BF4D90" d="M36,23 C35.448,23 35,23.448 35,24 C35,24.552 35.448,25 36,25 C36.552,25 37,24.552 37,24 C37,23.448 36.552,23 36,23"/><path id="Fill-2300" fill="#BF4D90" d="M42,23 C41.448,23 41,23.448 41,24 C41,24.552 41.448,25 42,25 C42.552,25 43,24.552 43,24 C43,23.448 42.552,23 42,23"/><path id="Fill-2301" fill="#BF4D90" d="M27,26 C26.448,26 26,26.448 26,27 C26,27.552 26.448,28 27,28 C27.552,28 28,27.552 28,27 C28,26.448 27.552,26 27,26"/><path id="Fill-2302" fill="#BF4D90" d="M27,32 C26.448,32 26,32.448 26,33 C26,33.552 26.448,34 27,34 C27.552,34 28,33.552 28,33 C28,32.448 27.552,32 27,32"/><path id="Fill-2303" fill="#BF4D90" d="M30,29 C29.448,29 29,29.448 29,30 C29,30.552 29.448,31 30,31 C30.552,31 31,30.552 31,30 C31,29.448 30.552,29 30,29"/><path id="Fill-2304" fill="#BF4D90" d="M30,35 C29.448,35 29,35.448 29,36 C29,36.552 29.448,37 30,37 C30.552,37 31,36.552 31,36 C31,35.448 30.552,35 30,35"/><path id="Fill-2305" fill="#BF4D90" d="M33,26 C32.448,26 32,26.448 32,27 C32,27.552 32.448,28 33,28 C33.552,28 34,27.552 34,27 C34,26.448 33.552,26 33,26"/><path id="Fill-2306" fill="#BF4D90" d="M39,26 C38.448,26 38,26.448 38,27 C38,27.552 38.448,28 39,28 C39.552,28 40,27.552 40,27 C40,26.448 39.552,26 39,26"/><path id="Fill-2307" fill="#BF4D90" d="M33,32 C32.448,32 32,32.448 32,33 C32,33.552 32.448,34 33,34 C33.552,34 34,33.552 34,33 C34,32.448 33.552,32 33,32"/><path id="Fill-2308" fill="#BF4D90" d="M39,32 C38.448,32 38,32.448 38,33 C38,33.552 38.448,34 39,34 C39.552,34 40,33.552 40,33 C40,32.448 39.552,32 39,32"/><path id="Fill-2309" fill="#BF4D90" d="M36,29 C35.448,29 35,29.448 35,30 C35,30.552 35.448,31 36,31 C36.552,31 37,30.552 37,30 C37,29.448 36.552,29 36,29"/><path id="Fill-2310" fill="#BF4D90" d="M42,29 C41.448,29 41,29.448 41,30 C41,30.552 41.448,31 42,31 C42.552,31 43,30.552 43,30 C43,29.448 42.552,29 42,29"/><path id="Fill-2311" fill="#BF4D90" d="M36,35 C35.448,35 35,35.448 35,36 C35,36.552 35.448,37 36,37 C36.552,37 37,36.552 37,36 C37,35.448 36.552,35 36,35"/><path id="Fill-2312" fill="#BF4D90" d="M42,35 C41.448,35 41,35.448 41,36 C41,36.552 41.448,37 42,37 C42.552,37 43,36.552 43,36 C43,35.448 42.552,35 42,35"/><path id="Fill-2313" fill="#BF4D90" d="M27,38 C26.448,38 26,38.448 26,39 C26,39.552 26.448,40 27,40 C27.552,40 28,39.552 28,39 C28,38.448 27.552,38 27,38"/><path id="Fill-2314" fill="#BF4D90" d="M27,44 C26.448,44 26,44.448 26,45 C26,45.552 26.448,46 27,46 C27.552,46 28,45.552 28,45 C28,44.448 27.552,44 27,44"/><path id="Fill-2315" fill="#BF4D90" d="M30,41 C29.448,41 29,41.448 29,42 C29,42.552 29.448,43 30,43 C30.552,43 31,42.552 31,42 C31,41.448 30.552,41 30,41"/><path id="Fill-2316" fill="#BF4D90" d="M30,47 C29.448,47 29,47.448 29,48 C29,48.552 29.448,49 30,49 C30.552,49 31,48.552 31,48 C31,47.448 30.552,47 30,47"/><path id="Fill-2317" fill="#BF4D90" d="M33,38 C32.448,38 32,38.448 32,39 C32,39.552 32.448,40 33,40 C33.552,40 34,39.552 34,39 C34,38.448 33.552,38 33,38"/><path id="Fill-2318" fill="#BF4D90" d="M39,38 C38.448,38 38,38.448 38,39 C38,39.552 38.448,40 39,40 C39.552,40 40,39.552 40,39 C40,38.448 39.552,38 39,38"/><path id="Fill-2319" fill="#BF4D90" d="M33,44 C32.448,44 32,44.448 32,45 C32,45.552 32.448,46 33,46 C33.552,46 34,45.552 34,45 C34,44.448 33.552,44 33,44"/><path id="Fill-2320" fill="#BF4D90" d="M39,44 C38.448,44 38,44.448 38,45 C38,45.552 38.448,46 39,46 C39.552,46 40,45.552 40,45 C40,44.448 39.552,44 39,44"/><path id="Fill-2321" fill="#BF4D90" d="M36,41 C35.448,41 35,41.448 35,42 C35,42.552 35.448,43 36,43 C36.552,43 37,42.552 37,42 C37,41.448 36.552,41 36,41"/><path id="Fill-2322" fill="#BF4D90" d="M42,41 C41.448,41 41,41.448 41,42 C41,42.552 41.448,43 42,43 C42.552,43 43,42.552 43,42 C43,41.448 42.552,41 42,41"/><path id="Fill-2323" fill="#BF4D90" d="M36,47 C35.448,47 35,47.448 35,48 C35,48.552 35.448,49 36,49 C36.552,49 37,48.552 37,48 C37,47.448 36.552,47 36,47"/><path id="Fill-2324" fill="#BF4D90" d="M42,47 C41.448,47 41,47.448 41,48 C41,48.552 41.448,49 42,49 C42.552,49 43,48.552 43,48 C43,47.448 42.552,47 42,47"/><path id="Fill-2325" fill="#BF4D90" d="M21,14 C20.448,14 20,14.448 20,15 C20,15.552 20.448,16 21,16 C21.552,16 22,15.552 22,15 C22,14.448 21.552,14 21,14"/><path id="Fill-2326" fill="#BF4D90" d="M21,20 C20.448,20 20,20.448 20,21 C20,21.552 20.448,22 21,22 C21.552,22 22,21.552 22,21 C22,20.448 21.552,20 21,20"/><path id="Fill-2327" fill="#BF4D90" d="M24,17 C23.448,17 23,17.448 23,18 C23,18.552 23.448,19 24,19 C24.552,19 25,18.552 25,18 C25,17.448 24.552,17 24,17"/><path id="Fill-2328" fill="#BF4D90" d="M24,23 C23.448,23 23,23.448 23,24 C23,24.552 23.448,25 24,25 C24.552,25 25,24.552 25,24 C25,23.448 24.552,23 24,23"/><path id="Fill-2329" fill="#BF4D90" d="M21,26 C20.448,26 20,26.448 20,27 C20,27.552 20.448,28 21,28 C21.552,28 22,27.552 22,27 C22,26.448 21.552,26 21,26"/><path id="Fill-2330" fill="#BF4D90" d="M21,32 C20.448,32 20,32.448 20,33 C20,33.552 20.448,34 21,34 C21.552,34 22,33.552 22,33 C22,32.448 21.552,32 21,32"/><path id="Fill-2331" fill="#BF4D90" d="M24,29 C23.448,29 23,29.448 23,30 C23,30.552 23.448,31 24,31 C24.552,31 25,30.552 25,30 C25,29.448 24.552,29 24,29"/><path id="Fill-2332" fill="#BF4D90" d="M24,35 C23.448,35 23,35.448 23,36 C23,36.552 23.448,37 24,37 C24.552,37 25,36.552 25,36 C25,35.448 24.552,35 24,35"/><path id="Fill-2333" fill="#BF4D90" d="M21,38 C20.448,38 20,38.448 20,39 C20,39.552 20.448,40 21,40 C21.552,40 22,39.552 22,39 C22,38.448 21.552,38 21,38"/><path id="Fill-2334" fill="#BF4D90" d="M21,44 C20.448,44 20,44.448 20,45 C20,45.552 20.448,46 21,46 C21.552,46 22,45.552 22,45 C22,44.448 21.552,44 21,44"/><path id="Fill-2335" fill="#BF4D90" d="M24,41 C23.448,41 23,41.448 23,42 C23,42.552 23.448,43 24,43 C24.552,43 25,42.552 25,42 C25,41.448 24.552,41 24,41"/><path id="Fill-2336" fill="#BF4D90" d="M24,47 C23.448,47 23,47.448 23,48 C23,48.552 23.448,49 24,49 C24.552,49 25,48.552 25,48 C25,47.448 24.552,47 24,47"/><path id="Fill-2337" fill="#BF4D90" d="M3,14 C2.448,14 2,14.448 2,15 C2,15.552 2.448,16 3,16 C3.552,16 4,15.552 4,15 C4,14.448 3.552,14 3,14"/><path id="Fill-2338" fill="#BF4D90" d="M3,20 C2.448,20 2,20.448 2,21 C2,21.552 2.448,22 3,22 C3.552,22 4,21.552 4,21 C4,20.448 3.552,20 3,20"/><path id="Fill-2339" fill="#BF4D90" d="M6,17 C5.448,17 5,17.448 5,18 C5,18.552 5.448,19 6,19 C6.552,19 7,18.552 7,18 C7,17.448 6.552,17 6,17"/><path id="Fill-2340" fill="#BF4D90" d="M6,23 C5.448,23 5,23.448 5,24 C5,24.552 5.448,25 6,25 C6.552,25 7,24.552 7,24 C7,23.448 6.552,23 6,23"/><path id="Fill-2341" fill="#BF4D90" d="M9,14 C8.448,14 8,14.448 8,15 C8,15.552 8.448,16 9,16 C9.552,16 10,15.552 10,15 C10,14.448 9.552,14 9,14"/><path id="Fill-2342" fill="#BF4D90" d="M15,14 C14.448,14 14,14.448 14,15 C14,15.552 14.448,16 15,16 C15.552,16 16,15.552 16,15 C16,14.448 15.552,14 15,14"/><path id="Fill-2343" fill="#BF4D90" d="M9,20 C8.448,20 8,20.448 8,21 C8,21.552 8.448,22 9,22 C9.552,22 10,21.552 10,21 C10,20.448 9.552,20 9,20"/><path id="Fill-2344" fill="#BF4D90" d="M15,20 C14.448,20 14,20.448 14,21 C14,21.552 14.448,22 15,22 C15.552,22 16,21.552 16,21 C16,20.448 15.552,20 15,20"/><path id="Fill-2345" fill="#BF4D90" d="M12,17 C11.448,17 11,17.448 11,18 C11,18.552 11.448,19 12,19 C12.552,19 13,18.552 13,18 C13,17.448 12.552,17 12,17"/><path id="Fill-2346" fill="#BF4D90" d="M18,17 C17.448,17 17,17.448 17,18 C17,18.552 17.448,19 18,19 C18.552,19 19,18.552 19,18 C19,17.448 18.552,17 18,17"/><path id="Fill-2347" fill="#BF4D90" d="M12,23 C11.448,23 11,23.448 11,24 C11,24.552 11.448,25 12,25 C12.552,25 13,24.552 13,24 C13,23.448 12.552,23 12,23"/><path id="Fill-2348" fill="#BF4D90" d="M18,23 C17.448,23 17,23.448 17,24 C17,24.552 17.448,25 18,25 C18.552,25 19,24.552 19,24 C19,23.448 18.552,23 18,23"/><path id="Fill-2349" fill="#BF4D90" d="M3,26 C2.448,26 2,26.448 2,27 C2,27.552 2.448,28 3,28 C3.552,28 4,27.552 4,27 C4,26.448 3.552,26 3,26"/><path id="Fill-2350" fill="#BF4D90" d="M3,32 C2.448,32 2,32.448 2,33 C2,33.552 2.448,34 3,34 C3.552,34 4,33.552 4,33 C4,32.448 3.552,32 3,32"/><path id="Fill-2351" fill="#BF4D90" d="M6,29 C5.448,29 5,29.448 5,30 C5,30.552 5.448,31 6,31 C6.552,31 7,30.552 7,30 C7,29.448 6.552,29 6,29"/><path id="Fill-2352" fill="#BF4D90" d="M6,35 C5.448,35 5,35.448 5,36 C5,36.552 5.448,37 6,37 C6.552,37 7,36.552 7,36 C7,35.448 6.552,35 6,35"/><path id="Fill-2353" fill="#BF4D90" d="M9,26 C8.448,26 8,26.448 8,27 C8,27.552 8.448,28 9,28 C9.552,28 10,27.552 10,27 C10,26.448 9.552,26 9,26"/><path id="Fill-2354" fill="#BF4D90" d="M15,26 C14.448,26 14,26.448 14,27 C14,27.552 14.448,28 15,28 C15.552,28 16,27.552 16,27 C16,26.448 15.552,26 15,26"/><path id="Fill-2355" fill="#BF4D90" d="M9,32 C8.448,32 8,32.448 8,33 C8,33.552 8.448,34 9,34 C9.552,34 10,33.552 10,33 C10,32.448 9.552,32 9,32"/><path id="Fill-2356" fill="#BF4D90" d="M15,32 C14.448,32 14,32.448 14,33 C14,33.552 14.448,34 15,34 C15.552,34 16,33.552 16,33 C16,32.448 15.552,32 15,32"/><path id="Fill-2357" fill="#BF4D90" d="M12,29 C11.448,29 11,29.448 11,30 C11,30.552 11.448,31 12,31 C12.552,31 13,30.552 13,30 C13,29.448 12.552,29 12,29"/><path id="Fill-2358" fill="#BF4D90" d="M18,29 C17.448,29 17,29.448 17,30 C17,30.552 17.448,31 18,31 C18.552,31 19,30.552 19,30 C19,29.448 18.552,29 18,29"/><path id="Fill-2359" fill="#BF4D90" d="M12,35 C11.448,35 11,35.448 11,36 C11,36.552 11.448,37 12,37 C12.552,37 13,36.552 13,36 C13,35.448 12.552,35 12,35"/><path id="Fill-2360" fill="#BF4D90" d="M18,35 C17.448,35 17,35.448 17,36 C17,36.552 17.448,37 18,37 C18.552,37 19,36.552 19,36 C19,35.448 18.552,35 18,35"/><path id="Fill-2361" fill="#BF4D90" d="M3,38 C2.448,38 2,38.448 2,39 C2,39.552 2.448,40 3,40 C3.552,40 4,39.552 4,39 C4,38.448 3.552,38 3,38"/><path id="Fill-2362" fill="#BF4D90" d="M3,44 C2.448,44 2,44.448 2,45 C2,45.552 2.448,46 3,46 C3.552,46 4,45.552 4,45 C4,44.448 3.552,44 3,44"/><path id="Fill-2363" fill="#BF4D90" d="M6,41 C5.448,41 5,41.448 5,42 C5,42.552 5.448,43 6,43 C6.552,43 7,42.552 7,42 C7,41.448 6.552,41 6,41"/><path id="Fill-2364" fill="#BF4D90" d="M6,47 C5.448,47 5,47.448 5,48 C5,48.552 5.448,49 6,49 C6.552,49 7,48.552 7,48 C7,47.448 6.552,47 6,47"/><path id="Fill-2365" fill="#BF4D90" d="M9,38 C8.448,38 8,38.448 8,39 C8,39.552 8.448,40 9,40 C9.552,40 10,39.552 10,39 C10,38.448 9.552,38 9,38"/><path id="Fill-2366" fill="#BF4D90" d="M15,38 C14.448,38 14,38.448 14,39 C14,39.552 14.448,40 15,40 C15.552,40 16,39.552 16,39 C16,38.448 15.552,38 15,38"/><path id="Fill-2367" fill="#BF4D90" d="M9,44 C8.448,44 8,44.448 8,45 C8,45.552 8.448,46 9,46 C9.552,46 10,45.552 10,45 C10,44.448 9.552,44 9,44"/><path id="Fill-2368" fill="#BF4D90" d="M15,44 C14.448,44 14,44.448 14,45 C14,45.552 14.448,46 15,46 C15.552,46 16,45.552 16,45 C16,44.448 15.552,44 15,44"/><path id="Fill-2369" fill="#BF4D90" d="M12,41 C11.448,41 11,41.448 11,42 C11,42.552 11.448,43 12,43 C12.552,43 13,42.552 13,42 C13,41.448 12.552,41 12,41"/><path id="Fill-2370" fill="#BF4D90" d="M18,41 C17.448,41 17,41.448 17,42 C17,42.552 17.448,43 18,43 C18.552,43 19,42.552 19,42 C19,41.448 18.552,41 18,41"/><path id="Fill-2371" fill="#BF4D90" d="M12,47 C11.448,47 11,47.448 11,48 C11,48.552 11.448,49 12,49 C12.552,49 13,48.552 13,48 C13,47.448 12.552,47 12,47"/><path id="Fill-2372" fill="#BF4D90" d="M18,47 C17.448,47 17,47.448 17,48 C17,48.552 17.448,49 18,49 C18.552,49 19,48.552 19,48 C19,47.448 18.552,47 18,47"/></g></g></g></svg>