<svg xmlns="http://www.w3.org/2000/svg" xmlns:xlink="http://www.w3.org/1999/xlink" width="54" height="55" version="1.1" viewBox="0 0 54 55"><title>192 - Send (Flat)</title><desc>Created with Sketch.</desc><g id="Page-1" fill="none" fill-rule="evenodd" stroke="none" stroke-width="1"><g id="192---Send-(Flat)"><path id="Fill-840" fill="#E8EDEE" d="M42,24.131 L42,16.891 C42,16.891 31.344,14.313 24.065,26.543 C24.065,26.543 22.25,17.208 30.38,10.444 C30.38,10.444 31.133,9.746 32.678,9 L0,9 L0,55 L46,55 L46,20.108 L42,24.131"/><path id="Fill-2612" fill="#88C057" d="M42,7.239 L42,0 L54,12.065 L42,24.131 L42,16.891 C42,16.891 31.344,14.313 24.065,26.543 C24.065,26.543 22.25,17.208 30.38,10.444 C30.38,10.444 34.062,7 42,7.239"/></g></g></svg>