<?xml version="1.0" encoding="UTF-8" standalone="no"?>
<svg width="54px" height="55px" viewBox="0 0 54 55" version="1.1" xmlns="http://www.w3.org/2000/svg" xmlns:xlink="http://www.w3.org/1999/xlink" xmlns:sketch="http://www.bohemiancoding.com/sketch/ns">
    <!-- Generator: Sketch 3.2.2 (9983) - http://www.bohemiancoding.com/sketch -->
    <title>192 - Send (Flat)</title>
    <desc>Created with Sketch.</desc>
    <defs></defs>
    <g id="Page-1" stroke="none" stroke-width="1" fill="none" fill-rule="evenodd" sketch:type="MSPage">
        <g id="192---Send-(Flat)" sketch:type="MSLayerGroup">
            <path d="M42,24.131 L42,16.891 C42,16.891 31.344,14.313 24.065,26.543 C24.065,26.543 22.25,17.208 30.38,10.444 C30.38,10.444 31.133,9.746 32.678,9 L0,9 L0,55 L46,55 L46,20.108 L42,24.131" id="Fill-840" fill="#E8EDEE" sketch:type="MSShapeGroup"></path>
            <path d="M42,7.239 L42,0 L54,12.065 L42,24.131 L42,16.891 C42,16.891 31.344,14.313 24.065,26.543 C24.065,26.543 22.25,17.208 30.38,10.444 C30.38,10.444 34.062,7 42,7.239" id="Fill-2612" fill="#88C057" sketch:type="MSShapeGroup"></path>
        </g>
    </g>
</svg>