<svg xmlns="http://www.w3.org/2000/svg" xmlns:xlink="http://www.w3.org/1999/xlink" width="58" height="58" version="1.1" viewBox="0 0 58 58"><title>100 - Settings (Flat)</title><desc>Created with Sketch.</desc><g id="Page-1" fill="none" fill-rule="evenodd" stroke="none" stroke-width="1"><g id="100---Settings-(Flat)"><path id="Fill-1135" fill="#556080" d="M58,29 C58,45.016 45.016,58 29,58 C12.984,58 0,45.016 0,29 C0,12.984 12.984,0 29,0 C45.016,0 58,12.984 58,29"/><path id="Fill-2097" fill="#25B99A" d="M25.556,5.568 C23.413,5.157 22.431,2.653 23.721,0.893 L24.063,0.427 C21.183,0.922 18.452,1.845 15.93,3.12 C17.688,3.541 19,5.113 19,7 C19,9.209 17.209,11 15,11 C12.791,11 11,9.209 11,7 C11,6.729 11.028,6.464 11.08,6.209 C12.19,5.334 8.913,7.806 6.705,10.458 C7.161,11.368 7.17,12.498 6.523,13.452 L5.699,14.67 L7.657,16.628 L8.893,15.721 C10.653,14.431 13.156,15.414 13.568,17.556 L13.846,19 L16.615,19 L16.779,17.934 C17.118,15.73 19.675,14.671 21.474,15.99 L22.343,16.628 L24.301,14.67 L23.477,13.452 C22.253,11.646 23.328,9.18 25.485,8.849 L27,8.615 L27,5.846 L25.556,5.568"/><path id="Fill-2098" fill="#424A60" d="M49,44.5 C49,41.463 51.462,39 54.5,39 C55.065,39 55.609,39.086 56.122,39.244 C56.743,37.602 57.224,35.892 57.54,34.122 C56.912,33.577 56.453,32.818 56.311,31.894 L56.019,30 L52.558,30 L52.109,32.331 C51.606,34.951 48.587,36.201 46.378,34.705 L44.413,33.374 L41.966,35.822 L43.099,37.367 C44.712,39.566 43.483,42.696 40.805,43.211 L39,43.558 L39,47.02 L40.894,47.311 C43.59,47.725 44.934,50.807 43.404,53.065 L42.373,54.587 L42.468,54.682 C45.54,53.067 48.279,50.911 50.576,48.351 C49.602,47.359 49,46.001 49,44.5"/><path id="Fill-2099" fill="#E8EDEE" d="M52.899,23.485 C52.888,23.474 52.873,23.471 52.862,23.461 C54.254,21.838 55.257,19.87 55.715,17.7 C52.781,10.771 47.229,5.219 40.3,2.285 C38.13,2.743 36.162,3.746 34.54,5.138 C34.529,5.127 34.526,5.112 34.515,5.101 L33.101,3.687 C32.71,3.296 32.077,3.296 31.687,3.687 C31.296,4.077 31.296,4.71 31.687,5.101 L33.101,6.515 C33.113,6.527 33.129,6.531 33.142,6.542 C31.389,8.581 30.258,11.165 30.044,14.009 C30.028,14.008 30.015,14 30,14 L28,14 C27.448,14 27,14.448 27,15 C27,15.553 27.448,16 28,16 L30,16 C30.018,16 30.032,15.991 30.05,15.99 C30.265,18.834 31.389,21.42 33.141,23.459 C33.128,23.47 33.112,23.474 33.101,23.485 L31.687,24.9 C31.296,25.29 31.296,25.923 31.687,26.314 C31.882,26.509 32.138,26.607 32.394,26.607 C32.649,26.607 32.905,26.509 33.101,26.314 L34.515,24.9 C34.526,24.888 34.53,24.872 34.541,24.86 C36.581,26.611 39.166,27.735 42.01,27.95 C42.009,27.968 42,27.982 42,28 L42,30 C42,30.553 42.448,31 43,31 C43.552,31 44,30.553 44,30 L44,28 C44,27.984 43.992,27.972 43.991,27.956 C46.836,27.742 49.419,26.611 51.458,24.859 C51.469,24.871 51.473,24.887 51.485,24.9 L52.899,26.314 C53.095,26.509 53.351,26.607 53.606,26.607 C53.862,26.607 54.118,26.509 54.313,26.314 C54.704,25.923 54.704,25.29 54.313,24.9 L52.899,23.485 L52.899,23.485 Z M43,18 C41.343,18 40,16.657 40,15 C40,13.343 41.343,12 43,12 C44.657,12 46,13.343 46,15 C46,16.657 44.657,18 43,18 L43,18 Z"/><path id="Fill-2100" fill="#E8EDEE" d="M21,40 C21,41.657 19.657,43 18,43 C16.343,43 15,41.657 15,40 C15,38.343 16.343,37 18,37 C19.657,37 21,38.343 21,40"/><path id="Fill-3064" fill="#ECBA16" d="M36.406,47.086 L33.934,45.988 C33.927,45.984 33.92,45.986 33.913,45.983 C34.615,44.123 35,42.107 35,40 C35,38.177 34.706,36.424 34.175,34.779 C34.181,34.776 34.188,34.777 34.195,34.775 L36.362,33.932 C36.877,33.732 37.132,33.152 36.932,32.638 C36.732,32.123 36.155,31.865 35.638,32.068 L33.47,32.911 C33.46,32.915 33.454,32.923 33.445,32.928 C31.86,29.474 29.162,26.646 25.799,24.905 C25.803,24.896 25.811,24.889 25.815,24.879 L26.914,22.406 C27.138,21.901 26.911,21.311 26.406,21.086 C25.901,20.864 25.312,21.09 25.086,21.594 L23.987,24.066 C23.982,24.078 23.984,24.091 23.979,24.103 C22.117,23.401 20.107,23 18,23 C16.175,23 14.426,23.303 12.78,23.836 C12.777,23.826 12.779,23.816 12.775,23.806 L11.932,21.638 C11.732,21.123 11.151,20.866 10.638,21.069 C10.123,21.268 9.868,21.848 10.068,22.363 L10.911,24.531 C10.914,24.539 10.921,24.546 10.925,24.554 C7.456,26.15 4.628,28.88 2.894,32.271 C2.879,32.264 2.869,32.25 2.854,32.243 L0.725,31.307 C0.518,31.216 0.301,31.217 0.096,31.266 C0.15,31.955 0.22,32.639 0.321,33.314 L2.048,34.073 C2.063,34.08 2.078,34.077 2.092,34.083 C1.704,35.129 1.404,36.22 1.227,37.352 L1.227,37.354 C1.57,38.496 1.983,39.607 2.458,40.685 C2.48,40.734 2.503,40.782 2.524,40.831 C2.742,41.317 2.972,41.795 3.215,42.267 C3.241,42.317 3.266,42.368 3.292,42.418 C4.097,43.956 5.036,45.412 6.093,46.773 C6.133,46.825 6.175,46.878 6.216,46.93 C6.545,47.348 6.884,47.756 7.235,48.154 C7.259,48.182 7.282,48.21 7.306,48.237 C8.076,49.104 8.896,49.924 9.763,50.694 C9.791,50.718 9.818,50.741 9.846,50.765 C10.244,51.116 10.653,51.455 11.07,51.784 C11.122,51.825 11.175,51.867 11.227,51.908 C12.588,52.964 14.044,53.903 15.582,54.708 C15.633,54.734 15.683,54.759 15.734,54.785 C16.205,55.028 16.683,55.258 17.169,55.476 C17.218,55.498 17.266,55.52 17.315,55.542 C18.393,56.017 19.505,56.43 20.646,56.773 L20.648,56.773 C21.51,56.638 22.344,56.426 23.158,56.167 C23.163,56.184 23.16,56.202 23.167,56.219 L23.66,57.501 C24.408,57.64 25.165,57.757 25.932,57.837 L25.033,55.5 C25.028,55.488 25.018,55.48 25.012,55.469 C28.494,53.892 31.339,51.172 33.092,47.795 C33.103,47.8 33.11,47.811 33.121,47.816 L35.594,48.914 C35.726,48.973 35.864,49 35.999,49 C36.383,49 36.748,48.778 36.914,48.406 C37.138,47.901 36.911,47.311 36.406,47.086 L36.406,47.086 Z M18,47 C14.134,47 11,43.866 11,40 C11,36.134 14.134,33 18,33 C21.866,33 25,36.134 25,40 C25,43.866 21.866,47 18,47 L18,47 Z"/></g></g></svg>