<svg xmlns="http://www.w3.org/2000/svg" xmlns:xlink="http://www.w3.org/1999/xlink" width="60" height="60" version="1.1" viewBox="0 0 60 60"><title>92 - Settings (Flat)</title><desc>Created with Sketch.</desc><g id="Page-1" fill="none" fill-rule="evenodd" stroke="none" stroke-width="1"><g id="Icons" fill="#556080" transform="translate(-1080.000000, -3717.000000)"><g id="92---Settings-(Flat)" transform="translate(1080.000000, 3717.000000)"><path id="Fill-1182" d="M59,31 C59.553,31 60,30.553 60,30 C60,29.447 59.553,29 59,29 L55.96,29 C55.897,27.373 55.693,25.782 55.342,24.245 L58.27,23.46 C58.804,23.318 59.12,22.769 58.978,22.235 C58.836,21.702 58.287,21.388 57.753,21.529 L54.823,22.314 C54.789,22.204 54.765,22.092 54.729,21.983 C54.728,21.977 54.729,21.972 54.728,21.966 C54.725,21.96 54.72,21.955 54.718,21.949 C54.257,20.536 53.668,19.182 52.982,17.886 L55.614,16.366 C56.093,16.09 56.257,15.479 55.98,15 C55.703,14.521 55.09,14.357 54.614,14.634 L51.98,16.155 C51.123,14.798 50.139,13.533 49.053,12.361 L51.213,10.201 C51.604,9.811 51.604,9.178 51.213,8.787 C50.822,8.396 50.189,8.396 49.799,8.787 L47.64,10.947 C46.468,9.86 45.206,8.87 43.85,8.012 L45.366,5.386 C45.643,4.907 45.479,4.296 45,4.02 C44.522,3.743 43.91,3.905 43.634,4.386 L42.119,7.009 C40.714,6.265 39.229,5.657 37.686,5.178 L38.472,2.247 C38.614,1.714 38.298,1.165 37.765,1.023 C37.233,0.882 36.683,1.197 36.54,1.73 L35.755,4.658 C34.217,4.309 32.628,4.103 31,4.041 L31,1 C31,0.448 30.553,0 30,0 C29.447,0 29,0.448 29,1 L29,4.041 C27.372,4.103 25.783,4.309 24.245,4.658 L23.46,1.73 C23.317,1.195 22.77,0.881 22.235,1.023 C21.702,1.165 21.386,1.714 21.528,2.247 L22.313,5.178 C20.771,5.657 19.286,6.265 17.881,7.009 L16.366,4.386 C16.089,3.905 15.476,3.743 15,4.02 C14.521,4.296 14.357,4.907 14.634,5.386 L16.15,8.012 C14.794,8.87 13.532,9.86 12.36,10.946 L10.201,8.787 C9.81,8.396 9.178,8.396 8.787,8.787 C8.396,9.178 8.396,9.811 8.787,10.201 L10.947,12.361 C9.861,13.533 8.877,14.798 8.02,16.155 L5.386,14.634 C4.908,14.357 4.296,14.521 4.02,15 C3.743,15.479 3.907,16.09 4.386,16.366 L7.018,17.886 C6.332,19.182 5.743,20.536 5.282,21.949 C5.28,21.955 5.275,21.96 5.272,21.966 C5.271,21.972 5.272,21.977 5.271,21.983 C5.235,22.092 5.211,22.204 5.177,22.314 L2.247,21.529 C1.716,21.389 1.165,21.702 1.022,22.235 C0.88,22.769 1.196,23.318 1.729,23.46 L4.658,24.245 C4.307,25.782 4.103,27.373 4.04,29 L1,29 C0.447,29 0,29.447 0,30 C0,30.553 0.447,31 1,31 L4.03,31 C4.093,32.629 4.303,34.218 4.653,35.757 L1.729,36.54 C1.196,36.683 0.88,37.232 1.022,37.765 C1.142,38.212 1.546,38.506 1.987,38.506 C2.073,38.506 2.16,38.495 2.247,38.472 L5.163,37.691 C5.642,39.234 6.265,40.713 7.009,42.119 L4.386,43.634 C3.907,43.91 3.743,44.522 4.02,45 C4.205,45.321 4.541,45.5 4.887,45.5 C5.057,45.5 5.228,45.457 5.386,45.366 L8.018,43.847 C8.876,45.203 9.854,46.474 10.94,47.646 L8.787,49.799 C8.396,50.19 8.396,50.822 8.787,51.213 C8.982,51.408 9.238,51.506 9.494,51.506 C9.75,51.506 10.006,51.408 10.201,51.213 L12.348,49.066 C13.084,49.748 13.859,50.388 14.67,50.982 C14.688,50.998 14.698,51.02 14.718,51.034 C14.746,51.055 14.777,51.063 14.807,51.079 C15.244,51.396 15.698,51.69 16.156,51.979 L14.634,54.614 C14.357,55.093 14.521,55.704 15,55.98 C15.157,56.071 15.329,56.114 15.499,56.114 C15.845,56.114 16.181,55.936 16.366,55.614 L17.886,52.983 C19.291,53.727 20.771,54.344 22.313,54.823 L21.528,57.753 C21.386,58.286 21.702,58.835 22.235,58.978 C22.322,59.001 22.409,59.012 22.495,59.012 C22.937,59.012 23.341,58.718 23.46,58.271 L24.245,55.343 C25.782,55.693 27.372,55.898 29,55.96 L29,59 C29,59.553 29.447,60 30,60 C30.553,60 31,59.553 31,59 L31,55.96 C32.628,55.898 34.218,55.693 35.756,55.343 L36.54,58.271 C36.659,58.718 37.063,59.012 37.505,59.012 C37.591,59.012 37.678,59.001 37.765,58.978 C38.298,58.835 38.614,58.286 38.472,57.753 L37.687,54.823 C39.229,54.344 40.709,53.727 42.115,52.983 L43.634,55.614 C43.819,55.936 44.155,56.114 44.501,56.114 C44.671,56.114 44.843,56.071 45,55.98 C45.479,55.704 45.643,55.093 45.366,54.614 L43.845,51.979 C44.302,51.69 44.756,51.396 45.194,51.079 C45.223,51.062 45.255,51.054 45.282,51.034 C45.302,51.02 45.312,50.998 45.33,50.982 C46.141,50.388 46.916,49.748 47.652,49.066 L49.799,51.213 C49.994,51.408 50.25,51.506 50.506,51.506 C50.762,51.506 51.018,51.408 51.213,51.213 C51.604,50.822 51.604,50.19 51.213,49.799 L49.06,47.646 C50.146,46.474 51.124,45.203 51.982,43.847 L54.614,45.366 C54.771,45.457 54.943,45.5 55.113,45.5 C55.459,45.5 55.795,45.321 55.98,45 C56.257,44.522 56.093,43.91 55.614,43.634 L52.991,42.119 C53.735,40.713 54.358,39.234 54.837,37.691 L57.753,38.472 C57.84,38.495 57.927,38.506 58.013,38.506 C58.454,38.506 58.858,38.212 58.978,37.765 C59.12,37.232 58.804,36.683 58.27,36.54 L55.347,35.757 C55.697,34.218 55.907,32.629 55.969,31 L59,31 L59,31 Z M30,54 C25.093,54 20.526,52.517 16.721,49.979 L24.378,39.438 C26.026,40.423 27.945,41 30,41 C32.055,41 33.974,40.423 35.621,39.438 L43.279,49.979 C39.474,52.517 34.907,54 30,54 L30,54 Z M30,28 C31.103,28 32,28.898 32,30 C32,31.103 31.103,32 30,32 C28.897,32 28,31.103 28,30 C28,28.898 28.897,28 30,28 L30,28 Z M31,19.051 L31,6.026 C40.861,6.432 49.204,12.814 52.495,21.64 L40.107,25.665 C38.546,22.042 35.094,19.422 31,19.051 L31,19.051 Z M29,19.051 C24.906,19.422 21.453,22.042 19.893,25.665 L7.505,21.64 C10.796,12.814 19.139,6.432 29,6.026 L29,19.051 L29,19.051 Z M6,30 C6,27.763 6.314,25.599 6.89,23.543 L19.28,27.569 C19.102,28.352 19,29.164 19,30 C19,33.293 20.462,36.244 22.761,38.262 L15.107,48.799 C9.564,44.399 6,37.61 6,30 L6,30 Z M44.893,48.799 L37.238,38.262 C39.538,36.244 41,33.293 41,30 C41,29.164 40.898,28.352 40.72,27.569 L53.11,23.543 C53.685,25.599 54,27.763 54,30 C54,37.61 50.436,44.399 44.893,48.799 L44.893,48.799 Z"/></g></g></g></svg>