<svg xmlns="http://www.w3.org/2000/svg" xmlns:xlink="http://www.w3.org/1999/xlink" width="60" height="60" version="1.1" viewBox="0 0 60 60"><title>97 - Settings (Flat)</title><desc>Created with Sketch.</desc><g id="Page-1" fill="none" fill-rule="evenodd" stroke="none" stroke-width="1"><g id="Icons" transform="translate(-480.000000, -3717.000000)"><g id="97---Settings-(Flat)" transform="translate(479.000000, 3717.000000)"><path id="Fill-1133" fill="#ED8A19" d="M60,16 L57.949,16 C57.728,12.893 56.494,10.066 54.568,7.846 L55.707,6.707 C56.098,6.316 56.098,5.684 55.707,5.293 C55.316,4.902 54.684,4.902 54.293,5.293 L53.154,6.432 C50.934,4.506 48.108,3.272 45,3.051 L45,1 C45,0.448 44.552,0 44,0 C43.448,0 43,0.448 43,1 L43,3.051 C39.892,3.272 37.066,4.506 34.846,6.432 L33.707,5.293 C33.316,4.902 32.684,4.902 32.293,5.293 C31.902,5.684 31.902,6.316 32.293,6.707 L33.432,7.846 C31.506,10.066 30.272,12.893 30.051,16 L28,16 C27.448,16 27,16.447 27,17 C27,17.553 27.448,18 28,18 L30.051,18 C30.272,21.108 31.506,23.934 33.432,26.154 L32.293,27.293 C31.902,27.684 31.902,28.317 32.293,28.707 C32.488,28.902 32.744,29 33,29 C33.256,29 33.512,28.902 33.707,28.707 L34.846,27.568 C37.066,29.494 39.892,30.728 43,30.949 L43,33 C43,33.553 43.448,34 44,34 C44.552,34 45,33.553 45,33 L45,30.949 C48.108,30.728 50.934,29.494 53.154,27.568 L54.352,28.767 C54.548,28.962 54.804,29.06 55.06,29.06 C55.315,29.06 55.571,28.962 55.767,28.767 C56.157,28.376 56.157,27.743 55.767,27.353 L54.568,26.154 C56.494,23.934 57.728,21.108 57.949,18 L60,18 C60.552,18 61,17.553 61,17 C61,16.447 60.552,16 60,16 L60,16 Z M44,29 C37.383,29 32,23.617 32,17 C32,10.383 37.383,5 44,5 C50.617,5 56,10.383 56,17 C56,23.617 50.617,29 44,29 L44,29 Z"/><path id="Fill-1134" fill="#ED8A19" d="M44,13 C41.794,13 40,14.794 40,17 C40,19.206 41.794,21 44,21 C46.206,21 48,19.206 48,17 C48,14.794 46.206,13 44,13 L44,13 Z M44,19 C42.897,19 42,18.103 42,17 C42,15.898 42.897,15 44,15 C45.103,15 46,15.898 46,17 C46,18.103 45.103,19 44,19 L44,19 Z"/><path id="Fill-2094" fill="#424A60" d="M38.406,48.086 L36.811,47.378 C37.567,45.392 38,43.248 38,41 C38,39.052 37.679,37.18 37.104,35.421 L38.362,34.932 C38.877,34.732 39.132,34.152 38.932,33.638 C38.733,33.123 38.157,32.865 37.638,33.068 L36.371,33.561 C34.687,29.871 31.801,26.85 28.206,24.999 L28.914,23.406 C29.138,22.901 28.911,22.311 28.406,22.086 C27.9,21.864 27.311,22.09 27.086,22.594 L26.377,24.189 C24.392,23.433 22.248,23 20,23 C18.052,23 16.18,23.321 14.421,23.896 L13.932,22.638 C13.732,22.123 13.151,21.866 12.638,22.069 C12.123,22.268 11.868,22.848 12.068,23.363 L12.56,24.629 C8.871,26.313 5.85,29.2 3.999,32.794 L2.406,32.086 C1.901,31.863 1.311,32.09 1.086,32.594 C0.862,33.099 1.089,33.69 1.594,33.914 L3.189,34.623 C2.433,36.609 2,38.753 2,41 C2,42.948 2.321,44.821 2.896,46.579 L1.638,47.068 C1.123,47.269 0.868,47.848 1.068,48.362 C1.222,48.758 1.6,49 2,49 C2.121,49 2.243,48.979 2.362,48.932 L3.629,48.439 C5.312,52.129 8.199,55.15 11.794,57.001 L11.086,58.594 C10.862,59.099 11.089,59.689 11.594,59.914 C11.726,59.973 11.864,60 11.999,60 C12.383,60 12.748,59.779 12.914,59.406 L13.623,57.812 C15.608,58.568 17.752,59 20,59 C21.948,59 23.82,58.679 25.579,58.104 L26.068,59.363 C26.222,59.758 26.6,60 27,60 C27.121,60 27.243,59.979 27.362,59.932 C27.877,59.733 28.132,59.153 27.932,58.638 L27.44,57.371 C31.129,55.687 34.15,52.801 36.001,49.206 L37.594,49.914 C37.726,49.973 37.864,50 37.999,50 C38.383,50 38.748,49.778 38.914,49.406 C39.138,48.901 38.911,48.311 38.406,48.086 L38.406,48.086 Z M20,25 C21.959,25 23.828,25.371 25.565,26.018 L20.654,37.066 C20.44,37.031 20.224,37 20,37 C17.794,37 16,38.794 16,41 C16,41.159 16.029,41.311 16.047,41.465 L4.758,45.855 C4.269,44.323 4,42.693 4,41 C4,32.178 11.178,25 20,25 L20,25 Z M18.143,41.732 C18.142,41.729 18.143,41.726 18.142,41.723 C18.141,41.721 18.14,41.72 18.139,41.719 C18.052,41.495 18,41.254 18,41 C18,39.898 18.897,39 20,39 C20.279,39 20.544,39.058 20.786,39.162 C20.795,39.166 20.8,39.175 20.81,39.179 C20.813,39.181 20.818,39.18 20.822,39.181 C21.515,39.496 22,40.191 22,41 C22,42.103 21.103,43 20,43 C19.156,43 18.436,42.473 18.143,41.732 L18.143,41.732 Z M5.496,47.713 L16.763,43.331 C17.49,44.338 18.666,45 20,45 C20.159,45 20.31,44.971 20.465,44.953 L24.855,56.242 C23.322,56.731 21.693,57 20,57 C13.577,57 8.041,53.187 5.496,47.713 L5.496,47.713 Z M26.714,55.504 L22.332,44.236 C23.338,43.509 24,42.334 24,41 C24,39.735 23.398,38.619 22.479,37.885 L27.394,26.825 C32.502,29.501 36,34.846 36,41 C36,47.423 32.187,52.959 26.714,55.504 L26.714,55.504 Z"/></g></g></g></svg>