<svg xmlns="http://www.w3.org/2000/svg" xmlns:xlink="http://www.w3.org/1999/xlink" width="60" height="60" version="1.1" viewBox="0 0 60 60"><title>98 - Settings (Flat)</title><desc>Created with Sketch.</desc><g id="Page-1" fill="none" fill-rule="evenodd" stroke="none" stroke-width="1"><g id="Icons" transform="translate(-360.000000, -3717.000000)"><g id="98---Settings-(Flat)" transform="translate(360.000000, 3717.000000)"><path id="Fill-1" fill="#424A60" d="M0,0 L60,0 L60,60 L0,60 L0,0 Z"/><path id="Fill-2" fill="#373E49" d="M55.01,35.726 L54.541,35.615 C54.661,36.258 54.902,36.834 55.229,37.34 C55.438,37.224 55.605,37.034 55.664,36.783 C55.775,36.311 55.483,35.837 55.01,35.726"/><path id="Fill-3" fill="#373E49" d="M44.001,53.025 C44.29,52.744 44.369,52.302 44.148,51.945 L44.092,51.853 C44.037,52.229 44,52.609 44,53 C44,53.008 44.001,53.017 44.001,53.017"/><path id="Fill-4" fill="#373E49" d="M36.464,49.191 L32.593,36.301 C34.019,35.636 35.144,34.441 35.723,32.978 L49.02,36.117 C49.026,36.088 49.036,36.061 49.042,36.031 L49.357,34.391 L36.125,31.267 C36.146,31.027 36.158,30.785 36.15,30.539 C36.109,29.16 35.609,27.904 34.808,26.9 L45.082,15.992 C48.654,19.646 50.922,24.594 51.086,30.092 C51.116,31.078 51.067,32.047 50.962,33 L52.733,33 C52.802,32.314 52.842,31.62 52.847,30.919 L55.506,30.839 C55.991,30.824 56.372,30.42 56.358,29.934 C56.343,29.448 55.938,29.067 55.453,29.082 L52.795,29.161 C52.697,27.732 52.468,26.341 52.12,24.998 L54.666,24.234 C55.131,24.094 55.395,23.604 55.255,23.139 C55.115,22.673 54.626,22.406 54.161,22.55 L51.62,23.313 C51.159,21.97 50.573,20.686 49.882,19.47 L52.146,18.071 C52.559,17.815 52.687,17.274 52.432,16.861 C52.176,16.448 51.634,16.319 51.222,16.575 L48.954,17.977 C48.165,16.807 47.272,15.714 46.287,14.713 L48.116,12.77 C48.449,12.417 48.433,11.861 48.079,11.528 C47.726,11.195 47.17,11.212 46.837,11.565 L45.007,13.507 C43.949,12.584 42.804,11.758 41.59,11.041 L42.853,8.693 C43.083,8.266 42.923,7.733 42.495,7.503 C42.067,7.271 41.534,7.432 41.304,7.86 L40.043,10.204 C38.788,9.587 37.472,9.079 36.103,8.698 L36.713,6.117 C36.824,5.645 36.532,5.171 36.059,5.06 C35.584,4.948 35.114,5.241 35.002,5.713 L34.391,8.3 C33.03,8.033 31.628,7.888 30.195,7.876 L30.115,5.218 C30.101,4.732 29.696,4.351 29.21,4.365 C28.725,4.38 28.344,4.785 28.358,5.271 L28.438,7.929 C27.008,8.026 25.618,8.255 24.274,8.603 L23.51,6.057 C23.371,5.593 22.88,5.327 22.415,5.469 C21.95,5.607 21.687,6.098 21.826,6.563 L22.589,9.103 C21.246,9.565 19.962,10.151 18.746,10.842 L17.347,8.578 C17.091,8.165 16.55,8.036 16.137,8.292 C15.724,8.547 15.597,9.089 15.852,9.502 L17.253,11.769 C16.083,12.559 14.99,13.451 13.989,14.436 L12.047,12.607 C11.693,12.274 11.137,12.291 10.804,12.644 C10.471,12.998 10.488,13.554 10.841,13.886 L12.784,15.716 C11.86,16.775 11.035,17.919 10.317,19.134 L7.969,17.871 C7.541,17.64 7.008,17.801 6.778,18.228 C6.549,18.656 6.709,19.189 7.136,19.419 L9.48,20.68 C8.863,21.935 8.355,23.252 7.975,24.62 L5.393,24.011 C4.919,23.895 4.448,24.192 4.336,24.664 C4.224,25.136 4.517,25.61 4.99,25.722 L7.576,26.332 C7.31,27.694 7.164,29.096 7.152,30.529 L4.494,30.608 C4.009,30.623 3.628,31.028 3.642,31.513 C3.657,31.999 4.062,32.38 4.547,32.365 L7.205,32.286 C7.222,32.527 7.263,32.761 7.287,33 L9.042,33 C8.983,32.457 8.93,31.911 8.914,31.355 C8.866,29.774 9.001,28.229 9.288,26.736 L23.875,30.18 C23.854,30.42 23.842,30.662 23.85,30.908 C23.891,32.287 24.391,33.543 25.191,34.547 L21.764,38.187 L23.007,39.43 L26.471,35.752 C27.521,36.491 28.805,36.915 30.184,36.874 C30.43,36.866 30.671,36.84 30.909,36.805 L34.882,50.034 C35.479,49.849 36.009,49.558 36.464,49.191 L36.464,49.191 Z M29.368,9.637 C34.866,9.473 39.941,11.44 43.803,14.786 L33.529,25.695 C32.479,24.956 31.195,24.532 29.816,24.573 C29.57,24.581 29.329,24.607 29.091,24.642 L24.78,10.287 C26.253,9.911 27.787,9.685 29.368,9.637 L29.368,9.637 Z M24.277,28.469 L9.688,25.025 C11.552,18.395 16.59,13.046 23.095,10.789 L27.407,25.146 C25.981,25.811 24.856,27.006 24.277,28.469 L24.277,28.469 Z M30.132,35.116 C27.709,35.189 25.68,33.277 25.607,30.855 C25.534,28.433 27.446,26.403 29.868,26.33 C32.29,26.258 34.32,28.17 34.393,30.592 C34.465,33.014 32.554,35.044 30.132,35.116 L30.132,35.116 Z"/><path id="Fill-118" fill="#F0CE49" d="M59,32 C59.552,32 60,31.553 60,31 C60,30.448 59.552,30 59,30 L55.975,30 C55.913,28.371 55.699,26.782 55.35,25.242 L58.27,24.46 C58.804,24.318 59.121,23.769 58.977,23.235 C58.834,22.701 58.288,22.381 57.753,22.528 L54.838,23.309 C54.359,21.766 53.737,20.287 52.992,18.881 L55.615,17.366 C56.093,17.09 56.257,16.479 55.981,16 C55.704,15.521 55.092,15.357 54.615,15.634 L51.988,17.15 C51.13,15.794 50.153,14.52 49.066,13.348 L51.213,11.201 C51.603,10.811 51.603,10.178 51.213,9.787 C50.822,9.397 50.189,9.397 49.799,9.787 L47.652,11.934 C46.48,10.847 45.207,9.87 43.85,9.012 L45.366,6.386 C45.642,5.907 45.478,5.296 45,5.02 C44.521,4.742 43.91,4.907 43.634,5.386 L42.12,8.008 C40.714,7.264 39.234,6.641 37.691,6.162 L38.472,3.247 C38.615,2.714 38.298,2.165 37.765,2.023 C37.228,1.88 36.683,2.196 36.54,2.73 L35.757,5.651 C34.218,5.301 32.629,5.088 31,5.026 L31,2 C31,1.447 30.552,1 30,1 C29.448,1 29,1.447 29,2 L29,5.026 C27.371,5.088 25.782,5.301 24.243,5.651 L23.46,2.73 C23.317,2.196 22.769,1.878 22.235,2.023 C21.702,2.165 21.385,2.714 21.528,3.247 L22.309,6.162 C20.766,6.641 19.286,7.264 17.88,8.008 L16.366,5.386 C16.089,4.907 15.477,4.742 15,5.02 C14.521,5.296 14.358,5.907 14.634,6.386 L16.15,9.012 C14.793,9.87 13.52,10.847 12.348,11.934 L10.201,9.787 C9.81,9.397 9.178,9.397 8.787,9.787 C8.397,10.178 8.397,10.811 8.787,11.201 L10.933,13.348 C9.847,14.52 8.87,15.794 8.012,17.15 L5.385,15.634 C4.906,15.357 4.295,15.521 4.019,16 C3.743,16.479 3.907,17.09 4.385,17.366 L7.008,18.881 C6.263,20.287 5.64,21.766 5.162,23.309 L2.247,22.528 C1.711,22.381 1.165,22.702 1.022,23.235 C0.879,23.769 1.196,24.318 1.729,24.46 L4.65,25.242 C4.301,26.782 4.087,28.371 4.025,30 L1,30 C0.448,30 0,30.448 0,31 C0,31.553 0.448,32 1,32 L4.025,32 C4.087,33.629 4.301,35.218 4.65,36.758 L1.729,37.54 C1.196,37.683 0.879,38.232 1.022,38.765 C1.142,39.212 1.546,39.506 1.988,39.506 C2.073,39.506 2.16,39.495 2.247,39.472 L5.162,38.691 C5.64,40.234 6.263,41.714 7.008,43.12 L4.385,44.634 C3.907,44.91 3.743,45.521 4.019,46 C4.205,46.321 4.54,46.5 4.886,46.5 C5.056,46.5 5.228,46.457 5.385,46.366 L8.012,44.85 C8.545,45.693 9.139,46.49 9.761,47.264 C11.658,47.846 13.154,49.342 13.736,51.239 C14.51,51.861 15.307,52.456 16.15,52.988 L14.634,55.614 C14.358,56.093 14.521,56.704 15,56.981 C15.157,57.072 15.33,57.114 15.499,57.114 C15.845,57.114 16.181,56.936 16.366,56.615 L17.88,53.992 C19.286,54.737 20.766,55.359 22.309,55.839 L21.528,58.753 C21.506,58.836 21.514,58.918 21.513,59 L23.532,59 L24.243,56.35 C25.782,56.699 27.371,56.913 29,56.975 L29,59 L31,59 L31,56.975 C32.629,56.913 34.218,56.699 35.757,56.35 L36.467,59 L38.487,59 C38.486,58.918 38.494,58.836 38.472,58.753 L37.691,55.839 C39.234,55.359 40.714,54.737 42.12,53.992 L43.634,56.615 C43.819,56.936 44.155,57.114 44.501,57.114 C44.67,57.114 44.843,57.072 45,56.981 C45.478,56.704 45.642,56.093 45.366,55.614 L43.85,52.988 C44.693,52.456 45.49,51.861 46.264,51.239 C46.846,49.342 48.342,47.846 50.238,47.264 C50.861,46.49 51.455,45.693 51.988,44.85 L54.615,46.366 C54.772,46.457 54.944,46.5 55.114,46.5 C55.459,46.5 55.795,46.321 55.981,46 C56.257,45.521 56.093,44.91 55.615,44.634 L52.992,43.12 C53.737,41.714 54.359,40.234 54.838,38.691 L57.753,39.472 C57.84,39.495 57.927,39.506 58.012,39.506 C58.454,39.506 58.858,39.211 58.977,38.765 C59.121,38.232 58.804,37.683 58.27,37.54 L55.35,36.758 C55.699,35.218 55.913,33.629 55.975,32 L59,32 L59,32 Z M30,7 C36.258,7 41.962,9.41 46.239,13.347 L34.184,25.402 C33.015,24.526 31.57,24 30,24 C29.72,24 29.445,24.021 29.174,24.053 L24.76,7.583 C26.448,7.206 28.2,7 30,7 L30,7 Z M35,31 C35,33.757 32.757,36 30,36 C27.243,36 25,33.757 25,31 C25,28.243 27.243,26 30,26 C32.757,26 35,28.243 35,31 L35,31 Z M22.827,8.096 L27.241,24.569 C25.597,25.277 24.277,26.597 23.569,28.242 L7.096,23.828 C9.441,16.353 15.353,10.441 22.827,8.096 L22.827,8.096 Z M6,31 C6,29.2 6.206,27.448 6.583,25.76 L23.053,30.174 C23.021,30.445 23,30.72 23,31 C23,32.57 23.526,34.016 24.402,35.184 L12.347,47.239 C8.41,42.962 6,37.258 6,31 L6,31 Z M30,55 C23.742,55 18.038,52.59 13.761,48.653 L25.816,36.599 C26.985,37.474 28.43,38 30,38 C30.28,38 30.555,37.979 30.826,37.947 L35.239,54.417 C33.552,54.795 31.8,55 30,55 L30,55 Z M37.172,53.904 L32.758,37.432 C34.403,36.723 35.723,35.403 36.431,33.759 L52.904,38.173 C50.558,45.648 44.647,51.559 37.172,53.904 L37.172,53.904 Z M53.417,36.24 L36.947,31.826 C36.979,31.555 37,31.28 37,31 C37,29.431 36.474,27.985 35.598,26.816 L47.653,14.761 C51.59,19.039 54,24.742 54,31 C54,32.8 53.794,34.552 53.417,36.24 L53.417,36.24 Z"/><path id="Fill-3058" fill="#7383BF" d="M59,59 L59,56.87 C58.553,57.677 57.967,58.395 57.279,59 L59,59"/><path id="Fill-3059" fill="#7383BF" d="M54.504,35.462 L54.125,33 L49.625,33 L49.042,36.031 C48.387,39.436 44.463,41.061 41.592,39.116 L39.037,37.386 L35.855,40.568 L37.328,42.577 C39.425,45.436 37.828,49.504 34.346,50.174 L32,50.625 L32,55.125 L34.462,55.504 C36.473,55.813 37.9,57.265 38.38,59 L46.721,59 C45.056,57.534 44,55.393 44,53 C44,48.582 47.582,45 52,45 C55.014,45 57.636,46.668 59,49.13 L59,39.549 C56.849,39.419 54.871,37.85 54.504,35.462"/><path id="Fill-3060" fill="#7383BF" d="M1,59 L2.721,59 C2.033,58.395 1.447,57.677 1,56.87 L1,59"/><path id="Fill-3061" fill="#7383BF" d="M25.654,50.174 C22.172,49.504 20.575,45.436 22.672,42.577 L24.145,40.568 L20.963,37.386 L18.408,39.116 C15.537,41.061 11.613,39.436 10.958,36.031 L10.375,33 L5.875,33 L5.496,35.462 C5.129,37.85 3.151,39.419 1,39.549 L1,49.13 C2.364,46.668 4.986,45 8,45 C12.418,45 16,48.582 16,53 C16,55.393 14.944,57.534 13.279,59 L21.62,59 C22.1,57.265 23.527,55.813 25.538,55.504 L28,55.125 L28,50.625 L25.654,50.174"/><path id="Fill-3062" fill="#FFF" d="M8,45 C4.986,45 2.364,46.668 1,49.13 L1,56.87 C1.447,57.677 2.033,58.395 2.721,59 L13.279,59 C14.944,57.534 16,55.393 16,53 C16,48.582 12.418,45 8,45 L8,45 Z M8,57 C5.791,57 4,55.209 4,53 C4,50.791 5.791,49 8,49 C10.209,49 12,50.791 12,53 C12,55.209 10.209,57 8,57 L8,57 Z"/><path id="Fill-3063" fill="#FFF" d="M59,49.13 C57.636,46.668 55.014,45 52,45 C47.582,45 44,48.582 44,53 C44,55.393 45.056,57.534 46.721,59 L57.279,59 C57.967,58.395 58.553,57.677 59,56.87 L59,49.13 L59,49.13 Z M52,57 C49.791,57 48,55.209 48,53 C48,50.791 49.791,49 52,49 C54.209,49 56,50.791 56,53 C56,55.209 54.209,57 52,57 L52,57 Z"/></g></g></g></svg>