<svg xmlns="http://www.w3.org/2000/svg" xmlns:xlink="http://www.w3.org/1999/xlink" width="56" height="56" version="1.1" viewBox="0 0 56 56"><title>93 - Settings (Flat)</title><desc>Created with Sketch.</desc><g id="Page-1" fill="none" fill-rule="evenodd" stroke="none" stroke-width="1"><g id="Icons" transform="translate(-962.000000, -3719.000000)"><g id="93---Settings-(Flat)" transform="translate(963.000000, 3720.000000)"><path id="Fill-1166" fill="#E8EDEE" d="M27,4 L27,0"/><path id="Stroke-1167" stroke="#C7CBC7" stroke-linecap="round" stroke-width="2" d="M27,4 L27,0"/><path id="Fill-1168" fill="#E8EDEE" d="M27,54 L27,50"/><path id="Stroke-1169" stroke="#C7CBC7" stroke-linecap="round" stroke-width="2" d="M27,54 L27,50"/><path id="Fill-1170" fill="#E8EDEE" d="M50,27 L54,27"/><path id="Stroke-1171" stroke="#C7CBC7" stroke-linecap="round" stroke-width="2" d="M50,27 L54,27"/><path id="Fill-1172" fill="#E8EDEE" d="M0,27 L4,27"/><path id="Stroke-1173" stroke="#C7CBC7" stroke-linecap="round" stroke-width="2" d="M0,27 L4,27"/><path id="Fill-1174" fill="#E8EDEE" d="M43.263,10.737 L46.092,7.908"/><path id="Stroke-1175" stroke="#C7CBC7" stroke-linecap="round" stroke-width="2" d="M43.263,10.737 L46.092,7.908"/><path id="Fill-1176" fill="#E8EDEE" d="M7.908,46.092 L10.736,43.264"/><path id="Stroke-1177" stroke="#C7CBC7" stroke-linecap="round" stroke-width="2" d="M7.908,46.092 L10.736,43.264"/><path id="Fill-1178" fill="#E8EDEE" d="M43.263,43.264 L46.092,46.092"/><path id="Stroke-1179" stroke="#C7CBC7" stroke-linecap="round" stroke-width="2" d="M43.263,43.264 L46.092,46.092"/><path id="Fill-1180" fill="#E8EDEE" d="M7.908,7.908 L10.736,10.737"/><path id="Stroke-1181" stroke="#C7CBC7" stroke-linecap="round" stroke-width="2" d="M7.908,7.908 L10.736,10.737"/><path id="Fill-2091" fill="#E8EDEE" d="M27,4 C14.297,4 4,14.297 4,27 C4,39.703 14.297,50 27,50 C39.703,50 50,39.703 50,27 C50,14.297 39.703,4 27,4 L27,4 Z M27,31 C24.791,31 23,29.209 23,27 C23,24.791 24.791,23 27,23 C29.209,23 31,24.791 31,27 C31,29.209 29.209,31 27,31 L27,31 Z"/><path id="Stroke-2092" stroke="#C7CBC7" stroke-linecap="round" stroke-width="2" d="M27,4 C14.297,4 4,14.297 4,27 C4,39.703 14.297,50 27,50 C39.703,50 50,39.703 50,27 C50,14.297 39.703,4 27,4 L27,4 Z M27,31 C24.791,31 23,29.209 23,27 C23,24.791 24.791,23 27,23 C29.209,23 31,24.791 31,27 C31,29.209 29.209,31 27,31 L27,31 Z"/></g></g></g></svg>