<svg xmlns="http://www.w3.org/2000/svg" xmlns:xlink="http://www.w3.org/1999/xlink" width="60" height="60" version="1.1" viewBox="0 0 60 60"><title>91 - Settings (Flat)</title><desc>Created with Sketch.</desc><g id="Page-1" fill="none" fill-rule="evenodd" stroke="none" stroke-width="1"><g id="Icons" fill="#556080" transform="translate(-1200.000000, -3717.000000)"><g id="91---Settings-(Flat)" transform="translate(1200.000000, 3717.000000)"><path id="Fill-1183" d="M30.023,56.004 C20.751,56.004 12.114,51.022 7.483,43 C0.315,30.584 4.584,14.651 17,7.484 C20.952,5.202 25.438,3.996 29.977,3.996 C39.249,3.996 47.886,8.979 52.517,17 C59.685,29.416 55.416,45.349 43,52.517 C39.048,54.798 34.562,56.004 30.023,56.004 L30.023,56.004 Z M29.977,5.996 C25.789,5.996 21.648,7.11 18,9.216 C12.448,12.421 8.478,17.597 6.818,23.788 C5.159,29.981 6.011,36.448 9.216,42 C13.49,49.404 21.464,54.004 30.023,54.004 C34.211,54.004 38.352,52.891 42,50.784 C47.552,47.579 51.522,42.403 53.182,36.212 C54.841,30.02 53.989,23.552 50.784,18 C46.51,10.596 38.536,5.996 29.977,5.996 L29.977,5.996 Z"/><path id="Fill-1184" d="M23.46,1.73 C23.318,1.195 22.771,0.881 22.235,1.023 C21.702,1.165 21.386,1.714 21.528,2.247 L22.563,6.11 C22.683,6.558 23.087,6.852 23.528,6.852 C23.614,6.852 23.701,6.841 23.788,6.818 C24.321,6.675 24.638,6.126 24.495,5.593 L23.46,1.73"/><path id="Fill-1185" d="M37.437,53.89 C37.294,53.355 36.745,53.04 36.212,53.183 C35.679,53.325 35.362,53.874 35.505,54.407 L36.54,58.271 C36.659,58.718 37.063,59.012 37.505,59.012 C37.591,59.012 37.678,59.001 37.765,58.978 C38.298,58.835 38.614,58.286 38.472,57.753 L37.437,53.89"/><path id="Fill-1186" d="M59,29 L55,29 C54.447,29 54,29.447 54,30 C54,30.553 54.447,31 55,31 L59,31 C59.553,31 60,30.553 60,30 C60,29.447 59.553,29 59,29"/><path id="Fill-1187" d="M5,31 C5.553,31 6,30.553 6,30 C6,29.447 5.553,29 5,29 L1,29 C0.447,29 0,29.447 0,30 C0,30.553 0.447,31 1,31 L5,31"/><path id="Fill-1188" d="M48.385,46.971 C47.994,46.58 47.361,46.58 46.971,46.971 C46.58,47.361 46.58,47.994 46.971,48.385 L49.799,51.213 C49.994,51.408 50.25,51.506 50.506,51.506 C50.762,51.506 51.018,51.408 51.213,51.213 C51.604,50.822 51.604,50.19 51.213,49.799 L48.385,46.971"/><path id="Fill-1189" d="M10.201,8.787 C9.811,8.396 9.178,8.396 8.787,8.787 C8.396,9.178 8.396,9.811 8.787,10.201 L11.615,13.029 C11.811,13.225 12.066,13.322 12.322,13.322 C12.578,13.322 12.834,13.225 13.029,13.029 C13.42,12.639 13.42,12.006 13.029,11.615 L10.201,8.787"/><path id="Fill-1190" d="M47.678,13.322 C47.934,13.322 48.189,13.225 48.385,13.029 L51.213,10.201 C51.604,9.811 51.604,9.178 51.213,8.787 C50.822,8.396 50.189,8.396 49.799,8.787 L46.971,11.615 C46.58,12.006 46.58,12.639 46.971,13.029 C47.166,13.225 47.422,13.322 47.678,13.322"/><path id="Fill-1191" d="M11.615,46.971 L8.787,49.799 C8.396,50.19 8.396,50.822 8.787,51.213 C8.982,51.408 9.238,51.506 9.494,51.506 C9.75,51.506 10.006,51.408 10.201,51.213 L13.029,48.385 C13.42,47.994 13.42,47.361 13.029,46.971 C12.639,46.58 12.006,46.58 11.615,46.971"/><path id="Fill-1192" d="M16.366,4.386 C16.089,3.905 15.476,3.743 15,4.02 C14.521,4.296 14.357,4.907 14.634,5.386 L16.634,8.85 C16.819,9.171 17.155,9.35 17.501,9.35 C17.671,9.35 17.843,9.307 18,9.216 C18.479,8.94 18.643,8.328 18.366,7.85 L16.366,4.386"/><path id="Fill-1193" d="M43.366,51.151 C43.09,50.67 42.477,50.507 42,50.784 C41.521,51.061 41.357,51.672 41.634,52.151 L43.634,55.614 C43.819,55.936 44.155,56.114 44.501,56.114 C44.671,56.114 44.843,56.071 45,55.98 C45.479,55.704 45.643,55.093 45.366,54.614 L43.366,51.151"/><path id="Fill-1194" d="M30,54 C29.447,54 29,54.448 29,55 L29,59 C29,59.553 29.447,60 30,60 C30.553,60 31,59.553 31,59 L31,55 C31,54.448 30.553,54 30,54"/><path id="Fill-1195" d="M30,0 C29.447,0 29,0.448 29,1 L29,5 C29,5.553 29.447,6 30,6 C30.553,6 31,5.553 31,5 L31,1 C31,0.448 30.553,0 30,0"/><path id="Fill-1196" d="M4.386,16.366 L7.85,18.366 C8.007,18.457 8.179,18.5 8.349,18.5 C8.694,18.5 9.03,18.321 9.216,18 C9.492,17.522 9.328,16.91 8.85,16.634 L5.386,14.634 C4.908,14.357 4.296,14.521 4.02,15 C3.743,15.479 3.907,16.09 4.386,16.366"/><path id="Fill-1197" d="M55.614,43.634 L52.15,41.634 C51.672,41.358 51.061,41.52 50.784,42 C50.508,42.479 50.672,43.09 51.15,43.366 L54.614,45.366 C54.771,45.457 54.943,45.5 55.113,45.5 C55.459,45.5 55.795,45.321 55.98,45 C56.257,44.522 56.093,43.91 55.614,43.634"/><path id="Fill-1198" d="M1.729,23.46 L5.593,24.495 C5.68,24.519 5.767,24.53 5.853,24.53 C6.294,24.53 6.698,24.236 6.817,23.788 C6.96,23.255 6.644,22.706 6.11,22.564 L2.247,21.529 C1.716,21.389 1.165,21.702 1.022,22.235 C0.88,22.769 1.196,23.318 1.729,23.46"/><path id="Fill-1199" d="M58.271,36.54 L54.407,35.505 C53.875,35.364 53.325,35.678 53.183,36.212 C53.04,36.745 53.356,37.294 53.89,37.437 L57.753,38.472 C57.84,38.495 57.927,38.506 58.013,38.506 C58.454,38.506 58.858,38.212 58.978,37.765 C59.12,37.232 58.804,36.683 58.271,36.54"/><path id="Fill-1200" d="M6.817,36.212 C6.675,35.678 6.126,35.363 5.593,35.505 L1.729,36.54 C1.196,36.683 0.88,37.232 1.022,37.765 C1.142,38.212 1.546,38.506 1.987,38.506 C2.073,38.506 2.16,38.495 2.247,38.472 L6.11,37.437 C6.644,37.294 6.96,36.745 6.817,36.212"/><path id="Fill-1201" d="M53.183,23.788 C53.302,24.236 53.706,24.53 54.147,24.53 C54.233,24.53 54.32,24.519 54.407,24.495 L58.271,23.46 C58.804,23.318 59.12,22.769 58.978,22.235 C58.835,21.702 58.288,21.388 57.753,21.529 L53.89,22.564 C53.356,22.706 53.04,23.255 53.183,23.788"/><path id="Fill-1202" d="M9.216,42 C8.938,41.52 8.325,41.358 7.85,41.634 L4.386,43.634 C3.907,43.91 3.743,44.522 4.02,45 C4.205,45.321 4.541,45.5 4.887,45.5 C5.057,45.5 5.229,45.457 5.386,45.366 L8.85,43.366 C9.328,43.09 9.492,42.479 9.216,42"/><path id="Fill-1203" d="M50.784,18 C50.97,18.321 51.306,18.5 51.651,18.5 C51.821,18.5 51.993,18.457 52.15,18.366 L55.614,16.366 C56.093,16.09 56.257,15.479 55.98,15 C55.703,14.521 55.09,14.357 54.614,14.634 L51.15,16.634 C50.672,16.91 50.508,17.522 50.784,18"/><path id="Fill-1204" d="M45,4.02 C44.522,3.743 43.91,3.905 43.634,4.386 L41.634,7.85 C41.357,8.328 41.521,8.94 42,9.216 C42.157,9.307 42.329,9.35 42.499,9.35 C42.845,9.35 43.181,9.171 43.366,8.85 L45.366,5.386 C45.643,4.907 45.479,4.296 45,4.02"/><path id="Fill-1205" d="M18,50.784 C17.522,50.507 16.91,50.67 16.634,51.151 L14.634,54.614 C14.357,55.093 14.521,55.704 15,55.98 C15.157,56.071 15.329,56.114 15.499,56.114 C15.845,56.114 16.181,55.936 16.366,55.614 L18.366,52.151 C18.643,51.672 18.479,51.061 18,50.784"/><path id="Fill-1206" d="M37.765,1.023 C37.234,0.882 36.683,1.197 36.54,1.73 L35.505,5.593 C35.362,6.126 35.679,6.675 36.212,6.818 C36.299,6.841 36.386,6.852 36.472,6.852 C36.913,6.852 37.317,6.558 37.437,6.11 L38.472,2.247 C38.614,1.714 38.298,1.165 37.765,1.023"/><path id="Fill-1207" d="M23.788,53.183 C23.257,53.041 22.706,53.355 22.563,53.89 L21.528,57.753 C21.386,58.286 21.702,58.835 22.235,58.978 C22.322,59.001 22.409,59.012 22.495,59.012 C22.937,59.012 23.341,58.718 23.46,58.271 L24.495,54.407 C24.638,53.874 24.321,53.325 23.788,53.183"/><path id="Fill-1208" d="M38.659,25.001 C35.898,20.219 29.783,18.58 25.001,21.342 C20.219,24.102 18.58,30.217 21.341,34.999 C24.102,39.781 30.217,41.42 34.999,38.659 C39.781,35.898 41.42,29.783 38.659,25.001 L38.659,25.001 Z M32.5,34.329 C30.109,35.71 27.051,34.891 25.671,32.5 C24.29,30.109 25.109,27.051 27.5,25.671 C29.891,24.29 32.949,25.11 34.329,27.501 C35.71,29.892 34.891,32.949 32.5,34.329 L32.5,34.329 Z"/><path id="Fill-3055" d="M55.614,43.634 L37.5,33.268 C37.022,32.991 36.411,33.154 36.134,33.634 C35.858,34.112 36.022,34.724 36.5,35 L54.614,45.366 C54.771,45.457 54.943,45.5 55.113,45.5 C55.459,45.5 55.795,45.321 55.98,45 C56.257,44.522 56.093,43.91 55.614,43.634"/><path id="Fill-3056" d="M23.866,33.634 C23.589,33.154 22.978,32.991 22.5,33.268 L4.386,43.634 L5.386,45.366 L23.5,35 C23.978,34.724 24.142,34.112 23.866,33.634"/><path id="Fill-3057" d="M29,5 L31,5 L31,22 L29,22 L29,5 Z"/></g></g></g></svg>