<svg xmlns="http://www.w3.org/2000/svg" xmlns:xlink="http://www.w3.org/1999/xlink" width="53" height="57" version="1.1" viewBox="0 0 53 57"><title>199 - Share (Flat)</title><desc>Created with Sketch.</desc><g id="Page-1" fill="none" fill-rule="evenodd" stroke="none" stroke-width="1"><g id="199---Share-(Flat)"><path id="Fill-822" fill="#7383BF" d="M18,28.456 C18,33.427 13.971,37.456 9,37.456 C4.029,37.456 0,33.427 0,28.456 C0,23.485 4.029,19.456 9,19.456 C13.971,19.456 18,23.485 18,28.456"/><path id="Fill-823" fill="#7383BF" d="M50.364,54.364 C46.849,57.879 41.151,57.879 37.636,54.364 C34.121,50.849 34.121,45.151 37.636,41.636 C41.151,38.122 46.849,38.122 50.364,41.636 C53.879,45.151 53.879,50.849 50.364,54.364"/><path id="Fill-824" fill="#7383BF" d="M44,18 C39.029,18 35,13.971 35,9 C35,4.03 39.029,0 44,0 C48.971,0 53,4.03 53,9 C53,13.971 48.971,18 44,18"/><path id="Fill-827" fill="#424A60" d="M17.017,25.36 C17.192,25.36 17.37,25.314 17.532,25.217 L36.439,13.829 C36.913,13.544 37.065,12.93 36.78,12.457 C36.495,11.983 35.88,11.83 35.407,12.116 L16.499,23.504 C16.026,23.789 15.874,24.404 16.159,24.876 C16.347,25.188 16.677,25.36 17.017,25.36"/><path id="Fill-828" fill="#424A60" d="M36.442,43.171 L17.535,31.694 C17.063,31.407 16.448,31.557 16.161,32.03 C15.874,32.502 16.024,33.117 16.497,33.404 L35.404,44.88 C35.566,44.979 35.746,45.025 35.922,45.025 C36.26,45.025 36.59,44.854 36.778,44.544 C37.065,44.073 36.915,43.457 36.442,43.171"/></g></g></svg>