<svg xmlns="http://www.w3.org/2000/svg" xmlns:xlink="http://www.w3.org/1999/xlink" width="58" height="58" version="1.1" viewBox="0 0 58 58"><title>200 - Share (Flat)</title><desc>Created with Sketch.</desc><g id="Page-1" fill="none" fill-rule="evenodd" stroke="none" stroke-width="1"><g id="200---Share-(Flat)"><path id="Fill-790" fill="#4B6DAA" d="M58,29 C58,45.017 45.016,58 29,58 C12.984,58 0,45.017 0,29 C0,12.984 12.984,0 29,0 C45.016,0 58,12.984 58,29"/><path id="Fill-825" fill="#424A60" d="M32.999,44 C32.794,44 32.587,43.938 32.409,43.807 L17.409,32.807 C16.963,32.479 16.867,31.854 17.193,31.408 C17.52,30.965 18.145,30.866 18.591,31.194 L33.591,42.193 C34.037,42.521 34.133,43.147 33.807,43.592 C33.61,43.858 33.307,44 32.999,44"/><path id="Fill-826" fill="#424A60" d="M18.001,25 C17.693,25 17.39,24.859 17.193,24.592 C16.867,24.146 16.963,23.521 17.409,23.194 L32.409,12.193 C32.855,11.866 33.479,11.965 33.807,12.408 C34.133,12.854 34.037,13.48 33.591,13.807 L18.591,24.807 C18.413,24.937 18.206,25 18.001,25"/><path id="Fill-829" fill="#A4E869" d="M20,28 C20,30.761 17.761,33 15,33 C12.239,33 10,30.761 10,28 C10,25.239 12.239,23 15,23 C17.761,23 20,25.239 20,28"/><path id="Fill-830" fill="#FFF" d="M38,18 C35.239,18 33,15.761 33,13 C33,10.239 35.239,8 38,8 C40.761,8 43,10.239 43,13 C43,15.761 40.761,18 38,18"/><path id="Fill-831" fill="#FFF" d="M38,48 C35.239,48 33,45.761 33,43 C33,40.239 35.239,38 38,38 C40.761,38 43,40.239 43,43 C43,45.761 40.761,48 38,48"/></g></g></svg>