<svg xmlns="http://www.w3.org/2000/svg" xmlns:xlink="http://www.w3.org/1999/xlink" width="52" height="52" version="1.1" viewBox="0 0 52 52"><title>223 - Shutdown (Flat)</title><desc>Created with Sketch.</desc><g id="Page-1" fill="none" fill-rule="evenodd" stroke="none" stroke-width="1"><g id="223---Shutdown-(Flat)" transform="translate(1.000000, 1.000000)"><path id="Fill-795" fill="#E8EDEE" d="M50,25 C50,38.807 38.807,50 25,50 C11.193,50 0,38.807 0,25 C0,11.193 11.193,0 25,0 C38.807,0 50,11.193 50,25 L50,25 Z"/><path id="Stroke-796" stroke="#38454F" stroke-linecap="round" stroke-width="2" d="M50,25 C50,38.807 38.807,50 25,50 C11.193,50 0,38.807 0,25 C0,11.193 11.193,0 25,0 C38.807,0 50,11.193 50,25 L50,25 Z"/><path id="Fill-1925" fill="#38454F" d="M5,40 C9.561,46.072 16.821,50 25,50 C33.179,50 40.439,46.072 45,40 L5,40 L5,40 Z"/><path id="Stroke-1926" stroke="#38454F" stroke-linecap="round" stroke-width="2" d="M5,40 C9.561,46.072 16.821,50 25,50 C33.179,50 40.439,46.072 45,40 L5,40 L5,40 Z"/></g></g></svg>