<svg xmlns="http://www.w3.org/2000/svg" xmlns:xlink="http://www.w3.org/1999/xlink" width="30" height="46" version="1.1" viewBox="0 0 30 46"><title>232 - Silent (Flat)</title><desc>Created with Sketch.</desc><g id="Page-1" fill="none" fill-rule="evenodd" stroke="none" stroke-width="1"><g id="232---Silent-(Flat)" transform="translate(1.000000, 1.000000)"><path id="Fill-877" fill="#E8EDEE" d="M0,12 L0,31 L11,30.995 L24.83,43.7 C26.232,44.544 28,43.509 28,41.844 L28,2.156 C28,0.491 26.232,-0.543 24.83,0.301 L11,12 L0,12 L0,12 Z"/><path id="Stroke-878" stroke="#C7CBC7" stroke-linecap="round" stroke-linejoin="round" stroke-width="2" d="M0,12 L0,31 L11,30.995 L24.83,43.7 C26.232,44.544 28,43.509 28,41.844 L28,2.156 C28,0.491 26.232,-0.543 24.83,0.301 L11,12 L0,12 L0,12 Z"/><path id="Fill-879" fill="#E8EDEE" d="M11,12 L11,17"/><path id="Stroke-880" stroke="#C7CBC7" stroke-linecap="round" stroke-width="2" d="M11,12 L11,17"/><path id="Fill-881" fill="#E8EDEE" d="M11,26 L11,31"/><path id="Stroke-882" stroke="#C7CBC7" stroke-linecap="round" stroke-width="2" d="M11,26 L11,31"/></g></g></svg>