<?xml version="1.0" encoding="UTF-8" standalone="no"?>
<svg width="32px" height="57px" viewBox="0 0 32 57" version="1.1" xmlns="http://www.w3.org/2000/svg" xmlns:xlink="http://www.w3.org/1999/xlink" xmlns:sketch="http://www.bohemiancoding.com/sketch/ns">
    <!-- Generator: Sketch 3.2.2 (9983) - http://www.bohemiancoding.com/sketch -->
    <title>316 - Siri (Flat)</title>
    <desc>Created with Sketch.</desc>
    <defs></defs>
    <g id="Page-1" stroke="none" stroke-width="1" fill="none" fill-rule="evenodd" sketch:type="MSPage">
        <g id="Icons" sketch:type="MSArtboardGroup" transform="translate(-614.000000, -1079.000000)">
            <g id="316---Siri-(Flat)" sketch:type="MSLayerGroup" transform="translate(615.000000, 1079.000000)">
                <path d="M30,28 L30,34 C30,42.271 23.271,49 15,49 C6.728,49 0,42.271 0,34 L0,28" id="Path" stroke="#556080" stroke-width="2" stroke-linecap="round" sketch:type="MSShapeGroup"></path>
                <path d="M15,44 L15,44 C9.5,44 5,39.5 5,34 L5,10 C5,4.5 9.5,0 15,0 C20.5,0 25,4.5 25,10 L25,34 C25,39.5 20.5,44 15,44" id="Fill-554" fill="#4E3787" sketch:type="MSShapeGroup"></path>
                <path d="M15,49 L15,56" id="Path" stroke="#556080" stroke-width="2" stroke-linecap="round" sketch:type="MSShapeGroup"></path>
                <path d="M21,56 L9,56" id="Path" stroke="#556080" stroke-width="2" stroke-linecap="round" sketch:type="MSShapeGroup"></path>
                <path d="M15,2 C14.448,2 14,2.448 14,3 C14,3.552 14.448,4 15,4 C15.552,4 16,3.552 16,3 C16,2.448 15.552,2 15,2" id="Fill-556" fill="#DDB7DE" sketch:type="MSShapeGroup"></path>
                <path d="M12,5 C11.448,5 11,5.448 11,6 C11,6.552 11.448,7 12,7 C12.552,7 13,6.552 13,6 C13,5.448 12.552,5 12,5" id="Fill-557" fill="#DDB7DE" sketch:type="MSShapeGroup"></path>
                <path d="M6,11 C5.448,11 5,11.448 5,12 C5,12.552 5.448,13 6,13 C6.552,13 7,12.552 7,12 C7,11.448 6.552,11 6,11" id="Fill-558" fill="#DDB7DE" sketch:type="MSShapeGroup"></path>
                <path d="M12,11 C11.448,11 11,11.448 11,12 C11,12.552 11.448,13 12,13 C12.552,13 13,12.552 13,12 C13,11.448 12.552,11 12,11" id="Fill-559" fill="#DDB7DE" sketch:type="MSShapeGroup"></path>
                <path d="M9,8 C8.448,8 8,8.448 8,9 C8,9.552 8.448,10 9,10 C9.552,10 10,9.552 10,9 C10,8.448 9.552,8 9,8" id="Fill-560" fill="#DDB7DE" sketch:type="MSShapeGroup"></path>
                <path d="M15,8 C14.448,8 14,8.448 14,9 C14,9.552 14.448,10 15,10 C15.552,10 16,9.552 16,9 C16,8.448 15.552,8 15,8" id="Fill-561" fill="#DDB7DE" sketch:type="MSShapeGroup"></path>
                <path d="M9,14 C8.448,14 8,14.448 8,15 C8,15.552 8.448,16 9,16 C9.552,16 10,15.552 10,15 C10,14.448 9.552,14 9,14" id="Fill-562" fill="#DDB7DE" sketch:type="MSShapeGroup"></path>
                <path d="M15,14 C14.448,14 14,14.448 14,15 C14,15.552 14.448,16 15,16 C15.552,16 16,15.552 16,15 C16,14.448 15.552,14 15,14" id="Fill-563" fill="#DDB7DE" sketch:type="MSShapeGroup"></path>
                <path d="M18,5 C17.448,5 17,5.448 17,6 C17,6.552 17.448,7 18,7 C18.552,7 19,6.552 19,6 C19,5.448 18.552,5 18,5" id="Fill-564" fill="#DDB7DE" sketch:type="MSShapeGroup"></path>
                <path d="M18,11 C17.448,11 17,11.448 17,12 C17,12.552 17.448,13 18,13 C18.552,13 19,12.552 19,12 C19,11.448 18.552,11 18,11" id="Fill-565" fill="#DDB7DE" sketch:type="MSShapeGroup"></path>
                <path d="M21,8 C20.448,8 20,8.448 20,9 C20,9.552 20.448,10 21,10 C21.552,10 22,9.552 22,9 C22,8.448 21.552,8 21,8" id="Fill-566" fill="#DDB7DE" sketch:type="MSShapeGroup"></path>
                <path d="M21,14 C20.448,14 20,14.448 20,15 C20,15.552 20.448,16 21,16 C21.552,16 22,15.552 22,15 C22,14.448 21.552,14 21,14" id="Fill-567" fill="#DDB7DE" sketch:type="MSShapeGroup"></path>
                <path d="M6,17 C5.448,17 5,17.448 5,18 C5,18.552 5.448,19 6,19 C6.552,19 7,18.552 7,18 C7,17.448 6.552,17 6,17" id="Fill-568" fill="#DDB7DE" sketch:type="MSShapeGroup"></path>
                <path d="M12,17 C11.448,17 11,17.448 11,18 C11,18.552 11.448,19 12,19 C12.552,19 13,18.552 13,18 C13,17.448 12.552,17 12,17" id="Fill-569" fill="#DDB7DE" sketch:type="MSShapeGroup"></path>
                <path d="M6,23 C5.448,23 5,23.448 5,24 C5,24.552 5.448,25 6,25 C6.552,25 7,24.552 7,24 C7,23.448 6.552,23 6,23" id="Fill-570" fill="#DDB7DE" sketch:type="MSShapeGroup"></path>
                <path d="M12,23 C11.448,23 11,23.448 11,24 C11,24.552 11.448,25 12,25 C12.552,25 13,24.552 13,24 C13,23.448 12.552,23 12,23" id="Fill-571" fill="#DDB7DE" sketch:type="MSShapeGroup"></path>
                <path d="M9,20 C8.448,20 8,20.448 8,21 C8,21.552 8.448,22 9,22 C9.552,22 10,21.552 10,21 C10,20.448 9.552,20 9,20" id="Fill-572" fill="#DDB7DE" sketch:type="MSShapeGroup"></path>
                <path d="M15,20 C14.448,20 14,20.448 14,21 C14,21.552 14.448,22 15,22 C15.552,22 16,21.552 16,21 C16,20.448 15.552,20 15,20" id="Fill-573" fill="#DDB7DE" sketch:type="MSShapeGroup"></path>
                <path d="M9,26 C8.448,26 8,26.448 8,27 C8,27.552 8.448,28 9,28 C9.552,28 10,27.552 10,27 C10,26.448 9.552,26 9,26" id="Fill-574" fill="#DDB7DE" sketch:type="MSShapeGroup"></path>
                <path d="M15,26 C14.448,26 14,26.448 14,27 C14,27.552 14.448,28 15,28 C15.552,28 16,27.552 16,27 C16,26.448 15.552,26 15,26" id="Fill-575" fill="#DDB7DE" sketch:type="MSShapeGroup"></path>
                <path d="M18,17 C17.448,17 17,17.448 17,18 C17,18.552 17.448,19 18,19 C18.552,19 19,18.552 19,18 C19,17.448 18.552,17 18,17" id="Fill-576" fill="#DDB7DE" sketch:type="MSShapeGroup"></path>
                <path d="M18,23 C17.448,23 17,23.448 17,24 C17,24.552 17.448,25 18,25 C18.552,25 19,24.552 19,24 C19,23.448 18.552,23 18,23" id="Fill-577" fill="#DDB7DE" sketch:type="MSShapeGroup"></path>
                <path d="M21,20 C20.448,20 20,20.448 20,21 C20,21.552 20.448,22 21,22 C21.552,22 22,21.552 22,21 C22,20.448 21.552,20 21,20" id="Fill-578" fill="#DDB7DE" sketch:type="MSShapeGroup"></path>
                <path d="M21,26 C20.448,26 20,26.448 20,27 C20,27.552 20.448,28 21,28 C21.552,28 22,27.552 22,27 C22,26.448 21.552,26 21,26" id="Fill-579" fill="#DDB7DE" sketch:type="MSShapeGroup"></path>
                <path d="M6,29 C5.448,29 5,29.448 5,30 C5,30.552 5.448,31 6,31 C6.552,31 7,30.552 7,30 C7,29.448 6.552,29 6,29" id="Fill-580" fill="#DDB7DE" sketch:type="MSShapeGroup"></path>
                <path d="M12,29 C11.448,29 11,29.448 11,30 C11,30.552 11.448,31 12,31 C12.552,31 13,30.552 13,30 C13,29.448 12.552,29 12,29" id="Fill-581" fill="#DDB7DE" sketch:type="MSShapeGroup"></path>
                <path d="M24,11 C23.448,11 23,11.448 23,12 C23,12.552 23.448,13 24,13 C24.552,13 25,12.552 25,12 C25,11.448 24.552,11 24,11" id="Fill-582" fill="#DDB7DE" sketch:type="MSShapeGroup"></path>
                <path d="M24,17 C23.448,17 23,17.448 23,18 C23,18.552 23.448,19 24,19 C24.552,19 25,18.552 25,18 C25,17.448 24.552,17 24,17" id="Fill-583" fill="#DDB7DE" sketch:type="MSShapeGroup"></path>
                <path d="M24,23 C23.448,23 23,23.448 23,24 C23,24.552 23.448,25 24,25 C24.552,25 25,24.552 25,24 C25,23.448 24.552,23 24,23" id="Fill-584" fill="#DDB7DE" sketch:type="MSShapeGroup"></path>
                <path d="M24,29 C23.448,29 23,29.448 23,30 C23,30.552 23.448,31 24,31 C24.552,31 25,30.552 25,30 C25,29.448 24.552,29 24,29" id="Fill-585" fill="#DDB7DE" sketch:type="MSShapeGroup"></path>
                <path d="M12,35 C11.448,35 11,35.448 11,36 C11,36.552 11.448,37 12,37 C12.552,37 13,36.552 13,36 C13,35.448 12.552,35 12,35" id="Fill-586" fill="#DDB7DE" sketch:type="MSShapeGroup"></path>
                <path d="M9,32 C8.448,32 8,32.448 8,33 C8,33.552 8.448,34 9,34 C9.552,34 10,33.552 10,33 C10,32.448 9.552,32 9,32" id="Fill-587" fill="#DDB7DE" sketch:type="MSShapeGroup"></path>
                <path d="M15,32 C14.448,32 14,32.448 14,33 C14,33.552 14.448,34 15,34 C15.552,34 16,33.552 16,33 C16,32.448 15.552,32 15,32" id="Fill-588" fill="#DDB7DE" sketch:type="MSShapeGroup"></path>
                <path d="M9,38 C8.448,38 8,38.448 8,39 C8,39.552 8.448,40 9,40 C9.552,40 10,39.552 10,39 C10,38.448 9.552,38 9,38" id="Fill-589" fill="#DDB7DE" sketch:type="MSShapeGroup"></path>
                <path d="M15,38 C14.448,38 14,38.448 14,39 C14,39.552 14.448,40 15,40 C15.552,40 16,39.552 16,39 C16,38.448 15.552,38 15,38" id="Fill-590" fill="#DDB7DE" sketch:type="MSShapeGroup"></path>
                <path d="M18,29 C17.448,29 17,29.448 17,30 C17,30.552 17.448,31 18,31 C18.552,31 19,30.552 19,30 C19,29.448 18.552,29 18,29" id="Fill-591" fill="#DDB7DE" sketch:type="MSShapeGroup"></path>
                <path d="M18,35 C17.448,35 17,35.448 17,36 C17,36.552 17.448,37 18,37 C18.552,37 19,36.552 19,36 C19,35.448 18.552,35 18,35" id="Fill-592" fill="#DDB7DE" sketch:type="MSShapeGroup"></path>
                <path d="M21,32 C20.448,32 20,32.448 20,33 C20,33.552 20.448,34 21,34 C21.552,34 22,33.552 22,33 C22,32.448 21.552,32 21,32" id="Fill-593" fill="#DDB7DE" sketch:type="MSShapeGroup"></path>
                <path d="M21,38 C20.448,38 20,38.448 20,39 C20,39.552 20.448,40 21,40 C21.552,40 22,39.552 22,39 C22,38.448 21.552,38 21,38" id="Fill-594" fill="#DDB7DE" sketch:type="MSShapeGroup"></path>
                <path d="M12,41 C11.448,41 11,41.448 11,42 C11,42.552 11.448,43 12,43 C12.552,43 13,42.552 13,42 C13,41.448 12.552,41 12,41" id="Fill-595" fill="#DDB7DE" sketch:type="MSShapeGroup"></path>
                <path d="M18,41 C17.448,41 17,41.448 17,42 C17,42.552 17.448,43 18,43 C18.552,43 19,42.552 19,42 C19,41.448 18.552,41 18,41" id="Fill-596" fill="#DDB7DE" sketch:type="MSShapeGroup"></path>
            </g>
        </g>
    </g>
</svg>