<svg xmlns="http://www.w3.org/2000/svg" enable-background="new 0 0 48 48" version="1" viewBox="0 0 48 48"><g fill="#37474F"><rect width="2" height="36" x="23" y="5"/><rect width="2" height="14.2" x="20.5" y="31.4" transform="matrix(.707 .707 -.707 .707 33.523 -3.921)"/><rect width="2" height="14.2" x="25.5" y="31.4" transform="matrix(-.707 .707 -.707 -.707 72.487 46.995)"/></g><rect width="40" height="28" x="4" y="8" fill="#CFD8DC"/><g fill="#607D8B"><rect width="42" height="4" x="3" y="7"/><rect width="42" height="2" x="3" y="35"/><circle cx="31.5" cy="43.5" r="1.5"/><circle cx="16.5" cy="43.5" r="1.5"/></g><g fill="#C51162"><polygon points="31.9 18.9 26 24.9 20 18.9 11.9 26.9 14.1 29.1 20 23.1 26 29.1 34.1 21.1"/><polygon points="36 24 29 17 36 17"/></g></svg>