<svg xmlns="http://www.w3.org/2000/svg" xmlns:xlink="http://www.w3.org/1999/xlink" width="56" height="60" version="1.1" viewBox="0 0 56 60"><title>74 - Stopwatch (Flat)</title><desc>Created with Sketch.</desc><g id="Page-1" fill="none" fill-rule="evenodd" stroke="none" stroke-width="1"><g id="Icons" transform="translate(-842.000000, -3958.000000)"><g id="74---Stopwatch-(Flat)" transform="translate(842.000000, 3958.000000)"><path id="Fill-113" fill="#556080" d="M9.615,14.736 C9.359,14.736 9.103,14.639 8.908,14.443 L5.373,10.908 C4.982,10.518 4.982,9.885 5.373,9.494 C5.764,9.104 6.396,9.104 6.787,9.494 L10.322,13.03 C10.713,13.42 10.713,14.053 10.322,14.443 C10.127,14.639 9.871,14.736 9.615,14.736"/><path id="Fill-114" fill="#556080" d="M46.385,14.736 C46.129,14.736 45.873,14.639 45.678,14.443 C45.287,14.053 45.287,13.42 45.678,13.03 L49.213,9.494 C49.603,9.104 50.236,9.104 50.627,9.494 C51.018,9.885 51.018,10.518 50.627,10.908 L47.092,14.443 C46.896,14.639 46.641,14.736 46.385,14.736"/><path id="Fill-1262" fill="#FFF" d="M54,32.122 C54,46.481 42.359,58.121 28,58.121 C13.641,58.121 2,46.481 2,32.122 C2,17.762 13.641,6.122 28,6.122 C42.359,6.122 54,17.762 54,32.122"/><path id="Fill-1263" fill="#424A60" d="M30,5.203 L30,3.122 L32.5,3.122 C33.328,3.122 34,2.45 34,1.622 C34,0.793 33.328,0.122 32.5,0.122 L23.5,0.122 C22.672,0.122 22,0.793 22,1.622 C22,2.45 22.672,3.122 23.5,3.122 L26,3.122 L26,5.203 C12.044,6.231 1,17.907 1,32.121 C1,47.009 13.112,59.121 28,59.121 C42.888,59.121 55,47.009 55,32.121 C55,17.907 43.956,6.231 30,5.203 L30,5.203 Z M28,57.121 C14.215,57.121 3,45.906 3,32.121 C3,18.336 14.215,7.121 28,7.121 C41.785,7.121 53,18.336 53,32.121 C53,45.906 41.785,57.121 28,57.121 L28,57.121 Z"/><path id="Fill-1264" fill="#DD691D" d="M4.665,4.544 L0.423,8.787 L4.665,13.03 L8.908,8.787 L4.665,4.544"/><path id="Fill-1265" fill="#13A085" d="M51.335,4.544 L47.092,8.787 L51.335,13.03 L55.577,8.787 L51.335,4.544"/><path id="Fill-1266" fill="#424A60" d="M28,5.121 C27.447,5.121 27,5.568 27,6.121 L27,9.121 C27,9.674 27.447,10.121 28,10.121 C28.553,10.121 29,9.674 29,9.121 L29,6.121 C29,5.568 28.553,5.121 28,5.121"/><path id="Fill-1267" fill="#424A60" d="M28,54.121 C27.447,54.121 27,54.569 27,55.121 L27,58.121 C27,58.674 27.447,59.121 28,59.121 C28.553,59.121 29,58.674 29,58.121 L29,55.121 C29,54.569 28.553,54.121 28,54.121"/><path id="Fill-1268" fill="#424A60" d="M54,31.121 L51,31.121 C50.447,31.121 50,31.569 50,32.121 C50,32.674 50.447,33.121 51,33.121 L54,33.121 C54.553,33.121 55,32.674 55,32.121 C55,31.569 54.553,31.121 54,31.121"/><path id="Fill-1269" fill="#424A60" d="M5,33.121 C5.553,33.121 6,32.674 6,32.121 C6,31.569 5.553,31.121 5,31.121 L2,31.121 C1.447,31.121 1,31.569 1,32.121 C1,32.674 1.447,33.121 2,33.121 L5,33.121"/><path id="Fill-1270" fill="#424A60" d="M44.264,16.858 C44.519,16.858 44.775,16.76 44.971,16.565 L47.092,14.443 C47.482,14.053 47.482,13.42 47.092,13.03 C46.701,12.639 46.068,12.639 45.678,13.03 L43.557,15.151 C43.166,15.541 43.166,16.174 43.557,16.565 C43.752,16.76 44.008,16.858 44.264,16.858"/><path id="Fill-1271" fill="#424A60" d="M11.029,47.678 L8.908,49.799 C8.518,50.19 8.518,50.823 8.908,51.213 C9.103,51.408 9.359,51.506 9.615,51.506 C9.871,51.506 10.127,51.408 10.322,51.213 L12.443,49.092 C12.834,48.701 12.834,48.069 12.443,47.678 C12.053,47.287 11.42,47.287 11.029,47.678"/><path id="Fill-1272" fill="#424A60" d="M44.971,47.678 C44.58,47.287 43.947,47.287 43.557,47.678 C43.166,48.069 43.166,48.701 43.557,49.092 L45.678,51.213 C45.873,51.408 46.129,51.506 46.385,51.506 C46.641,51.506 46.896,51.408 47.092,51.213 C47.482,50.823 47.482,50.19 47.092,49.799 L44.971,47.678"/><path id="Fill-1273" fill="#424A60" d="M10.322,13.03 C9.932,12.639 9.299,12.639 8.908,13.03 C8.518,13.42 8.518,14.053 8.908,14.443 L11.029,16.565 C11.225,16.76 11.48,16.858 11.736,16.858 C11.992,16.858 12.248,16.76 12.443,16.565 C12.834,16.174 12.834,15.541 12.443,15.151 L10.322,13.03"/><path id="Fill-1274" fill="#424A60" d="M22.236,6.748 C22.094,6.215 21.547,5.899 21.012,6.041 C20.479,6.184 20.162,6.733 20.305,7.266 L21.081,10.164 C21.2,10.61 21.604,10.905 22.046,10.905 C22.132,10.905 22.219,10.895 22.306,10.871 C22.839,10.729 23.155,10.18 23.013,9.646 L22.236,6.748"/><path id="Fill-1275" fill="#424A60" d="M34.919,54.079 C34.776,53.545 34.227,53.228 33.694,53.372 C33.161,53.515 32.845,54.063 32.987,54.597 L33.764,57.494 C33.883,57.941 34.287,58.235 34.729,58.235 C34.814,58.235 34.901,58.225 34.988,58.202 C35.521,58.059 35.838,57.51 35.695,56.977 L34.919,54.079"/><path id="Fill-1276" fill="#424A60" d="M49.25,26.428 C49.37,26.875 49.773,27.169 50.215,27.169 C50.301,27.169 50.388,27.158 50.475,27.135 L53.373,26.357 C53.906,26.215 54.224,25.666 54.08,25.133 C53.936,24.599 53.389,24.284 52.855,24.426 L49.957,25.203 C49.424,25.346 49.106,25.895 49.25,26.428"/><path id="Fill-1277" fill="#424A60" d="M6.75,37.816 C6.608,37.281 6.06,36.964 5.525,37.109 L2.627,37.885 C2.094,38.027 1.777,38.576 1.92,39.109 C2.039,39.557 2.443,39.851 2.885,39.851 C2.971,39.851 3.058,39.84 3.144,39.817 L6.043,39.04 C6.576,38.897 6.893,38.349 6.75,37.816"/><path id="Fill-1278" fill="#424A60" d="M41.5,8.738 C41.022,8.461 40.41,8.626 40.134,9.105 L38.634,11.703 C38.357,12.182 38.521,12.793 39,13.07 C39.157,13.16 39.329,13.203 39.499,13.203 C39.845,13.203 40.181,13.024 40.366,12.703 L41.866,10.105 C42.143,9.626 41.979,9.015 41.5,8.738"/><path id="Fill-1279" fill="#424A60" d="M17,51.174 C16.522,50.896 15.91,51.06 15.634,51.54 L14.134,54.138 C13.857,54.617 14.021,55.228 14.5,55.504 C14.657,55.595 14.829,55.638 14.999,55.638 C15.345,55.638 15.681,55.459 15.866,55.138 L17.366,52.54 C17.643,52.062 17.479,51.45 17,51.174"/><path id="Fill-1280" fill="#424A60" d="M51.017,44.255 L48.419,42.755 C47.941,42.478 47.329,42.641 47.053,43.121 C46.776,43.6 46.94,44.211 47.419,44.487 L50.017,45.987 C50.174,46.078 50.346,46.121 50.516,46.121 C50.861,46.121 51.197,45.942 51.383,45.621 C51.659,45.143 51.495,44.531 51.017,44.255"/><path id="Fill-1281" fill="#424A60" d="M4.983,19.987 L7.581,21.487 C7.738,21.578 7.91,21.621 8.08,21.621 C8.426,21.621 8.762,21.443 8.947,21.121 C9.224,20.643 9.06,20.031 8.581,19.755 L5.983,18.255 C5.506,17.978 4.894,18.142 4.617,18.621 C4.341,19.1 4.505,19.711 4.983,19.987"/><path id="Fill-1282" fill="#424A60" d="M15.866,9.105 C15.589,8.626 14.976,8.461 14.5,8.738 C14.021,9.015 13.857,9.626 14.134,10.105 L15.634,12.703 C15.819,13.024 16.155,13.203 16.501,13.203 C16.671,13.203 16.843,13.16 17,13.07 C17.479,12.793 17.643,12.182 17.366,11.703 L15.866,9.105"/><path id="Fill-1283" fill="#424A60" d="M40.366,51.54 C40.089,51.06 39.477,50.896 39,51.174 C38.521,51.45 38.357,52.062 38.634,52.54 L40.134,55.138 C40.319,55.459 40.655,55.638 41.001,55.638 C41.171,55.638 41.343,55.595 41.5,55.504 C41.979,55.228 42.143,54.617 41.866,54.138 L40.366,51.54"/><path id="Fill-1284" fill="#424A60" d="M47.053,21.121 C47.238,21.443 47.574,21.621 47.92,21.621 C48.09,21.621 48.262,21.578 48.419,21.487 L51.017,19.987 C51.495,19.711 51.659,19.1 51.383,18.621 C51.106,18.142 50.493,17.978 50.017,18.255 L47.419,19.755 C46.94,20.031 46.776,20.643 47.053,21.121"/><path id="Fill-1285" fill="#424A60" d="M8.947,43.121 C8.67,42.641 8.058,42.478 7.581,42.755 L4.983,44.255 C4.505,44.531 4.341,45.143 4.617,45.621 C4.803,45.942 5.139,46.121 5.484,46.121 C5.654,46.121 5.826,46.078 5.983,45.987 L8.581,44.487 C9.06,44.211 9.224,43.6 8.947,43.121"/><path id="Fill-1286" fill="#424A60" d="M34.988,6.041 C34.456,5.9 33.906,6.215 33.764,6.748 L32.987,9.646 C32.845,10.18 33.161,10.729 33.694,10.871 C33.781,10.895 33.868,10.905 33.954,10.905 C34.395,10.905 34.8,10.61 34.919,10.164 L35.695,7.266 C35.838,6.733 35.521,6.184 34.988,6.041"/><path id="Fill-1287" fill="#424A60" d="M22.306,53.372 C21.772,53.229 21.224,53.545 21.081,54.079 L20.305,56.977 C20.162,57.51 20.479,58.059 21.012,58.202 C21.099,58.225 21.185,58.235 21.271,58.235 C21.713,58.235 22.117,57.941 22.236,57.494 L23.013,54.597 C23.155,54.063 22.839,53.515 22.306,53.372"/><path id="Fill-1288" fill="#424A60" d="M53.373,37.885 L50.475,37.109 C49.943,36.965 49.393,37.282 49.25,37.816 C49.107,38.349 49.424,38.897 49.957,39.04 L52.855,39.817 C52.942,39.84 53.029,39.851 53.115,39.851 C53.557,39.851 53.961,39.556 54.08,39.109 C54.223,38.576 53.906,38.027 53.373,37.885"/><path id="Fill-1289" fill="#424A60" d="M2.627,26.357 L5.525,27.135 C5.612,27.158 5.699,27.169 5.785,27.169 C6.227,27.169 6.63,26.875 6.75,26.428 C6.894,25.895 6.576,25.346 6.043,25.203 L3.144,24.426 C2.611,24.285 2.063,24.599 1.92,25.133 C1.776,25.666 2.094,26.215 2.627,26.357"/><path id="Fill-2115" fill="#48A0DC" d="M17,21.122 L17,21.122 L29.944,30.485 C31.218,31.411 31.363,33.257 30.249,34.37 C29.135,35.484 27.29,35.34 26.363,34.066 L17,21.122"/></g></g></g></svg>