<svg xmlns="http://www.w3.org/2000/svg" xmlns:xlink="http://www.w3.org/1999/xlink" width="60" height="61" version="1.1" viewBox="0 0 60 61"><title>75 - Stopwatch (Flat)</title><desc>Created with Sketch.</desc><g id="Page-1" fill="none" fill-rule="evenodd" stroke="none" stroke-width="1"><g id="Icons" transform="translate(-720.000000, -3957.000000)"><g id="75---Stopwatch-(Flat)" transform="translate(720.000000, 3957.000000)"><path id="Fill-1230" fill="#7383BF" d="M59,30.121 C59,46.138 46.016,59.121 30,59.121 C13.984,59.121 1,46.138 1,30.121 C1,14.105 13.984,1.122 30,1.122 C46.016,1.122 59,14.105 59,30.121"/><path id="Fill-1258" fill="#556080" d="M58.977,37.886 C58.978,37.882 58.977,37.88 58.978,37.876 C59.641,35.401 60,32.802 60,30.121 C60,27.44 59.641,24.842 58.978,22.367 C58.977,22.363 58.978,22.36 58.978,22.36 C58.977,22.353 58.973,22.35 58.972,22.346 C58.292,19.813 57.285,17.413 56.004,15.19 C55.993,15.168 55.993,15.143 55.981,15.121 C55.968,15.1 55.947,15.088 55.933,15.068 C54.635,12.84 53.064,10.79 51.256,8.974 C51.239,8.953 51.232,8.928 51.213,8.908 C51.194,8.889 51.168,8.882 51.148,8.865 C49.331,7.057 47.282,5.487 45.054,4.188 C45.034,4.175 45.022,4.153 45,4.141 C44.978,4.128 44.953,4.128 44.93,4.117 C42.708,2.836 40.308,1.829 37.775,1.149 C37.771,1.148 37.769,1.145 37.765,1.144 C37.761,1.143 37.758,1.144 37.755,1.143 C35.28,0.48 32.681,0.121 30,0.121 C27.319,0.121 24.72,0.48 22.245,1.143 C22.242,1.144 22.239,1.143 22.235,1.144 C22.231,1.145 22.229,1.148 22.225,1.149 C19.692,1.829 17.293,2.836 15.07,4.117 C15.047,4.128 15.022,4.128 15,4.141 C14.978,4.153 14.966,4.175 14.946,4.188 C12.718,5.487 10.669,7.057 8.852,8.865 C8.832,8.882 8.806,8.889 8.787,8.908 C8.768,8.928 8.761,8.953 8.744,8.974 C6.936,10.79 5.365,12.84 4.067,15.068 C4.053,15.088 4.032,15.1 4.019,15.121 C4.007,15.143 4.007,15.168 3.996,15.19 C2.715,17.413 1.708,19.813 1.028,22.346 C1.027,22.35 1.023,22.353 1.023,22.357 C1.023,22.357 1.023,22.363 1.022,22.367 C0.359,24.842 0,27.44 0,30.121 C0,32.802 0.359,35.401 1.022,37.876 C1.023,37.88 1.021,37.882 1.023,37.886 C1.024,37.891 1.027,37.894 1.028,37.899 C1.709,40.431 2.715,42.83 3.996,45.052 C4.007,45.075 4.007,45.099 4.019,45.121 C4.038,45.153 4.063,45.176 4.084,45.205 C5.379,47.421 6.944,49.46 8.744,51.269 C8.761,51.289 8.768,51.315 8.787,51.334 C8.806,51.353 8.832,51.36 8.852,51.377 C10.668,53.184 12.716,54.755 14.943,56.052 C14.964,56.067 14.977,56.089 15,56.103 C15.034,56.122 15.071,56.132 15.107,56.147 C17.32,57.418 19.706,58.417 22.225,59.094 C22.229,59.095 22.231,59.098 22.235,59.099 C22.24,59.1 22.245,59.099 22.25,59.101 C24.724,59.763 27.32,60.121 30,60.121 C32.68,60.121 35.276,59.763 37.75,59.101 C37.755,59.099 37.76,59.1 37.765,59.099 C37.769,59.098 37.771,59.095 37.775,59.094 C40.294,58.417 42.68,57.418 44.893,56.147 C44.929,56.132 44.966,56.122 45,56.103 C45.023,56.089 45.036,56.067 45.057,56.052 C47.283,54.755 49.332,53.184 51.148,51.377 C51.168,51.36 51.194,51.353 51.213,51.334 C51.232,51.315 51.239,51.289 51.256,51.269 C53.056,49.46 54.621,47.421 55.916,45.205 C55.937,45.176 55.962,45.153 55.981,45.121 C55.993,45.099 55.993,45.075 56.004,45.052 C57.285,42.83 58.291,40.431 58.972,37.899 C58.973,37.894 58.976,37.891 58.977,37.886 L58.977,37.886 Z M54.856,37.817 L56.77,38.329 C56.244,40.043 55.555,41.685 54.726,43.242 L53.017,42.255 C52.539,41.979 51.927,42.142 51.65,42.621 C51.374,43.1 51.538,43.711 52.017,43.987 L53.721,44.972 C52.774,46.479 51.688,47.89 50.48,49.187 L49.092,47.799 C48.701,47.408 48.068,47.408 47.678,47.799 C47.287,48.19 47.287,48.823 47.678,49.213 L49.066,50.601 C47.769,51.809 46.358,52.895 44.85,53.842 L43.866,52.138 C43.589,51.659 42.977,51.495 42.5,51.772 C42.021,52.048 41.857,52.659 42.134,53.138 L43.12,54.847 C41.564,55.677 39.922,56.365 38.208,56.891 L37.695,54.977 C37.553,54.442 37.006,54.126 36.471,54.27 C35.937,54.412 35.621,54.961 35.764,55.494 L36.275,57.403 C34.57,57.796 32.807,58.032 31,58.096 L31,54.121 C31,53.569 30.553,53.121 30,53.121 C29.447,53.121 29,53.569 29,54.121 L29,58.096 C27.193,58.032 25.43,57.796 23.725,57.403 L24.236,55.494 C24.379,54.961 24.062,54.412 23.529,54.27 C22.996,54.127 22.447,54.442 22.305,54.977 L21.792,56.891 C20.078,56.365 18.436,55.677 16.88,54.847 L17.866,53.138 C18.143,52.659 17.979,52.048 17.5,51.772 C17.021,51.495 16.411,51.659 16.134,52.138 L15.15,53.842 C13.642,52.895 12.231,51.809 10.934,50.601 L12.322,49.213 C12.713,48.823 12.713,48.19 12.322,47.799 C11.932,47.408 11.299,47.408 10.908,47.799 L9.52,49.187 C8.312,47.89 7.226,46.479 6.279,44.972 L7.983,43.987 C8.462,43.711 8.626,43.1 8.35,42.621 C8.072,42.142 7.461,41.979 6.983,42.255 L5.274,43.242 C4.445,41.685 3.756,40.043 3.23,38.329 L5.144,37.817 C5.678,37.674 5.994,37.125 5.852,36.592 C5.71,36.058 5.161,35.741 4.627,35.885 L2.718,36.396 C2.326,34.691 2.089,32.929 2.025,31.121 L6,31.121 C6.553,31.121 7,30.674 7,30.121 C7,29.569 6.553,29.121 6,29.121 L2.025,29.121 C2.089,27.314 2.326,25.551 2.718,23.846 L4.627,24.357 C4.714,24.381 4.801,24.392 4.887,24.392 C5.328,24.392 5.732,24.098 5.852,23.651 C5.994,23.117 5.678,22.568 5.144,22.426 L3.23,21.913 C3.756,20.2 4.445,18.557 5.274,17.001 L6.983,17.987 C7.141,18.078 7.312,18.121 7.482,18.121 C7.828,18.121 8.164,17.943 8.35,17.621 C8.626,17.143 8.462,16.531 7.983,16.255 L6.279,15.271 C7.226,13.763 8.312,12.352 9.52,11.055 L10.908,12.443 C11.104,12.639 11.359,12.736 11.615,12.736 C11.871,12.736 12.127,12.639 12.322,12.443 C12.713,12.053 12.713,11.42 12.322,11.03 L10.934,9.641 C12.231,8.433 13.642,7.347 15.15,6.4 L16.134,8.105 C16.319,8.426 16.655,8.605 17.001,8.605 C17.171,8.605 17.343,8.562 17.5,8.471 C17.979,8.194 18.143,7.583 17.866,7.105 L16.879,5.395 C18.436,4.566 20.078,3.878 21.792,3.351 L22.305,5.266 C22.424,5.713 22.828,6.007 23.269,6.007 C23.356,6.007 23.442,5.996 23.529,5.973 C24.062,5.83 24.379,5.281 24.236,4.748 L23.725,2.839 C25.43,2.447 27.193,2.211 29,2.147 L29,6.121 C29,6.674 29.447,7.121 30,7.121 C30.553,7.121 31,6.674 31,6.121 L31,2.147 C32.807,2.211 34.57,2.447 36.275,2.839 L35.764,4.748 C35.621,5.281 35.937,5.83 36.471,5.973 C36.558,5.996 36.644,6.007 36.73,6.007 C37.172,6.007 37.576,5.713 37.695,5.266 L38.208,3.351 C39.922,3.878 41.564,4.566 43.121,5.395 L42.134,7.105 C41.857,7.583 42.021,8.194 42.5,8.471 C42.657,8.562 42.829,8.605 42.999,8.605 C43.345,8.605 43.681,8.426 43.866,8.105 L44.85,6.4 C46.358,7.347 47.769,8.433 49.066,9.641 L47.678,11.03 C47.287,11.42 47.287,12.053 47.678,12.443 C47.873,12.639 48.129,12.736 48.385,12.736 C48.641,12.736 48.896,12.639 49.092,12.443 L50.48,11.055 C51.688,12.352 52.774,13.763 53.721,15.271 L52.017,16.255 C51.538,16.531 51.374,17.143 51.65,17.621 C51.836,17.943 52.172,18.121 52.518,18.121 C52.687,18.121 52.859,18.078 53.017,17.987 L54.726,17.001 C55.555,18.557 56.244,20.2 56.77,21.913 L54.856,22.426 C54.322,22.568 54.006,23.117 54.148,23.651 C54.268,24.098 54.672,24.392 55.113,24.392 C55.199,24.392 55.286,24.381 55.373,24.357 L57.282,23.846 C57.674,25.551 57.911,27.314 57.975,29.121 L54,29.121 C53.447,29.121 53,29.569 53,30.121 C53,30.674 53.447,31.121 54,31.121 L57.975,31.121 C57.911,32.929 57.674,34.691 57.282,36.396 L55.373,35.885 C54.841,35.742 54.291,36.058 54.148,36.592 C54.006,37.125 54.322,37.674 54.856,37.817 L54.856,37.817 Z"/><path id="Fill-1259" fill="#FFF" d="M41,29.121 L33.858,29.121 C33.495,27.722 32.399,26.627 31,26.263 L31,13.121 C31,12.568 30.553,12.121 30,12.121 C29.447,12.121 29,12.568 29,13.121 L29,26.263 C27.279,26.71 26,28.263 26,30.121 C26,32.327 27.794,34.121 30,34.121 C31.859,34.121 33.411,32.842 33.858,31.121 L41,31.121 C41.553,31.121 42,30.674 42,30.121 C42,29.569 41.553,29.121 41,29.121 L41,29.121 Z M30,32.121 C28.898,32.121 28,31.224 28,30.121 C28,29.019 28.898,28.121 30,28.121 C31.102,28.121 32,29.019 32,30.121 C32,31.224 31.102,32.121 30,32.121 L30,32.121 Z"/><path id="Fill-1260" fill="#556080" d="M37,43.122 C37,46.987 33.866,50.121 30,50.121 C26.134,50.121 23,46.987 23,43.122 C23,39.255 26.134,36.122 30,36.122 C33.866,36.122 37,39.255 37,43.122"/><path id="Fill-1261" fill="#FFF" d="M30,44.121 C29.744,44.121 29.488,44.023 29.293,43.828 L26.293,40.828 C25.902,40.437 25.902,39.805 26.293,39.414 C26.684,39.024 27.316,39.024 27.707,39.414 L30.707,42.414 C31.098,42.805 31.098,43.438 30.707,43.828 C30.512,44.023 30.256,44.121 30,44.121"/></g></g></g></svg>