<?xml version="1.0" encoding="UTF-8" standalone="no"?>
<svg width="60px" height="60px" viewBox="0 0 60 60" version="1.1" xmlns="http://www.w3.org/2000/svg" xmlns:xlink="http://www.w3.org/1999/xlink" xmlns:sketch="http://www.bohemiancoding.com/sketch/ns">
    <!-- Generator: Sketch 3.2.2 (9983) - http://www.bohemiancoding.com/sketch -->
    <title>73 - Stopwatch (Flat)</title>
    <desc>Created with Sketch.</desc>
    <defs></defs>
    <g id="Page-1" stroke="none" stroke-width="1" fill="none" fill-rule="evenodd" sketch:type="MSPage">
        <g id="Icons" sketch:type="MSArtboardGroup" transform="translate(-960.000000, -3957.000000)">
            <g id="73---Stopwatch-(Flat)" sketch:type="MSLayerGroup" transform="translate(960.000000, 3957.000000)">
                <path d="M59,29 C59,45.017 46.016,58 30,58 C13.984,58 1,45.017 1,29 C1,12.984 13.984,0 30,0 C46.016,0 59,12.984 59,29" id="Fill-112" fill="#3083C9" sketch:type="MSShapeGroup"></path>
                <path d="M30,60 C13.458,60 0,46.542 0,30 C0,22.007 3.107,14.487 8.749,8.824 C9.528,8.039 10.796,8.039 11.577,8.818 C12.36,9.599 12.362,10.865 11.583,11.647 C6.693,16.555 4,23.072 4,30 C4,44.337 15.663,56 30,56 C44.337,56 56,44.337 56,30 C56,16.337 45.405,5.101 32,4.076 L32,14.833 C32,15.938 31.104,16.833 30,16.833 C28.896,16.833 28,15.938 28,14.833 L28,2 C28,0.896 28.896,0 30,0 C46.542,0 60,13.458 60,30 C60,46.542 46.542,60 30,60" id="Fill-1150" fill="#A2C9ED" sketch:type="MSShapeGroup"></path>
                <path d="M20,20.121 L20,20.121 L32.944,29.485 C34.218,30.411 34.363,32.257 33.249,33.371 C32.135,34.484 30.29,34.339 29.363,33.065 L20,20.121" id="Fill-1151" fill="#A2C9ED" sketch:type="MSShapeGroup"></path>
            </g>
        </g>
    </g>
</svg>