<svg xmlns="http://www.w3.org/2000/svg" xmlns:xlink="http://www.w3.org/1999/xlink" width="60" height="59" version="1.1" viewBox="0 0 60 59"><title>156 - Street Location (Flat)</title><desc>Created with Sketch.</desc><g id="Page-1" fill="none" fill-rule="evenodd" stroke="none" stroke-width="1"><g id="156---Street-Location-(Flat)" transform="translate(0.000000, -1.000000)"><path id="Fill-209" fill="#424A60" d="M0,42 L60,42 L60,60 L0,60 L0,42 Z"/><path id="Fill-210" fill="#FFF" d="M52,50 L56,50 L56,52 L52,52 L52,50 Z M44,50 L48,50 L48,52 L44,52 L44,50 Z M36,50 L40,50 L40,52 L36,52 L36,50 Z M28,50 L32,50 L32,52 L28,52 L28,50 Z M20,50 L24,50 L24,52 L20,52 L20,50 Z M12,50 L16,50 L16,52 L12,52 L12,50 Z M4,50 L8,50 L8,52 L4,52 L4,50 Z"/><path id="Fill-1950" fill="#23A24D" d="M44.03,6.324 L44.03,6.324 C36.931,-0.775 25.422,-0.775 18.324,6.324 C11.928,12.72 11.208,24.764 16.635,32 L31.177,53 L45.718,32 C51.146,24.764 50.426,12.72 44.03,6.324 L44.03,6.324 Z M31.354,25 C28.04,25 25.354,22.314 25.354,19 C25.354,15.687 28.04,13 31.354,13 C34.667,13 37.354,15.687 37.354,19 C37.354,22.314 34.667,25 31.354,25 L31.354,25 Z"/></g></g></svg>