<svg xmlns="http://www.w3.org/2000/svg" xmlns:xlink="http://www.w3.org/1999/xlink" width="38" height="58" version="1.1" viewBox="0 0 38 58"><title>310 - Street Name (Flat)</title><desc>Created with Sketch.</desc><g id="Page-1" fill="none" fill-rule="evenodd" stroke="none" stroke-width="1"><g id="Icons" transform="translate(-129.000000, -1198.000000)"><g id="310---Street-Name-(Flat)" transform="translate(129.000000, 1198.000000)"><path id="Fill-607" fill="#556080" d="M19,51 C18.448,51 18,50.553 18,50 L18,24 C18,23.447 18.448,23 19,23 C19.552,23 20,23.447 20,24 L20,50 C20,50.553 19.552,51 19,51"/><path id="Fill-608" fill="#556080" d="M11,54 L27,54 L27,58 L11,58 L11,54 Z"/><path id="Fill-609" fill="#7383BF" d="M14,50 L24,50 L24,54 L14,54 L14,50 Z"/><path id="Fill-616" fill="#556080" d="M19,13 C18.448,13 18,12.553 18,12 L18,8 C18,7.447 18.448,7 19,7 C19.552,7 20,7.447 20,8 L20,12 C20,12.553 19.552,13 19,13"/><path id="Fill-2512" fill="#7383BF" d="M23,4 C23,6.209 21.209,8 19,8 C16.791,8 15,6.209 15,4 C15,1.791 16.791,0 19,0 C21.209,0 23,1.791 23,4"/><path id="Fill-2513" fill="#556080" d="M32,24 L6,24 C2.7,24 0,21.3 0,18 C0,14.7 2.7,12 6,12 L32,12 C35.3,12 38,14.7 38,18 C38,21.3 35.3,24 32,24"/><path id="Fill-2514" fill="#FFF" d="M24,17 L14,17 C13.448,17 13,16.553 13,16 C13,15.447 13.448,15 14,15 L24,15 C24.552,15 25,15.447 25,16 C25,16.553 24.552,17 24,17"/><path id="Fill-2515" fill="#FFF" d="M33,21 L6,21 C5.448,21 5,20.553 5,20 C5,19.447 5.448,19 6,19 L33,19 C33.552,19 34,19.447 34,20 C34,20.553 33.552,21 33,21"/></g></g></g></svg>