<svg xmlns="http://www.w3.org/2000/svg" xmlns:xlink="http://www.w3.org/1999/xlink" width="41" height="58" version="1.1" viewBox="0 0 41 58"><title>309 - Street Orientation (Flat)</title><desc>Created with Sketch.</desc><g id="Page-1" fill="none" fill-rule="evenodd" stroke="none" stroke-width="1"><g id="Icons" transform="translate(-250.000000, -1198.000000)"><g id="309---Street-Orientation-(Flat)" transform="translate(250.000000, 1198.000000)"><path id="Stroke-610" stroke="#949493" stroke-linecap="round" stroke-width="2" d="M20,50 L20,27"/><path id="Fill-611" fill="#949493" d="M12,54 L28,54 L28,58 L12,58 L12,54 Z"/><path id="Fill-612" fill="#C7CBC7" d="M15,50 L25,50 L25,54 L15,54 L15,50 Z"/><path id="Fill-613" fill="#23A24D" d="M5,27 L29.859,27 C31.041,27 32,26.042 32,24.859 L32,19.141 C32,17.959 31.041,17 29.859,17 L5,17 L0,22 L5,27"/><path id="Stroke-614" stroke="#949493" stroke-linecap="round" stroke-width="2" d="M20,11 L20,8"/><path id="Fill-615" fill="#42B05C" d="M36,11 L11.141,11 C9.959,11 9,11.959 9,13.141 L9,17 L29.859,17 C31.041,17 32,17.959 32,19.141 L32,21 L36,21 L41,16 L36,11"/><path id="Fill-2516" fill="#C7CBC7" d="M24,4 C24,6.209 22.209,8 20,8 C17.791,8 16,6.209 16,4 C16,1.791 17.791,0 20,0 C22.209,0 24,1.791 24,4"/></g></g></g></svg>