<?xml version="1.0" encoding="UTF-8" standalone="no"?>
<svg width="58px" height="51px" viewBox="0 0 58 51" version="1.1" xmlns="http://www.w3.org/2000/svg" xmlns:xlink="http://www.w3.org/1999/xlink" xmlns:sketch="http://www.bohemiancoding.com/sketch/ns">
    <!-- Generator: Sketch 3.2.2 (9983) - http://www.bohemiancoding.com/sketch -->
    <title>195 - Success (Flat)</title>
    <desc>Created with Sketch.</desc>
    <defs></defs>
    <g id="Page-1" stroke="none" stroke-width="1" fill="none" fill-rule="evenodd" sketch:type="MSPage">
        <g id="195---Success-(Flat)" sketch:type="MSLayerGroup">
            <path d="M0,51 L51,51 L51,0 L0,0 L0,51 Z" id="Fill-835" fill="#13A085" sketch:type="MSShapeGroup"></path>
            <path d="M26,36 C25.744,36 25.488,35.903 25.293,35.707 C24.902,35.317 24.902,34.684 25.293,34.293 L56.293,3.293 C56.684,2.903 57.316,2.903 57.707,3.293 C58.098,3.684 58.098,4.316 57.707,4.707 L26.707,35.707 C26.512,35.903 26.256,36 26,36" id="Fill-836" fill="#F0CE49" sketch:type="MSShapeGroup"></path>
            <path d="M26,36 C25.744,36 25.488,35.903 25.293,35.707 L11.516,21.93 C11.125,21.539 11.125,20.906 11.516,20.516 C11.906,20.125 12.539,20.125 12.93,20.516 L26.707,34.293 C27.098,34.684 27.098,35.317 26.707,35.707 C26.512,35.903 26.256,36 26,36" id="Fill-837" fill="#F0CE49" sketch:type="MSShapeGroup"></path>
        </g>
    </g>
</svg>