<svg xmlns="http://www.w3.org/2000/svg" xmlns:xlink="http://www.w3.org/1999/xlink" width="58" height="34" version="1.1" viewBox="0 0 58 34"><title>322 - OFF (Flat)</title><desc>Created with Sketch.</desc><g id="Page-1" fill="none" fill-rule="evenodd" stroke="none" stroke-width="1"><g id="Icons" transform="translate(-1081.000000, -971.000000)"><g id="322---OFF-(Flat)" transform="translate(1081.000000, 971.000000)"><path id="Fill-545" fill="#38454F" d="M17,0 L41,0 C50.35,0 58,7.65 58,17 C58,26.35 50.35,34 41,34 L17,34 C7.65,34 0,26.35 0,17 C0,7.65 7.65,0 17,0"/><path id="Fill-546" fill="#E0E2E3" d="M29,17 C29,10.373 34.372,5 41,5 C47.627,5 53,10.373 53,17 C53,23.627 47.627,29 41,29 C34.372,29 29,23.627 29,17"/><path id="Stroke-549" stroke="#ED7161" stroke-linecap="round" stroke-width="2" d="M16,9 L16,25"/></g></g></g></svg>