<svg xmlns="http://www.w3.org/2000/svg" xmlns:xlink="http://www.w3.org/1999/xlink" width="56" height="59" version="1.1" viewBox="0 0 56 59"><title>25 - Take Notes (Flat)</title><desc>Created with Sketch.</desc><g id="Page-1" fill="none" fill-rule="evenodd" stroke="none" stroke-width="1"><g id="25---Take-Notes-(Flat)"><path id="Fill-1721" fill="#556080" d="M38.003,52 L0,52 L0,0.003 L38.003,0.003 C39.658,0.003 41,1.345 41,3 L41,49.004 C41,50.658 39.658,52 38.003,52"/><path id="Fill-1722" fill="#D75A4A" d="M30,0.003 L35,0.003 L35,52 L30,52 L30,0.003 Z"/><path id="Fill-1723" fill="#424A60" d="M0,17.011 L30,17.011 L30,35.011 L0,35.011 L0,17.011 Z"/><path id="Fill-1724" fill="#424A60" d="M35,17.011 L41,17.011 L41,35.011 L35,35.011 L35,17.011 Z"/><path id="Fill-1725" fill="#ECBA16" d="M10,57 L7,55 L4,57 L4,52 L10,52 L10,57"/><path id="Fill-3023" fill="#E0E2E3" d="M48,7 L52,7 L52,11 L48,11 L48,7 Z"/><path id="Fill-3024" fill="#D75A4A" d="M52,0 L49.985,0 C49.711,0 49.45,0.056 49.212,0.156 C49.094,0.206 48.981,0.268 48.875,0.339 C48.347,0.696 48,1.3 48,1.985 L48,7 L52,7 L52,0"/><path id="Fill-3025" fill="#D75A4A" d="M54.015,0 L54.015,0 C54.289,0 54.55,0.056 54.788,0.156 C54.55,0.056 54.289,0 54.015,0"/><path id="Fill-3026" fill="#DB7B1B" d="M52,11 L56,11 L56,49 L52,49 L52,11 Z"/><path id="Fill-3027" fill="#C4C4C4" d="M52,7 L56,7 L56,11 L52,11 L52,7 Z"/><path id="Fill-3028" fill="#D75A4A" d="M56,1.985 L56,1.985 C56,1.3 55.653,0.696 55.125,0.339 C55.653,0.696 56,1.3 56,1.985"/><path id="Fill-3029" fill="#B74C44" d="M56,7 L56,1.985 C56,1.3 55.653,0.696 55.125,0.339 C55.019,0.268 54.906,0.206 54.788,0.156 C54.55,0.056 54.289,0 54.015,0 L52,0 L52,7 L56,7"/><path id="Fill-3030" fill="#ECD6BD" d="M56,49 L48,49 L52,56 L56,49"/><path id="Fill-3031" fill="#4C4C4C" d="M51,58 C51,58.553 51.447,59 52,59 C52.553,59 53,58.553 53,58 L53,54 L51,54 L51,58"/><path id="Fill-3032" fill="#ED8A19" d="M48,11 L52,11 L52,49 L48,49 L48,11 Z"/></g></g></svg>