<svg xmlns="http://www.w3.org/2000/svg" xmlns:xlink="http://www.w3.org/1999/xlink" width="58" height="59" version="1.1" viewBox="0 0 58 59"><title>24 - Take Notes (Flat)</title><desc>Created with Sketch.</desc><g id="Page-1" fill="none" fill-rule="evenodd" stroke="none" stroke-width="1"><g id="24---Take-Notes-(Flat)"><path id="Fill-1746" fill="#BFA380" d="M0,0 L44,0 L44,58 L0,58 L0,0 Z"/><path id="Fill-1747" fill="#6B5B4B" d="M0,0 L8,0 L8,58 L0,58 L0,0 Z"/><path id="Fill-1748" fill="#EDEBDA" d="M15,10 L37,10 L37,22 L15,22 L15,10 Z"/><path id="Fill-1749" fill="#CEC9AE" d="M19,13 L33,13 L33,15 L19,15 L19,13 Z"/><path id="Fill-1750" fill="#CEC9AE" d="M19,17 L33,17 L33,19 L19,19 L19,17 Z"/><path id="Fill-3033" fill="#E0E2E3" d="M50,7 L54,7 L54,11 L50,11 L50,7 Z"/><path id="Fill-3034" fill="#D75A4A" d="M54,0 L51.985,0 C51.711,0 51.45,0.056 51.212,0.156 C51.094,0.206 50.981,0.268 50.875,0.339 C50.347,0.696 50,1.3 50,1.985 L50,7 L54,7 L54,0"/><path id="Fill-3035" fill="#D75A4A" d="M56.015,0 L56.015,0 C56.289,0 56.55,0.056 56.788,0.156 C56.55,0.056 56.289,0 56.015,0"/><path id="Fill-3036" fill="#DB7B1B" d="M54,11 L58,11 L58,49 L54,49 L54,11 Z"/><path id="Fill-3037" fill="#C4C4C4" d="M54,7 L58,7 L58,11 L54,11 L54,7 Z"/><path id="Fill-3038" fill="#D75A4A" d="M58,1.985 L58,1.985 C58,1.3 57.653,0.696 57.125,0.339 C57.653,0.696 58,1.3 58,1.985"/><path id="Fill-3039" fill="#B74C44" d="M58,7 L58,1.985 C58,1.3 57.653,0.696 57.125,0.339 C57.019,0.268 56.906,0.206 56.788,0.156 C56.55,0.056 56.289,0 56.015,0 L54,0 L54,7 L58,7"/><path id="Fill-3040" fill="#ECD6BD" d="M58,49 L50,49 L54,56 L58,49"/><path id="Fill-3041" fill="#4C4C4C" d="M53,58 C53,58.553 53.447,59 54,59 C54.553,59 55,58.553 55,58 L55,54 L53,54 L53,58"/><path id="Fill-3042" fill="#ED8A19" d="M50,11 L54,11 L54,49 L50,49 L50,11 Z"/></g></g></svg>