<svg xmlns="http://www.w3.org/2000/svg" xmlns:xlink="http://www.w3.org/1999/xlink" width="60" height="60" version="1.1" viewBox="0 0 60 60"><title>152 - Target (Flat)</title><desc>Created with Sketch.</desc><g id="Page-1" fill="none" fill-rule="evenodd" stroke="none" stroke-width="1"><g id="152---Target-(Flat)" stroke="#424A60" stroke-linecap="round" stroke-linejoin="round" stroke-width="2" transform="translate(1.000000, 1.000000)"><path id="Stroke-1050" d="M55,29 C55,43.359 43.359,55 29,55 C14.641,55 3,43.359 3,29 C3,14.641 14.641,3 29,3 C43.359,3 55,14.641 55,29 L55,29 Z M0,29 L6,29 L0,29 Z M52,29 L58,29 L52,29 Z M35,29 L41,29 L35,29 Z M17,29 L23,29 L17,29 Z M29,58 L29,52 L29,58 Z M29,6 L29,0 L29,6 Z M29,23 L29,17 L29,23 Z M29,41 L29,35 L29,41 Z M35,29 C35,32.314 32.314,35 29,35 C25.686,35 23,32.314 23,29 C23,25.686 25.686,23 29,23 C32.314,23 35,25.686 35,29 L35,29 Z"/></g></g></svg>