<svg xmlns="http://www.w3.org/2000/svg" xmlns:xlink="http://www.w3.org/1999/xlink" width="44" height="58" version="1.1" viewBox="0 0 44 58"><title>13 - Tech Power (Flat)</title><desc>Created with Sketch.</desc><g id="Page-1" fill="none" fill-rule="evenodd" stroke="none" stroke-width="1"><g id="13---Tech-Power-(Flat)"><path id="Fill-1496" fill="#C8D2D6" d="M19,47 L43,47 L43,58 L19,58 L19,47 Z"/><path id="Fill-1497" fill="#E8EDEE" d="M35,58 L19,58 L19,47 L28.425,47 C32.056,47 35,49.944 35,53.575 L35,58"/><path id="Fill-1498" fill="#7383BF" d="M31,52.5 C31,53.881 29.881,55 28.5,55 C27.119,55 26,53.881 26,52.5 C26,51.119 27.119,50 28.5,50 C29.881,50 31,51.119 31,52.5"/><path id="Fill-1499" fill="#FCCF9D" d="M26.904,10.702 C28.137,10.161 29,8.933 29,7.5 C29,5.567 27.433,4 25.5,4 C24.067,4 22.839,4.864 22.298,6.096 L26.904,10.702"/><path id="Fill-1500" fill="#FCCF9D" d="M31.904,15.702 C33.137,15.161 34,13.933 34,12.5 C34,10.567 32.433,9 30.5,9 C29.067,9 27.839,9.864 27.298,11.096 L31.904,15.702"/><path id="Fill-1501" fill="#FCCF9D" d="M36.904,20.702 C38.137,20.161 39,18.933 39,17.5 C39,15.567 37.433,14 35.5,14 C34.067,14 32.839,14.863 32.298,16.096 L36.904,20.702"/><path id="Fill-1502" fill="#FCCF9D" d="M41.904,25.702 C43.137,25.161 44,23.933 44,22.5 C44,20.567 42.433,19 40.5,19 C39.067,19 37.839,19.864 37.298,21.096 L41.904,25.702"/><path id="Fill-1503" fill="#FCCF9D" d="M21.5,33 L11.5,33 C9.575,33 8,31.425 8,29.5 C8,27.575 9.575,26 11.5,26 L21.5,26 C23.425,26 25,27.575 25,29.5 C25,31.425 23.425,33 21.5,33"/><path id="Fill-1504" fill="#F8B563" d="M42.136,31.562 L31.016,42.682 C30.12,43.578 28.668,43.578 27.772,42.682 L18.089,33 L11.5,33 C10.922,33.283 9.345,32.262 9.95,32.781 L20.762,43.551 C20.836,43.626 20.922,43.679 21,43.746 L21,47 L41,47 L41,42.49 C42.819,41.121 44,38.951 44,36.5 C44,34.607 43.293,32.883 42.136,31.562"/><path id="Fill-3136" fill="#424A60" d="M19.091,2.889 L3.535,18.446 L11.127,26.038 C11.251,26.025 11.372,26 11.5,26 L21.5,26 C23.425,26 25,27.575 25,29.5 C25,31.425 23.425,33 21.5,33 L18.089,33 L24.444,39.355 L40,23.799 L19.091,2.889"/><path id="Fill-3137" fill="#E8EDEE" d="M19.091,2.889 L16.874,0.672 C15.978,-0.224 14.526,-0.224 13.63,0.672 L1.318,12.984 C0.422,13.88 0.422,15.333 1.318,16.229 L3.535,18.446 L19.091,2.889"/><path id="Fill-3138" fill="#E8EDEE" d="M43.328,27.126 L40,23.799 L24.444,39.355 L27.772,42.682 C28.668,43.578 30.12,43.578 31.016,42.682 L43.328,30.371 C44.224,29.475 44.224,28.022 43.328,27.126"/><path id="Fill-3139" fill="#FFF" d="M36.5,33.5 C36.5,34.605 35.605,35.5 34.5,35.5 C33.395,35.5 32.5,34.605 32.5,33.5 C32.5,32.396 33.395,31.5 34.5,31.5 C35.605,31.5 36.5,32.396 36.5,33.5"/><path id="Fill-3140" fill="#424A60" d="M9,11 C8.744,11 8.488,10.902 8.293,10.707 C7.902,10.316 7.902,9.684 8.293,9.293 L10.293,7.293 C10.684,6.903 11.316,6.903 11.707,7.293 C12.098,7.684 12.098,8.317 11.707,8.707 L9.707,10.707 C9.512,10.902 9.256,11 9,11"/></g></g></svg>