<svg xmlns="http://www.w3.org/2000/svg" xmlns:xlink="http://www.w3.org/1999/xlink" width="44" height="58" version="1.1" viewBox="0 0 44 58"><title>150 - Time-Tracking (Flat)</title><desc>Created with Sketch.</desc><g id="Page-1" fill="none" fill-rule="evenodd" stroke="none" stroke-width="1"><g id="150---Time-Tracking-(Flat)"><path id="Fill-1527" fill="#23A24D" d="M42,4 L2,4 C0.895,4 0,3.105 0,2 C0,0.896 0.895,0 2,0 L42,0 C43.105,0 44,0.896 44,2 C44,3.105 43.105,4 42,4"/><path id="Fill-1528" fill="#23A24D" d="M42,58 L2,58 C0.895,58 0,57.105 0,56 C0,54.896 0.895,54 2,54 L42,54 C43.105,54 44,54.896 44,56 C44,57.105 43.105,58 42,58"/><path id="Fill-1529" fill="#7FABDA" d="M36,11 L36,4 L8,4 L8,11 C8,17.979 11.72,24.351 17.628,27.817 C18.528,28.345 18.528,29.655 17.628,30.183 C11.72,33.649 8,40.021 8,47 L8,54 L36,54 L36,47 C36,40.021 32.28,33.649 26.372,30.183 C25.472,29.655 25.472,28.345 26.372,27.817 C32.28,24.351 36,17.979 36,11"/><path id="Fill-2964" fill="#7296B7" d="M22,54 L36,54 L36,47 C36,40.021 32.28,33.649 26.372,30.183 C25.472,29.655 25.472,28.345 26.372,27.817 C32.28,24.351 36,17.979 36,11 L36,4 L22,4 L22,54"/><path id="Fill-2965" fill="#E8EDEE" d="M10,52 C9.448,52 9,52.448 9,53 C9,53.552 9.448,54 10,54 C10.552,54 11,53.552 11,53 C11,52.448 10.552,52 10,52"/><path id="Fill-2966" fill="#E8EDEE" d="M14,52 C13.448,52 13,52.448 13,53 C13,53.552 13.448,54 14,54 C14.552,54 15,53.552 15,53 C15,52.448 14.552,52 14,52"/><path id="Fill-2967" fill="#E8EDEE" d="M18,52 C17.448,52 17,52.448 17,53 C17,53.552 17.448,54 18,54 C18.552,54 19,53.552 19,53 C19,52.448 18.552,52 18,52"/><path id="Fill-2968" fill="#E8EDEE" d="M22,52 C21.448,52 21,52.448 21,53 C21,53.552 21.448,54 22,54 C22.552,54 23,53.552 23,53 C23,52.448 22.552,52 22,52"/><path id="Fill-2969" fill="#E8EDEE" d="M26,52 C25.448,52 25,52.448 25,53 C25,53.552 25.448,54 26,54 C26.552,54 27,53.552 27,53 C27,52.448 26.552,52 26,52"/><path id="Fill-2970" fill="#E8EDEE" d="M30,52 C29.448,52 29,52.448 29,53 C29,53.552 29.448,54 30,54 C30.552,54 31,53.552 31,53 C31,52.448 30.552,52 30,52"/><path id="Fill-2971" fill="#E8EDEE" d="M34,52 C33.448,52 33,52.448 33,53 C33,53.552 33.448,54 34,54 C34.552,54 35,53.552 35,53 C35,52.448 34.552,52 34,52"/><path id="Fill-2972" fill="#E8EDEE" d="M12,50 C11.448,50 11,50.448 11,51 C11,51.552 11.448,52 12,52 C12.552,52 13,51.552 13,51 C13,50.448 12.552,50 12,50"/><path id="Fill-2973" fill="#E8EDEE" d="M16,50 C15.448,50 15,50.448 15,51 C15,51.552 15.448,52 16,52 C16.552,52 17,51.552 17,51 C17,50.448 16.552,50 16,50"/><path id="Fill-2974" fill="#E8EDEE" d="M20,50 C19.448,50 19,50.448 19,51 C19,51.552 19.448,52 20,52 C20.552,52 21,51.552 21,51 C21,50.448 20.552,50 20,50"/><path id="Fill-2975" fill="#E8EDEE" d="M24,50 C23.448,50 23,50.448 23,51 C23,51.552 23.448,52 24,52 C24.552,52 25,51.552 25,51 C25,50.448 24.552,50 24,50"/><path id="Fill-2976" fill="#E8EDEE" d="M28,50 C27.448,50 27,50.448 27,51 C27,51.552 27.448,52 28,52 C28.552,52 29,51.552 29,51 C29,50.448 28.552,50 28,50"/><path id="Fill-2977" fill="#E8EDEE" d="M32,50 C31.448,50 31,50.448 31,51 C31,51.552 31.448,52 32,52 C32.552,52 33,51.552 33,51 C33,50.448 32.552,50 32,50"/><path id="Fill-2978" fill="#E8EDEE" d="M14,50 C14.552,50 15,49.552 15,49 C15,48.448 14.552,48 14,48 C13.448,48 13,48.448 13,49 C13,49.552 13.448,50 14,50"/><path id="Fill-2979" fill="#E8EDEE" d="M18,48 C17.448,48 17,48.448 17,49 C17,49.552 17.448,50 18,50 C18.552,50 19,49.552 19,49 C19,48.448 18.552,48 18,48"/><path id="Fill-2980" fill="#E8EDEE" d="M22,31 C21.448,31 21,31.448 21,32 C21,32.552 21.448,33 22,33 C22.552,33 23,32.552 23,32 C23,31.448 22.552,31 22,31"/><path id="Fill-2981" fill="#E8EDEE" d="M16,22 C16.552,22 17,21.552 17,21 C17,20.448 16.552,20 16,20 C15.448,20 15,20.448 15,21 C15,21.552 15.448,22 16,22"/><path id="Fill-2982" fill="#E8EDEE" d="M20,22 C20.552,22 21,21.552 21,21 C21,20.448 20.552,20 20,20 C19.448,20 19,20.448 19,21 C19,21.552 19.448,22 20,22"/><path id="Fill-2983" fill="#E8EDEE" d="M24,22 C24.552,22 25,21.552 25,21 C25,20.448 24.552,20 24,20 C23.448,20 23,20.448 23,21 C23,21.552 23.448,22 24,22"/><path id="Fill-2984" fill="#E8EDEE" d="M28,20 C27.448,20 27,20.448 27,21 C27,21.552 27.448,22 28,22 C28.552,22 29,21.552 29,21 C29,20.448 28.552,20 28,20"/><path id="Fill-2985" fill="#E8EDEE" d="M26,20 C26.552,20 27,19.552 27,19 C27,18.448 26.552,18 26,18 C25.448,18 25,18.448 25,19 C25,19.552 25.448,20 26,20"/><path id="Fill-2986" fill="#E8EDEE" d="M28,18 C28.552,18 29,17.552 29,17 C29,16.448 28.552,16 28,16 C27.448,16 27,16.448 27,17 C27,17.552 27.448,18 28,18"/><path id="Fill-2987" fill="#E8EDEE" d="M18,20 C18.552,20 19,19.552 19,19 C19,18.448 18.552,18 18,18 C17.448,18 17,18.448 17,19 C17,19.552 17.448,20 18,20"/><path id="Fill-2988" fill="#E8EDEE" d="M22,20 C22.552,20 23,19.552 23,19 C23,18.448 22.552,18 22,18 C21.448,18 21,18.448 21,19 C21,19.552 21.448,20 22,20"/><path id="Fill-2989" fill="#E8EDEE" d="M16,18 C16.552,18 17,17.552 17,17 C17,16.448 16.552,16 16,16 C15.448,16 15,16.448 15,17 C15,17.552 15.448,18 16,18"/><path id="Fill-2990" fill="#E8EDEE" d="M18,22 C17.448,22 17,22.448 17,23 C17,23.552 17.448,24 18,24 C18.552,24 19,23.552 19,23 C19,22.448 18.552,22 18,22"/><path id="Fill-2991" fill="#E8EDEE" d="M20,26 C20.552,26 21,25.552 21,25 C21,24.448 20.552,24 20,24 C19.448,24 19,24.448 19,25 C19,25.552 19.448,26 20,26"/><path id="Fill-2992" fill="#E8EDEE" d="M24,26 C24.552,26 25,25.552 25,25 C25,24.448 24.552,24 24,24 C23.448,24 23,24.448 23,25 C23,25.552 23.448,26 24,26"/><path id="Fill-2993" fill="#E8EDEE" d="M22,22 C21.448,22 21,22.448 21,23 C21,23.552 21.448,24 22,24 C22.552,24 23,23.552 23,23 C23,22.448 22.552,22 22,22"/><path id="Fill-2994" fill="#E8EDEE" d="M26,22 C25.448,22 25,22.448 25,23 C25,23.552 25.448,24 26,24 C26.552,24 27,23.552 27,23 C27,22.448 26.552,22 26,22"/><path id="Fill-2995" fill="#E8EDEE" d="M22,34 C21.448,34 21,34.448 21,35 C21,35.552 21.448,36 22,36 C22.552,36 23,35.552 23,35 C23,34.448 22.552,34 22,34"/><path id="Fill-2996" fill="#E8EDEE" d="M22,37 C21.448,37 21,37.448 21,38 C21,38.552 21.448,39 22,39 C22.552,39 23,38.552 23,38 C23,37.448 22.552,37 22,37"/><path id="Fill-2997" fill="#E8EDEE" d="M22,40 C21.448,40 21,40.448 21,41 C21,41.552 21.448,42 22,42 C22.552,42 23,41.552 23,41 C23,40.448 22.552,40 22,40"/><path id="Fill-2998" fill="#E8EDEE" d="M22,43 C21.448,43 21,43.448 21,44 C21,44.552 21.448,45 22,45 C22.552,45 23,44.552 23,44 C23,43.448 22.552,43 22,43"/><path id="Fill-2999" fill="#E8EDEE" d="M22,46 C21.448,46 21,46.448 21,47 C21,47.552 21.448,48 22,48 C22.552,48 23,47.552 23,47 C23,46.448 22.552,46 22,46"/><path id="Fill-3000" fill="#E8EDEE" d="M26,50 C26.552,50 27,49.552 27,49 C27,48.448 26.552,48 26,48 C25.448,48 25,48.448 25,49 C25,49.552 25.448,50 26,50"/><path id="Fill-3001" fill="#E8EDEE" d="M30,50 C30.552,50 31,49.552 31,49 C31,48.448 30.552,48 30,48 C29.448,48 29,48.448 29,49 C29,49.552 29.448,50 30,50"/></g></g></svg>