<?xml version="1.0" encoding="UTF-8" standalone="no"?>
<svg width="58px" height="59px" viewBox="0 0 58 59" version="1.1" xmlns="http://www.w3.org/2000/svg" xmlns:xlink="http://www.w3.org/1999/xlink" xmlns:sketch="http://www.bohemiancoding.com/sketch/ns">
    <!-- Generator: Sketch 3.2.2 (9983) - http://www.bohemiancoding.com/sketch -->
    <title>76 - Time (Flat)</title>
    <desc>Created with Sketch.</desc>
    <defs></defs>
    <g id="Page-1" stroke="none" stroke-width="1" fill="none" fill-rule="evenodd" sketch:type="MSPage">
        <g id="Icons" sketch:type="MSArtboardGroup" transform="translate(-601.000000, -3958.000000)">
            <g id="76---Time-(Flat)" sketch:type="MSLayerGroup" transform="translate(601.000000, 3958.000000)">
                <path d="M58,29.121 C58,45.138 45.016,58.121 29,58.121 C12.984,58.121 0,45.138 0,29.121 C0,13.105 12.984,0.122 29,0.122 C45.016,0.122 58,13.105 58,29.121" id="Fill-115" fill="#48A0DC" sketch:type="MSShapeGroup"></path>
                <path d="M0,29.121 C0,29.416 0.013,29.708 0.022,30 L29,30 L29,0.122 C12.984,0.122 0,13.105 0,29.121" id="Fill-116" fill="#F0CE49" sketch:type="MSShapeGroup"></path>
                <path d="M29,7 C28.448,7 28,7.447 28,8 L28,31 L13,31 C12.448,31 12,31.448 12,32 C12,32.553 12.448,33 13,33 L29,33 C29.552,33 30,32.553 30,32 L30,8 C30,7.447 29.552,7 29,7" id="Fill-1231" fill="#4393BF" sketch:type="MSShapeGroup"></path>
                <path d="M29,5.121 C28.448,5.121 28,5.568 28,6.121 L28,29.121 L13,29.121 C12.448,29.121 12,29.568 12,30.121 C12,30.674 12.448,31.121 13,31.121 L29,31.121 C29.552,31.121 30,30.674 30,30.121 L30,6.121 C30,5.568 29.552,5.121 29,5.121" id="Fill-1232" fill="#424A60" sketch:type="MSShapeGroup"></path>
            </g>
        </g>
    </g>
</svg>