<svg xmlns="http://www.w3.org/2000/svg" xmlns:xlink="http://www.w3.org/1999/xlink" width="50" height="60" version="1.1" viewBox="0 0 50 60"><title>148 - Time-Tracking (Flat)</title><desc>Created with Sketch.</desc><g id="Page-1" fill="none" fill-rule="evenodd" stroke="none" stroke-width="1"><g id="148---Time-Tracking-(Flat)"><path id="Fill-186" fill="#E6E6E6" d="M36.857,22.096 C38.82,20.786 40,18.583 40,16.222 L40,5 L10,5 L10,16.222 C10,18.583 11.18,20.786 13.143,22.096 L22.463,28.939 C22.8,29.187 23,29.581 23,30 C23,30.419 22.8,30.813 22.463,31.062 L13.143,37.904 C11.18,39.214 10,41.418 10,43.778 L10,55 L40,55 L40,43.778 C40,41.418 38.82,39.214 36.857,37.904 L27.537,31.062 C27.2,30.813 27,30.419 27,30 C27,29.581 27.2,29.187 27.537,28.939 L36.857,22.096"/><path id="Fill-1530" fill="#9E6C53" d="M5,55 L45,55 L45,59 L5,59 L5,55 Z"/><path id="Fill-1531" fill="#9E6C53" d="M5,1 L45,1 L45,5 L5,5 L5,1 Z"/><path id="Fill-1532" fill="#8A5336" d="M49,58 L1,58 C0.448,58 0,58.447 0,59 C0,59.553 0.448,60 1,60 L49,60 C49.552,60 50,59.553 50,59 C50,58.447 49.552,58 49,58"/><path id="Fill-1533" fill="#8A5336" d="M1,2 L49,2 C49.552,2 50,1.553 50,1 C50,0.448 49.552,0 49,0 L1,0 C0.448,0 0,0.448 0,1 C0,1.553 0.448,2 1,2"/><path id="Fill-2958" fill="#ECBA16" d="M35.192,19.6 C36.324,18.845 37,17.582 37,16.223 C37,14.917 36.111,13.778 34.844,13.461 L19.791,9.698 C16.342,8.835 13,11.445 13,15 L13,16.223 C13,17.582 13.676,18.845 14.808,19.6 L24,26.346 L24,42.223 C24,45.852 20.236,48.258 16.942,46.734 C15.168,45.913 13.02,47.128 13,49.083 L13,49.123 L13,55 L37,55 L37,43.778 L37,43.737 C36.981,41.806 35.111,40.415 33.208,40.746 L31.159,41.102 C28.465,41.571 26,39.497 26,36.763 L26,26.346 L35.192,19.6"/></g></g></svg>