<?xml version="1.0" encoding="UTF-8" standalone="no"?>
<svg width="39px" height="59px" viewBox="0 0 39 59" version="1.1" xmlns="http://www.w3.org/2000/svg" xmlns:xlink="http://www.w3.org/1999/xlink" xmlns:sketch="http://www.bohemiancoding.com/sketch/ns">
    <!-- Generator: Sketch 3.2.2 (9983) - http://www.bohemiancoding.com/sketch -->
    <title>349 - Trash Bin (Flat)</title>
    <desc>Created with Sketch.</desc>
    <defs></defs>
    <g id="Page-1" stroke="none" stroke-width="1" fill="none" fill-rule="evenodd" sketch:type="MSPage">
        <g id="Icons" sketch:type="MSArtboardGroup" transform="translate(-252.000000, -717.000000)">
            <g id="349---Trash-Bin-(Flat)" sketch:type="MSLayerGroup" transform="translate(252.000000, 718.000000)">
                <path d="M38.496,15.104 L0.865,9.815 L1.345,6.406 C1.541,5.007 2.834,4.033 4.232,4.229 L36.799,8.807 C38.197,9.003 39.171,10.296 38.975,11.694 L38.496,15.104" id="Fill-430" fill="#556080" sketch:type="MSShapeGroup"></path>
                <path d="M14.574,5.683 L15.131,1.722 C15.284,0.633 16.3,-0.133 17.389,0.02 L25.312,1.133 C26.401,1.286 27.167,2.303 27.014,3.392 L26.457,7.353 L14.574,5.683 L14.574,5.683 Z" id="Fill-431" fill="#FFFFFF" sketch:type="MSShapeGroup"></path>
                <path d="M14.574,5.683 L15.131,1.722 C15.284,0.633 16.3,-0.133 17.389,0.02 L25.312,1.133 C26.401,1.286 27.167,2.303 27.014,3.392 L26.457,7.353 L14.574,5.683 L14.574,5.683 Z" id="Stroke-432" stroke="#7383BF" stroke-width="2" stroke-linecap="round" sketch:type="MSShapeGroup"></path>
                <path d="M3.029,19 L13.657,19 L14,18.657 L8.343,13 L2.942,18.401 C2.801,18.542 2.801,18.771 2.942,18.913 L3.029,19" id="Fill-433" fill="#ECBA16" sketch:type="MSShapeGroup"></path>
                <path d="M15,16 L23,16 L23,19 L15,19 L15,16 Z" id="Fill-434" fill="#DD342E" sketch:type="MSShapeGroup"></path>
                <path d="M26,16 L31,16 L31,19 L26,19 L26,16 Z" id="Fill-435" fill="#694F87" sketch:type="MSShapeGroup"></path>
                <path d="M33.27,58 L4.729,58 C3.222,58 2,56.778 2,55.271 L2,19 L36,19 L36,55.271 C36,56.778 34.778,58 33.27,58" id="Fill-2446" fill="#556080" sketch:type="MSShapeGroup"></path>
                <path d="M7,26 C6.448,26 6,26.448 6,27 C6,27.552 6.448,28 7,28 C7.552,28 8,27.552 8,27 C8,26.448 7.552,26 7,26" id="Fill-2447" fill="#7383BF" sketch:type="MSShapeGroup"></path>
                <path d="M7,32 C6.448,32 6,32.448 6,33 C6,33.552 6.448,34 7,34 C7.552,34 8,33.552 8,33 C8,32.448 7.552,32 7,32" id="Fill-2448" fill="#7383BF" sketch:type="MSShapeGroup"></path>
                <path d="M10,23 C9.448,23 9,23.448 9,24 C9,24.552 9.448,25 10,25 C10.552,25 11,24.552 11,24 C11,23.448 10.552,23 10,23" id="Fill-2449" fill="#7383BF" sketch:type="MSShapeGroup"></path>
                <path d="M16,23 C15.448,23 15,23.448 15,24 C15,24.552 15.448,25 16,25 C16.552,25 17,24.552 17,24 C17,23.448 16.552,23 16,23" id="Fill-2450" fill="#7383BF" sketch:type="MSShapeGroup"></path>
                <path d="M10,29 C9.448,29 9,29.448 9,30 C9,30.552 9.448,31 10,31 C10.552,31 11,30.552 11,30 C11,29.448 10.552,29 10,29" id="Fill-2451" fill="#7383BF" sketch:type="MSShapeGroup"></path>
                <path d="M16,29 C15.448,29 15,29.448 15,30 C15,30.552 15.448,31 16,31 C16.552,31 17,30.552 17,30 C17,29.448 16.552,29 16,29" id="Fill-2452" fill="#7383BF" sketch:type="MSShapeGroup"></path>
                <path d="M13,26 C12.448,26 12,26.448 12,27 C12,27.552 12.448,28 13,28 C13.552,28 14,27.552 14,27 C14,26.448 13.552,26 13,26" id="Fill-2453" fill="#7383BF" sketch:type="MSShapeGroup"></path>
                <path d="M19,26 C18.448,26 18,26.448 18,27 C18,27.552 18.448,28 19,28 C19.552,28 20,27.552 20,27 C20,26.448 19.552,26 19,26" id="Fill-2454" fill="#7383BF" sketch:type="MSShapeGroup"></path>
                <path d="M13,32 C12.448,32 12,32.448 12,33 C12,33.552 12.448,34 13,34 C13.552,34 14,33.552 14,33 C14,32.448 13.552,32 13,32" id="Fill-2455" fill="#7383BF" sketch:type="MSShapeGroup"></path>
                <path d="M19,32 C18.448,32 18,32.448 18,33 C18,33.552 18.448,34 19,34 C19.552,34 20,33.552 20,33 C20,32.448 19.552,32 19,32" id="Fill-2456" fill="#7383BF" sketch:type="MSShapeGroup"></path>
                <path d="M22,23 C21.448,23 21,23.448 21,24 C21,24.552 21.448,25 22,25 C22.552,25 23,24.552 23,24 C23,23.448 22.552,23 22,23" id="Fill-2457" fill="#7383BF" sketch:type="MSShapeGroup"></path>
                <path d="M28,23 C27.448,23 27,23.448 27,24 C27,24.552 27.448,25 28,25 C28.552,25 29,24.552 29,24 C29,23.448 28.552,23 28,23" id="Fill-2458" fill="#7383BF" sketch:type="MSShapeGroup"></path>
                <path d="M22,29 C21.448,29 21,29.448 21,30 C21,30.552 21.448,31 22,31 C22.552,31 23,30.552 23,30 C23,29.448 22.552,29 22,29" id="Fill-2459" fill="#7383BF" sketch:type="MSShapeGroup"></path>
                <path d="M28,29 C27.448,29 27,29.448 27,30 C27,30.552 27.448,31 28,31 C28.552,31 29,30.552 29,30 C29,29.448 28.552,29 28,29" id="Fill-2460" fill="#7383BF" sketch:type="MSShapeGroup"></path>
                <path d="M25,26 C24.448,26 24,26.448 24,27 C24,27.552 24.448,28 25,28 C25.552,28 26,27.552 26,27 C26,26.448 25.552,26 25,26" id="Fill-2461" fill="#7383BF" sketch:type="MSShapeGroup"></path>
                <path d="M31,28 C31.552,28 32,27.552 32,27 C32,26.448 31.552,26 31,26 C30.448,26 30,26.448 30,27 C30,27.552 30.448,28 31,28" id="Fill-2462" fill="#7383BF" sketch:type="MSShapeGroup"></path>
                <path d="M25,32 C24.448,32 24,32.448 24,33 C24,33.552 24.448,34 25,34 C25.552,34 26,33.552 26,33 C26,32.448 25.552,32 25,32" id="Fill-2463" fill="#7383BF" sketch:type="MSShapeGroup"></path>
                <path d="M31,32 C30.448,32 30,32.448 30,33 C30,33.552 30.448,34 31,34 C31.552,34 32,33.552 32,33 C32,32.448 31.552,32 31,32" id="Fill-2464" fill="#7383BF" sketch:type="MSShapeGroup"></path>
                <path d="M7,38 C6.448,38 6,38.448 6,39 C6,39.552 6.448,40 7,40 C7.552,40 8,39.552 8,39 C8,38.448 7.552,38 7,38" id="Fill-2465" fill="#7383BF" sketch:type="MSShapeGroup"></path>
                <path d="M7,44 C6.448,44 6,44.448 6,45 C6,45.552 6.448,46 7,46 C7.552,46 8,45.552 8,45 C8,44.448 7.552,44 7,44" id="Fill-2466" fill="#7383BF" sketch:type="MSShapeGroup"></path>
                <path d="M10,35 C9.448,35 9,35.448 9,36 C9,36.552 9.448,37 10,37 C10.552,37 11,36.552 11,36 C11,35.448 10.552,35 10,35" id="Fill-2467" fill="#7383BF" sketch:type="MSShapeGroup"></path>
                <path d="M16,35 C15.448,35 15,35.448 15,36 C15,36.552 15.448,37 16,37 C16.552,37 17,36.552 17,36 C17,35.448 16.552,35 16,35" id="Fill-2468" fill="#7383BF" sketch:type="MSShapeGroup"></path>
                <path d="M10,41 C9.448,41 9,41.448 9,42 C9,42.552 9.448,43 10,43 C10.552,43 11,42.552 11,42 C11,41.448 10.552,41 10,41" id="Fill-2469" fill="#7383BF" sketch:type="MSShapeGroup"></path>
                <path d="M16,41 C15.448,41 15,41.448 15,42 C15,42.552 15.448,43 16,43 C16.552,43 17,42.552 17,42 C17,41.448 16.552,41 16,41" id="Fill-2470" fill="#7383BF" sketch:type="MSShapeGroup"></path>
                <path d="M13,38 C12.448,38 12,38.448 12,39 C12,39.552 12.448,40 13,40 C13.552,40 14,39.552 14,39 C14,38.448 13.552,38 13,38" id="Fill-2471" fill="#7383BF" sketch:type="MSShapeGroup"></path>
                <path d="M19,38 C18.448,38 18,38.448 18,39 C18,39.552 18.448,40 19,40 C19.552,40 20,39.552 20,39 C20,38.448 19.552,38 19,38" id="Fill-2472" fill="#7383BF" sketch:type="MSShapeGroup"></path>
                <path d="M13,44 C12.448,44 12,44.448 12,45 C12,45.552 12.448,46 13,46 C13.552,46 14,45.552 14,45 C14,44.448 13.552,44 13,44" id="Fill-2473" fill="#7383BF" sketch:type="MSShapeGroup"></path>
                <path d="M19,44 C18.448,44 18,44.448 18,45 C18,45.552 18.448,46 19,46 C19.552,46 20,45.552 20,45 C20,44.448 19.552,44 19,44" id="Fill-2474" fill="#7383BF" sketch:type="MSShapeGroup"></path>
                <path d="M22,35 C21.448,35 21,35.448 21,36 C21,36.552 21.448,37 22,37 C22.552,37 23,36.552 23,36 C23,35.448 22.552,35 22,35" id="Fill-2475" fill="#7383BF" sketch:type="MSShapeGroup"></path>
                <path d="M28,35 C27.448,35 27,35.448 27,36 C27,36.552 27.448,37 28,37 C28.552,37 29,36.552 29,36 C29,35.448 28.552,35 28,35" id="Fill-2476" fill="#7383BF" sketch:type="MSShapeGroup"></path>
                <path d="M22,41 C21.448,41 21,41.448 21,42 C21,42.552 21.448,43 22,43 C22.552,43 23,42.552 23,42 C23,41.448 22.552,41 22,41" id="Fill-2477" fill="#7383BF" sketch:type="MSShapeGroup"></path>
                <path d="M28,41 C27.448,41 27,41.448 27,42 C27,42.552 27.448,43 28,43 C28.552,43 29,42.552 29,42 C29,41.448 28.552,41 28,41" id="Fill-2478" fill="#7383BF" sketch:type="MSShapeGroup"></path>
                <path d="M25,38 C24.448,38 24,38.448 24,39 C24,39.552 24.448,40 25,40 C25.552,40 26,39.552 26,39 C26,38.448 25.552,38 25,38" id="Fill-2479" fill="#7383BF" sketch:type="MSShapeGroup"></path>
                <path d="M31,38 C30.448,38 30,38.448 30,39 C30,39.552 30.448,40 31,40 C31.552,40 32,39.552 32,39 C32,38.448 31.552,38 31,38" id="Fill-2480" fill="#7383BF" sketch:type="MSShapeGroup"></path>
                <path d="M25,44 C24.448,44 24,44.448 24,45 C24,45.552 24.448,46 25,46 C25.552,46 26,45.552 26,45 C26,44.448 25.552,44 25,44" id="Fill-2481" fill="#7383BF" sketch:type="MSShapeGroup"></path>
                <path d="M31,44 C30.448,44 30,44.448 30,45 C30,45.552 30.448,46 31,46 C31.552,46 32,45.552 32,45 C32,44.448 31.552,44 31,44" id="Fill-2482" fill="#7383BF" sketch:type="MSShapeGroup"></path>
                <path d="M7,50 C6.448,50 6,50.448 6,51 C6,51.552 6.448,52 7,52 C7.552,52 8,51.552 8,51 C8,50.448 7.552,50 7,50" id="Fill-2483" fill="#7383BF" sketch:type="MSShapeGroup"></path>
                <path d="M10,47 C9.448,47 9,47.448 9,48 C9,48.552 9.448,49 10,49 C10.552,49 11,48.552 11,48 C11,47.448 10.552,47 10,47" id="Fill-2484" fill="#7383BF" sketch:type="MSShapeGroup"></path>
                <path d="M16,47 C15.448,47 15,47.448 15,48 C15,48.552 15.448,49 16,49 C16.552,49 17,48.552 17,48 C17,47.448 16.552,47 16,47" id="Fill-2485" fill="#7383BF" sketch:type="MSShapeGroup"></path>
                <path d="M10,53 C9.448,53 9,53.448 9,54 C9,54.552 9.448,55 10,55 C10.552,55 11,54.552 11,54 C11,53.448 10.552,53 10,53" id="Fill-2486" fill="#7383BF" sketch:type="MSShapeGroup"></path>
                <path d="M16,53 C15.448,53 15,53.448 15,54 C15,54.552 15.448,55 16,55 C16.552,55 17,54.552 17,54 C17,53.448 16.552,53 16,53" id="Fill-2487" fill="#7383BF" sketch:type="MSShapeGroup"></path>
                <path d="M13,50 C12.448,50 12,50.448 12,51 C12,51.552 12.448,52 13,52 C13.552,52 14,51.552 14,51 C14,50.448 13.552,50 13,50" id="Fill-2488" fill="#7383BF" sketch:type="MSShapeGroup"></path>
                <path d="M19,50 C18.448,50 18,50.448 18,51 C18,51.552 18.448,52 19,52 C19.552,52 20,51.552 20,51 C20,50.448 19.552,50 19,50" id="Fill-2489" fill="#7383BF" sketch:type="MSShapeGroup"></path>
                <path d="M22,47 C21.448,47 21,47.448 21,48 C21,48.552 21.448,49 22,49 C22.552,49 23,48.552 23,48 C23,47.448 22.552,47 22,47" id="Fill-2490" fill="#7383BF" sketch:type="MSShapeGroup"></path>
                <path d="M28,47 C27.448,47 27,47.448 27,48 C27,48.552 27.448,49 28,49 C28.552,49 29,48.552 29,48 C29,47.448 28.552,47 28,47" id="Fill-2491" fill="#7383BF" sketch:type="MSShapeGroup"></path>
                <path d="M22,53 C21.448,53 21,53.448 21,54 C21,54.552 21.448,55 22,55 C22.552,55 23,54.552 23,54 C23,53.448 22.552,53 22,53" id="Fill-2492" fill="#7383BF" sketch:type="MSShapeGroup"></path>
                <path d="M28,53 C27.448,53 27,53.448 27,54 C27,54.552 27.448,55 28,55 C28.552,55 29,54.552 29,54 C29,53.448 28.552,53 28,53" id="Fill-2493" fill="#7383BF" sketch:type="MSShapeGroup"></path>
                <path d="M25,50 C24.448,50 24,50.448 24,51 C24,51.552 24.448,52 25,52 C25.552,52 26,51.552 26,51 C26,50.448 25.552,50 25,50" id="Fill-2494" fill="#7383BF" sketch:type="MSShapeGroup"></path>
                <path d="M31,50 C30.448,50 30,50.448 30,51 C30,51.552 30.448,52 31,52 C31.552,52 32,51.552 32,51 C32,50.448 31.552,50 31,50" id="Fill-2495" fill="#7383BF" sketch:type="MSShapeGroup"></path>
            </g>
        </g>
    </g>
</svg>