<svg xmlns="http://www.w3.org/2000/svg" xmlns:xlink="http://www.w3.org/1999/xlink" width="48" height="58" version="1.1" viewBox="0 0 48 58"><title>347 - Trash Bin (Flat)</title><desc>Created with Sketch.</desc><g id="Page-1" fill="none" fill-rule="evenodd" stroke="none" stroke-width="1"><g id="Icons" transform="translate(-486.000000, -717.000000)"><g id="347---Trash-Bin-(Flat)" transform="translate(487.000000, 718.000000)"><path id="Stroke-440" stroke="#DD691D" stroke-width="2" d="M30.999,6 C30.999,6 31.155,0 26.999,0 L21.939,0 L22.061,0 L17,0 C12.844,0 13,6 13,6"/><path id="Stroke-441" stroke="#DD691D" stroke-linecap="round" stroke-linejoin="round" stroke-width="2" d="M0,6 L46,6"/><path id="Fill-491" fill="#DD691D" d="M3.166,10 L4.956,53 C4.956,53 5.04,57 8.864,57 L37.136,57 C40.96,57 41.044,53 41.044,53 L42.833,10 L3.166,10"/><path id="Stroke-492" stroke="#ECBA16" stroke-linecap="round" stroke-linejoin="round" stroke-width="2" d="M11,52 L35,52 M11,47 L35,47 M11,42 L35,42"/></g></g></g></svg>