<svg xmlns="http://www.w3.org/2000/svg" xmlns:xlink="http://www.w3.org/1999/xlink" width="48" height="58" version="1.1" viewBox="0 0 48 58"><title>348 - Trash Bin (Flat)</title><desc>Created with Sketch.</desc><g id="Page-1" fill="none" fill-rule="evenodd" stroke="none" stroke-width="1"><g id="Icons" transform="translate(-365.000000, -717.000000)"><g id="348---Trash-Bin-(Flat)" transform="translate(366.000000, 718.000000)"><path id="Fill-436" fill="#23A24D" d="M43,6 L41.044,53 C41.044,53 40.96,57 37.136,57 L8.864,57 C5.04,57 4.956,53 4.956,53 L3,6"/><path id="Stroke-437" stroke="#33636C" stroke-width="2" d="M30.999,6 C30.999,6 31.155,0 26.999,0 L21.939,0 L22.061,0 L17,0 C12.844,0 13,6 13,6"/><path id="Stroke-438" stroke="#61B972" stroke-linecap="round" stroke-linejoin="round" stroke-width="2" d="M23,16 L23,49 M13,16 L13,49 M33,16 L33,49"/><path id="Stroke-439" stroke="#33636C" stroke-linecap="round" stroke-linejoin="round" stroke-width="2" d="M0,6 L46,6"/></g></g></g></svg>