<?xml version="1.0" encoding="UTF-8" standalone="no"?>
<svg width="38px" height="52px" viewBox="0 0 38 52" version="1.1" xmlns="http://www.w3.org/2000/svg" xmlns:xlink="http://www.w3.org/1999/xlink" xmlns:sketch="http://www.bohemiancoding.com/sketch/ns">
    <!-- Generator: Sketch 3.2.2 (9983) - http://www.bohemiancoding.com/sketch -->
    <title>350 - Trash Bin (Flat)</title>
    <desc>Created with Sketch.</desc>
    <defs></defs>
    <g id="Page-1" stroke="none" stroke-width="1" fill="none" fill-rule="evenodd" sketch:type="MSPage">
        <g id="Icons" sketch:type="MSArtboardGroup" transform="translate(-129.000000, -721.000000)">
            <g id="350---Trash-Bin-(Flat)" sketch:type="MSLayerGroup" transform="translate(129.000000, 722.000000)">
                <path d="M33.27,51 L4.729,51 C3.222,51 2,49.778 2,48.271 L2,12 L36,12 L36,48.271 C36,49.778 34.778,51 33.27,51" id="Fill-426" fill="#E8EDEE" sketch:type="MSShapeGroup"></path>
                <path d="M38,12 L0,12 L0,8.557 C0,7.145 1.145,6 2.557,6 L35.443,6 C36.855,6 38,7.145 38,8.557 L38,12" id="Fill-427" fill="#C7D0D3" sketch:type="MSShapeGroup"></path>
                <path d="M13,6 L13,2 C13,0.9 13.9,0 15,0 L23,0 C24.1,0 25,0.9 25,2 L25,6 L13,6 L13,6 Z" id="Fill-428" fill="#FFFFFF" sketch:type="MSShapeGroup"></path>
                <path d="M13,6 L13,2 C13,0.9 13.9,0 15,0 L23,0 C24.1,0 25,0.9 25,2 L25,6 L13,6 L13,6 Z" id="Stroke-429" stroke="#556080" stroke-width="2" stroke-linecap="round" sketch:type="MSShapeGroup"></path>
                <path d="M7,19 C6.448,19 6,19.448 6,20 C6,20.552 6.448,21 7,21 C7.552,21 8,20.552 8,20 C8,19.448 7.552,19 7,19" id="Fill-442" fill="#C7D0D3" sketch:type="MSShapeGroup"></path>
                <path d="M7,25 C6.448,25 6,25.448 6,26 C6,26.552 6.448,27 7,27 C7.552,27 8,26.552 8,26 C8,25.448 7.552,25 7,25" id="Fill-443" fill="#C7D0D3" sketch:type="MSShapeGroup"></path>
                <path d="M10,16 C9.448,16 9,16.448 9,17 C9,17.552 9.448,18 10,18 C10.552,18 11,17.552 11,17 C11,16.448 10.552,16 10,16" id="Fill-444" fill="#C7D0D3" sketch:type="MSShapeGroup"></path>
                <path d="M16,16 C15.448,16 15,16.448 15,17 C15,17.552 15.448,18 16,18 C16.552,18 17,17.552 17,17 C17,16.448 16.552,16 16,16" id="Fill-445" fill="#C7D0D3" sketch:type="MSShapeGroup"></path>
                <path d="M10,22 C9.448,22 9,22.448 9,23 C9,23.552 9.448,24 10,24 C10.552,24 11,23.552 11,23 C11,22.448 10.552,22 10,22" id="Fill-446" fill="#C7D0D3" sketch:type="MSShapeGroup"></path>
                <path d="M16,22 C15.448,22 15,22.448 15,23 C15,23.552 15.448,24 16,24 C16.552,24 17,23.552 17,23 C17,22.448 16.552,22 16,22" id="Fill-447" fill="#C7D0D3" sketch:type="MSShapeGroup"></path>
                <path d="M13,19 C12.448,19 12,19.448 12,20 C12,20.552 12.448,21 13,21 C13.552,21 14,20.552 14,20 C14,19.448 13.552,19 13,19" id="Fill-448" fill="#C7D0D3" sketch:type="MSShapeGroup"></path>
                <path d="M19,19 C18.448,19 18,19.448 18,20 C18,20.552 18.448,21 19,21 C19.552,21 20,20.552 20,20 C20,19.448 19.552,19 19,19" id="Fill-449" fill="#C7D0D3" sketch:type="MSShapeGroup"></path>
                <path d="M13,25 C12.448,25 12,25.448 12,26 C12,26.552 12.448,27 13,27 C13.552,27 14,26.552 14,26 C14,25.448 13.552,25 13,25" id="Fill-450" fill="#C7D0D3" sketch:type="MSShapeGroup"></path>
                <path d="M19,25 C18.448,25 18,25.448 18,26 C18,26.552 18.448,27 19,27 C19.552,27 20,26.552 20,26 C20,25.448 19.552,25 19,25" id="Fill-451" fill="#C7D0D3" sketch:type="MSShapeGroup"></path>
                <path d="M22,16 C21.448,16 21,16.448 21,17 C21,17.552 21.448,18 22,18 C22.552,18 23,17.552 23,17 C23,16.448 22.552,16 22,16" id="Fill-452" fill="#C7D0D3" sketch:type="MSShapeGroup"></path>
                <path d="M28,16 C27.448,16 27,16.448 27,17 C27,17.552 27.448,18 28,18 C28.552,18 29,17.552 29,17 C29,16.448 28.552,16 28,16" id="Fill-453" fill="#C7D0D3" sketch:type="MSShapeGroup"></path>
                <path d="M22,22 C21.448,22 21,22.448 21,23 C21,23.552 21.448,24 22,24 C22.552,24 23,23.552 23,23 C23,22.448 22.552,22 22,22" id="Fill-454" fill="#C7D0D3" sketch:type="MSShapeGroup"></path>
                <path d="M28,22 C27.448,22 27,22.448 27,23 C27,23.552 27.448,24 28,24 C28.552,24 29,23.552 29,23 C29,22.448 28.552,22 28,22" id="Fill-455" fill="#C7D0D3" sketch:type="MSShapeGroup"></path>
                <path d="M25,19 C24.448,19 24,19.448 24,20 C24,20.552 24.448,21 25,21 C25.552,21 26,20.552 26,20 C26,19.448 25.552,19 25,19" id="Fill-456" fill="#C7D0D3" sketch:type="MSShapeGroup"></path>
                <path d="M31,21 C31.552,21 32,20.552 32,20 C32,19.448 31.552,19 31,19 C30.448,19 30,19.448 30,20 C30,20.552 30.448,21 31,21" id="Fill-457" fill="#C7D0D3" sketch:type="MSShapeGroup"></path>
                <path d="M25,25 C24.448,25 24,25.448 24,26 C24,26.552 24.448,27 25,27 C25.552,27 26,26.552 26,26 C26,25.448 25.552,25 25,25" id="Fill-458" fill="#C7D0D3" sketch:type="MSShapeGroup"></path>
                <path d="M31,25 C30.448,25 30,25.448 30,26 C30,26.552 30.448,27 31,27 C31.552,27 32,26.552 32,26 C32,25.448 31.552,25 31,25" id="Fill-459" fill="#C7D0D3" sketch:type="MSShapeGroup"></path>
                <path d="M7,31 C6.448,31 6,31.448 6,32 C6,32.552 6.448,33 7,33 C7.552,33 8,32.552 8,32 C8,31.448 7.552,31 7,31" id="Fill-460" fill="#C7D0D3" sketch:type="MSShapeGroup"></path>
                <path d="M7,37 C6.448,37 6,37.448 6,38 C6,38.552 6.448,39 7,39 C7.552,39 8,38.552 8,38 C8,37.448 7.552,37 7,37" id="Fill-461" fill="#C7D0D3" sketch:type="MSShapeGroup"></path>
                <path d="M10,28 C9.448,28 9,28.448 9,29 C9,29.552 9.448,30 10,30 C10.552,30 11,29.552 11,29 C11,28.448 10.552,28 10,28" id="Fill-462" fill="#C7D0D3" sketch:type="MSShapeGroup"></path>
                <path d="M16,28 C15.448,28 15,28.448 15,29 C15,29.552 15.448,30 16,30 C16.552,30 17,29.552 17,29 C17,28.448 16.552,28 16,28" id="Fill-463" fill="#C7D0D3" sketch:type="MSShapeGroup"></path>
                <path d="M10,34 C9.448,34 9,34.448 9,35 C9,35.552 9.448,36 10,36 C10.552,36 11,35.552 11,35 C11,34.448 10.552,34 10,34" id="Fill-464" fill="#C7D0D3" sketch:type="MSShapeGroup"></path>
                <path d="M16,34 C15.448,34 15,34.448 15,35 C15,35.552 15.448,36 16,36 C16.552,36 17,35.552 17,35 C17,34.448 16.552,34 16,34" id="Fill-465" fill="#C7D0D3" sketch:type="MSShapeGroup"></path>
                <path d="M13,31 C12.448,31 12,31.448 12,32 C12,32.552 12.448,33 13,33 C13.552,33 14,32.552 14,32 C14,31.448 13.552,31 13,31" id="Fill-466" fill="#C7D0D3" sketch:type="MSShapeGroup"></path>
                <path d="M19,31 C18.448,31 18,31.448 18,32 C18,32.552 18.448,33 19,33 C19.552,33 20,32.552 20,32 C20,31.448 19.552,31 19,31" id="Fill-467" fill="#C7D0D3" sketch:type="MSShapeGroup"></path>
                <path d="M13,37 C12.448,37 12,37.448 12,38 C12,38.552 12.448,39 13,39 C13.552,39 14,38.552 14,38 C14,37.448 13.552,37 13,37" id="Fill-468" fill="#C7D0D3" sketch:type="MSShapeGroup"></path>
                <path d="M19,37 C18.448,37 18,37.448 18,38 C18,38.552 18.448,39 19,39 C19.552,39 20,38.552 20,38 C20,37.448 19.552,37 19,37" id="Fill-469" fill="#C7D0D3" sketch:type="MSShapeGroup"></path>
                <path d="M22,28 C21.448,28 21,28.448 21,29 C21,29.552 21.448,30 22,30 C22.552,30 23,29.552 23,29 C23,28.448 22.552,28 22,28" id="Fill-470" fill="#C7D0D3" sketch:type="MSShapeGroup"></path>
                <path d="M28,28 C27.448,28 27,28.448 27,29 C27,29.552 27.448,30 28,30 C28.552,30 29,29.552 29,29 C29,28.448 28.552,28 28,28" id="Fill-471" fill="#C7D0D3" sketch:type="MSShapeGroup"></path>
                <path d="M22,34 C21.448,34 21,34.448 21,35 C21,35.552 21.448,36 22,36 C22.552,36 23,35.552 23,35 C23,34.448 22.552,34 22,34" id="Fill-472" fill="#C7D0D3" sketch:type="MSShapeGroup"></path>
                <path d="M28,34 C27.448,34 27,34.448 27,35 C27,35.552 27.448,36 28,36 C28.552,36 29,35.552 29,35 C29,34.448 28.552,34 28,34" id="Fill-473" fill="#C7D0D3" sketch:type="MSShapeGroup"></path>
                <path d="M25,31 C24.448,31 24,31.448 24,32 C24,32.552 24.448,33 25,33 C25.552,33 26,32.552 26,32 C26,31.448 25.552,31 25,31" id="Fill-474" fill="#C7D0D3" sketch:type="MSShapeGroup"></path>
                <path d="M31,31 C30.448,31 30,31.448 30,32 C30,32.552 30.448,33 31,33 C31.552,33 32,32.552 32,32 C32,31.448 31.552,31 31,31" id="Fill-475" fill="#C7D0D3" sketch:type="MSShapeGroup"></path>
                <path d="M25,37 C24.448,37 24,37.448 24,38 C24,38.552 24.448,39 25,39 C25.552,39 26,38.552 26,38 C26,37.448 25.552,37 25,37" id="Fill-476" fill="#C7D0D3" sketch:type="MSShapeGroup"></path>
                <path d="M31,37 C30.448,37 30,37.448 30,38 C30,38.552 30.448,39 31,39 C31.552,39 32,38.552 32,38 C32,37.448 31.552,37 31,37" id="Fill-477" fill="#C7D0D3" sketch:type="MSShapeGroup"></path>
                <path d="M7,43 C6.448,43 6,43.448 6,44 C6,44.552 6.448,45 7,45 C7.552,45 8,44.552 8,44 C8,43.448 7.552,43 7,43" id="Fill-478" fill="#C7D0D3" sketch:type="MSShapeGroup"></path>
                <path d="M10,40 C9.448,40 9,40.448 9,41 C9,41.552 9.448,42 10,42 C10.552,42 11,41.552 11,41 C11,40.448 10.552,40 10,40" id="Fill-479" fill="#C7D0D3" sketch:type="MSShapeGroup"></path>
                <path d="M16,40 C15.448,40 15,40.448 15,41 C15,41.552 15.448,42 16,42 C16.552,42 17,41.552 17,41 C17,40.448 16.552,40 16,40" id="Fill-480" fill="#C7D0D3" sketch:type="MSShapeGroup"></path>
                <path d="M10,46 C9.448,46 9,46.448 9,47 C9,47.552 9.448,48 10,48 C10.552,48 11,47.552 11,47 C11,46.448 10.552,46 10,46" id="Fill-481" fill="#C7D0D3" sketch:type="MSShapeGroup"></path>
                <path d="M16,46 C15.448,46 15,46.448 15,47 C15,47.552 15.448,48 16,48 C16.552,48 17,47.552 17,47 C17,46.448 16.552,46 16,46" id="Fill-482" fill="#C7D0D3" sketch:type="MSShapeGroup"></path>
                <path d="M13,43 C12.448,43 12,43.448 12,44 C12,44.552 12.448,45 13,45 C13.552,45 14,44.552 14,44 C14,43.448 13.552,43 13,43" id="Fill-483" fill="#C7D0D3" sketch:type="MSShapeGroup"></path>
                <path d="M19,43 C18.448,43 18,43.448 18,44 C18,44.552 18.448,45 19,45 C19.552,45 20,44.552 20,44 C20,43.448 19.552,43 19,43" id="Fill-484" fill="#C7D0D3" sketch:type="MSShapeGroup"></path>
                <path d="M22,40 C21.448,40 21,40.448 21,41 C21,41.552 21.448,42 22,42 C22.552,42 23,41.552 23,41 C23,40.448 22.552,40 22,40" id="Fill-485" fill="#C7D0D3" sketch:type="MSShapeGroup"></path>
                <path d="M28,40 C27.448,40 27,40.448 27,41 C27,41.552 27.448,42 28,42 C28.552,42 29,41.552 29,41 C29,40.448 28.552,40 28,40" id="Fill-486" fill="#C7D0D3" sketch:type="MSShapeGroup"></path>
                <path d="M22,46 C21.448,46 21,46.448 21,47 C21,47.552 21.448,48 22,48 C22.552,48 23,47.552 23,47 C23,46.448 22.552,46 22,46" id="Fill-487" fill="#C7D0D3" sketch:type="MSShapeGroup"></path>
                <path d="M28,46 C27.448,46 27,46.448 27,47 C27,47.552 27.448,48 28,48 C28.552,48 29,47.552 29,47 C29,46.448 28.552,46 28,46" id="Fill-488" fill="#C7D0D3" sketch:type="MSShapeGroup"></path>
                <path d="M25,43 C24.448,43 24,43.448 24,44 C24,44.552 24.448,45 25,45 C25.552,45 26,44.552 26,44 C26,43.448 25.552,43 25,43" id="Fill-489" fill="#C7D0D3" sketch:type="MSShapeGroup"></path>
                <path d="M31,43 C30.448,43 30,43.448 30,44 C30,44.552 30.448,45 31,45 C31.552,45 32,44.552 32,44 C32,43.448 31.552,43 31,43" id="Fill-490" fill="#C7D0D3" sketch:type="MSShapeGroup"></path>
            </g>
        </g>
    </g>
</svg>