<svg xmlns="http://www.w3.org/2000/svg" xmlns:xlink="http://www.w3.org/1999/xlink" width="42" height="57" version="1.1" viewBox="0 0 42 57"><title>289 - Unlocked (Flat)</title><desc>Created with Sketch.</desc><g id="Page-1" fill="none" fill-rule="evenodd" stroke="none" stroke-width="1"><g id="Icons" transform="translate(-250.000000, -1439.000000)"><g id="289---Unlocked-(Flat)" transform="translate(250.000000, 1441.000000)"><path id="Path" stroke="#424A60" stroke-linecap="round" stroke-width="4" d="M9,13.821 L9,10.601 C9,4.771 14.175,0 20.5,0 C26.825,0 32,4.771 32,10.601 L32,23"/><path id="Fill-635" fill="#ECBA16" d="M0,23 L42,23 L42,55 L0,55 L0,23 Z"/><path id="Fill-636" fill="#424A60" d="M21,43 L21,43 C19.35,43 18,41.65 18,40 L18,34 C18,32.35 19.35,31 21,31 C22.65,31 24,32.35 24,34 L24,40 C24,41.65 22.65,43 21,43"/><path id="Fill-637" fill="#38454F" d="M0,49 L42,49 L42,55 L0,55 L0,49 Z"/></g></g></g></svg>