<?xml version="1.0" encoding="UTF-8" standalone="no"?>
<svg width="42px" height="58px" viewBox="0 0 42 58" version="1.1" xmlns="http://www.w3.org/2000/svg" xmlns:xlink="http://www.w3.org/1999/xlink" xmlns:sketch="http://www.bohemiancoding.com/sketch/ns">
    <!-- Generator: Sketch 3.2.2 (9983) - http://www.bohemiancoding.com/sketch -->
    <title>287 - Unlocked (Flat)</title>
    <desc>Created with Sketch.</desc>
    <defs></defs>
    <g id="Page-1" stroke="none" stroke-width="1" fill="none" fill-rule="evenodd" sketch:type="MSPage">
        <g id="Icons" sketch:type="MSArtboardGroup" transform="translate(-489.000000, -1438.000000)">
            <g id="287---Unlocked-(Flat)" sketch:type="MSLayerGroup" transform="translate(489.000000, 1439.000000)">
                <path d="M32,27 C30.895,27 30,26.105 30,25 L30,12.601 C30,7.859 25.738,4 20.5,4 C15.262,4 11,7.859 11,12.601 L11,15.82 C11,16.925 10.104,17.82 9,17.82 C7.896,17.82 7,16.925 7,15.82 L7,12.601 C7,5.653 13.056,0 20.5,0 C27.944,0 34,5.653 34,12.601 L34,25 C34,26.105 33.104,27 32,27 L32,27 Z" id="Fill-258" fill="#C7CBC7" sketch:type="MSShapeGroup"></path>
                <path d="M32,27 C30.895,27 30,26.105 30,25 L30,12.601 C30,7.859 25.738,4 20.5,4 C15.262,4 11,7.859 11,12.601 L11,15.82 C11,16.925 10.104,17.82 9,17.82 C7.896,17.82 7,16.925 7,15.82 L7,12.601 C7,5.653 13.056,0 20.5,0 C27.944,0 34,5.653 34,12.601 L34,25 C34,26.105 33.104,27 32,27 L32,27 Z" id="Stroke-259" stroke="#C7CBC7" stroke-width="2" sketch:type="MSShapeGroup"></path>
                <path d="M0,25 L42,25 L42,57 L0,57 L0,25 Z" id="Fill-2531" fill="#7383BF" sketch:type="MSShapeGroup"></path>
                <path d="M21,25 L42,25 L42,57 L21,57 L21,25 Z" id="Fill-2532" fill="#6879AF" sketch:type="MSShapeGroup"></path>
                <path d="M34.586,56 L41,49.586 L41,46 L35.414,46 L25.414,56 L34.586,56" id="Fill-2533" fill="#ECBA16" sketch:type="MSShapeGroup"></path>
                <path d="M1,46 L1,53.586 L8.586,46 L1,46" id="Fill-2534" fill="#4F5970" sketch:type="MSShapeGroup"></path>
                <path d="M22.586,56 L32.586,46 L23.414,46 L13.414,56 L22.586,56" id="Fill-2535" fill="#424A60" sketch:type="MSShapeGroup"></path>
                <path d="M20.586,46 L11.414,46 L1.707,55.707 C1.512,55.903 1.256,56 1,56 L10.586,56 L20.586,46" id="Fill-2536" fill="#EBCC18" sketch:type="MSShapeGroup"></path>
                <path d="M41,56 L41,52.414 L37.414,56 L41,56" id="Fill-2537" fill="#424A60" sketch:type="MSShapeGroup"></path>
                <path d="M21,48.414 L13.414,56 L21,56 L21,48.414" id="Fill-2538" fill="#4F5970" sketch:type="MSShapeGroup"></path>
            </g>
        </g>
    </g>
</svg>