<svg xmlns="http://www.w3.org/2000/svg" xmlns:xlink="http://www.w3.org/1999/xlink" width="38" height="58" version="1.1" viewBox="0 0 38 58"><title>281 - Unlocked (Flat)</title><desc>Created with Sketch.</desc><g id="Page-1" fill="none" fill-rule="evenodd" stroke="none" stroke-width="1"><g id="Icons" transform="translate(-1211.000000, -1438.000000)"><g id="281---Unlocked-(Flat)" transform="translate(1211.000000, 1440.000000)"><path id="Stroke-254" stroke="#FBD490" stroke-linecap="round" stroke-linejoin="round" stroke-width="4" d="M29,22 L29,9.22 C29,4.149 24.5,0 19,0 C13.5,0 9,4.149 9,9.22"/><path id="Fill-2547" fill="#7383BF" d="M38,37 C38,47.494 29.493,56 19,56 C8.507,56 0,47.494 0,37 C0,26.507 8.507,18 19,18 C29.493,18 38,26.507 38,37"/><path id="Fill-2548" fill="#556080" d="M38,37 C38,26.507 29.493,18 19,18 L19,56 C29.493,56 38,47.494 38,37"/><path id="Fill-2549" fill="#424A60" d="M27,37 C27,41.418 23.418,45 19,45 C14.582,45 11,41.418 11,37 C11,32.582 14.582,29 19,29 C23.418,29 27,32.582 27,37 L27,37 Z"/><path id="Stroke-2550" stroke="#D8A852" stroke-linecap="round" stroke-linejoin="round" stroke-width="2" d="M27,37 C27,41.418 23.418,45 19,45 C14.582,45 11,41.418 11,37 C11,32.582 14.582,29 19,29 C23.418,29 27,32.582 27,37 L27,37 Z"/><path id="Stroke-2551" stroke="#D8A852" stroke-linecap="round" stroke-linejoin="round" stroke-width="2" d="M19,29 L19,25 M19,49 L19,45 M24.657,42.657 L27.485,45.485 M10.515,45.485 L13.343,42.657 M24.657,31.343 L27.485,28.515 M10.515,28.515 L13.343,31.343 M27,37 L31,37 M7,37 L11,37"/><path id="Fill-2552" fill="#556080" d="M23,37 C23,39.209 21.209,41 19,41 C16.791,41 15,39.209 15,37 C15,34.791 16.791,33 19,33 C21.209,33 23,34.791 23,37"/></g></g></g></svg>