<svg xmlns="http://www.w3.org/2000/svg" xmlns:xlink="http://www.w3.org/1999/xlink" width="42" height="54" version="1.1" viewBox="0 0 42 54"><title>285 - Unlocked (Flat)</title><desc>Created with Sketch.</desc><g id="Page-1" fill="none" fill-rule="evenodd" stroke="none" stroke-width="1"><g id="Icons" transform="translate(-730.000000, -1440.000000)"><g id="285---Unlocked-(Flat)" transform="translate(730.000000, 1440.000000)"><path id="Fill-2541" fill="#C7CBC7" d="M35.771,54 L6.229,54 C2.789,54 0,51.211 0,47.771 L0,28.229 C0,24.789 2.789,22 6.229,22 L35.771,22 C39.211,22 42,24.789 42,28.229 L42,47.771 C42,51.211 39.211,54 35.771,54"/><path id="Fill-2542" fill="#E8EDEE" d="M35.771,22 L21,22 L21,54 L35.771,54 C39.211,54 42,51.211 42,47.771 L42,28.229 C42,24.789 39.211,22 35.771,22"/><path id="Fill-2543" fill="#4B4C4F" d="M21,42 L21,42 C19.35,42 18,40.65 18,39 L18,33 C18,31.35 19.35,30 21,30 C22.65,30 24,31.35 24,33 L24,39 C24,40.65 22.65,42 21,42"/><path id="Fill-2545" fill="#546A79" d="M6,17.5 C7.104,17.5 8,16.604 8,15.5 C8,9.159 13.832,4 21,4 C28.168,4 34,9.159 34,15.5 L34,22 L35.771,22 C36.542,22 37.278,22.147 37.959,22.403 C37.986,22.273 38,22.138 38,22 L38,15.5 C38,6.953 30.374,0 21,0 C11.626,0 4,6.953 4,15.5 C4,16.604 4.895,17.5 6,17.5"/></g></g></g></svg>