<svg xmlns="http://www.w3.org/2000/svg" xmlns:xlink="http://www.w3.org/1999/xlink" width="38" height="58" version="1.1" viewBox="0 0 38 58"><title>283 - Unlocked (Flat)</title><desc>Created with Sketch.</desc><g id="Page-1" fill="none" fill-rule="evenodd" stroke="none" stroke-width="1"><g id="Icons" transform="translate(-972.000000, -1438.000000)"><g id="283---Unlocked-(Flat)" transform="translate(972.000000, 1440.000000)"><path id="Stroke-255" stroke="#D8A852" stroke-linecap="round" stroke-linejoin="round" stroke-width="4" d="M28,20.866 L28,9.22 C28,4.149 23.5,0 18,0 C12.5,0 8,4.149 8,9.22"/><path id="Fill-1865" fill="#E8EDEE" d="M38,37 C38,47.494 29.493,56 19,56 C8.507,56 0,47.494 0,37 C0,26.507 8.507,18 19,18 C29.493,18 38,26.507 38,37"/><path id="Fill-1866" fill="#C7CBC7" d="M38,37 C38,26.507 29.493,18 19,18 L19,56 C29.493,56 38,47.494 38,37"/><path id="Fill-1867" fill="#424A60" d="M19,42 L19,42 C17.35,42 16,40.65 16,39 L16,33 C16,31.35 17.35,30 19,30 C20.65,30 22,31.35 22,33 L22,39 C22,40.65 20.65,42 19,42"/></g></g></g></svg>