<svg xmlns="http://www.w3.org/2000/svg" xmlns:xlink="http://www.w3.org/1999/xlink" width="58" height="53" version="1.1" viewBox="0 0 58 53"><title>300 - Users (Flat)</title><desc>Created with Sketch.</desc><g id="Page-1" fill="none" fill-rule="evenodd" stroke="none" stroke-width="1"><g id="Icons" transform="translate(-121.000000, -1321.000000)"><g id="300---Users-(Flat)" transform="translate(121.000000, 1321.000000)"><path id="Fill-624" fill="#7383BF" d="M53.566,42.783 L44.014,38.007 C42.78,37.39 42,36.128 42,34.749 L42,31 C42.268,30.695 42.576,30.302 42.904,29.838 C44.205,28 45.19,25.977 45.873,23.854 C47.097,23.477 48,22.345 48,21 L48,17 C48,16.12 47.609,15.333 47,14.783 L47,9 C47,9 48.187,0 36,0 C23.812,0 25,9 25,9 L25,14.783 C24.391,15.333 24,16.12 24,17 L24,21 C24,22.054 24.554,22.981 25.383,23.517 C26.382,27.869 29,31 29,31 L29,34.655 C29,35.989 28.272,37.215 27.101,37.854 L18.18,42.72 C15.603,44.125 14,46.826 14,49.762 L14,53 L58,53 L58,49.958 C58,46.919 56.283,44.142 53.566,42.783"/><path id="Fill-625" fill="#556080" d="M18.18,42.72 L24.126,39.477 C24.092,39.444 24.12,39.434 24.191,39.441 L27.101,37.854 C28.272,37.215 29,35.989 29,34.655 L29,31 C29,31 27.938,29.726 26.908,27.678 C26.907,27.677 26.907,27.676 26.906,27.675 C26.772,27.407 26.639,27.124 26.508,26.831 C26.49,26.791 26.472,26.751 26.454,26.71 C26.321,26.407 26.191,26.094 26.067,25.767 C26.059,25.746 26.052,25.723 26.044,25.702 C25.936,25.412 25.835,25.112 25.738,24.806 C25.712,24.722 25.686,24.639 25.661,24.555 C25.56,24.216 25.464,23.873 25.383,23.517 C24.554,22.981 24,22.054 24,21 L24,17 C24,16.12 24.391,15.333 25,14.783 L25,9.136 C23.586,8.039 21.397,7 18,7 C8.437,7 8,15 8,15 L8,19.995 C7.474,20.47 7,21.149 7,21.909 L7,25.364 C7,26.274 7.479,27.075 8.194,27.537 C9.057,31.296 11.954,34 11.954,34 L11.954,37.157 C11.954,38.308 11.326,39.368 10.315,39.919 L3.61,44.122 C1.385,45.336 0,47.668 0,50.203 L0,53 L14,53 L14,49.762 C14,46.826 15.603,44.125 18.18,42.72"/></g></g></g></svg>