<svg xmlns="http://www.w3.org/2000/svg" xmlns:xlink="http://www.w3.org/1999/xlink" width="44" height="58" version="1.1" viewBox="0 0 44 58"><title>297 - User (Flat)</title><desc>Created with Sketch.</desc><g id="Page-1" fill="none" fill-rule="evenodd" stroke="none" stroke-width="1"><g id="Icons" fill="#9777A8" transform="translate(-490.000000, -1318.000000)"><g id="297---User-(Flat)" transform="translate(490.000000, 1318.000000)"><path id="Fill-649" d="M44,50.958 C44,47.919 42.283,45.142 39.566,43.783 L28.539,39.007 C27.936,38.706 27.445,38.063 27.099,37.368 C26.787,36.739 27.253,36 27.954,36 L35.72,36 C35.72,36 38.568,36.273 40.764,35.33 C42.05,34.777 42.494,33.163 41.689,32.017 C39.336,28.668 34.473,20.782 34.316,12.638 C34.316,12.638 34.046,0.102 21.678,0 C14.463,0.06 11.055,4.307 9.468,7.835 C8.582,9.804 8.203,11.95 8.06,14.104 C7.547,21.867 3.594,29.195 1.752,32.23 C1.127,33.259 1.429,34.629 2.463,35.247 C4.157,36.26 6.231,36 6.231,36 L14.18,36 C14.955,36 15.297,36.979 14.688,37.459 C14.192,37.85 13.72,38.204 13.464,38.343 L4.18,43.72 C1.603,45.125 0,47.826 0,50.762 L0,52 L0,53 C0,55.762 9.85,58 22,58 C34.15,58 44,55.762 44,53 L44,52 L44,50.958"/></g></g></g></svg>