<svg xmlns="http://www.w3.org/2000/svg" xmlns:xlink="http://www.w3.org/1999/xlink" width="58" height="46" version="1.1" viewBox="0 0 58 46"><title>280 - Video (Flat)</title><desc>Created with Sketch.</desc><g id="Page-1" fill="none" fill-rule="evenodd" stroke="none" stroke-width="1"><g id="Icons" transform="translate(-121.000000, -1565.000000)"><g id="280---Video-(Flat)" transform="translate(122.000000, 1566.000000)"><path id="Fill-660" fill="#7383BF" d="M0,0 L56,0 L56,44 L0,44 L0,0 Z"/><path id="Stroke-661" stroke="#424A60" stroke-width="2" d="M0,0 L56,0 L56,44 L0,44 L0,0 Z"/><path id="Fill-662" fill="#FFF" d="M24,29 L24,15 L35,22 L24,29"/><path id="Fill-665" fill="#556080" d="M0,0 L10,0 L10,11 L0,11 L0,0 Z"/><path id="Stroke-666" stroke="#424A60" stroke-width="2" d="M0,0 L10,0 L10,11 L0,11 L0,0 Z"/><path id="Fill-667" fill="#556080" d="M0,11 L10,11 L10,22 L0,22 L0,11 Z"/><path id="Stroke-668" stroke="#424A60" stroke-width="2" d="M0,11 L10,11 L10,22 L0,22 L0,11 Z"/><path id="Fill-669" fill="#556080" d="M0,22 L10,22 L10,33 L0,33 L0,22 Z"/><path id="Stroke-670" stroke="#424A60" stroke-width="2" d="M0,22 L10,22 L10,33 L0,33 L0,22 Z"/><path id="Fill-671" fill="#556080" d="M0,33 L10,33 L10,44 L0,44 L0,33 Z"/><path id="Stroke-672" stroke="#424A60" stroke-width="2" d="M0,33 L10,33 L10,44 L0,44 L0,33 Z"/><path id="Fill-673" fill="#556080" d="M46,0 L56,0 L56,11 L46,11 L46,0 Z"/><path id="Stroke-674" stroke="#424A60" stroke-width="2" d="M46,0 L56,0 L56,11 L46,11 L46,0 Z"/><path id="Fill-675" fill="#556080" d="M46,11 L56,11 L56,22 L46,22 L46,11 Z"/><path id="Stroke-676" stroke="#424A60" stroke-width="2" d="M46,11 L56,11 L56,22 L46,22 L46,11 Z"/><path id="Fill-677" fill="#556080" d="M46,22 L56,22 L56,33 L46,33 L46,22 Z"/><path id="Stroke-678" stroke="#424A60" stroke-width="2" d="M46,22 L56,22 L56,33 L46,33 L46,22 Z"/><path id="Fill-679" fill="#556080" d="M46,33 L56,33 L56,44 L46,44 L46,33 Z"/><path id="Stroke-680" stroke="#424A60" stroke-width="2" d="M46,33 L56,33 L56,44 L46,44 L46,33 Z"/></g></g></g></svg>