<svg xmlns="http://www.w3.org/2000/svg" xmlns:xlink="http://www.w3.org/1999/xlink" width="58" height="25" version="1.1" viewBox="0 0 58 25"><title>367 - Views (Flat)</title><desc>Created with Sketch.</desc><g id="Page-1" fill="none" fill-rule="evenodd" stroke="none" stroke-width="1"><g id="Icons" transform="translate(-481.000000, -494.000000)"><g id="367---Views-(Flat)" transform="translate(482.000000, 495.000000)"><path id="Fill-316" fill="#3083C9" d="M40.028,12 C40.028,18.628 34.655,24 28.028,24 C21.4,24 16.028,18.628 16.028,12 C16.028,5.373 21.4,0 28.028,0 C34.655,0 40.028,5.373 40.028,12"/><path id="Stroke-317" stroke="#C6E3F8" stroke-linecap="round" stroke-width="2" d="M35.055,12 C35.055,15.866 31.921,19 28.055,19 C24.189,19 21.055,15.866 21.055,12 C21.055,8.134 24.189,5 28.055,5"/><path id="Stroke-2266" stroke="#556080" stroke-linecap="round" stroke-width="2" d="M0.055,11.837 L0.285,11.604 C15.634,-3.868 40.651,-3.868 56,11.604"/></g></g></g></svg>