<?xml version="1.0" encoding="UTF-8" standalone="no"?>
<svg width="58px" height="25px" viewBox="0 0 58 25" version="1.1" xmlns="http://www.w3.org/2000/svg" xmlns:xlink="http://www.w3.org/1999/xlink" xmlns:sketch="http://www.bohemiancoding.com/sketch/ns">
    <!-- Generator: Sketch 3.2.2 (9983) - http://www.bohemiancoding.com/sketch -->
    <title>368 - View (Flat)</title>
    <desc>Created with Sketch.</desc>
    <defs></defs>
    <g id="Page-1" stroke="none" stroke-width="1" fill="none" fill-rule="evenodd" sketch:type="MSPage">
        <g id="Icons" sketch:type="MSArtboardGroup" transform="translate(-361.000000, -494.000000)">
            <g id="368---View-(Flat)" sketch:type="MSLayerGroup" transform="translate(362.000000, 495.000000)">
                <path d="M40.055,12 C40.055,18.628 34.682,24 28.055,24 C21.428,24 16.055,18.628 16.055,12 C16.055,5.373 21.428,0 28.055,0 C34.682,0 40.055,5.373 40.055,12" id="Fill-313" fill="#25AE88" sketch:type="MSShapeGroup"></path>
                <path d="M22.055,13 C21.503,13 21.055,12.552 21.055,12 C21.055,8.14 24.195,5 28.055,5 C28.607,5 29.055,5.448 29.055,6 C29.055,6.552 28.607,7 28.055,7 C25.298,7 23.055,9.243 23.055,12 C23.055,12.552 22.607,13 22.055,13" id="Fill-314" fill="#A4E869" sketch:type="MSShapeGroup"></path>
                <path d="M0.055,11.837 L0.285,11.604 C15.634,-3.868 40.651,-3.868 56,11.604" id="Stroke-315" stroke="#556080" stroke-width="2" stroke-linecap="round" sketch:type="MSShapeGroup"></path>
            </g>
        </g>
    </g>
</svg>