<svg xmlns="http://www.w3.org/2000/svg" xmlns:xlink="http://www.w3.org/1999/xlink" width="32" height="57" version="1.1" viewBox="0 0 32 57"><title>318 - Voice (Flat)</title><desc>Created with Sketch.</desc><g id="Page-1" fill="none" fill-rule="evenodd" stroke="none" stroke-width="1"><g id="Icons" transform="translate(-374.000000, -1079.000000)"><g id="318---Voice-(Flat)" transform="translate(375.000000, 1079.000000)"><path id="Stroke-551" stroke="#556080" stroke-linecap="round" stroke-width="2" d="M30,28 L30,34 C30,42.271 23.271,49 15,49 C6.728,49 0,42.271 0,34 L0,28"/><path id="Fill-552" fill="#C7CBC7" d="M15,44 L15,44 C9.5,44 5,39.5 5,34 L5,10 C5,4.5 9.5,0 15,0 C20.5,0 25,4.5 25,10 L25,34 C25,39.5 20.5,44 15,44"/><path id="Path" stroke="#556080" stroke-linecap="round" stroke-width="2" d="M15,49 L15,56"/><path id="Path" stroke="#556080" stroke-linecap="round" stroke-width="2" d="M21,56 L9,56"/><path id="Fill-2508" fill="#B0B6BB" d="M25,34 L25,10 C25,4.5 20.5,0 15,0 L15,44 C20.5,44 25,39.5 25,34"/></g></g></g></svg>