<svg xmlns="http://www.w3.org/2000/svg" xmlns:xlink="http://www.w3.org/1999/xlink" width="58" height="59" version="1.1" viewBox="0 0 58 59"><title>184 - Wi-Fi Signal (Flat)</title><desc>Created with Sketch.</desc><g id="Page-1" fill="none" fill-rule="evenodd" stroke="none" stroke-width="1"><g id="184---Wi-Fi-Signal-(Flat)"><path id="Fill-903" fill="#ED8A19" d="M9.214,41.598 C8.958,41.598 8.702,41.5 8.507,41.305 C-2.8,29.998 -2.8,11.6 8.507,0.293 C8.897,-0.097 9.53,-0.097 9.921,0.293 C10.311,0.684 10.311,1.317 9.921,1.707 C-0.606,12.234 -0.606,29.364 9.921,39.891 C10.311,40.281 10.311,40.914 9.921,41.305 C9.726,41.5 9.47,41.598 9.214,41.598"/><path id="Fill-904" fill="#ED8A19" d="M48.812,41.598 C48.556,41.598 48.3,41.5 48.104,41.305 C47.714,40.914 47.714,40.281 48.104,39.891 C53.196,34.8 56,28.02 56,20.799 C56,13.578 53.196,6.798 48.104,1.707 C47.714,1.317 47.714,0.684 48.104,0.293 C48.495,-0.097 49.128,-0.097 49.519,0.293 C54.988,5.762 58,13.044 58,20.799 C58,28.554 54.988,35.836 49.519,41.305 C49.323,41.5 49.067,41.598 48.812,41.598"/><path id="Fill-905" fill="#ECBA16" d="M13.457,37.356 C13.201,37.356 12.945,37.258 12.75,37.063 C3.782,28.095 3.782,13.503 12.75,4.535 C13.141,4.145 13.773,4.145 14.164,4.535 C14.555,4.926 14.555,5.559 14.164,5.949 C5.977,14.138 5.977,27.46 14.164,35.648 C14.555,36.039 14.555,36.672 14.164,37.063 C13.969,37.258 13.713,37.356 13.457,37.356"/><path id="Fill-906" fill="#ECBA16" d="M44.569,37.356 C44.313,37.356 44.058,37.258 43.862,37.063 C43.472,36.672 43.472,36.039 43.862,35.648 C52.05,27.46 52.05,14.138 43.862,5.949 C43.472,5.559 43.472,4.926 43.862,4.535 C44.253,4.145 44.886,4.145 45.276,4.535 C54.244,13.503 54.244,28.095 45.276,37.063 C45.081,37.258 44.825,37.356 44.569,37.356"/><path id="Fill-907" fill="#F0CE49" d="M17.699,33.112 C17.443,33.112 17.187,33.015 16.992,32.819 C13.786,29.613 12.021,25.345 12.021,20.799 C12.021,16.253 13.786,11.985 16.992,8.778 C17.383,8.388 18.016,8.388 18.406,8.778 C18.797,9.169 18.797,9.802 18.406,10.193 C12.558,16.041 12.558,25.557 18.406,31.405 C18.797,31.796 18.797,32.429 18.406,32.819 C18.211,33.015 17.955,33.112 17.699,33.112"/><path id="Fill-908" fill="#F0CE49" d="M40.327,33.112 C40.071,33.112 39.815,33.015 39.62,32.819 C39.229,32.429 39.229,31.796 39.62,31.405 C45.469,25.557 45.469,16.041 39.62,10.193 C39.229,9.802 39.229,9.169 39.62,8.778 C40.011,8.388 40.644,8.388 41.034,8.778 C44.24,11.985 46.006,16.253 46.006,20.799 C46.006,25.345 44.24,29.613 41.034,32.819 C40.839,33.015 40.583,33.112 40.327,33.112"/><path id="Fill-909" fill="#DD691D" d="M35.013,21 C35.013,17.687 32.327,15 29.013,15 C25.699,15 23.013,17.687 23.013,21 C23.013,23.979 25.185,26.443 28.03,26.913 C28.028,26.943 28.013,26.969 28.013,27 L28.013,58 C28.013,58.553 28.46,59 29.013,59 C29.565,59 30.013,58.553 30.013,58 L30.013,27 C30.013,26.969 29.998,26.943 29.995,26.913 C32.84,26.443 35.013,23.979 35.013,21"/></g></g></svg>