<svg xmlns="http://www.w3.org/2000/svg" xmlns:xlink="http://www.w3.org/1999/xlink" width="55" height="40" version="1.1" viewBox="0 0 55 40"><title>186 - Wi-Fi (Flat)</title><desc>Created with Sketch.</desc><g id="Page-1" fill="none" fill-rule="evenodd" stroke="none" stroke-width="1"><g id="186---Wi-Fi-(Flat)"><path id="Fill-899" fill="#424A60" d="M54.013,13.811 C53.757,13.811 53.501,13.713 53.306,13.518 C46.439,6.651 37.296,2.87 27.559,2.87 C17.821,2.87 8.677,6.651 1.811,13.518 C1.421,13.908 0.788,13.908 0.397,13.518 C0.007,13.127 0.007,12.494 0.397,12.104 C7.641,4.859 17.287,0.87 27.559,0.87 C37.83,0.87 47.477,4.859 54.72,12.104 C55.11,12.494 55.11,13.127 54.72,13.518 C54.524,13.713 54.269,13.811 54.013,13.811"/><path id="Fill-900" fill="#9777A8" d="M6.983,19.688 C6.727,19.688 6.471,19.591 6.276,19.396 C5.885,19.005 5.885,18.372 6.276,17.982 C18.012,6.245 37.106,6.247 48.841,17.982 C49.231,18.372 49.231,19.005 48.841,19.396 C48.45,19.786 47.817,19.786 47.427,19.396 C36.471,8.439 18.645,8.439 7.69,19.396 C7.495,19.591 7.239,19.688 6.983,19.688"/><path id="Fill-901" fill="#7FABDA" d="M42.255,25.567 C41.999,25.567 41.744,25.47 41.548,25.274 C37.818,21.544 32.85,19.489 27.559,19.489 C22.268,19.489 17.3,21.544 13.569,25.274 C13.178,25.665 12.545,25.665 12.155,25.274 C11.764,24.884 11.764,24.251 12.155,23.86 C16.263,19.752 21.734,17.49 27.559,17.49 C33.384,17.49 38.854,19.752 42.962,23.86 C43.353,24.251 43.353,24.884 42.962,25.274 C42.767,25.47 42.511,25.567 42.255,25.567"/><path id="Fill-902" fill="#7FABDA" d="M27.559,26.896 C23.946,26.896 21.007,29.836 21.007,33.448 C21.007,37.061 23.946,40 27.559,40 C31.171,40 34.11,37.061 34.11,33.448 C34.11,29.836 31.171,26.896 27.559,26.896"/></g></g></svg>