<?xml version="1.0" encoding="UTF-8" standalone="no"?>
<svg width="45px" height="58px" viewBox="0 0 45 58" version="1.1" xmlns="http://www.w3.org/2000/svg" xmlns:xlink="http://www.w3.org/1999/xlink" xmlns:sketch="http://www.bohemiancoding.com/sketch/ns">
    <!-- Generator: Sketch 3.2.2 (9983) - http://www.bohemiancoding.com/sketch -->
    <title>84 - World-Wide (Flat)</title>
    <desc>Created with Sketch.</desc>
    <defs></defs>
    <g id="Page-1" stroke="none" stroke-width="1" fill="none" fill-rule="evenodd" sketch:type="MSPage">
        <g id="Icons" sketch:type="MSArtboardGroup" transform="translate(-847.000000, -3838.000000)">
            <g id="84---World-Wide-(Flat)" sketch:type="MSLayerGroup" transform="translate(847.000000, 3838.000000)">
                <path d="M44.989,20 C44.989,31.046 36.034,40 24.989,40 C13.943,40 4.989,31.046 4.989,20 C4.989,8.954 13.943,0 24.989,0 C36.034,0 44.989,8.954 44.989,20" id="Fill-1375" fill="#A2C9ED" sketch:type="MSShapeGroup"></path>
                <path d="M43.373,36.971 L39.838,33.436 L38.424,34.85 L40.529,36.955 C31.517,45.226 17.456,44.993 8.726,36.264 C4.389,31.927 2,26.151 2,20 C2,14.185 4.135,8.704 8.033,4.459 L10.14,6.564 L11.554,5.151 L8.019,1.615 L7.311,2.322 C2.597,7.037 0,13.314 0,20 C0,26.686 2.597,32.963 7.311,37.678 C11.793,42.159 17.687,44.722 24,44.965 L24,55 C24,55.553 24.447,56 25,56 C25.553,56 26,55.553 26,55 L26,44.965 C32.304,44.717 38.19,42.154 42.666,37.678 L43.373,36.971" id="Fill-1376" fill="#556080" sketch:type="MSShapeGroup"></path>
                <path d="M15,55 L35,55 L35,58 L15,58 L15,55 Z" id="Fill-1377" fill="#556080" sketch:type="MSShapeGroup"></path>
                <path d="M13.76,3.45 C13.755,3.791 13.743,4.147 13.723,4.531 C13.714,4.716 13.746,4.9 13.824,5.068 C15.18,7.991 16.925,12.95 19.905,14.093 C21.354,14.649 22.693,14.439 24.066,15.112 C24.213,15.184 24.427,15.351 24.519,15.486 C25.217,16.507 24.816,18.003 25.508,18.369 C26.055,18.659 26.367,19.25 26.133,19.824 C25.178,22.167 26.004,24.847 28.226,26.687 C29.789,27.981 28.488,30.982 27.172,33.337 C26.702,34.179 27.54,35.152 28.449,34.83 C29.886,34.318 31.076,33.577 32.453,32.392 C34.451,30.674 34.882,28.803 36.862,27.345 C36.884,27.329 36.9,27.309 36.909,27.283 C37.415,25.799 38.987,22.561 37.401,21.736 C35.92,20.967 35.366,18.739 33.921,17.221 C33.755,17.047 33.519,16.961 33.281,16.93 C31.509,16.702 30.712,15.354 29.52,16.25 C28.627,16.922 27.624,16.512 27.312,15.44 C27.211,15.09 27.032,14.778 26.389,14.58 C25.901,14.429 25.664,13.876 25.84,13.397 C25.842,13.39 25.845,13.383 25.847,13.376 C26.083,12.736 24.758,12.833 24.084,12.945 C23.896,12.977 24.536,12.215 24.326,12.339 C23.498,12.828 22.469,11.984 22.514,11.023 C22.559,10.049 22.741,10.096 24.411,9.904 C26.208,9.067 27.079,9.677 27.021,11.733 C28.133,11.898 28.521,11.406 28.186,10.26 C28.088,9.925 28.167,9.551 28.379,9.275 C30.427,6.611 32.138,5.449 35.272,4.374 C35.737,4.214 35.999,3.749 35.938,3.274 C32.791,1.21 29.033,0 24.989,0 C20.826,0 16.962,1.274 13.76,3.45" id="Fill-1378" fill="#23A24D" sketch:type="MSShapeGroup"></path>
            </g>
        </g>
    </g>
</svg>