<svg xmlns="http://www.w3.org/2000/svg" xmlns:xlink="http://www.w3.org/1999/xlink" width="58" height="58" version="1.1" viewBox="0 0 58 58"><title>87 - World-Wide (Flat)</title><desc>Created with Sketch.</desc><g id="Page-1" fill="none" fill-rule="evenodd" stroke="none" stroke-width="1"><g id="Icons" transform="translate(-481.000000, -3838.000000)"><g id="87---World-Wide-(Flat)" transform="translate(481.000000, 3838.000000)"><path id="Fill-1323" fill="#7FABDA" d="M58,29 C58,45.016 45.016,58 29,58 C12.984,58 0,45.016 0,29 C0,12.984 12.984,0 29,0 C45.016,0 58,12.984 58,29"/><path id="Fill-1826" fill="#199172" d="M43.887,4.486 C44.007,4.445 44.106,4.375 44.207,4.307 C39.785,1.578 34.578,0 29,0 C22.866,0 17.181,1.91 12.496,5.159 C12.521,5.275 12.553,5.391 12.604,5.5 C14.582,9.762 17.128,16.996 21.473,18.662 C23.586,19.472 25.539,19.167 27.542,20.149 C27.757,20.253 28.069,20.497 28.203,20.694 C29.221,22.183 28.636,24.365 29.645,24.899 C30.444,25.322 30.898,26.184 30.557,27.021 C29.165,30.439 30.369,34.348 33.609,37.031 C35.89,38.919 33.992,43.295 32.073,46.73 C31.387,47.959 32.61,49.379 33.935,48.908 C36.031,48.162 37.766,47.081 39.776,45.352 C42.689,42.847 43.318,40.117 46.206,37.991 C46.238,37.967 46.262,37.938 46.275,37.9 C47.013,35.737 49.306,31.013 46.992,29.81 C44.832,28.688 44.024,25.439 41.916,23.225 C41.674,22.971 41.33,22.845 40.982,22.8 C38.398,22.467 37.235,20.502 35.497,21.808 C34.195,22.788 32.731,22.191 32.277,20.626 C32.129,20.116 31.868,19.661 30.931,19.372 C30.219,19.153 29.873,18.346 30.129,17.647 C30.133,17.637 30.137,17.627 30.14,17.617 C30.484,16.682 28.552,16.824 27.569,16.988 C27.294,17.034 28.228,15.923 27.921,16.104 C26.714,16.817 25.214,15.586 25.278,14.185 C25.344,12.765 25.609,12.832 28.045,12.552 C30.667,11.332 31.936,12.221 31.853,15.22 C33.474,15.46 34.04,14.744 33.551,13.071 C33.409,12.583 33.523,12.037 33.834,11.635 C36.82,7.75 39.315,6.055 43.887,4.486"/></g></g></g></svg>