<svg xmlns="http://www.w3.org/2000/svg" xmlns:xlink="http://www.w3.org/1999/xlink" width="58" height="58" version="1.1" viewBox="0 0 58 58"><title>29 - Compose (Flat)</title><desc>Created with Sketch.</desc><g id="Page-1" fill="none" fill-rule="evenodd" stroke="none" stroke-width="1"><g id="Icons" transform="translate(-241.000000, -4558.000000)"><g id="29---Compose-(Flat)" transform="translate(241.000000, 4558.000000)"><path id="Fill-1726" fill="#EDEBDA" d="M24.192,39.483 L16.414,41.604 L18.535,33.826 L48.362,4 L0,4 L0,58 L54,58 L54,9.676 L24.192,39.483"/><path id="Fill-3123" fill="#F8E7A1" d="M18.716,39.302 C19.107,39.693 19.107,40.325 18.716,40.716 L18.358,41.074 L24.151,39.494 L18.524,33.867 L16.944,39.66 L17.302,39.302 C17.693,38.911 18.326,38.911 18.716,39.302"/><path id="Fill-3124" fill="#424A60" d="M18.358,41.074 L18.716,40.716 C19.107,40.325 19.107,39.693 18.716,39.302 C18.326,38.911 17.693,38.911 17.302,39.302 L16.944,39.66 L16.414,41.604 L18.358,41.074"/><path id="Fill-3125" fill="#ECBA16" d="M51.062,12.613 L45.406,6.956 L18.535,33.826 L18.524,33.867 L24.151,39.494 L24.192,39.483 L51.062,12.613"/><path id="Fill-3126" fill="#ED7161" d="M57.437,3.431 L54.587,0.582 C53.812,-0.194 52.555,-0.194 51.78,0.582 L48.234,4.127 L53.891,9.784 L57.437,6.238 C58.212,5.463 58.212,4.206 57.437,3.431"/><path id="Fill-3127" fill="#F8E7A1" d="M48.234,4.127 L45.406,6.956 L48.234,4.127"/><path id="Fill-3128" fill="#F8E7A1" d="M53.891,9.784 L48.234,4.127 L45.406,6.956 L51.062,12.613 L53.891,9.784"/></g></g></g></svg>