<svg xmlns="http://www.w3.org/2000/svg" xmlns:xlink="http://www.w3.org/1999/xlink" width="51" height="53" version="1.1" viewBox="0 0 51 53"><title>380 - Zoom In (Flat)</title><desc>Created with Sketch.</desc><g id="Page-1" fill="none" fill-rule="evenodd" stroke="none" stroke-width="1"><g id="Icons" transform="translate(-127.000000, -361.000000)"><g id="380---Zoom-In-(Flat)" transform="translate(128.000000, 362.000000)"><path id="Fill-284" fill="#7383BF" d="M40,20 C40,31.046 31.046,40 20,40 C8.954,40 0,31.046 0,20 C0,8.954 8.954,0 20,0 C31.046,0 40,8.954 40,20 L40,20 Z"/><path id="Stroke-285" stroke="#556080" stroke-width="2" d="M40,20 C40,31.046 31.046,40 20,40 C8.954,40 0,31.046 0,20 C0,8.954 8.954,0 20,0 C31.046,0 40,8.954 40,20 L40,20 Z"/><path id="Fill-286" fill="#FFF" d="M27,21 L13,21 C12.448,21 12,20.553 12,20 C12,19.448 12.448,19 13,19 L27,19 C27.552,19 28,19.448 28,20 C28,20.553 27.552,21 27,21"/><path id="Stroke-287" stroke="#556080" stroke-linecap="round" stroke-width="2" d="M33.454,34.798 L49,50.966"/><path id="Fill-288" fill="#FFF" d="M20,28 C19.448,28 19,27.552 19,27 L19,13 C19,12.448 19.448,12 20,12 C20.552,12 21,12.448 21,13 L21,27 C21,27.552 20.552,28 20,28"/></g></g></g></svg>