<?xml version="1.0" encoding="UTF-8" standalone="no"?>
<svg width="56px" height="59px" viewBox="0 0 56 59" version="1.1" xmlns="http://www.w3.org/2000/svg" xmlns:xlink="http://www.w3.org/1999/xlink" xmlns:sketch="http://www.bohemiancoding.com/sketch/ns">
    <!-- Generator: Sketch 3.2.2 (9983) - http://www.bohemiancoding.com/sketch -->
    <title>77 - Alarm Clock (Flat)</title>
    <desc>Created with Sketch.</desc>
    <defs></defs>
    <g id="Page-1" stroke="none" stroke-width="1" fill="none" fill-rule="evenodd" sketch:type="MSPage">
        <g id="Icons" sketch:type="MSArtboardGroup" transform="translate(-482.000000, -3959.000000)">
            <g id="77---Alarm-Clock-(Flat)" sketch:type="MSLayerGroup" transform="translate(482.000000, 3959.000000)">
                <path d="M15.226,52.482 L11.293,56.414 C10.902,56.805 10.902,57.438 11.293,57.828 C11.488,58.024 11.744,58.121 12,58.121 C12.256,58.121 12.512,58.024 12.707,57.828 L16.64,53.895 C17.03,53.505 17.03,52.872 16.64,52.482 C16.249,52.091 15.616,52.091 15.226,52.482" id="Fill-97" fill="#7383BF" sketch:type="MSShapeGroup"></path>
                <path d="M44.707,56.414 L40.744,52.451 C40.353,52.061 39.721,52.061 39.33,52.451 C38.94,52.842 38.94,53.475 39.33,53.865 L43.293,57.828 C43.488,58.024 43.744,58.121 44,58.121 C44.256,58.121 44.512,58.024 44.707,57.828 C45.098,57.438 45.098,56.805 44.707,56.414" id="Fill-98" fill="#7383BF" sketch:type="MSShapeGroup"></path>
                <path d="M46.725,12.094 C46.748,12.073 46.778,12.065 46.8,12.043 L49.8,9.043 C50.191,8.652 50.191,8.02 49.8,7.629 C49.41,7.238 48.777,7.238 48.386,7.629 L45.386,10.629 C45.356,10.66 45.343,10.7 45.317,10.733 C40.719,6.623 34.653,4.121 28,4.121 C21.347,4.121 15.281,6.623 10.683,10.733 C10.657,10.7 10.644,10.66 10.614,10.629 L7.614,7.629 C7.223,7.238 6.59,7.238 6.2,7.629 C5.809,8.02 5.809,8.652 6.2,9.043 L9.2,12.043 C9.222,12.065 9.251,12.073 9.275,12.094 C4.773,16.768 2,23.119 2,30.121 C2,44.481 13.641,56.122 28,56.122 C42.359,56.122 54,44.481 54,30.121 C54,23.119 51.227,16.768 46.725,12.094" id="Fill-99" fill="#424A60" sketch:type="MSShapeGroup"></path>
                <path d="M50,30.121 C50,42.272 40.15,52.122 28,52.122 C15.85,52.122 6,42.272 6,30.121 C6,17.971 15.85,8.122 28,8.122 C40.15,8.122 50,17.971 50,30.121" id="Fill-100" fill="#E8EDEE" sketch:type="MSShapeGroup"></path>
                <path d="M43,30.121 C43,38.406 36.284,45.121 28,45.121 C19.716,45.121 13,38.406 13,30.121 C13,21.837 19.716,15.121 28,15.121 C36.284,15.121 43,21.837 43,30.121" id="Fill-101" fill="#FFFFFF" sketch:type="MSShapeGroup"></path>
                <path d="M28,7.121 C27.448,7.121 27,7.568 27,8.121 L27,10.121 C27,10.674 27.448,11.121 28,11.121 C28.552,11.121 29,10.674 29,10.121 L29,8.121 C29,7.568 28.552,7.121 28,7.121" id="Fill-1153" fill="#FFFFFF" sketch:type="MSShapeGroup"></path>
                <path d="M28,49.121 C27.448,49.121 27,49.568 27,50.121 L27,52.121 C27,52.674 27.448,53.121 28,53.121 C28.552,53.121 29,52.674 29,52.121 L29,50.121 C29,49.568 28.552,49.121 28,49.121" id="Fill-1154" fill="#FFFFFF" sketch:type="MSShapeGroup"></path>
                <path d="M50,29.121 L48,29.121 C47.448,29.121 47,29.568 47,30.121 C47,30.674 47.448,31.121 48,31.121 L50,31.121 C50.552,31.121 51,30.674 51,30.121 C51,29.568 50.552,29.121 50,29.121" id="Fill-1155" fill="#FFFFFF" sketch:type="MSShapeGroup"></path>
                <path d="M9,30.121 C9,29.568 8.552,29.121 8,29.121 L6,29.121 C5.448,29.121 5,29.568 5,30.121 C5,30.674 5.448,31.121 6,31.121 L8,31.121 C8.552,31.121 9,30.674 9,30.121" id="Fill-1156" fill="#FFFFFF" sketch:type="MSShapeGroup"></path>
                <path d="M17.866,10.568 C17.589,10.091 16.978,9.925 16.5,10.202 C16.022,10.479 15.858,11.09 16.134,11.568 L17.134,13.301 C17.319,13.621 17.655,13.801 18.001,13.801 C18.17,13.801 18.342,13.758 18.5,13.667 C18.978,13.391 19.142,12.78 18.866,12.301 L17.866,10.568" id="Fill-1157" fill="#FFFFFF" sketch:type="MSShapeGroup"></path>
                <path d="M38.866,46.942 C38.589,46.464 37.979,46.299 37.5,46.575 C37.022,46.852 36.858,47.463 37.134,47.941 L38.134,49.674 C38.319,49.995 38.655,50.174 39.001,50.174 C39.17,50.174 39.342,50.131 39.5,50.04 C39.978,49.764 40.142,49.153 39.866,48.674 L38.866,46.942" id="Fill-1158" fill="#FFFFFF" sketch:type="MSShapeGroup"></path>
                <path d="M11.18,19.255 L9.447,18.255 C8.968,17.979 8.357,18.144 8.081,18.621 C7.805,19.1 7.969,19.711 8.447,19.987 L10.18,20.988 C10.337,21.078 10.509,21.121 10.679,21.121 C11.024,21.121 11.36,20.942 11.546,20.621 C11.822,20.143 11.658,19.531 11.18,19.255" id="Fill-1159" fill="#FFFFFF" sketch:type="MSShapeGroup"></path>
                <path d="M47.553,40.255 L45.82,39.255 C45.34,38.977 44.73,39.144 44.454,39.621 C44.178,40.1 44.342,40.711 44.82,40.987 L46.553,41.987 C46.71,42.078 46.882,42.121 47.052,42.121 C47.398,42.121 47.733,41.941 47.919,41.621 C48.195,41.143 48.031,40.531 47.553,40.255" id="Fill-1160" fill="#FFFFFF" sketch:type="MSShapeGroup"></path>
                <path d="M10.18,39.255 L8.447,40.255 C7.969,40.531 7.805,41.143 8.081,41.621 C8.267,41.941 8.602,42.121 8.948,42.121 C9.118,42.121 9.29,42.078 9.447,41.987 L11.18,40.987 C11.658,40.711 11.822,40.1 11.546,39.621 C11.269,39.144 10.659,38.977 10.18,39.255" id="Fill-1161" fill="#FFFFFF" sketch:type="MSShapeGroup"></path>
                <path d="M45.321,21.121 C45.491,21.121 45.663,21.078 45.82,20.988 L47.553,19.987 C48.031,19.711 48.195,19.1 47.919,18.621 C47.642,18.144 47.031,17.979 46.553,18.255 L44.82,19.255 C44.342,19.531 44.178,20.143 44.454,20.621 C44.64,20.942 44.976,21.121 45.321,21.121" id="Fill-1162" fill="#FFFFFF" sketch:type="MSShapeGroup"></path>
                <path d="M18.5,46.575 C18.019,46.299 17.41,46.464 17.134,46.942 L16.134,48.674 C15.858,49.153 16.022,49.764 16.5,50.04 C16.658,50.131 16.83,50.174 16.999,50.174 C17.345,50.174 17.681,49.995 17.866,49.674 L18.866,47.941 C19.142,47.463 18.978,46.852 18.5,46.575" id="Fill-1163" fill="#FFFFFF" sketch:type="MSShapeGroup"></path>
                <path d="M39.5,10.202 C39.019,9.925 38.41,10.091 38.134,10.568 L37.134,12.301 C36.858,12.78 37.022,13.391 37.5,13.667 C37.658,13.758 37.83,13.801 37.999,13.801 C38.345,13.801 38.681,13.621 38.866,13.301 L39.866,11.568 C40.142,11.09 39.978,10.479 39.5,10.202" id="Fill-1164" fill="#FFFFFF" sketch:type="MSShapeGroup"></path>
                <path d="M39,29.121 L31.858,29.121 C31.494,27.722 30.399,26.627 29,26.263 L29,16.121 C29,15.569 28.552,15.121 28,15.121 C27.448,15.121 27,15.569 27,16.121 L27,26.263 C25.28,26.71 24,28.263 24,30.121 C24,32.327 25.794,34.121 28,34.121 C29.858,34.121 31.411,32.842 31.858,31.121 L39,31.121 C39.552,31.121 40,30.674 40,30.121 C40,29.568 39.552,29.121 39,29.121 L39,29.121 Z M28,32.121 C26.897,32.121 26,31.224 26,30.121 C26,29.019 26.897,28.121 28,28.121 C29.103,28.121 30,29.019 30,30.121 C30,31.224 29.103,32.121 28,32.121 L28,32.121 Z" id="Fill-2116" fill="#424A60" sketch:type="MSShapeGroup"></path>
                <path d="M53.914,3.05 C56.695,5.831 56.695,10.34 53.914,13.121 L43.843,3.05 C46.624,0.27 51.133,0.27 53.914,3.05" id="Fill-3067" fill="#7383BF" sketch:type="MSShapeGroup"></path>
                <path d="M2.086,3.05 C-0.695,5.831 -0.695,10.34 2.086,13.121 L12.157,3.05 C9.376,0.27 4.867,0.27 2.086,3.05" id="Fill-3068" fill="#7383BF" sketch:type="MSShapeGroup"></path>
            </g>
        </g>
    </g>
</svg>