<?xml version="1.0" encoding="UTF-8" standalone="no"?>
<svg width="56px" height="59px" viewBox="0 0 56 59" version="1.1" xmlns="http://www.w3.org/2000/svg" xmlns:xlink="http://www.w3.org/1999/xlink" xmlns:sketch="http://www.bohemiancoding.com/sketch/ns">
    <!-- Generator: Sketch 3.2.2 (9983) - http://www.bohemiancoding.com/sketch -->
    <title>78 - Alarm Clock (Flat)</title>
    <desc>Created with Sketch.</desc>
    <defs></defs>
    <g id="Page-1" stroke="none" stroke-width="1" fill="none" fill-rule="evenodd" sketch:type="MSPage">
        <g id="Icons" sketch:type="MSArtboardGroup" transform="translate(-362.000000, -3959.000000)">
            <g id="78---Alarm-Clock-(Flat)" sketch:type="MSLayerGroup" transform="translate(362.000000, 3959.000000)">
                <path d="M54,30.121 C54,44.481 42.359,56.122 28,56.122 C13.641,56.122 2,44.481 2,30.121 C2,15.762 13.641,4.121 28,4.121 C42.359,4.121 54,15.762 54,30.121" id="Fill-102" fill="#E0E2E3" sketch:type="MSShapeGroup"></path>
                <path d="M43,30.121 C43,38.406 36.284,45.121 28,45.121 C19.716,45.121 13,38.406 13,30.121 C13,21.837 19.716,15.121 28,15.121 C36.284,15.121 43,21.837 43,30.121" id="Fill-103" fill="#FFFFFF" sketch:type="MSShapeGroup"></path>
                <path d="M12,58.121 C11.744,58.121 11.488,58.024 11.293,57.828 C10.902,57.438 10.902,56.805 11.293,56.414 L15.226,52.482 C15.616,52.091 16.249,52.091 16.64,52.482 C17.03,52.872 17.03,53.505 16.64,53.895 L12.707,57.828 C12.512,58.024 12.256,58.121 12,58.121" id="Fill-1146" fill="#424A60" sketch:type="MSShapeGroup"></path>
                <path d="M44,58.121 C43.744,58.121 43.488,58.024 43.293,57.828 L39.33,53.865 C38.94,53.475 38.94,52.842 39.33,52.451 C39.721,52.061 40.353,52.061 40.744,52.451 L44.707,56.414 C45.098,56.805 45.098,57.438 44.707,57.828 C44.512,58.024 44.256,58.121 44,58.121" id="Fill-1147" fill="#424A60" sketch:type="MSShapeGroup"></path>
                <path d="M46.093,12.336 C45.837,12.336 45.581,12.238 45.386,12.043 C44.996,11.652 44.996,11.02 45.386,10.629 L48.386,7.629 C48.777,7.238 49.41,7.238 49.8,7.629 C50.191,8.02 50.191,8.652 49.8,9.043 L46.8,12.043 C46.605,12.238 46.349,12.336 46.093,12.336" id="Fill-1148" fill="#C7CBC7" sketch:type="MSShapeGroup"></path>
                <path d="M9.907,12.336 C9.651,12.336 9.395,12.238 9.2,12.043 L6.2,9.043 C5.809,8.652 5.809,8.02 6.2,7.629 C6.59,7.238 7.223,7.238 7.614,7.629 L10.614,10.629 C11.004,11.02 11.004,11.652 10.614,12.043 C10.418,12.238 10.163,12.336 9.907,12.336" id="Fill-1149" fill="#C7CBC7" sketch:type="MSShapeGroup"></path>
                <path d="M28,58.121 C12.56,58.121 0,45.561 0,30.121 C0,14.682 12.56,2.121 28,2.121 C43.44,2.121 56,14.682 56,30.121 C56,45.561 43.44,58.121 28,58.121 L28,58.121 Z M28,6.121 C14.766,6.121 4,16.888 4,30.121 C4,43.355 14.766,54.121 28,54.121 C41.234,54.121 52,43.355 52,30.121 C52,16.888 41.234,6.121 28,6.121 L28,6.121 Z" id="Fill-1152" fill="#25B99A" sketch:type="MSShapeGroup"></path>
                <path d="M28,7 C27.448,7 27,7.448 27,8 L27,9 C27,9.553 27.448,10 28,10 C28.552,10 29,9.553 29,9 L29,8 C29,7.448 28.552,7 28,7" id="Fill-1384" fill="#25B99A" sketch:type="MSShapeGroup"></path>
                <path d="M28,50 C27.448,50 27,50.447 27,51 L27,52 C27,52.553 27.448,53 28,53 C28.552,53 29,52.553 29,52 L29,51 C29,50.447 28.552,50 28,50" id="Fill-1385" fill="#25B99A" sketch:type="MSShapeGroup"></path>
                <path d="M50,29 L49,29 C48.448,29 48,29.447 48,30 C48,30.553 48.448,31 49,31 L50,31 C50.552,31 51,30.553 51,30 C51,29.447 50.552,29 50,29" id="Fill-1386" fill="#25B99A" sketch:type="MSShapeGroup"></path>
                <path d="M7,29 L6,29 C5.448,29 5,29.447 5,30 C5,30.553 5.448,31 6,31 L7,31 C7.552,31 8,30.553 8,30 C8,29.447 7.552,29 7,29" id="Fill-1387" fill="#25B99A" sketch:type="MSShapeGroup"></path>
                <path d="M42.849,13.736 L42.142,14.444 C41.751,14.834 41.751,15.467 42.142,15.858 C42.337,16.053 42.593,16.151 42.849,16.151 C43.105,16.151 43.361,16.053 43.556,15.858 L44.263,15.15 C44.654,14.76 44.654,14.127 44.263,13.736 C43.873,13.346 43.24,13.346 42.849,13.736" id="Fill-1388" fill="#25B99A" sketch:type="MSShapeGroup"></path>
                <path d="M12.444,44.143 L11.737,44.85 C11.346,45.24 11.346,45.873 11.737,46.264 C11.932,46.459 12.188,46.557 12.444,46.557 C12.7,46.557 12.956,46.459 13.151,46.264 L13.858,45.557 C14.248,45.166 14.248,44.534 13.858,44.143 C13.467,43.752 12.835,43.752 12.444,44.143" id="Fill-1389" fill="#25B99A" sketch:type="MSShapeGroup"></path>
                <path d="M43.556,44.143 C43.165,43.752 42.533,43.752 42.142,44.143 C41.751,44.534 41.751,45.166 42.142,45.557 L42.849,46.264 C43.044,46.459 43.3,46.557 43.556,46.557 C43.812,46.557 44.068,46.459 44.263,46.264 C44.654,45.873 44.654,45.24 44.263,44.85 L43.556,44.143" id="Fill-1390" fill="#25B99A" sketch:type="MSShapeGroup"></path>
                <path d="M13.151,13.736 C12.76,13.346 12.127,13.346 11.737,13.736 C11.346,14.127 11.346,14.76 11.737,15.15 L12.444,15.858 C12.639,16.053 12.895,16.151 13.151,16.151 C13.407,16.151 13.663,16.053 13.858,15.858 C14.248,15.467 14.248,14.834 13.858,14.444 L13.151,13.736" id="Fill-1391" fill="#25B99A" sketch:type="MSShapeGroup"></path>
                <path d="M39,31.121 L31,31.121 C30.448,31.121 30,30.674 30,30.121 C30,29.568 30.448,29.121 31,29.121 L39,29.121 C39.552,29.121 40,29.568 40,30.121 C40,30.674 39.552,31.121 39,31.121" id="Fill-2117" fill="#424A60" sketch:type="MSShapeGroup"></path>
                <path d="M28,28.121 C27.448,28.121 27,27.674 27,27.121 L27,16.121 C27,15.569 27.448,15.121 28,15.121 C28.552,15.121 29,15.569 29,16.121 L29,27.121 C29,27.674 28.552,28.121 28,28.121" id="Fill-2118" fill="#424A60" sketch:type="MSShapeGroup"></path>
                <path d="M28,34.121 C25.794,34.121 24,32.327 24,30.121 C24,27.915 25.794,26.121 28,26.121 C30.206,26.121 32,27.915 32,30.121 C32,32.327 30.206,34.121 28,34.121 L28,34.121 Z M28,28.121 C26.897,28.121 26,29.019 26,30.121 C26,31.224 26.897,32.121 28,32.121 C29.103,32.121 30,31.224 30,30.121 C30,29.019 29.103,28.121 28,28.121 L28,28.121 Z" id="Fill-2119" fill="#424A60" sketch:type="MSShapeGroup"></path>
                <path d="M53.914,3.05 C56.695,5.831 56.695,10.34 53.914,13.121 L43.843,3.05 C46.624,0.27 51.133,0.27 53.914,3.05" id="Fill-3065" fill="#E8EDEE" sketch:type="MSShapeGroup"></path>
                <path d="M2.086,3.05 C-0.695,5.831 -0.695,10.34 2.086,13.121 L12.157,3.05 C9.376,0.27 4.867,0.27 2.086,3.05" id="Fill-3066" fill="#E8EDEE" sketch:type="MSShapeGroup"></path>
            </g>
        </g>
    </g>
</svg>