<?xml version="1.0" encoding="UTF-8" standalone="no"?>
<svg width="58px" height="50px" viewBox="0 0 58 50" version="1.1" xmlns="http://www.w3.org/2000/svg" xmlns:xlink="http://www.w3.org/1999/xlink" xmlns:sketch="http://www.bohemiancoding.com/sketch/ns">
    <!-- Generator: Sketch 3.2.2 (9983) - http://www.bohemiancoding.com/sketch -->
    <title>262 - Album (Flat)</title>
    <desc>Created with Sketch.</desc>
    <defs></defs>
    <g id="Page-1" stroke="none" stroke-width="1" fill="none" fill-rule="evenodd" sketch:type="MSPage">
        <g id="262---Album-(Flat)" sketch:type="MSLayerGroup">
            <path d="M8,0 L58,0 L58,50 L8,50 L8,0 Z" id="Fill-706" fill="#DD691D" sketch:type="MSShapeGroup"></path>
            <path d="M0,0 L8,0 L8,50 L0,50 L0,0 Z" id="Fill-707" fill="#424A60" sketch:type="MSShapeGroup"></path>
            <path d="M45,15 L26,18 L26,12 L45,9 L45,15 L45,15 Z" id="Fill-743" fill="#ECBA16" sketch:type="MSShapeGroup"></path>
            <path d="M45,15 L26,18 L26,12 L45,9 L45,15 L45,15 Z" id="Stroke-744" stroke="#FFFFFF" stroke-width="2" stroke-linecap="round" stroke-linejoin="round" sketch:type="MSShapeGroup"></path>
            <path d="M26,36.102 L26,15.286" id="Fill-745" fill="#23A24D" sketch:type="MSShapeGroup"></path>
            <path d="M26,36.102 L26,15.286" id="Stroke-746" stroke="#FFFFFF" stroke-width="2" stroke-linecap="round" stroke-linejoin="round" sketch:type="MSShapeGroup"></path>
            <path id="Fill-747" fill="#23A24D" sketch:type="MSShapeGroup"></path>
            <path id="Stroke-748" stroke="#FFFFFF" stroke-width="2" stroke-linecap="round" stroke-linejoin="round" sketch:type="MSShapeGroup"></path>
            <path d="M45,30 L45,10" id="Fill-749" fill="#23A24D" sketch:type="MSShapeGroup"></path>
            <path d="M45,30 L45,10" id="Stroke-750" stroke="#FFFFFF" stroke-width="2" stroke-linecap="round" stroke-linejoin="round" sketch:type="MSShapeGroup"></path>
            <path id="Fill-751" fill="#23A24D" sketch:type="MSShapeGroup"></path>
            <path id="Stroke-752" stroke="#FFFFFF" stroke-width="2" stroke-linecap="round" stroke-linejoin="round" sketch:type="MSShapeGroup"></path>
            <path d="M45,30 C45,32.761 42.537,35 39.5,35 C36.462,35 34,32.761 34,30 C34,27.239 36.462,25 39.5,25 C42.537,25 45,27.239 45,30 L45,30 Z" id="Fill-753" fill="#ECBA16" sketch:type="MSShapeGroup"></path>
            <path d="M45,30 C45,32.761 42.537,35 39.5,35 C36.462,35 34,32.761 34,30 C34,27.239 36.462,25 39.5,25 C42.537,25 45,27.239 45,30 L45,30 Z" id="Stroke-754" stroke="#FFFFFF" stroke-width="2" stroke-linecap="round" stroke-linejoin="round" sketch:type="MSShapeGroup"></path>
            <path d="M26,36 C26,38.761 23.538,41 20.5,41 C17.462,41 15,38.761 15,36 C15,33.239 17.462,31 20.5,31 C23.538,31 26,33.239 26,36 L26,36 Z" id="Fill-755" fill="#ECBA16" sketch:type="MSShapeGroup"></path>
            <path d="M26,36 C26,38.761 23.538,41 20.5,41 C17.462,41 15,38.761 15,36 C15,33.239 17.462,31 20.5,31 C23.538,31 26,33.239 26,36 L26,36 Z" id="Stroke-756" stroke="#FFFFFF" stroke-width="2" stroke-linecap="round" stroke-linejoin="round" sketch:type="MSShapeGroup"></path>
        </g>
    </g>
</svg>