<?xml version="1.0" encoding="UTF-8" standalone="no"?>
<svg width="56px" height="46px" viewBox="0 0 56 46" version="1.1" xmlns="http://www.w3.org/2000/svg" xmlns:xlink="http://www.w3.org/1999/xlink" xmlns:sketch="http://www.bohemiancoding.com/sketch/ns">
    <!-- Generator: Sketch 3.2.2 (9983) - http://www.bohemiancoding.com/sketch -->
    <title>351 - View Albums (Flat)</title>
    <desc>Created with Sketch.</desc>
    <defs></defs>
    <g id="Page-1" stroke="none" stroke-width="1" fill="none" fill-rule="evenodd" sketch:type="MSPage">
        <g id="Icons" sketch:type="MSArtboardGroup" transform="translate(-1202.000000, -605.000000)">
            <g id="351---View-Albums-(Flat)" sketch:type="MSLayerGroup" transform="translate(1202.000000, 605.000000)">
                <path d="M8,0 L48,0 L48,46 L8,46 L8,0 Z" id="Fill-349" fill="#366DB6" sketch:type="MSShapeGroup"></path>
                <path d="M48,4 L52,4 L52,42 L48,42 L48,4 Z" id="Fill-350" fill="#A485BE" sketch:type="MSShapeGroup"></path>
                <path d="M4,4 L8,4 L8,42 L4,42 L4,4 Z" id="Fill-351" fill="#A485BE" sketch:type="MSShapeGroup"></path>
                <path d="M52,8 L56,8 L56,38 L52,38 L52,8 Z" id="Fill-352" fill="#A4E869" sketch:type="MSShapeGroup"></path>
                <path d="M0,8 L4,8 L4,38 L0,38 L0,8 Z" id="Fill-353" fill="#A4E869" sketch:type="MSShapeGroup"></path>
                <path d="M17,8 C17,8.552 16.552,9 16,9 C15.448,9 15,8.552 15,8 C15,7.448 15.448,7 16,7 C16.552,7 17,7.448 17,8" id="Fill-2374" fill="#183351" sketch:type="MSShapeGroup"></path>
                <path d="M14,5 C14,5.552 13.552,6 13,6 C12.448,6 12,5.552 12,5 C12,4.448 12.448,4 13,4 C13.552,4 14,4.448 14,5" id="Fill-2375" fill="#183351" sketch:type="MSShapeGroup"></path>
                <path d="M20,5 C20,5.552 19.552,6 19,6 C18.448,6 18,5.552 18,5 C18,4.448 18.448,4 19,4 C19.552,4 20,4.448 20,5" id="Fill-2376" fill="#183351" sketch:type="MSShapeGroup"></path>
                <path d="M14,11 C14,11.552 13.552,12 13,12 C12.448,12 12,11.552 12,11 C12,10.448 12.448,10 13,10 C13.552,10 14,10.448 14,11" id="Fill-2377" fill="#183351" sketch:type="MSShapeGroup"></path>
                <path d="M20,11 C20,11.552 19.552,12 19,12 C18.448,12 18,11.552 18,11 C18,10.448 18.448,10 19,10 C19.552,10 20,10.448 20,11" id="Fill-2378" fill="#183351" sketch:type="MSShapeGroup"></path>
                <path d="M23,8 C23,8.552 22.552,9 22,9 C21.448,9 21,8.552 21,8 C21,7.448 21.448,7 22,7 C22.552,7 23,7.448 23,8" id="Fill-2379" fill="#183351" sketch:type="MSShapeGroup"></path>
                <path d="M29,8 C29,8.552 28.552,9 28,9 C27.448,9 27,8.552 27,8 C27,7.448 27.448,7 28,7 C28.552,7 29,7.448 29,8" id="Fill-2380" fill="#183351" sketch:type="MSShapeGroup"></path>
                <path d="M26,5 C26,5.552 25.552,6 25,6 C24.448,6 24,5.552 24,5 C24,4.448 24.448,4 25,4 C25.552,4 26,4.448 26,5" id="Fill-2381" fill="#183351" sketch:type="MSShapeGroup"></path>
                <path d="M32,5 C32,5.552 31.552,6 31,6 C30.448,6 30,5.552 30,5 C30,4.448 30.448,4 31,4 C31.552,4 32,4.448 32,5" id="Fill-2382" fill="#183351" sketch:type="MSShapeGroup"></path>
                <path d="M26,11 C26,11.552 25.552,12 25,12 C24.448,12 24,11.552 24,11 C24,10.448 24.448,10 25,10 C25.552,10 26,10.448 26,11" id="Fill-2383" fill="#183351" sketch:type="MSShapeGroup"></path>
                <path d="M32,11 C32,11.552 31.552,12 31,12 C30.448,12 30,11.552 30,11 C30,10.448 30.448,10 31,10 C31.552,10 32,10.448 32,11" id="Fill-2384" fill="#183351" sketch:type="MSShapeGroup"></path>
                <path d="M35,8 C35,8.552 34.552,9 34,9 C33.448,9 33,8.552 33,8 C33,7.448 33.448,7 34,7 C34.552,7 35,7.448 35,8" id="Fill-2385" fill="#183351" sketch:type="MSShapeGroup"></path>
                <path d="M41,8 C41,8.552 40.552,9 40,9 C39.448,9 39,8.552 39,8 C39,7.448 39.448,7 40,7 C40.552,7 41,7.448 41,8" id="Fill-2386" fill="#183351" sketch:type="MSShapeGroup"></path>
                <path d="M38,5 C38,5.552 37.552,6 37,6 C36.448,6 36,5.552 36,5 C36,4.448 36.448,4 37,4 C37.552,4 38,4.448 38,5" id="Fill-2387" fill="#183351" sketch:type="MSShapeGroup"></path>
                <path d="M44,5 C44,5.552 43.552,6 43,6 C42.448,6 42,5.552 42,5 C42,4.448 42.448,4 43,4 C43.552,4 44,4.448 44,5" id="Fill-2388" fill="#183351" sketch:type="MSShapeGroup"></path>
                <path d="M38,11 C38,11.552 37.552,12 37,12 C36.448,12 36,11.552 36,11 C36,10.448 36.448,10 37,10 C37.552,10 38,10.448 38,11" id="Fill-2389" fill="#183351" sketch:type="MSShapeGroup"></path>
                <path d="M44,11 C44,11.552 43.552,12 43,12 C42.448,12 42,11.552 42,11 C42,10.448 42.448,10 43,10 C43.552,10 44,10.448 44,11" id="Fill-2390" fill="#183351" sketch:type="MSShapeGroup"></path>
                <path d="M17,14 C17,14.552 16.552,15 16,15 C15.448,15 15,14.552 15,14 C15,13.448 15.448,13 16,13 C16.552,13 17,13.448 17,14" id="Fill-2391" fill="#183351" sketch:type="MSShapeGroup"></path>
                <path d="M17,20 C17,20.552 16.552,21 16,21 C15.448,21 15,20.552 15,20 C15,19.448 15.448,19 16,19 C16.552,19 17,19.448 17,20" id="Fill-2392" fill="#183351" sketch:type="MSShapeGroup"></path>
                <path d="M14,17 C14,17.552 13.552,18 13,18 C12.448,18 12,17.552 12,17 C12,16.448 12.448,16 13,16 C13.552,16 14,16.448 14,17" id="Fill-2393" fill="#183351" sketch:type="MSShapeGroup"></path>
                <path d="M20,17 C20,17.552 19.552,18 19,18 C18.448,18 18,17.552 18,17 C18,16.448 18.448,16 19,16 C19.552,16 20,16.448 20,17" id="Fill-2394" fill="#183351" sketch:type="MSShapeGroup"></path>
                <path d="M14,23 C14,23.552 13.552,24 13,24 C12.448,24 12,23.552 12,23 C12,22.448 12.448,22 13,22 C13.552,22 14,22.448 14,23" id="Fill-2395" fill="#183351" sketch:type="MSShapeGroup"></path>
                <path d="M20,23 C20,23.552 19.552,24 19,24 C18.448,24 18,23.552 18,23 C18,22.448 18.448,22 19,22 C19.552,22 20,22.448 20,23" id="Fill-2396" fill="#183351" sketch:type="MSShapeGroup"></path>
                <path d="M23,14 C23,14.552 22.552,15 22,15 C21.448,15 21,14.552 21,14 C21,13.448 21.448,13 22,13 C22.552,13 23,13.448 23,14" id="Fill-2397" fill="#183351" sketch:type="MSShapeGroup"></path>
                <path d="M29,14 C29,14.552 28.552,15 28,15 C27.448,15 27,14.552 27,14 C27,13.448 27.448,13 28,13 C28.552,13 29,13.448 29,14" id="Fill-2398" fill="#183351" sketch:type="MSShapeGroup"></path>
                <path d="M23,20 C23,20.552 22.552,21 22,21 C21.448,21 21,20.552 21,20 C21,19.448 21.448,19 22,19 C22.552,19 23,19.448 23,20" id="Fill-2399" fill="#183351" sketch:type="MSShapeGroup"></path>
                <path d="M29,20 C29,20.552 28.552,21 28,21 C27.448,21 27,20.552 27,20 C27,19.448 27.448,19 28,19 C28.552,19 29,19.448 29,20" id="Fill-2400" fill="#183351" sketch:type="MSShapeGroup"></path>
                <path d="M26,17 C26,17.552 25.552,18 25,18 C24.448,18 24,17.552 24,17 C24,16.448 24.448,16 25,16 C25.552,16 26,16.448 26,17" id="Fill-2401" fill="#183351" sketch:type="MSShapeGroup"></path>
                <path d="M32,17 C32,17.552 31.552,18 31,18 C30.448,18 30,17.552 30,17 C30,16.448 30.448,16 31,16 C31.552,16 32,16.448 32,17" id="Fill-2402" fill="#183351" sketch:type="MSShapeGroup"></path>
                <path d="M26,23 C26,23.552 25.552,24 25,24 C24.448,24 24,23.552 24,23 C24,22.448 24.448,22 25,22 C25.552,22 26,22.448 26,23" id="Fill-2403" fill="#183351" sketch:type="MSShapeGroup"></path>
                <path d="M32,23 C32,23.552 31.552,24 31,24 C30.448,24 30,23.552 30,23 C30,22.448 30.448,22 31,22 C31.552,22 32,22.448 32,23" id="Fill-2404" fill="#183351" sketch:type="MSShapeGroup"></path>
                <path d="M35,14 C35,14.552 34.552,15 34,15 C33.448,15 33,14.552 33,14 C33,13.448 33.448,13 34,13 C34.552,13 35,13.448 35,14" id="Fill-2405" fill="#183351" sketch:type="MSShapeGroup"></path>
                <path d="M41,14 C41,14.552 40.552,15 40,15 C39.448,15 39,14.552 39,14 C39,13.448 39.448,13 40,13 C40.552,13 41,13.448 41,14" id="Fill-2406" fill="#183351" sketch:type="MSShapeGroup"></path>
                <path d="M35,20 C35,20.552 34.552,21 34,21 C33.448,21 33,20.552 33,20 C33,19.448 33.448,19 34,19 C34.552,19 35,19.448 35,20" id="Fill-2407" fill="#183351" sketch:type="MSShapeGroup"></path>
                <path d="M41,20 C41,20.552 40.552,21 40,21 C39.448,21 39,20.552 39,20 C39,19.448 39.448,19 40,19 C40.552,19 41,19.448 41,20" id="Fill-2408" fill="#183351" sketch:type="MSShapeGroup"></path>
                <path d="M38,17 C38,17.552 37.552,18 37,18 C36.448,18 36,17.552 36,17 C36,16.448 36.448,16 37,16 C37.552,16 38,16.448 38,17" id="Fill-2409" fill="#183351" sketch:type="MSShapeGroup"></path>
                <path d="M44,17 C44,17.552 43.552,18 43,18 C42.448,18 42,17.552 42,17 C42,16.448 42.448,16 43,16 C43.552,16 44,16.448 44,17" id="Fill-2410" fill="#183351" sketch:type="MSShapeGroup"></path>
                <path d="M38,23 C38,23.552 37.552,24 37,24 C36.448,24 36,23.552 36,23 C36,22.448 36.448,22 37,22 C37.552,22 38,22.448 38,23" id="Fill-2411" fill="#183351" sketch:type="MSShapeGroup"></path>
                <path d="M44,23 C44,23.552 43.552,24 43,24 C42.448,24 42,23.552 42,23 C42,22.448 42.448,22 43,22 C43.552,22 44,22.448 44,23" id="Fill-2412" fill="#183351" sketch:type="MSShapeGroup"></path>
                <path d="M17,26 C17,26.552 16.552,27 16,27 C15.448,27 15,26.552 15,26 C15,25.448 15.448,25 16,25 C16.552,25 17,25.448 17,26" id="Fill-2413" fill="#183351" sketch:type="MSShapeGroup"></path>
                <path d="M17,32 C17,32.552 16.552,33 16,33 C15.448,33 15,32.552 15,32 C15,31.448 15.448,31 16,31 C16.552,31 17,31.448 17,32" id="Fill-2414" fill="#183351" sketch:type="MSShapeGroup"></path>
                <path d="M14,29 C14,29.552 13.552,30 13,30 C12.448,30 12,29.552 12,29 C12,28.448 12.448,28 13,28 C13.552,28 14,28.448 14,29" id="Fill-2415" fill="#183351" sketch:type="MSShapeGroup"></path>
                <path d="M20,29 C20,29.552 19.552,30 19,30 C18.448,30 18,29.552 18,29 C18,28.448 18.448,28 19,28 C19.552,28 20,28.448 20,29" id="Fill-2416" fill="#183351" sketch:type="MSShapeGroup"></path>
                <path d="M14,35 C14,35.552 13.552,36 13,36 C12.448,36 12,35.552 12,35 C12,34.448 12.448,34 13,34 C13.552,34 14,34.448 14,35" id="Fill-2417" fill="#183351" sketch:type="MSShapeGroup"></path>
                <path d="M20,35 C20,35.552 19.552,36 19,36 C18.448,36 18,35.552 18,35 C18,34.448 18.448,34 19,34 C19.552,34 20,34.448 20,35" id="Fill-2418" fill="#183351" sketch:type="MSShapeGroup"></path>
                <path d="M23,26 C23,26.552 22.552,27 22,27 C21.448,27 21,26.552 21,26 C21,25.448 21.448,25 22,25 C22.552,25 23,25.448 23,26" id="Fill-2419" fill="#183351" sketch:type="MSShapeGroup"></path>
                <path d="M29,26 C29,26.552 28.552,27 28,27 C27.448,27 27,26.552 27,26 C27,25.448 27.448,25 28,25 C28.552,25 29,25.448 29,26" id="Fill-2420" fill="#183351" sketch:type="MSShapeGroup"></path>
                <path d="M23,32 C23,32.552 22.552,33 22,33 C21.448,33 21,32.552 21,32 C21,31.448 21.448,31 22,31 C22.552,31 23,31.448 23,32" id="Fill-2421" fill="#183351" sketch:type="MSShapeGroup"></path>
                <path d="M29,32 C29,32.552 28.552,33 28,33 C27.448,33 27,32.552 27,32 C27,31.448 27.448,31 28,31 C28.552,31 29,31.448 29,32" id="Fill-2422" fill="#183351" sketch:type="MSShapeGroup"></path>
                <path d="M26,29 C26,29.552 25.552,30 25,30 C24.448,30 24,29.552 24,29 C24,28.448 24.448,28 25,28 C25.552,28 26,28.448 26,29" id="Fill-2423" fill="#183351" sketch:type="MSShapeGroup"></path>
                <path d="M32,29 C32,29.552 31.552,30 31,30 C30.448,30 30,29.552 30,29 C30,28.448 30.448,28 31,28 C31.552,28 32,28.448 32,29" id="Fill-2424" fill="#183351" sketch:type="MSShapeGroup"></path>
                <path d="M26,35 C26,35.552 25.552,36 25,36 C24.448,36 24,35.552 24,35 C24,34.448 24.448,34 25,34 C25.552,34 26,34.448 26,35" id="Fill-2425" fill="#183351" sketch:type="MSShapeGroup"></path>
                <path d="M32,35 C32,35.552 31.552,36 31,36 C30.448,36 30,35.552 30,35 C30,34.448 30.448,34 31,34 C31.552,34 32,34.448 32,35" id="Fill-2426" fill="#183351" sketch:type="MSShapeGroup"></path>
                <path d="M35,26 C35,26.552 34.552,27 34,27 C33.448,27 33,26.552 33,26 C33,25.448 33.448,25 34,25 C34.552,25 35,25.448 35,26" id="Fill-2427" fill="#183351" sketch:type="MSShapeGroup"></path>
                <path d="M41,26 C41,26.552 40.552,27 40,27 C39.448,27 39,26.552 39,26 C39,25.448 39.448,25 40,25 C40.552,25 41,25.448 41,26" id="Fill-2428" fill="#183351" sketch:type="MSShapeGroup"></path>
                <path d="M35,32 C35,32.552 34.552,33 34,33 C33.448,33 33,32.552 33,32 C33,31.448 33.448,31 34,31 C34.552,31 35,31.448 35,32" id="Fill-2429" fill="#183351" sketch:type="MSShapeGroup"></path>
                <path d="M41,32 C41,32.552 40.552,33 40,33 C39.448,33 39,32.552 39,32 C39,31.448 39.448,31 40,31 C40.552,31 41,31.448 41,32" id="Fill-2430" fill="#183351" sketch:type="MSShapeGroup"></path>
                <path d="M38,29 C38,29.552 37.552,30 37,30 C36.448,30 36,29.552 36,29 C36,28.448 36.448,28 37,28 C37.552,28 38,28.448 38,29" id="Fill-2431" fill="#183351" sketch:type="MSShapeGroup"></path>
                <path d="M44,29 C44,29.552 43.552,30 43,30 C42.448,30 42,29.552 42,29 C42,28.448 42.448,28 43,28 C43.552,28 44,28.448 44,29" id="Fill-2432" fill="#183351" sketch:type="MSShapeGroup"></path>
                <path d="M38,35 C38,35.552 37.552,36 37,36 C36.448,36 36,35.552 36,35 C36,34.448 36.448,34 37,34 C37.552,34 38,34.448 38,35" id="Fill-2433" fill="#183351" sketch:type="MSShapeGroup"></path>
                <path d="M44,35 C44,35.552 43.552,36 43,36 C42.448,36 42,35.552 42,35 C42,34.448 42.448,34 43,34 C43.552,34 44,34.448 44,35" id="Fill-2434" fill="#183351" sketch:type="MSShapeGroup"></path>
                <path d="M17,38 C17,38.552 16.552,39 16,39 C15.448,39 15,38.552 15,38 C15,37.448 15.448,37 16,37 C16.552,37 17,37.448 17,38" id="Fill-2435" fill="#183351" sketch:type="MSShapeGroup"></path>
                <path d="M14,41 C14,41.552 13.552,42 13,42 C12.448,42 12,41.552 12,41 C12,40.448 12.448,40 13,40 C13.552,40 14,40.448 14,41" id="Fill-2436" fill="#183351" sketch:type="MSShapeGroup"></path>
                <path d="M20,41 C20,41.552 19.552,42 19,42 C18.448,42 18,41.552 18,41 C18,40.448 18.448,40 19,40 C19.552,40 20,40.448 20,41" id="Fill-2437" fill="#183351" sketch:type="MSShapeGroup"></path>
                <path d="M23,38 C23,38.552 22.552,39 22,39 C21.448,39 21,38.552 21,38 C21,37.448 21.448,37 22,37 C22.552,37 23,37.448 23,38" id="Fill-2438" fill="#183351" sketch:type="MSShapeGroup"></path>
                <path d="M29,38 C29,38.552 28.552,39 28,39 C27.448,39 27,38.552 27,38 C27,37.448 27.448,37 28,37 C28.552,37 29,37.448 29,38" id="Fill-2439" fill="#183351" sketch:type="MSShapeGroup"></path>
                <path d="M26,41 C26,41.552 25.552,42 25,42 C24.448,42 24,41.552 24,41 C24,40.448 24.448,40 25,40 C25.552,40 26,40.448 26,41" id="Fill-2440" fill="#183351" sketch:type="MSShapeGroup"></path>
                <path d="M32,41 C32,41.552 31.552,42 31,42 C30.448,42 30,41.552 30,41 C30,40.448 30.448,40 31,40 C31.552,40 32,40.448 32,41" id="Fill-2441" fill="#183351" sketch:type="MSShapeGroup"></path>
                <path d="M35,38 C35,38.552 34.552,39 34,39 C33.448,39 33,38.552 33,38 C33,37.448 33.448,37 34,37 C34.552,37 35,37.448 35,38" id="Fill-2442" fill="#183351" sketch:type="MSShapeGroup"></path>
                <path d="M41,38 C41,38.552 40.552,39 40,39 C39.448,39 39,38.552 39,38 C39,37.448 39.448,37 40,37 C40.552,37 41,37.448 41,38" id="Fill-2443" fill="#183351" sketch:type="MSShapeGroup"></path>
                <path d="M38,41 C38,41.552 37.552,42 37,42 C36.448,42 36,41.552 36,41 C36,40.448 36.448,40 37,40 C37.552,40 38,40.448 38,41" id="Fill-2444" fill="#183351" sketch:type="MSShapeGroup"></path>
                <path d="M44,41 C44,41.552 43.552,42 43,42 C42.448,42 42,41.552 42,41 C42,40.448 42.448,40 43,40 C43.552,40 44,40.448 44,41" id="Fill-2445" fill="#183351" sketch:type="MSShapeGroup"></path>
            </g>
        </g>
    </g>
</svg>