<?xml version="1.0" encoding="UTF-8" standalone="no"?>
<svg width="56px" height="56px" viewBox="0 0 56 56" version="1.1" xmlns="http://www.w3.org/2000/svg" xmlns:xlink="http://www.w3.org/1999/xlink" xmlns:sketch="http://www.bohemiancoding.com/sketch/ns">
    <!-- Generator: Sketch 3.2.2 (9983) - http://www.bohemiancoding.com/sketch -->
    <title>209 - Calculator (Flat)</title>
    <desc>Created with Sketch.</desc>
    <defs></defs>
    <g id="Page-1" stroke="none" stroke-width="1" fill="none" fill-rule="evenodd" sketch:type="MSPage">
        <g id="209---Calculator-(Flat)" sketch:type="MSLayerGroup">
            <path d="M0,0 L28,0 L28,28 L0,28 L0,0 Z" id="Fill-928" fill="#ECBA16" sketch:type="MSShapeGroup"></path>
            <path d="M28,0 L56,0 L56,28 L28,28 L28,0 Z" id="Fill-929" fill="#ED8A19" sketch:type="MSShapeGroup"></path>
            <path d="M0,28 L28,28 L28,56 L0,56 L0,28 Z" id="Fill-930" fill="#ED8A19" sketch:type="MSShapeGroup"></path>
            <path d="M28,28 L56,28 L56,56 L28,56 L28,28 Z" id="Fill-931" fill="#556080" sketch:type="MSShapeGroup"></path>
            <path d="M48,46 L36,46 C35.448,46 35,45.553 35,45 C35,44.448 35.448,44 36,44 L48,44 C48.552,44 49,44.448 49,45 C49,45.553 48.552,46 48,46" id="Fill-932" fill="#FFFFFF" sketch:type="MSShapeGroup"></path>
            <path d="M48,40 L36,40 C35.448,40 35,39.553 35,39 C35,38.448 35.448,38 36,38 L48,38 C48.552,38 49,38.448 49,39 C49,39.553 48.552,40 48,40" id="Fill-933" fill="#FFFFFF" sketch:type="MSShapeGroup"></path>
            <path d="M14,43 C13.744,43 13.488,42.903 13.293,42.707 C12.902,42.317 12.902,41.684 13.293,41.293 L18.293,36.293 C18.684,35.902 19.316,35.902 19.707,36.293 C20.098,36.684 20.098,37.317 19.707,37.707 L14.707,42.707 C14.512,42.903 14.256,43 14,43" id="Fill-934" fill="#FFFFFF" sketch:type="MSShapeGroup"></path>
            <path d="M9,48 C8.744,48 8.488,47.902 8.293,47.707 C7.902,47.316 7.902,46.684 8.293,46.293 L13.293,41.293 C13.684,40.903 14.316,40.903 14.707,41.293 C15.098,41.684 15.098,42.317 14.707,42.707 L9.707,47.707 C9.512,47.902 9.256,48 9,48" id="Fill-935" fill="#FFFFFF" sketch:type="MSShapeGroup"></path>
            <path d="M19,48 C18.744,48 18.488,47.902 18.293,47.707 L13.293,42.707 C12.902,42.317 12.902,41.684 13.293,41.293 C13.684,40.903 14.316,40.903 14.707,41.293 L19.707,46.293 C20.098,46.684 20.098,47.316 19.707,47.707 C19.512,47.902 19.256,48 19,48" id="Fill-936" fill="#FFFFFF" sketch:type="MSShapeGroup"></path>
            <path d="M14,43 C13.744,43 13.488,42.903 13.293,42.707 L8.293,37.707 C7.902,37.317 7.902,36.684 8.293,36.293 C8.684,35.902 9.316,35.902 9.707,36.293 L14.707,41.293 C15.098,41.684 15.098,42.317 14.707,42.707 C14.512,42.903 14.256,43 14,43" id="Fill-937" fill="#FFFFFF" sketch:type="MSShapeGroup"></path>
            <path d="M20,15 L8,15 C7.448,15 7,14.553 7,14 C7,13.448 7.448,13 8,13 L20,13 C20.552,13 21,13.448 21,14 C21,14.553 20.552,15 20,15" id="Fill-1929" fill="#FFFFFF" sketch:type="MSShapeGroup"></path>
            <path d="M14,21 C13.448,21 13,20.553 13,20 L13,8 C13,7.448 13.448,7 14,7 C14.552,7 15,7.448 15,8 L15,20 C15,20.553 14.552,21 14,21" id="Fill-1930" fill="#FFFFFF" sketch:type="MSShapeGroup"></path>
            <path d="M48,15 L36,15 C35.448,15 35,14.553 35,14 C35,13.448 35.448,13 36,13 L48,13 C48.552,13 49,13.448 49,14 C49,14.553 48.552,15 48,15" id="Fill-1931" fill="#FFFFFF" sketch:type="MSShapeGroup"></path>
        </g>
    </g>
</svg>