<?xml version="1.0" encoding="UTF-8" standalone="no"?>
<svg width="45px" height="58px" viewBox="0 0 45 58" version="1.1" xmlns="http://www.w3.org/2000/svg" xmlns:xlink="http://www.w3.org/1999/xlink" xmlns:sketch="http://www.bohemiancoding.com/sketch/ns">
    <!-- Generator: Sketch 3.2.2 (9983) - http://www.bohemiancoding.com/sketch -->
    <title>208 - Calculator (Flat)</title>
    <desc>Created with Sketch.</desc>
    <defs></defs>
    <g id="Page-1" stroke="none" stroke-width="1" fill="none" fill-rule="evenodd" sketch:type="MSPage">
        <g id="208---Calculator-(Flat)" sketch:type="MSLayerGroup">
            <path d="M43.086,58 L1.914,58 C0.857,58 0,57.143 0,56.086 L0,1.915 C0,0.857 0.857,0 1.914,0 L43.086,0 C44.143,0 45,0.857 45,1.915 L45,56.086 C45,57.143 44.143,58 43.086,58" id="Fill-918" fill="#DDCCB6" sketch:type="MSShapeGroup"></path>
            <path d="M5,44 L14,44 L14,53 L5,53 L5,44 Z" id="Fill-919" fill="#F3EDBF" sketch:type="MSShapeGroup"></path>
            <path d="M18,44 L27,44 L27,53 L18,53 L18,44 Z" id="Fill-920" fill="#F3EDBF" sketch:type="MSShapeGroup"></path>
            <path d="M31,31 L40,31 L40,53 L31,53 L31,31 Z" id="Fill-921" fill="#DD691D" sketch:type="MSShapeGroup"></path>
            <path d="M5,31 L14,31 L14,40 L5,40 L5,31 Z" id="Fill-922" fill="#F3EDBF" sketch:type="MSShapeGroup"></path>
            <path d="M18,31 L27,31 L27,40 L18,40 L18,31 Z" id="Fill-923" fill="#F3EDBF" sketch:type="MSShapeGroup"></path>
            <path d="M5,18 L14,18 L14,27 L5,27 L5,18 Z" id="Fill-924" fill="#F3EDBF" sketch:type="MSShapeGroup"></path>
            <path d="M18,18 L27,18 L27,27 L18,27 L18,18 Z" id="Fill-925" fill="#F3EDBF" sketch:type="MSShapeGroup"></path>
            <path d="M31,18 L40,18 L40,27 L31,27 L31,18 Z" id="Fill-926" fill="#424A60" sketch:type="MSShapeGroup"></path>
            <path d="M5,5 L40,5 L40,13 L5,13 L5,5 Z" id="Fill-927" fill="#74972F" sketch:type="MSShapeGroup"></path>
        </g>
    </g>
</svg>