<?xml version="1.0" encoding="UTF-8" standalone="no"?>
<svg width="56px" height="58px" viewBox="0 0 56 58" version="1.1" xmlns="http://www.w3.org/2000/svg" xmlns:xlink="http://www.w3.org/1999/xlink" xmlns:sketch="http://www.bohemiancoding.com/sketch/ns">
    <!-- Generator: Sketch 3.2.2 (9983) - http://www.bohemiancoding.com/sketch -->
    <title>39 - Calendar (Flat)</title>
    <desc>Created with Sketch.</desc>
    <defs></defs>
    <g id="Page-1" stroke="none" stroke-width="1" fill="none" fill-rule="evenodd" sketch:type="MSPage">
        <g id="Icons" sketch:type="MSArtboardGroup" transform="translate(-242.000000, -4438.000000)">
            <g id="39---Calendar-(Flat)" sketch:type="MSLayerGroup" transform="translate(242.000000, 4438.000000)">
                <path d="M41,5 L0,5 L0,18 L56,18 L56,5 L41,5" id="Fill-29" fill="#25B99A" sketch:type="MSShapeGroup"></path>
                <path d="M21,9 C21,10.104 20.105,11 19,11 C17.895,11 17,10.104 17,9 C17,7.896 17.895,7 19,7 C20.105,7 21,7.896 21,9" id="Fill-30" fill="#38454F" sketch:type="MSShapeGroup"></path>
                <path d="M27,9 C27,10.104 26.105,11 25,11 C23.895,11 23,10.104 23,9 C23,7.896 23.895,7 25,7 C26.105,7 27,7.896 27,9" id="Fill-31" fill="#38454F" sketch:type="MSShapeGroup"></path>
                <path d="M33,9 C33,10.104 32.105,11 31,11 C29.895,11 29,10.104 29,9 C29,7.896 29.895,7 31,7 C32.105,7 33,7.896 33,9" id="Fill-32" fill="#38454F" sketch:type="MSShapeGroup"></path>
                <path d="M39,9 C39,10.104 38.105,11 37,11 C35.895,11 35,10.104 35,9 C35,7.896 35.895,7 37,7 C38.105,7 39,7.896 39,9" id="Fill-33" fill="#38454F" sketch:type="MSShapeGroup"></path>
                <path d="M37,0 C35.87,0 34.838,0.391 34,1.025 C34.534,1.43 34.979,1.937 35.315,2.52 C35.796,2.193 36.376,2 37,2 C38.654,2 40,3.346 40,5 C40,6.655 38.654,8 37,8 C36.447,8 36,8.448 36,9 C36,9.553 36.447,10 37,10 C39.757,10 42,7.757 42,5 C42,2.243 39.757,0 37,0" id="Fill-34" fill="#B0B6BB" sketch:type="MSShapeGroup"></path>
                <path d="M32.685,2.52 C32.261,3.254 32,4.093 32,5 L34,5 C34,3.97 33.478,3.061 32.685,2.52" id="Fill-35" fill="#839494" sketch:type="MSShapeGroup"></path>
                <path d="M26.685,2.52 C26.261,3.254 26,4.093 26,5 L28,5 C28,3.97 27.478,3.061 26.685,2.52" id="Fill-36" fill="#839494" sketch:type="MSShapeGroup"></path>
                <path d="M35.315,2.52 C34.979,1.937 34.534,1.43 34,1.025 C33.162,0.391 32.13,0 31,0 C29.87,0 28.838,0.391 28,1.025 C28.534,1.43 28.979,1.937 29.315,2.52 C29.796,2.193 30.376,2 31,2 C31.624,2 32.204,2.193 32.685,2.52 C33.478,3.061 34,3.97 34,5 C34,6.655 32.654,8 31,8 C30.447,8 30,8.448 30,9 C30,9.553 30.447,10 31,10 C33.757,10 36,7.757 36,5 C36,4.093 35.739,3.254 35.315,2.52" id="Fill-37" fill="#B0B6BB" sketch:type="MSShapeGroup"></path>
                <path d="M20.685,2.52 C20.261,3.254 20,4.093 20,5 L22,5 C22,3.97 21.478,3.061 20.685,2.52" id="Fill-38" fill="#839494" sketch:type="MSShapeGroup"></path>
                <path d="M29.315,2.52 C28.979,1.937 28.534,1.43 28,1.025 C27.162,0.391 26.13,0 25,0 C23.87,0 22.838,0.391 22,1.025 C22.534,1.43 22.979,1.937 23.315,2.52 C23.796,2.193 24.376,2 25,2 C25.624,2 26.204,2.193 26.685,2.52 C27.478,3.061 28,3.97 28,5 C28,6.655 26.654,8 25,8 C24.447,8 24,8.448 24,9 C24,9.553 24.447,10 25,10 C27.757,10 30,7.757 30,5 C30,4.093 29.739,3.254 29.315,2.52" id="Fill-39" fill="#B0B6BB" sketch:type="MSShapeGroup"></path>
                <path d="M23.315,2.52 C22.979,1.937 22.534,1.43 22,1.025 C21.162,0.391 20.13,0 19,0 C16.243,0 14,2.243 14,5 L16,5 C16,3.346 17.346,2 19,2 C19.624,2 20.204,2.193 20.685,2.52 C21.478,3.061 22,3.97 22,5 C22,6.655 20.654,8 19,8 C18.447,8 18,8.448 18,9 C18,9.553 18.447,10 19,10 C21.757,10 24,7.757 24,5 C24,4.093 23.739,3.254 23.315,2.52" id="Fill-40" fill="#B0B6BB" sketch:type="MSShapeGroup"></path>
                <path d="M0,18 L56,18 L56,58 L0,58 L0,18 Z" id="Fill-282" fill="#EDEBDA" sketch:type="MSShapeGroup"></path>
                <path d="M17,29 C17,31.761 14.761,34 12,34 C9.239,34 7,31.761 7,29 C7,26.239 9.239,24 12,24 C14.761,24 17,26.239 17,29" id="Fill-1672" fill="#CEC9AE" sketch:type="MSShapeGroup"></path>
                <path d="M33,29 C33,31.761 30.761,34 28,34 C25.239,34 23,31.761 23,29 C23,26.239 25.239,24 28,24 C30.761,24 33,26.239 33,29" id="Fill-1673" fill="#CEC9AE" sketch:type="MSShapeGroup"></path>
                <path d="M49,29 C49,31.761 46.761,34 44,34 C41.239,34 39,31.761 39,29 C39,26.239 41.239,24 44,24 C46.761,24 49,26.239 49,29" id="Fill-1674" fill="#CEC9AE" sketch:type="MSShapeGroup"></path>
                <path d="M17,45 C17,47.762 14.761,50 12,50 C9.239,50 7,47.762 7,45 C7,42.239 9.239,40 12,40 C14.761,40 17,42.239 17,45" id="Fill-1675" fill="#CEC9AE" sketch:type="MSShapeGroup"></path>
                <path d="M33,45 C33,47.762 30.761,50 28,50 C25.239,50 23,47.762 23,45 C23,42.239 25.239,40 28,40 C30.761,40 33,42.239 33,45" id="Fill-1676" fill="#CEC9AE" sketch:type="MSShapeGroup"></path>
                <path d="M49,45 C49,47.762 46.761,50 44,50 C41.239,50 39,47.762 39,45 C39,42.239 41.239,40 44,40 C46.761,40 49,42.239 49,45" id="Fill-1677" fill="#25B99A" sketch:type="MSShapeGroup"></path>
            </g>
        </g>
    </g>
</svg>