<?xml version="1.0" encoding="UTF-8" standalone="no"?>
<svg width="58px" height="47px" viewBox="0 0 58 47" version="1.1" xmlns="http://www.w3.org/2000/svg" xmlns:xlink="http://www.w3.org/1999/xlink" xmlns:sketch="http://www.bohemiancoding.com/sketch/ns">
    <!-- Generator: Sketch 3.2.2 (9983) - http://www.bohemiancoding.com/sketch -->
    <title>272 - Camera (Flat)</title>
    <desc>Created with Sketch.</desc>
    <defs></defs>
    <g id="Page-1" stroke="none" stroke-width="1" fill="none" fill-rule="evenodd" sketch:type="MSPage">
        <g id="272---Camera-(Flat)" sketch:type="MSLayerGroup">
            <path d="M45,10 L41,0 L17,0 L13,10 L3.799,10 C1.701,10 0,11.701 0,13.799 L0,43.167 C0,45.284 1.716,47 3.833,47 L54.167,47 C56.284,47 58,45.284 58,43.167 L58,13.799 C58,11.701 56.299,10 54.201,10 L45,10" id="Fill-690" fill="#556080" sketch:type="MSShapeGroup"></path>
            <path d="M46,26 C46,35.389 38.389,43 29,43 C19.611,43 12,35.389 12,26 C12,16.611 19.611,9 29,9 C38.389,9 46,16.611 46,26 L46,26 Z" id="Fill-691" fill="#424A60" sketch:type="MSShapeGroup"></path>
            <path d="M46,26 C46,35.389 38.389,43 29,43 C19.611,43 12,35.389 12,26 C12,16.611 19.611,9 29,9 C38.389,9 46,16.611 46,26 L46,26 Z" id="Stroke-692" stroke="#2B313D" stroke-width="2" stroke-linecap="round" sketch:type="MSShapeGroup"></path>
            <path d="M40,26 C40,32.075 35.075,37 29,37 C22.925,37 18,32.075 18,26 C18,19.925 22.925,15 29,15 C35.075,15 40,19.925 40,26" id="Fill-693" fill="#7383BF" sketch:type="MSShapeGroup"></path>
            <path d="M6,5 L10,5 L10,10 L6,10 L6,5 Z" id="Fill-694" fill="#38454F" sketch:type="MSShapeGroup"></path>
            <path d="M54,17 C54,18.657 52.657,20 51,20 C49.343,20 48,18.657 48,17 C48,15.343 49.343,14 51,14 C52.657,14 54,15.343 54,17" id="Fill-695" fill="#F0CE49" sketch:type="MSShapeGroup"></path>
            <path d="M32,26 C32,29.595 33.418,32.778 35.6,34.785 C38.267,32.778 40,29.595 40,26 C40,22.405 38.267,19.222 35.6,17.215 C33.418,19.222 32,22.405 32,26" id="Fill-2581" fill="#879AD8" sketch:type="MSShapeGroup"></path>
            <path d="M18,26 C18,29.595 19.733,32.778 22.4,34.785 C24.582,32.778 26,29.595 26,26 C26,22.405 24.582,19.222 22.4,17.215 C19.733,19.222 18,22.405 18,26" id="Fill-2582" fill="#879AD8" sketch:type="MSShapeGroup"></path>
            <path d="M29,38 C22.383,38 17,32.617 17,26 C17,19.383 22.383,14 29,14 C35.617,14 41,19.383 41,26 C41,32.617 35.617,38 29,38 L29,38 Z M29,16 C23.486,16 19,20.487 19,26 C19,31.514 23.486,36 29,36 C34.514,36 39,31.514 39,26 C39,20.487 34.514,16 29,16 L29,16 Z" id="Fill-2583" fill="#556080" sketch:type="MSShapeGroup"></path>
            <path d="M34,22.5 C34,24.433 32.433,26 30.5,26 C28.567,26 27,24.433 27,22.5 C27,20.567 28.567,19 30.5,19 C32.433,19 34,20.567 34,22.5" id="Fill-2584" fill="#4674E8" sketch:type="MSShapeGroup"></path>
            <path d="M30,24 C30,25.105 29.105,26 28,26 C26.895,26 26,25.105 26,24 C26,22.896 26.895,22 28,22 C29.105,22 30,22.896 30,24" id="Fill-2585" fill="#BF4D90" sketch:type="MSShapeGroup"></path>
            <path d="M27,22 C27,23.105 26.105,24 25,24 C23.895,24 23,23.105 23,22 C23,20.896 23.895,20 25,20 C26.105,20 27,20.896 27,22" id="Fill-2586" fill="#BCCEF8" sketch:type="MSShapeGroup"></path>
        </g>
    </g>
</svg>