<?xml version="1.0" encoding="UTF-8" standalone="no"?>
<svg width="56px" height="44px" viewBox="0 0 56 44" version="1.1" xmlns="http://www.w3.org/2000/svg" xmlns:xlink="http://www.w3.org/1999/xlink" xmlns:sketch="http://www.bohemiancoding.com/sketch/ns">
    <!-- Generator: Sketch 3.2.2 (9983) - http://www.bohemiancoding.com/sketch -->
    <title>271 - Camera (Flat)</title>
    <desc>Created with Sketch.</desc>
    <defs></defs>
    <g id="Page-1" stroke="none" stroke-width="1" fill="none" fill-rule="evenodd" sketch:type="MSPage">
        <g id="271---Camera-(Flat)" sketch:type="MSLayerGroup">
            <path d="M19,0 L38,0 L38,4 L19,4 L19,0 Z" id="Fill-240" fill="#226BAC" sketch:type="MSShapeGroup"></path>
            <path d="M53.63,44 L2.37,44 C1.061,44 0,42.939 0,41.63 L0,6.37 C0,5.061 1.061,4 2.37,4 L53.63,4 C54.939,4 56,5.061 56,6.37 L56,41.63 C56,42.939 54.939,44 53.63,44" id="Fill-696" fill="#57ABC1" sketch:type="MSShapeGroup"></path>
            <path d="M45,24 C45,32.837 37.836,40 29,40 C20.163,40 13,32.837 13,24 C13,15.164 20.163,8 29,8 C37.836,8 45,15.164 45,24" id="Fill-697" fill="#424A60" sketch:type="MSShapeGroup"></path>
            <path d="M43,24 C43,31.732 36.732,38 29,38 C21.268,38 15,31.732 15,24 C15,16.268 21.268,10 29,10 C36.732,10 43,16.268 43,24" id="Fill-2587" fill="#7383BF" sketch:type="MSShapeGroup"></path>
            <path d="M32.818,24 C32.818,28.576 34.622,32.626 37.4,35.181 C40.795,32.626 43,28.576 43,24 C43,19.424 40.795,15.374 37.4,12.819 C34.622,15.374 32.818,19.424 32.818,24" id="Fill-2588" fill="#879AD8" sketch:type="MSShapeGroup"></path>
            <path d="M15,24 C15,28.576 17.205,32.626 20.6,35.181 C23.378,32.626 25.182,28.576 25.182,24 C25.182,19.424 23.378,15.374 20.6,12.819 C17.205,15.374 15,19.424 15,24" id="Fill-2589" fill="#879AD8" sketch:type="MSShapeGroup"></path>
            <path d="M26.454,18.909 C26.454,20.315 25.315,21.455 23.909,21.455 C22.503,21.455 21.364,20.315 21.364,18.909 C21.364,17.503 22.503,16.364 23.909,16.364 C25.315,16.364 26.454,17.503 26.454,18.909" id="Fill-2590" fill="#BCCEF8" sketch:type="MSShapeGroup"></path>
        </g>
    </g>
</svg>