<?xml version="1.0" encoding="UTF-8" standalone="no"?>
<svg width="30px" height="58px" viewBox="0 0 30 58" version="1.1" xmlns="http://www.w3.org/2000/svg" xmlns:xlink="http://www.w3.org/1999/xlink" xmlns:sketch="http://www.bohemiancoding.com/sketch/ns">
    <!-- Generator: Sketch 3.2.2 (9983) - http://www.bohemiancoding.com/sketch -->
    <title>140 - Charging Battery (Flat)</title>
    <desc>Created with Sketch.</desc>
    <defs></defs>
    <g id="Page-1" stroke="none" stroke-width="1" fill="none" fill-rule="evenodd" sketch:type="MSPage">
        <g id="140---Charging-Battery-(Flat)" sketch:type="MSLayerGroup">
            <path d="M27.536,58 L2.464,58 C1.103,58 0,56.897 0,55.536 L0,6.464 C0,5.103 1.103,4 2.464,4 L27.536,4 C28.897,4 30,5.103 30,6.464 L30,55.536 C30,56.897 28.897,58 27.536,58" id="Fill-1051" fill="#424A60" sketch:type="MSShapeGroup"></path>
            <path d="M10,0 L20,0 L20,4 L10,4 L10,0 Z" id="Fill-1052" fill="#D8A852" sketch:type="MSShapeGroup"></path>
            <path d="M22,29 L18,29 L18,16.068 C18.012,16.01 17.936,15.976 17.9,16.021 L8,32 L13,32 L13.002,45.929 C12.986,45.988 13.062,46.026 13.1,45.979 L22,29" id="Fill-1053" fill="#F0CE49" sketch:type="MSShapeGroup"></path>
            <path d="M27.536,4 L2.464,4 C1.103,4 0,5.103 0,6.464 L0,13 L30,13 L30,6.464 C30,5.103 28.897,4 27.536,4" id="Fill-3007" fill="#EA6148" sketch:type="MSShapeGroup"></path>
        </g>
    </g>
</svg>