<?xml version="1.0" encoding="UTF-8" standalone="no"?>
<svg width="60px" height="54px" viewBox="0 0 60 54" version="1.1" xmlns="http://www.w3.org/2000/svg" xmlns:xlink="http://www.w3.org/1999/xlink" xmlns:sketch="http://www.bohemiancoding.com/sketch/ns">
    <!-- Generator: Sketch 3.2.2 (9983) - http://www.bohemiancoding.com/sketch -->
    <title>168 - Coud Sync (Flat)</title>
    <desc>Created with Sketch.</desc>
    <defs></defs>
    <g id="Page-1" stroke="none" stroke-width="1" fill="none" fill-rule="evenodd" sketch:type="MSPage">
        <g id="168---Coud-Sync-(Flat)" sketch:type="MSLayerGroup" transform="translate(1.000000, 1.000000)">
            <path d="M49.003,16 C48.889,7.301 41.811,0 33.084,0 C27.525,0 22.306,3.005 19.424,7.337 C18.157,6.494 16.636,6 15,6 C10.582,6 7,9.582 7,14 C7,14.153 7.014,14.302 7.023,14.454 C7.013,14.636 7,14.82 7,15 C3.012,16.912 0,21.458 0,26.155 C0,32.67 5.33,38 11.845,38 L36.352,38 C36.49,38 36.624,37.984 36.761,37.979 C36.897,37.984 37.031,38 37.169,38 L46.972,38 C53.037,38 58,33.037 58,26.972 C58,21.601 54.106,16.961 49.003,16 L49.003,16 Z" id="Fill-2641" fill="#7FABDA" sketch:type="MSShapeGroup"></path>
            <path d="M49.003,16 C48.889,7.301 41.811,0 33.084,0 C27.525,0 22.306,3.005 19.424,7.337 C18.157,6.494 16.636,6 15,6 C10.582,6 7,9.582 7,14 C7,14.153 7.014,14.302 7.023,14.454 C7.013,14.636 7,14.82 7,15 C3.012,16.912 0,21.458 0,26.155 C0,32.67 5.33,38 11.845,38 L36.352,38 C36.49,38 36.624,37.984 36.761,37.979 C36.897,37.984 37.031,38 37.169,38 L46.972,38 C53.037,38 58,33.037 58,26.972 C58,21.601 54.106,16.961 49.003,16 L49.003,16 Z" id="Stroke-2642" stroke="#7383BF" stroke-width="2" stroke-linecap="round" sketch:type="MSShapeGroup"></path>
            <path d="M49.003,16 C49.003,16 46.469,15.625 44,16" id="Fill-2643" fill="#7FABDA" sketch:type="MSShapeGroup"></path>
            <path d="M49.003,16 C49.003,16 46.469,15.625 44,16" id="Stroke-2644" stroke="#7383BF" stroke-width="2" stroke-linecap="round" sketch:type="MSShapeGroup"></path>
            <path d="M7,14 C7,9.582 10.582,6 15,6 C19.418,6 23,9.582 23,14" id="Fill-2645" fill="#7FABDA" sketch:type="MSShapeGroup"></path>
            <path d="M7,14 C7,9.582 10.582,6 15,6 C19.418,6 23,9.582 23,14" id="Stroke-2646" stroke="#7383BF" stroke-width="2" stroke-linecap="round" sketch:type="MSShapeGroup"></path>
            <path d="M46,37 C46,45.837 38.837,53 30,53 C21.163,53 14,45.837 14,37 C14,28.163 21.163,21 30,21 C38.837,21 46,28.163 46,37" id="Fill-2650" fill="#556080" sketch:type="MSShapeGroup"></path>
            <path d="M40,37 C39.448,37 39,37.448 39,38 C39,42.963 34.962,47 30,47 C25.038,47 21,42.963 21,38 C21,33.037 25.038,29 30,29 C33,29 35.677,30.506 37.311,33 L31,33 C30.448,33 30,33.448 30,34 C30,34.553 30.448,35 31,35 L39,35 C39.002,35 39.003,34.999 39.004,34.999 C39.075,34.999 39.144,34.973 39.215,34.957 C39.275,34.943 39.34,34.942 39.396,34.917 C39.397,34.917 39.399,34.917 39.401,34.916 C39.435,34.901 39.456,34.873 39.488,34.855 C39.569,34.809 39.65,34.762 39.715,34.696 C39.759,34.65 39.785,34.593 39.819,34.541 C39.856,34.486 39.899,34.437 39.924,34.375 C39.958,34.292 39.967,34.201 39.978,34.11 C39.982,34.073 40,34.039 40,34 L40,26 C40,25.448 39.552,25 39,25 C38.448,25 38,25.448 38,26 L38,30.6 C35.986,28.328 33.136,27 30,27 C23.935,27 19,31.935 19,38 C19,44.066 23.935,49 30,49 C36.065,49 41,44.066 41,38 C41,37.448 40.552,37 40,37" id="Fill-2651" fill="#FFFFFF" sketch:type="MSShapeGroup"></path>
        </g>
    </g>
</svg>