<?xml version="1.0" encoding="UTF-8" standalone="no"?>
<svg width="60px" height="54px" viewBox="0 0 60 54" version="1.1" xmlns="http://www.w3.org/2000/svg" xmlns:xlink="http://www.w3.org/1999/xlink" xmlns:sketch="http://www.bohemiancoding.com/sketch/ns">
    <!-- Generator: Sketch 3.2.2 (9983) - http://www.bohemiancoding.com/sketch -->
    <title>167 - Cloud Search (Flat)</title>
    <desc>Created with Sketch.</desc>
    <defs></defs>
    <g id="Page-1" stroke="none" stroke-width="1" fill="none" fill-rule="evenodd" sketch:type="MSPage">
        <g id="167---Cloud-Search-(Flat)" sketch:type="MSLayerGroup" transform="translate(1.000000, 1.000000)">
            <path d="M49.003,16 C48.889,7.301 41.811,0 33.084,0 C27.525,0 22.306,3.005 19.424,7.337 C18.157,6.494 16.636,6 15,6 C10.582,6 7,9.582 7,14 C7,14.153 7.014,14.302 7.023,14.454 C7.013,14.636 7,14.82 7,15 C3.011,16.912 0,21.458 0,26.155 C0,32.67 5.33,38 11.845,38 L36.352,38 C36.49,38 36.624,37.984 36.761,37.979 C36.897,37.984 37.031,38 37.169,38 L46.972,38 C53.037,38 58,33.037 58,26.972 C58,21.601 54.106,16.961 49.003,16 L49.003,16 Z" id="Fill-213" fill="#7FABDA" sketch:type="MSShapeGroup"></path>
            <path d="M49.003,16 C48.889,7.301 41.811,0 33.084,0 C27.525,0 22.306,3.005 19.424,7.337 C18.157,6.494 16.636,6 15,6 C10.582,6 7,9.582 7,14 C7,14.153 7.014,14.302 7.023,14.454 C7.013,14.636 7,14.82 7,15 C3.011,16.912 0,21.458 0,26.155 C0,32.67 5.33,38 11.845,38 L36.352,38 C36.49,38 36.624,37.984 36.761,37.979 C36.897,37.984 37.031,38 37.169,38 L46.972,38 C53.037,38 58,33.037 58,26.972 C58,21.601 54.106,16.961 49.003,16 L49.003,16 Z" id="Stroke-214" stroke="#7383BF" stroke-width="2" stroke-linecap="round" sketch:type="MSShapeGroup"></path>
            <path d="M49.003,16 C49.003,16 46.469,15.625 44,16" id="Fill-215" fill="#7FABDA" sketch:type="MSShapeGroup"></path>
            <path d="M49.003,16 C49.003,16 46.469,15.625 44,16" id="Stroke-216" stroke="#7383BF" stroke-width="2" stroke-linecap="round" sketch:type="MSShapeGroup"></path>
            <path d="M7,14 C7,9.582 10.582,6 15,6 C19.418,6 23,9.582 23,14" id="Fill-217" fill="#7FABDA" sketch:type="MSShapeGroup"></path>
            <path d="M7,14 C7,9.582 10.582,6 15,6 C19.418,6 23,9.582 23,14" id="Stroke-218" stroke="#7383BF" stroke-width="2" stroke-linecap="round" sketch:type="MSShapeGroup"></path>
            <path d="M40,35 C40,40.523 35.523,45 30,45 C24.477,45 20,40.523 20,35 C20,29.477 24.477,25 30,25 C35.523,25 40,29.477 40,35 L40,35 Z" id="Fill-1002" fill="#E8EDEE" sketch:type="MSShapeGroup"></path>
            <path d="M40,35 C40,40.523 35.523,45 30,45 C24.477,45 20,40.523 20,35 C20,29.477 24.477,25 30,25 C35.523,25 40,29.477 40,35 L40,35 Z" id="Stroke-1003" stroke="#424A60" stroke-width="2" stroke-linecap="round" sketch:type="MSShapeGroup"></path>
            <path d="M37.071,42.071 L47,52" id="Stroke-1006" stroke="#424A60" stroke-width="2" stroke-linecap="round" sketch:type="MSShapeGroup"></path>
        </g>
    </g>
</svg>