<?xml version="1.0" encoding="UTF-8" standalone="no"?>
<svg width="57px" height="54px" viewBox="0 0 57 54" version="1.1" xmlns="http://www.w3.org/2000/svg" xmlns:xlink="http://www.w3.org/1999/xlink" xmlns:sketch="http://www.bohemiancoding.com/sketch/ns">
    <!-- Generator: Sketch 3.2.2 (9983) - http://www.bohemiancoding.com/sketch -->
    <title>112 - Controls (Flat)</title>
    <desc>Created with Sketch.</desc>
    <defs></defs>
    <g id="Page-1" stroke="none" stroke-width="1" fill="none" fill-rule="evenodd" sketch:type="MSPage">
        <g id="112---Controls-(Flat)" sketch:type="MSLayerGroup">
            <path d="M6,42 C5.447,42 5,41.553 5,41 L5,1 C5,0.448 5.447,0 6,0 C6.553,0 7,0.448 7,1 L7,41 C7,41.553 6.553,42 6,42" id="Fill-127" fill="#556080" sketch:type="MSShapeGroup"></path>
            <path d="M21,30 C20.447,30 20,29.553 20,29 L20,1 C20,0.448 20.447,0 21,0 C21.553,0 22,0.448 22,1 L22,29 C22,29.553 21.553,30 21,30" id="Fill-128" fill="#556080" sketch:type="MSShapeGroup"></path>
            <path d="M36,18 C35.447,18 35,17.553 35,17 L35,1 C35,0.448 35.447,0 36,0 C36.553,0 37,0.448 37,1 L37,17 C37,17.553 36.553,18 36,18" id="Fill-129" fill="#556080" sketch:type="MSShapeGroup"></path>
            <path d="M51,6 C50.447,6 50,5.553 50,5 L50,1 C50,0.448 50.447,0 51,0 C51.553,0 52,0.448 52,1 L52,5 C52,5.553 51.553,6 51,6" id="Fill-130" fill="#556080" sketch:type="MSShapeGroup"></path>
            <path d="M21,54 C20.447,54 20,53.553 20,53 L20,41 C20,40.447 20.447,40 21,40 C21.553,40 22,40.447 22,41 L22,53 C22,53.553 21.553,54 21,54" id="Fill-131" fill="#556080" sketch:type="MSShapeGroup"></path>
            <path d="M36,54 C35.447,54 35,53.553 35,53 L35,29 C35,28.447 35.447,28 36,28 C36.553,28 37,28.447 37,29 L37,53 C37,53.553 36.553,54 36,54" id="Fill-132" fill="#556080" sketch:type="MSShapeGroup"></path>
            <path d="M51,54 C50.447,54 50,53.553 50,53 L50,17 C50,16.447 50.447,16 51,16 C51.553,16 52,16.447 52,17 L52,53 C52,53.553 51.553,54 51,54" id="Fill-133" fill="#556080" sketch:type="MSShapeGroup"></path>
            <path d="M6,41 C9.314,41 12,43.686 12,47 C12,50.314 9.314,53 6,53 C2.686,53 0,50.314 0,47 C0,43.686 2.686,41 6,41" id="Fill-1083" fill="#C7CBC7" sketch:type="MSShapeGroup"></path>
            <path d="M21,29 C24.314,29 27,31.686 27,35 C27,38.314 24.314,41 21,41 C17.686,41 15,38.314 15,35 C15,31.686 17.686,29 21,29" id="Fill-1084" fill="#C7CBC7" sketch:type="MSShapeGroup"></path>
            <path d="M51,5 C54.314,5 57,7.686 57,11 C57,14.314 54.314,17 51,17 C47.686,17 45,14.314 45,11 C45,7.686 47.686,5 51,5" id="Fill-1085" fill="#C7CBC7" sketch:type="MSShapeGroup"></path>
            <path d="M6,39 C9.314,39 12,41.687 12,45 C12,48.314 9.314,51 6,51 C2.686,51 0,48.314 0,45 C0,41.687 2.686,39 6,39" id="Fill-1088" fill="#E8EDEE" sketch:type="MSShapeGroup"></path>
            <path d="M21,27 C24.314,27 27,29.687 27,33 C27,36.314 24.314,39 21,39 C17.686,39 15,36.314 15,33 C15,29.687 17.686,27 21,27" id="Fill-1089" fill="#E8EDEE" sketch:type="MSShapeGroup"></path>
            <path d="M36,17 C39.314,17 42,19.686 42,23 C42,26.314 39.314,29 36,29 C32.686,29 30,26.314 30,23 C30,19.686 32.686,17 36,17" id="Fill-1090" fill="#C7CBC7" sketch:type="MSShapeGroup"></path>
            <path d="M36,15 C39.314,15 42,17.687 42,21 C42,24.314 39.314,27 36,27 C32.686,27 30,24.314 30,21 C30,17.687 32.686,15 36,15" id="Fill-1091" fill="#E8EDEE" sketch:type="MSShapeGroup"></path>
            <path d="M51,3 C54.314,3 57,5.687 57,9 C57,12.314 54.314,15 51,15 C47.686,15 45,12.314 45,9 C45,5.687 47.686,3 51,3" id="Fill-1092" fill="#E8EDEE" sketch:type="MSShapeGroup"></path>
            <path d="M52,8 L50,8 C49.447,8 49,7.553 49,7 C49,6.448 49.447,6 50,6 L52,6 C52.553,6 53,6.448 53,7 C53,7.553 52.553,8 52,8" id="Fill-1214" fill="#FFFFFF" sketch:type="MSShapeGroup"></path>
            <path d="M37,20 L35,20 C34.447,20 34,19.553 34,19 C34,18.448 34.447,18 35,18 L37,18 C37.553,18 38,18.448 38,19 C38,19.553 37.553,20 37,20" id="Fill-1215" fill="#FFFFFF" sketch:type="MSShapeGroup"></path>
            <path d="M37,24 L35,24 C34.447,24 34,23.553 34,23 C34,22.447 34.447,22 35,22 L37,22 C37.553,22 38,22.447 38,23 C38,23.553 37.553,24 37,24" id="Fill-1216" fill="#FFFFFF" sketch:type="MSShapeGroup"></path>
            <path d="M22,32 L20,32 C19.447,32 19,31.553 19,31 C19,30.448 19.447,30 20,30 L22,30 C22.553,30 23,30.448 23,31 C23,31.553 22.553,32 22,32" id="Fill-1217" fill="#FFFFFF" sketch:type="MSShapeGroup"></path>
            <path d="M22,36 L20,36 C19.447,36 19,35.553 19,35 C19,34.447 19.447,34 20,34 L22,34 C22.553,34 23,34.447 23,35 C23,35.553 22.553,36 22,36" id="Fill-1218" fill="#FFFFFF" sketch:type="MSShapeGroup"></path>
            <path d="M7,44 L5,44 C4.447,44 4,43.553 4,43 C4,42.448 4.447,42 5,42 L7,42 C7.553,42 8,42.448 8,43 C8,43.553 7.553,44 7,44" id="Fill-1219" fill="#FFFFFF" sketch:type="MSShapeGroup"></path>
            <path d="M7,48 L5,48 C4.447,48 4,47.553 4,47 C4,46.447 4.447,46 5,46 L7,46 C7.553,46 8,46.447 8,47 C8,47.553 7.553,48 7,48" id="Fill-1220" fill="#FFFFFF" sketch:type="MSShapeGroup"></path>
            <path d="M52,12 L50,12 C49.447,12 49,11.553 49,11 C49,10.447 49.447,10 50,10 L52,10 C52.553,10 53,10.447 53,11 C53,11.553 52.553,12 52,12" id="Fill-1221" fill="#FFFFFF" sketch:type="MSShapeGroup"></path>
        </g>
    </g>
</svg>