<?xml version="1.0" encoding="UTF-8" standalone="no"?>
<svg width="54px" height="56px" viewBox="0 0 54 56" version="1.1" xmlns="http://www.w3.org/2000/svg" xmlns:xlink="http://www.w3.org/1999/xlink" xmlns:sketch="http://www.bohemiancoding.com/sketch/ns">
    <!-- Generator: Sketch 3.2.2 (9983) - http://www.bohemiancoding.com/sketch -->
    <title>116 - Controls (Flat)</title>
    <desc>Created with Sketch.</desc>
    <defs></defs>
    <g id="Page-1" stroke="none" stroke-width="1" fill="none" fill-rule="evenodd" sketch:type="MSPage">
        <g id="116---Controls-(Flat)" sketch:type="MSLayerGroup">
            <path d="M13,9 L53,9 C53.553,9 54,8.553 54,8 C54,7.447 53.553,7 53,7 L13,7 C12.448,7 12,7.447 12,8 C12,8.553 12.448,9 13,9" id="Fill-141" fill="#949493" sketch:type="MSShapeGroup"></path>
            <path d="M41,49 L1,49 C0.448,49 0,49.447 0,50 C0,50.553 0.448,51 1,51 L41,51 C41.552,51 42,50.553 42,50 C42,49.447 41.552,49 41,49" id="Fill-142" fill="#949493" sketch:type="MSShapeGroup"></path>
            <path d="M53,28 L34,28 C33.448,28 33,28.447 33,29 C33,29.553 33.448,30 34,30 L53,30 C53.553,30 54,29.553 54,29 C54,28.447 53.553,28 53,28" id="Fill-143" fill="#949493" sketch:type="MSShapeGroup"></path>
            <path d="M1,30 L21,30 C21.552,30 22,29.553 22,29 C22,28.447 21.552,28 21,28 L1,28 C0.448,28 0,28.447 0,29 C0,29.553 0.448,30 1,30" id="Fill-144" fill="#949493" sketch:type="MSShapeGroup"></path>
            <path d="M13,8 C13,11.314 10.314,14 7,14 C3.686,14 1,11.314 1,8 C1,4.687 3.686,2 7,2 C10.314,2 13,4.687 13,8" id="Fill-1093" fill="#C7CBC7" sketch:type="MSShapeGroup"></path>
            <path d="M33.414,28.793 C33.414,32.221 30.635,35 27.207,35 C23.779,35 21,32.221 21,28.793 C21,25.365 23.779,22.586 27.207,22.586 C30.635,22.586 33.414,25.365 33.414,28.793" id="Fill-1094" fill="#C7CBC7" sketch:type="MSShapeGroup"></path>
            <path d="M41,50 C41,53.314 43.686,56 47,56 C50.314,56 53,53.314 53,50 C53,46.687 50.314,44 47,44 C43.686,44 41,46.687 41,50" id="Fill-1095" fill="#C7CBC7" sketch:type="MSShapeGroup"></path>
            <path d="M13,6 C13,9.314 10.314,12 7,12 C3.686,12 1,9.314 1,6 C1,2.687 3.686,0 7,0 C10.314,0 13,2.687 13,6" id="Fill-1096" fill="#E8EDEE" sketch:type="MSShapeGroup"></path>
            <path d="M33.414,26.793 C33.414,30.221 30.635,33 27.207,33 C23.779,33 21,30.221 21,26.793 C21,23.365 23.779,20.586 27.207,20.586 C30.635,20.586 33.414,23.365 33.414,26.793" id="Fill-1097" fill="#E8EDEE" sketch:type="MSShapeGroup"></path>
            <path d="M41,48 C41,51.314 43.686,54 47,54 C50.314,54 53,51.314 53,48 C53,44.687 50.314,42 47,42 C43.686,42 41,44.687 41,48" id="Fill-1098" fill="#E8EDEE" sketch:type="MSShapeGroup"></path>
        </g>
    </g>
</svg>