<?xml version="1.0" encoding="UTF-8" standalone="no"?>
<svg width="54px" height="54px" viewBox="0 0 54 54" version="1.1" xmlns="http://www.w3.org/2000/svg" xmlns:xlink="http://www.w3.org/1999/xlink" xmlns:sketch="http://www.bohemiancoding.com/sketch/ns">
    <!-- Generator: Sketch 3.2.2 (9983) - http://www.bohemiancoding.com/sketch -->
    <title>341 - Dial Pad (Flat)</title>
    <desc>Created with Sketch.</desc>
    <defs></defs>
    <g id="Page-1" stroke="none" stroke-width="1" fill="none" fill-rule="evenodd" sketch:type="MSPage">
        <g id="Icons" sketch:type="MSArtboardGroup" transform="translate(-1203.000000, -720.000000)" fill="#556080">
            <g id="341---Dial-Pad-(Flat)" sketch:type="MSLayerGroup" transform="translate(1203.000000, 720.000000)">
                <path d="M14,47 C14,50.866 10.866,54 7,54 C3.134,54 0,50.866 0,47 C0,43.134 3.134,40 7,40 C10.866,40 14,43.134 14,47" id="Fill-507" sketch:type="MSShapeGroup"></path>
                <path d="M34,47 C34,50.866 30.866,54 27,54 C23.134,54 20,50.866 20,47 C20,43.134 23.134,40 27,40 C30.866,40 34,43.134 34,47" id="Fill-508" sketch:type="MSShapeGroup"></path>
                <path d="M54,47 C54,50.866 50.866,54 47,54 C43.134,54 40,50.866 40,47 C40,43.134 43.134,40 47,40 C50.866,40 54,43.134 54,47" id="Fill-509" sketch:type="MSShapeGroup"></path>
                <path d="M14,27 C14,30.866 10.866,34 7,34 C3.134,34 0,30.866 0,27 C0,23.134 3.134,20 7,20 C10.866,20 14,23.134 14,27" id="Fill-510" sketch:type="MSShapeGroup"></path>
                <path d="M34,27 C34,30.866 30.866,34 27,34 C23.134,34 20,30.866 20,27 C20,23.134 23.134,20 27,20 C30.866,20 34,23.134 34,27" id="Fill-511" sketch:type="MSShapeGroup"></path>
                <path d="M54,27 C54,30.866 50.866,34 47,34 C43.134,34 40,30.866 40,27 C40,23.134 43.134,20 47,20 C50.866,20 54,23.134 54,27" id="Fill-512" sketch:type="MSShapeGroup"></path>
                <path d="M14,7 C14,10.866 10.866,14 7,14 C3.134,14 0,10.866 0,7 C0,3.134 3.134,0 7,0 C10.866,0 14,3.134 14,7" id="Fill-513" sketch:type="MSShapeGroup"></path>
                <path d="M34,7 C34,10.866 30.866,14 27,14 C23.134,14 20,10.866 20,7 C20,3.134 23.134,0 27,0 C30.866,0 34,3.134 34,7" id="Fill-514" sketch:type="MSShapeGroup"></path>
                <path d="M54,7 C54,10.866 50.866,14 47,14 C43.134,14 40,10.866 40,7 C40,3.134 43.134,0 47,0 C50.866,0 54,3.134 54,7" id="Fill-515" sketch:type="MSShapeGroup"></path>
            </g>
        </g>
    </g>
</svg>