<?xml version="1.0" encoding="UTF-8" standalone="no"?>
<svg width="42px" height="36px" viewBox="0 0 42 36" version="1.1" xmlns="http://www.w3.org/2000/svg" xmlns:xlink="http://www.w3.org/1999/xlink" xmlns:sketch="http://www.bohemiancoding.com/sketch/ns">
    <!-- Generator: Sketch 3.2.2 (9983) - http://www.bohemiancoding.com/sketch -->
    <title>217 - Divide (Flat)</title>
    <desc>Created with Sketch.</desc>
    <defs></defs>
    <g id="Page-1" stroke="none" stroke-width="1" fill="none" fill-rule="evenodd" sketch:type="MSPage">
        <g id="217---Divide-(Flat)" sketch:type="MSLayerGroup" transform="translate(0.000000, 1.000000)" stroke="#C6411E" stroke-width="2">
            <path d="M42,17 L0,17" id="Stroke-807" sketch:type="MSShapeGroup"></path>
            <path d="M21,8 L21,8 C18.8,8 17,6.2 17,4 C17,1.8 18.8,0 21,0 C23.2,0 25,1.8 25,4 C25,6.2 23.2,8 21,8 L21,8 Z M21,34 L21,34 C18.8,34 17,32.2 17,30 C17,27.8 18.8,26 21,26 C23.2,26 25,27.8 25,30 C25,32.2 23.2,34 21,34 L21,34 Z" id="Stroke-810" sketch:type="MSShapeGroup"></path>
        </g>
    </g>
</svg>