<?xml version="1.0" encoding="UTF-8" standalone="no"?>
<svg width="58px" height="47px" viewBox="0 0 58 47" version="1.1" xmlns="http://www.w3.org/2000/svg" xmlns:xlink="http://www.w3.org/1999/xlink" xmlns:sketch="http://www.bohemiancoding.com/sketch/ns">
    <!-- Generator: Sketch 3.2.2 (9983) - http://www.bohemiancoding.com/sketch -->
    <title>59 - Document Folder (Flat)</title>
    <desc>Created with Sketch.</desc>
    <defs></defs>
    <g id="Page-1" stroke="none" stroke-width="1" fill="none" fill-rule="evenodd" sketch:type="MSPage">
        <g id="Icons" sketch:type="MSArtboardGroup" transform="translate(-241.000000, -4202.000000)">
            <g id="59---Document-Folder-(Flat)" sketch:type="MSLayerGroup" transform="translate(240.000000, 4202.000000)">
                <path d="M47.324,47 L2.565,47 C1.535,47 0.786,46.022 1.055,45.028 L11.221,17.156 C11.405,16.474 12.024,16 12.731,16 L57.49,16 C58.52,16 59,16.985 59,17.973 L48.834,45.844 C48.65,46.526 48.031,47 47.324,47" id="Fill-1460" fill="#F0CE49" sketch:type="MSShapeGroup"></path>
                <path d="M11.221,17.156 C11.405,16.474 12.024,16 12.731,16 L54,16 L54,7 L10,7 L4,13 L4,36.953 L11.221,17.156" id="Fill-1461" fill="#F4EFDC" sketch:type="MSShapeGroup"></path>
                <path d="M4,13 L10,7 L26,7 L21,0 L2.732,0 C1.776,0 1,0.775 1,1.733 L1,44.46 C1.069,44.462 1.138,44.466 1.205,44.47 L4,36.849 L4,13" id="Fill-1462" fill="#ECBA16" sketch:type="MSShapeGroup"></path>
                <path d="M29,12 L31,12 L31,16 L29,16 L29,12 Z" id="Fill-2144" fill="#D1BF86" sketch:type="MSShapeGroup"></path>
                <path d="M36,12 L38,12 L38,16 L36,16 L36,12 Z" id="Fill-2145" fill="#D1BF86" sketch:type="MSShapeGroup"></path>
                <path d="M43,12 L45,12 L45,16 L43,16 L43,12 Z" id="Fill-2146" fill="#D1BF86" sketch:type="MSShapeGroup"></path>
                <path d="M15,12 L17,12 L17,16 L15,16 L15,12 Z" id="Fill-2147" fill="#D1BF86" sketch:type="MSShapeGroup"></path>
                <path d="M22,12 L24,12 L24,16 L22,16 L22,12 Z" id="Fill-2148" fill="#D1BF86" sketch:type="MSShapeGroup"></path>
                <path d="M10,13 L10,7 L4,13 L10,13" id="Fill-3078" fill="#D1BF86" sketch:type="MSShapeGroup"></path>
            </g>
        </g>
    </g>
</svg>