<?xml version="1.0" encoding="UTF-8" standalone="no"?>
<svg width="58px" height="47px" viewBox="0 0 58 47" version="1.1" xmlns="http://www.w3.org/2000/svg" xmlns:xlink="http://www.w3.org/1999/xlink" xmlns:sketch="http://www.bohemiancoding.com/sketch/ns">
    <!-- Generator: Sketch 3.2.2 (9983) - http://www.bohemiancoding.com/sketch -->
    <title>58 - Document Folder (Flat)</title>
    <desc>Created with Sketch.</desc>
    <defs></defs>
    <g id="Page-1" stroke="none" stroke-width="1" fill="none" fill-rule="evenodd" sketch:type="MSPage">
        <g id="Icons" sketch:type="MSArtboardGroup" transform="translate(-361.000000, -4202.000000)">
            <g id="58---Document-Folder-(Flat)" sketch:type="MSLayerGroup" transform="translate(360.000000, 4202.000000)">
                <path d="M47.324,47 L2.565,47 C1.535,47 0.786,46.022 1.055,45.028 L11.221,17.156 C11.405,16.474 12.024,16 12.731,16 L57.49,16 C58.52,16 59,16.985 59,17.973 L48.834,45.844 C48.65,46.526 48.031,47 47.324,47" id="Fill-1463" fill="#F0CE49" sketch:type="MSShapeGroup"></path>
                <path d="M11.221,17.156 C11.405,16.474 12.024,16 12.731,16 L54,16 L54,9 L10,9 L4,15 L4,36.953 L11.221,17.156" id="Fill-1549" fill="#F4EFDC" sketch:type="MSShapeGroup"></path>
                <path d="M24.571,5 L21,0 L2.732,0 C1.776,0 1,0.775 1,1.733 L1,44.46 C1.069,44.462 1.138,44.466 1.205,44.47 L4,36.849 L4,15 L6,13 L6,5 L24.571,5" id="Fill-1550" fill="#ECBA16" sketch:type="MSShapeGroup"></path>
                <path d="M6,5 L6,13 L10,9 L52,9 L52,5 L6,5" id="Fill-1551" fill="#D1BF86" sketch:type="MSShapeGroup"></path>
                <path d="M29,14 L31,14 L31,16 L29,16 L29,14 Z" id="Fill-2139" fill="#BFBAA5" sketch:type="MSShapeGroup"></path>
                <path d="M36,14 L38,14 L38,16 L36,16 L36,14 Z" id="Fill-2140" fill="#BFBAA5" sketch:type="MSShapeGroup"></path>
                <path d="M43,14 L45,14 L45,16 L43,16 L43,14 Z" id="Fill-2141" fill="#BFBAA5" sketch:type="MSShapeGroup"></path>
                <path d="M15,14 L17,14 L17,16 L15,16 L15,14 Z" id="Fill-2142" fill="#BFBAA5" sketch:type="MSShapeGroup"></path>
                <path d="M22,14 L24,14 L24,16 L22,16 L22,14 Z" id="Fill-2143" fill="#BFBAA5" sketch:type="MSShapeGroup"></path>
                <path d="M10,15 L10,9 L4,15 L10,15" id="Fill-3073" fill="#CEC9AE" sketch:type="MSShapeGroup"></path>
            </g>
        </g>
    </g>
</svg>