<?xml version="1.0" encoding="UTF-8" standalone="no"?>
<svg width="58px" height="59px" viewBox="0 0 58 59" version="1.1" xmlns="http://www.w3.org/2000/svg" xmlns:xlink="http://www.w3.org/1999/xlink" xmlns:sketch="http://www.bohemiancoding.com/sketch/ns">
    <!-- Generator: Sketch 3.2.2 (9983) - http://www.bohemiancoding.com/sketch -->
    <title>38 - Calendar Event (Flat)</title>
    <desc>Created with Sketch.</desc>
    <defs></defs>
    <g id="Page-1" stroke="none" stroke-width="1" fill="none" fill-rule="evenodd" sketch:type="MSPage">
        <g id="Icons" sketch:type="MSArtboardGroup" transform="translate(-361.000000, -4438.000000)">
            <g id="38---Calendar-Event-(Flat)" sketch:type="MSLayerGroup" transform="translate(361.000000, 4438.000000)">
                <path d="M1,16 L57,16 L57,58 L1,58 L1,16 Z" id="Fill-15" fill="#A7AFC6" sketch:type="MSShapeGroup"></path>
                <path d="M42,5 L0,5 L0,15 L58,15 L58,5 L42,5" id="Fill-41" fill="#424A60" sketch:type="MSShapeGroup"></path>
                <path d="M22,9 C22,10.104 21.105,11 20,11 C18.895,11 18,10.104 18,9 C18,7.896 18.895,7 20,7 C21.105,7 22,7.896 22,9" id="Fill-42" fill="#262B38" sketch:type="MSShapeGroup"></path>
                <path d="M28,9 C28,10.104 27.105,11 26,11 C24.895,11 24,10.104 24,9 C24,7.896 24.895,7 26,7 C27.105,7 28,7.896 28,9" id="Fill-43" fill="#262B38" sketch:type="MSShapeGroup"></path>
                <path d="M34,9 C34,10.104 33.105,11 32,11 C30.895,11 30,10.104 30,9 C30,7.896 30.895,7 32,7 C33.105,7 34,7.896 34,9" id="Fill-44" fill="#262B38" sketch:type="MSShapeGroup"></path>
                <path d="M40,9 C40,10.104 39.105,11 38,11 C36.895,11 36,10.104 36,9 C36,7.896 36.895,7 38,7 C39.105,7 40,7.896 40,9" id="Fill-45" fill="#262B38" sketch:type="MSShapeGroup"></path>
                <path d="M38,0 C36.87,0 35.838,0.391 35,1.025 C35.534,1.43 35.979,1.937 36.315,2.52 C36.796,2.193 37.376,2 38,2 C39.654,2 41,3.346 41,5 C41,6.655 39.654,8 38,8 C37.447,8 37,8.448 37,9 C37,9.553 37.447,10 38,10 C40.757,10 43,7.757 43,5 C43,2.243 40.757,0 38,0" id="Fill-46" fill="#B0B6BB" sketch:type="MSShapeGroup"></path>
                <path d="M33.685,2.52 C33.261,3.254 33,4.093 33,5 L35,5 C35,3.97 34.478,3.061 33.685,2.52" id="Fill-47" fill="#839494" sketch:type="MSShapeGroup"></path>
                <path d="M27.685,2.52 C27.261,3.254 27,4.093 27,5 L29,5 C29,3.97 28.478,3.061 27.685,2.52" id="Fill-48" fill="#839494" sketch:type="MSShapeGroup"></path>
                <path d="M36.315,2.52 C35.979,1.937 35.534,1.43 35,1.025 C34.162,0.391 33.13,0 32,0 C30.87,0 29.838,0.391 29,1.025 C29.534,1.43 29.979,1.937 30.315,2.52 C30.796,2.193 31.376,2 32,2 C32.624,2 33.204,2.193 33.685,2.52 C34.478,3.061 35,3.97 35,5 C35,6.655 33.654,8 32,8 C31.447,8 31,8.448 31,9 C31,9.553 31.447,10 32,10 C34.757,10 37,7.757 37,5 C37,4.093 36.739,3.254 36.315,2.52" id="Fill-49" fill="#B0B6BB" sketch:type="MSShapeGroup"></path>
                <path d="M21.685,2.52 C21.261,3.254 21,4.093 21,5 L23,5 C23,3.97 22.478,3.061 21.685,2.52" id="Fill-50" fill="#839494" sketch:type="MSShapeGroup"></path>
                <path d="M30.315,2.52 C29.979,1.937 29.534,1.43 29,1.025 C28.162,0.391 27.13,0 26,0 C24.87,0 23.838,0.391 23,1.025 C23.534,1.43 23.979,1.937 24.315,2.52 C24.796,2.193 25.376,2 26,2 C26.624,2 27.204,2.193 27.685,2.52 C28.478,3.061 29,3.97 29,5 C29,6.655 27.654,8 26,8 C25.447,8 25,8.448 25,9 C25,9.553 25.447,10 26,10 C28.757,10 31,7.757 31,5 C31,4.093 30.739,3.254 30.315,2.52" id="Fill-51" fill="#B0B6BB" sketch:type="MSShapeGroup"></path>
                <path d="M24.315,2.52 C23.979,1.937 23.534,1.43 23,1.025 C22.162,0.391 21.13,0 20,0 C17.243,0 15,2.243 15,5 L17,5 C17,3.346 18.346,2 20,2 C20.624,2 21.204,2.193 21.685,2.52 C22.478,3.061 23,3.97 23,5 C23,6.655 21.654,8 20,8 C19.447,8 19,8.448 19,9 C19,9.553 19.447,10 20,10 C22.757,10 25,7.757 25,5 C25,4.093 24.739,3.254 24.315,2.52" id="Fill-52" fill="#B0B6BB" sketch:type="MSShapeGroup"></path>
                <path d="M29,30 L43,30 L43,44 L29,44 L29,30 Z" id="Stroke-1670" stroke="#0F81E0" stroke-width="2" stroke-linecap="round" sketch:type="MSShapeGroup"></path>
                <path d="M44,15 L0,15 L0,59 L58,59 L58,15 L44,15 L44,15 Z M30,17 L42,17 L42,29 L30,29 L30,17 Z M30,31 L42,31 L42,43 L30,43 L30,31 Z M16,31 L28,31 L28,43 L16,43 L16,31 Z M16,17 L28,17 L28,29 L16,29 L16,17 Z M2,17 L14,17 L14,29 L2,29 L2,17 Z M2,31 L14,31 L14,43 L2,43 L2,31 Z M2,45 L14,45 L14,57 L2,57 L2,45 Z M16,45 L28,45 L28,57 L16,57 L16,45 Z M30,45 L42,45 L42,57 L30,57 L30,45 Z M44,45 L56,45 L56,57 L44,57 L44,45 Z M44,31 L56,31 L56,43 L44,43 L44,31 Z M44,17 L56,17 L56,29 L44,29 L44,17 Z" id="Fill-1671" fill="#556080" sketch:type="MSShapeGroup"></path>
                <path d="M30,31 L42,31 L42,43 L30,43 L30,31 Z" id="Fill-3134" fill="#ECBA16" sketch:type="MSShapeGroup"></path>
                <path d="M37.414,37 L40.707,33.707 C41.098,33.317 41.098,32.684 40.707,32.293 C40.316,31.902 39.684,31.902 39.293,32.293 L36,35.586 L32.707,32.293 C32.316,31.902 31.684,31.902 31.293,32.293 C30.902,32.684 30.902,33.317 31.293,33.707 L34.586,37 L31.293,40.293 C30.902,40.684 30.902,41.317 31.293,41.707 C31.488,41.903 31.744,42 32,42 C32.256,42 32.512,41.903 32.707,41.707 L36,38.414 L39.293,41.707 C39.488,41.903 39.744,42 40,42 C40.256,42 40.512,41.903 40.707,41.707 C41.098,41.317 41.098,40.684 40.707,40.293 L37.414,37" id="Fill-3135" fill="#F0CE49" sketch:type="MSShapeGroup"></path>
            </g>
        </g>
    </g>
</svg>