<?xml version="1.0" encoding="UTF-8" standalone="no"?>
<svg width="56px" height="55px" viewBox="0 0 56 55" version="1.1" xmlns="http://www.w3.org/2000/svg" xmlns:xlink="http://www.w3.org/1999/xlink" xmlns:sketch="http://www.bohemiancoding.com/sketch/ns">
    <!-- Generator: Sketch 3.2.2 (9983) - http://www.bohemiancoding.com/sketch -->
    <title>37 - Event Date (Flat)</title>
    <desc>Created with Sketch.</desc>
    <defs></defs>
    <g id="Page-1" stroke="none" stroke-width="1" fill="none" fill-rule="evenodd" sketch:type="MSPage">
        <g id="Icons" sketch:type="MSArtboardGroup" transform="translate(-482.000000, -4439.000000)">
            <g id="37---Event-Date-(Flat)" sketch:type="MSLayerGroup" transform="translate(482.000000, 4439.000000)">
                <path d="M41,5 L0,5 L0,15 L56,15 L56,5 L41,5" id="Fill-53" fill="#424A60" sketch:type="MSShapeGroup"></path>
                <path d="M21,9 C21,10.105 20.105,11 19,11 C17.895,11 17,10.105 17,9 C17,7.896 17.895,7 19,7 C20.105,7 21,7.896 21,9" id="Fill-54" fill="#262B38" sketch:type="MSShapeGroup"></path>
                <path d="M27,9 C27,10.105 26.105,11 25,11 C23.895,11 23,10.105 23,9 C23,7.896 23.895,7 25,7 C26.105,7 27,7.896 27,9" id="Fill-55" fill="#262B38" sketch:type="MSShapeGroup"></path>
                <path d="M33,9 C33,10.105 32.105,11 31,11 C29.895,11 29,10.105 29,9 C29,7.896 29.895,7 31,7 C32.105,7 33,7.896 33,9" id="Fill-56" fill="#262B38" sketch:type="MSShapeGroup"></path>
                <path d="M39,9 C39,10.105 38.105,11 37,11 C35.895,11 35,10.105 35,9 C35,7.896 35.895,7 37,7 C38.105,7 39,7.896 39,9" id="Fill-57" fill="#262B38" sketch:type="MSShapeGroup"></path>
                <path d="M37,0 C35.87,0 34.838,0.391 34,1.026 C34.534,1.43 34.979,1.937 35.315,2.52 C35.796,2.192 36.376,2 37,2 C38.654,2 40,3.346 40,5 C40,6.654 38.654,8 37,8 C36.447,8 36,8.447 36,9 C36,9.553 36.447,10 37,10 C39.757,10 42,7.757 42,5 C42,2.243 39.757,0 37,0" id="Fill-58" fill="#B0B6BB" sketch:type="MSShapeGroup"></path>
                <path d="M32.685,2.52 C32.261,3.254 32,4.094 32,5 L34,5 C34,3.97 33.478,3.06 32.685,2.52" id="Fill-59" fill="#839494" sketch:type="MSShapeGroup"></path>
                <path d="M26.685,2.52 C26.261,3.254 26,4.094 26,5 L28,5 C28,3.97 27.478,3.06 26.685,2.52" id="Fill-60" fill="#839494" sketch:type="MSShapeGroup"></path>
                <path d="M35.315,2.52 C34.979,1.937 34.534,1.43 34,1.026 C33.162,0.391 32.13,0 31,0 C29.87,0 28.838,0.391 28,1.026 C28.534,1.43 28.979,1.937 29.315,2.52 C29.796,2.192 30.376,2 31,2 C31.624,2 32.204,2.192 32.685,2.52 C33.478,3.06 34,3.97 34,5 C34,6.654 32.654,8 31,8 C30.447,8 30,8.447 30,9 C30,9.553 30.447,10 31,10 C33.757,10 36,7.757 36,5 C36,4.094 35.739,3.254 35.315,2.52" id="Fill-61" fill="#B0B6BB" sketch:type="MSShapeGroup"></path>
                <path d="M20.685,2.52 C20.261,3.254 20,4.094 20,5 L22,5 C22,3.97 21.478,3.06 20.685,2.52" id="Fill-62" fill="#839494" sketch:type="MSShapeGroup"></path>
                <path d="M29.315,2.52 C28.979,1.937 28.534,1.43 28,1.026 C27.162,0.391 26.13,0 25,0 C23.87,0 22.838,0.391 22,1.026 C22.534,1.43 22.979,1.937 23.315,2.52 C23.796,2.192 24.376,2 25,2 C25.624,2 26.204,2.192 26.685,2.52 C27.478,3.06 28,3.97 28,5 C28,6.654 26.654,8 25,8 C24.447,8 24,8.447 24,9 C24,9.553 24.447,10 25,10 C27.757,10 30,7.757 30,5 C30,4.094 29.739,3.254 29.315,2.52" id="Fill-63" fill="#B0B6BB" sketch:type="MSShapeGroup"></path>
                <path d="M23.315,2.52 C22.979,1.937 22.534,1.43 22,1.026 C21.162,0.391 20.13,0 19,0 C16.243,0 14,2.243 14,5 L16,5 C16,3.346 17.346,2 19,2 C19.624,2 20.204,2.192 20.685,2.52 C21.478,3.06 22,3.97 22,5 C22,6.654 20.654,8 19,8 C18.447,8 18,8.447 18,9 C18,9.553 18.447,10 19,10 C21.757,10 24,7.757 24,5 C24,4.094 23.739,3.254 23.315,2.52" id="Fill-64" fill="#B0B6BB" sketch:type="MSShapeGroup"></path>
                <path d="M0,15 L56,15 L56,55 L0,55 L0,15 Z" id="Fill-1658" fill="#EDEBDA" sketch:type="MSShapeGroup"></path>
                <path d="M8,24 L30,24 C30.552,24 31,23.553 31,23 C31,22.448 30.552,22 30,22 L8,22 C7.448,22 7,22.448 7,23 C7,23.553 7.448,24 8,24" id="Fill-1660" fill="#CEC9AE" sketch:type="MSShapeGroup"></path>
                <path d="M48,38 L33,38 C32.448,38 32,38.447 32,39 C32,39.553 32.448,40 33,40 L48,40 C48.552,40 49,39.553 49,39 C49,38.447 48.552,38 48,38" id="Fill-1661" fill="#CEC9AE" sketch:type="MSShapeGroup"></path>
                <path d="M8,32 L18,32 C18.552,32 19,31.553 19,31 C19,30.447 18.552,30 18,30 L8,30 C7.448,30 7,30.447 7,31 C7,31.553 7.448,32 8,32" id="Fill-1662" fill="#CEC9AE" sketch:type="MSShapeGroup"></path>
                <path d="M48,46 L38,46 C37.448,46 37,46.448 37,47 C37,47.553 37.448,48 38,48 L48,48 C48.552,48 49,47.553 49,47 C49,46.448 48.552,46 48,46" id="Fill-1663" fill="#CEC9AE" sketch:type="MSShapeGroup"></path>
                <path d="M27,31 C27,31.553 27.448,32 28,32 L43,32 C43.552,32 44,31.553 44,31 C44,30.447 43.552,30 43,30 L28,30 C27.448,30 27,30.447 27,31" id="Fill-1664" fill="#CEC9AE" sketch:type="MSShapeGroup"></path>
                <path d="M23.71,31.71 C23.89,31.52 24,31.26 24,31 C24,30.739 23.89,30.479 23.71,30.29 C23.34,29.92 22.66,29.92 22.29,30.29 C22.11,30.479 22,30.739 22,31 C22,31.26 22.11,31.52 22.29,31.71 C22.48,31.899 22.74,32 23,32 C23.26,32 23.52,31.899 23.71,31.71" id="Fill-1665" fill="#CEC9AE" sketch:type="MSShapeGroup"></path>
                <path d="M12,39 C12,39.553 12.448,40 13,40 L28,40 C28.552,40 29,39.553 29,39 C29,38.447 28.552,38 28,38 L13,38 C12.448,38 12,38.447 12,39" id="Fill-1666" fill="#CEC9AE" sketch:type="MSShapeGroup"></path>
                <path d="M8,40 C8.26,40 8.52,39.89 8.71,39.71 C8.89,39.52 9,39.26 9,39 C9,38.739 8.89,38.48 8.71,38.3 C8.34,37.92 7.66,37.92 7.29,38.29 C7.11,38.48 7,38.739 7,39 C7,39.26 7.11,39.52 7.29,39.71 C7.48,39.89 7.73,40 8,40" id="Fill-1667" fill="#CEC9AE" sketch:type="MSShapeGroup"></path>
                <path d="M48,32 C48.26,32 48.52,31.899 48.71,31.71 C48.9,31.52 49,31.26 49,31 C49,30.739 48.9,30.479 48.71,30.29 C48.33,29.92 47.66,29.92 47.29,30.29 C47.11,30.479 47,30.739 47,31 C47,31.26 47.11,31.52 47.29,31.71 C47.48,31.899 47.74,32 48,32" id="Fill-1668" fill="#CEC9AE" sketch:type="MSShapeGroup"></path>
                <path d="M33,46 L8,46 C7.448,46 7,46.448 7,47 C7,47.553 7.448,48 8,48 L33,48 C33.552,48 34,47.553 34,47 C34,46.448 33.552,46 33,46" id="Fill-1669" fill="#CEC9AE" sketch:type="MSShapeGroup"></path>
            </g>
        </g>
    </g>
</svg>