<?xml version="1.0" encoding="UTF-8" standalone="no"?>
<svg width="58px" height="58px" viewBox="0 0 58 58" version="1.1" xmlns="http://www.w3.org/2000/svg" xmlns:xlink="http://www.w3.org/1999/xlink" xmlns:sketch="http://www.bohemiancoding.com/sketch/ns">
    <!-- Generator: Sketch 3.2.2 (9983) - http://www.bohemiancoding.com/sketch -->
    <title>245 - Fast Forward (Flat)</title>
    <desc>Created with Sketch.</desc>
    <defs></defs>
    <g id="Page-1" stroke="none" stroke-width="1" fill="none" fill-rule="evenodd" sketch:type="MSPage">
        <g id="245---Fast-Forward-(Flat)" sketch:type="MSLayerGroup">
            <path d="M58,29 C58,45.017 45.016,58 29,58 C12.984,58 0,45.017 0,29 C0,12.984 12.984,0 29,0 C45.016,0 58,12.984 58,29" id="Fill-761" fill="#25AE88" sketch:type="MSShapeGroup"></path>
            <path d="M54,29 L32,44 L32,14 L54,29" id="Fill-1877" fill="#FFFFFF" sketch:type="MSShapeGroup"></path>
            <path d="M32,45 C31.84,45 31.68,44.962 31.533,44.884 C31.205,44.711 31,44.371 31,44 L31,14 C31,13.629 31.205,13.289 31.533,13.116 C31.86,12.942 32.258,12.966 32.563,13.174 L54.563,28.174 C54.837,28.36 55,28.669 55,29 C55,29.331 54.837,29.64 54.563,29.826 L32.563,44.826 C32.394,44.942 32.197,45 32,45 L32,45 Z M33,15.893 L33,42.107 L52.225,29 L33,15.893 L33,15.893 Z" id="Fill-1878" fill="#FFFFFF" sketch:type="MSShapeGroup"></path>
            <path d="M32,29 L10,44 L10,14 L32,29" id="Fill-1881" fill="#FFFFFF" sketch:type="MSShapeGroup"></path>
            <path d="M10,45 C9.84,45 9.68,44.962 9.533,44.884 C9.205,44.711 9,44.371 9,44 L9,14 C9,13.629 9.205,13.289 9.533,13.116 C9.86,12.942 10.258,12.966 10.563,13.174 L32.563,28.174 C32.837,28.36 33,28.669 33,29 C33,29.331 32.837,29.64 32.563,29.826 L10.563,44.826 C10.394,44.942 10.197,45 10,45 L10,45 Z M11,15.893 L11,42.107 L30.225,29 L11,15.893 L11,15.893 Z" id="Fill-1882" fill="#FFFFFF" sketch:type="MSShapeGroup"></path>
        </g>
    </g>
</svg>