<?xml version="1.0" encoding="UTF-8" standalone="no"?>
<svg width="48px" height="47px" viewBox="0 0 48 47" version="1.1" xmlns="http://www.w3.org/2000/svg" xmlns:xlink="http://www.w3.org/1999/xlink" xmlns:sketch="http://www.bohemiancoding.com/sketch/ns">
    <!-- Generator: Sketch 3.2.2 (9983) - http://www.bohemiancoding.com/sketch -->
    <title>162 - Favorite (Flat)</title>
    <desc>Created with Sketch.</desc>
    <defs></defs>
    <g id="Page-1" stroke="none" stroke-width="1" fill="none" fill-rule="evenodd" sketch:type="MSPage">
        <g id="162---Favorite-(Flat)" sketch:type="MSLayerGroup" transform="translate(-1.000000, 0.000000)" fill="#ED8A19">
            <path d="M27.285,1.691 L32.692,12.647 C33.068,13.409 33.795,13.937 34.636,14.059 L46.727,15.816 C48.845,16.124 49.69,18.726 48.158,20.22 L39.409,28.748 C38.8,29.341 38.523,30.196 38.666,31.033 L40.732,43.075 C41.093,45.184 38.88,46.792 36.986,45.796 L26.172,40.111 C25.419,39.716 24.521,39.716 23.769,40.111 L12.954,45.796 C11.061,46.792 8.847,45.184 9.209,43.075 L11.274,31.033 C11.418,30.196 11.14,29.341 10.531,28.748 L1.782,20.22 C0.25,18.726 1.096,16.124 3.213,15.816 L15.304,14.059 C16.145,13.937 16.872,13.409 17.248,12.647 L22.655,1.691 C23.602,-0.228 26.338,-0.228 27.285,1.691" id="Fill-1011" sketch:type="MSShapeGroup"></path>
        </g>
    </g>
</svg>