<?xml version="1.0" encoding="UTF-8" standalone="no"?>
<svg width="58px" height="58px" viewBox="0 0 58 58" version="1.1" xmlns="http://www.w3.org/2000/svg" xmlns:xlink="http://www.w3.org/1999/xlink" xmlns:sketch="http://www.bohemiancoding.com/sketch/ns">
    <!-- Generator: Sketch 3.2.2 (9983) - http://www.bohemiancoding.com/sketch -->
    <title>82 - Fax Scan (Flat)</title>
    <desc>Created with Sketch.</desc>
    <defs></defs>
    <g id="Page-1" stroke="none" stroke-width="1" fill="none" fill-rule="evenodd" sketch:type="MSPage">
        <g id="Icons" sketch:type="MSArtboardGroup" transform="translate(-1081.000000, -3838.000000)">
            <g id="82---Fax-Scan-(Flat)" sketch:type="MSLayerGroup" transform="translate(1081.000000, 3838.000000)">
                <path d="M49,35 L49,52 L52,52 L52,49 L58,49 L58,17 L0,17 L0,49 L6,49 L6,52 L9,52 L9,35 L49,35" id="Fill-95" fill="#7383BF" sketch:type="MSShapeGroup"></path>
                <path d="M6,41 L52,41 L52,52 L6,52 L6,41 Z" id="Fill-96" fill="#556080" sketch:type="MSShapeGroup"></path>
                <path d="M0,17 L58,17 L58,35 L0,35 L0,17 Z" id="Fill-109" fill="#556080" sketch:type="MSShapeGroup"></path>
                <path d="M9,0 L49,0 L49,17 L9,17 L9,0 Z" id="Fill-1379" fill="#EDEBDA" sketch:type="MSShapeGroup"></path>
                <path d="M53,26 C53,28.209 51.209,30 49,30 C46.791,30 45,28.209 45,26 C45,23.791 46.791,22 49,22 C51.209,22 53,23.791 53,26" id="Fill-2102" fill="#88C057" sketch:type="MSShapeGroup"></path>
                <path d="M35,8 L17,8 C16.447,8 16,7.553 16,7 C16,6.447 16.447,6 17,6 L35,6 C35.553,6 36,6.447 36,7 C36,7.553 35.553,8 35,8" id="Fill-2103" fill="#CEC9AE" sketch:type="MSShapeGroup"></path>
                <path d="M41,13 L17,13 C16.447,13 16,12.553 16,12 C16,11.448 16.447,11 17,11 L41,11 C41.553,11 42,11.448 42,12 C42,12.553 41.553,13 41,13" id="Fill-2104" fill="#CEC9AE" sketch:type="MSShapeGroup"></path>
                <path d="M8,23 L5,23 C4.447,23 4,22.553 4,22 C4,21.447 4.447,21 5,21 L8,21 C8.553,21 9,21.447 9,22 C9,22.553 8.553,23 8,23" id="Fill-2105" fill="#FFFFFF" sketch:type="MSShapeGroup"></path>
                <path d="M8,27 L5,27 C4.447,27 4,26.553 4,26 C4,25.447 4.447,25 5,25 L8,25 C8.553,25 9,25.447 9,26 C9,26.553 8.553,27 8,27" id="Fill-2106" fill="#FFFFFF" sketch:type="MSShapeGroup"></path>
                <path d="M8,31 L5,31 C4.447,31 4,30.553 4,30 C4,29.448 4.447,29 5,29 L8,29 C8.553,29 9,29.448 9,30 C9,30.553 8.553,31 8,31" id="Fill-2107" fill="#FFFFFF" sketch:type="MSShapeGroup"></path>
                <path d="M15,23 L12,23 C11.447,23 11,22.553 11,22 C11,21.447 11.447,21 12,21 L15,21 C15.553,21 16,21.447 16,22 C16,22.553 15.553,23 15,23" id="Fill-2108" fill="#FFFFFF" sketch:type="MSShapeGroup"></path>
                <path d="M15,27 L12,27 C11.447,27 11,26.553 11,26 C11,25.447 11.447,25 12,25 L15,25 C15.553,25 16,25.447 16,26 C16,26.553 15.553,27 15,27" id="Fill-2109" fill="#FFFFFF" sketch:type="MSShapeGroup"></path>
                <path d="M15,31 L12,31 C11.447,31 11,30.553 11,30 C11,29.448 11.447,29 12,29 L15,29 C15.553,29 16,29.448 16,30 C16,30.553 15.553,31 15,31" id="Fill-2110" fill="#FFFFFF" sketch:type="MSShapeGroup"></path>
                <path d="M22,23 L19,23 C18.447,23 18,22.553 18,22 C18,21.447 18.447,21 19,21 L22,21 C22.553,21 23,21.447 23,22 C23,22.553 22.553,23 22,23" id="Fill-2111" fill="#FFFFFF" sketch:type="MSShapeGroup"></path>
                <path d="M22,27 L19,27 C18.447,27 18,26.553 18,26 C18,25.447 18.447,25 19,25 L22,25 C22.553,25 23,25.447 23,26 C23,26.553 22.553,27 22,27" id="Fill-2112" fill="#FFFFFF" sketch:type="MSShapeGroup"></path>
                <path d="M22,31 L19,31 C18.447,31 18,30.553 18,30 C18,29.448 18.447,29 19,29 L22,29 C22.553,29 23,29.448 23,30 C23,30.553 22.553,31 22,31" id="Fill-2113" fill="#FFFFFF" sketch:type="MSShapeGroup"></path>
                <path d="M9,35 L49,35 L49,58 L9,58 L9,35 Z" id="Fill-3069" fill="#EDEBDA" sketch:type="MSShapeGroup"></path>
                <path d="M41,44 L17,44 C16.447,44 16,43.553 16,43 C16,42.447 16.447,42 17,42 L41,42 C41.553,42 42,42.447 42,43 C42,43.553 41.553,44 41,44" id="Fill-3070" fill="#CEC9AE" sketch:type="MSShapeGroup"></path>
                <path d="M41,49 L17,49 C16.447,49 16,48.553 16,48 C16,47.448 16.447,47 17,47 L41,47 C41.553,47 42,47.448 42,48 C42,48.553 41.553,49 41,49" id="Fill-3071" fill="#CEC9AE" sketch:type="MSShapeGroup"></path>
                <path d="M9,15 L49,15 L49,17 L9,17 L9,15 Z" id="Fill-3072" fill="#E2DFD5" sketch:type="MSShapeGroup"></path>
            </g>
        </g>
    </g>
</svg>