<?xml version="1.0" encoding="UTF-8" standalone="no"?>
<svg width="56px" height="59px" viewBox="0 0 56 59" version="1.1" xmlns="http://www.w3.org/2000/svg" xmlns:xlink="http://www.w3.org/1999/xlink" xmlns:sketch="http://www.bohemiancoding.com/sketch/ns">
    <!-- Generator: Sketch 3.2.2 (9983) - http://www.bohemiancoding.com/sketch -->
    <title>105 - Fingeprint (Flat)</title>
    <desc>Created with Sketch.</desc>
    <defs></defs>
    <g id="Page-1" stroke="none" stroke-width="1" fill="none" fill-rule="evenodd" sketch:type="MSPage">
        <g id="105---Fingeprint-(Flat)" sketch:type="MSLayerGroup" fill="#C7CBC7">
            <path d="M27.812,26.039 C27.281,26.193 26.976,26.747 27.129,27.279 C27.156,27.371 29.826,36.869 29.091,57.965 C29.071,58.518 29.503,58.981 30.055,58.999 C30.066,59 30.079,59 30.091,59 C30.627,59 31.07,58.575 31.089,58.035 C31.836,36.621 29.164,27.116 29.051,26.722 C28.898,26.192 28.345,25.889 27.812,26.039" id="Fill-1352" sketch:type="MSShapeGroup"></path>
            <path d="M52.956,16.481 C48.721,6.47 38.961,0.001 28.091,0.001 C24.504,0.001 21.006,0.702 17.695,2.084 C15.861,2.849 14.128,3.759 12.544,4.788 C12.081,5.09 11.949,5.709 12.25,6.172 C12.552,6.635 13.172,6.767 13.634,6.466 C15.117,5.502 16.742,4.648 18.465,3.93 C21.531,2.649 24.769,2.001 28.091,2.001 C38.155,2.001 47.192,7.99 51.114,17.26 C52.744,21.113 53.625,28.21 54.005,32.098 C54.056,32.614 54.49,33 54.999,33 C55.031,33 55.064,32.998 55.098,32.995 C55.646,32.942 56.049,32.452 55.995,31.903 C55.518,27.016 54.603,20.373 52.956,16.481" id="Fill-1353" sketch:type="MSShapeGroup"></path>
            <path d="M9.579,9.712 C9.973,9.325 9.977,8.691 9.589,8.298 C9.202,7.905 8.569,7.9 8.175,8.288 C2.798,13.586 -2.56,23.438 2.458,40.285 C2.587,40.72 2.984,41 3.416,41 C3.51,41 3.606,40.986 3.701,40.958 C4.231,40.801 4.532,40.244 4.374,39.715 C0.628,27.133 2.427,16.759 9.579,9.712" id="Fill-1354" sketch:type="MSShapeGroup"></path>
            <path d="M28.858,6.015 C25.799,5.896 22.82,6.446 20.006,7.621 C10.199,11.712 4.985,22.495 7.879,32.705 C8.168,33.726 8.464,34.812 8.623,35.895 C8.981,38.344 9,42.851 9,50 C9,50.553 9.447,51 10,51 C10.553,51 11,50.553 11,50 C11,42.542 10.981,38.196 10.602,35.605 C10.426,34.402 10.11,33.244 9.803,32.16 C7.185,22.924 11.902,13.168 20.775,9.467 C23.323,8.404 26.034,7.921 28.787,8.013 C35.898,8.268 43.959,14.536 46.39,21.701 C48.494,27.901 48.512,38.461 48.251,47.973 C48.236,48.525 48.672,48.984 49.224,49 C49.766,48.99 50.235,48.581 50.251,48.028 C50.516,38.338 50.489,27.557 48.284,21.059 C45.566,13.05 36.852,6.301 28.858,6.015" id="Fill-1355" sketch:type="MSShapeGroup"></path>
            <path d="M20.663,16.338 C21.115,16.021 21.225,15.397 20.907,14.946 C20.591,14.493 19.966,14.383 19.515,14.701 C14.364,18.317 12.127,25.264 13.949,31.996 C13.97,32.069 16,39.458 16,51 C16,51.553 16.447,52 17,52 C17.553,52 18,51.553 18,51 C18,39.187 15.962,31.768 15.877,31.465 C14.276,25.551 16.2,19.472 20.663,16.338" id="Fill-1356" sketch:type="MSShapeGroup"></path>
            <path d="M28.091,12.001 C27.004,12.001 25.922,12.118 24.873,12.35 C24.334,12.469 23.993,13.002 24.112,13.542 C24.231,14.081 24.758,14.415 25.305,14.303 C26.212,14.103 27.149,14.001 28.091,14.001 C33.324,14.001 38.023,17.115 40.062,21.936 C42.492,27.676 42.651,36.889 42.091,52.965 C42.071,53.517 42.503,53.981 43.055,53.999 C43.066,54 43.079,54 43.091,54 C43.627,54 44.07,53.575 44.089,53.035 C44.673,36.312 44.495,27.277 41.904,21.156 C39.552,15.595 34.13,12.001 28.091,12.001" id="Fill-1357" sketch:type="MSShapeGroup"></path>
            <path d="M38,48.007 C38.004,47.454 37.56,47.004 37.007,47 L37,47 C36.451,47 36.004,47.443 36,47.993 C35.995,48.745 36.019,49.843 36.047,51.029 C36.086,52.754 36.13,54.709 36.087,55.966 C36.067,56.518 36.499,56.981 37.052,56.999 C37.063,57 37.075,57 37.087,57 C37.623,57 38.066,56.575 38.085,56.034 C38.131,54.721 38.086,52.735 38.046,50.984 C38.019,49.821 37.995,48.744 38,48.007" id="Fill-1358" sketch:type="MSShapeGroup"></path>
            <path d="M28.091,19.001 C27.029,19.001 25.993,19.209 25.01,19.619 C21.118,21.243 19.227,25.634 20.609,29.833 C21.363,32.122 22,44.105 22,56 C22,56.553 22.447,57 23,57 C23.553,57 24,56.553 24,56 C24,45.293 23.43,32.005 22.51,29.208 C21.456,26.011 22.862,22.682 25.779,21.465 C26.518,21.157 27.295,21.001 28.091,21.001 C30.506,21.001 32.675,22.439 33.62,24.671 C35.487,29.09 36.042,37.09 36.178,43.024 C36.19,43.568 36.636,44 37.178,44 L37.201,44 C37.753,43.987 38.19,43.529 38.178,42.977 C38.037,36.87 37.452,28.602 35.458,23.884 C34.203,20.918 31.312,19.001 28.091,19.001" id="Fill-1359" sketch:type="MSShapeGroup"></path>
        </g>
    </g>
</svg>