<?xml version="1.0" encoding="UTF-8" standalone="no"?>
<svg width="55px" height="60px" viewBox="0 0 55 60" version="1.1" xmlns="http://www.w3.org/2000/svg" xmlns:xlink="http://www.w3.org/1999/xlink" xmlns:sketch="http://www.bohemiancoding.com/sketch/ns">
    <!-- Generator: Sketch 3.2.2 (9983) - http://www.bohemiancoding.com/sketch -->
    <title>123 - Flag (Flat)</title>
    <desc>Created with Sketch.</desc>
    <defs></defs>
    <g id="Page-1" stroke="none" stroke-width="1" fill="none" fill-rule="evenodd" sketch:type="MSPage">
        <g id="123---Flag-(Flat)" sketch:type="MSLayerGroup">
            <path d="M14,31 L24,31 L24,37 L14,37 L14,31 Z" id="Fill-190" fill="#871B1B" sketch:type="MSShapeGroup"></path>
            <path d="M1,0 C0.448,0 0,0.448 0,1 L0,59 C0,59.553 0.448,60 1,60 C1.552,60 2,59.553 2,59 L2,1 C2,0.448 1.552,0 1,0" id="Fill-1076" fill="#424A60" sketch:type="MSShapeGroup"></path>
            <path d="M2,4 L24,4 L24,33 L2,33 L2,4 Z" id="Fill-1077" fill="#DD342E" sketch:type="MSShapeGroup"></path>
            <path d="M24,9 L24,33 L18,33 C15.791,33 14,34.791 14,37 C14,39.209 15.791,41 18,41 L55,41 L44,25 L55,9 L24,9" id="Fill-1078" fill="#C13A2A" sketch:type="MSShapeGroup"></path>
            <path d="M14,37 C14,39.209 15.791,41 18,41 L24,41 L24,33 L18,33 C15.791,33 14,34.791 14,37" id="Fill-2705" fill="#B12621" sketch:type="MSShapeGroup"></path>
        </g>
    </g>
</svg>