<?xml version="1.0" encoding="UTF-8" standalone="no"?>
<svg width="47px" height="58px" viewBox="0 0 47 58" version="1.1" xmlns="http://www.w3.org/2000/svg" xmlns:xlink="http://www.w3.org/1999/xlink" xmlns:sketch="http://www.bohemiancoding.com/sketch/ns">
    <!-- Generator: Sketch 3.2.2 (9983) - http://www.bohemiancoding.com/sketch -->
    <title>43 - Flipboard (Flat)</title>
    <desc>Created with Sketch.</desc>
    <defs></defs>
    <g id="Page-1" stroke="none" stroke-width="1" fill="none" fill-rule="evenodd" sketch:type="MSPage">
        <g id="Icons" sketch:type="MSArtboardGroup" transform="translate(-966.000000, -4318.000000)">
            <g id="43---Flipboard-(Flat)" sketch:type="MSLayerGroup" transform="translate(966.000000, 4318.000000)">
                <path d="M32,2 L28,2 L28,5 L19,5 L19,2 L0,2 L0,58 L47,58 L47,2 L32,2" id="Fill-1700" fill="#424A60" sketch:type="MSShapeGroup"></path>
                <path d="M19,0 L28,0 L28,5 L19,5 L19,0 Z" id="Fill-2206" fill="#303644" sketch:type="MSShapeGroup"></path>
                <path d="M35,5 L35,8 L12,8 L12,5 L3,5 L3,55 L44,55 L44,5 L35,5" id="Fill-2207" fill="#EDEBDA" sketch:type="MSShapeGroup"></path>
                <path d="M28,2 L28,5 L19,5 L19,2 L12,2 L12,8 L35,8 L35,2 L28,2" id="Fill-2208" fill="#7383BF" sketch:type="MSShapeGroup"></path>
                <path d="M22,16 L9,16 C8.447,16 8,15.553 8,15 C8,14.448 8.447,14 9,14 L22,14 C22.553,14 23,14.448 23,15 C23,15.553 22.553,16 22,16" id="Fill-2209" fill="#CEC9AE" sketch:type="MSShapeGroup"></path>
                <path d="M22,47 L9,47 C8.447,47 8,46.553 8,46 C8,45.447 8.447,45 9,45 L22,45 C22.553,45 23,45.447 23,46 C23,46.553 22.553,47 22,47" id="Fill-2210" fill="#CEC9AE" sketch:type="MSShapeGroup"></path>
                <path d="M38,22 L9,22 C8.447,22 8,21.553 8,21 C8,20.448 8.447,20 9,20 L38,20 C38.553,20 39,20.448 39,21 C39,21.553 38.553,22 38,22" id="Fill-2211" fill="#CEC9AE" sketch:type="MSShapeGroup"></path>
                <path d="M38,34 L9,34 C8.447,34 8,33.553 8,33 C8,32.448 8.447,32 9,32 L38,32 C38.553,32 39,32.448 39,33 C39,33.553 38.553,34 38,34" id="Fill-2212" fill="#CEC9AE" sketch:type="MSShapeGroup"></path>
                <path d="M38,41 L9,41 C8.447,41 8,40.553 8,40 C8,39.447 8.447,39 9,39 L38,39 C38.553,39 39,39.447 39,40 C39,40.553 38.553,41 38,41" id="Fill-2213" fill="#CEC9AE" sketch:type="MSShapeGroup"></path>
                <path d="M23,28 L9,28 C8.447,28 8,27.553 8,27 C8,26.448 8.447,26 9,26 L23,26 C23.553,26 24,26.448 24,27 C24,27.553 23.553,28 23,28" id="Fill-2214" fill="#CEC9AE" sketch:type="MSShapeGroup"></path>
                <path d="M38,28 L31,28 C30.447,28 30,27.553 30,27 C30,26.448 30.447,26 31,26 L38,26 C38.553,26 39,26.448 39,27 C39,27.553 38.553,28 38,28" id="Fill-2215" fill="#CEC9AE" sketch:type="MSShapeGroup"></path>
                <path d="M27,28 C26.729,28 26.479,27.9 26.29,27.71 C26.109,27.52 26,27.26 26,27 C26,26.73 26.1,26.48 26.29,26.29 C26.67,25.91 27.33,25.92 27.71,26.29 C27.899,26.48 28,26.73 28,27 C28,27.27 27.89,27.52 27.71,27.71 C27.519,27.89 27.269,28 27,28" id="Fill-2216" fill="#CEC9AE" sketch:type="MSShapeGroup"></path>
            </g>
        </g>
    </g>
</svg>