<?xml version="1.0" encoding="UTF-8" standalone="no"?>
<svg width="58px" height="51px" viewBox="0 0 58 51" version="1.1" xmlns="http://www.w3.org/2000/svg" xmlns:xlink="http://www.w3.org/1999/xlink" xmlns:sketch="http://www.bohemiancoding.com/sketch/ns">
    <!-- Generator: Sketch 3.2.2 (9983) - http://www.bohemiancoding.com/sketch -->
    <title>66 - Folder (Flat)</title>
    <desc>Created with Sketch.</desc>
    <defs></defs>
    <g id="Page-1" stroke="none" stroke-width="1" fill="none" fill-rule="evenodd" sketch:type="MSPage">
        <g id="Icons" sketch:type="MSArtboardGroup" transform="translate(-601.000000, -4081.000000)">
            <g id="66---Folder-(Flat)" sketch:type="MSLayerGroup" transform="translate(601.000000, 4081.000000)">
                <path d="M55.981,51 L2.019,51 C0.904,51 0,50.096 0,48.981 L0,17 L58,17 L58,48.981 C58,50.096 57.096,51 55.981,51" id="Fill-1415" fill="#F0CE49" sketch:type="MSShapeGroup"></path>
                <path d="M26.019,8 L26.019,2.019 C26.019,0.904 25.115,0 24,0 L2.019,0 C0.904,0 0,0.904 0,2.019 L0,17 L58,17 L58,10.019 C58,8.904 57.096,8 55.981,8 L26.019,8" id="Fill-1416" fill="#ECBA16" sketch:type="MSShapeGroup"></path>
                <path d="M18,29 L32,29 C32.552,29 33,28.553 33,28 C33,27.447 32.552,27 32,27 L18,27 C17.448,27 17,27.447 17,28 C17,28.553 17.448,29 18,29" id="Fill-1443" fill="#EC7937" sketch:type="MSShapeGroup"></path>
                <path d="M18,35 L40,35 C40.552,35 41,34.553 41,34 C41,33.447 40.552,33 40,33 L18,33 C17.448,33 17,33.447 17,34 C17,34.553 17.448,35 18,35" id="Fill-1444" fill="#EC7937" sketch:type="MSShapeGroup"></path>
                <path d="M40,39 L18,39 C17.448,39 17,39.447 17,40 C17,40.553 17.448,41 18,41 L40,41 C40.552,41 41,40.553 41,40 C41,39.447 40.552,39 40,39" id="Fill-1445" fill="#EC7937" sketch:type="MSShapeGroup"></path>
            </g>
        </g>
    </g>
</svg>