<?xml version="1.0" encoding="UTF-8" standalone="no"?>
<svg width="58px" height="59px" viewBox="0 0 58 59" version="1.1" xmlns="http://www.w3.org/2000/svg" xmlns:xlink="http://www.w3.org/1999/xlink" xmlns:sketch="http://www.bohemiancoding.com/sketch/ns">
    <!-- Generator: Sketch 3.2.2 (9983) - http://www.bohemiancoding.com/sketch -->
    <title>51 - Folders (Flat)</title>
    <desc>Created with Sketch.</desc>
    <defs></defs>
    <g id="Page-1" stroke="none" stroke-width="1" fill="none" fill-rule="evenodd" sketch:type="MSPage">
        <g id="Icons" sketch:type="MSArtboardGroup" transform="translate(-1201.000000, -4197.000000)">
            <g id="51---Folders-(Flat)" sketch:type="MSLayerGroup" transform="translate(1201.000000, 4197.000000)">
                <path d="M25,15 L20,8 L0,8 L0,59 L58,59 L58,22 L30,22 L25,15" id="Fill-88" fill="#7383BF" sketch:type="MSShapeGroup"></path>
                <path d="M30,22 L58,22 L58,15 L25,15 L30,22" id="Fill-89" fill="#ECBA16" sketch:type="MSShapeGroup"></path>
                <path d="M58,11 L28,11 L23,4 L3,4 L3,8 L20,8 L25,15 L58,15 L58,11" id="Fill-1621" fill="#556080" sketch:type="MSShapeGroup"></path>
                <path d="M58,7 L31,7 L26,0 L6,0 L6,4 L23,4 L28,11 L58,11 L58,7" id="Fill-1622" fill="#424A60" sketch:type="MSShapeGroup"></path>
                <path d="M27,36 L53,36 L53,54 L27,54 L27,36 Z" id="Fill-1623" fill="#EDEBDA" sketch:type="MSShapeGroup"></path>
                <path d="M32,40 L42,40 L42,42 L32,42 L32,40 Z" id="Fill-1624" fill="#CEC9AE" sketch:type="MSShapeGroup"></path>
                <path d="M32,44 L48,44 L48,46 L32,46 L32,44 Z" id="Fill-1625" fill="#CEC9AE" sketch:type="MSShapeGroup"></path>
                <path d="M32,48 L48,48 L48,50 L32,50 L32,48 Z" id="Fill-1626" fill="#CEC9AE" sketch:type="MSShapeGroup"></path>
            </g>
        </g>
    </g>
</svg>