<?xml version="1.0" encoding="UTF-8" standalone="no"?>
<svg width="58px" height="51px" viewBox="0 0 58 51" version="1.1" xmlns="http://www.w3.org/2000/svg" xmlns:xlink="http://www.w3.org/1999/xlink" xmlns:sketch="http://www.bohemiancoding.com/sketch/ns">
    <!-- Generator: Sketch 3.2.2 (9983) - http://www.bohemiancoding.com/sketch -->
    <title>67 - Folder (Flat)</title>
    <desc>Created with Sketch.</desc>
    <defs></defs>
    <g id="Page-1" stroke="none" stroke-width="1" fill="none" fill-rule="evenodd" sketch:type="MSPage">
        <g id="Icons" sketch:type="MSArtboardGroup" transform="translate(-481.000000, -4081.000000)">
            <g id="67---Folder-(Flat)" sketch:type="MSLayerGroup" transform="translate(481.000000, 4081.000000)">
                <path d="M55.981,51 L2.019,51 C0.904,51 0,50.096 0,48.981 L0,17 L58,17 L58,48.981 C58,50.096 57.096,51 55.981,51" id="Fill-1411" fill="#F0CE49" sketch:type="MSShapeGroup"></path>
                <path d="M26.019,8 L26.019,2.019 C26.019,0.904 25.115,0 24,0 L2.019,0 C0.904,0 0,0.904 0,2.019 L0,17 L58,17 L58,10.019 C58,8.904 57.096,8 55.981,8 L26.019,8" id="Fill-1412" fill="#ECBA16" sketch:type="MSShapeGroup"></path>
                <path d="M34,34 L53,34 L53,46 L34,46 L34,34 Z" id="Fill-1453" fill="#EDEBDA" sketch:type="MSShapeGroup"></path>
                <path d="M38,39 L42,39 C42.552,39 43,38.553 43,38 C43,37.448 42.552,37 42,37 L38,37 C37.448,37 37,37.448 37,38 C37,38.553 37.448,39 38,39" id="Fill-1454" fill="#CEC9AE" sketch:type="MSShapeGroup"></path>
                <path d="M46,39 L47,39 C47.552,39 48,38.553 48,38 C48,37.448 47.552,37 47,37 L46,37 C45.448,37 45,37.448 45,38 C45,38.553 45.448,39 46,39" id="Fill-1455" fill="#CEC9AE" sketch:type="MSShapeGroup"></path>
                <path d="M49,41 L38,41 C37.448,41 37,41.448 37,42 C37,42.553 37.448,43 38,43 L49,43 C49.552,43 50,42.553 50,42 C50,41.448 49.552,41 49,41" id="Fill-1456" fill="#CEC9AE" sketch:type="MSShapeGroup"></path>
            </g>
        </g>
    </g>
</svg>