<?xml version="1.0" encoding="UTF-8" standalone="no"?>
<svg width="56px" height="56px" viewBox="0 0 56 56" version="1.1" xmlns="http://www.w3.org/2000/svg" xmlns:xlink="http://www.w3.org/1999/xlink" xmlns:sketch="http://www.bohemiancoding.com/sketch/ns">
    <!-- Generator: Sketch 3.2.2 (9983) - http://www.bohemiancoding.com/sketch -->
    <title>109 - Help (Flat)</title>
    <desc>Created with Sketch.</desc>
    <defs></defs>
    <g id="Page-1" stroke="none" stroke-width="1" fill="none" fill-rule="evenodd" sketch:type="MSPage">
        <g id="109---Help-(Flat)" sketch:type="MSLayerGroup">
            <path d="M17.609,3 L17.109,3 C16.557,3 16.109,2.553 16.109,2 C16.109,1.448 16.557,1 17.109,1 L17.609,1 C18.162,1 18.609,1.448 18.609,2 C18.609,2.553 18.162,3 17.609,3" id="Fill-192" fill="#7383BF" sketch:type="MSShapeGroup"></path>
            <path d="M2,14.188 C1.448,14.188 1,13.741 1,13.189 L1,12.212 C1,11.659 1.448,11.212 2,11.212 C2.552,11.212 3,11.659 3,12.212 L3,13.189 C3,13.741 2.552,14.188 2,14.188 L2,14.188 Z M2,9.304 C1.448,9.304 1,8.856 1,8.304 L1,7.326 C1,6.774 1.448,6.326 2,6.326 C2.552,6.326 3,6.774 3,7.326 L3,8.304 C3,8.856 2.552,9.304 2,9.304 L2,9.304 Z M2.957,4.639 C2.737,4.639 2.516,4.567 2.331,4.418 C1.901,4.073 1.832,3.442 2.179,3.012 C2.43,2.699 2.715,2.416 3.025,2.168 C3.456,1.824 4.086,1.895 4.431,2.327 C4.775,2.759 4.704,3.388 4.271,3.733 C4.076,3.888 3.896,4.068 3.737,4.266 C3.54,4.511 3.25,4.639 2.957,4.639 L2.957,4.639 Z M13.201,3 L12.224,3 C11.672,3 11.224,2.553 11.224,2 C11.224,1.448 11.672,1 12.224,1 L13.201,1 C13.753,1 14.201,1.448 14.201,2 C14.201,2.553 13.753,3 13.201,3 L13.201,3 Z M8.316,3 L7.339,3 C6.787,3 6.339,2.553 6.339,2 C6.339,1.448 6.787,1 7.339,1 L8.316,1 C8.868,1 9.316,1.448 9.316,2 C9.316,2.553 8.868,3 8.316,3 L8.316,3 Z" id="Fill-193" fill="#7383BF" sketch:type="MSShapeGroup"></path>
            <path d="M2,18.61 C1.448,18.61 1,18.162 1,17.609 L1,17.11 C1,16.557 1.448,16.109 2,16.109 C2.552,16.109 3,16.557 3,17.11 L3,17.609 C3,18.162 2.552,18.61 2,18.61" id="Fill-194" fill="#7383BF" sketch:type="MSShapeGroup"></path>
            <path d="M54,18.61 C53.448,18.61 53,18.162 53,17.609 L53,17.11 C53,16.557 53.448,16.109 54,16.109 C54.552,16.109 55,16.557 55,17.11 L55,17.609 C55,18.162 54.552,18.61 54,18.61" id="Fill-195" fill="#7383BF" sketch:type="MSShapeGroup"></path>
            <path d="M54,14.201 C53.448,14.201 53,13.754 53,13.201 L53,12.225 C53,11.672 53.448,11.225 54,11.225 C54.552,11.225 55,11.672 55,12.225 L55,13.201 C55,13.754 54.552,14.201 54,14.201 L54,14.201 Z M54,9.317 C53.448,9.317 53,8.869 53,8.317 L53,7.339 C53,6.786 53.448,6.339 54,6.339 C54.552,6.339 55,6.786 55,7.339 L55,8.317 C55,8.869 54.552,9.317 54,9.317 L54,9.317 Z M53.05,4.649 C52.756,4.649 52.465,4.52 52.268,4.272 C52.111,4.075 51.932,3.896 51.735,3.739 C51.305,3.393 51.236,2.763 51.581,2.332 C51.928,1.901 52.558,1.834 52.987,2.178 C53.299,2.429 53.583,2.714 53.832,3.026 C54.176,3.457 54.105,4.086 53.673,4.431 C53.489,4.577 53.269,4.649 53.05,4.649 L53.05,4.649 Z M48.673,3 L47.696,3 C47.144,3 46.696,2.553 46.696,2 C46.696,1.448 47.144,1 47.696,1 L48.673,1 C49.226,1 49.673,1.448 49.673,2 C49.673,2.553 49.226,3 48.673,3 L48.673,3 Z M43.789,3 L42.811,3 C42.259,3 41.811,2.553 41.811,2 C41.811,1.448 42.259,1 42.811,1 L43.789,1 C44.341,1 44.789,1.448 44.789,2 C44.789,2.553 44.341,3 43.789,3 L43.789,3 Z" id="Fill-196" fill="#7383BF" sketch:type="MSShapeGroup"></path>
            <path d="M38.891,3 L38.391,3 C37.838,3 37.391,2.553 37.391,2 C37.391,1.448 37.838,1 38.391,1 L38.891,1 C39.443,1 39.891,1.448 39.891,2 C39.891,2.553 39.443,3 38.891,3" id="Fill-197" fill="#7383BF" sketch:type="MSShapeGroup"></path>
            <path d="M38.891,55 L38.391,55 C37.838,55 37.391,54.553 37.391,54 C37.391,53.447 37.838,53 38.391,53 L38.891,53 C39.443,53 39.891,53.447 39.891,54 C39.891,54.553 39.443,55 38.891,55" id="Fill-198" fill="#7383BF" sketch:type="MSShapeGroup"></path>
            <path d="M48.661,55 L47.684,55 C47.132,55 46.684,54.553 46.684,54 C46.684,53.447 47.132,53 47.684,53 L48.661,53 C49.213,53 49.661,53.447 49.661,54 C49.661,54.553 49.213,55 48.661,55 L48.661,55 Z M43.776,55 L42.799,55 C42.247,55 41.799,54.553 41.799,54 C41.799,53.447 42.247,53 42.799,53 L43.776,53 C44.328,53 44.776,53.447 44.776,54 C44.776,54.553 44.328,55 43.776,55 L43.776,55 Z M52.352,54.05 C52.058,54.05 51.767,53.921 51.569,53.673 C51.225,53.241 51.296,52.612 51.728,52.268 C51.924,52.113 52.103,51.933 52.263,51.734 C52.609,51.306 53.239,51.237 53.668,51.582 C54.099,51.928 54.167,52.558 53.821,52.988 C53.57,53.301 53.285,53.584 52.975,53.832 C52.79,53.979 52.571,54.05 52.352,54.05 L52.352,54.05 Z M54,49.674 C53.448,49.674 53,49.227 53,48.674 L53,47.696 C53,47.144 53.448,46.696 54,46.696 C54.552,46.696 55,47.144 55,47.696 L55,48.674 C55,49.227 54.552,49.674 54,49.674 L54,49.674 Z M54,44.788 C53.448,44.788 53,44.341 53,43.788 L53,42.812 C53,42.259 53.448,41.812 54,41.812 C54.552,41.812 55,42.259 55,42.812 L55,43.788 C55,44.341 54.552,44.788 54,44.788 L54,44.788 Z" id="Fill-199" fill="#7383BF" sketch:type="MSShapeGroup"></path>
            <path d="M54,39.891 C53.448,39.891 53,39.443 53,38.891 L53,38.391 C53,37.838 53.448,37.391 54,37.391 C54.552,37.391 55,37.838 55,38.391 L55,38.891 C55,39.443 54.552,39.891 54,39.891" id="Fill-200" fill="#7383BF" sketch:type="MSShapeGroup"></path>
            <path d="M2,39.891 C1.448,39.891 1,39.443 1,38.891 L1,38.391 C1,37.838 1.448,37.391 2,37.391 C2.552,37.391 3,37.838 3,38.391 L3,38.891 C3,39.443 2.552,39.891 2,39.891" id="Fill-201" fill="#7383BF" sketch:type="MSShapeGroup"></path>
            <path d="M13.188,55 L12.211,55 C11.659,55 11.211,54.553 11.211,54 C11.211,53.447 11.659,53 12.211,53 L13.188,53 C13.741,53 14.188,53.447 14.188,54 C14.188,54.553 13.741,55 13.188,55 L13.188,55 Z M8.304,55 L7.327,55 C6.774,55 6.327,54.553 6.327,54 C6.327,53.447 6.774,53 7.327,53 L8.304,53 C8.856,53 9.304,53.447 9.304,54 C9.304,54.553 8.856,55 8.304,55 L8.304,55 Z M3.638,54.042 C3.418,54.042 3.197,53.97 3.013,53.822 C2.701,53.572 2.416,53.286 2.168,52.975 C1.824,52.543 1.895,51.914 2.327,51.569 C2.758,51.227 3.388,51.296 3.732,51.729 C3.889,51.925 4.068,52.105 4.265,52.262 C4.695,52.608 4.764,53.238 4.418,53.668 C4.221,53.914 3.931,54.042 3.638,54.042 L3.638,54.042 Z M2,49.661 C1.448,49.661 1,49.214 1,48.661 L1,47.684 C1,47.131 1.448,46.684 2,46.684 C2.552,46.684 3,47.131 3,47.684 L3,48.661 C3,49.214 2.552,49.661 2,49.661 L2,49.661 Z M2,44.775 C1.448,44.775 1,44.328 1,43.776 L1,42.799 C1,42.246 1.448,41.799 2,41.799 C2.552,41.799 3,42.246 3,42.799 L3,43.776 C3,44.328 2.552,44.775 2,44.775 L2,44.775 Z" id="Fill-202" fill="#7383BF" sketch:type="MSShapeGroup"></path>
            <path d="M17.609,55 L17.109,55 C16.557,55 16.109,54.553 16.109,54 C16.109,53.447 16.557,53 17.109,53 L17.609,53 C18.162,53 18.609,53.447 18.609,54 C18.609,54.553 18.162,55 17.609,55" id="Fill-203" fill="#7383BF" sketch:type="MSShapeGroup"></path>
            <path d="M28,0 C12.536,0 0,12.536 0,28 C0,43.464 12.536,56 28,56 C43.464,56 56,43.464 56,28 C56,12.536 43.464,0 28,0 L28,0 Z M28,42.56 C19.959,42.56 13.44,36.042 13.44,28 C13.44,19.959 19.959,13.44 28,13.44 C36.041,13.44 42.56,19.959 42.56,28 C42.56,36.042 36.041,42.56 28,42.56 L28,42.56 Z" id="Fill-1137" fill="#F0CE49" sketch:type="MSShapeGroup"></path>
            <path d="M21.392,0.805 C21.257,0.269 20.713,-0.056 20.179,0.077 C19.643,0.211 19.317,0.754 19.451,1.289 L22.712,14.334 C22.826,14.789 23.234,15.092 23.682,15.092 C23.762,15.092 23.844,15.082 23.925,15.062 C24.461,14.928 24.787,14.385 24.653,13.85 L21.392,0.805" id="Fill-1138" fill="#ED8A19" sketch:type="MSShapeGroup"></path>
            <path d="M35.821,0.077 C35.289,-0.056 34.743,0.269 34.608,0.805 L31.347,13.85 C31.213,14.385 31.539,14.928 32.075,15.062 C32.156,15.082 32.238,15.092 32.318,15.092 C32.766,15.092 33.174,14.789 33.288,14.334 L36.549,1.289 C36.683,0.754 36.357,0.211 35.821,0.077" id="Fill-1139" fill="#ED8A19" sketch:type="MSShapeGroup"></path>
            <path d="M33.288,41.666 C33.153,41.129 32.608,40.808 32.075,40.939 C31.539,41.072 31.213,41.615 31.347,42.15 L34.608,55.196 C34.722,55.65 35.13,55.953 35.578,55.953 C35.658,55.953 35.74,55.943 35.821,55.923 C36.357,55.789 36.683,55.246 36.549,54.711 L33.288,41.666" id="Fill-1140" fill="#ED8A19" sketch:type="MSShapeGroup"></path>
            <path d="M23.925,40.939 C23.39,40.808 22.847,41.129 22.712,41.666 L19.451,54.711 C19.317,55.246 19.643,55.789 20.179,55.923 C20.26,55.943 20.342,55.953 20.422,55.953 C20.87,55.953 21.278,55.65 21.392,55.196 L24.653,42.15 C24.787,41.615 24.461,41.072 23.925,40.939" id="Fill-1141" fill="#ED8A19" sketch:type="MSShapeGroup"></path>
            <path d="M41.908,24.683 C41.988,24.683 42.07,24.673 42.151,24.652 L55.196,21.392 C55.732,21.258 56.058,20.715 55.924,20.18 C55.79,19.643 55.246,19.316 54.711,19.452 L41.666,22.713 C41.13,22.847 40.805,23.39 40.938,23.925 C41.052,24.38 41.46,24.683 41.908,24.683" id="Fill-1142" fill="#ED8A19" sketch:type="MSShapeGroup"></path>
            <path d="M55.196,34.609 L42.151,31.348 C41.619,31.215 41.073,31.539 40.938,32.075 C40.805,32.61 41.13,33.153 41.666,33.287 L54.711,36.548 C54.792,36.569 54.874,36.578 54.955,36.578 C55.402,36.578 55.81,36.276 55.924,35.82 C56.058,35.285 55.732,34.742 55.196,34.609" id="Fill-1143" fill="#ED8A19" sketch:type="MSShapeGroup"></path>
            <path d="M13.849,31.348 L0.804,34.609 C0.268,34.742 -0.058,35.285 0.076,35.82 C0.19,36.276 0.598,36.578 1.045,36.578 C1.126,36.578 1.207,36.569 1.289,36.548 L14.334,33.287 C14.87,33.153 15.195,32.61 15.061,32.075 C14.927,31.539 14.383,31.215 13.849,31.348" id="Fill-1144" fill="#ED8A19" sketch:type="MSShapeGroup"></path>
            <path d="M14.334,22.713 L1.289,19.452 C0.756,19.316 0.21,19.643 0.076,20.18 C-0.058,20.715 0.268,21.258 0.804,21.392 L13.849,24.652 C13.93,24.673 14.012,24.683 14.092,24.683 C14.54,24.683 14.948,24.38 15.061,23.925 C15.195,23.39 14.87,22.847 14.334,22.713" id="Fill-1145" fill="#ED8A19" sketch:type="MSShapeGroup"></path>
        </g>
    </g>
</svg>