<?xml version="1.0" encoding="UTF-8" standalone="no"?>
<svg width="50px" height="50px" viewBox="0 0 50 50" version="1.1" xmlns="http://www.w3.org/2000/svg" xmlns:xlink="http://www.w3.org/1999/xlink" xmlns:sketch="http://www.bohemiancoding.com/sketch/ns">
    <!-- Generator: Sketch 3.2.2 (9983) - http://www.bohemiancoding.com/sketch -->
    <title>225 - Help (Flat)</title>
    <desc>Created with Sketch.</desc>
    <defs></defs>
    <g id="Page-1" stroke="none" stroke-width="1" fill="none" fill-rule="evenodd" sketch:type="MSPage">
        <g id="225---Help-(Flat)" sketch:type="MSLayerGroup">
            <path d="M50,25 C50,38.807 38.807,50 25,50 C11.193,50 0,38.807 0,25 C0,11.193 11.193,0 25,0 C38.807,0 50,11.193 50,25" id="Fill-724" fill="#48A0DC" sketch:type="MSShapeGroup"></path>
            <path d="M25,37 L25,39 M18,16 C18,12.101 21.188,8.947 25.1,9.001 C28.817,9.053 31.948,12.183 31.999,15.901 C32.034,18.411 30.747,20.624 28.79,21.886 C26.355,23.457 25,26.261 25,29.158 L25,32" id="Stroke-727" stroke="#FFFFFF" stroke-width="2" stroke-linecap="round" sketch:type="MSShapeGroup"></path>
        </g>
    </g>
</svg>