<?xml version="1.0" encoding="UTF-8" standalone="no"?>
<svg width="58px" height="42px" viewBox="0 0 58 42" version="1.1" xmlns="http://www.w3.org/2000/svg" xmlns:xlink="http://www.w3.org/1999/xlink" xmlns:sketch="http://www.bohemiancoding.com/sketch/ns">
    <!-- Generator: Sketch 3.2.2 (9983) - http://www.bohemiancoding.com/sketch -->
    <title>141 - ID (Flat)</title>
    <desc>Created with Sketch.</desc>
    <defs></defs>
    <g id="Page-1" stroke="none" stroke-width="1" fill="none" fill-rule="evenodd" sketch:type="MSPage">
        <g id="141---ID-(Flat)" sketch:type="MSLayerGroup">
            <path d="M54.783,42 L3.217,42 C1.44,42 0,40.56 0,38.783 L0,3.217 C0,1.44 1.44,0 3.217,0 L54.783,0 C56.56,0 58,1.44 58,3.217 L58,38.783 C58,40.56 56.56,42 54.783,42" id="Fill-1598" fill="#E8EDEE" sketch:type="MSShapeGroup"></path>
            <path d="M33,17 L53,17 L53,37 L33,37 L33,17 Z" id="Fill-1607" fill="#424A60" sketch:type="MSShapeGroup"></path>
            <path d="M47.791,34.093 L45.279,32.81 C45.108,32.722 45,32.546 45,32.353 L45,31.584 C46.289,31.03 47.03,29.95 47.39,28.601 C47.933,28.433 48.333,27.93 48.333,27.333 L48.333,26.667 C48.333,26.156 48.039,25.716 47.615,25.492 C47.321,22.984 45.664,21.97 43,21.97 C42.874,21.97 42.75,21.975 42.629,21.984 C41.724,22.056 40.808,21.886 40.054,21.379 C39.741,21.168 39.478,20.943 39.292,20.708 C39.208,20.601 39.039,20.669 39.054,20.805 C39.081,21.038 39.121,21.31 39.18,21.608 C39.4,22.715 39.269,22.553 38.841,23.597 C38.604,24.175 38.451,24.815 38.38,25.494 C37.959,25.719 37.667,26.158 37.667,26.667 L37.667,27.333 C37.667,27.93 38.067,28.433 38.61,28.601 C38.97,29.95 39.711,31.03 41,31.584 L41,32.348 C41,32.543 40.889,32.721 40.714,32.808 L38.14,34.075 C37.437,34.459 37,35.195 37,35.995 L37,36.606 L37,36.879 C37,36.92 37.011,36.961 37.028,37 L48.972,37 C48.989,36.961 49,36.92 49,36.879 L49,36.606 L49,36.049 C49,35.22 48.532,34.463 47.791,34.093" id="Fill-1608" fill="#FFFFFF" sketch:type="MSShapeGroup"></path>
            <path d="M0,5 L58,5 L58,13 L0,13 L0,5 Z" id="Fill-1609" fill="#38454F" sketch:type="MSShapeGroup"></path>
            <path d="M14,18 L5,18 C4.447,18 4,18.447 4,19 C4,19.553 4.447,20 5,20 L14,20 C14.553,20 15,19.553 15,19 C15,18.447 14.553,18 14,18" id="Fill-1610" fill="#B0B6BB" sketch:type="MSShapeGroup"></path>
            <path d="M28,19 C28,18.447 27.553,18 27,18 L18,18 C17.447,18 17,18.447 17,19 C17,19.553 17.447,20 18,20 L27,20 C27.553,20 28,19.553 28,19" id="Fill-1611" fill="#B0B6BB" sketch:type="MSShapeGroup"></path>
            <path d="M6,23 L5,23 C4.447,23 4,23.448 4,24 C4,24.553 4.447,25 5,25 L6,25 C6.553,25 7,24.553 7,24 C7,23.448 6.553,23 6,23" id="Fill-1612" fill="#B0B6BB" sketch:type="MSShapeGroup"></path>
            <path d="M12,23 L10,23 C9.447,23 9,23.448 9,24 C9,24.553 9.447,25 10,25 L12,25 C12.553,25 13,24.553 13,24 C13,23.448 12.553,23 12,23" id="Fill-1613" fill="#B0B6BB" sketch:type="MSShapeGroup"></path>
            <path d="M17,23 L16,23 C15.447,23 15,23.448 15,24 C15,24.553 15.447,25 16,25 L17,25 C17.553,25 18,24.553 18,24 C18,23.448 17.553,23 17,23" id="Fill-1614" fill="#B0B6BB" sketch:type="MSShapeGroup"></path>
            <path d="M23,23 L21,23 C20.447,23 20,23.448 20,24 C20,24.553 20.447,25 21,25 L23,25 C23.553,25 24,24.553 24,24 C24,23.448 23.553,23 23,23" id="Fill-1615" fill="#B0B6BB" sketch:type="MSShapeGroup"></path>
            <path d="M26.29,23.29 C26.109,23.479 26,23.73 26,24 C26,24.27 26.109,24.52 26.29,24.71 C26.479,24.89 26.74,25 27,25 C27.26,25 27.52,24.89 27.71,24.71 C27.89,24.52 28,24.26 28,24 C28,23.74 27.89,23.479 27.71,23.29 C27.34,22.92 26.66,22.92 26.29,23.29" id="Fill-1616" fill="#B0B6BB" sketch:type="MSShapeGroup"></path>
            <path d="M10.651,28.401 C8.46,29.541 7.723,31.721 7.455,33.982 C7.041,33.636 6.627,33.289 6.214,32.942 C5.232,32.12 3.81,33.527 4.799,34.357 C5.735,35.14 6.67,35.924 7.605,36.707 C8.267,37.262 9.281,36.919 9.313,36 C9.385,33.833 9.49,31.257 11.661,30.127 C12.805,29.532 11.794,27.806 10.651,28.401" id="Fill-1617" fill="#7383BF" sketch:type="MSShapeGroup"></path>
            <path d="M25.814,32.513 C25.391,31.934 24.955,31.451 24.181,31.393 C22.724,31.283 20.224,33.368 19.189,31.524 C18.927,31.057 18.28,30.884 17.821,31.166 C16.405,32.035 14.555,33.285 13.065,31.666 C12.19,30.715 10.78,32.133 11.651,33.08 C13.522,35.114 15.935,34.49 18.058,33.339 C18.506,33.82 19.041,34.149 19.754,34.406 C20.663,34.734 23.841,33.186 24.087,33.523 C24.839,34.553 26.576,33.557 25.814,32.513" id="Fill-1618" fill="#7383BF" sketch:type="MSShapeGroup"></path>
        </g>
    </g>
</svg>