<?xml version="1.0" encoding="UTF-8" standalone="no"?>
<svg width="60px" height="31px" viewBox="0 0 60 31" version="1.1" xmlns="http://www.w3.org/2000/svg" xmlns:xlink="http://www.w3.org/1999/xlink" xmlns:sketch="http://www.bohemiancoding.com/sketch/ns">
    <!-- Generator: Sketch 3.2.2 (9983) - http://www.bohemiancoding.com/sketch -->
    <title>188 - Infinity (Flat)</title>
    <desc>Created with Sketch.</desc>
    <defs></defs>
    <g id="Page-1" stroke="none" stroke-width="1" fill="none" fill-rule="evenodd" sketch:type="MSPage">
        <g id="188---Infinity-(Flat)" sketch:type="MSLayerGroup" transform="translate(1.000000, 1.000000)" stroke="#424A60" stroke-width="2" stroke-linecap="round">
            <path d="M29,14.5 C29,22.508 22.508,29 14.5,29 C6.492,29 0,22.508 0,14.5 C0,6.492 6.492,0 14.5,0 C17.483,0 20.256,0.901 22.562,2.446 C23.358,2.979 24.098,3.589 24.771,4.266 M29,14.5 C29,6.492 35.492,0 43.5,0 C51.508,0 58,6.492 58,14.5 C58,22.508 51.508,29 43.5,29 C39.497,29 35.873,27.378 33.249,24.755" id="Stroke-858" sketch:type="MSShapeGroup"></path>
        </g>
    </g>
</svg>