<?xml version="1.0" encoding="UTF-8" standalone="no"?>
<svg width="51px" height="51px" viewBox="0 0 51 51" version="1.1" xmlns="http://www.w3.org/2000/svg" xmlns:xlink="http://www.w3.org/1999/xlink" xmlns:sketch="http://www.bohemiancoding.com/sketch/ns">
    <!-- Generator: Sketch 3.2.2 (9983) - http://www.bohemiancoding.com/sketch -->
    <title>352 - Select Layers (Flat)</title>
    <desc>Created with Sketch.</desc>
    <defs></defs>
    <g id="Page-1" stroke="none" stroke-width="1" fill="none" fill-rule="evenodd" sketch:type="MSPage">
        <g id="Icons" sketch:type="MSArtboardGroup" transform="translate(-1085.000000, -602.000000)">
            <g id="352---Select-Layers-(Flat)" sketch:type="MSLayerGroup" transform="translate(1085.000000, 602.000000)">
                <path d="M25.456,29 L9.656,19.973 L0,25.456 L25.456,40 L50.912,25.456 L41.256,19.973 L25.456,29" id="Fill-347" fill="#694F87" sketch:type="MSShapeGroup"></path>
                <path d="M25.456,40 L9.656,30.973 L0,36.456 L25.456,51 L50.912,36.456 L41.256,30.973 L25.456,40" id="Fill-348" fill="#556080" sketch:type="MSShapeGroup"></path>
                <path d="M40,20 C39.448,20 39,20.448 39,21 C39,21.552 39.448,22 40,22 C40.552,22 41,21.552 41,21 C41,20.448 40.552,20 40,20" id="Fill-398" fill="#BF4D90" sketch:type="MSShapeGroup"></path>
                <path d="M43,23 C42.448,23 42,23.448 42,24 C42,24.552 42.448,25 43,25 C43.552,25 44,24.552 44,24 C44,23.448 43.552,23 43,23" id="Fill-399" fill="#BF4D90" sketch:type="MSShapeGroup"></path>
                <path d="M10,20 C9.448,20 9,20.448 9,21 C9,21.552 9.448,22 10,22 C10.552,22 11,21.552 11,21 C11,20.448 10.552,20 10,20" id="Fill-400" fill="#BF4D90" sketch:type="MSShapeGroup"></path>
                <path d="M37,23 C36.448,23 36,23.448 36,24 C36,24.552 36.448,25 37,25 C37.552,25 38,24.552 38,24 C38,23.448 37.552,23 37,23" id="Fill-401" fill="#BF4D90" sketch:type="MSShapeGroup"></path>
                <path d="M7,23 C6.448,23 6,23.448 6,24 C6,24.552 6.448,25 7,25 C7.552,25 8,24.552 8,24 C8,23.448 7.552,23 7,23" id="Fill-402" fill="#BF4D90" sketch:type="MSShapeGroup"></path>
                <path d="M13,23 C12.448,23 12,23.448 12,24 C12,24.552 12.448,25 13,25 C13.552,25 14,24.552 14,24 C14,23.448 13.552,23 13,23" id="Fill-403" fill="#BF4D90" sketch:type="MSShapeGroup"></path>
                <path d="M10,26 C9.448,26 9,26.448 9,27 C9,27.552 9.448,28 10,28 C10.552,28 11,27.552 11,27 C11,26.448 10.552,26 10,26" id="Fill-404" fill="#BF4D90" sketch:type="MSShapeGroup"></path>
                <path d="M16,26 C15.448,26 15,26.448 15,27 C15,27.552 15.448,28 16,28 C16.552,28 17,27.552 17,27 C17,26.448 16.552,26 16,26" id="Fill-405" fill="#BF4D90" sketch:type="MSShapeGroup"></path>
                <path d="M16,32 C15.448,32 15,32.448 15,33 C15,33.552 15.448,34 16,34 C16.552,34 17,33.552 17,33 C17,32.448 16.552,32 16,32" id="Fill-406" fill="#BF4D90" sketch:type="MSShapeGroup"></path>
                <path d="M13,29 C12.448,29 12,29.448 12,30 C12,30.552 12.448,31 13,31 C13.552,31 14,30.552 14,30 C14,29.448 13.552,29 13,29" id="Fill-407" fill="#BF4D90" sketch:type="MSShapeGroup"></path>
                <path d="M19,29 C18.448,29 18,29.448 18,30 C18,30.552 18.448,31 19,31 C19.552,31 20,30.552 20,30 C20,29.448 19.552,29 19,29" id="Fill-408" fill="#BF4D90" sketch:type="MSShapeGroup"></path>
                <path d="M22,32 C21.448,32 21,32.448 21,33 C21,33.552 21.448,34 22,34 C22.552,34 23,33.552 23,33 C23,32.448 22.552,32 22,32" id="Fill-409" fill="#BF4D90" sketch:type="MSShapeGroup"></path>
                <path d="M28,32 C27.448,32 27,32.448 27,33 C27,33.552 27.448,34 28,34 C28.552,34 29,33.552 29,33 C29,32.448 28.552,32 28,32" id="Fill-410" fill="#BF4D90" sketch:type="MSShapeGroup"></path>
                <path d="M25,29 C24.448,29 24,29.448 24,30 C24,30.552 24.448,31 25,31 C25.552,31 26,30.552 26,30 C26,29.448 25.552,29 25,29" id="Fill-411" fill="#BF4D90" sketch:type="MSShapeGroup"></path>
                <path d="M31,29 C30.448,29 30,29.448 30,30 C30,30.552 30.448,31 31,31 C31.552,31 32,30.552 32,30 C32,29.448 31.552,29 31,29" id="Fill-412" fill="#BF4D90" sketch:type="MSShapeGroup"></path>
                <path d="M25,35 C24.448,35 24,35.448 24,36 C24,36.552 24.448,37 25,37 C25.552,37 26,36.552 26,36 C26,35.448 25.552,35 25,35" id="Fill-413" fill="#BF4D90" sketch:type="MSShapeGroup"></path>
                <path d="M34,26 C33.448,26 33,26.448 33,27 C33,27.552 33.448,28 34,28 C34.552,28 35,27.552 35,27 C35,26.448 34.552,26 34,26" id="Fill-414" fill="#BF4D90" sketch:type="MSShapeGroup"></path>
                <path d="M40,26 C39.448,26 39,26.448 39,27 C39,27.552 39.448,28 40,28 C40.552,28 41,27.552 41,27 C41,26.448 40.552,26 40,26" id="Fill-415" fill="#BF4D90" sketch:type="MSShapeGroup"></path>
                <path d="M34,32 C33.448,32 33,32.448 33,33 C33,33.552 33.448,34 34,34 C34.552,34 35,33.552 35,33 C35,32.448 34.552,32 34,32" id="Fill-416" fill="#BF4D90" sketch:type="MSShapeGroup"></path>
                <path d="M37,29 C36.448,29 36,29.448 36,30 C36,30.552 36.448,31 37,31 C37.552,31 38,30.552 38,30 C38,29.448 37.552,29 37,29" id="Fill-417" fill="#BF4D90" sketch:type="MSShapeGroup"></path>
                <path d="M46,26 C45.448,26 45,26.448 45,27 C45,27.552 45.448,28 46,28 C46.552,28 47,27.552 47,27 C47,26.448 46.552,26 46,26" id="Fill-418" fill="#BF4D90" sketch:type="MSShapeGroup"></path>
                <path d="M50.912,14.456 L25.456,29 L0,14.456 L25.456,0 L50.912,14.456" id="Fill-2373" fill="#BF4D90" sketch:type="MSShapeGroup"></path>
            </g>
        </g>
    </g>
</svg>