<?xml version="1.0" encoding="UTF-8" standalone="no"?>
<svg width="45px" height="58px" viewBox="0 0 45 58" version="1.1" xmlns="http://www.w3.org/2000/svg" xmlns:xlink="http://www.w3.org/1999/xlink" xmlns:sketch="http://www.bohemiancoding.com/sketch/ns">
    <!-- Generator: Sketch 3.2.2 (9983) - http://www.bohemiancoding.com/sketch -->
    <title>131 - Leaking Battery (Flat)</title>
    <desc>Created with Sketch.</desc>
    <defs></defs>
    <g id="Page-1" stroke="none" stroke-width="1" fill="none" fill-rule="evenodd" sketch:type="MSPage">
        <g id="131---Leaking-Battery-(Flat)" sketch:type="MSLayerGroup">
            <path d="M10,0 L20,0 L20,4 L10,4 L10,0 Z" id="Fill-1063" fill="#D8A852" sketch:type="MSShapeGroup"></path>
            <path d="M28,34 L30,30.536 L30,6.464 C30,5.103 28.897,4 27.536,4 L2.464,4 C1.103,4 0,5.103 0,6.464 L0,55.536 C0,56.897 1.103,58 2.464,58 L27.536,58 C28.897,58 30,56.897 30,55.536 L30,37.464 L28,34" id="Fill-1064" fill="#424A60" sketch:type="MSShapeGroup"></path>
            <path d="M15,28 C10.375,12.625 0,17 0,17 L0,55.536 C0,56.897 1.103,58 2.464,58 L27.536,58 C28.897,58 30,56.897 30,55.536 L30,37.464 L29,36 C29,36 19.625,43.375 15,28" id="Fill-2711" fill="#42B05C" sketch:type="MSShapeGroup"></path>
            <path d="M28,33 L25.414,33 L23,30.586 L23,28 C23,27.447 22.553,27 22,27 C21.447,27 21,27.447 21,28 L21,30 L19,30 C18.447,30 18,30.447 18,31 C18,31.553 18.447,32 19,32 L21.586,32 L23.741,34.155 L21.434,38 L20,38 C19.447,38 19,38.448 19,39 C19,39.553 19.447,40 20,40 L21,40 L21,41 C21,41.553 21.447,42 22,42 C22.553,42 23,41.553 23,41 L23,39.277 L25.566,35 L28,35 C28.553,35 29,34.553 29,34 C29,33.447 28.553,33 28,33" id="Fill-2712" fill="#292F3A" sketch:type="MSShapeGroup"></path>
            <path d="M5,22 C5,22.552 4.552,23 4,23 C3.448,23 3,22.552 3,22 C3,21.448 3.448,21 4,21 C4.552,21 5,21.448 5,22" id="Fill-2713" fill="#A4E869" sketch:type="MSShapeGroup"></path>
            <path d="M2,19 C2,19.552 1.552,20 1,20 C0.448,20 0,19.552 0,19 C0,18.448 0.448,18 1,18 C1.552,18 2,18.448 2,19" id="Fill-2714" fill="#A4E869" sketch:type="MSShapeGroup"></path>
            <path d="M8,19 C8,19.552 7.552,20 7,20 C6.448,20 6,19.552 6,19 C6,18.448 6.448,18 7,18 C7.552,18 8,18.448 8,19" id="Fill-2715" fill="#A4E869" sketch:type="MSShapeGroup"></path>
            <path d="M2,25 C2,25.552 1.552,26 1,26 C0.448,26 0,25.552 0,25 C0,24.448 0.448,24 1,24 C1.552,24 2,24.448 2,25" id="Fill-2716" fill="#A4E869" sketch:type="MSShapeGroup"></path>
            <path d="M8,25 C8,25.552 7.552,26 7,26 C6.448,26 6,25.552 6,25 C6,24.448 6.448,24 7,24 C7.552,24 8,24.448 8,25" id="Fill-2717" fill="#A4E869" sketch:type="MSShapeGroup"></path>
            <path d="M11,22 C11,22.552 10.552,23 10,23 C9.448,23 9,22.552 9,22 C9,21.448 9.448,21 10,21 C10.552,21 11,21.448 11,22" id="Fill-2718" fill="#A4E869" sketch:type="MSShapeGroup"></path>
            <path d="M14,25 C14,25.552 13.552,26 13,26 C12.448,26 12,25.552 12,25 C12,24.448 12.448,24 13,24 C13.552,24 14,24.448 14,25" id="Fill-2719" fill="#A4E869" sketch:type="MSShapeGroup"></path>
            <path d="M5,28 C5,28.552 4.552,29 4,29 C3.448,29 3,28.552 3,28 C3,27.448 3.448,27 4,27 C4.552,27 5,27.448 5,28" id="Fill-2720" fill="#A4E869" sketch:type="MSShapeGroup"></path>
            <path d="M5,34 C5,34.552 4.552,35 4,35 C3.448,35 3,34.552 3,34 C3,33.448 3.448,33 4,33 C4.552,33 5,33.448 5,34" id="Fill-2721" fill="#A4E869" sketch:type="MSShapeGroup"></path>
            <path d="M2,31 C2,31.552 1.552,32 1,32 C0.448,32 0,31.552 0,31 C0,30.448 0.448,30 1,30 C1.552,30 2,30.448 2,31" id="Fill-2722" fill="#A4E869" sketch:type="MSShapeGroup"></path>
            <path d="M8,31 C8,31.552 7.552,32 7,32 C6.448,32 6,31.552 6,31 C6,30.448 6.448,30 7,30 C7.552,30 8,30.448 8,31" id="Fill-2723" fill="#A4E869" sketch:type="MSShapeGroup"></path>
            <path d="M2,37 C2,37.552 1.552,38 1,38 C0.448,38 0,37.552 0,37 C0,36.448 0.448,36 1,36 C1.552,36 2,36.448 2,37" id="Fill-2724" fill="#A4E869" sketch:type="MSShapeGroup"></path>
            <path d="M8,37 C8,37.552 7.552,38 7,38 C6.448,38 6,37.552 6,37 C6,36.448 6.448,36 7,36 C7.552,36 8,36.448 8,37" id="Fill-2725" fill="#A4E869" sketch:type="MSShapeGroup"></path>
            <path d="M11,28 C11,28.552 10.552,29 10,29 C9.448,29 9,28.552 9,28 C9,27.448 9.448,27 10,27 C10.552,27 11,27.448 11,28" id="Fill-2726" fill="#A4E869" sketch:type="MSShapeGroup"></path>
            <path d="M11,34 C11,34.552 10.552,35 10,35 C9.448,35 9,34.552 9,34 C9,33.448 9.448,33 10,33 C10.552,33 11,33.448 11,34" id="Fill-2727" fill="#A4E869" sketch:type="MSShapeGroup"></path>
            <path d="M17,34 C17,34.552 16.552,35 16,35 C15.448,35 15,34.552 15,34 C15,33.448 15.448,33 16,33 C16.552,33 17,33.448 17,34" id="Fill-2728" fill="#A4E869" sketch:type="MSShapeGroup"></path>
            <path d="M14,31 C14,31.552 13.552,32 13,32 C12.448,32 12,31.552 12,31 C12,30.448 12.448,30 13,30 C13.552,30 14,30.448 14,31" id="Fill-2729" fill="#A4E869" sketch:type="MSShapeGroup"></path>
            <path d="M35,36 C35,36.552 34.552,37 34,37 C33.448,37 33,36.552 33,36 C33,35.448 33.448,35 34,35 C34.552,35 35,35.448 35,36" id="Fill-2730" fill="#42B05C" sketch:type="MSShapeGroup"></path>
            <path d="M37,43 C37,43.552 36.552,44 36,44 C35.448,44 35,43.552 35,43 C35,42.448 35.448,42 36,42 C36.552,42 37,42.448 37,43" id="Fill-2731" fill="#42B05C" sketch:type="MSShapeGroup"></path>
            <path d="M37,39 C37,39.552 36.552,40 36,40 C35.448,40 35,39.552 35,39 C35,38.448 35.448,38 36,38 C36.552,38 37,38.448 37,39" id="Fill-2732" fill="#42B05C" sketch:type="MSShapeGroup"></path>
            <path d="M39,46 C39,46.552 38.552,47 38,47 C37.448,47 37,46.552 37,46 C37,45.448 37.448,45 38,45 C38.552,45 39,45.448 39,46" id="Fill-2733" fill="#42B05C" sketch:type="MSShapeGroup"></path>
            <path d="M40,49 C40,49.552 39.552,50 39,50 C38.448,50 38,49.552 38,49 C38,48.448 38.448,48 39,48 C39.552,48 40,48.448 40,49" id="Fill-2734" fill="#42B05C" sketch:type="MSShapeGroup"></path>
            <path d="M43,53 C43,53.552 42.552,54 42,54 C41.448,54 41,53.552 41,53 C41,52.448 41.448,52 42,52 C42.552,52 43,52.448 43,53" id="Fill-2735" fill="#42B05C" sketch:type="MSShapeGroup"></path>
            <path d="M41,43 C41,43.552 40.552,44 40,44 C39.448,44 39,43.552 39,43 C39,42.448 39.448,42 40,42 C40.552,42 41,42.448 41,43" id="Fill-2736" fill="#42B05C" sketch:type="MSShapeGroup"></path>
            <path d="M41,39 C41,39.552 40.552,40 40,40 C39.448,40 39,39.552 39,39 C39,38.448 39.448,38 40,38 C40.552,38 41,38.448 41,39" id="Fill-2737" fill="#42B05C" sketch:type="MSShapeGroup"></path>
            <path d="M43,47 C43,47.552 42.552,48 42,48 C41.448,48 41,47.552 41,47 C41,46.448 41.448,46 42,46 C42.552,46 43,46.448 43,47" id="Fill-2738" fill="#42B05C" sketch:type="MSShapeGroup"></path>
            <path d="M40,53 C40,53.552 39.552,54 39,54 C38.448,54 38,53.552 38,53 C38,52.448 38.448,52 39,52 C39.552,52 40,52.448 40,53" id="Fill-2739" fill="#42B05C" sketch:type="MSShapeGroup"></path>
            <path d="M45,50 C45,50.552 44.552,51 44,51 C43.448,51 43,50.552 43,50 C43,49.448 43.448,49 44,49 C44.552,49 45,49.448 45,50" id="Fill-2740" fill="#42B05C" sketch:type="MSShapeGroup"></path>
            <path d="M44,57 C44,57.552 43.552,58 43,58 C42.448,58 42,57.552 42,57 C42,56.448 42.448,56 43,56 C43.552,56 44,56.448 44,57" id="Fill-2741" fill="#42B05C" sketch:type="MSShapeGroup"></path>
            <path d="M14,37 C14,37.552 13.552,38 13,38 C12.448,38 12,37.552 12,37 C12,36.448 12.448,36 13,36 C13.552,36 14,36.448 14,37" id="Fill-2742" fill="#A4E869" sketch:type="MSShapeGroup"></path>
            <path d="M5,40 C5,40.552 4.552,41 4,41 C3.448,41 3,40.552 3,40 C3,39.448 3.448,39 4,39 C4.552,39 5,39.448 5,40" id="Fill-2743" fill="#A4E869" sketch:type="MSShapeGroup"></path>
            <path d="M5,46 C5,46.552 4.552,47 4,47 C3.448,47 3,46.552 3,46 C3,45.448 3.448,45 4,45 C4.552,45 5,45.448 5,46" id="Fill-2744" fill="#A4E869" sketch:type="MSShapeGroup"></path>
            <path d="M2,43 C2,43.552 1.552,44 1,44 C0.448,44 0,43.552 0,43 C0,42.448 0.448,42 1,42 C1.552,42 2,42.448 2,43" id="Fill-2745" fill="#A4E869" sketch:type="MSShapeGroup"></path>
            <path d="M8,43 C8,43.552 7.552,44 7,44 C6.448,44 6,43.552 6,43 C6,42.448 6.448,42 7,42 C7.552,42 8,42.448 8,43" id="Fill-2746" fill="#A4E869" sketch:type="MSShapeGroup"></path>
            <path d="M2,49 C2,49.552 1.552,50 1,50 C0.448,50 0,49.552 0,49 C0,48.448 0.448,48 1,48 C1.552,48 2,48.448 2,49" id="Fill-2747" fill="#A4E869" sketch:type="MSShapeGroup"></path>
            <path d="M8,49 C8,49.552 7.552,50 7,50 C6.448,50 6,49.552 6,49 C6,48.448 6.448,48 7,48 C7.552,48 8,48.448 8,49" id="Fill-2748" fill="#A4E869" sketch:type="MSShapeGroup"></path>
            <path d="M11,40 C11,40.552 10.552,41 10,41 C9.448,41 9,40.552 9,40 C9,39.448 9.448,39 10,39 C10.552,39 11,39.448 11,40" id="Fill-2749" fill="#A4E869" sketch:type="MSShapeGroup"></path>
            <path d="M17,40 C17,40.552 16.552,41 16,41 C15.448,41 15,40.552 15,40 C15,39.448 15.448,39 16,39 C16.552,39 17,39.448 17,40" id="Fill-2750" fill="#A4E869" sketch:type="MSShapeGroup"></path>
            <path d="M11,46 C11,46.552 10.552,47 10,47 C9.448,47 9,46.552 9,46 C9,45.448 9.448,45 10,45 C10.552,45 11,45.448 11,46" id="Fill-2751" fill="#A4E869" sketch:type="MSShapeGroup"></path>
            <path d="M17,46 C17,46.552 16.552,47 16,47 C15.448,47 15,46.552 15,46 C15,45.448 15.448,45 16,45 C16.552,45 17,45.448 17,46" id="Fill-2752" fill="#A4E869" sketch:type="MSShapeGroup"></path>
            <path d="M14,43 C14,43.552 13.552,44 13,44 C12.448,44 12,43.552 12,43 C12,42.448 12.448,42 13,42 C13.552,42 14,42.448 14,43" id="Fill-2753" fill="#A4E869" sketch:type="MSShapeGroup"></path>
            <path d="M20,43 C20,43.552 19.552,44 19,44 C18.448,44 18,43.552 18,43 C18,42.448 18.448,42 19,42 C19.552,42 20,42.448 20,43" id="Fill-2754" fill="#A4E869" sketch:type="MSShapeGroup"></path>
            <path d="M14,49 C14,49.552 13.552,50 13,50 C12.448,50 12,49.552 12,49 C12,48.448 12.448,48 13,48 C13.552,48 14,48.448 14,49" id="Fill-2755" fill="#A4E869" sketch:type="MSShapeGroup"></path>
            <path d="M20,49 C20,49.552 19.552,50 19,50 C18.448,50 18,49.552 18,49 C18,48.448 18.448,48 19,48 C19.552,48 20,48.448 20,49" id="Fill-2756" fill="#A4E869" sketch:type="MSShapeGroup"></path>
            <path d="M29,40 C29,40.552 28.552,41 28,41 C27.448,41 27,40.552 27,40 C27,39.448 27.448,39 28,39 C28.552,39 29,39.448 29,40" id="Fill-2757" fill="#A4E869" sketch:type="MSShapeGroup"></path>
            <path d="M23,46 C23,46.552 22.552,47 22,47 C21.448,47 21,46.552 21,46 C21,45.448 21.448,45 22,45 C22.552,45 23,45.448 23,46" id="Fill-2758" fill="#A4E869" sketch:type="MSShapeGroup"></path>
            <path d="M29,46 C29,46.552 28.552,47 28,47 C27.448,47 27,46.552 27,46 C27,45.448 27.448,45 28,45 C28.552,45 29,45.448 29,46" id="Fill-2759" fill="#A4E869" sketch:type="MSShapeGroup"></path>
            <path d="M26,43 C26,43.552 25.552,44 25,44 C24.448,44 24,43.552 24,43 C24,42.448 24.448,42 25,42 C25.552,42 26,42.448 26,43" id="Fill-2760" fill="#A4E869" sketch:type="MSShapeGroup"></path>
            <path d="M26,49 C26,49.552 25.552,50 25,50 C24.448,50 24,49.552 24,49 C24,48.448 24.448,48 25,48 C25.552,48 26,48.448 26,49" id="Fill-2761" fill="#A4E869" sketch:type="MSShapeGroup"></path>
            <path d="M5,52 C5,52.552 4.552,53 4,53 C3.448,53 3,52.552 3,52 C3,51.448 3.448,51 4,51 C4.552,51 5,51.448 5,52" id="Fill-2762" fill="#A4E869" sketch:type="MSShapeGroup"></path>
            <path d="M2,55 C2,55.552 1.552,56 1,56 C0.448,56 0,55.552 0,55 C0,54.448 0.448,54 1,54 C1.552,54 2,54.448 2,55" id="Fill-2763" fill="#A4E869" sketch:type="MSShapeGroup"></path>
            <path d="M8,55 C8,55.552 7.552,56 7,56 C6.448,56 6,55.552 6,55 C6,54.448 6.448,54 7,54 C7.552,54 8,54.448 8,55" id="Fill-2764" fill="#A4E869" sketch:type="MSShapeGroup"></path>
            <path d="M11,52 C11,52.552 10.552,53 10,53 C9.448,53 9,52.552 9,52 C9,51.448 9.448,51 10,51 C10.552,51 11,51.448 11,52" id="Fill-2765" fill="#A4E869" sketch:type="MSShapeGroup"></path>
            <path d="M17,52 C17,52.552 16.552,53 16,53 C15.448,53 15,52.552 15,52 C15,51.448 15.448,51 16,51 C16.552,51 17,51.448 17,52" id="Fill-2766" fill="#A4E869" sketch:type="MSShapeGroup"></path>
            <path d="M14,55 C14,55.552 13.552,56 13,56 C12.448,56 12,55.552 12,55 C12,54.448 12.448,54 13,54 C13.552,54 14,54.448 14,55" id="Fill-2767" fill="#A4E869" sketch:type="MSShapeGroup"></path>
            <path d="M20,55 C20,55.552 19.552,56 19,56 C18.448,56 18,55.552 18,55 C18,54.448 18.448,54 19,54 C19.552,54 20,54.448 20,55" id="Fill-2768" fill="#A4E869" sketch:type="MSShapeGroup"></path>
            <path d="M23,52 C23,52.552 22.552,53 22,53 C21.448,53 21,52.552 21,52 C21,51.448 21.448,51 22,51 C22.552,51 23,51.448 23,52" id="Fill-2769" fill="#A4E869" sketch:type="MSShapeGroup"></path>
            <path d="M29,52 C29,52.552 28.552,53 28,53 C27.448,53 27,52.552 27,52 C27,51.448 27.448,51 28,51 C28.552,51 29,51.448 29,52" id="Fill-2770" fill="#A4E869" sketch:type="MSShapeGroup"></path>
            <path d="M26,55 C26,55.552 25.552,56 25,56 C24.448,56 24,55.552 24,55 C24,54.448 24.448,54 25,54 C25.552,54 26,54.448 26,55" id="Fill-2771" fill="#A4E869" sketch:type="MSShapeGroup"></path>
            <path d="M27.536,6 C27.792,6 28,6.208 28,6.464 L28,55.536 C28,55.792 27.792,56 27.536,56 L2.464,56 C2.208,56 2,55.792 2,55.536 L2,6.464 C2,6.208 2.208,6 2.464,6 L27.536,6 M27.536,4 L2.464,4 C1.103,4 0,5.103 0,6.464 L0,55.536 C0,56.897 1.103,58 2.464,58 L27.536,58 C28.897,58 30,56.897 30,55.536 L30,6.464 C30,5.103 28.897,4 27.536,4" id="Fill-2772" fill="#292F3A" sketch:type="MSShapeGroup"></path>
        </g>
    </g>
</svg>