<?xml version="1.0" encoding="UTF-8" standalone="no"?>
<svg width="58px" height="58px" viewBox="0 0 58 58" version="1.1" xmlns="http://www.w3.org/2000/svg" xmlns:xlink="http://www.w3.org/1999/xlink" xmlns:sketch="http://www.bohemiancoding.com/sketch/ns">
    <!-- Generator: Sketch 3.2.2 (9983) - http://www.bohemiancoding.com/sketch -->
    <title>346 - Link (Flat)</title>
    <desc>Created with Sketch.</desc>
    <defs></defs>
    <g id="Page-1" stroke="none" stroke-width="1" fill="none" fill-rule="evenodd" sketch:type="MSPage">
        <g id="Icons" sketch:type="MSArtboardGroup" transform="translate(-601.000000, -718.000000)" stroke-linecap="round" stroke="#25AE88" stroke-width="2">
            <g id="346---Link-(Flat)" sketch:type="MSLayerGroup" transform="translate(602.000000, 719.000000)">
                <path d="M27.827,27.827 L27.827,27.827 C23.551,23.551 23.551,16.554 27.827,12.278 L36.898,3.207 C41.174,-1.069 48.171,-1.069 52.447,3.207 C56.723,7.483 56.723,14.48 52.447,18.757 L43.377,27.827 C39.101,32.104 32.103,32.104 27.827,27.827 L27.827,27.827 Z M3.207,52.447 L3.207,52.447 C-1.069,48.171 -1.069,41.174 3.207,36.898 L12.278,27.827 C16.554,23.551 23.551,23.551 27.827,27.827 C32.103,32.104 32.103,39.101 27.827,43.377 L18.757,52.447 C14.48,56.724 7.483,56.724 3.207,52.447 L3.207,52.447 Z M37.158,18.496 L18.496,37.158 L37.158,18.496 Z" id="Stroke-498" sketch:type="MSShapeGroup"></path>
            </g>
        </g>
    </g>
</svg>