<?xml version="1.0" encoding="UTF-8" standalone="no"?>
<svg width="58px" height="46px" viewBox="0 0 58 46" version="1.1" xmlns="http://www.w3.org/2000/svg" xmlns:xlink="http://www.w3.org/1999/xlink" xmlns:sketch="http://www.bohemiancoding.com/sketch/ns">
    <!-- Generator: Sketch 3.2.2 (9983) - http://www.bohemiancoding.com/sketch -->
    <title>151 - Live News (Flat)</title>
    <desc>Created with Sketch.</desc>
    <defs></defs>
    <g id="Page-1" stroke="none" stroke-width="1" fill="none" fill-rule="evenodd" sketch:type="MSPage">
        <g id="151---Live-News-(Flat)" sketch:type="MSLayerGroup">
            <path d="M0,0 L58,0 L58,38 L0,38 L0,0 Z" id="Fill-1036" fill="#556080" sketch:type="MSShapeGroup"></path>
            <path d="M49,4 L53,4 L53,8 L49,8 L49,4 Z" id="Fill-1042" fill="#61B972" sketch:type="MSShapeGroup"></path>
            <path d="M39.326,28.814 C39.488,28.704 39.656,28.603 39.814,28.489 C39.525,28.234 39.204,28.01 38.85,27.832 L34.186,24.814 C33.493,24.468 32.186,24.589 32.186,23.814 L32.186,21.71 C32.337,21.538 33.509,20.825 33.693,20.565 C34.424,19.533 35.17,18.397 35.553,17.206 C36.241,16.994 37.186,16.358 37.186,15.603 L37.186,13.358 C37.186,13.163 37.084,12.976 36.938,12.802 C36.474,12.247 36.186,11.565 36.186,10.841 L36.186,9.814 C36.186,9.814 36.028,3.814 29.186,3.814 C22.344,3.814 22.186,9.814 22.186,9.814 L22.186,10.841 C22.186,11.565 21.898,12.247 21.434,12.802 C21.289,12.976 21.186,13.163 21.186,13.358 L21.186,15.603 C21.186,16.195 21.936,16.716 22.401,17.016 C22.962,19.459 26.186,21.218 26.186,21.218 L26.186,23.27 C26.186,24.018 24.349,24.707 23.692,25.065 L18.984,27.797 C18.642,27.983 18.336,28.217 18.06,28.477 C18.223,28.596 18.396,28.701 18.563,28.814 L39.326,28.814" id="Fill-1043" fill="#FCCF9D" sketch:type="MSShapeGroup"></path>
            <path d="M5,28 L10,28 L10,33 L5,33 L5,28 Z" id="Fill-1044" fill="#ECBA16" sketch:type="MSShapeGroup"></path>
            <path d="M31,43 L31,38 L27,38 L27,43 L22,43 L22,46 L36,46 L36,43 L31,43" id="Fill-1045" fill="#424A60" sketch:type="MSShapeGroup"></path>
            <path d="M14,28 L53,28 L53,33 L14,33 L14,28 Z" id="Fill-2698" fill="#D75A4A" sketch:type="MSShapeGroup"></path>
        </g>
    </g>
</svg>