<?xml version="1.0" encoding="UTF-8" standalone="no"?>
<svg width="38px" height="58px" viewBox="0 0 38 58" version="1.1" xmlns="http://www.w3.org/2000/svg" xmlns:xlink="http://www.w3.org/1999/xlink" xmlns:sketch="http://www.bohemiancoding.com/sketch/ns">
    <!-- Generator: Sketch 3.2.2 (9983) - http://www.bohemiancoding.com/sketch -->
    <title>284 - Locked (Flat)</title>
    <desc>Created with Sketch.</desc>
    <defs></defs>
    <g id="Page-1" stroke="none" stroke-width="1" fill="none" fill-rule="evenodd" sketch:type="MSPage">
        <g id="Icons" sketch:type="MSArtboardGroup" transform="translate(-852.000000, -1438.000000)">
            <g id="284---Locked-(Flat)" sketch:type="MSLayerGroup" transform="translate(852.000000, 1440.000000)">
                <path d="M29,20.866 L29,9.22 C29,4.149 24.5,0 19,0 C13.5,0 9,4.149 9,9.22 L9,20.866" id="Stroke-248" stroke="#D8A852" stroke-width="4" stroke-linecap="round" stroke-linejoin="round" sketch:type="MSShapeGroup"></path>
                <path d="M38,37 C38,47.494 29.493,56 19,56 C8.507,56 0,47.494 0,37 C0,26.507 8.507,18 19,18 C29.493,18 38,26.507 38,37" id="Fill-249" fill="#E8EDEE" sketch:type="MSShapeGroup"></path>
                <path d="M38,37 C38,26.507 29.493,18 19,18 L19,56 C29.493,56 38,47.494 38,37" id="Fill-250" fill="#C7CBC7" sketch:type="MSShapeGroup"></path>
                <path d="M19,42 L19,42 C17.35,42 16,40.65 16,39 L16,33 C16,31.35 17.35,30 19,30 C20.65,30 22,31.35 22,33 L22,39 C22,40.65 20.65,42 19,42" id="Fill-1864" fill="#424A60" sketch:type="MSShapeGroup"></path>
            </g>
        </g>
    </g>
</svg>