<?xml version="1.0" encoding="UTF-8" standalone="no"?>
<svg width="58px" height="58px" viewBox="0 0 58 58" version="1.1" xmlns="http://www.w3.org/2000/svg" xmlns:xlink="http://www.w3.org/1999/xlink" xmlns:sketch="http://www.bohemiancoding.com/sketch/ns">
    <!-- Generator: Sketch 3.2.2 (9983) - http://www.bohemiancoding.com/sketch -->
    <title>240 - Low Volume (Flat)</title>
    <desc>Created with Sketch.</desc>
    <defs></defs>
    <g id="Page-1" stroke="none" stroke-width="1" fill="none" fill-rule="evenodd" sketch:type="MSPage">
        <g id="240---Low-Volume-(Flat)" sketch:type="MSLayerGroup">
            <path d="M58,29 C58,45.017 45.016,58 29,58 C12.984,58 0,45.017 0,29 C0,12.984 12.984,0 29,0 C45.016,0 58,12.984 58,29" id="Fill-789" fill="#38454F" sketch:type="MSShapeGroup"></path>
            <path d="M18.427,20 L10.104,20 C8.942,20 8,20.942 8,22.104 L8,34.896 C8,36.058 8.942,37 10.104,37 L18.427,37 C18.802,37 19.17,37.101 19.494,37.291 L32.83,49.707 C34.232,50.531 36,49.52 36,47.893 L36,9.107 C36,7.48 34.232,6.469 32.83,7.294 L19.494,19.709 C19.17,19.9 18.802,20 18.427,20" id="Fill-1917" fill="#7383BF" sketch:type="MSShapeGroup"></path>
            <path d="M40,38 C39.744,38 39.488,37.902 39.293,37.707 C38.902,37.316 38.902,36.684 39.293,36.293 C43.59,31.996 43.59,25.004 39.293,20.707 C38.902,20.317 38.902,19.684 39.293,19.293 C39.684,18.902 40.316,18.902 40.707,19.293 C45.784,24.37 45.784,32.63 40.707,37.707 C40.512,37.902 40.256,38 40,38" id="Fill-1918" fill="#F0CE49" sketch:type="MSShapeGroup"></path>
        </g>
    </g>
</svg>