<?xml version="1.0" encoding="UTF-8" standalone="no"?>
<svg width="44px" height="46px" viewBox="0 0 44 46" version="1.1" xmlns="http://www.w3.org/2000/svg" xmlns:xlink="http://www.w3.org/1999/xlink" xmlns:sketch="http://www.bohemiancoding.com/sketch/ns">
    <!-- Generator: Sketch 3.2.2 (9983) - http://www.bohemiancoding.com/sketch -->
    <title>233 - Low Volume (Flat)</title>
    <desc>Created with Sketch.</desc>
    <defs></defs>
    <g id="Page-1" stroke="none" stroke-width="1" fill="none" fill-rule="evenodd" sketch:type="MSPage">
        <g id="233---Low-Volume-(Flat)" sketch:type="MSLayerGroup" transform="translate(1.000000, 1.000000)">
            <path d="M0,12 L0,31 L11,30.995 L24.83,43.7 C26.232,44.544 28,43.509 28,41.844 L28,2.156 C28,0.491 26.232,-0.543 24.83,0.301 L11,12 L0,12 L0,12 Z" id="Fill-871" fill="#E8EDEE" sketch:type="MSShapeGroup"></path>
            <path d="M0,12 L0,31 L11,30.995 L24.83,43.7 C26.232,44.544 28,43.509 28,41.844 L28,2.156 C28,0.491 26.232,-0.543 24.83,0.301 L11,12 L0,12 L0,12 Z" id="Stroke-872" stroke="#C7CBC7" stroke-width="2" stroke-linecap="round" stroke-linejoin="round" sketch:type="MSShapeGroup"></path>
            <path d="M11,12 L11,17" id="Fill-873" fill="#E8EDEE" sketch:type="MSShapeGroup"></path>
            <path d="M11,12 L11,17" id="Stroke-874" stroke="#C7CBC7" stroke-width="2" stroke-linecap="round" sketch:type="MSShapeGroup"></path>
            <path d="M11,26 L11,31" id="Fill-875" fill="#E8EDEE" sketch:type="MSShapeGroup"></path>
            <path d="M11,26 L11,31" id="Stroke-876" stroke="#C7CBC7" stroke-width="2" stroke-linecap="round" sketch:type="MSShapeGroup"></path>
            <path d="M32,33.501 C37.212,31.995 41.027,27.197 41.027,21.5 C41.027,15.803 37.212,11.006 32,9.5" id="Stroke-889" stroke="#C7CBC7" stroke-width="2" stroke-linecap="round" stroke-linejoin="round" sketch:type="MSShapeGroup"></path>
        </g>
    </g>
</svg>