<?xml version="1.0" encoding="UTF-8" standalone="no"?>
<svg width="61px" height="54px" viewBox="0 0 61 54" version="1.1" xmlns="http://www.w3.org/2000/svg" xmlns:xlink="http://www.w3.org/1999/xlink" xmlns:sketch="http://www.bohemiancoding.com/sketch/ns">
    <!-- Generator: Sketch 3.2.2 (9983) - http://www.bohemiancoding.com/sketch -->
    <title>304 - Map Location (Flat)</title>
    <desc>Created with Sketch.</desc>
    <defs></defs>
    <g id="Page-1" stroke="none" stroke-width="1" fill="none" fill-rule="evenodd" sketch:type="MSPage">
        <g id="Icons" sketch:type="MSArtboardGroup" transform="translate(-839.000000, -1203.000000)">
            <g id="304---Map-Location-(Flat)" sketch:type="MSLayerGroup" transform="translate(839.000000, 1202.000000)">
                <path d="M54,23 L8,23 L4.345,52 L57.114,52 L54,23" id="Fill-629" fill="#FFFFFF" sketch:type="MSShapeGroup"></path>
                <path d="M54,23 L57.114,52 L4.345,52 L8,23 L54,23 M56.695,20 L5.354,20 L0.943,55 L60.454,55 L56.695,20" id="Fill-630" fill="#556080" sketch:type="MSShapeGroup"></path>
                <path d="M14.627,48 C14.37,48 14.114,47.984 13.858,47.953 C13.641,47.927 13.421,47.886 13.205,47.829 C12.67,47.691 12.349,47.146 12.487,46.611 C12.625,46.076 13.17,45.751 13.705,45.894 C13.837,45.927 13.969,45.952 14.102,45.969 C14.505,46.019 14.912,46.006 15.316,45.954 C15.868,45.889 16.365,46.273 16.434,46.821 C16.503,47.369 16.114,47.869 15.566,47.938 C15.253,47.978 14.938,48 14.627,48 L14.627,48 Z M19.277,46.842 C18.876,46.842 18.498,46.599 18.345,46.202 C18.146,45.687 18.402,45.107 18.917,44.909 C19.509,44.681 20.105,44.426 20.691,44.15 C21.194,43.915 21.787,44.132 22.021,44.631 C22.256,45.131 22.041,45.727 21.541,45.961 C20.913,46.256 20.272,46.529 19.638,46.774 C19.519,46.82 19.398,46.842 19.277,46.842 L19.277,46.842 Z M10.931,45.109 C10.424,45.109 9.989,44.726 9.937,44.211 C9.917,44.014 9.908,43.816 9.908,43.619 C9.908,43.503 9.911,43.387 9.917,43.272 C9.94,42.804 10.016,42.33 10.142,41.866 C10.285,41.331 10.839,41.014 11.367,41.162 C11.9,41.306 12.216,41.854 12.071,42.388 C11.983,42.714 11.931,43.045 11.915,43.371 C11.911,43.453 11.908,43.536 11.908,43.619 C11.908,43.748 11.913,43.879 11.927,44.008 C11.982,44.558 11.582,45.048 11.033,45.104 C10.998,45.107 10.964,45.109 10.931,45.109 L10.931,45.109 Z M24.609,44.11 C24.282,44.11 23.961,43.95 23.769,43.655 C23.469,43.191 23.601,42.572 24.063,42.271 C24.599,41.925 25.13,41.552 25.644,41.164 C26.088,40.832 26.712,40.923 27.045,41.36 C27.377,41.802 27.289,42.429 26.849,42.762 C26.297,43.177 25.727,43.577 25.153,43.949 C24.984,44.059 24.796,44.11 24.609,44.11 L24.609,44.11 Z M29.368,40.461 C29.06,40.461 28.755,40.318 28.559,40.05 C28.233,39.604 28.332,38.978 28.778,38.652 C28.987,38.501 29.2,38.353 29.419,38.211 C29.796,37.966 30.2,37.734 30.619,37.523 C31.115,37.276 31.714,37.476 31.962,37.968 C32.21,38.461 32.011,39.063 31.518,39.311 C31.164,39.488 30.824,39.683 30.508,39.888 C30.319,40.011 30.136,40.138 29.956,40.27 C29.778,40.398 29.572,40.461 29.368,40.461 L29.368,40.461 Z M13.412,39.987 C13.057,39.987 12.713,39.798 12.532,39.464 C12.269,38.979 12.449,38.372 12.935,38.108 C13.452,37.827 14.006,37.652 14.578,37.589 C14.868,37.556 15.171,37.557 15.469,37.597 C16.016,37.669 16.401,38.171 16.329,38.719 C16.257,39.265 15.769,39.649 15.207,39.579 C15.074,39.562 14.935,39.562 14.801,39.577 C14.484,39.611 14.178,39.709 13.888,39.866 C13.736,39.948 13.573,39.987 13.412,39.987 L13.412,39.987 Z M34.846,38.136 C34.384,38.136 33.969,37.814 33.869,37.345 C33.754,36.804 34.098,36.272 34.638,36.158 C35.28,36.021 35.973,35.906 36.695,35.816 C37.248,35.735 37.742,36.137 37.81,36.686 C37.879,37.233 37.489,37.733 36.941,37.801 C36.276,37.884 35.642,37.989 35.056,38.113 C34.985,38.129 34.915,38.136 34.846,38.136 L34.846,38.136 Z M40.807,37.519 C40.273,37.519 39.83,37.098 39.809,36.56 C39.786,36.008 40.215,35.542 40.767,35.52 L42.76,35.438 C43.31,35.388 43.779,35.839 43.805,36.392 C43.83,36.942 43.402,37.41 42.851,37.436 L40.849,37.518 C40.835,37.519 40.82,37.519 40.807,37.519 L40.807,37.519 Z M46.785,37.075 C46.32,37.075 45.904,36.75 45.807,36.277 C45.695,35.736 46.043,35.207 46.584,35.096 C47.162,34.977 47.59,34.81 47.931,34.57 C48.367,34.229 49.032,34.285 49.369,34.72 C49.708,35.156 49.665,35.759 49.229,36.098 C49.175,36.14 49.119,36.181 49.06,36.22 C48.517,36.604 47.832,36.881 46.988,37.055 C46.92,37.068 46.852,37.075 46.785,37.075 L46.785,37.075 Z M50.854,33.046 C50.757,33.046 50.657,33.031 50.559,33.001 C50.031,32.838 49.735,32.277 49.899,31.75 C49.952,31.579 49.985,31.409 49.996,31.244 L50,31.128 C50,30.899 49.956,30.666 49.87,30.434 C49.678,29.916 49.941,29.341 50.46,29.148 C50.974,28.957 51.554,29.22 51.745,29.738 C51.914,30.193 52,30.661 52,31.128 C52,31.212 51.997,31.295 51.992,31.378 C51.97,31.702 51.908,32.024 51.81,32.342 C51.677,32.771 51.281,33.046 50.854,33.046 L50.854,33.046 Z M45.794,28.938 C45.358,28.938 44.957,28.651 44.833,28.21 C44.683,27.679 44.991,27.126 45.523,26.977 C46.303,26.757 47.12,26.69 47.909,26.797 C48.456,26.871 48.84,27.374 48.767,27.922 C48.693,28.469 48.2,28.853 47.642,28.779 C47.12,28.71 46.584,28.756 46.066,28.9 C45.976,28.927 45.885,28.938 45.794,28.938 L45.794,28.938 Z" id="Fill-631" fill="#ECBA16" sketch:type="MSShapeGroup"></path>
                <path d="M41.788,10.171 C41.263,6.172 39.173,0.99 30.966,0.99 C22.758,0.99 20.668,6.172 20.144,10.171 C19.856,12.363 20.017,14.59 20.474,16.753 C22.982,28.646 29.183,35.776 30.651,37.33 C30.823,37.513 31.109,37.513 31.281,37.33 C32.748,35.776 38.949,28.646 41.457,16.753 C41.914,14.59 42.075,12.363 41.788,10.171 L41.788,10.171 Z M30.966,17.912 C27.461,17.912 24.62,15.07 24.62,11.566 C24.62,8.061 27.461,5.22 30.966,5.22 C34.47,5.22 37.311,8.061 37.311,11.566 C37.311,15.07 34.47,17.912 30.966,17.912 L30.966,17.912 Z" id="Fill-1848" fill="#DD342E" sketch:type="MSShapeGroup"></path>
                <path d="M30.966,4.221 C26.915,4.221 23.62,7.516 23.62,11.565 C23.62,15.616 26.915,18.911 30.966,18.911 C35.017,18.911 38.312,15.616 38.312,11.565 C38.312,7.516 35.017,4.221 30.966,4.221 L30.966,4.221 Z M30.966,16.911 C28.019,16.911 25.62,14.513 25.62,11.565 C25.62,8.618 28.019,6.221 30.966,6.221 C33.913,6.221 36.311,8.618 36.311,11.565 C36.311,14.513 33.913,16.911 30.966,16.911 L30.966,16.911 Z" id="Fill-1849" fill="#B12621" sketch:type="MSShapeGroup"></path>
            </g>
        </g>
    </g>
</svg>