<?xml version="1.0" encoding="UTF-8" standalone="no"?>
<svg width="58px" height="58px" viewBox="0 0 58 58" version="1.1" xmlns="http://www.w3.org/2000/svg" xmlns:xlink="http://www.w3.org/1999/xlink" xmlns:sketch="http://www.bohemiancoding.com/sketch/ns">
    <!-- Generator: Sketch 3.2.2 (9983) - http://www.bohemiancoding.com/sketch -->
    <title>239 - Medium Volume (Flat)</title>
    <desc>Created with Sketch.</desc>
    <defs></defs>
    <g id="Page-1" stroke="none" stroke-width="1" fill="none" fill-rule="evenodd" sketch:type="MSPage">
        <g id="239---Medium-Volume-(Flat)" sketch:type="MSLayerGroup">
            <path d="M0,29 C0,45.017 12.984,58 29,58 C45.016,58 58,45.017 58,29 C58,12.984 45.016,0 29,0 C12.984,0 0,12.984 0,29" id="Fill-794" fill="#38454F" sketch:type="MSShapeGroup"></path>
            <path d="M16.427,20 L8.104,20 C6.942,20 6,20.942 6,22.104 L6,34.896 C6,36.058 6.942,37 8.104,37 L16.427,37 C16.802,37 17.17,37.101 17.494,37.291 L30.83,49.707 C32.232,50.531 34,49.52 34,47.893 L34,9.107 C34,7.48 32.232,6.469 30.83,7.294 L17.494,19.709 C17.17,19.9 16.802,20 16.427,20" id="Fill-1914" fill="#7383BF" sketch:type="MSShapeGroup"></path>
            <path d="M41.54,42.042 C41.285,42.042 41.029,41.945 40.833,41.749 C40.443,41.359 40.443,40.726 40.833,40.335 C47.071,34.097 47.071,23.945 40.833,17.707 C40.443,17.317 40.443,16.684 40.833,16.293 C41.224,15.902 41.857,15.902 42.248,16.293 C49.266,23.312 49.266,34.731 42.248,41.749 C42.052,41.945 41.796,42.042 41.54,42.042" id="Fill-1915" fill="#F0CE49" sketch:type="MSShapeGroup"></path>
            <path d="M38,38 C37.744,38 37.488,37.902 37.293,37.707 C36.902,37.316 36.902,36.684 37.293,36.293 C41.59,31.996 41.59,25.004 37.293,20.707 C36.902,20.317 36.902,19.684 37.293,19.293 C37.684,18.902 38.316,18.902 38.707,19.293 C43.784,24.37 43.784,32.63 38.707,37.707 C38.512,37.902 38.256,38 38,38" id="Fill-1916" fill="#F0CE49" sketch:type="MSShapeGroup"></path>
        </g>
    </g>
</svg>