<?xml version="1.0" encoding="UTF-8" standalone="no"?>
<svg width="60px" height="30px" viewBox="0 0 60 30" version="1.1" xmlns="http://www.w3.org/2000/svg" xmlns:xlink="http://www.w3.org/1999/xlink" xmlns:sketch="http://www.bohemiancoding.com/sketch/ns">
    <!-- Generator: Sketch 3.2.2 (9983) - http://www.bohemiancoding.com/sketch -->
    <title>312 - More (Flat)</title>
    <desc>Created with Sketch.</desc>
    <defs></defs>
    <g id="Page-1" stroke="none" stroke-width="1" fill="none" fill-rule="evenodd" sketch:type="MSPage">
        <g id="Icons" sketch:type="MSArtboardGroup" transform="translate(-1080.000000, -1092.000000)">
            <g id="312---More-(Flat)" sketch:type="MSLayerGroup" transform="translate(1081.000000, 1093.000000)">
                <path d="M20,14 C20,15.657 18.657,17 17,17 C15.343,17 14,15.657 14,14 C14,12.343 15.343,11 17,11 C18.657,11 20,12.343 20,14" id="Fill-601" fill="#7383BF" sketch:type="MSShapeGroup"></path>
                <path d="M32,14 C32,15.657 30.657,17 29,17 C27.343,17 26,15.657 26,14 C26,12.343 27.343,11 29,11 C30.657,11 32,12.343 32,14" id="Fill-602" fill="#7383BF" sketch:type="MSShapeGroup"></path>
                <path d="M44,14 C44,15.657 42.657,17 41,17 C39.343,17 38,15.657 38,14 C38,12.343 39.343,11 41,11 C42.657,11 44,12.343 44,14" id="Fill-603" fill="#7383BF" sketch:type="MSShapeGroup"></path>
                <path d="M0,14 L14,0 M0,14 L14,28 M58,14 L44,28 M58,14 L44,0" id="Stroke-605" stroke="#556080" stroke-width="2" stroke-linecap="round" sketch:type="MSShapeGroup"></path>
            </g>
        </g>
    </g>
</svg>