<?xml version="1.0" encoding="UTF-8" standalone="no"?>
<svg width="58px" height="14px" viewBox="0 0 58 14" version="1.1" xmlns="http://www.w3.org/2000/svg" xmlns:xlink="http://www.w3.org/1999/xlink" xmlns:sketch="http://www.bohemiancoding.com/sketch/ns">
    <!-- Generator: Sketch 3.2.2 (9983) - http://www.bohemiancoding.com/sketch -->
    <title>340 - More (Flat)</title>
    <desc>Created with Sketch.</desc>
    <defs></defs>
    <g id="Page-1" stroke="none" stroke-width="1" fill="none" fill-rule="evenodd" sketch:type="MSPage">
        <g id="Icons" sketch:type="MSArtboardGroup" transform="translate(-121.000000, -860.000000)" fill="#7383BF">
            <g id="340---More-(Flat)" sketch:type="MSLayerGroup" transform="translate(121.000000, 860.000000)">
                <path d="M14,7 C14,10.866 10.866,14 7,14 C3.134,14 0,10.866 0,7 C0,3.134 3.134,0 7,0 C10.866,0 14,3.134 14,7" id="Fill-516" sketch:type="MSShapeGroup"></path>
                <path d="M58,7 C58,10.866 54.866,14 51,14 C47.134,14 44,10.866 44,7 C44,3.134 47.134,0 51,0 C54.866,0 58,3.134 58,7" id="Fill-517" sketch:type="MSShapeGroup"></path>
                <path d="M36,7 C36,10.866 32.866,14 29,14 C25.134,14 22,10.866 22,7 C22,3.134 25.134,0 29,0 C32.866,0 36,3.134 36,7" id="Fill-518" sketch:type="MSShapeGroup"></path>
            </g>
        </g>
    </g>
</svg>