<?xml version="1.0" encoding="UTF-8" standalone="no"?>
<svg width="50px" height="55px" viewBox="0 0 50 55" version="1.1" xmlns="http://www.w3.org/2000/svg" xmlns:xlink="http://www.w3.org/1999/xlink" xmlns:sketch="http://www.bohemiancoding.com/sketch/ns">
    <!-- Generator: Sketch 3.2.2 (9983) - http://www.bohemiancoding.com/sketch -->
    <title>268 - Musical Note (Flat)</title>
    <desc>Created with Sketch.</desc>
    <defs></defs>
    <g id="Page-1" stroke="none" stroke-width="1" fill="none" fill-rule="evenodd" sketch:type="MSPage">
        <g id="268---Musical-Note-(Flat)" sketch:type="MSLayerGroup" fill="#EA6148">
            <path d="M49.66,0.249 C49.444,0.06 49.159,-0.026 48.872,0.008 L17.872,4.019 C17.373,4.084 17,4.508 17,5.011 L17,41.274 C15.262,39.285 12.553,38 9.5,38 C4.253,38 0,41.781 0,46.445 C0,51.108 4.253,54.889 9.5,54.889 C14.747,54.889 19,51.108 19,46.445 C19,46.112 18.973,45.786 18.931,45.464 C18.97,45.356 19,45.243 19,45.121 L19,16.119 L48,12.366 L48,31.274 C46.262,29.285 43.553,28 40.5,28 C35.253,28 31,31.781 31,36.445 C31,41.108 35.253,44.889 40.5,44.889 C45.747,44.889 50,41.108 50,36.445 C50,36.353 49.988,36.264 49.985,36.173 C49.987,36.146 50,36.123 50,36.096 L50,1 C50,0.713 49.876,0.438 49.66,0.249" id="Fill-704" sketch:type="MSShapeGroup"></path>
        </g>
    </g>
</svg>