<?xml version="1.0" encoding="UTF-8" standalone="no"?>
<svg width="47px" height="57px" viewBox="0 0 47 57" version="1.1" xmlns="http://www.w3.org/2000/svg" xmlns:xlink="http://www.w3.org/1999/xlink" xmlns:sketch="http://www.bohemiancoding.com/sketch/ns">
    <!-- Generator: Sketch 3.2.2 (9983) - http://www.bohemiancoding.com/sketch -->
    <title>317 - Mute (Flat)</title>
    <desc>Created with Sketch.</desc>
    <defs></defs>
    <g id="Page-1" stroke="none" stroke-width="1" fill="none" fill-rule="evenodd" sketch:type="MSPage">
        <g id="Icons" sketch:type="MSArtboardGroup" transform="translate(-487.000000, -1079.000000)">
            <g id="317---Mute-(Flat)" sketch:type="MSLayerGroup" transform="translate(488.000000, 1079.000000)">
                <path d="M38,28 L38,34 C38,42.271 31.271,49 23,49 C14.728,49 8,42.271 8,34 L8,28" id="Path" stroke="#556080" stroke-width="2" stroke-linecap="round" sketch:type="MSShapeGroup"></path>
                <path d="M23,49 L23,56" id="Path" stroke="#556080" stroke-width="2" stroke-linecap="round" sketch:type="MSShapeGroup"></path>
                <path d="M29,56 L17,56" id="Path" stroke="#556080" stroke-width="2" stroke-linecap="round" sketch:type="MSShapeGroup"></path>
                <path d="M23,44 L23,44 C17.5,44 13,39.5 13,34 L13,10 C13,4.5 17.5,0 23,0 C28.5,0 33,4.5 33,10 L33,34 C33,39.5 28.5,44 23,44" id="Fill-2509" fill="#C7CBC7" sketch:type="MSShapeGroup"></path>
                <path d="M33,34 L33,10 C33,4.5 28.5,0 23,0 L23,44 C28.5,44 33,39.5 33,34" id="Fill-2510" fill="#B0B6BB" sketch:type="MSShapeGroup"></path>
                <path d="M0,49 L45,4" id="Stroke-2511" stroke="#D75A4A" stroke-width="2" stroke-linecap="round" sketch:type="MSShapeGroup"></path>
            </g>
        </g>
    </g>
</svg>