<?xml version="1.0" encoding="UTF-8" standalone="no"?>
<svg width="53px" height="56px" viewBox="0 0 53 56" version="1.1" xmlns="http://www.w3.org/2000/svg" xmlns:xlink="http://www.w3.org/1999/xlink" xmlns:sketch="http://www.bohemiancoding.com/sketch/ns">
    <!-- Generator: Sketch 3.2.2 (9983) - http://www.bohemiancoding.com/sketch -->
    <title>28 - Notebook (Flat)</title>
    <desc>Created with Sketch.</desc>
    <defs></defs>
    <g id="Page-1" stroke="none" stroke-width="1" fill="none" fill-rule="evenodd" sketch:type="MSPage">
        <g id="Icons" sketch:type="MSArtboardGroup" transform="translate(-361.000000, -4559.000000)">
            <g id="28---Notebook-(Flat)" sketch:type="MSLayerGroup" transform="translate(361.000000, 4559.000000)">
                <path d="M50.003,56 L16,56 L16,0.004 L50.003,0.004 C51.658,0.004 53,1.345 53,3 L53,53.003 C53,54.658 51.658,56 50.003,56" id="Fill-1711" fill="#6B4841" sketch:type="MSShapeGroup"></path>
                <path d="M42,0.004 L47,0.004 L47,56 L42,56 L42,0.004 Z" id="Fill-1712" fill="#BFA380" sketch:type="MSShapeGroup"></path>
                <path d="M5,0 L16,0 L16,56 L5,56 L5,0 Z" id="Fill-3102" fill="#BE6E41" sketch:type="MSShapeGroup"></path>
                <path d="M9,43 C10.105,43 11,43.896 11,45 C11,46.105 10.105,47 9,47 C7.895,47 7,46.105 7,45 C7,43.896 7.895,43 9,43" id="Fill-3103" fill="#6B4841" sketch:type="MSShapeGroup"></path>
                <path d="M9,37 C10.105,37 11,37.896 11,39 C11,40.105 10.105,41 9,41 C7.895,41 7,40.105 7,39 C7,37.896 7.895,37 9,37" id="Fill-3104" fill="#6B4841" sketch:type="MSShapeGroup"></path>
                <path d="M9,31 C10.105,31 11,31.896 11,33 C11,34.105 10.105,35 9,35 C7.895,35 7,34.105 7,33 C7,31.896 7.895,31 9,31" id="Fill-3105" fill="#6B4841" sketch:type="MSShapeGroup"></path>
                <path d="M9,25 C10.105,25 11,25.896 11,27 C11,28.105 10.105,29 9,29 C7.895,29 7,28.105 7,27 C7,25.896 7.895,25 9,25" id="Fill-3106" fill="#6B4841" sketch:type="MSShapeGroup"></path>
                <path d="M0,27 C0,28.13 0.391,29.162 1.025,30 C1.43,29.466 1.937,29.022 2.52,28.685 C2.192,28.204 2,27.625 2,27 C2,25.346 3.346,24 5,24 C6.654,24 8,25.346 8,27 C8,27.553 8.447,28 9,28 C9.553,28 10,27.553 10,27 C10,24.243 7.757,22 5,22 C2.243,22 0,24.243 0,27" id="Fill-3107" fill="#D8A852" sketch:type="MSShapeGroup"></path>
                <path d="M2.52,31.316 C3.254,31.739 4.093,32 5,32 L5,30 C3.97,30 3.06,30.523 2.52,31.316" id="Fill-3108" fill="#A37F46" sketch:type="MSShapeGroup"></path>
                <path d="M2.52,37.316 C3.254,37.739 4.093,38 5,38 L5,36 C3.97,36 3.06,36.523 2.52,37.316" id="Fill-3109" fill="#A37F46" sketch:type="MSShapeGroup"></path>
                <path d="M2.52,28.685 C1.937,29.022 1.43,29.466 1.025,30 C0.391,30.839 0,31.87 0,33 C0,34.13 0.391,35.162 1.025,36 C1.43,35.466 1.937,35.022 2.52,34.685 C2.192,34.204 2,33.625 2,33 C2,32.376 2.192,31.796 2.52,31.316 C3.06,30.523 3.97,30 5,30 C6.654,30 8,31.346 8,33 C8,33.553 8.447,34 9,34 C9.553,34 10,33.553 10,33 C10,30.243 7.757,28 5,28 C4.093,28 3.254,28.261 2.52,28.685" id="Fill-3110" fill="#D8A852" sketch:type="MSShapeGroup"></path>
                <path d="M2.52,43.316 C3.254,43.739 4.093,44 5,44 L5,42 C3.97,42 3.06,42.523 2.52,43.316" id="Fill-3111" fill="#A37F46" sketch:type="MSShapeGroup"></path>
                <path d="M2.52,34.685 C1.937,35.022 1.43,35.466 1.025,36 C0.391,36.839 0,37.87 0,39 C0,40.13 0.391,41.162 1.025,42 C1.43,41.466 1.937,41.022 2.52,40.685 C2.192,40.204 2,39.625 2,39 C2,38.376 2.192,37.796 2.52,37.316 C3.06,36.523 3.97,36 5,36 C6.654,36 8,37.346 8,39 C8,39.553 8.447,40 9,40 C9.553,40 10,39.553 10,39 C10,36.243 7.757,34 5,34 C4.093,34 3.254,34.261 2.52,34.685" id="Fill-3112" fill="#D8A852" sketch:type="MSShapeGroup"></path>
                <path d="M9,19 C10.105,19 11,19.896 11,21 C11,22.105 10.105,23 9,23 C7.895,23 7,22.105 7,21 C7,19.896 7.895,19 9,19" id="Fill-3113" fill="#6B4841" sketch:type="MSShapeGroup"></path>
                <path d="M9,13 C10.105,13 11,13.896 11,15 C11,16.105 10.105,17 9,17 C7.895,17 7,16.105 7,15 C7,13.896 7.895,13 9,13" id="Fill-3114" fill="#6B4841" sketch:type="MSShapeGroup"></path>
                <path d="M9,7 C10.105,7 11,7.896 11,9 C11,10.105 10.105,11 9,11 C7.895,11 7,10.105 7,9 C7,7.896 7.895,7 9,7" id="Fill-3115" fill="#6B4841" sketch:type="MSShapeGroup"></path>
                <path d="M0,9 C0,10.13 0.391,11.162 1.025,12 C1.43,11.466 1.937,11.022 2.52,10.685 C2.192,10.204 2,9.625 2,9 C2,7.346 3.346,6 5,6 C6.654,6 8,7.346 8,9 C8,9.553 8.447,10 9,10 C9.553,10 10,9.553 10,9 C10,6.243 7.757,4 5,4 C2.243,4 0,6.243 0,9" id="Fill-3116" fill="#D8A852" sketch:type="MSShapeGroup"></path>
                <path d="M2.52,13.316 C3.254,13.739 4.093,14 5,14 L5,12 C3.97,12 3.06,12.523 2.52,13.316" id="Fill-3117" fill="#A37F46" sketch:type="MSShapeGroup"></path>
                <path d="M2.52,19.316 C3.254,19.739 4.093,20 5,20 L5,18 C3.97,18 3.06,18.523 2.52,19.316" id="Fill-3118" fill="#A37F46" sketch:type="MSShapeGroup"></path>
                <path d="M2.52,10.685 C1.937,11.022 1.43,11.466 1.025,12 C0.391,12.839 0,13.87 0,15 C0,16.13 0.391,17.162 1.025,18 C1.43,17.466 1.937,17.022 2.52,16.685 C2.192,16.204 2,15.625 2,15 C2,14.376 2.192,13.796 2.52,13.316 C3.06,12.523 3.97,12 5,12 C6.654,12 8,13.346 8,15 C8,15.553 8.447,16 9,16 C9.553,16 10,15.553 10,15 C10,12.243 7.757,10 5,10 C4.093,10 3.254,10.261 2.52,10.685" id="Fill-3119" fill="#D8A852" sketch:type="MSShapeGroup"></path>
                <path d="M2.52,25.316 C3.254,25.739 4.093,26 5,26 L5,24 C3.97,24 3.06,24.523 2.52,25.316" id="Fill-3120" fill="#A37F46" sketch:type="MSShapeGroup"></path>
                <path d="M2.52,16.685 C1.937,17.022 1.43,17.466 1.025,18 C0.391,18.839 0,19.87 0,21 C0,22.13 0.391,23.162 1.025,24 C1.43,23.466 1.937,23.022 2.52,22.685 C2.192,22.204 2,21.625 2,21 C2,20.376 2.192,19.796 2.52,19.316 C3.06,18.523 3.97,18 5,18 C6.654,18 8,19.346 8,21 C8,21.553 8.447,22 9,22 C9.553,22 10,21.553 10,21 C10,18.243 7.757,16 5,16 C4.093,16 3.254,16.261 2.52,16.685" id="Fill-3121" fill="#D8A852" sketch:type="MSShapeGroup"></path>
                <path d="M2.52,40.685 C1.937,41.022 1.43,41.466 1.025,42 C0.391,42.839 0,43.87 0,45 C0,47.757 2.243,50 5,50 L5,48 C3.346,48 2,46.654 2,45 C2,44.376 2.192,43.796 2.52,43.316 C3.06,42.523 3.97,42 5,42 C6.654,42 8,43.346 8,45 C8,45.553 8.447,46 9,46 C9.553,46 10,45.553 10,45 C10,42.243 7.757,40 5,40 C4.093,40 3.254,40.261 2.52,40.685" id="Fill-3122" fill="#D8A852" sketch:type="MSShapeGroup"></path>
            </g>
        </g>
    </g>
</svg>