<?xml version="1.0" encoding="UTF-8" standalone="no"?>
<svg width="53px" height="54px" viewBox="0 0 53 54" version="1.1" xmlns="http://www.w3.org/2000/svg" xmlns:xlink="http://www.w3.org/1999/xlink" xmlns:sketch="http://www.bohemiancoding.com/sketch/ns">
    <!-- Generator: Sketch 3.2.2 (9983) - http://www.bohemiancoding.com/sketch -->
    <title>342 - Notification (Flat)</title>
    <desc>Created with Sketch.</desc>
    <defs></defs>
    <g id="Page-1" stroke="none" stroke-width="1" fill="none" fill-rule="evenodd" sketch:type="MSPage">
        <g id="Icons" sketch:type="MSArtboardGroup" transform="translate(-1087.000000, -717.000000)">
            <g id="342---Notification-(Flat)" sketch:type="MSLayerGroup" transform="translate(1087.000000, 718.000000)">
                <path d="M43,18 C38.029,18 34,13.971 34,9 C34,8.312 34.084,7.645 34.231,7 L4.235,7 C1.896,7 0,8.896 0,11.235 L0,48.765 C0,51.104 1.896,53 4.235,53 L41.765,53 C44.104,53 46,51.104 46,48.765 L46,17.477 C45.06,17.81 44.054,18 43,18" id="Fill-278" fill="#42B05C" sketch:type="MSShapeGroup"></path>
                <path d="M52,9 C52,13.971 47.971,18 43,18 C38.029,18 34,13.971 34,9 C34,4.03 38.029,0 43,0 C47.971,0 52,4.03 52,9 L52,9 Z" id="Fill-505" fill="#DD342E" sketch:type="MSShapeGroup"></path>
                <path d="M52,9 C52,13.971 47.971,18 43,18 C38.029,18 34,13.971 34,9 C34,4.03 38.029,0 43,0 C47.971,0 52,4.03 52,9 L52,9 Z" id="Stroke-506" stroke="#FFFFFF" stroke-width="2" stroke-linecap="round" sketch:type="MSShapeGroup"></path>
            </g>
        </g>
    </g>
</svg>