<?xml version="1.0" encoding="UTF-8" standalone="no"?>
<svg width="58px" height="26px" viewBox="0 0 58 26" version="1.1" xmlns="http://www.w3.org/2000/svg" xmlns:xlink="http://www.w3.org/1999/xlink" xmlns:sketch="http://www.bohemiancoding.com/sketch/ns">
    <!-- Generator: Sketch 3.2.2 (9983) - http://www.bohemiancoding.com/sketch -->
    <title>330 - OFF Trigger (Flat)</title>
    <desc>Created with Sketch.</desc>
    <defs></defs>
    <g id="Page-1" stroke="none" stroke-width="1" fill="none" fill-rule="evenodd" sketch:type="MSPage">
        <g id="Icons" sketch:type="MSArtboardGroup" transform="translate(-121.000000, -974.000000)">
            <g id="330---OFF-Trigger-(Flat)" sketch:type="MSLayerGroup" transform="translate(121.000000, 974.000000)">
                <path d="M52,7 L24.526,7 C25.463,8.796 26,10.834 26,13 C26,15.166 25.463,17.204 24.526,19 L52,19 C55.314,19 58,16.314 58,13 C58,9.687 55.314,7 52,7" id="Fill-1235" fill="#839494" sketch:type="MSShapeGroup"></path>
                <path d="M26,13 C26,20.18 20.18,26 13,26 C5.82,26 0,20.18 0,13 C0,5.82 5.82,0 13,0 C20.18,0 26,5.82 26,13" id="Fill-2502" fill="#C7CBC7" sketch:type="MSShapeGroup"></path>
            </g>
        </g>
    </g>
</svg>