<?xml version="1.0" encoding="UTF-8" standalone="no"?>
<svg width="58px" height="58px" viewBox="0 0 58 58" version="1.1" xmlns="http://www.w3.org/2000/svg" xmlns:xlink="http://www.w3.org/1999/xlink" xmlns:sketch="http://www.bohemiancoding.com/sketch/ns">
    <!-- Generator: Sketch 3.2.2 (9983) - http://www.bohemiancoding.com/sketch -->
    <title>324 - ON OFF Switch (Flat)</title>
    <desc>Created with Sketch.</desc>
    <defs></defs>
    <g id="Page-1" stroke="none" stroke-width="1" fill="none" fill-rule="evenodd" sketch:type="MSPage">
        <g id="Icons" sketch:type="MSArtboardGroup" transform="translate(-841.000000, -958.000000)">
            <g id="324---ON-OFF-Switch-(Flat)" sketch:type="MSLayerGroup" transform="translate(841.000000, 958.000000)">
                <path d="M45,26 L13,26 C5.85,26 0,20.15 0,13 C0,5.85 5.85,0 13,0 L45,0 C52.15,0 58,5.85 58,13 C58,20.15 52.15,26 45,26" id="Fill-526" fill="#E8EDEE" sketch:type="MSShapeGroup"></path>
                <path d="M13,58 L45,58 C52.15,58 58,52.15 58,45 C58,37.85 52.15,32 45,32 L13,32 C5.85,32 0,37.85 0,45 C0,52.15 5.85,58 13,58" id="Fill-527" fill="#E8EDEE" sketch:type="MSShapeGroup"></path>
                <path d="M54,13 C54,17.971 49.971,22 45,22 C40.029,22 36,17.971 36,13 C36,8.029 40.029,4 45,4 C49.971,4 54,8.029 54,13 L54,13 Z" id="Fill-528" fill="#88C057" sketch:type="MSShapeGroup"></path>
                <path d="M54,13 C54,17.971 49.971,22 45,22 C40.029,22 36,17.971 36,13 C36,8.029 40.029,4 45,4 C49.971,4 54,8.029 54,13 L54,13 Z" id="Stroke-529" stroke="#659C35" stroke-width="2" stroke-linecap="round" sketch:type="MSShapeGroup"></path>
                <path d="M4,45 C4,49.971 8.029,54 13,54 C17.971,54 22,49.971 22,45 C22,40.03 17.971,36 13,36 C8.029,36 4,40.03 4,45 L4,45 Z" id="Fill-530" fill="#ED7161" sketch:type="MSShapeGroup"></path>
                <path d="M4,45 C4,49.971 8.029,54 13,54 C17.971,54 22,49.971 22,45 C22,40.03 17.971,36 13,36 C8.029,36 4,40.03 4,45 L4,45 Z" id="Stroke-531" stroke="#D75A4A" stroke-width="2" stroke-linecap="round" sketch:type="MSShapeGroup"></path>
            </g>
        </g>
    </g>
</svg>