<?xml version="1.0" encoding="UTF-8" standalone="no"?>
<svg width="58px" height="58px" viewBox="0 0 58 58" version="1.1" xmlns="http://www.w3.org/2000/svg" xmlns:xlink="http://www.w3.org/1999/xlink" xmlns:sketch="http://www.bohemiancoding.com/sketch/ns">
    <!-- Generator: Sketch 3.2.2 (9983) - http://www.bohemiancoding.com/sketch -->
    <title>246 - Pause (Flat)</title>
    <desc>Created with Sketch.</desc>
    <defs></defs>
    <g id="Page-1" stroke="none" stroke-width="1" fill="none" fill-rule="evenodd" sketch:type="MSPage">
        <g id="246---Pause-(Flat)" sketch:type="MSLayerGroup">
            <path d="M58,29 C58,45.017 45.016,58 29,58 C12.984,58 0,45.017 0,29 C0,12.984 12.984,0 29,0 C45.016,0 58,12.984 58,29" id="Fill-760" fill="#C7CBC7" sketch:type="MSShapeGroup"></path>
            <path d="M33,14 L39,14 L39,44 L33,44 L33,14 Z" id="Fill-1899" fill="#FFFFFF" sketch:type="MSShapeGroup"></path>
            <path d="M32,13 L40,13 L40,45 L32,45 L32,13 Z M34,43 L38,43 L38,15 L34,15 L34,43 Z" id="Fill-1900" fill="#FFFFFF" sketch:type="MSShapeGroup"></path>
            <path d="M19,14 L25,14 L25,44 L19,44 L19,14 Z" id="Fill-1901" fill="#FFFFFF" sketch:type="MSShapeGroup"></path>
            <path d="M18,13 L26,13 L26,45 L18,45 L18,13 Z M20,43 L24,43 L24,15 L20,15 L20,43 Z" id="Fill-1902" fill="#FFFFFF" sketch:type="MSShapeGroup"></path>
        </g>
    </g>
</svg>