<?xml version="1.0" encoding="UTF-8" standalone="no"?>
<svg width="58px" height="58px" viewBox="0 0 58 58" version="1.1" xmlns="http://www.w3.org/2000/svg" xmlns:xlink="http://www.w3.org/1999/xlink" xmlns:sketch="http://www.bohemiancoding.com/sketch/ns">
    <!-- Generator: Sketch 3.2.2 (9983) - http://www.bohemiancoding.com/sketch -->
    <title>201 - Percent (Flat)</title>
    <desc>Created with Sketch.</desc>
    <defs></defs>
    <g id="Page-1" stroke="none" stroke-width="1" fill="none" fill-rule="evenodd" sketch:type="MSPage">
        <g id="201---Percent-(Flat)" sketch:type="MSLayerGroup">
            <path d="M0,0 L58,0 L58,58 L0,58 L0,0 Z" id="Fill-820" fill="#E8EDEE" sketch:type="MSShapeGroup"></path>
            <path d="M11,47 L47,11 L11,47 Z" id="Path" stroke="#424A60" stroke-width="2" sketch:type="MSShapeGroup"></path>
            <path d="M21,16 C21,18.761 18.761,21 16,21 C13.239,21 11,18.761 11,16 C11,13.239 13.239,11 16,11 C18.761,11 21,13.239 21,16 L21,16 Z" id="Path" stroke="#424A60" stroke-width="2" sketch:type="MSShapeGroup"></path>
            <path d="M47,42 C47,44.762 44.761,47 42,47 C39.239,47 37,44.762 37,42 C37,39.239 39.239,37 42,37 C44.761,37 47,39.239 47,42 L47,42 Z" id="Path" stroke="#424A60" stroke-width="2" sketch:type="MSShapeGroup"></path>
        </g>
    </g>
</svg>