<?xml version="1.0" encoding="UTF-8" standalone="no"?>
<svg width="58px" height="46px" viewBox="0 0 58 46" version="1.1" xmlns="http://www.w3.org/2000/svg" xmlns:xlink="http://www.w3.org/1999/xlink" xmlns:sketch="http://www.bohemiancoding.com/sketch/ns">
    <!-- Generator: Sketch 3.2.2 (9983) - http://www.bohemiancoding.com/sketch -->
    <title>278 - Picture (Flat)</title>
    <desc>Created with Sketch.</desc>
    <defs></defs>
    <g id="Page-1" stroke="none" stroke-width="1" fill="none" fill-rule="evenodd" sketch:type="MSPage">
        <g id="Icons" sketch:type="MSArtboardGroup" transform="translate(-361.000000, -1565.000000)">
            <g id="278---Picture-(Flat)" sketch:type="MSLayerGroup" transform="translate(362.000000, 1566.000000)">
                <path d="M0,0 L56,0 L56,44 L0,44 L0,0 Z" id="Fill-663" fill="#C3E1ED" sketch:type="MSShapeGroup"></path>
                <path d="M0,0 L56,0 L56,44 L0,44 L0,0 Z" id="Stroke-664" stroke="#E8EDEE" stroke-width="2" sketch:type="MSShapeGroup"></path>
                <path d="M21.569,10.569 C21.569,14.197 18.628,17.138 15,17.138 C11.372,17.138 8.431,14.197 8.431,10.569 C8.431,6.941 11.372,4 15,4 C18.628,4 21.569,6.941 21.569,10.569" id="Fill-2563" fill="#ED8A19" sketch:type="MSShapeGroup"></path>
                <path d="M55,29.111 L54,28 L42,17 L31.5,28.5 L41,38 L55,38 L55,29.111" id="Fill-2564" fill="#199172" sketch:type="MSShapeGroup"></path>
                <path d="M1,42 L25,42 L10.017,27.017 L1,34.957 L1,42" id="Fill-2568" fill="#199172" sketch:type="MSShapeGroup"></path>
                <path d="M1,38 L55,38 L55,43 L1,43 L1,38 Z" id="Fill-2569" fill="#6B5B4B" sketch:type="MSShapeGroup"></path>
                <path d="M36.983,33.983 L26.017,23.017 L9,38 L41,38 L36.983,33.983" id="Fill-2570" fill="#25AE88" sketch:type="MSShapeGroup"></path>
            </g>
        </g>
    </g>
</svg>