<?xml version="1.0" encoding="UTF-8" standalone="no"?>
<svg width="51px" height="51px" viewBox="0 0 51 51" version="1.1" xmlns="http://www.w3.org/2000/svg" xmlns:xlink="http://www.w3.org/1999/xlink" xmlns:sketch="http://www.bohemiancoding.com/sketch/ns">
    <!-- Generator: Sketch 3.2.2 (9983) - http://www.bohemiancoding.com/sketch -->
    <title>101 - Pin (Flat)</title>
    <desc>Created with Sketch.</desc>
    <defs></defs>
    <g id="Page-1" stroke="none" stroke-width="1" fill="none" fill-rule="evenodd" sketch:type="MSPage">
        <g id="101---Pin-(Flat)" sketch:type="MSLayerGroup">
            <path d="M35.723,35.734 L50,50.012" id="Stroke-171" stroke="#E0E2E3" stroke-width="2" stroke-linecap="round" stroke-linejoin="round" sketch:type="MSShapeGroup"></path>
            <path d="M34.994,36.463 L20.446,51.012 C16.862,42.009 20.981,32.862 20.981,32.862 L7.521,17.039 C7.521,17.039 3.136,17.743 0,15.254 L15.254,0 C15.254,0 17.762,3.116 17.021,7.608 L32.807,21.037 C32.807,21.037 41.3,16.652 50.957,20.5 L34.994,36.463" id="Fill-1363" fill="#F0CE49" sketch:type="MSShapeGroup"></path>
            <path d="M20.981,32.862 C20.981,32.862 20.945,32.946 20.895,33.066 L33.031,20.93 C32.899,20.992 32.807,21.037 32.807,21.037 L17.073,7.651 L7.597,17.128 L20.981,32.862" id="Fill-3011" fill="#ECBA16" sketch:type="MSShapeGroup"></path>
        </g>
    </g>
</svg>