<?xml version="1.0" encoding="UTF-8" standalone="no"?>
<svg width="56px" height="54px" viewBox="0 0 56 54" version="1.1" xmlns="http://www.w3.org/2000/svg" xmlns:xlink="http://www.w3.org/1999/xlink" xmlns:sketch="http://www.bohemiancoding.com/sketch/ns">
    <!-- Generator: Sketch 3.2.2 (9983) - http://www.bohemiancoding.com/sketch -->
    <title>2 - Price Tag (Flat)</title>
    <desc>Created with Sketch.</desc>
    <defs></defs>
    <g id="Page-1" stroke="none" stroke-width="1" fill="none" fill-rule="evenodd" sketch:type="MSPage">
        <g id="2---Price-Tag-(Flat)" sketch:type="MSLayerGroup">
            <path d="M44.472,0 L31.294,0 L6.848,24.367 L30.582,48.153 L55,23.815 L55,10.504 L44.472,0 L44.472,0 Z M43.015,14.87 C41.394,14.87 40.08,13.556 40.08,11.935 C40.08,10.314 41.394,9 43.015,9 C44.636,9 45.95,10.314 45.95,11.935 C45.95,13.556 44.636,14.87 43.015,14.87 L43.015,14.87 Z" id="Fill-1934" fill="#E3CDA4" sketch:type="MSShapeGroup"></path>
            <path d="M6.877,24.354 L1,30.215 L24.734,54 L30.637,48.113 L6.877,24.354" id="Fill-3176" fill="#CBB895" sketch:type="MSShapeGroup"></path>
            <path d="M43.015,9 C44.636,9 45.95,10.314 45.95,11.935 C45.95,13.556 44.636,14.87 43.015,14.87 C41.394,14.87 40.08,13.556 40.08,11.935 C40.08,10.314 41.394,9 43.015,9 M43.015,5 C39.191,5 36.08,8.111 36.08,11.935 C36.08,15.759 39.191,18.87 43.015,18.87 C46.839,18.87 49.95,15.759 49.95,11.935 C49.95,8.111 46.839,5 43.015,5" id="Fill-3177" fill="#BFA380" sketch:type="MSShapeGroup"></path>
            <path d="M53.866,25.5 C53.796,25.379 53.705,25.28 53.6,25.201 L52.188,26.599 C52.714,27.583 56.408,35.177 49.293,42.293 C46.552,45.032 40.165,46.188 35.381,43.465 C30.569,40.727 29.003,34.968 30.969,27.247 C31.105,26.712 30.782,26.167 30.247,26.031 C29.71,25.889 29.168,26.218 29.031,26.753 C26.051,38.456 31.11,43.336 34.392,45.203 C36.534,46.422 39.087,47.012 41.606,47.011 C45.107,47.011 48.541,45.873 50.707,43.707 C59.275,35.139 53.921,25.596 53.866,25.5" id="Fill-3178" fill="#D75A4A" sketch:type="MSShapeGroup"></path>
            <path d="M43.764,14.762 C44.462,14.577 45.062,14.151 45.454,13.567 L42.6,11.2 C22.251,-4.062 0.636,11.032 0.419,11.187 C-0.03,11.507 -0.135,12.132 0.187,12.581 C0.508,13.031 1.133,13.135 1.581,12.814 C1.784,12.669 22.208,-1.596 41.361,12.77 L43.764,14.762" id="Fill-3179" fill="#D75A4A" sketch:type="MSShapeGroup"></path>
        </g>
    </g>
</svg>