<?xml version="1.0" encoding="UTF-8" standalone="no"?>
<svg width="58px" height="58px" viewBox="0 0 58 58" version="1.1" xmlns="http://www.w3.org/2000/svg" xmlns:xlink="http://www.w3.org/1999/xlink" xmlns:sketch="http://www.bohemiancoding.com/sketch/ns">
    <!-- Generator: Sketch 3.2.2 (9983) - http://www.bohemiancoding.com/sketch -->
    <title>81 - Print (Flat)</title>
    <desc>Created with Sketch.</desc>
    <defs></defs>
    <g id="Page-1" stroke="none" stroke-width="1" fill="none" fill-rule="evenodd" sketch:type="MSPage">
        <g id="Icons" sketch:type="MSArtboardGroup" transform="translate(-1201.000000, -3838.000000)">
            <g id="81---Print-(Flat)" sketch:type="MSLayerGroup" transform="translate(1201.000000, 3838.000000)">
                <path d="M49,35 L49,52 L52,52 L52,49 L58,49 L58,17 L0,17 L0,49 L6,49 L6,52 L9,52 L9,35 L49,35" id="Fill-92" fill="#C7CBC7" sketch:type="MSShapeGroup"></path>
                <path d="M0,35 L58,35 L58,17 L0,17 L0,35 Z" id="Fill-93" fill="#556080" sketch:type="MSShapeGroup"></path>
                <path d="M6,35 L52,35 L52,52 L6,52 L6,35 Z" id="Fill-94" fill="#7383BF" sketch:type="MSShapeGroup"></path>
                <path d="M9,0 L49,0 L49,17 L9,17 L9,0 Z" id="Fill-1380" fill="#EDEBDA" sketch:type="MSShapeGroup"></path>
                <path d="M9,35 L49,35 L49,58 L9,58 L9,35 Z" id="Fill-1381" fill="#EDEBDA" sketch:type="MSShapeGroup"></path>
                <path d="M41,44 L17,44 C16.447,44 16,43.553 16,43 C16,42.447 16.447,42 17,42 L41,42 C41.553,42 42,42.447 42,43 C42,43.553 41.553,44 41,44" id="Fill-1382" fill="#CEC9AE" sketch:type="MSShapeGroup"></path>
                <path d="M41,49 L17,49 C16.447,49 16,48.553 16,48 C16,47.448 16.447,47 17,47 L41,47 C41.553,47 42,47.448 42,48 C42,48.553 41.553,49 41,49" id="Fill-1383" fill="#CEC9AE" sketch:type="MSShapeGroup"></path>
                <path d="M53,26 C53,28.209 51.209,30 49,30 C46.791,30 45,28.209 45,26 C45,23.791 46.791,22 49,22 C51.209,22 53,23.791 53,26" id="Fill-2114" fill="#A4E869" sketch:type="MSShapeGroup"></path>
            </g>
        </g>
    </g>
</svg>