<?xml version="1.0" encoding="UTF-8" standalone="no"?>
<svg width="58px" height="58px" viewBox="0 0 58 58" version="1.1" xmlns="http://www.w3.org/2000/svg" xmlns:xlink="http://www.w3.org/1999/xlink" xmlns:sketch="http://www.bohemiancoding.com/sketch/ns">
    <!-- Generator: Sketch 3.2.2 (9983) - http://www.bohemiancoding.com/sketch -->
    <title>291 - Profile (Flat)</title>
    <desc>Created with Sketch.</desc>
    <defs></defs>
    <g id="Page-1" stroke="none" stroke-width="1" fill="none" fill-rule="evenodd" sketch:type="MSPage">
        <g id="Icons" sketch:type="MSArtboardGroup" transform="translate(-1201.000000, -1318.000000)">
            <g id="291---Profile-(Flat)" sketch:type="MSLayerGroup" transform="translate(1201.000000, 1318.000000)">
                <path d="M58,29 C58,45.017 45.016,58 29,58 C12.984,58 0,45.017 0,29 C0,12.984 12.984,0 29,0 C45.016,0 58,12.984 58,29" id="Fill-266" fill="#88C057" sketch:type="MSShapeGroup"></path>
                <path d="M52.932,45.376 C52.275,38.985 46.875,34 40.311,34 L34.365,34 C33.611,34 33,33.389 33,32.635 L33,31.99 C33,31.407 33.379,30.908 33.925,30.703 C39.729,28.521 43.703,18.999 42.896,12.27 C42.134,5.919 36.97,0.801 30.614,0.091 C30.097,0.033 29.585,0.005 29.079,0.002 C29.063,0.002 29.047,0.001 29.031,0.001 C21.285,-0.016 15,6.258 15,14 C15,20.024 18.807,28.755 24.145,30.729 C24.668,30.922 25,31.442 25,32 L25,32.635 C25,33.389 24.389,34 23.635,34 L17.689,34 C11.125,34 5.725,38.985 5.068,45.376 C10.293,52.998 19.061,58 29,58 C38.939,58 47.707,52.998 52.932,45.376" id="Fill-267" fill="#FCCF9D" sketch:type="MSShapeGroup"></path>
                <path d="M33.492,6.61 C37.207,7.632 40.705,9.917 42.945,12.933 C42.929,12.711 42.922,12.485 42.896,12.27 C42.134,5.919 36.97,0.801 30.614,0.09 C30.097,0.033 29.585,0.005 29.079,0.002 C29.063,0.002 29.047,0.001 29.031,0.001 C22.111,-0.014 16.371,4.996 15.223,11.583 L15.228,11.583 C15.406,11.835 15.581,12.09 15.773,12.333 C15.843,12.246 15.913,12.16 15.985,12.075 C17.986,9.695 21.326,9.144 24.168,10.403 C25.034,10.787 25.992,11 27,11 C29.942,11 32.457,9.183 33.492,6.61" id="Fill-268" fill="#C6411E" sketch:type="MSShapeGroup"></path>
                <path d="M18,34 L22,34 L22,42 L18,42 L18,34 Z" id="Fill-1857" fill="#424A60" sketch:type="MSShapeGroup"></path>
                <path d="M36,34 L40,34 L40,42 L36,42 L36,34 Z" id="Fill-1858" fill="#424A60" sketch:type="MSShapeGroup"></path>
                <path d="M14,50.383 L14,53.823 C18.377,56.474 23.51,58 29,58 C34.49,58 39.623,56.474 44,53.823 L44,42 L14,42 L14,50.383" id="Fill-2529" fill="#556080" sketch:type="MSShapeGroup"></path>
            </g>
        </g>
    </g>
</svg>