<?xml version="1.0" encoding="UTF-8" standalone="no"?>
<svg width="55px" height="49px" viewBox="0 0 55 49" version="1.1" xmlns="http://www.w3.org/2000/svg" xmlns:xlink="http://www.w3.org/1999/xlink" xmlns:sketch="http://www.bohemiancoding.com/sketch/ns">
    <!-- Generator: Sketch 3.2.2 (9983) - http://www.bohemiancoding.com/sketch -->
    <title>183 - Megaphone (Flat)</title>
    <desc>Created with Sketch.</desc>
    <defs></defs>
    <g id="Page-1" stroke="none" stroke-width="1" fill="none" fill-rule="evenodd" sketch:type="MSPage">
        <g id="183---Megaphone-(Flat)" sketch:type="MSLayerGroup">
            <path d="M51,49 L51,49 C48.8,49 47,47.2 47,45 L47,4 C47,1.8 48.8,0 51,0 C53.2,0 55,1.8 55,4 L55,45 C55,47.2 53.2,49 51,49" id="Fill-842" fill="#EC7937" sketch:type="MSShapeGroup"></path>
            <path d="M47,42 L6,29 L6,20 L47,7 L47,42" id="Fill-843" fill="#ECBA16" sketch:type="MSShapeGroup"></path>
            <path d="M27.263,43 C26.847,43 26.434,42.935 26.036,42.806 L11.767,38.183 C10.754,37.856 9.927,37.149 9.44,36.195 C8.953,35.241 8.866,34.158 9.194,33.145 C9.73,31.49 11.263,30.378 13.007,30.378 C13.422,30.378 13.835,30.444 14.231,30.573 L28.503,35.196 C29.516,35.524 30.342,36.229 30.829,37.184 C31.315,38.137 31.402,39.22 31.074,40.233 C30.538,41.888 29.007,43 27.263,43 L27.263,43 Z M13.007,32.378 C12.146,32.378 11.36,32.948 11.097,33.762 C10.933,34.267 10.977,34.808 11.222,35.285 C11.465,35.764 11.878,36.116 12.383,36.281 L26.653,40.904 C27.679,41.233 28.845,40.627 29.172,39.616 C29.336,39.112 29.291,38.571 29.047,38.093 C28.804,37.615 28.391,37.262 27.886,37.098 L13.615,32.475 C13.418,32.411 13.213,32.378 13.007,32.378 L13.007,32.378 Z" id="Fill-844" fill="#C7CBC7" sketch:type="MSShapeGroup"></path>
            <path d="M3,33 L3,33 C1.35,33 0,31.65 0,30 L0,19 C0,17.35 1.35,16 3,16 C4.65,16 6,17.35 6,19 L6,30 C6,31.65 4.65,33 3,33" id="Fill-845" fill="#424A60" sketch:type="MSShapeGroup"></path>
        </g>
    </g>
</svg>