<?xml version="1.0" encoding="UTF-8" standalone="no"?>
<svg width="59px" height="38px" viewBox="0 0 59 38" version="1.1" xmlns="http://www.w3.org/2000/svg" xmlns:xlink="http://www.w3.org/1999/xlink" xmlns:sketch="http://www.bohemiancoding.com/sketch/ns">
    <!-- Generator: Sketch 3.2.2 (9983) - http://www.bohemiancoding.com/sketch -->
    <title>182 - Promote (Flat)</title>
    <desc>Created with Sketch.</desc>
    <defs></defs>
    <g id="Page-1" stroke="none" stroke-width="1" fill="none" fill-rule="evenodd" sketch:type="MSPage">
        <g id="182---Promote-(Flat)" sketch:type="MSLayerGroup" transform="translate(0.000000, -1.000000)">
            <path d="M38,34 L5,23.6 L5,16.4 L38,6 L38,34" id="Fill-846" fill="#556080" sketch:type="MSShapeGroup"></path>
            <path d="M21.276,33.884 L9.86,30.186 C8.604,29.779 7.91,28.418 8.316,27.163 C8.723,25.907 10.083,25.212 11.339,25.619 L22.755,29.318 C24.011,29.724 24.705,31.084 24.299,32.34 C23.892,33.596 22.531,34.291 21.276,33.884 L21.276,33.884 Z" id="Stroke-847" stroke="#B0B6BB" stroke-width="2" stroke-linecap="round" sketch:type="MSShapeGroup"></path>
            <path d="M2.5,27 L2.5,27 C1.125,27 0,25.875 0,24.5 L0,15.5 C0,14.125 1.125,13 2.5,13 C3.875,13 5,14.125 5,15.5 L5,24.5 C5,25.875 3.875,27 2.5,27" id="Fill-854" fill="#424A60" sketch:type="MSShapeGroup"></path>
            <path d="M41,39 L41,39 C39.35,39 38,37.65 38,36 L38,4 C38,2.35 39.35,1 41,1 C42.65,1 44,2.35 44,4 L44,36 C44,37.65 42.65,39 41,39" id="Fill-855" fill="#424A60" sketch:type="MSShapeGroup"></path>
            <path d="M58,21 L57,21 C56.447,21 56,20.553 56,20 C56,19.447 56.447,19 57,19 L58,19 C58.553,19 59,19.447 59,20 C59,20.553 58.553,21 58,21 L58,21 Z M54,21 L53,21 C52.447,21 52,20.553 52,20 C52,19.447 52.447,19 53,19 L54,19 C54.553,19 55,19.447 55,20 C55,20.553 54.553,21 54,21 L54,21 Z M50,21 L49,21 C48.447,21 48,20.553 48,20 C48,19.447 48.447,19 49,19 L50,19 C50.553,19 51,19.447 51,20 C51,20.553 50.553,21 50,21 L50,21 Z" id="Fill-856" fill="#C7CBC7" sketch:type="MSShapeGroup"></path>
            <path d="M49,9.364 C48.744,9.364 48.488,9.267 48.293,9.071 C47.902,8.681 47.902,8.048 48.293,7.657 L49,6.95 C49.391,6.56 50.023,6.56 50.414,6.95 C50.805,7.341 50.805,7.974 50.414,8.365 L49.707,9.071 C49.512,9.267 49.256,9.364 49,9.364 L49,9.364 Z M51.828,6.536 C51.572,6.536 51.316,6.438 51.121,6.243 C50.73,5.853 50.73,5.22 51.121,4.829 L51.828,4.122 C52.219,3.731 52.852,3.731 53.242,4.122 C53.633,4.513 53.633,5.146 53.242,5.536 L52.535,6.243 C52.34,6.438 52.084,6.536 51.828,6.536 L51.828,6.536 Z M54.657,3.707 C54.401,3.707 54.146,3.609 53.95,3.414 C53.56,3.023 53.56,2.391 53.95,2 L54.657,1.293 C55.048,0.902 55.681,0.902 56.071,1.293 C56.462,1.684 56.462,2.317 56.071,2.707 L55.364,3.414 C55.169,3.609 54.913,3.707 54.657,3.707 L54.657,3.707 Z" id="Fill-857" fill="#C7CBC7" sketch:type="MSShapeGroup"></path>
            <path d="M49,15.364 C48.581,15.364 48.191,15.1 48.052,14.681 C47.877,14.157 48.159,13.591 48.684,13.416 L49.632,13.1 C50.155,12.924 50.722,13.208 50.896,13.732 C51.071,14.255 50.789,14.822 50.265,14.996 L49.316,15.313 C49.212,15.348 49.104,15.364 49,15.364 L49,15.364 Z M52.795,14.1 C52.376,14.1 51.986,13.835 51.847,13.416 C51.672,12.893 51.954,12.326 52.479,12.151 L53.427,11.835 C53.951,11.659 54.517,11.944 54.691,12.467 C54.866,12.99 54.584,13.557 54.06,13.732 L53.111,14.048 C53.007,14.083 52.899,14.1 52.795,14.1 L52.795,14.1 Z M56.59,12.834 C56.171,12.834 55.78,12.569 55.641,12.15 C55.467,11.626 55.75,11.06 56.274,10.885 L57.223,10.569 C57.745,10.398 58.313,10.679 58.487,11.203 C58.661,11.727 58.378,12.293 57.853,12.468 L56.905,12.783 C56.801,12.818 56.694,12.834 56.59,12.834 L56.59,12.834 Z" id="Fill-910" fill="#C7CBC7" sketch:type="MSShapeGroup"></path>
            <path d="M55.364,39 C55.108,39 54.853,38.903 54.657,38.707 L53.95,38 C53.56,37.61 53.56,36.977 53.95,36.586 C54.341,36.196 54.974,36.196 55.364,36.586 L56.071,37.293 C56.462,37.684 56.462,38.317 56.071,38.707 C55.876,38.903 55.62,39 55.364,39 L55.364,39 Z M52.535,36.171 C52.279,36.171 52.023,36.073 51.828,35.878 L51.121,35.171 C50.73,34.78 50.73,34.147 51.121,33.757 C51.512,33.366 52.145,33.366 52.535,33.757 L53.242,34.464 C53.633,34.855 53.633,35.488 53.242,35.878 C53.047,36.073 52.791,36.171 52.535,36.171 L52.535,36.171 Z M49.707,33.343 C49.451,33.343 49.195,33.245 49,33.05 L48.293,32.343 C47.902,31.952 47.902,31.319 48.293,30.929 C48.684,30.538 49.316,30.538 49.707,30.929 L50.414,31.636 C50.805,32.026 50.805,32.659 50.414,33.05 C50.219,33.245 49.963,33.343 49.707,33.343 L49.707,33.343 Z" id="Fill-911" fill="#C7CBC7" sketch:type="MSShapeGroup"></path>
            <path d="M57.538,29.482 C57.434,29.482 57.327,29.465 57.223,29.431 L56.274,29.115 C55.75,28.94 55.467,28.374 55.641,27.851 C55.814,27.326 56.383,27.044 56.905,27.217 L57.853,27.532 C58.378,27.707 58.661,28.274 58.487,28.797 C58.348,29.217 57.957,29.482 57.538,29.482 L57.538,29.482 Z M53.743,28.217 C53.639,28.217 53.531,28.2 53.427,28.165 L52.479,27.849 C51.954,27.674 51.672,27.108 51.847,26.584 C52.021,26.061 52.589,25.775 53.111,25.952 L54.06,26.269 C54.584,26.443 54.866,27.01 54.691,27.533 C54.552,27.952 54.162,28.217 53.743,28.217 L53.743,28.217 Z M49.948,26.952 C49.844,26.952 49.736,26.936 49.632,26.9 L48.684,26.584 C48.159,26.409 47.877,25.843 48.052,25.319 C48.227,24.796 48.793,24.511 49.316,24.688 L50.265,25.004 C50.789,25.179 51.071,25.745 50.896,26.269 C50.757,26.688 50.367,26.952 49.948,26.952 L49.948,26.952 Z" id="Fill-912" fill="#C7CBC7" sketch:type="MSShapeGroup"></path>
        </g>
    </g>
</svg>