<?xml version="1.0" encoding="UTF-8" standalone="no"?>
<svg width="58px" height="49px" viewBox="0 0 58 49" version="1.1" xmlns="http://www.w3.org/2000/svg" xmlns:xlink="http://www.w3.org/1999/xlink" xmlns:sketch="http://www.bohemiancoding.com/sketch/ns">
    <!-- Generator: Sketch 3.2.2 (9983) - http://www.bohemiancoding.com/sketch -->
    <title>128 - Reading List (Flat)</title>
    <desc>Created with Sketch.</desc>
    <defs></defs>
    <g id="Page-1" stroke="none" stroke-width="1" fill="none" fill-rule="evenodd" sketch:type="MSPage">
        <g id="128---Reading-List-(Flat)" sketch:type="MSLayerGroup">
            <path d="M55,45 L33,45 C31.35,45 29,46.75 29,49 L29,3 C29,1.35 30.35,0 32,0 L55,0 C56.65,0 58,1.35 58,3 L58,42 C58,43.65 56.65,45 55,45" id="Fill-1066" fill="#556080" sketch:type="MSShapeGroup"></path>
            <path d="M3,45 L25,45 C26.65,45 29,46.75 29,49 L29,3 C29,1.35 27.65,0 26,0 L3,0 C1.35,0 0,1.35 0,3 L0,42 C0,43.65 1.35,45 3,45" id="Fill-1067" fill="#7383BF" sketch:type="MSShapeGroup"></path>
        </g>
    </g>
</svg>