<?xml version="1.0" encoding="UTF-8" standalone="no"?>
<svg width="51px" height="53px" viewBox="0 0 51 53" version="1.1" xmlns="http://www.w3.org/2000/svg" xmlns:xlink="http://www.w3.org/1999/xlink" xmlns:sketch="http://www.bohemiancoding.com/sketch/ns">
    <!-- Generator: Sketch 3.2.2 (9983) - http://www.bohemiancoding.com/sketch -->
    <title>378 - Search (Flat)</title>
    <desc>Created with Sketch.</desc>
    <defs></defs>
    <g id="Page-1" stroke="none" stroke-width="1" fill="none" fill-rule="evenodd" sketch:type="MSPage">
        <g id="Icons" sketch:type="MSArtboardGroup" transform="translate(-365.000000, -361.000000)">
            <g id="378---Search-(Flat)" sketch:type="MSLayerGroup" transform="translate(365.000000, 361.000000)">
                <path d="M41,21 C41,32.046 32.046,41 21,41 C9.954,41 1,32.046 1,21 C1,9.954 9.954,1 21,1 C32.046,1 41,9.954 41,21" id="Fill-293" fill="#57ABC1" sketch:type="MSShapeGroup"></path>
                <path d="M34.454,35.798 L50,51.966" id="Stroke-294" stroke="#556080" stroke-width="2" stroke-linecap="round" sketch:type="MSShapeGroup"></path>
                <path d="M2.019,27.253 C2.867,29.835 4.259,32.271 6.186,34.399 L34.399,6.187 C32.271,4.259 29.835,2.868 27.253,2.02 L2.019,27.253" id="Fill-2949" fill="#7CCBD8" sketch:type="MSShapeGroup"></path>
                <path d="M21,42 C9.42,42 0,32.58 0,21 C0,9.42 9.42,0 21,0 C32.58,0 42,9.42 42,21 C42,32.58 32.58,42 21,42 L21,42 Z M21,2 C10.523,2 2,10.523 2,21 C2,31.477 10.523,40 21,40 C31.477,40 40,31.477 40,21 C40,10.523 31.477,2 21,2 L21,2 Z" id="Fill-2950" fill="#556080" sketch:type="MSShapeGroup"></path>
            </g>
        </g>
    </g>
</svg>