<?xml version="1.0" encoding="UTF-8" standalone="no"?>
<svg width="53px" height="53px" viewBox="0 0 53 53" version="1.1" xmlns="http://www.w3.org/2000/svg" xmlns:xlink="http://www.w3.org/1999/xlink" xmlns:sketch="http://www.bohemiancoding.com/sketch/ns">
    <!-- Generator: Sketch 3.2.2 (9983) - http://www.bohemiancoding.com/sketch -->
    <title>377 - Search (Flat)</title>
    <desc>Created with Sketch.</desc>
    <defs></defs>
    <g id="Page-1" stroke="none" stroke-width="1" fill="none" fill-rule="evenodd" sketch:type="MSPage">
        <g id="Icons" sketch:type="MSArtboardGroup" transform="translate(-485.000000, -361.000000)">
            <g id="377---Search-(Flat)" sketch:type="MSLayerGroup" transform="translate(485.000000, 361.000000)">
                <path d="M41,21 C41,32.046 32.046,41 21,41 C9.954,41 1,32.046 1,21 C1,9.954 9.954,1 21,1 C32.046,1 41,9.954 41,21" id="Fill-295" fill="#556080" sketch:type="MSShapeGroup"></path>
                <path d="M36.483,33.655 C35.637,34.689 34.689,35.637 33.655,36.483 L49.385,52.213 L52.213,49.385 L36.483,33.655" id="Fill-296" fill="#2E243B" sketch:type="MSShapeGroup"></path>
                <path d="M3.493,31.85 C4.333,33.274 5.342,34.626 6.565,35.85 C7.288,36.572 8.064,37.206 8.862,37.795 L36.794,9.862 C36.205,9.064 35.572,8.288 34.849,7.565 C33.626,6.342 32.274,5.333 30.85,4.493 L3.493,31.85" id="Fill-2258" fill="#7383BF" sketch:type="MSShapeGroup"></path>
                <path d="M21,42 C9.42,42 0,32.58 0,21 C0,9.42 9.42,0 21,0 C32.58,0 42,9.42 42,21 C42,32.58 32.58,42 21,42 L21,42 Z M21,2 C10.523,2 2,10.523 2,21 C2,31.477 10.523,40 21,40 C31.477,40 40,31.477 40,21 C40,10.523 31.477,2 21,2 L21,2 Z" id="Fill-2259" fill="#2E243B" sketch:type="MSShapeGroup"></path>
            </g>
        </g>
    </g>
</svg>