<?xml version="1.0" encoding="UTF-8" standalone="no"?>
<svg width="56px" height="58px" viewBox="0 0 56 58" version="1.1" xmlns="http://www.w3.org/2000/svg" xmlns:xlink="http://www.w3.org/1999/xlink" xmlns:sketch="http://www.bohemiancoding.com/sketch/ns">
    <!-- Generator: Sketch 3.2.2 (9983) - http://www.bohemiancoding.com/sketch -->
    <title>9 - Search Phone (Flat)</title>
    <desc>Created with Sketch.</desc>
    <defs></defs>
    <g id="Page-1" stroke="none" stroke-width="1" fill="none" fill-rule="evenodd" sketch:type="MSPage">
        <g id="Icons" sketch:type="MSArtboardGroup" transform="translate(-241.000000, -4798.000000)">
            <g id="9---Search-Phone-(Flat)" sketch:type="MSLayerGroup" transform="translate(242.000000, 4798.000000)">
                <path d="M51.595,58 L26.405,58 C24.525,58 23,56.475 23,54.595 L23,3.406 C23,1.525 24.525,0 26.405,0 L51.595,0 C53.475,0 55,1.525 55,3.406 L55,54.595 C55,56.475 53.475,58 51.595,58" id="Fill-1477" fill="#424A60" sketch:type="MSShapeGroup"></path>
                <path d="M23,6 L55,6 L55,46 L23,46 L23,6 Z" id="Fill-1478" fill="#E8EDEE" sketch:type="MSShapeGroup"></path>
                <path d="M42,52 C42,53.657 40.657,55 39,55 C37.343,55 36,53.657 36,52 C36,50.344 37.343,49 39,49 C40.657,49 42,50.344 42,52" id="Fill-1479" fill="#262B35" sketch:type="MSShapeGroup"></path>
                <path d="M39,4 L35,4 C34.447,4 34,3.553 34,3 C34,2.448 34.447,2 35,2 L39,2 C39.553,2 40,2.448 40,3 C40,3.553 39.553,4 39,4" id="Fill-1480" fill="#262B35" sketch:type="MSShapeGroup"></path>
                <path d="M43,4 L42,4 C41.447,4 41,3.553 41,3 C41,2.448 41.447,2 42,2 L43,2 C43.553,2 44,2.448 44,3 C44,3.553 43.553,4 43,4" id="Fill-1481" fill="#262B35" sketch:type="MSShapeGroup"></path>
                <path d="M17.366,34.727 L0,51" id="Stroke-1526" stroke="#556080" stroke-width="2" stroke-linecap="round" sketch:type="MSShapeGroup"></path>
                <path d="M40,26 C40,33.18 34.18,39 27,39 C19.82,39 14,33.18 14,26 C14,18.821 19.82,13 27,13 C34.18,13 40,18.821 40,26 L40,26 Z" id="Fill-2247" fill="#7FABDA" sketch:type="MSShapeGroup"></path>
                <path d="M40,26 C40,33.18 34.18,39 27,39 C19.82,39 14,33.18 14,26 C14,18.821 19.82,13 27,13 C34.18,13 40,18.821 40,26 L40,26 Z" id="Stroke-2248" stroke="#556080" stroke-width="2" stroke-linecap="round" sketch:type="MSShapeGroup"></path>
            </g>
        </g>
    </g>
</svg>