<?xml version="1.0" encoding="UTF-8" standalone="no"?>
<svg width="58px" height="46px" viewBox="0 0 58 46" version="1.1" xmlns="http://www.w3.org/2000/svg" xmlns:xlink="http://www.w3.org/1999/xlink" xmlns:sketch="http://www.bohemiancoding.com/sketch/ns">
    <!-- Generator: Sketch 3.2.2 (9983) - http://www.bohemiancoding.com/sketch -->
    <title>353 - Select Windows (Flat)</title>
    <desc>Created with Sketch.</desc>
    <defs></defs>
    <g id="Page-1" stroke="none" stroke-width="1" fill="none" fill-rule="evenodd" sketch:type="MSPage">
        <g id="Icons" sketch:type="MSArtboardGroup" transform="translate(-961.000000, -604.000000)">
            <g id="353---Select-Windows-(Flat)" sketch:type="MSLayerGroup" transform="translate(961.000000, 604.000000)">
                <path d="M14,14 L58,14 L58,46 L14,46 L14,14 Z" id="Fill-344" fill="#ECBA16" sketch:type="MSShapeGroup"></path>
                <path d="M7,7 L7,32 L0,32 L0,0 L44,0 L44,7 L7,7" id="Fill-345" fill="#DD691D" sketch:type="MSShapeGroup"></path>
                <path d="M14,14 L14,39 L7,39 L7,7 L51,7 L51,14 L14,14" id="Fill-346" fill="#ED8A19" sketch:type="MSShapeGroup"></path>
                <path d="M33,8 C32.448,8 32,8.448 32,9 C32,9.552 32.448,10 33,10 C33.552,10 34,9.552 34,9 C34,8.448 33.552,8 33,8" id="Fill-354" fill="#F0CE49" sketch:type="MSShapeGroup"></path>
                <path d="M36,11 C35.448,11 35,11.448 35,12 C35,12.552 35.448,13 36,13 C36.552,13 37,12.552 37,12 C37,11.448 36.552,11 36,11" id="Fill-355" fill="#F0CE49" sketch:type="MSShapeGroup"></path>
                <path d="M39,8 C38.448,8 38,8.448 38,9 C38,9.552 38.448,10 39,10 C39.552,10 40,9.552 40,9 C40,8.448 39.552,8 39,8" id="Fill-356" fill="#F0CE49" sketch:type="MSShapeGroup"></path>
                <path d="M45,8 C44.448,8 44,8.448 44,9 C44,9.552 44.448,10 45,10 C45.552,10 46,9.552 46,9 C46,8.448 45.552,8 45,8" id="Fill-357" fill="#F0CE49" sketch:type="MSShapeGroup"></path>
                <path d="M42,11 C41.448,11 41,11.448 41,12 C41,12.552 41.448,13 42,13 C42.552,13 43,12.552 43,12 C43,11.448 42.552,11 42,11" id="Fill-358" fill="#F0CE49" sketch:type="MSShapeGroup"></path>
                <path d="M48,11 C47.448,11 47,11.448 47,12 C47,12.552 47.448,13 48,13 C48.552,13 49,12.552 49,12 C49,11.448 48.552,11 48,11" id="Fill-359" fill="#F0CE49" sketch:type="MSShapeGroup"></path>
                <path d="M27,8 C26.448,8 26,8.448 26,9 C26,9.552 26.448,10 27,10 C27.552,10 28,9.552 28,9 C28,8.448 27.552,8 27,8" id="Fill-360" fill="#F0CE49" sketch:type="MSShapeGroup"></path>
                <path d="M30,11 C29.448,11 29,11.448 29,12 C29,12.552 29.448,13 30,13 C30.552,13 31,12.552 31,12 C31,11.448 30.552,11 30,11" id="Fill-361" fill="#F0CE49" sketch:type="MSShapeGroup"></path>
                <path d="M9,8 C8.448,8 8,8.448 8,9 C8,9.552 8.448,10 9,10 C9.552,10 10,9.552 10,9 C10,8.448 9.552,8 9,8" id="Fill-362" fill="#F0CE49" sketch:type="MSShapeGroup"></path>
                <path d="M9,14 C8.448,14 8,14.448 8,15 C8,15.552 8.448,16 9,16 C9.552,16 10,15.552 10,15 C10,14.448 9.552,14 9,14" id="Fill-363" fill="#F0CE49" sketch:type="MSShapeGroup"></path>
                <path d="M12,11 C11.448,11 11,11.448 11,12 C11,12.552 11.448,13 12,13 C12.552,13 13,12.552 13,12 C13,11.448 12.552,11 12,11" id="Fill-364" fill="#F0CE49" sketch:type="MSShapeGroup"></path>
                <path d="M12,17 C11.448,17 11,17.448 11,18 C11,18.552 11.448,19 12,19 C12.552,19 13,18.552 13,18 C13,17.448 12.552,17 12,17" id="Fill-365" fill="#F0CE49" sketch:type="MSShapeGroup"></path>
                <path d="M15,8 C14.448,8 14,8.448 14,9 C14,9.552 14.448,10 15,10 C15.552,10 16,9.552 16,9 C16,8.448 15.552,8 15,8" id="Fill-366" fill="#F0CE49" sketch:type="MSShapeGroup"></path>
                <path d="M21,8 C20.448,8 20,8.448 20,9 C20,9.552 20.448,10 21,10 C21.552,10 22,9.552 22,9 C22,8.448 21.552,8 21,8" id="Fill-367" fill="#F0CE49" sketch:type="MSShapeGroup"></path>
                <path d="M18,11 C17.448,11 17,11.448 17,12 C17,12.552 17.448,13 18,13 C18.552,13 19,12.552 19,12 C19,11.448 18.552,11 18,11" id="Fill-368" fill="#F0CE49" sketch:type="MSShapeGroup"></path>
                <path d="M24,11 C23.448,11 23,11.448 23,12 C23,12.552 23.448,13 24,13 C24.552,13 25,12.552 25,12 C25,11.448 24.552,11 24,11" id="Fill-369" fill="#F0CE49" sketch:type="MSShapeGroup"></path>
                <path d="M9,20 C8.448,20 8,20.448 8,21 C8,21.552 8.448,22 9,22 C9.552,22 10,21.552 10,21 C10,20.448 9.552,20 9,20" id="Fill-370" fill="#F0CE49" sketch:type="MSShapeGroup"></path>
                <path d="M9,26 C8.448,26 8,26.448 8,27 C8,27.552 8.448,28 9,28 C9.552,28 10,27.552 10,27 C10,26.448 9.552,26 9,26" id="Fill-371" fill="#F0CE49" sketch:type="MSShapeGroup"></path>
                <path d="M12,23 C11.448,23 11,23.448 11,24 C11,24.552 11.448,25 12,25 C12.552,25 13,24.552 13,24 C13,23.448 12.552,23 12,23" id="Fill-372" fill="#F0CE49" sketch:type="MSShapeGroup"></path>
                <path d="M12,29 C11.448,29 11,29.448 11,30 C11,30.552 11.448,31 12,31 C12.552,31 13,30.552 13,30 C13,29.448 12.552,29 12,29" id="Fill-373" fill="#F0CE49" sketch:type="MSShapeGroup"></path>
                <path d="M9,32 C8.448,32 8,32.448 8,33 C8,33.552 8.448,34 9,34 C9.552,34 10,33.552 10,33 C10,32.448 9.552,32 9,32" id="Fill-374" fill="#F0CE49" sketch:type="MSShapeGroup"></path>
                <path d="M12,35 C11.448,35 11,35.448 11,36 C11,36.552 11.448,37 12,37 C12.552,37 13,36.552 13,36 C13,35.448 12.552,35 12,35" id="Fill-375" fill="#F0CE49" sketch:type="MSShapeGroup"></path>
            </g>
        </g>
    </g>
</svg>