<?xml version="1.0" encoding="UTF-8" standalone="no"?>
<svg width="56px" height="56px" viewBox="0 0 56 56" version="1.1" xmlns="http://www.w3.org/2000/svg" xmlns:xlink="http://www.w3.org/1999/xlink" xmlns:sketch="http://www.bohemiancoding.com/sketch/ns">
    <!-- Generator: Sketch 3.2.2 (9983) - http://www.bohemiancoding.com/sketch -->
    <title>93 - Settings (Flat)</title>
    <desc>Created with Sketch.</desc>
    <defs></defs>
    <g id="Page-1" stroke="none" stroke-width="1" fill="none" fill-rule="evenodd" sketch:type="MSPage">
        <g id="Icons" sketch:type="MSArtboardGroup" transform="translate(-962.000000, -3719.000000)">
            <g id="93---Settings-(Flat)" sketch:type="MSLayerGroup" transform="translate(963.000000, 3720.000000)">
                <path d="M27,4 L27,0" id="Fill-1166" fill="#E8EDEE" sketch:type="MSShapeGroup"></path>
                <path d="M27,4 L27,0" id="Stroke-1167" stroke="#C7CBC7" stroke-width="2" stroke-linecap="round" sketch:type="MSShapeGroup"></path>
                <path d="M27,54 L27,50" id="Fill-1168" fill="#E8EDEE" sketch:type="MSShapeGroup"></path>
                <path d="M27,54 L27,50" id="Stroke-1169" stroke="#C7CBC7" stroke-width="2" stroke-linecap="round" sketch:type="MSShapeGroup"></path>
                <path d="M50,27 L54,27" id="Fill-1170" fill="#E8EDEE" sketch:type="MSShapeGroup"></path>
                <path d="M50,27 L54,27" id="Stroke-1171" stroke="#C7CBC7" stroke-width="2" stroke-linecap="round" sketch:type="MSShapeGroup"></path>
                <path d="M0,27 L4,27" id="Fill-1172" fill="#E8EDEE" sketch:type="MSShapeGroup"></path>
                <path d="M0,27 L4,27" id="Stroke-1173" stroke="#C7CBC7" stroke-width="2" stroke-linecap="round" sketch:type="MSShapeGroup"></path>
                <path d="M43.263,10.737 L46.092,7.908" id="Fill-1174" fill="#E8EDEE" sketch:type="MSShapeGroup"></path>
                <path d="M43.263,10.737 L46.092,7.908" id="Stroke-1175" stroke="#C7CBC7" stroke-width="2" stroke-linecap="round" sketch:type="MSShapeGroup"></path>
                <path d="M7.908,46.092 L10.736,43.264" id="Fill-1176" fill="#E8EDEE" sketch:type="MSShapeGroup"></path>
                <path d="M7.908,46.092 L10.736,43.264" id="Stroke-1177" stroke="#C7CBC7" stroke-width="2" stroke-linecap="round" sketch:type="MSShapeGroup"></path>
                <path d="M43.263,43.264 L46.092,46.092" id="Fill-1178" fill="#E8EDEE" sketch:type="MSShapeGroup"></path>
                <path d="M43.263,43.264 L46.092,46.092" id="Stroke-1179" stroke="#C7CBC7" stroke-width="2" stroke-linecap="round" sketch:type="MSShapeGroup"></path>
                <path d="M7.908,7.908 L10.736,10.737" id="Fill-1180" fill="#E8EDEE" sketch:type="MSShapeGroup"></path>
                <path d="M7.908,7.908 L10.736,10.737" id="Stroke-1181" stroke="#C7CBC7" stroke-width="2" stroke-linecap="round" sketch:type="MSShapeGroup"></path>
                <path d="M27,4 C14.297,4 4,14.297 4,27 C4,39.703 14.297,50 27,50 C39.703,50 50,39.703 50,27 C50,14.297 39.703,4 27,4 L27,4 Z M27,31 C24.791,31 23,29.209 23,27 C23,24.791 24.791,23 27,23 C29.209,23 31,24.791 31,27 C31,29.209 29.209,31 27,31 L27,31 Z" id="Fill-2091" fill="#E8EDEE" sketch:type="MSShapeGroup"></path>
                <path d="M27,4 C14.297,4 4,14.297 4,27 C4,39.703 14.297,50 27,50 C39.703,50 50,39.703 50,27 C50,14.297 39.703,4 27,4 L27,4 Z M27,31 C24.791,31 23,29.209 23,27 C23,24.791 24.791,23 27,23 C29.209,23 31,24.791 31,27 C31,29.209 29.209,31 27,31 L27,31 Z" id="Stroke-2092" stroke="#C7CBC7" stroke-width="2" stroke-linecap="round" sketch:type="MSShapeGroup"></path>
            </g>
        </g>
    </g>
</svg>