<?xml version="1.0" encoding="UTF-8" standalone="no"?>
<svg width="52px" height="52px" viewBox="0 0 52 52" version="1.1" xmlns="http://www.w3.org/2000/svg" xmlns:xlink="http://www.w3.org/1999/xlink" xmlns:sketch="http://www.bohemiancoding.com/sketch/ns">
    <!-- Generator: Sketch 3.2.2 (9983) - http://www.bohemiancoding.com/sketch -->
    <title>95 - Settings (Flat)</title>
    <desc>Created with Sketch.</desc>
    <defs></defs>
    <g id="Page-1" stroke="none" stroke-width="1" fill="none" fill-rule="evenodd" sketch:type="MSPage">
        <g id="Icons" sketch:type="MSArtboardGroup" transform="translate(-725.000000, -3721.000000)" fill="#E8EDEE">
            <g id="95---Settings-(Flat)" sketch:type="MSLayerGroup" transform="translate(725.000000, 3721.000000)">
                <path d="M50.219,21 L45.168,21 C42.549,21 41.237,17.834 43.089,15.982 L46.661,12.41 C47.357,11.714 47.357,10.587 46.661,9.892 L42.108,5.339 C41.413,4.643 40.286,4.643 39.59,5.339 L36.018,8.911 C34.166,10.763 31,9.451 31,6.832 L31,1.781 C31,0.797 30.203,0 29.219,0 L22.781,0 C21.797,0 21,0.797 21,1.781 L21,6.832 C21,9.451 17.834,10.763 15.982,8.911 L12.41,5.339 C11.714,4.643 10.587,4.643 9.892,5.339 L5.339,9.892 C4.643,10.587 4.643,11.714 5.339,12.41 L8.911,15.982 C10.763,17.834 9.451,21 6.832,21 L1.781,21 C0.797,21 0,21.797 0,22.781 L0,29.219 C0,30.203 0.797,31 1.781,31 L6.832,31 C9.451,31 10.763,34.167 8.911,36.018 L5.339,39.59 C4.643,40.286 4.643,41.413 5.339,42.109 L9.892,46.661 C10.587,47.357 11.714,47.357 12.41,46.661 L15.982,43.09 C17.834,41.238 21,42.549 21,45.168 L21,50.219 C21,51.203 21.797,52 22.781,52 L29.219,52 C30.203,52 31,51.203 31,50.219 L31,45.168 C31,42.549 34.166,41.238 36.018,43.09 L39.59,46.661 C40.286,47.357 41.413,47.357 42.108,46.661 L46.661,42.109 C47.357,41.413 47.357,40.286 46.661,39.59 L43.089,36.018 C41.237,34.167 42.549,31 45.168,31 L50.219,31 C51.203,31 52,30.203 52,29.219 L52,22.781 C52,21.797 51.203,21 50.219,21 L50.219,21 Z M26,34 C21.582,34 18,30.418 18,26 C18,21.582 21.582,18 26,18 C30.418,18 34,21.582 34,26 C34,30.418 30.418,34 26,34 L26,34 Z" id="Fill-1165" sketch:type="MSShapeGroup"></path>
            </g>
        </g>
    </g>
</svg>