<?xml version="1.0" encoding="UTF-8" standalone="no"?>
<svg width="58px" height="58px" viewBox="0 0 58 58" version="1.1" xmlns="http://www.w3.org/2000/svg" xmlns:xlink="http://www.w3.org/1999/xlink" xmlns:sketch="http://www.bohemiancoding.com/sketch/ns">
    <!-- Generator: Sketch 3.2.2 (9983) - http://www.bohemiancoding.com/sketch -->
    <title>99 - Settings (Flat)</title>
    <desc>Created with Sketch.</desc>
    <defs></defs>
    <g id="Page-1" stroke="none" stroke-width="1" fill="none" fill-rule="evenodd" sketch:type="MSPage">
        <g id="Icons" sketch:type="MSArtboardGroup" transform="translate(-241.000000, -3718.000000)">
            <g id="99---Settings-(Flat)" sketch:type="MSLayerGroup" transform="translate(241.000000, 3718.000000)">
                <path d="M58,29 C58,45.016 45.016,58 29,58 C12.984,58 0,45.016 0,29 C0,12.984 12.984,0 29,0 C45.016,0 58,12.984 58,29" id="Fill-117" fill="#424A60" sketch:type="MSShapeGroup"></path>
                <path d="M53.148,21.529 C53.005,20.995 52.456,20.677 51.923,20.823 L49.655,21.431 C49.286,20.263 48.818,19.129 48.255,18.038 L50.285,16.866 C50.763,16.59 50.927,15.979 50.651,15.5 C50.374,15.021 49.762,14.857 49.285,15.134 L47.24,16.314 C46.57,15.267 45.834,14.286 45.021,13.393 L46.678,11.736 C47.068,11.346 47.068,10.713 46.678,10.323 C46.287,9.932 45.654,9.932 45.264,10.323 L43.61,11.975 C42.697,11.144 41.716,10.408 40.69,9.752 L41.866,7.716 C42.142,7.237 41.978,6.626 41.5,6.35 C41.021,6.072 40.409,6.236 40.134,6.716 L38.955,8.758 C37.864,8.195 36.73,7.734 35.565,7.364 L36.177,5.076 C36.32,4.543 36.003,3.994 35.47,3.852 C34.933,3.704 34.388,4.026 34.246,4.559 L33.633,6.847 C32.439,6.585 31.226,6.417 30,6.358 L30,4 C30,3.447 29.552,3 29,3 C28.448,3 28,3.447 28,4 L28,6.352 C26.783,6.406 25.566,6.554 24.359,6.817 L23.754,4.559 C23.612,4.026 23.066,3.704 22.53,3.852 C21.997,3.994 21.68,4.543 21.823,5.076 L22.429,7.34 C21.278,7.706 20.15,8.188 19.046,8.76 L17.866,6.716 C17.589,6.236 16.977,6.072 16.5,6.35 C16.021,6.626 15.858,7.237 16.134,7.716 L17.306,9.745 C16.266,10.412 15.294,11.16 14.396,11.982 L12.736,10.323 C12.346,9.932 11.713,9.932 11.322,10.323 C10.932,10.713 10.932,11.346 11.322,11.736 L12.986,13.4 C12.161,14.309 11.416,15.283 10.758,16.313 L8.715,15.134 C8.235,14.857 7.625,15.021 7.349,15.5 C7.073,15.979 7.237,16.59 7.715,16.866 L9.761,18.047 C9.2,19.133 8.731,20.265 8.358,21.434 L6.077,20.823 C5.545,20.678 4.995,20.996 4.852,21.529 C4.709,22.062 5.025,22.611 5.559,22.754 L7.84,23.366 C7.502,24.901 7.319,26.481 7.324,28.087 C7.326,28.639 7.773,29.084 8.324,29.084 L8.327,29.084 C8.879,29.082 9.326,28.633 9.324,28.081 C9.309,23.117 11.176,18.401 14.4,14.814 L21.971,22.384 C21.206,23.342 20.635,24.452 20.308,25.671 C19.685,27.992 20.005,30.418 21.206,32.499 C22.81,35.275 25.798,37 29.007,37 C30.579,37 32.132,36.582 33.499,35.793 C35.581,34.592 37.07,32.652 37.692,30.329 C38.314,28.008 37.995,25.582 36.793,23.501 C36.566,23.107 36.304,22.74 36.023,22.39 L43.608,14.806 C44.52,15.816 45.344,16.93 46.052,18.156 C47.784,21.156 48.689,24.587 48.672,28.079 C48.669,28.631 49.115,29.081 49.667,29.084 L49.672,29.084 C50.222,29.084 50.669,28.64 50.672,28.089 C50.68,26.492 50.503,24.909 50.167,23.364 L52.441,22.754 C52.975,22.611 53.291,22.062 53.148,21.529 L53.148,21.529 Z M28.993,19 C27.421,19 25.868,19.418 24.5,20.207 C24.106,20.435 23.74,20.697 23.39,20.975 L15.81,13.396 C16.827,12.474 17.943,11.648 19.155,10.948 C26.728,6.576 36.023,7.83 42.192,13.394 L34.607,20.979 C33.033,19.725 31.062,19 28.993,19 L28.993,19 Z M35.76,29.812 C35.276,31.617 34.119,33.126 32.499,34.061 C31.435,34.675 30.228,35 29.007,35 C26.511,35 24.185,33.658 22.939,31.499 C22.004,29.88 21.756,27.994 22.24,26.189 C22.724,24.383 23.881,22.874 25.5,21.939 C26.564,21.325 27.772,21 28.993,21 C31.489,21 33.814,22.342 35.061,24.501 C35.996,26.12 36.244,28.006 35.76,29.812 L35.76,29.812 Z" id="Fill-1209" fill="#FFFFFF" sketch:type="MSShapeGroup"></path>
                <path d="M26,46.5 L23.793,46.5 C23.777,46.5 23.764,46.508 23.749,46.509 C23.629,44.804 23.193,43.101 22.408,41.485 C22.42,41.479 22.433,41.477 22.445,41.47 L24.356,40.366 C24.835,40.09 24.998,39.479 24.723,39 C24.446,38.521 23.833,38.357 23.356,38.634 L21.445,39.737 C21.43,39.746 21.422,39.762 21.407,39.771 C20.401,38.284 19.148,37.052 17.732,36.094 C17.741,36.08 17.754,36.069 17.763,36.055 L18.866,34.144 C19.142,33.665 18.978,33.054 18.5,32.777 C18.019,32.501 17.41,32.664 17.134,33.144 L16.03,35.055 C16.024,35.066 16.024,35.079 16.019,35.09 C14.444,34.328 12.737,33.871 10.993,33.743 C10.993,33.73 11,33.72 11,33.707 L11,31.5 C11,30.948 10.552,30.5 10,30.5 C9.448,30.5 9,30.948 9,31.5 L9,33.707 C9,33.725 9.009,33.739 9.01,33.756 C6.991,33.9 4.974,34.475 3.103,35.555 C2.386,35.969 1.729,36.448 1.116,36.963 C1.966,39.943 3.283,42.725 4.978,45.23 C5.437,44.213 6.201,43.323 7.241,42.722 C9.88,41.198 13.254,42.103 14.778,44.742 C16.302,47.38 15.397,50.755 12.759,52.278 C12.555,52.396 12.345,52.494 12.134,52.583 C14.595,54.348 17.342,55.741 20.296,56.669 C22.335,54.38 23.523,51.488 23.745,48.49 C23.762,48.491 23.776,48.5 23.793,48.5 L26,48.5 C26.552,48.5 27,48.053 27,47.5 C27,46.947 26.552,46.5 26,46.5" id="Fill-2095" fill="#C7CBC7" sketch:type="MSShapeGroup"></path>
                <path d="M48.99,33.257 C48.991,33.239 49,33.225 49,33.207 L49,31 C49,30.447 48.552,30 48,30 C47.448,30 47,30.447 47,31 L47,33.207 C47,33.223 47.008,33.235 47.009,33.251 C45.303,33.37 43.599,33.807 41.983,34.593 C41.976,34.581 41.977,34.567 41.97,34.555 L40.866,32.644 C40.59,32.164 39.978,32 39.5,32.278 C39.021,32.554 38.858,33.165 39.134,33.644 L40.237,35.555 C40.246,35.57 40.259,35.58 40.268,35.595 C38.781,36.602 37.55,37.855 36.592,39.27 C36.578,39.261 36.57,39.246 36.555,39.238 L34.644,38.134 C34.163,37.857 33.554,38.021 33.277,38.5 C33.001,38.979 33.165,39.59 33.644,39.866 L35.555,40.97 C35.566,40.976 35.577,40.978 35.588,40.984 C34.827,42.557 34.37,44.264 34.243,46.007 C34.23,46.007 34.22,46 34.207,46 L32,46 C31.448,46 31,46.447 31,47 C31,47.553 31.448,48 32,48 L34.207,48 C34.224,48 34.239,47.991 34.256,47.99 C34.399,50.009 34.975,52.026 36.055,53.896 C36.625,54.884 37.308,55.761 38.063,56.548 C41.062,55.562 43.838,54.093 46.315,52.246 C45.056,51.842 43.935,50.994 43.222,49.759 C41.698,47.12 42.603,43.746 45.241,42.222 C47.88,40.698 51.254,41.603 52.778,44.242 C52.927,44.5 53.046,44.767 53.149,45.037 C54.858,42.469 56.174,39.617 56.998,36.561 C54.736,34.612 51.914,33.474 48.99,33.257" id="Fill-2096" fill="#ED7161" sketch:type="MSShapeGroup"></path>
            </g>
        </g>
    </g>
</svg>