<?xml version="1.0" encoding="UTF-8" standalone="no"?>
<svg width="56px" height="57px" viewBox="0 0 56 57" version="1.1" xmlns="http://www.w3.org/2000/svg" xmlns:xlink="http://www.w3.org/1999/xlink" xmlns:sketch="http://www.bohemiancoding.com/sketch/ns">
    <!-- Generator: Sketch 3.2.2 (9983) - http://www.bohemiancoding.com/sketch -->
    <title>198 - Share (Flat)</title>
    <desc>Created with Sketch.</desc>
    <defs></defs>
    <g id="Page-1" stroke="none" stroke-width="1" fill="none" fill-rule="evenodd" sketch:type="MSPage">
        <g id="198---Share-(Flat)" sketch:type="MSLayerGroup">
            <path d="M37.171,53.182 C34.256,54.388 31.171,55 28,55 C21.272,55 14.811,52.146 10.272,47.168 C9.9,46.76 9.269,46.731 8.859,47.103 C8.451,47.475 8.422,48.107 8.794,48.516 C13.711,53.907 20.711,57 28,57 C31.435,57 34.778,56.337 37.936,55.03 C38.446,54.819 38.689,54.234 38.477,53.723 C38.267,53.213 37.681,52.971 37.171,53.182" id="Fill-230" fill="#424A60" sketch:type="MSShapeGroup"></path>
            <path d="M22.284,7.687 C22.82,7.555 23.149,7.014 23.018,6.478 C22.887,5.942 22.344,5.615 21.809,5.743 C10.802,8.434 2.871,17.838 2.073,29.146 C2.034,29.696 2.449,30.175 3,30.213 C3.024,30.215 3.048,30.216 3.071,30.216 C3.592,30.216 4.031,29.813 4.068,29.286 C4.805,18.85 12.125,10.169 22.284,7.687" id="Fill-231" fill="#424A60" sketch:type="MSShapeGroup"></path>
            <path d="M34,6 C34,9.314 31.314,12 28,12 C24.686,12 22,9.314 22,6 C22,2.686 24.686,0 28,0 C31.314,0 34,2.686 34,6" id="Fill-832" fill="#ECBA16" sketch:type="MSShapeGroup"></path>
            <path d="M12,43 C12,46.314 9.314,49 6,49 C2.686,49 0,46.314 0,43 C0,39.687 2.686,37 6,37 C9.314,37 12,39.687 12,43" id="Fill-833" fill="#7383BF" sketch:type="MSShapeGroup"></path>
            <path d="M56,43 C56,46.314 53.314,49 50,49 C46.686,49 44,46.314 44,43 C44,39.687 46.686,37 50,37 C53.314,37 56,39.687 56,43" id="Fill-834" fill="#42B05C" sketch:type="MSShapeGroup"></path>
            <path d="M41.611,8.847 C41.139,8.557 40.524,8.704 40.235,9.174 C39.946,9.645 40.092,10.26 40.562,10.55 C47.724,14.96 52,22.605 52,31 C52,33.067 51.729,35.137 51.195,37.153 C51.054,37.686 51.372,38.233 51.906,38.375 C51.992,38.397 52.078,38.408 52.163,38.408 C52.605,38.408 53.01,38.112 53.129,37.664 C53.707,35.483 54,33.24 54,31 C54,21.905 49.369,13.623 41.611,8.847" id="Fill-229" fill="#424A60" sketch:type="MSShapeGroup"></path>
        </g>
    </g>
</svg>