<?xml version="1.0" encoding="UTF-8" standalone="no"?>
<svg width="48px" height="40px" viewBox="0 0 48 40" version="1.1" xmlns="http://www.w3.org/2000/svg" xmlns:xlink="http://www.w3.org/1999/xlink" xmlns:sketch="http://www.bohemiancoding.com/sketch/ns">
    <!-- Generator: Sketch 3.2.2 (9983) - http://www.bohemiancoding.com/sketch -->
    <title>252 - Shuffle (Flat)</title>
    <desc>Created with Sketch.</desc>
    <defs></defs>
    <g id="Page-1" stroke="none" stroke-width="1" fill="none" fill-rule="evenodd" sketch:type="MSPage">
        <g id="252---Shuffle-(Flat)" sketch:type="MSLayerGroup" fill="#ECBA16">
            <path d="M27,9 L37,9 L37,16 L48,8 L37,0 L37,7 L27,7 C19.832,7 14,12.832 14,20 C14,26.065 9.065,31 3,31 L1,31 C0.447,31 0,31.447 0,32 C0,32.553 0.447,33 1,33 L3,33 C10.168,33 16,27.168 16,20 C16,13.935 20.935,9 27,9" id="Fill-783" sketch:type="MSShapeGroup"></path>
            <path d="M1,9 L3,9 C5.713,9 8.318,9.994 10.336,11.799 C10.527,11.97 10.766,12.054 11.003,12.054 C11.277,12.054 11.551,11.941 11.748,11.721 C12.116,11.309 12.081,10.677 11.67,10.309 C9.285,8.175 6.206,7 3,7 L1,7 C0.447,7 0,7.447 0,8 C0,8.553 0.447,9 1,9" id="Fill-784" sketch:type="MSShapeGroup"></path>
            <path d="M37,31 L27,31 C24.315,31 21.73,30.024 19.722,28.252 C19.311,27.887 18.678,27.925 18.311,28.341 C17.945,28.755 17.984,29.387 18.399,29.752 C20.773,31.847 23.828,33 27,33 L37,33 L37,40 L48,32 L37,24 L37,31" id="Fill-785" sketch:type="MSShapeGroup"></path>
        </g>
    </g>
</svg>