<?xml version="1.0" encoding="UTF-8" standalone="no"?>
<svg width="58px" height="58px" viewBox="0 0 58 58" version="1.1" xmlns="http://www.w3.org/2000/svg" xmlns:xlink="http://www.w3.org/1999/xlink" xmlns:sketch="http://www.bohemiancoding.com/sketch/ns">
    <!-- Generator: Sketch 3.2.2 (9983) - http://www.bohemiancoding.com/sketch -->
    <title>242 - Shuffle (Flat)</title>
    <desc>Created with Sketch.</desc>
    <defs></defs>
    <g id="Page-1" stroke="none" stroke-width="1" fill="none" fill-rule="evenodd" sketch:type="MSPage">
        <g id="242---Shuffle-(Flat)" sketch:type="MSLayerGroup">
            <path d="M58,29 C58,45.017 45.016,58 29,58 C12.984,58 0,45.017 0,29 C0,12.984 12.984,0 29,0 C45.016,0 58,12.984 58,29" id="Fill-764" fill="#F86363" sketch:type="MSShapeGroup"></path>
            <path d="M12,43 C10.896,43 10,42.104 10,41 C10,39.896 10.896,39 12,39 C17.514,39 22,34.514 22,29 C22,27.896 22.896,27 24,27 C25.104,27 26,27.896 26,29 C26,36.72 19.72,43 12,43" id="Fill-1903" fill="#FFFFFF" sketch:type="MSShapeGroup"></path>
            <path d="M24,31 C22.896,31 22,30.104 22,29 C22,21.28 28.28,15 36,15 L46,15 C47.104,15 48,15.896 48,17 C48,18.104 47.104,19 46,19 L36,19 C30.486,19 26,23.486 26,29 C26,30.104 25.104,31 24,31" id="Fill-1904" fill="#FFFFFF" sketch:type="MSShapeGroup"></path>
            <path d="M46,43 L36,43 C32.584,43 29.294,41.758 26.737,39.502 C25.909,38.771 25.83,37.507 26.561,36.679 C27.291,35.851 28.557,35.772 29.384,36.502 C31.209,38.113 33.56,39 36,39 L46,39 C47.104,39 48,39.896 48,41 C48,42.104 47.104,43 46,43" id="Fill-1905" fill="#FFFFFF" sketch:type="MSShapeGroup"></path>
            <path d="M20.002,22.054 C19.527,22.054 19.051,21.886 18.669,21.544 C16.836,19.903 14.467,19 12,19 L10,19 C8.895,19 8,18.104 8,17 C8,15.896 8.895,15 10,15 L12,15 C15.452,15 18.768,16.266 21.337,18.563 C22.159,19.3 22.229,20.564 21.493,21.388 C21.099,21.829 20.552,22.054 20.002,22.054" id="Fill-1906" fill="#FFFFFF" sketch:type="MSShapeGroup"></path>
            <path d="M12,43 L10,43 C8.895,43 8,42.104 8,41 C8,39.896 8.895,39 10,39 L12,39 C13.104,39 14,39.896 14,41 C14,42.104 13.104,43 12,43" id="Fill-1907" fill="#FFFFFF" sketch:type="MSShapeGroup"></path>
            <path d="M36.002,27 C35.384,27 34.774,26.715 34.383,26.177 C33.732,25.283 33.931,24.032 34.823,23.383 L43.6,17 L34.823,10.617 C33.931,9.968 33.732,8.717 34.383,7.823 C35.031,6.932 36.282,6.731 37.177,7.383 L50.4,17 L37.177,26.617 C36.821,26.876 36.409,27 36.002,27" id="Fill-1908" fill="#FFFFFF" sketch:type="MSShapeGroup"></path>
            <path d="M36.002,51 C35.384,51 34.774,50.715 34.383,50.177 C33.732,49.283 33.931,48.032 34.823,47.383 L43.6,41 L34.823,34.617 C33.931,33.968 33.732,32.717 34.383,31.823 C35.031,30.931 36.282,30.733 37.177,31.383 L50.4,41 L37.177,50.617 C36.821,50.876 36.409,51 36.002,51" id="Fill-1911" fill="#FFFFFF" sketch:type="MSShapeGroup"></path>
        </g>
    </g>
</svg>