<?xml version="1.0" encoding="UTF-8" standalone="no"?>
<svg width="52px" height="52px" viewBox="0 0 52 52" version="1.1" xmlns="http://www.w3.org/2000/svg" xmlns:xlink="http://www.w3.org/1999/xlink" xmlns:sketch="http://www.bohemiancoding.com/sketch/ns">
    <!-- Generator: Sketch 3.2.2 (9983) - http://www.bohemiancoding.com/sketch -->
    <title>223 - Shutdown (Flat)</title>
    <desc>Created with Sketch.</desc>
    <defs></defs>
    <g id="Page-1" stroke="none" stroke-width="1" fill="none" fill-rule="evenodd" sketch:type="MSPage">
        <g id="223---Shutdown-(Flat)" sketch:type="MSLayerGroup" transform="translate(1.000000, 1.000000)">
            <path d="M50,25 C50,38.807 38.807,50 25,50 C11.193,50 0,38.807 0,25 C0,11.193 11.193,0 25,0 C38.807,0 50,11.193 50,25 L50,25 Z" id="Fill-795" fill="#E8EDEE" sketch:type="MSShapeGroup"></path>
            <path d="M50,25 C50,38.807 38.807,50 25,50 C11.193,50 0,38.807 0,25 C0,11.193 11.193,0 25,0 C38.807,0 50,11.193 50,25 L50,25 Z" id="Stroke-796" stroke="#38454F" stroke-width="2" stroke-linecap="round" sketch:type="MSShapeGroup"></path>
            <path d="M5,40 C9.561,46.072 16.821,50 25,50 C33.179,50 40.439,46.072 45,40 L5,40 L5,40 Z" id="Fill-1925" fill="#38454F" sketch:type="MSShapeGroup"></path>
            <path d="M5,40 C9.561,46.072 16.821,50 25,50 C33.179,50 40.439,46.072 45,40 L5,40 L5,40 Z" id="Stroke-1926" stroke="#38454F" stroke-width="2" stroke-linecap="round" sketch:type="MSShapeGroup"></path>
        </g>
    </g>
</svg>