<?xml version="1.0" encoding="UTF-8" standalone="no"?>
<svg width="58px" height="58px" viewBox="0 0 58 58" version="1.1" xmlns="http://www.w3.org/2000/svg" xmlns:xlink="http://www.w3.org/1999/xlink" xmlns:sketch="http://www.bohemiancoding.com/sketch/ns">
    <!-- Generator: Sketch 3.2.2 (9983) - http://www.bohemiancoding.com/sketch -->
    <title>237 - Silent (Flat)</title>
    <desc>Created with Sketch.</desc>
    <defs></defs>
    <g id="Page-1" stroke="none" stroke-width="1" fill="none" fill-rule="evenodd" sketch:type="MSPage">
        <g id="237---Silent-(Flat)" sketch:type="MSLayerGroup">
            <path d="M58,29 C58,45.017 45.016,58 29,58 C12.984,58 0,45.017 0,29 C0,12.984 12.984,0 29,0 C45.016,0 58,12.984 58,29" id="Fill-792" fill="#38454F" sketch:type="MSShapeGroup"></path>
            <path d="M22.427,20 L14.104,20 C12.942,20 12,20.942 12,22.104 L12,34.896 C12,36.058 12.942,37 14.104,37 L22.427,37 C22.802,37 23.171,37.101 23.494,37.291 L36.83,49.707 C38.232,50.531 40,49.52 40,47.893 L40,9.107 C40,7.48 38.232,6.469 36.83,7.294 L23.494,19.709 C23.171,19.9 22.802,20 22.427,20" id="Fill-1920" fill="#7383BF" sketch:type="MSShapeGroup"></path>
        </g>
    </g>
</svg>