<?xml version="1.0" encoding="UTF-8" standalone="no"?>
<svg width="58px" height="59px" viewBox="0 0 58 59" version="1.1" xmlns="http://www.w3.org/2000/svg" xmlns:xlink="http://www.w3.org/1999/xlink" xmlns:sketch="http://www.bohemiancoding.com/sketch/ns">
    <!-- Generator: Sketch 3.2.2 (9983) - http://www.bohemiancoding.com/sketch -->
    <title>72 - Speed Dial (Flat)</title>
    <desc>Created with Sketch.</desc>
    <defs></defs>
    <g id="Page-1" stroke="none" stroke-width="1" fill="none" fill-rule="evenodd" sketch:type="MSPage">
        <g id="Icons" sketch:type="MSArtboardGroup" transform="translate(-1081.000000, -3958.000000)">
            <g id="72---Speed-Dial-(Flat)" sketch:type="MSLayerGroup" transform="translate(1081.000000, 3958.000000)">
                <path d="M29,0.122 C12.984,0.122 0,13.105 0,29.121 C0,37.75 3.778,45.488 9.761,50.798 C15.033,46.622 21.692,44.122 28.939,44.122 C36.22,44.122 42.906,46.645 48.19,50.855 C54.203,45.542 58,37.777 58,29.121 C58,13.105 45.016,0.122 29,0.122" id="Fill-8" fill="#556080" sketch:type="MSShapeGroup"></path>
                <path d="M29,0.122 C12.984,0.122 0,13.105 0,29.121 C0,37.75 3.778,45.488 9.761,50.798 C15.033,46.622 21.692,44.122 28.939,44.122 C36.22,44.122 42.906,46.645 48.19,50.855 C54.203,45.542 58,37.777 58,29.121 C58,13.105 45.016,0.122 29,0.122" id="Fill-8" fill="#556080" sketch:type="MSShapeGroup"></path>
                <path d="M9.752,50.805 C14.872,55.354 21.612,58.121 29,58.121 C36.361,58.121 43.076,55.374 48.19,50.855 C42.906,46.645 36.22,44.122 28.939,44.122 C21.687,44.122 15.025,46.625 9.752,50.805" id="Fill-1309" fill="#38454F" sketch:type="MSShapeGroup"></path>
                <path d="M29,3.121 C28.447,3.121 28,3.568 28,4.121 L28,6.121 C28,6.674 28.447,7.121 29,7.121 C29.553,7.121 30,6.674 30,6.121 L30,4.121 C30,3.568 29.553,3.121 29,3.121" id="Fill-1300" fill="#7383BF" sketch:type="MSShapeGroup"></path>
                <path d="M54.5,28.121 L52.5,28.121 C51.947,28.121 51.5,28.569 51.5,29.121 C51.5,29.674 51.947,30.121 52.5,30.121 L54.5,30.121 C55.053,30.121 55.5,29.674 55.5,29.121 C55.5,28.569 55.053,28.121 54.5,28.121" id="Fill-1301" fill="#7383BF" sketch:type="MSShapeGroup"></path>
                <path d="M6.5,29.121 C6.5,28.569 6.053,28.121 5.5,28.121 L3.5,28.121 C2.947,28.121 2.5,28.569 2.5,29.121 C2.5,29.674 2.947,30.121 3.5,30.121 L5.5,30.121 C6.053,30.121 6.5,29.674 6.5,29.121" id="Fill-1302" fill="#7383BF" sketch:type="MSShapeGroup"></path>
                <path d="M42.25,6.672 C41.771,6.396 41.16,6.559 40.884,7.038 L39.884,8.77 C39.607,9.248 39.771,9.86 40.25,10.136 C40.407,10.227 40.579,10.27 40.749,10.27 C41.095,10.27 41.431,10.091 41.616,9.77 L42.616,8.038 C42.893,7.56 42.729,6.948 42.25,6.672" id="Fill-1303" fill="#7383BF" sketch:type="MSShapeGroup"></path>
                <path d="M51.584,41.505 L49.852,40.505 C49.374,40.229 48.761,40.393 48.485,40.871 C48.209,41.35 48.373,41.961 48.852,42.237 L50.584,43.238 C50.741,43.328 50.913,43.371 51.083,43.371 C51.429,43.371 51.765,43.192 51.95,42.871 C52.227,42.393 52.063,41.781 51.584,41.505" id="Fill-1304" fill="#7383BF" sketch:type="MSShapeGroup"></path>
                <path d="M9.148,17.005 L7.416,16.005 C6.938,15.729 6.326,15.893 6.05,16.371 C5.773,16.85 5.938,17.461 6.416,17.737 L8.148,18.737 C8.306,18.828 8.478,18.871 8.647,18.871 C8.993,18.871 9.329,18.692 9.515,18.371 C9.791,17.893 9.627,17.281 9.148,17.005" id="Fill-1305" fill="#7383BF" sketch:type="MSShapeGroup"></path>
                <path d="M17.111,7.004 C16.835,6.526 16.222,6.362 15.745,6.638 C15.267,6.914 15.103,7.525 15.379,8.004 L16.379,9.737 C16.564,10.057 16.9,10.236 17.246,10.236 C17.416,10.236 17.588,10.194 17.745,10.103 C18.224,9.826 18.388,9.215 18.111,8.736 L17.111,7.004" id="Fill-1306" fill="#7383BF" sketch:type="MSShapeGroup"></path>
                <path d="M49.099,18.405 C49.269,18.405 49.44,18.362 49.598,18.271 L51.329,17.272 C51.808,16.995 51.972,16.384 51.695,15.906 C51.418,15.426 50.806,15.262 50.329,15.539 L48.598,16.539 C48.119,16.816 47.955,17.427 48.231,17.905 C48.417,18.227 48.753,18.405 49.099,18.405" id="Fill-1307" fill="#7383BF" sketch:type="MSShapeGroup"></path>
                <path d="M7.893,40.039 L6.162,41.039 C5.684,41.316 5.52,41.927 5.796,42.406 C5.981,42.727 6.317,42.905 6.663,42.905 C6.833,42.905 7.005,42.863 7.162,42.772 L8.894,41.772 C9.372,41.495 9.536,40.884 9.26,40.405 C8.982,39.926 8.37,39.763 7.893,40.039" id="Fill-1308" fill="#7383BF" sketch:type="MSShapeGroup"></path>
                <path d="M9.752,50.805 C14.872,55.354 21.612,58.121 29,58.121 C36.361,58.121 43.076,55.374 48.19,50.855 C42.906,46.645 36.22,44.122 28.939,44.122 C21.687,44.122 15.025,46.625 9.752,50.805" id="Fill-1309" fill="#38454F" sketch:type="MSShapeGroup"></path>
                <path d="M42.021,17.293 C41.63,16.903 40.997,16.903 40.606,17.293 L32.22,25.681 C30.682,24.684 28.495,24.847 27.172,26.172 C26.416,26.927 26,27.932 26,29 C26,30.069 26.416,31.073 27.172,31.828 C27.927,32.584 28.932,33 30,33 C31.068,33 32.073,32.584 32.828,31.828 C33.584,31.073 34,30.069 34,29 C34,28.355 33.832,27.741 33.545,27.184 L42.021,18.707 C42.411,18.317 42.411,17.684 42.021,17.293 L42.021,17.293 Z M31.414,30.414 C30.658,31.17 29.342,31.17 28.586,30.414 C28.208,30.036 28,29.534 28,29 C28,28.466 28.208,27.964 28.586,27.586 C28.964,27.208 29.466,27 30,27 C30.534,27 31.036,27.208 31.414,27.586 C31.792,27.964 32,28.466 32,29 C32,29.534 31.792,30.036 31.414,30.414 L31.414,30.414 Z" id="Fill-1310" fill="#404960" sketch:type="MSShapeGroup"></path>
                <path d="M41.021,16.293 C40.63,15.902 39.997,15.902 39.606,16.293 L31.22,24.681 C29.682,23.684 27.495,23.847 26.172,25.172 C25.416,25.927 25,26.932 25,28 C25,29.068 25.416,30.073 26.172,30.828 C26.927,31.584 27.932,32 29,32 C30.068,32 31.073,31.584 31.828,30.828 C32.584,30.073 33,29.068 33,28 C33,27.355 32.831,26.741 32.545,26.184 L41.021,17.707 C41.411,17.316 41.411,16.684 41.021,16.293 L41.021,16.293 Z M30.414,29.414 C29.658,30.17 28.342,30.17 27.586,29.414 C27.208,29.036 27,28.534 27,28 C27,27.466 27.208,26.964 27.586,26.586 C27.964,26.208 28.466,26 29,26 C29.534,26 30.036,26.208 30.414,26.586 C30.792,26.964 31,27.466 31,28 C31,28.534 30.792,29.036 30.414,29.414 L30.414,29.414 Z" id="Fill-1311" fill="#FFFFFF" sketch:type="MSShapeGroup"></path>
            </g>
        </g>
    </g>
</svg>