<?xml version="1.0" encoding="UTF-8" standalone="no"?>
<svg width="58px" height="58px" viewBox="0 0 58 58" version="1.1" xmlns="http://www.w3.org/2000/svg" xmlns:xlink="http://www.w3.org/1999/xlink" xmlns:sketch="http://www.bohemiancoding.com/sketch/ns">
    <!-- Generator: Sketch 3.2.2 (9983) - http://www.bohemiancoding.com/sketch -->
    <title>8 - Spotlight (Flat)</title>
    <desc>Created with Sketch.</desc>
    <defs></defs>
    <g id="Page-1" stroke="none" stroke-width="1" fill="none" fill-rule="evenodd" sketch:type="MSPage">
        <g id="Icons" sketch:type="MSArtboardGroup" transform="translate(-361.000000, -4798.000000)">
            <g id="8---Spotlight-(Flat)" sketch:type="MSLayerGroup" transform="translate(361.000000, 4798.000000)">
                <path d="M25,5.5 C25,8.538 19.404,11 12.5,11 C5.596,11 0,8.538 0,5.5 C0,2.462 5.596,0 12.5,0 C19.404,0 25,2.462 25,5.5" id="Fill-1727" fill="#7383BF" sketch:type="MSShapeGroup"></path>
                <path d="M58,5.5 C58,8.538 52.404,11 45.5,11 C38.596,11 33,8.538 33,5.5 C33,2.462 38.596,0 45.5,0 C52.404,0 58,2.462 58,5.5" id="Fill-1728" fill="#7383BF" sketch:type="MSShapeGroup"></path>
                <path d="M45.5,11 C38.596,11 33,8.538 33,5.5 C33,5.332 33.024,5.165 33.057,5 L33,5 L0,58 L57,8 L57.188,7.436 C55.406,9.517 50.852,11 45.5,11" id="Fill-1729" fill="#556080" sketch:type="MSShapeGroup"></path>
                <path d="M20.488,25.095 L29,11.425 L25,5 L24.943,5 C24.976,5.165 25,5.332 25,5.5 C25,8.538 19.404,11 12.5,11 C7.148,11 2.594,9.517 0.812,7.436 L1,8 L20.488,25.095" id="Fill-1730" fill="#424A60" sketch:type="MSShapeGroup"></path>
                <path d="M29,32.562 L58,58 L37.512,25.095 L29,32.562" id="Fill-1731" fill="#424A60" sketch:type="MSShapeGroup"></path>
            </g>
        </g>
    </g>
</svg>