<?xml version="1.0" encoding="UTF-8" standalone="no"?>
<svg width="41px" height="58px" viewBox="0 0 41 58" version="1.1" xmlns="http://www.w3.org/2000/svg" xmlns:xlink="http://www.w3.org/1999/xlink" xmlns:sketch="http://www.bohemiancoding.com/sketch/ns">
    <!-- Generator: Sketch 3.2.2 (9983) - http://www.bohemiancoding.com/sketch -->
    <title>309 - Street Orientation (Flat)</title>
    <desc>Created with Sketch.</desc>
    <defs></defs>
    <g id="Page-1" stroke="none" stroke-width="1" fill="none" fill-rule="evenodd" sketch:type="MSPage">
        <g id="Icons" sketch:type="MSArtboardGroup" transform="translate(-250.000000, -1198.000000)">
            <g id="309---Street-Orientation-(Flat)" sketch:type="MSLayerGroup" transform="translate(250.000000, 1198.000000)">
                <path d="M20,50 L20,27" id="Stroke-610" stroke="#949493" stroke-width="2" stroke-linecap="round" sketch:type="MSShapeGroup"></path>
                <path d="M12,54 L28,54 L28,58 L12,58 L12,54 Z" id="Fill-611" fill="#949493" sketch:type="MSShapeGroup"></path>
                <path d="M15,50 L25,50 L25,54 L15,54 L15,50 Z" id="Fill-612" fill="#C7CBC7" sketch:type="MSShapeGroup"></path>
                <path d="M5,27 L29.859,27 C31.041,27 32,26.042 32,24.859 L32,19.141 C32,17.959 31.041,17 29.859,17 L5,17 L0,22 L5,27" id="Fill-613" fill="#23A24D" sketch:type="MSShapeGroup"></path>
                <path d="M20,11 L20,8" id="Stroke-614" stroke="#949493" stroke-width="2" stroke-linecap="round" sketch:type="MSShapeGroup"></path>
                <path d="M36,11 L11.141,11 C9.959,11 9,11.959 9,13.141 L9,17 L29.859,17 C31.041,17 32,17.959 32,19.141 L32,21 L36,21 L41,16 L36,11" id="Fill-615" fill="#42B05C" sketch:type="MSShapeGroup"></path>
                <path d="M24,4 C24,6.209 22.209,8 20,8 C17.791,8 16,6.209 16,4 C16,1.791 17.791,0 20,0 C22.209,0 24,1.791 24,4" id="Fill-2516" fill="#C7CBC7" sketch:type="MSShapeGroup"></path>
            </g>
        </g>
    </g>
</svg>