<?xml version="1.0" encoding="UTF-8" standalone="no"?>
<svg width="56px" height="59px" viewBox="0 0 56 59" version="1.1" xmlns="http://www.w3.org/2000/svg" xmlns:xlink="http://www.w3.org/1999/xlink" xmlns:sketch="http://www.bohemiancoding.com/sketch/ns">
    <!-- Generator: Sketch 3.2.2 (9983) - http://www.bohemiancoding.com/sketch -->
    <title>25 - Take Notes (Flat)</title>
    <desc>Created with Sketch.</desc>
    <defs></defs>
    <g id="Page-1" stroke="none" stroke-width="1" fill="none" fill-rule="evenodd" sketch:type="MSPage">
        <g id="25---Take-Notes-(Flat)" sketch:type="MSLayerGroup">
            <path d="M38.003,52 L0,52 L0,0.003 L38.003,0.003 C39.658,0.003 41,1.345 41,3 L41,49.004 C41,50.658 39.658,52 38.003,52" id="Fill-1721" fill="#556080" sketch:type="MSShapeGroup"></path>
            <path d="M30,0.003 L35,0.003 L35,52 L30,52 L30,0.003 Z" id="Fill-1722" fill="#D75A4A" sketch:type="MSShapeGroup"></path>
            <path d="M0,17.011 L30,17.011 L30,35.011 L0,35.011 L0,17.011 Z" id="Fill-1723" fill="#424A60" sketch:type="MSShapeGroup"></path>
            <path d="M35,17.011 L41,17.011 L41,35.011 L35,35.011 L35,17.011 Z" id="Fill-1724" fill="#424A60" sketch:type="MSShapeGroup"></path>
            <path d="M10,57 L7,55 L4,57 L4,52 L10,52 L10,57" id="Fill-1725" fill="#ECBA16" sketch:type="MSShapeGroup"></path>
            <path d="M48,7 L52,7 L52,11 L48,11 L48,7 Z" id="Fill-3023" fill="#E0E2E3" sketch:type="MSShapeGroup"></path>
            <path d="M52,0 L49.985,0 C49.711,0 49.45,0.056 49.212,0.156 C49.094,0.206 48.981,0.268 48.875,0.339 C48.347,0.696 48,1.3 48,1.985 L48,7 L52,7 L52,0" id="Fill-3024" fill="#D75A4A" sketch:type="MSShapeGroup"></path>
            <path d="M54.015,0 L54.015,0 C54.289,0 54.55,0.056 54.788,0.156 C54.55,0.056 54.289,0 54.015,0" id="Fill-3025" fill="#D75A4A" sketch:type="MSShapeGroup"></path>
            <path d="M52,11 L56,11 L56,49 L52,49 L52,11 Z" id="Fill-3026" fill="#DB7B1B" sketch:type="MSShapeGroup"></path>
            <path d="M52,7 L56,7 L56,11 L52,11 L52,7 Z" id="Fill-3027" fill="#C4C4C4" sketch:type="MSShapeGroup"></path>
            <path d="M56,1.985 L56,1.985 C56,1.3 55.653,0.696 55.125,0.339 C55.653,0.696 56,1.3 56,1.985" id="Fill-3028" fill="#D75A4A" sketch:type="MSShapeGroup"></path>
            <path d="M56,7 L56,1.985 C56,1.3 55.653,0.696 55.125,0.339 C55.019,0.268 54.906,0.206 54.788,0.156 C54.55,0.056 54.289,0 54.015,0 L52,0 L52,7 L56,7" id="Fill-3029" fill="#B74C44" sketch:type="MSShapeGroup"></path>
            <path d="M56,49 L48,49 L52,56 L56,49" id="Fill-3030" fill="#ECD6BD" sketch:type="MSShapeGroup"></path>
            <path d="M51,58 C51,58.553 51.447,59 52,59 C52.553,59 53,58.553 53,58 L53,54 L51,54 L51,58" id="Fill-3031" fill="#4C4C4C" sketch:type="MSShapeGroup"></path>
            <path d="M48,11 L52,11 L52,49 L48,49 L48,11 Z" id="Fill-3032" fill="#ED8A19" sketch:type="MSShapeGroup"></path>
        </g>
    </g>
</svg>