<?xml version="1.0" encoding="UTF-8" standalone="no"?>
<svg width="53px" height="56px" viewBox="0 0 53 56" version="1.1" xmlns="http://www.w3.org/2000/svg" xmlns:xlink="http://www.w3.org/1999/xlink" xmlns:sketch="http://www.bohemiancoding.com/sketch/ns">
    <!-- Generator: Sketch 3.2.2 (9983) - http://www.bohemiancoding.com/sketch -->
    <title>190 - Thumbs Up (Flat)</title>
    <desc>Created with Sketch.</desc>
    <defs></defs>
    <g id="Page-1" stroke="none" stroke-width="1" fill="none" fill-rule="evenodd" sketch:type="MSPage">
        <g id="190---Thumbs-Up-(Flat)" sketch:type="MSLayerGroup">
            <path d="M0,20 L14,20 L14,56 L0,56 L0,20 Z" id="Fill-848" fill="#4B6DAA" sketch:type="MSShapeGroup"></path>
            <path d="M11,47 C11,49.209 9.209,51 7,51 C4.791,51 3,49.209 3,47 C3,44.791 4.791,43 7,43 C9.209,43 11,44.791 11,47" id="Fill-849" fill="#D8A852" sketch:type="MSShapeGroup"></path>
            <path d="M52,26 C52,23.791 50.209,22 48,22 L32.398,22 L33.385,17.381 C34.139,13.858 33.937,9.563 33.49,6.545 C33.042,3.528 30.34,0 27.513,0 L27.274,0 C24.864,0 24,2.659 24,6 C24,22.25 16,22 16,22 L14,22 L14,54 L43,54 C45.209,54 47,52.209 47,50 C47,47.791 45.209,46 43,46 L46,46 C48.209,46 50,44.209 50,42 C50,39.791 48.209,38 46,38 L49,38 C51.209,38 53,36.209 53,34 C53,31.507 51.387,30.558 49,30.204 C47.837,30.031 45.724,30 45,30 L48,30 C50.209,30 52,28.209 52,26" id="Fill-850" fill="#FCCF9D" sketch:type="MSShapeGroup"></path>
            <path d="M50.62,29 L38,29 C37.448,29 37,29.448 37,30 C37,30.553 37.448,31 38,31 L51.456,31 C50.799,30.598 49.968,30.347 49,30.204 C47.837,30.031 45.724,30 45,30 L48,30 C49.008,30 49.917,29.615 50.62,29" id="Fill-2614" fill="#F8B563" sketch:type="MSShapeGroup"></path>
            <path d="M51.62,37 L38,37 C37.448,37 37,37.448 37,38 C37,38.553 37.448,39 38,39 L48.621,39 C47.917,38.385 47.008,38 46,38 L49,38 C50.008,38 50.917,37.615 51.62,37" id="Fill-2615" fill="#F8B563" sketch:type="MSShapeGroup"></path>
            <path d="M48.62,45 L36,45 C35.448,45 35,45.447 35,46 C35,46.553 35.448,47 36,47 L45.621,47 C44.917,46.385 44.008,46 43,46 L46,46 C47.008,46 47.917,45.615 48.62,45" id="Fill-2616" fill="#F8B563" sketch:type="MSShapeGroup"></path>
        </g>
    </g>
</svg>