<?xml version="1.0" encoding="UTF-8" standalone="no"?>
<svg width="53px" height="56px" viewBox="0 0 53 56" version="1.1" xmlns="http://www.w3.org/2000/svg" xmlns:xlink="http://www.w3.org/1999/xlink" xmlns:sketch="http://www.bohemiancoding.com/sketch/ns">
    <!-- Generator: Sketch 3.2.2 (9983) - http://www.bohemiancoding.com/sketch -->
    <title>189 - Thumbs Down (Flat)</title>
    <desc>Created with Sketch.</desc>
    <defs></defs>
    <g id="Page-1" stroke="none" stroke-width="1" fill="none" fill-rule="evenodd" sketch:type="MSPage">
        <g id="189---Thumbs-Down-(Flat)" sketch:type="MSLayerGroup">
            <path d="M39,0 L53,0 L53,36 L39,36 L39,0 Z" id="Fill-851" fill="#4B6DAA" sketch:type="MSShapeGroup"></path>
            <path d="M42,9 C42,6.791 43.791,5 46,5 C48.209,5 50,6.791 50,9 C50,11.209 48.209,13 46,13 C43.791,13 42,11.209 42,9" id="Fill-852" fill="#D8A852" sketch:type="MSShapeGroup"></path>
            <path d="M1,30 C1,32.209 2.791,34 5,34 L20.602,34 L19.615,38.619 C18.861,42.142 19.062,46.437 19.51,49.455 C19.958,52.472 22.66,56 25.487,56 L25.726,56 C28.136,56 29,53.341 29,50 C29,33.75 37,34 37,34 L39,34 L39,2 L10,2 C7.791,2 6,3.791 6,6 C6,8.209 7.791,10 10,10 L7,10 C4.791,10 3,11.791 3,14 C3,16.209 4.791,18 7,18 L4,18 C1.791,18 0,19.791 0,22 C0,24.493 1.613,25.442 4,25.796 C5.163,25.969 7.276,26 8,26 L5,26 C2.791,26 1,27.791 1,30" id="Fill-853" fill="#FCCF9D" sketch:type="MSShapeGroup"></path>
            <path d="M18,10 C18,9.447 17.552,9 17,9 L7.379,9 C8.083,9.615 8.992,10 10,10 L7,10 C5.992,10 5.083,10.385 4.38,11 L17,11 C17.552,11 18,10.553 18,10" id="Fill-2617" fill="#F8B563" sketch:type="MSShapeGroup"></path>
            <path d="M15,17 L4.379,17 C5.083,17.615 5.992,18 7,18 L4,18 C2.992,18 2.083,18.385 1.38,19 L15,19 C15.552,19 16,18.553 16,18 C16,17.448 15.552,17 15,17" id="Fill-2618" fill="#F8B563" sketch:type="MSShapeGroup"></path>
            <path d="M15,25 L1.544,25 C2.201,25.403 3.032,25.653 4,25.796 C5.163,25.969 7.276,26 8,26 L5,26 C3.992,26 3.083,26.385 2.38,27 L15,27 C15.552,27 16,26.553 16,26 C16,25.448 15.552,25 15,25" id="Fill-2619" fill="#F8B563" sketch:type="MSShapeGroup"></path>
        </g>
    </g>
</svg>