<?xml version="1.0" encoding="UTF-8" standalone="no"?>
<svg width="51px" height="58px" viewBox="0 0 51 58" version="1.1" xmlns="http://www.w3.org/2000/svg" xmlns:xlink="http://www.w3.org/1999/xlink" xmlns:sketch="http://www.bohemiancoding.com/sketch/ns">
    <!-- Generator: Sketch 3.2.2 (9983) - http://www.bohemiancoding.com/sketch -->
    <title>147 - Time Flies (Flat)</title>
    <desc>Created with Sketch.</desc>
    <defs></defs>
    <g id="Page-1" stroke="none" stroke-width="1" fill="none" fill-rule="evenodd" sketch:type="MSPage">
        <g id="147---Time-Flies-(Flat)" sketch:type="MSLayerGroup">
            <path d="M27,10 L15,10 C14.448,10 14,10.447 14,11 C14,11.553 14.448,12 15,12 L27,12 C27.552,12 28,11.553 28,11 C28,10.447 27.552,10 27,10" id="Fill-1534" fill="#7FABDA" sketch:type="MSShapeGroup"></path>
            <path d="M15,6 L27,6 C27.552,6 28,5.553 28,5 C28,4.447 27.552,4 27,4 L15,4 C14.448,4 14,4.447 14,5 C14,5.553 14.448,6 15,6" id="Fill-1535" fill="#7FABDA" sketch:type="MSShapeGroup"></path>
            <path d="M27,17 L10,17 C9.448,17 9,17.448 9,18 C9,18.553 9.448,19 10,19 L27,19 C27.552,19 28,18.553 28,18 C28,17.448 27.552,17 27,17" id="Fill-1536" fill="#7FABDA" sketch:type="MSShapeGroup"></path>
            <path d="M27,24 L5,24 C4.448,24 4,24.447 4,25 C4,25.553 4.448,26 5,26 L27,26 C27.552,26 28,25.553 28,25 C28,24.447 27.552,24 27,24" id="Fill-1537" fill="#7FABDA" sketch:type="MSShapeGroup"></path>
            <path d="M27,31 L1,31 C0.448,31 0,31.447 0,32 C0,32.553 0.448,33 1,33 L27,33 C27.552,33 28,32.553 28,32 C28,31.447 27.552,31 27,31" id="Fill-1538" fill="#7FABDA" sketch:type="MSShapeGroup"></path>
            <path d="M27,38 L7,38 C6.448,38 6,38.448 6,39 C6,39.553 6.448,40 7,40 L27,40 C27.552,40 28,39.553 28,39 C28,38.448 27.552,38 27,38" id="Fill-1539" fill="#7FABDA" sketch:type="MSShapeGroup"></path>
            <path d="M27,45 L13,45 C12.448,45 12,45.447 12,46 C12,46.553 12.448,47 13,47 L27,47 C27.552,47 28,46.553 28,46 C28,45.447 27.552,45 27,45" id="Fill-1540" fill="#7FABDA" sketch:type="MSShapeGroup"></path>
            <path d="M27,52 L13,52 C12.448,52 12,52.447 12,53 C12,53.553 12.448,54 13,54 L27,54 C27.552,54 28,53.553 28,53 C28,52.447 27.552,52 27,52" id="Fill-1541" fill="#7FABDA" sketch:type="MSShapeGroup"></path>
            <path d="M49,0 L25,0 L25,4 L49,4 C50.105,4 51,3.105 51,2 C51,0.896 50.105,0 49,0" id="Fill-3002" fill="#23A24D" sketch:type="MSShapeGroup"></path>
            <path d="M49,54 L25,54 L25,58 L49,58 C50.105,58 51,57.105 51,56 C51,54.896 50.105,54 49,54" id="Fill-3003" fill="#23A24D" sketch:type="MSShapeGroup"></path>
            <path d="M33.372,27.817 C39.28,24.351 43,17.979 43,11 L43,4 L25,4 L25,54 L43,54 L43,47 C43,40.021 39.28,33.649 33.372,30.183 C32.472,29.655 32.472,28.345 33.372,27.817" id="Fill-3004" fill="#7FABDA" sketch:type="MSShapeGroup"></path>
        </g>
    </g>
</svg>