<?xml version="1.0" encoding="UTF-8" standalone="no"?>
<svg width="50px" height="60px" viewBox="0 0 50 60" version="1.1" xmlns="http://www.w3.org/2000/svg" xmlns:xlink="http://www.w3.org/1999/xlink" xmlns:sketch="http://www.bohemiancoding.com/sketch/ns">
    <!-- Generator: Sketch 3.2.2 (9983) - http://www.bohemiancoding.com/sketch -->
    <title>149 - Time-Tracking (Flat)</title>
    <desc>Created with Sketch.</desc>
    <defs></defs>
    <g id="Page-1" stroke="none" stroke-width="1" fill="none" fill-rule="evenodd" sketch:type="MSPage">
        <g id="149---Time-Tracking-(Flat)" sketch:type="MSLayerGroup">
            <path d="M36.857,22.096 C38.82,20.786 40,18.583 40,16.222 L40,5 L10,5 L10,16.222 C10,18.583 11.18,20.786 13.143,22.096 L23,28.667 L23,31.333 L13.143,37.904 C11.18,39.214 10,41.418 10,43.778 L10,55 L40,55 L40,43.778 C40,41.418 38.82,39.214 36.857,37.904 L27,31.333 L27,28.667 L36.857,22.096" id="Fill-185" fill="#7383BF" sketch:type="MSShapeGroup"></path>
            <path d="M35.192,19.6 C36.324,18.845 37,17.582 37,16.223 C37,14.917 36.111,13.778 34.844,13.461 L19.791,9.698 C16.342,8.835 13,11.445 13,15 L13,16.223 C13,17.582 13.676,18.845 14.808,19.6 L24,26.346 L24,42.223 C24,45.852 20.236,48.258 16.942,46.734 C15.168,45.913 13.02,47.128 13,49.083 L13,49.123 L13,55 L37,55 L37,43.778 L37,43.737 C36.981,41.806 35.111,40.415 33.208,40.746 L31.159,41.102 C28.465,41.571 26,39.497 26,36.763 L26,26.346 L35.192,19.6" id="Fill-2959" fill="#424A60" sketch:type="MSShapeGroup"></path>
            <path d="M5,55 L45,55 L45,59 L5,59 L5,55 Z" id="Fill-2960" fill="#424A60" sketch:type="MSShapeGroup"></path>
            <path d="M49,58 L46,58 L46,54 L4,54 L4,58 L1,58 C0.448,58 0,58.447 0,59 C0,59.553 0.448,60 1,60 L49,60 C49.552,60 50,59.553 50,59 C50,58.447 49.552,58 49,58 L49,58 Z M6,56 L44,56 L44,58 L6,58 L6,56 Z" id="Fill-2961" fill="#556080" sketch:type="MSShapeGroup"></path>
            <path d="M5,1 L45,1 L45,5 L5,5 L5,1 Z" id="Fill-2962" fill="#424A60" sketch:type="MSShapeGroup"></path>
            <path d="M49,0 L1,0 C0.448,0 0,0.448 0,1 C0,1.553 0.448,2 1,2 L4,2 L4,6 L46,6 L46,2 L49,2 C49.552,2 50,1.553 50,1 C50,0.448 49.552,0 49,0 L49,0 Z M6,2 L44,2 L44,4 L6,4 L6,2 Z" id="Fill-2963" fill="#556080" sketch:type="MSShapeGroup"></path>
            <path d="M19.999,24 C19.809,24 19.616,23.945 19.445,23.832 L14.808,20.74 C13.676,19.986 13,18.724 13,17.363 L13,15.141 C13,14.588 13.448,14.141 14,14.141 C14.552,14.141 15,14.588 15,15.141 L15,17.363 C15,18.053 15.343,18.694 15.917,19.076 L20.555,22.168 C21.014,22.475 21.138,23.095 20.832,23.555 C20.639,23.844 20.322,24 19.999,24" id="Fill-3005" fill="#7FABDA" sketch:type="MSShapeGroup"></path>
            <path d="M36,46 C35.448,46 35,45.553 35,45 L35,42.778 C35,42.088 34.657,41.447 34.083,41.065 L29.445,37.973 C28.986,37.666 28.862,37.046 29.168,36.586 C29.475,36.126 30.094,36.002 30.555,36.309 L35.192,39.401 C36.324,40.154 37,41.417 37,42.778 L37,45 C37,45.553 36.552,46 36,46" id="Fill-3006" fill="#7FABDA" sketch:type="MSShapeGroup"></path>
        </g>
    </g>
</svg>