<?xml version="1.0" encoding="UTF-8" standalone="no"?>
<svg width="57px" height="60px" viewBox="0 0 57 60" version="1.1" xmlns="http://www.w3.org/2000/svg" xmlns:xlink="http://www.w3.org/1999/xlink" xmlns:sketch="http://www.bohemiancoding.com/sketch/ns">
    <!-- Generator: Sketch 3.2.2 (9983) - http://www.bohemiancoding.com/sketch -->
    <title>71 - Tracked Time (Flat)</title>
    <desc>Created with Sketch.</desc>
    <defs></defs>
    <g id="Page-1" stroke="none" stroke-width="1" fill="none" fill-rule="evenodd" sketch:type="MSPage">
        <g id="Icons" sketch:type="MSArtboardGroup" transform="translate(-1201.000000, -3958.000000)">
            <g id="71---Tracked-Time-(Flat)" sketch:type="MSLayerGroup" transform="translate(1201.000000, 3958.000000)">
                <path d="M47.222,13.737 L50.757,10.201" id="Stroke-108" stroke="#424A60" stroke-width="2" stroke-linecap="round" sketch:type="MSShapeGroup"></path>
                <path d="M52.172,4.544 L47.929,8.787 L52.172,13.03 L56.414,8.787 L52.172,4.544" id="Fill-110" fill="#B0B6BB" sketch:type="MSShapeGroup"></path>
                <path d="M28.837,6.122 C26.829,6.122 24.877,6.357 23,6.787 L23,13.121 L15,13.121 C14.447,13.121 14,13.569 14,14.121 C14,14.674 14.447,15.121 15,15.121 L23,15.121 L23,20.121 L10,20.121 C9.447,20.121 9,20.568 9,21.121 C9,21.674 9.447,22.121 10,22.121 L23,22.121 L23,27.121 L5,27.121 C4.447,27.121 4,27.568 4,28.121 C4,28.674 4.447,29.121 5,29.121 L23,29.121 L23,34.121 L1,34.121 C0.447,34.121 0,34.569 0,35.121 C0,35.674 0.447,36.121 1,36.121 L23,36.121 L23,41.121 L7,41.121 C6.447,41.121 6,41.568 6,42.121 C6,42.674 6.447,43.121 7,43.121 L23,43.121 L23,48.121 L13,48.121 C12.447,48.121 12,48.569 12,49.121 C12,49.674 12.447,50.121 13,50.121 L23,50.121 L23,57.455 C24.877,57.886 26.829,58.121 28.837,58.121 C43.196,58.121 54.837,46.481 54.837,32.122 C54.837,17.762 43.196,6.122 28.837,6.122" id="Fill-111" fill="#3083C9" sketch:type="MSShapeGroup"></path>
                <path d="M42.707,23.293 C42.359,22.947 41.812,22.903 41.414,23.19 L28.467,32.555 C27.623,33.169 27.092,34.118 27.011,35.159 C26.93,36.2 27.307,37.219 28.044,37.956 C28.717,38.629 29.611,39 30.562,39 C31.699,39 32.777,38.451 33.447,37.531 L42.811,24.586 C43.098,24.189 43.055,23.641 42.707,23.293" id="Fill-1290" fill="#2B77AA" sketch:type="MSShapeGroup"></path>
                <path d="M41.707,21.414 C41.359,21.069 40.812,21.025 40.414,21.311 L27.467,30.676 C26.623,31.29 26.092,32.239 26.011,33.28 C25.93,34.322 26.307,35.34 27.044,36.078 C27.717,36.75 28.611,37.121 29.562,37.121 C30.699,37.121 31.777,36.573 32.447,35.651 L41.811,22.707 C42.098,22.31 42.055,21.762 41.707,21.414" id="Fill-1291" fill="#F0CE49" sketch:type="MSShapeGroup"></path>
                <path d="M27,6.206 C27.661,6.155 28.326,6.122 29,6.122 C29.674,6.122 30.339,6.155 31,6.206 L31,3.122 L33.5,3.122 C34.328,3.122 35,2.45 35,1.622 C35,0.793 34.328,0.122 33.5,0.122 L24.5,0.122 C23.672,0.122 23,0.793 23,1.622 C23,2.45 23.672,3.122 24.5,3.122 L27,3.122 L27,6.206" id="Fill-1292" fill="#424A60" sketch:type="MSShapeGroup"></path>
                <path d="M29,5.121 C28.447,5.121 28,5.568 28,6.121 L28,9.121 C28,9.674 28.447,10.121 29,10.121 C29.553,10.121 30,9.674 30,9.121 L30,6.121 C30,5.568 29.553,5.121 29,5.121" id="Fill-1293" fill="#A2C9ED" sketch:type="MSShapeGroup"></path>
                <path d="M29,54.121 C28.447,54.121 28,54.569 28,55.121 L28,58.121 C28,58.674 28.447,59.121 29,59.121 C29.553,59.121 30,58.674 30,58.121 L30,55.121 C30,54.569 29.553,54.121 29,54.121" id="Fill-1294" fill="#A2C9ED" sketch:type="MSShapeGroup"></path>
                <path d="M54.837,31.121 L51.837,31.121 C51.284,31.121 50.837,31.569 50.837,32.121 C50.837,32.674 51.284,33.121 51.837,33.121 L54.837,33.121 C55.39,33.121 55.837,32.674 55.837,32.121 C55.837,31.569 55.39,31.121 54.837,31.121" id="Fill-1295" fill="#A2C9ED" sketch:type="MSShapeGroup"></path>
                <path d="M42.337,8.738 C41.858,8.461 41.247,8.626 40.971,9.105 L39.471,11.703 C39.194,12.182 39.358,12.793 39.837,13.07 C39.994,13.16 40.166,13.203 40.336,13.203 C40.682,13.203 41.018,13.024 41.203,12.703 L42.703,10.105 C42.979,9.626 42.815,9.015 42.337,8.738" id="Fill-1296" fill="#A2C9ED" sketch:type="MSShapeGroup"></path>
                <path d="M51.854,44.255 L49.256,42.755 C48.778,42.478 48.166,42.641 47.89,43.121 C47.613,43.6 47.777,44.211 48.256,44.487 L50.854,45.987 C51.011,46.078 51.183,46.121 51.353,46.121 C51.698,46.121 52.034,45.942 52.22,45.621 C52.496,45.143 52.332,44.531 51.854,44.255" id="Fill-1297" fill="#A2C9ED" sketch:type="MSShapeGroup"></path>
                <path d="M41.203,51.54 C40.926,51.06 40.313,50.896 39.837,51.174 C39.358,51.45 39.194,52.062 39.471,52.54 L40.971,55.138 C41.156,55.459 41.492,55.638 41.838,55.638 C42.008,55.638 42.18,55.595 42.337,55.504 C42.815,55.228 42.979,54.617 42.703,54.138 L41.203,51.54" id="Fill-1298" fill="#A2C9ED" sketch:type="MSShapeGroup"></path>
                <path d="M48.757,21.621 C48.927,21.621 49.099,21.578 49.256,21.487 L51.854,19.987 C52.332,19.711 52.496,19.1 52.22,18.621 C51.943,18.142 51.33,17.978 50.854,18.255 L48.256,19.755 C47.777,20.031 47.613,20.643 47.89,21.121 C48.075,21.443 48.411,21.621 48.757,21.621" id="Fill-1299" fill="#A2C9ED" sketch:type="MSShapeGroup"></path>
            </g>
        </g>
    </g>
</svg>