<?xml version="1.0" encoding="UTF-8" standalone="no"?>
<svg width="52px" height="50px" viewBox="0 0 52 50" version="1.1" xmlns="http://www.w3.org/2000/svg" xmlns:xlink="http://www.w3.org/1999/xlink" xmlns:sketch="http://www.bohemiancoding.com/sketch/ns">
    <!-- Generator: Sketch 3.2.2 (9983) - http://www.bohemiancoding.com/sketch -->
    <title>159 - Track (Flat)</title>
    <desc>Created with Sketch.</desc>
    <defs></defs>
    <g id="Page-1" stroke="none" stroke-width="1" fill="none" fill-rule="evenodd" sketch:type="MSPage">
        <g id="159---Track-(Flat)" sketch:type="MSLayerGroup">
            <path d="M18,43 L0,49 L0,6 L18,0 L18,43" id="Fill-1020" fill="#556080" sketch:type="MSShapeGroup"></path>
            <path d="M52,41 L35,50 L35,9 L52,0 L52,41" id="Fill-1021" fill="#465066" sketch:type="MSShapeGroup"></path>
            <path d="M10,16 L10,19" id="Stroke-1022" stroke="#424A60" stroke-width="2" stroke-linecap="round" stroke-linejoin="round" sketch:type="MSShapeGroup"></path>
            <path d="M14,12 C14,14.209 12.209,16 10,16 C7.791,16 6,14.209 6,12 C6,9.791 7.791,8 10,8 C12.209,8 14,9.791 14,12" id="Fill-1023" fill="#D75A4A" sketch:type="MSShapeGroup"></path>
            <path d="M31.418,32.497 C30.876,32.393 30.522,31.867 30.627,31.325 C30.732,30.783 31.255,30.427 31.799,30.534 C32.917,30.751 33.963,30.837 35,30.8 L35,9 L18,0 L18,28.228 C18.624,28.152 19.263,28.101 19.918,28.087 L19.94,28.087 C20.483,28.087 20.928,28.521 20.94,29.065 C20.952,29.618 20.514,30.075 19.961,30.087 C19.287,30.101 18.633,30.155 18,30.242 L18,43 L35,50 L35,32.8 C34.86,32.803 34.718,32.815 34.579,32.815 C33.571,32.815 32.508,32.708 31.418,32.497 L31.418,32.497 Z M28.707,30.74 C28.547,31.124 28.175,31.355 27.784,31.355 C27.656,31.355 27.525,31.33 27.399,31.278 C27.041,31.128 26.785,31.008 26.651,30.944 C25.667,30.693 24.7,30.495 23.774,30.354 C23.228,30.271 22.853,29.76 22.936,29.214 C23.02,28.668 23.531,28.291 24.076,28.377 C25.099,28.533 26.166,28.753 27.249,29.031 C27.32,29.05 27.389,29.076 27.454,29.11 C27.471,29.118 27.729,29.247 28.17,29.432 C28.68,29.645 28.92,30.231 28.707,30.74 L28.707,30.74 Z" id="Fill-1024" fill="#7383BF" sketch:type="MSShapeGroup"></path>
            <path d="M15.736,28.653 C15.203,28.795 14.885,29.343 15.026,29.876 C15.145,30.324 15.549,30.62 15.992,30.62 C16.077,30.62 16.163,30.61 16.249,30.587 C16.809,30.439 17.395,30.325 18,30.242 L18,28.228 C17.217,28.324 16.459,28.462 15.736,28.653" id="Fill-1025" fill="#F0CE49" sketch:type="MSShapeGroup"></path>
            <path d="M11.805,30.342 C10.599,31.099 9.51,32.047 8.57,33.162 C8.214,33.584 8.268,34.215 8.69,34.571 C8.878,34.73 9.107,34.807 9.334,34.807 C9.619,34.807 9.902,34.686 10.1,34.451 C10.906,33.495 11.837,32.683 12.868,32.037 C13.335,31.743 13.477,31.126 13.184,30.658 C12.89,30.19 12.272,30.048 11.805,30.342" id="Fill-1026" fill="#F0CE49" sketch:type="MSShapeGroup"></path>
            <path d="M7.627,36.276 C7.125,36.046 6.531,36.264 6.3,36.766 C5.273,38.991 5.019,40.789 5.009,40.864 C4.935,41.411 5.316,41.914 5.863,41.989 C5.909,41.996 5.956,41.999 6.001,41.999 C6.492,41.999 6.92,41.637 6.991,41.138 C6.993,41.122 7.222,39.541 8.116,37.604 C8.347,37.102 8.128,36.508 7.627,36.276" id="Fill-1027" fill="#F0CE49" sketch:type="MSShapeGroup"></path>
            <path d="M47.068,12.919 C47.058,12.366 46.579,11.947 46.05,11.937 C45.498,11.947 45.059,12.403 45.068,12.954 C45.075,13.301 45.078,13.642 45.078,13.977 C45.078,14.977 45.048,15.949 44.989,16.869 C44.954,17.42 45.372,17.896 45.923,17.931 C45.945,17.932 45.967,17.933 45.988,17.933 C46.511,17.933 46.951,17.526 46.985,16.996 C47.047,16.035 47.078,15.019 47.078,13.977 C47.078,13.63 47.075,13.278 47.068,12.919" id="Fill-1028" fill="#AF903A" sketch:type="MSShapeGroup"></path>
            <path d="M45.69,19.914 C45.144,19.824 44.624,20.171 44.523,20.714 C44.27,22.062 43.928,23.294 43.504,24.377 C43.303,24.891 43.556,25.471 44.07,25.673 C44.19,25.72 44.313,25.741 44.435,25.741 C44.834,25.741 45.212,25.5 45.366,25.106 C45.836,23.906 46.213,22.553 46.489,21.081 C46.59,20.539 46.233,20.017 45.69,19.914" id="Fill-1029" fill="#AF903A" sketch:type="MSShapeGroup"></path>
            <path d="M41.702,27.582 C40.926,28.549 40.006,29.308 38.967,29.839 C38.476,30.091 38.281,30.693 38.532,31.185 C38.709,31.53 39.06,31.73 39.423,31.73 C39.576,31.73 39.732,31.694 39.877,31.62 C41.17,30.959 42.309,30.022 43.262,28.834 C43.607,28.403 43.539,27.774 43.108,27.428 C42.678,27.085 42.048,27.152 41.702,27.582" id="Fill-1030" fill="#AF903A" sketch:type="MSShapeGroup"></path>
            <path d="M35.512,30.78 C35.342,30.793 35.171,30.794 35,30.8 L35,32.8 C35.222,32.792 35.443,32.791 35.667,32.774 C36.218,32.731 36.629,32.25 36.587,31.699 C36.544,31.149 36.06,30.729 35.512,30.78" id="Fill-1031" fill="#AF903A" sketch:type="MSShapeGroup"></path>
            <path d="M28.17,29.432 C27.729,29.247 27.471,29.118 27.454,29.11 C27.389,29.076 27.32,29.05 27.249,29.031 C26.166,28.753 25.099,28.533 24.076,28.377 C23.531,28.291 23.02,28.668 22.936,29.214 C22.853,29.76 23.228,30.271 23.774,30.354 C24.7,30.495 25.667,30.693 26.651,30.944 C26.785,31.008 27.041,31.128 27.399,31.278 C27.525,31.33 27.656,31.355 27.784,31.355 C28.175,31.355 28.547,31.124 28.707,30.74 C28.92,30.231 28.68,29.645 28.17,29.432" id="Fill-1032" fill="#F9EE2B" sketch:type="MSShapeGroup"></path>
            <path d="M31.799,30.534 C31.255,30.427 30.732,30.783 30.627,31.325 C30.522,31.867 30.876,32.393 31.418,32.497 C32.508,32.708 33.571,32.815 34.579,32.815 C34.718,32.815 34.86,32.803 35,32.8 L35,30.8 C33.963,30.837 32.917,30.751 31.799,30.534" id="Fill-1033" fill="#F9EE2B" sketch:type="MSShapeGroup"></path>
            <path d="M20.94,29.065 C20.928,28.521 20.483,28.087 19.94,28.087 L19.918,28.087 C19.263,28.101 18.624,28.152 18,28.228 L18,30.242 C18.633,30.155 19.287,30.101 19.961,30.087 C20.514,30.075 20.952,29.618 20.94,29.065" id="Fill-1034" fill="#F9EE2B" sketch:type="MSShapeGroup"></path>
            <path d="M8,22 L12,26 M8,26 L12,22" id="Stroke-1035" stroke="#424A60" stroke-width="2" stroke-linecap="round" stroke-linejoin="round" sketch:type="MSShapeGroup"></path>
        </g>
    </g>
</svg>