<?xml version="1.0" encoding="UTF-8" standalone="no"?>
<svg width="58px" height="51px" viewBox="0 0 58 51" version="1.1" xmlns="http://www.w3.org/2000/svg" xmlns:xlink="http://www.w3.org/1999/xlink" xmlns:sketch="http://www.bohemiancoding.com/sketch/ns">
    <!-- Generator: Sketch 3.2.2 (9983) - http://www.bohemiancoding.com/sketch -->
    <title>52 - Unlock Folder (Flat)</title>
    <desc>Created with Sketch.</desc>
    <defs></defs>
    <g id="Page-1" stroke="none" stroke-width="1" fill="none" fill-rule="evenodd" sketch:type="MSPage">
        <g id="Icons" sketch:type="MSArtboardGroup" transform="translate(-1081.000000, -4202.000000)">
            <g id="52---Unlock-Folder-(Flat)" sketch:type="MSLayerGroup" transform="translate(1081.000000, 4202.000000)">
                <path d="M25,7 L20,0 L0,0 L0,51 L58,51 L58,14 L30,14 L25,7" id="Fill-90" fill="#556080" sketch:type="MSShapeGroup"></path>
                <path d="M30,14 L58,14 L58,7 L25,7 L30,14" id="Fill-91" fill="#3C4451" sketch:type="MSShapeGroup"></path>
                <path d="M24,25 C24,22.239 26.239,20 29,20 C31.761,20 34,22.239 34,25 L34,30" id="Path" stroke="#424A60" stroke-width="2" stroke-linecap="round" sketch:type="MSShapeGroup"></path>
                <path d="M20,30 L38,30 L38,44 L20,44 L20,30 Z" id="Fill-3074" fill="#7383BF" sketch:type="MSShapeGroup"></path>
                <path d="M32,36 C32,34.343 30.657,33 29,33 C27.343,33 26,34.343 26,36 C26,37.305 26.837,38.403 28,38.817 L28,41 C28,41.553 28.447,42 29,42 C29.553,42 30,41.553 30,41 L30,38.817 C31.163,38.403 32,37.305 32,36" id="Fill-3075" fill="#424A60" sketch:type="MSShapeGroup"></path>
            </g>
        </g>
    </g>
</svg>