<?xml version="1.0" encoding="UTF-8" standalone="no"?>
<svg width="54px" height="60px" viewBox="0 0 54 60" version="1.1" xmlns="http://www.w3.org/2000/svg" xmlns:xlink="http://www.w3.org/1999/xlink" xmlns:sketch="http://www.bohemiancoding.com/sketch/ns">
    <!-- Generator: Sketch 3.2.2 (9983) - http://www.bohemiancoding.com/sketch -->
    <title>319 - Unlock Orientation (Flat)</title>
    <desc>Created with Sketch.</desc>
    <defs></defs>
    <g id="Page-1" stroke="none" stroke-width="1" fill="none" fill-rule="evenodd" sketch:type="MSPage">
        <g id="Icons" sketch:type="MSArtboardGroup" transform="translate(-243.000000, -1077.000000)">
            <g id="319---Unlock-Orientation-(Flat)" sketch:type="MSLayerGroup" transform="translate(244.000000, 1078.000000)">
                <path d="M21,14 L21,13 C21,10.239 23.239,8 26,8 C28.761,8 31,10.239 31,13 L31,21" id="Stroke-1212" stroke="#949493" stroke-width="2" stroke-linecap="round" sketch:type="MSShapeGroup"></path>
                <path d="M26,52 C11.641,52 0,40.359 0,26 C0,11.641 11.641,0 26,0 C40.359,0 52,11.641 52,26 C52,33.135 49.126,39.599 44.472,44.297 M26,52 L20,58 M26,52 L20,46" id="Stroke-1213" stroke="#38454F" stroke-width="2" stroke-linecap="round" stroke-linejoin="round" sketch:type="MSShapeGroup"></path>
                <path d="M16,21 L36,21 L36,38 L16,38 L16,21 Z" id="Fill-2506" fill="#EC7937" sketch:type="MSShapeGroup"></path>
                <path d="M29,28 C29,26.343 27.657,25 26,25 C24.343,25 23,26.343 23,28 C23,29.317 23.854,30.424 25.035,30.827 C25.024,30.886 25,30.939 25,31 L25,34 C25,34.553 25.448,35 26,35 C26.552,35 27,34.553 27,34 L27,31 C27,30.939 26.976,30.886 26.965,30.827 C28.146,30.424 29,29.317 29,28" id="Fill-2507" fill="#FFFFFF" sketch:type="MSShapeGroup"></path>
            </g>
        </g>
    </g>
</svg>