<?xml version="1.0" encoding="UTF-8" standalone="no"?>
<svg width="58px" height="53px" viewBox="0 0 58 53" version="1.1" xmlns="http://www.w3.org/2000/svg" xmlns:xlink="http://www.w3.org/1999/xlink" xmlns:sketch="http://www.bohemiancoding.com/sketch/ns">
    <!-- Generator: Sketch 3.2.2 (9983) - http://www.bohemiancoding.com/sketch -->
    <title>299 - Users (Flat)</title>
    <desc>Created with Sketch.</desc>
    <defs></defs>
    <g id="Page-1" stroke="none" stroke-width="1" fill="none" fill-rule="evenodd" sketch:type="MSPage">
        <g id="Icons" sketch:type="MSArtboardGroup" transform="translate(-241.000000, -1322.000000)">
            <g id="299---Users-(Flat)" sketch:type="MSLayerGroup" transform="translate(241.000000, 1322.000000)">
                <path d="M39.566,42.783 L30.014,38.007 C28.78,37.39 28,36.128 28,34.749 L28,31 C28.268,30.695 28.576,30.302 28.904,29.838 C30.205,28 31.19,25.977 31.873,23.855 C33.097,23.477 34,22.345 34,21 L34,17 C34,16.12 33.609,15.333 33,14.783 L33,9 C33,9 34.187,0 22,0 C9.812,0 11,9 11,9 L11,14.783 C10.391,15.333 10,16.12 10,17 L10,21 C10,22.054 10.554,22.982 11.383,23.517 C12.382,27.869 15,31 15,31 L15,34.655 C15,35.989 14.272,37.215 13.101,37.854 L4.18,42.72 C1.603,44.125 0,46.826 0,49.762 L0,53 L44,53 L44,49.958 C44,46.919 42.283,44.142 39.566,42.783" id="Fill-623" fill="#3083C9" sketch:type="MSShapeGroup"></path>
                <path d="M54.07,43.944 L44.296,39.711 C43.762,39.444 43.326,38.875 43.019,38.258 C42.743,37.7 43.156,37.045 43.778,37.045 L50.661,37.045 C50.661,37.045 53.185,37.287 55.132,36.451 C56.272,35.961 56.665,34.531 55.951,33.515 C53.866,30.546 49.556,23.557 49.416,16.338 C49.416,16.338 49.177,5.227 38.214,5.136 C36.028,5.155 34.244,5.613 32.776,6.325 C33.152,7.825 33,9 33,9 L33,14.783 C33.609,15.333 34,16.12 34,17 L34,21 C34,22.345 33.097,23.477 31.873,23.855 C31.19,25.977 30.205,28 28.904,29.838 C28.576,30.302 28.268,30.695 28,31 L28,34.749 C28,35.601 28.299,36.407 28.818,37.045 L31.569,37.045 C32.255,37.045 32.558,37.914 32.019,38.339 C31.834,38.485 31.655,38.622 31.489,38.745 L39.566,42.783 C42.283,44.142 44,46.919 44,49.958 L44,53 L58,53 L58,50.303 C58,47.61 56.478,45.148 54.07,43.944" id="Fill-626" fill="#CB465F" sketch:type="MSShapeGroup"></path>
            </g>
        </g>
    </g>
</svg>