<?xml version="1.0" encoding="UTF-8" standalone="no"?>
<svg width="56px" height="44px" viewBox="0 0 56 44" version="1.1" xmlns="http://www.w3.org/2000/svg" xmlns:xlink="http://www.w3.org/1999/xlink" xmlns:sketch="http://www.bohemiancoding.com/sketch/ns">
    <!-- Generator: Sketch 3.2.2 (9983) - http://www.bohemiancoding.com/sketch -->
    <title>279 - Video (Flat)</title>
    <desc>Created with Sketch.</desc>
    <defs></defs>
    <g id="Page-1" stroke="none" stroke-width="1" fill="none" fill-rule="evenodd" sketch:type="MSPage">
        <g id="Icons" sketch:type="MSArtboardGroup" transform="translate(-242.000000, -1566.000000)">
            <g id="279---Video-(Flat)" sketch:type="MSLayerGroup" transform="translate(242.000000, 1566.000000)">
                <path d="M10,0 L46,0 L46,44 L10,44 L10,0 Z" id="Fill-241" fill="#424A60" sketch:type="MSShapeGroup"></path>
                <path d="M46,23 L10,23 C9.448,23 9,22.553 9,22 C9,21.447 9.448,21 10,21 L46,21 C46.552,21 47,21.447 47,22 C47,22.553 46.552,23 46,23" id="Fill-242" fill="#343B49" sketch:type="MSShapeGroup"></path>
                <path d="M46,2 L10,2 C9.448,2 9,1.553 9,1 C9,0.447 9.448,0 10,0 L46,0 C46.552,0 47,0.447 47,1 C47,1.553 46.552,2 46,2" id="Fill-243" fill="#343B49" sketch:type="MSShapeGroup"></path>
                <path d="M46,44 L10,44 C9.448,44 9,43.553 9,43 C9,42.447 9.448,42 10,42 L46,42 C46.552,42 47,42.447 47,43 C47,43.553 46.552,44 46,44" id="Fill-244" fill="#343B49" sketch:type="MSShapeGroup"></path>
                <path d="M46,44 L56,44 L56,33 L46,33 L46,44 Z M49,36 L53,36 L53,41 L49,41 L49,36 Z" id="Fill-2571" fill="#556080" sketch:type="MSShapeGroup"></path>
                <path d="M46,33 L56,33 L56,22 L46,22 L46,33 Z M49,25 L53,25 L53,30 L49,30 L49,25 Z" id="Fill-2572" fill="#38454F" sketch:type="MSShapeGroup"></path>
                <path d="M46,22 L56,22 L56,11 L46,11 L46,22 Z M49,14 L53,14 L53,19 L49,19 L49,14 Z" id="Fill-2573" fill="#556080" sketch:type="MSShapeGroup"></path>
                <path d="M46,11 L56,11 L56,0 L46,0 L46,11 Z M49,3 L53,3 L53,8 L49,8 L49,3 Z" id="Fill-2574" fill="#38454F" sketch:type="MSShapeGroup"></path>
                <path d="M0,44 L10,44 L10,33 L0,33 L0,44 Z M3,36 L7,36 L7,41 L3,41 L3,36 Z" id="Fill-2575" fill="#556080" sketch:type="MSShapeGroup"></path>
                <path d="M0,33 L10,33 L10,22 L0,22 L0,33 Z M3,25 L7,25 L7,30 L3,30 L3,25 Z" id="Fill-2576" fill="#38454F" sketch:type="MSShapeGroup"></path>
                <path d="M0,22 L10,22 L10,11 L0,11 L0,22 Z M3,14 L7,14 L7,19 L3,19 L3,14 Z" id="Fill-2577" fill="#556080" sketch:type="MSShapeGroup"></path>
                <path d="M0,11 L10,11 L10,0 L0,0 L0,11 Z M3,3 L7,3 L7,8 L3,8 L3,3 Z" id="Fill-2578" fill="#38454F" sketch:type="MSShapeGroup"></path>
            </g>
        </g>
    </g>
</svg>