<?xml version="1.0" encoding="UTF-8" standalone="no"?>
<svg width="52px" height="53px" viewBox="0 0 52 53" version="1.1" xmlns="http://www.w3.org/2000/svg" xmlns:xlink="http://www.w3.org/1999/xlink" xmlns:sketch="http://www.bohemiancoding.com/sketch/ns">
    <!-- Generator: Sketch 3.2.2 (9983) - http://www.bohemiancoding.com/sketch -->
    <title>275 - Video Clip (Flat)</title>
    <desc>Created with Sketch.</desc>
    <defs></defs>
    <g id="Page-1" stroke="none" stroke-width="1" fill="none" fill-rule="evenodd" sketch:type="MSPage">
        <g id="275---Video-Clip-(Flat)" sketch:type="MSLayerGroup">
            <path d="M0,0 L52,0 L52,53 L0,53 L0,0 Z" id="Fill-245" fill="#556080" sketch:type="MSShapeGroup"></path>
            <path d="M23,25 L23,11 L34,18 L23,25" id="Fill-246" fill="#FFFFFF" sketch:type="MSShapeGroup"></path>
            <path d="M0,34.941 L52,34.941 L52,53 L0,53 L0,34.941 Z" id="Fill-247" fill="#424A60" sketch:type="MSShapeGroup"></path>
            <path d="M46,45 L16,45 C15.447,45 15,44.553 15,44 C15,43.448 15.447,43 16,43 L46,43 C46.553,43 47,43.448 47,44 C47,44.553 46.553,45 46,45" id="Fill-1870" fill="#2A303D" sketch:type="MSShapeGroup"></path>
            <path d="M6,48 C5.447,48 5,47.553 5,47 L5,41 C5,40.448 5.447,40 6,40 C6.553,40 7,40.448 7,41 L7,47 C7,47.553 6.553,48 6,48" id="Fill-1871" fill="#FFFFFF" sketch:type="MSShapeGroup"></path>
            <path d="M10,48 C9.447,48 9,47.553 9,47 L9,41 C9,40.448 9.447,40 10,40 C10.553,40 11,40.448 11,41 L11,47 C11,47.553 10.553,48 10,48" id="Fill-1872" fill="#FFFFFF" sketch:type="MSShapeGroup"></path>
            <path d="M21,43 L16,43 C15.447,43 15,43.448 15,44 C15,44.553 15.447,45 16,45 L21,45 L21,43" id="Fill-2553" fill="#DD342E" sketch:type="MSShapeGroup"></path>
            <path d="M21,48 C20.447,48 20,47.553 20,47 L20,41 C20,40.448 20.447,40 21,40 C21.553,40 22,40.448 22,41 L22,47 C22,47.553 21.553,48 21,48" id="Fill-2554" fill="#FFFFFF" sketch:type="MSShapeGroup"></path>
        </g>
    </g>
</svg>