<?xml version="1.0" encoding="UTF-8" standalone="no"?>
<svg width="58px" height="32px" viewBox="0 0 58 32" version="1.1" xmlns="http://www.w3.org/2000/svg" xmlns:xlink="http://www.w3.org/1999/xlink" xmlns:sketch="http://www.bohemiancoding.com/sketch/ns">
    <!-- Generator: Sketch 3.2.2 (9983) - http://www.bohemiancoding.com/sketch -->
    <title>370 - View (Flat)</title>
    <desc>Created with Sketch.</desc>
    <defs></defs>
    <g id="Page-1" stroke="none" stroke-width="1" fill="none" fill-rule="evenodd" sketch:type="MSPage">
        <g id="Icons" sketch:type="MSArtboardGroup" transform="translate(-121.000000, -491.000000)">
            <g id="370---View-(Flat)" sketch:type="MSLayerGroup" transform="translate(121.000000, 491.000000)">
                <path d="M57.213,16.128 L49.979,23.362 C38.462,34.88 19.789,34.88 8.272,23.362 L0.842,15.932 L8.076,8.698 C19.593,-2.819 38.265,-2.819 49.783,8.698 L57.213,16.128" id="Fill-1831" fill="#E8EDEE" sketch:type="MSShapeGroup"></path>
                <path d="M41,16 C41,22.628 35.627,28 29,28 C22.373,28 17,22.628 17,16 C17,9.373 22.373,4 29,4 C35.627,4 41,9.373 41,16" id="Fill-1832" fill="#3083C9" sketch:type="MSShapeGroup"></path>
                <path d="M22,16 C21.448,16 21,15.552 21,15 C21,11.14 24.14,8 28,8 C28.552,8 29,8.448 29,9 C29,9.552 28.552,10 28,10 C25.243,10 23,12.243 23,15 C23,15.552 22.552,16 22,16" id="Fill-1833" fill="#FFFFFF" sketch:type="MSShapeGroup"></path>
            </g>
        </g>
    </g>
</svg>